<svg width="32" height="32" viewBox="0 0 42 42" fill="none" xmlns="http://www.w3.org/2000/svg">
<path d="M20.9974 0.167969C9.4974 0.167969 0.164062 9.5013 0.164062 21.0013C0.164062 32.5013 9.4974 41.8346 20.9974 41.8346C32.4974 41.8346 41.8307 32.5013 41.8307 21.0013C41.8307 9.5013 32.4974 0.167969 20.9974 0.167969ZM30.6641 14.3346C30.3516 17.6263 28.9974 25.6263 28.3099 29.3138C28.0182 30.8763 27.4349 31.3971 26.8932 31.4596C25.6849 31.5638 24.7682 30.668 23.6016 29.8971C21.7682 28.6888 20.7266 27.9388 18.9557 26.7721C16.8932 25.418 18.2266 24.668 19.4141 23.4596C19.7266 23.1471 25.0599 18.293 25.1641 17.8555C25.1785 17.7892 25.1766 17.7204 25.1585 17.6551C25.1403 17.5897 25.1065 17.5298 25.0599 17.4805C24.9349 17.3763 24.7682 17.418 24.6224 17.4388C24.4349 17.4805 21.5182 19.418 15.8307 23.2513C14.9974 23.8138 14.2474 24.1055 13.5807 24.0846C12.8307 24.0638 11.4141 23.668 10.3516 23.3138C9.03906 22.8971 8.01823 22.668 8.10156 21.9388C8.14323 21.5638 8.66406 21.1888 9.64323 20.793C15.7266 18.1471 19.7682 16.3971 21.7891 15.5638C27.5807 13.1471 28.7682 12.7305 29.5599 12.7305C29.7266 12.7305 30.1224 12.7721 30.3724 12.9805C30.5807 13.1471 30.6432 13.3763 30.6641 13.543C30.6432 13.668 30.6849 14.043 30.6641 14.3346Z" fill="#181818"/>
</svg>
