<svg width="40" height="44" viewBox="0 0 40 44" fill="none" xmlns="http://www.w3.org/2000/svg">
<path fill-rule="evenodd" clip-rule="evenodd" d="M29.7445 1.47387C23.19 0.00870886 16.3928 0.00870886 9.83829 1.47387L9.13204 1.63012C7.28832 2.04233 5.59497 2.95759 4.2401 4.27422C2.88522 5.59085 1.92186 7.2573 1.45704 9.08846C-0.204429 15.6354 -0.204429 22.4936 1.45704 29.0405C1.90032 30.7869 2.79746 32.385 4.05752 33.6729C5.31758 34.9608 6.89575 35.8926 8.63204 36.3739L9.60079 42.1572C9.63171 42.3409 9.7113 42.5128 9.83127 42.6553C9.95125 42.7977 10.1072 42.9054 10.2829 42.9671C10.4586 43.0288 10.6477 43.0422 10.8304 43.0061C11.013 42.9699 11.1827 42.8854 11.3216 42.7614L17.0112 37.6718C21.2822 37.9324 25.5687 37.5909 29.7445 36.6572L30.4529 36.501C32.2966 36.0887 33.9899 35.1735 35.3448 33.8569C36.6997 32.5402 37.6631 30.8738 38.1279 29.0426C39.7892 22.4957 39.7892 15.6375 38.1279 9.09054C37.6629 7.25912 36.6992 5.59248 35.3439 4.27583C33.9887 2.95918 32.2949 2.04407 30.4508 1.63221L29.7445 1.47387ZM11.5966 8.91971C11.2094 8.86335 10.8146 8.94128 10.4779 9.14054H10.4487C9.66745 9.59887 8.96329 10.176 8.36329 10.8551C7.86329 11.4322 7.59245 12.0155 7.52162 12.578C7.47995 12.9114 7.50912 13.2489 7.60704 13.5676L7.64454 13.5885C8.20704 15.2405 8.94037 16.8301 9.8362 18.326C10.9913 20.427 12.4128 22.3701 14.0654 24.1072L14.1154 24.178L14.1945 24.2364L14.2425 24.2926L14.3008 24.3426C16.044 26.0002 17.9917 27.4284 20.0966 28.5926C22.5029 29.903 23.9633 30.5218 24.8404 30.7801V30.7926C25.0966 30.8718 25.33 30.9072 25.5654 30.9072C26.3123 30.852 27.0193 30.5484 27.5737 30.0447C28.2508 29.4447 28.8237 28.7385 29.2695 27.953V27.9385C29.6883 27.1468 29.5466 26.401 28.9425 25.8947C27.7289 24.8344 26.4167 23.8926 25.0237 23.0822C24.0904 22.576 23.1425 22.8822 22.7591 23.3947L21.9404 24.428C21.5195 24.9405 20.757 24.8697 20.757 24.8697L20.7362 24.8822C15.0466 23.4301 13.5279 17.6697 13.5279 17.6697C13.5279 17.6697 13.457 16.8864 13.9841 16.4864L15.0091 15.6614C15.5008 15.2614 15.8425 14.3155 15.3154 13.3822C14.5104 11.988 13.5705 10.6761 12.5091 9.46554C12.2776 9.18063 11.953 8.98659 11.5925 8.91762L11.5966 8.91971ZM21.2091 6.41554C20.9329 6.41554 20.6679 6.52529 20.4726 6.72064C20.2772 6.91599 20.1675 7.18094 20.1675 7.45721C20.1675 7.73347 20.2772 7.99843 20.4726 8.19378C20.6679 8.38913 20.9329 8.49887 21.2091 8.49887C23.8445 8.49887 26.032 9.35929 27.7633 11.0093C28.6529 11.9114 29.3466 12.9801 29.8008 14.151C30.257 15.3239 30.4654 16.576 30.4112 17.8301C30.4055 17.9669 30.4267 18.1035 30.4738 18.2321C30.5208 18.3607 30.5927 18.4787 30.6854 18.5795C30.8725 18.7831 31.1329 18.9039 31.4091 18.9155C31.6854 18.9271 31.9549 18.8285 32.1585 18.6414C32.3621 18.4542 32.4829 18.1939 32.4945 17.9176C32.5592 16.3749 32.3031 14.8355 31.7425 13.3968C31.1794 11.9512 30.3257 10.6366 29.2341 9.53429L29.2133 9.51346C27.0654 7.46137 24.3466 6.41554 21.2091 6.41554ZM21.1383 9.84054C20.862 9.84054 20.5971 9.95029 20.4017 10.1456C20.2064 10.341 20.0966 10.6059 20.0966 10.8822C20.0966 11.1585 20.2064 11.4234 20.4017 11.6188C20.5971 11.8141 20.862 11.9239 21.1383 11.9239H21.1737C23.0737 12.0593 24.457 12.6926 25.4258 13.7322C26.4195 14.803 26.9341 16.1343 26.8945 17.7801C26.8882 18.0564 26.9918 18.3239 27.1827 18.5237C27.3736 18.7236 27.636 18.8394 27.9122 18.8457C28.1885 18.8521 28.456 18.7484 28.6558 18.5576C28.8557 18.3667 28.9715 18.1043 28.9779 17.828C29.0279 15.6676 28.332 13.803 26.9529 12.3155V12.3114C25.5425 10.7989 23.607 9.99887 21.2779 9.84262L21.2425 9.83846L21.1383 9.84054ZM21.0987 13.3301C20.9593 13.3178 20.8188 13.3337 20.6857 13.3769C20.5526 13.4201 20.4296 13.4897 20.3239 13.5815C20.2183 13.6732 20.1322 13.7854 20.0709 13.9112C20.0095 14.0369 19.9742 14.1738 19.9669 14.3136C19.9596 14.4533 19.9806 14.5931 20.0285 14.7246C20.0764 14.8561 20.1504 14.9765 20.2459 15.0788C20.3414 15.1811 20.4566 15.263 20.5845 15.3198C20.7124 15.3766 20.8504 15.407 20.9904 15.4093C21.8612 15.4551 22.4175 15.7176 22.7675 16.0697C23.1195 16.4239 23.382 16.9926 23.43 17.8822C23.4326 18.022 23.4633 18.1598 23.5203 18.2875C23.5773 18.4152 23.6594 18.5301 23.7617 18.6253C23.8641 18.7206 23.9845 18.7943 24.116 18.842C24.2474 18.8897 24.3871 18.9104 24.5267 18.903C24.6663 18.8956 24.803 18.8602 24.9286 18.7988C25.0543 18.7374 25.1662 18.6514 25.2579 18.5459C25.3496 18.4403 25.4191 18.3174 25.4622 18.1844C25.5054 18.0514 25.5213 17.9111 25.5091 17.7718C25.4425 16.5218 25.0508 15.4176 24.2487 14.6051C23.4425 13.7926 22.3445 13.3968 21.0987 13.3301Z" fill="white"/>
</svg>
