<svg width="32" height="32" viewBox="0 0 42 42" fill="none" xmlns="http://www.w3.org/2000/svg">
<path d="M21.0052 0.167969C32.5115 0.167969 41.8386 9.49505 41.8386 21.0013C41.8386 32.5075 32.5115 41.8346 21.0052 41.8346C17.3235 41.8406 13.7066 40.8662 10.5261 39.0117L0.180238 41.8346L2.9969 31.4846C1.14085 28.3031 0.165753 24.6846 0.171904 21.0013C0.171904 9.49505 9.49899 0.167969 21.0052 0.167969ZM13.9052 11.2096L13.4886 11.2263C13.2188 11.2427 12.9552 11.3136 12.7136 11.4346C12.4876 11.5626 12.2813 11.7226 12.1011 11.9096C11.8511 12.1451 11.7094 12.3492 11.5573 12.5471C10.7867 13.549 10.3718 14.779 10.3782 16.043C10.3823 17.0638 10.649 18.0576 11.0657 18.9867C11.9177 20.8659 13.3198 22.8555 15.1698 24.6992C15.6157 25.143 16.0532 25.5888 16.524 26.0034C18.8227 28.0273 21.562 29.4868 24.524 30.2659L25.7073 30.4471C26.0927 30.468 26.4782 30.4388 26.8657 30.4201C27.4724 30.3887 28.0648 30.2244 28.6011 29.9388C28.8739 29.7983 29.1401 29.6453 29.399 29.4805C29.399 29.4805 29.4886 29.4221 29.6594 29.293C29.9407 29.0846 30.1136 28.9367 30.3469 28.693C30.5198 28.5138 30.6698 28.3034 30.7844 28.0638C30.9469 27.7242 31.1094 27.0763 31.1761 26.5367C31.2261 26.1242 31.2115 25.8992 31.2052 25.7596C31.1969 25.5367 31.0115 25.3055 30.8094 25.2076L29.5969 24.6638C29.5969 24.6638 27.7844 23.8742 26.6761 23.3701C26.5601 23.3194 26.4358 23.2905 26.3094 23.2846C26.1669 23.27 26.0228 23.286 25.887 23.3317C25.7512 23.3773 25.6267 23.4515 25.5219 23.5492C25.5115 23.545 25.3719 23.6638 23.8657 25.4888C23.7792 25.605 23.6601 25.6928 23.5236 25.741C23.387 25.7892 23.2392 25.7957 23.099 25.7596C22.9633 25.7232 22.8303 25.6773 22.7011 25.6221C22.4427 25.5138 22.3532 25.4721 22.1761 25.3971C20.9804 24.8754 19.8733 24.1704 18.8948 23.3076C18.6323 23.0784 18.3886 22.8284 18.1386 22.5867C17.319 21.8018 16.6047 20.9138 16.0136 19.9451L15.8907 19.7471C15.8024 19.6141 15.731 19.4707 15.6782 19.3201C15.599 19.0138 15.8052 18.768 15.8052 18.768C15.8052 18.768 16.3115 18.2138 16.5469 17.9138C16.7761 17.6221 16.9698 17.3388 17.0948 17.1367C17.3407 16.7409 17.4177 16.3346 17.2886 16.0201C16.7052 14.5951 16.1011 13.1763 15.4802 11.768C15.3573 11.4888 14.9927 11.2888 14.6615 11.2492C14.549 11.2367 14.4365 11.2242 14.324 11.2159C14.0442 11.202 13.7639 11.2048 13.4844 11.2242L13.9032 11.2076L13.9052 11.2096Z" fill="#181818"/>
</svg>
