<svg width="9" height="9" viewBox="0 0 9 9" fill="none" xmlns="http://www.w3.org/2000/svg">
<g clip-path="url(#clip0_135_8323)">
<path d="M6.99377 1.49023H2.14015C1.73807 1.49023 1.41211 1.81619 1.41211 2.21828V6.58654C1.41211 6.98862 1.73807 7.31458 2.14015 7.31458H6.99377C7.39586 7.31458 7.72182 6.98862 7.72182 6.58654V2.21828C7.72182 1.81619 7.39586 1.49023 6.99377 1.49023Z" stroke="#181818" stroke-width="0.427119" stroke-linejoin="round"/>
<path d="M2.62551 1.00488V1.49024ZM6.50841 1.00488V1.49024ZM7.72182 2.70365H1.41211Z" fill="#494A52"/>
<path d="M2.62551 1.00488V1.49024M6.50841 1.00488V1.49024M7.72182 2.70365H1.41211" stroke="#181818" stroke-width="0.427119" stroke-linecap="round" stroke-linejoin="round"/>
<rect x="2.0957" y="3.4541" width="0.705981" height="0.705981" rx="0.142373" fill="#181818"/>
<rect x="3.50781" y="3.4541" width="0.705981" height="0.705981" rx="0.142373" fill="#181818"/>
<rect x="3.50781" y="4.5127" width="0.705981" height="0.705981" rx="0.142373" fill="#181818"/>
<rect x="4.91992" y="4.5127" width="0.705981" height="0.705981" rx="0.142373" fill="#181818"/>
<rect x="3.50781" y="5.57129" width="0.705981" height="0.705981" rx="0.142373" fill="#181818"/>
<rect x="4.91992" y="5.57129" width="0.705981" height="0.705981" rx="0.142373" fill="#181818"/>
<rect x="6.33203" y="4.5127" width="0.705981" height="0.705981" rx="0.142373" fill="#181818"/>
<rect x="6.33203" y="5.57129" width="0.705981" height="0.705981" rx="0.142373" fill="#181818"/>
</g>
<defs>
<clipPath id="clip0_135_8323">
<rect width="7.76579" height="7.76579" fill="white" transform="translate(0.683594 0.277344)"/>
</clipPath>
</defs>
</svg>
