<svg viewBox="0 0 32 32" fill="none" xmlns="http://www.w3.org/2000/svg" id="__root__"><path d="M20.907 19.45c4.653 0 8.426-3.758 8.426-8.393 0-4.633-3.773-8.39-8.426-8.39-4.654 0-8.424 3.757-8.424 8.39 0 2.147.98 3.708.98 3.708L3.273 24.912c-.457.456-1.097 1.64 0 2.733l1.176 1.171c.458.39 1.607.937 2.547 0l1.373-1.365c1.371 1.365 2.94.585 3.527-.196.979-1.366-.196-2.732-.196-2.732l.392-.391c1.88 1.873 3.527.781 4.115 0 .98-1.365 0-2.732 0-2.732-.392-.78-1.176-.78-.196-1.756l1.176-1.17c.94.78 2.873.975 3.722.975h-.002Z" stroke="#000" stroke-width="1.5" stroke-linejoin="round"/><path d="M23.847 11.059a2.934 2.934 0 0 1-2.94 2.926 2.934 2.934 0 0 1-2.938-2.926 2.933 2.933 0 0 1 2.939-2.928 2.934 2.934 0 0 1 2.939 2.928Z" stroke="#000" stroke-width="1.5"/></svg>