<svg viewBox="0 0 48 48" fill="none" xmlns="http://www.w3.org/2000/svg" id="__root__"><circle cx="24" cy="24" r="23.5" fill="#fff" stroke="#E8E8E8"/><path d="m18.273 26.146-.716 2.673-2.617.056A10.24 10.24 0 0 1 13.714 24c0-1.706.415-3.314 1.15-4.73l2.33.427 1.022 2.316a6.115 6.115 0 0 0-.33 1.987c0 .755.136 1.479.387 2.146Z" fill="#FBBB00"/><path d="M34.106 22.079a10.305 10.305 0 0 1-.045 4.07 10.284 10.284 0 0 1-3.622 5.872l-2.935-.15-.415-2.593a6.13 6.13 0 0 0 2.637-3.13h-5.5v-4.07H34.106Z" fill="#518EF8"/><path d="M30.439 32.02v.001A10.242 10.242 0 0 1 24 34.286c-3.916 0-7.322-2.19-9.06-5.412l3.334-2.728a6.116 6.116 0 0 0 8.815 3.132l3.35 2.743Z" fill="#28B446"/><path d="m30.565 16.082-3.332 2.728a6.118 6.118 0 0 0-9.018 3.203l-3.35-2.743A10.284 10.284 0 0 1 24 13.714c2.496 0 4.784.89 6.565 2.368Z" fill="#F14336"/></svg>