<svg viewBox="0 0 24 25" fill="none" xmlns="http://www.w3.org/2000/svg" id="__root__"><g clip-path="url(#key_svg__a)" stroke="#fff" stroke-width="1.5"><path d="M15.68 15.087c3.49 0 6.32-2.818 6.32-6.294C22 5.318 19.17 2.5 15.68 2.5S9.362 5.318 9.362 8.793c0 1.61.735 2.781.735 2.781l-7.642 7.61c-.343.342-.823 1.23 0 2.05l.882.878c.343.293 1.205.703 1.91 0l1.03-1.024c1.028 1.024 2.204.439 2.645-.147.734-1.024-.147-2.049-.147-2.049l.294-.293c1.41 1.405 2.645.586 3.086 0 .735-1.024 0-2.049 0-2.049-.294-.585-.882-.585-.147-1.317l.882-.878c.705.585 2.155.732 2.792.732h-.002Z" stroke-linejoin="round"/><path d="M17.885 8.794a2.2 2.2 0 0 1-2.204 2.195 2.2 2.2 0 0 1-2.204-2.195 2.2 2.2 0 0 1 3.046-2.03 2.2 2.2 0 0 1 1.362 2.03Z"/></g><defs><clipPath id="key_svg__a"><path fill="#fff" transform="translate(0 .5)" d="M0 0h24v24H0z"/></clipPath></defs></svg>