<svg viewBox="0 0 212 213" fill="none" xmlns="http://www.w3.org/2000/svg" id="__root__"><circle cx="105.919" cy="106.497" r="105.919" fill="#BBB59B"/><path d="M51.988 59.711a4.857 4.857 0 0 1 4.864-4.85h98.907a4.857 4.857 0 0 1 4.864 4.85v99.744c0 2.678-2.178 4.849-4.864 4.849H56.853c-2.687 0-4.865-2.171-4.865-4.849V59.711Z" fill="#FFF4DF"/><path d="M76.472 52.437a3.724 3.724 0 0 1 3.729-3.719c2.06 0 3.73 1.665 3.73 3.719v7.274a3.724 3.724 0 0 1-3.73 3.718 3.724 3.724 0 0 1-3.73-3.718v-7.274ZM102.576 52.437a3.724 3.724 0 0 1 3.73-3.719 3.724 3.724 0 0 1 3.729 3.719v7.274a3.724 3.724 0 0 1-3.729 3.718 3.724 3.724 0 0 1-3.73-3.718v-7.274ZM128.681 52.437a3.724 3.724 0 0 1 3.729-3.719 3.723 3.723 0 0 1 3.729 3.719v7.274a3.723 3.723 0 0 1-3.729 3.718 3.724 3.724 0 0 1-3.729-3.718v-7.274Z" fill="#181818"/><path d="M61.555 74.584H83.93v13.74H61.555v-13.74ZM106.306 74.584h22.375v13.74h-22.375v-13.74Z" fill="#AF3B3B"/><path d="M128.681 74.584h22.375v13.74h-22.375v-13.74Z" fill="#D9D4BF"/><path d="M61.555 89.618H83.93v13.741H61.555V89.618ZM106.306 89.618h22.375v13.741h-22.375V89.618ZM61.555 104.652H83.93v13.741H61.555v-13.741ZM106.306 104.652h22.375v13.741h-22.375v-13.741Z" fill="#AF3B3B"/><path d="M128.681 104.652h22.375v13.741h-22.375v-13.741Z" fill="#D9D4BF"/><path d="M61.555 119.687H83.93v13.74H61.555v-13.74Z" fill="#AF3B3B"/><path d="M83.93 119.687h22.376v13.74H83.93v-13.74Z" fill="#D9D4BF"/><path d="M106.306 119.687h22.375v13.74h-22.375v-13.74ZM61.555 134.721H83.93v13.741H61.555v-13.741Z" fill="#AF3B3B"/><path d="M75.66 52.437c0-2.5 2.034-4.527 4.54-4.527a4.533 4.533 0 0 1 4.54 4.527v7.113c0 2.5-2.032 4.526-4.54 4.526a4.533 4.533 0 0 1-4.54-4.526v-7.113ZM101.766 52.437c0-2.5 2.032-4.527 4.54-4.527a4.533 4.533 0 0 1 4.539 4.527v7.113c0 2.5-2.032 4.526-4.539 4.526a4.533 4.533 0 0 1-4.54-4.526v-7.113ZM127.87 52.437c0-2.5 2.033-4.527 4.54-4.527a4.533 4.533 0 0 1 4.54 4.527v7.113c0 2.5-2.032 4.526-4.54 4.526a4.533 4.533 0 0 1-4.54-4.526v-7.113Z" fill="#181818"/><path fill-rule="evenodd" clip-rule="evenodd" d="M83.93 74.584h22.376v.485H83.93v-.485Zm0 13.256h22.376v.485H83.93v-.485Zm0 1.778h22.376v.485H83.93v-.485Zm44.751 0h22.213v13.741h-22.213v-.485h21.727V90.103h-21.727v-.485Zm-44.75 13.256h22.375v.485H83.93v-.485Zm0 1.778h22.375v.485H83.93v-.485Zm0 13.256h22.375v.485H83.93v-.485Zm44.75 1.779h22.213v13.74h-22.213v-.484h21.727v-12.771h-21.727v-.485Zm-44.75 15.034h66.963v.485H83.93v-.485Zm0 13.256h66.963v.485H83.93v-.485Z" fill="#D9D4BF"/></svg>