<svg viewBox="0 0 55 49" fill="none" xmlns="http://www.w3.org/2000/svg" id="__root__"><path d="M53.6.954a4.119 4.119 0 0 0-1.975-.9A4.15 4.15 0 0 0 49.46.28L2.584 18.393a3.998 3.998 0 0 0-1.982 1.61 3.897 3.897 0 0 0-.583 2.462 3.966 3.966 0 0 0 1.02 2.32 4.08 4.08 0 0 0 2.23 1.253l11.91 2.324v14.64c0 .793.238 1.567.686 2.226a4.049 4.049 0 0 0 1.828 1.473 4.274 4.274 0 0 0 1.55.3 4.071 4.071 0 0 0 1.554-.303c.493-.202.94-.498 1.315-.872l6.602-6.47L38.694 48c.736.64 1.684.994 2.666 1a3.66 3.66 0 0 0 1.27-.2 4.047 4.047 0 0 0 1.75-1.095c.476-.508.81-1.13.967-1.804l9.548-41.025a3.936 3.936 0 0 0-.094-2.138A3.993 3.993 0 0 0 53.6.954ZM16.728 24.589 4.082 22.116l35.45-13.717-22.804 16.19Zm2.514 18.414V31.16l6.4 5.547-6.4 6.296Zm22.143 1.999L20.461 26.888 50.603 5.476l-9.218 39.526Z" fill="#fff"/></svg>