<svg viewBox="0 0 212 213" fill="none" xmlns="http://www.w3.org/2000/svg" id="__root__"><circle cx="105.919" cy="106.497" r="105.919" fill="#BBB59B"/><path d="M163.726 106.543c-.212 31.683-26.266 57.196-58.192 56.985-31.926-.211-57.636-26.066-57.423-57.749.212-31.683 26.266-57.196 58.192-56.985 31.926.21 57.636 26.066 57.423 57.749Z" fill="#FFF4DF"/><path d="M106.441 106.47V48.688c45.318 1.763 57.679 39.348 57.262 57.782h-57.262Z" fill="#AF3B3B"/><path d="M104.883 56.401c0-.862.703-1.561 1.572-1.561.868 0 1.572.699 1.572 1.561v6.795c0 .863-.704 1.561-1.572 1.561a1.566 1.566 0 0 1-1.572-1.56V56.4ZM157.044 105.07c.869 0 1.573.699 1.573 1.561s-.704 1.561-1.573 1.561H150.2a1.567 1.567 0 0 1-1.572-1.561c0-.862.704-1.561 1.572-1.561h6.844ZM104.883 150.158c0-.862.703-1.561 1.572-1.561.868 0 1.572.699 1.572 1.561v6.795c0 .862-.704 1.561-1.572 1.561a1.566 1.566 0 0 1-1.572-1.561v-6.795ZM62.617 105.07c.868 0 1.572.699 1.572 1.561s-.704 1.561-1.572 1.561h-6.844a1.567 1.567 0 0 1-1.573-1.561c0-.862.704-1.561 1.573-1.561h6.844ZM63.287 134.178a.913.913 0 0 0-.239 1.276.928.928 0 0 0 1.286.238l6.71-4.572a.915.915 0 0 0 .24-1.277.93.93 0 0 0-1.286-.238l-6.71 4.573ZM141.146 81.128a.914.914 0 0 0-.239 1.277.928.928 0 0 0 1.285.237l6.711-4.572a.914.914 0 0 0 .239-1.277.929.929 0 0 0-1.286-.237l-6.71 4.572ZM149.636 134.178a.913.913 0 0 1 .239 1.276.928.928 0 0 1-1.286.238l-6.71-4.572a.915.915 0 0 1-.24-1.277.93.93 0 0 1 1.286-.238l6.711 4.573ZM71.778 81.128a.914.914 0 0 1 .239 1.277.929.929 0 0 1-1.286.237l-6.71-4.572a.914.914 0 0 1-.24-1.277.929.929 0 0 1 1.286-.237l6.71 4.572ZM80.594 150.648a.915.915 0 0 0 .37 1.245.929.929 0 0 0 1.255-.368l3.886-7.1a.916.916 0 0 0-.371-1.246.928.928 0 0 0-1.254.369l-3.886 7.1ZM125.68 68.27a.916.916 0 0 0 .371 1.245.93.93 0 0 0 1.255-.369l3.886-7.1a.916.916 0 0 0-.371-1.245.93.93 0 0 0-1.255.368l-3.886 7.1ZM132.33 150.648a.915.915 0 0 1-.371 1.245.93.93 0 0 1-1.255-.368l-3.886-7.1a.916.916 0 0 1 .371-1.246.93.93 0 0 1 1.255.369l3.886 7.1ZM87.243 68.27a.915.915 0 0 1-.371 1.245.928.928 0 0 1-1.254-.369l-3.886-7.1a.915.915 0 0 1 .37-1.245.928.928 0 0 1 1.255.368l3.886 7.1Z" fill="#181818"/><path d="M105.44 106.364a1.378 1.378 0 0 1 1.748-.852 1.366 1.366 0 0 1 .858 1.735l-16.113 46.861a1.379 1.379 0 0 1-1.748.852 1.365 1.365 0 0 1-.858-1.735l16.113-46.861Z" fill="#D9D4BF"/><path d="M129.194 154.282a.36.36 0 0 1-.653.304l-24.431-51.734a.36.36 0 0 1 .653-.304l24.431 51.734Z" fill="#AF3B3B"/><path d="M80.485 84.296a2.147 2.147 0 0 1-.051-3.052 2.184 2.184 0 0 1 3.073-.051l24.409 23.437c.863.829.886 2.195.052 3.052a2.184 2.184 0 0 1-3.073.051l-24.41-23.438Z" fill="#D9D4BF"/></svg>