<svg viewBox="0 0 73 73" fill="none" xmlns="http://www.w3.org/2000/svg" id="__root__"><path d="M24.226 18.87a2.5 2.5 0 0 0-1.633.323h-.043a12.496 12.496 0 0 0-3.044 2.504c-.73.842-1.126 1.694-1.23 2.515-.06.487-.017.98.126 1.445l.054.03a36.12 36.12 0 0 0 3.2 6.917 40.682 40.682 0 0 0 6.175 8.44l.073.104.115.085.07.082.085.073a41.261 41.261 0 0 0 8.462 6.205c3.514 1.914 5.646 2.817 6.926 3.194v.018c.374.116.715.168 1.059.168a4.897 4.897 0 0 0 2.932-1.26 11.987 11.987 0 0 0 2.476-3.053v-.022c.611-1.155.404-2.244-.478-2.984a36.883 36.883 0 0 0-5.721-4.106c-1.363-.739-2.747-.292-3.306.456l-1.196 1.51c-.614.747-1.727.644-1.727.644l-.03.018c-8.308-2.12-10.525-10.53-10.525-10.53s-.103-1.144.666-1.728l1.497-1.204c.718-.584 1.216-1.965.447-3.328a35.92 35.92 0 0 0-4.097-5.718 2.276 2.276 0 0 0-1.339-.8l.006.003Zm14.038-3.655a1.521 1.521 0 0 0 0 3.041c3.844 0 7.038 1.257 9.566 3.666a13.48 13.48 0 0 1 2.974 4.587c.667 1.712.97 3.54.892 5.371a1.522 1.522 0 0 0 3.041.128c.095-2.253-.28-4.5-1.098-6.6a16.553 16.553 0 0 0-3.662-5.64l-.03-.03c-3.136-2.996-7.103-4.523-11.683-4.523Z" fill="#fff"/><path d="M38.161 20.218a1.52 1.52 0 1 0 0 3.042h.052c2.774.197 4.794 1.122 6.208 2.64 1.451 1.563 2.202 3.507 2.145 5.91a1.521 1.521 0 1 0 3.041.07c.073-3.155-.943-5.877-2.956-8.049v-.006c-2.06-2.208-4.885-3.376-8.286-3.604l-.052-.006-.152.003Z" fill="#fff"/><path d="M38.1 25.303a1.519 1.519 0 0 0-1.563 2.036 1.522 1.522 0 0 0 1.405 1c1.271.066 2.083.45 2.594.964.514.517.898 1.347.967 2.646a1.521 1.521 0 1 0 3.036-.161c-.097-1.825-.67-3.438-1.84-4.624-1.177-1.186-2.78-1.764-4.6-1.861Z" fill="#fff"/><path fill-rule="evenodd" clip-rule="evenodd" d="M21.495 7.255a67.373 67.373 0 0 1 29.395 0l1.03.229a15.68 15.68 0 0 1 11.778 11.445 59.975 59.975 0 0 1 0 29.505 15.68 15.68 0 0 1-11.777 11.445l-1.035.229a67.374 67.374 0 0 1-18.484 1.517l-8.07 7.221a2.282 2.282 0 0 1-3.77-1.323l-1.336-7.975a15.68 15.68 0 0 1-10.54-11.114 59.972 59.972 0 0 1 0-29.505A15.68 15.68 0 0 1 20.464 7.484l1.03-.229Zm28.4 4.45a62.81 62.81 0 0 0-27.406 0l-1.034.232a11.116 11.116 0 0 0-8.346 8.115 55.411 55.411 0 0 0 0 27.26 11.117 11.117 0 0 0 8.35 8.114l.273.061a2.281 2.281 0 0 1 1.752 1.85l.894 5.347 5.694-5.095a2.28 2.28 0 0 1 1.682-.578 62.819 62.819 0 0 0 18.14-1.354l1.032-.23a11.117 11.117 0 0 0 8.35-8.116 55.43 55.43 0 0 0 0-27.26 11.118 11.118 0 0 0-8.35-8.114l-1.031-.232Z" fill="#fff"/></svg>