<svg viewBox="0 0 58 58" fill="none" xmlns="http://www.w3.org/2000/svg" id="__root__"><path d="M49.526 8.432a28.608 28.608 0 0 0-9.357-6.259A28.712 28.712 0 0 0 29.11 0C13.207 0 .248 12.898.233 28.732a28.739 28.739 0 0 0 3.849 14.373L0 58l15.308-3.995a28.99 28.99 0 0 0 13.801 3.498h.015c15.905 0 28.861-12.897 28.876-28.746a28.52 28.52 0 0 0-2.198-11.006 28.614 28.614 0 0 0-6.276-9.32ZM29.11 52.639c-4.3.001-8.522-1.151-12.22-3.335l-.874-.522-9.082 2.37 2.425-8.82-.568-.91a23.7 23.7 0 0 1-3.667-12.705c0-13.144 10.768-23.867 24-23.867 3.153-.005 6.276.61 9.188 1.812a23.895 23.895 0 0 1 7.782 5.188 23.764 23.764 0 0 1 5.207 7.748 23.677 23.677 0 0 1 1.813 9.145C53.1 41.934 42.331 52.639 29.11 52.639Zm13.164-17.886c-.718-.359-4.26-2.095-4.927-2.342-.663-.235-1.147-.359-1.62.36-.485.713-1.868 2.34-2.283 2.808-.416.483-.845.537-1.566.182-.718-.363-3.044-1.117-5.797-3.57-2.149-1.904-3.587-4.26-4.017-4.974-.415-.718-.04-1.102.32-1.461.317-.32.718-.841 1.078-1.255.365-.413.485-.717.721-1.196.237-.485.124-.899-.054-1.258-.182-.358-1.62-3.9-2.229-5.328-.582-1.41-1.176-1.215-1.62-1.233-.415-.025-.9-.025-1.384-.025a2.663 2.663 0 0 0-1.926.895c-.663.718-2.516 2.454-2.516 5.996 0 3.541 2.585 6.945 2.95 7.427.356.483 5.075 7.729 12.318 10.846a40.258 40.258 0 0 0 4.111 1.516c1.73.55 3.292.467 4.537.29 1.384-.21 4.264-1.74 4.873-3.419.597-1.682.597-3.117.415-3.418-.179-.305-.663-.482-1.384-.841Z" fill="#fff"/></svg>