<svg width="50" height="50" viewBox="0 0 50 50" fill="none" xmlns="http://www.w3.org/2000/svg">
<path d="M30.1766 10.8874C29.3094 10.8937 28.4484 10.9359 27.5391 11.1796C26.5484 11.4485 25.6084 11.8776 24.7563 12.4499C23.5594 11.7468 22.4 11.1687 21.2891 11.0328C19.9094 10.8624 18.6281 10.9546 17.1391 10.9859C15.3734 11.0218 14.2219 11.9234 12.3531 12.6453C10.4859 13.364 8.08125 14.0609 4.6875 14.0609H3.125V29.0999L4.00469 29.539L6.88438 30.9562L17.1391 42.3812L17.1875 42.4296C18.3594 43.589 19.9406 43.8765 21.3375 43.7968C22.7359 43.7187 24.0484 43.3093 25.0969 42.6749C27.4047 41.2828 33.6906 36.9124 33.6906 36.9124L33.8375 36.814L33.9359 36.7171C34.6797 35.9781 35.0531 35.0765 35.3031 34.1296L41.3078 31.1015L45.8 29.589L46.875 29.2453V14.0609H45.3125C42.686 14.0788 40.0815 13.5809 37.6469 12.5953C35.7781 11.8656 34.6438 10.9734 32.8594 10.9359C31.9063 10.9171 31.0422 10.8812 30.1766 10.8874ZM30.2234 14.0124C30.9266 14.0062 31.7391 14.0437 32.7641 14.0609C32.9281 14.0671 34.4297 14.7078 36.5234 15.5265C38.2938 16.2218 40.7531 16.839 43.75 17.039V26.9999L40.1359 28.2218H40.0391L39.9406 28.2687L35.2062 30.6624C34.9549 29.9373 34.5559 29.2723 34.0344 28.7093L33.9359 28.5624L27.2953 20.4093L26.3188 19.1874L25.0969 20.164L20.8984 23.5828C19.4891 24.5593 18.3469 24.2781 17.1875 23.7296C16.8516 23.5703 16.8703 23.5218 16.6016 23.339L23.7312 17.4296L23.8281 17.3328C25.9453 15.2328 27.2469 14.5062 28.3687 14.2078C28.9312 14.0546 29.5219 14.0187 30.2234 14.0124ZM19.3375 14.0609C19.8588 14.0412 20.3809 14.0574 20.9 14.1093C21.3094 14.1578 21.7734 14.5062 22.1703 14.6468C22.0109 14.7937 21.8953 14.8781 21.7297 15.0374L21.6328 15.1359L13.0875 22.214L11.7688 23.289L12.9406 24.5093C12.9406 24.5093 14.0703 25.7312 15.8219 26.5609C17.5734 27.3906 20.2781 27.8609 22.7062 26.1703L22.8047 26.0718L25.8312 23.5828L31.5937 30.6624L31.6422 30.7609L31.6906 30.8078C32.7219 31.8281 32.6984 33.4328 31.6906 34.4718C31.6781 34.4828 31.7031 34.5078 31.6906 34.5187C31.6781 34.5265 31.4719 34.6484 31.4469 34.6671L29.3953 31.8828L26.8562 33.739L28.8594 36.4234C28.0469 36.9734 27.6812 37.2609 26.8078 37.8406L24.7094 35.0078L22.1687 36.864L24.1719 39.5484C23.9937 39.6578 23.6281 39.9031 23.4875 39.989C22.9937 40.2874 22.0406 40.6234 21.1922 40.6718C20.3937 40.7156 19.7828 40.5312 19.4844 40.2812L19.4359 40.2328L8.98594 28.6609L8.79063 28.4156L6.25 27.1468V17.039C9.23438 16.8437 11.7125 16.2515 13.4766 15.5749C15.5641 14.7749 17.0547 14.1156 17.2359 14.1093L19.3359 14.0609H19.3375Z" fill="white"/>
</svg>
