<svg width="50" height="50" viewBox="0 0 50 50" fill="none" xmlns="http://www.w3.org/2000/svg">
<path d="M25.0003 11.46L23.8753 12.5433C24.0211 12.6946 24.1958 12.8149 24.3891 12.897C24.5824 12.9792 24.7903 13.0215 25.0003 13.0215C25.2104 13.0215 25.4182 12.9792 25.6115 12.897C25.8048 12.8149 25.9796 12.6946 26.1253 12.5433L25.0003 11.46ZM19.6378 38.1725C16.4795 35.6829 13.0274 33.2517 10.2878 30.1683C7.60449 27.1433 5.72949 23.6142 5.72949 19.0371H2.60449C2.60449 24.5913 4.91699 28.8288 7.95241 32.2433C10.9316 35.5975 14.7316 38.285 17.7024 40.6267L19.6399 38.1725H19.6378ZM5.72949 19.0371C5.72949 14.5579 8.26074 10.7996 11.717 9.21835C15.0753 7.68293 19.5878 8.08918 23.8753 12.5433L26.1253 10.3788C21.042 5.09335 15.1337 4.22043 10.417 6.37668C5.80449 8.4871 2.60449 13.3871 2.60449 19.0371H5.72949ZM17.7024 40.6267C18.7712 41.4683 19.917 42.3642 21.0774 43.0433C22.2378 43.7204 23.5628 44.2725 25.0003 44.2725V41.1475C24.3545 41.1475 23.5962 40.8975 22.6545 40.3454C21.7107 39.7954 20.7337 39.0371 19.6378 38.1725L17.7024 40.6267ZM32.2982 40.6267C35.2691 38.2829 39.0691 35.5996 42.0482 32.2433C45.0837 28.8267 47.3962 24.5913 47.3962 19.0371H44.2712C44.2712 23.6142 42.3962 27.1433 39.7128 30.1683C36.9732 33.2517 33.5212 35.6829 30.3628 38.1725L32.2982 40.6267ZM47.3962 19.0371C47.3962 13.3871 44.1982 8.4871 39.5837 6.37668C34.867 4.22043 28.9628 5.09335 23.8753 10.3767L26.1253 12.5433C30.4128 8.09126 34.9253 7.68293 38.2837 9.21835C41.7399 10.7996 44.2712 14.5558 44.2712 19.0371H47.3962ZM30.3628 38.1725C29.267 39.0371 28.2899 39.7954 27.3462 40.3454C26.4045 40.8954 25.6462 41.1475 25.0003 41.1475V44.2725C26.4378 44.2725 27.7628 43.7204 28.9232 43.0433C30.0857 42.3642 31.2295 41.4683 32.2982 40.6267L30.3628 38.1725Z" fill="white"/>
</svg>
