<svg width="62" height="23" viewBox="0 0 62 23" fill="none" xmlns="http://www.w3.org/2000/svg">
<path d="M0.52 22V0.999999H9.91C11.33 0.999999 12.56 1.28 13.6 1.84C14.66 2.38 15.48 3.14 16.06 4.12C16.64 5.1 16.93 6.24 16.93 7.54C16.93 8.78 16.64 9.89 16.06 10.87C15.48 11.85 14.66 12.62 13.6 13.18C12.56 13.72 11.33 13.99 9.91 13.99H4.12V22H0.52ZM4.12 11.05H9.34C10.62 11.05 11.6 10.73 12.28 10.09C12.96 9.43 13.3 8.57 13.3 7.51C13.3 6.47 12.96 5.63 12.28 4.99C11.6 4.35 10.63 4.03 9.37 4.03H4.12V11.05ZM20.8813 22V0.999999H30.2113C31.5913 0.999999 32.8113 1.27 33.8713 1.81C34.9313 2.35 35.7513 3.1 36.3313 4.06C36.9313 5 37.2313 6.1 37.2313 7.36C37.2313 8.72 36.8513 9.91 36.0913 10.93C35.3513 11.93 34.3413 12.66 33.0613 13.12L37.5013 22H33.5113L29.4613 13.6H24.4813V22H20.8813ZM24.4813 10.72H29.8813C31.0013 10.72 31.9013 10.42 32.5813 9.82C33.2613 9.2 33.6013 8.39 33.6013 7.39C33.6013 6.37 33.2613 5.56 32.5813 4.96C31.9013 4.34 31.0013 4.03 29.8813 4.03H24.4813V10.72ZM50.6976 22.33C49.2176 22.33 47.8276 22.06 46.5276 21.52C45.2476 20.96 44.1176 20.19 43.1376 19.21C42.1776 18.21 41.4276 17.06 40.8876 15.76C40.3476 14.44 40.0776 13.02 40.0776 11.5C40.0776 9.98 40.3476 8.57 40.8876 7.27C41.4276 5.95 42.1776 4.8 43.1376 3.82C44.1176 2.82 45.2476 2.05 46.5276 1.51C47.8276 0.949999 49.2176 0.669999 50.6976 0.669999C52.1776 0.669999 53.5576 0.949999 54.8376 1.51C56.1376 2.05 57.2676 2.82 58.2276 3.82C59.2076 4.8 59.9676 5.95 60.5076 7.27C61.0476 8.57 61.3176 9.98 61.3176 11.5C61.3176 13.02 61.0476 14.44 60.5076 15.76C59.9676 17.06 59.2076 18.21 58.2276 19.21C57.2676 20.19 56.1376 20.96 54.8376 21.52C53.5576 22.06 52.1776 22.33 50.6976 22.33ZM50.6976 19.09C51.6776 19.09 52.5876 18.9 53.4276 18.52C54.2676 18.14 54.9976 17.61 55.6176 16.93C56.2576 16.23 56.7476 15.42 57.0876 14.5C57.4476 13.58 57.6276 12.58 57.6276 11.5C57.6276 10.42 57.4476 9.42 57.0876 8.5C56.7476 7.58 56.2576 6.78 55.6176 6.1C54.9976 5.4 54.2676 4.86 53.4276 4.48C52.5876 4.1 51.6776 3.91 50.6976 3.91C49.7176 3.91 48.8076 4.1 47.9676 4.48C47.1276 4.86 46.3876 5.4 45.7476 6.1C45.1076 6.78 44.6076 7.58 44.2476 8.5C43.9076 9.42 43.7376 10.42 43.7376 11.5C43.7376 12.58 43.9076 13.58 44.2476 14.5C44.6076 15.42 45.1076 16.23 45.7476 16.93C46.3876 17.61 47.1276 18.14 47.9676 18.52C48.8076 18.9 49.7176 19.09 50.6976 19.09Z" fill="white"/>
</svg>
