<svg width="84" height="30" viewBox="0 0 84 30" fill="none" xmlns="http://www.w3.org/2000/svg">
<path d="M3.24414 6.02637V29.6396H0.548828V6.02637H3.24414ZM16.2959 27.3838V29.0977H14.6846V27.3838H13.0586V25.8311H17.8633V27.3838H16.2959ZM6.39355 21.627C9.09863 21.627 11.2178 21.3779 12.751 20.8799L7.31641 6.02637H10.29L15.0947 19.7373C16.0127 19.083 16.75 18.209 17.3066 17.1152C17.873 16.0117 18.2832 14.5664 18.5371 12.7793C18.8008 10.9922 18.9326 8.74121 18.9326 6.02637H21.7598C21.7598 10.5381 21.2812 14.0732 20.3242 16.6318C19.6797 18.3311 18.7764 19.7373 17.6143 20.8506C16.4521 21.9541 14.9531 22.8037 13.1172 23.3994C11.291 23.9854 9.0498 24.3467 6.39355 24.4834V21.627ZM28.498 6.02637V24H25.8027V6.02637H28.498ZM25.9785 1.64648C25.9785 1.33398 26.0957 1.06055 26.3301 0.826172C26.5645 0.591797 26.8379 0.474609 27.1504 0.474609C27.4629 0.474609 27.7363 0.591797 27.9707 0.826172C28.2051 1.06055 28.3223 1.33398 28.3223 1.64648C28.3223 1.95898 28.2051 2.23242 27.9707 2.4668C27.7461 2.70117 27.4727 2.81836 27.1504 2.81836C26.8184 2.81836 26.54 2.70117 26.3154 2.4668C26.0908 2.23242 25.9785 1.95898 25.9785 1.64648ZM46.1055 21.6855V24H32.2773V21.5098H42.751L31.1934 6.02637H34.5625L40.1436 13.6143C40.8955 13.292 41.4424 12.8184 41.7842 12.1934C42.126 11.5586 42.3555 10.5918 42.4727 9.29297L42.8096 6.02637H45.5928L45.2998 9.23438C45.1729 10.582 44.9727 11.6172 44.6992 12.3398C44.4258 13.0527 44.04 13.6436 43.542 14.1123C43.0439 14.5811 42.3408 14.9961 41.4326 15.3574L46.1055 21.6855ZM63.4492 11.6074C63.4492 13.4434 63.0781 15.1865 62.3359 16.8369C61.5938 18.4873 60.5439 19.9668 59.1865 21.2754C57.8291 22.5742 56.2178 23.6143 54.3525 24.3955V21.3047C56.3936 20.3867 57.9609 19.1123 59.0547 17.4814C60.1582 15.8408 60.71 14.0049 60.71 11.9736C60.71 10.665 60.4219 9.76172 59.8457 9.26367C59.2793 8.76562 58.2979 8.5166 56.9014 8.5166H49.1963V6.02637H56.7842C59.1963 6.02637 60.9102 6.46094 61.9258 7.33008C62.9414 8.18945 63.4492 9.61523 63.4492 11.6074ZM52.6387 12.3252V29.6396H49.9434V12.3252H52.6387ZM73.5859 27.9551C73.5859 27.6328 73.7031 27.3545 73.9375 27.1201C74.1621 26.8955 74.4355 26.7832 74.7578 26.7832C75.0898 26.7832 75.3682 26.9004 75.5928 27.1348C75.8174 27.3691 75.9297 27.6426 75.9297 27.9551C75.9297 28.2676 75.8125 28.5361 75.5781 28.7607C75.3438 28.9854 75.0703 29.0977 74.7578 29.0977C74.4453 29.0977 74.1719 28.9854 73.9375 28.7607C73.7031 28.5361 73.5859 28.2676 73.5859 27.9551ZM76.1934 5.7334C78.5566 5.7334 80.2803 6.45605 81.3643 7.90137C82.458 9.33691 83.0049 11.6221 83.0049 14.7568V24H74.1865V21.5098H80.2803V15.0938C80.2803 12.7012 79.9727 10.9629 79.3574 9.87891C78.7422 8.79492 77.6973 8.25293 76.2227 8.25293C74.9043 8.25293 73.8203 8.84863 72.9707 10.04C72.1113 11.251 71.3252 13.3555 70.6123 16.3535L68.7812 24H65.8809L67.8877 16.1338C68.1123 15.2158 68.3418 14.3857 68.5762 13.6436C68.8105 12.9014 69.04 12.2422 69.2646 11.666L65.6025 6.02637H68.7812L70.6123 9C71.374 7.84766 72.1895 7.01758 73.0586 6.50977C73.9277 5.99219 74.9727 5.7334 76.1934 5.7334Z" fill="white"/>
</svg>
