<svg width="10" height="10" viewBox="0 0 10 10" fill="none" xmlns="http://www.w3.org/2000/svg">
<g clip-path="url(#clip0_185_4638)">
<path d="M6.7822 5.98277C8.10691 5.98277 9.18111 4.91313 9.18111 3.59374C9.18111 2.27472 8.10691 1.20508 6.7822 1.20508C5.45749 1.20508 4.38406 2.27472 4.38406 3.59374C4.38406 4.23926 4.33833 4.97269 3.88092 5.42818L1.76234 7.53789C1.63215 7.6677 1.44995 8.00476 1.76234 8.31601L2.09712 8.64928C2.22732 8.76049 2.55451 8.91612 2.82211 8.64928C3.03834 8.43431 3.40011 8.48353 3.70482 8.47255C3.92623 8.46457 4.11925 8.33475 4.21704 8.2048C4.42904 7.90904 4.2861 7.61306 4.20564 7.48844C4.18239 7.45244 4.18473 7.40365 4.21508 7.3734C4.24701 7.34158 4.29868 7.34199 4.33236 7.37196C4.84254 7.8261 5.28305 7.52998 5.4442 7.31584C5.49195 7.24932 5.52335 7.1828 5.54261 7.11821C5.65807 6.73094 5.10207 6.32336 5.38841 6.03819C5.57823 5.84923 5.8903 5.83233 6.14931 5.90054C6.38678 5.96308 6.63932 5.98277 6.78296 5.98277H6.7822Z" fill="black" stroke="black" stroke-linejoin="round"/>
<path d="M7.61847 3.59429C7.61797 3.81569 7.52956 4.02784 7.37268 4.18408C7.2158 4.34031 7.0033 4.42786 6.78189 4.42745C6.56049 4.42786 6.34798 4.34031 6.1911 4.18408C6.03423 4.02784 5.94582 3.81569 5.94531 3.59429C5.94551 3.48463 5.96731 3.37608 6.00946 3.27484C6.05161 3.1736 6.11329 3.08166 6.19097 3.00425C6.26865 2.92685 6.36082 2.86551 6.46221 2.82373C6.5636 2.78195 6.67223 2.76054 6.78189 2.76074C6.89156 2.76054 7.00018 2.78195 7.10157 2.82373C7.20296 2.86551 7.29513 2.92685 7.37282 3.00425C7.4505 3.08166 7.51218 3.1736 7.55433 3.27484C7.59648 3.37608 7.61827 3.48463 7.61847 3.59429Z" fill="black"/>
</g>
<defs>
<clipPath id="clip0_185_4638">
<rect width="9.10977" height="9.10977" fill="white" transform="translate(0.830078 0.445312)"/>
</clipPath>
</defs>
</svg>
