<svg width="40" height="50" viewBox="0 0 40 50" fill="none" xmlns="http://www.w3.org/2000/svg">
<path fill-rule="evenodd" clip-rule="evenodd" d="M20 5C18.6739 5 17.4021 5.52678 16.4645 6.46447C15.5268 7.40215 15 8.67392 15 10H25C25 8.67392 24.4732 7.40215 23.5355 6.46447C22.5979 5.52678 21.3261 5 20 5ZM13.385 2.5C15.1475 0.945 17.465 0 20 0C22.535 0 24.85 0.945 26.615 2.5H35C36.3261 2.5 37.5979 3.02678 38.5355 3.96447C39.4732 4.90215 40 6.17392 40 7.5V45C40 46.3261 39.4732 47.5978 38.5355 48.5355C37.5979 49.4732 36.3261 50 35 50H5C3.67392 50 2.40215 49.4732 1.46447 48.5355C0.526784 47.5978 0 46.3261 0 45V7.5C0 6.17392 0.526784 4.90215 1.46447 3.96447C2.40215 3.02678 3.67392 2.5 5 2.5H13.385ZM10.315 7.5H5V45H35V7.5H29.685C29.89 8.3 30 9.1375 30 10V12.5C30 13.163 29.7366 13.7989 29.2678 14.2678C28.7989 14.7366 28.163 15 27.5 15H12.5C11.837 15 11.2011 14.7366 10.7322 14.2678C10.2634 13.7989 10 13.163 10 12.5V10C10 9.1375 10.11 8.3 10.315 7.5ZM10 22.5C10 21.837 10.2634 21.2011 10.7322 20.7322C11.2011 20.2634 11.837 20 12.5 20H27.5C28.163 20 28.7989 20.2634 29.2678 20.7322C29.7366 21.2011 30 21.837 30 22.5C30 23.163 29.7366 23.7989 29.2678 24.2678C28.7989 24.7366 28.163 25 27.5 25H12.5C11.837 25 11.2011 24.7366 10.7322 24.2678C10.2634 23.7989 10 23.163 10 22.5ZM10 32.5C10 31.837 10.2634 31.2011 10.7322 30.7322C11.2011 30.2634 11.837 30 12.5 30H20C20.663 30 21.2989 30.2634 21.7678 30.7322C22.2366 31.2011 22.5 31.837 22.5 32.5C22.5 33.163 22.2366 33.7989 21.7678 34.2678C21.2989 34.7366 20.663 35 20 35H12.5C11.837 35 11.2011 34.7366 10.7322 34.2678C10.2634 33.7989 10 33.163 10 32.5Z" fill="#181818"/>
</svg>
