<svg width="52" height="52" viewBox="0 0 52 52" fill="none" xmlns="http://www.w3.org/2000/svg">
<g clip-path="url(#clip0_318_2154)">
<path d="M26 0C11.6391 0 0 11.6391 0 26C0 40.3609 11.6391 52 26 52C40.3609 52 52 40.3609 52 26C52 11.6391 40.3609 0 26 0ZM26 47.6633C14.0359 47.6633 4.33672 37.9641 4.33672 26C4.33672 14.0359 14.0359 4.33672 26 4.33672C37.9641 4.33672 47.6633 14.0359 47.6633 26C47.6633 37.9641 37.9641 47.6633 26 47.6633ZM28.1633 8.66328H23.8266V26L33.5766 35.75L36.8266 32.5L28.1633 23.8367V8.66328Z" fill="#181818"/>
</g>
<defs>
<clipPath id="clip0_318_2154">
<rect width="52" height="52" fill="white"/>
</clipPath>
</defs>
</svg>
