<svg width="46" height="46" viewBox="0 0 46 46" fill="none" xmlns="http://www.w3.org/2000/svg">
<path d="M13 38H16.75V33H21.75V29.25H16.75V24.25H13V29.25H8V33H13V38ZM25.5 36.125H38V32.375H25.5V36.125ZM25.5 29.875H38V26.125H25.5V29.875ZM28.25 20.375L31.75 16.875L35.25 20.375L37.875 17.75L34.375 14.125L37.875 10.625L35.25 8L31.75 11.5L28.25 8L25.625 10.625L29.125 14.125L25.625 17.75L28.25 20.375ZM8.625 16H21.125V12.25H8.625V16ZM5.5 45.5C4.125 45.5 2.9475 45.01 1.9675 44.03C0.987504 43.05 0.498338 41.8733 0.500004 40.5V5.5C0.500004 4.125 0.990004 2.9475 1.97 1.9675C2.95 0.987504 4.12667 0.498338 5.5 0.500004H40.5C41.875 0.500004 43.0525 0.990004 44.0325 1.97C45.0125 2.95 45.5017 4.12667 45.5 5.5V40.5C45.5 41.875 45.01 43.0525 44.03 44.0325C43.05 45.0125 41.8733 45.5017 40.5 45.5H5.5ZM5.5 40.5H40.5V5.5H5.5V40.5Z" fill="#181818"/>
</svg>
