<svg width="60" height="60" viewBox="0 0 60 60" fill="none" xmlns="http://www.w3.org/2000/svg">
<path d="M11.2496 5.62456C10.9368 5.6179 10.6259 5.67377 10.3349 5.78888C10.044 5.904 9.77903 6.07604 9.55549 6.29492C9.33195 6.51381 9.15437 6.77512 9.03315 7.06355C8.91194 7.35197 8.84954 7.6617 8.84961 7.97456V45.5621C8.84954 45.8749 8.91194 46.1846 9.03315 46.4731C9.15437 46.7615 9.33195 47.0228 9.55549 47.2417C9.77903 47.4606 10.044 47.6326 10.3349 47.7477C10.6259 47.8628 10.9368 47.9187 11.2496 47.9121H13.5996V54.3746L26.5246 47.9121H48.7496C49.3729 47.9121 49.9706 47.6645 50.4113 47.2238C50.852 46.783 51.0996 46.1853 51.0996 45.5621V7.97456C51.0996 7.3513 50.852 6.75356 50.4113 6.31285C49.9706 5.87214 49.3729 5.62456 48.7496 5.62456H11.2496ZM17.1246 13.8496H24.1246C24.4304 13.8674 24.719 13.9969 24.9356 14.2135C25.1522 14.4302 25.2818 14.7188 25.2996 15.0246C25.2601 16.6271 25.5274 18.2224 26.0871 19.7246C26.3332 20.2267 26.389 20.8009 26.2442 21.341C26.0994 21.881 25.7638 22.3504 25.2996 22.6621L22.7996 25.1621C23.892 27.2919 25.3184 29.2332 27.0246 30.9121C28.7198 32.6082 30.6628 34.037 32.7871 35.1496L35.2871 32.6496C35.5988 32.1853 36.0681 31.8498 36.6082 31.705C37.1483 31.5602 37.7225 31.616 38.2246 31.8621C39.7268 32.4217 41.3221 32.689 42.9246 32.6496C43.2304 32.6674 43.519 32.7969 43.7356 33.0135C43.9522 33.2301 44.0817 33.5188 44.0996 33.8246V40.8746C44.0817 41.1804 43.9522 41.469 43.7356 41.6856C43.519 41.9022 43.2304 42.0317 42.9246 42.0496C35.8427 41.7686 29.1272 38.8278 24.1179 33.8139C19.1086 28.8 16.174 22.0817 15.8996 14.9996C15.9233 14.6982 16.0554 14.4156 16.2714 14.2042C16.4875 13.9928 16.7728 13.8668 17.0746 13.8496H17.1246Z" stroke="black" stroke-width="3" stroke-linecap="round" stroke-linejoin="round"/>
</svg>
