<svg width="100" height="100" viewBox="0 0 100 100" fill="none" xmlns="http://www.w3.org/2000/svg">
<circle cx="50" cy="50" r="50" fill="#F2F1E1"/>
<path d="M31.2496 25.6255C30.9368 25.6189 30.6259 25.6747 30.3349 25.7899C30.044 25.905 29.779 26.077 29.5555 26.2959C29.332 26.5148 29.1544 26.7761 29.0332 27.0645C28.9119 27.3529 28.8495 27.6627 28.8496 27.9755V65.563C28.8495 65.8759 28.9119 66.1856 29.0332 66.474C29.1544 66.7625 29.332 67.0238 29.5555 67.2427C29.779 67.4615 30.044 67.6336 30.3349 67.7487C30.6259 67.8638 30.9368 67.9197 31.2496 67.913H33.5996V74.3755L46.5246 67.913H68.7496C69.3729 67.913 69.9706 67.6654 70.4113 67.2247C70.852 66.784 71.0996 66.1863 71.0996 65.563V27.9755C71.0996 27.3523 70.852 26.7545 70.4113 26.3138C69.9706 25.8731 69.3729 25.6255 68.7496 25.6255H31.2496ZM37.1246 33.8505H44.1246C44.4304 33.8684 44.719 33.9979 44.9356 34.2145C45.1522 34.4311 45.2818 34.7197 45.2996 35.0255C45.2601 36.6281 45.5274 38.2234 46.0871 39.7255C46.3332 40.2276 46.389 40.8019 46.2442 41.3419C46.0994 41.882 45.7638 42.3513 45.2996 42.663L42.7996 45.163C43.892 47.2929 45.3184 49.2341 47.0246 50.913C48.7198 52.6092 50.6628 54.038 52.7871 55.1505L55.2871 52.6505C55.5988 52.1863 56.0681 51.8508 56.6082 51.706C57.1483 51.5612 57.7225 51.617 58.2246 51.863C59.7268 52.4227 61.3221 52.69 62.9246 52.6505C63.2304 52.6684 63.519 52.7979 63.7356 53.0145C63.9522 53.2311 64.0817 53.5197 64.0996 53.8255V60.8755C64.0817 61.1813 63.9522 61.4699 63.7356 61.6865C63.519 61.9031 63.2304 62.0327 62.9246 62.0505C55.8427 61.7696 49.1272 58.8288 44.1179 53.8149C39.1086 48.801 36.174 42.0827 35.8996 35.0005C35.9233 34.6992 36.0554 34.4166 36.2714 34.2052C36.4875 33.9937 36.7728 33.8677 37.0746 33.8505H37.1246Z" stroke="black" stroke-width="3" stroke-linecap="round" stroke-linejoin="round"/>
</svg>
