<svg width="100" height="100" viewBox="0 0 100 100" fill="none" xmlns="http://www.w3.org/2000/svg">
<circle cx="50" cy="50" r="50" fill="#F2F1E1"/>
<path d="M64.9667 54.7488L56.8091 50.6704C56.5682 50.5506 56.2999 50.4964 56.0314 50.5135C55.7628 50.5305 55.5035 50.618 55.2796 50.7673L51.2824 53.431C49.2588 52.3951 47.6124 50.7489 46.5765 48.7255L49.243 44.7312C49.3923 44.5073 49.4798 44.248 49.4968 43.9795C49.5138 43.7109 49.4597 43.4427 49.3399 43.2018L45.2611 35.0449C45.1342 34.7897 44.9386 34.575 44.6963 34.425C44.454 34.2751 44.1746 34.1958 43.8896 34.1961C41.3204 34.1961 38.8564 35.2166 37.0397 37.0331C35.223 38.8497 34.2024 41.3134 34.2024 43.8824C34.2092 49.6942 36.5211 55.2662 40.6311 59.3758C44.7411 63.4854 50.3135 65.7972 56.1259 65.8039C58.6951 65.8039 61.1591 64.7834 62.9758 62.9669C64.7925 61.1503 65.8131 58.6866 65.8131 56.1176C65.8132 55.8334 65.734 55.5547 65.5845 55.3129C65.435 55.0711 65.2211 54.8758 64.9667 54.7488ZM56.1259 62.7451C51.1247 62.739 46.3299 60.7498 42.7935 57.2136C39.257 53.6775 37.2676 48.8832 37.2615 43.8824C37.2617 42.2828 37.8403 40.7373 38.8908 39.531C39.9412 38.3247 41.3925 37.5389 42.9769 37.3186L46.2043 43.7727L43.5556 47.7441C43.4165 47.9536 43.3311 48.1941 43.3071 48.4444C43.2831 48.6948 43.3211 48.9471 43.418 49.1792C44.8244 52.5229 47.4846 55.1829 50.8286 56.5892C51.0607 56.686 51.3131 56.7241 51.5635 56.7001C51.8138 56.6761 52.0544 56.5907 52.2638 56.4516L56.2356 53.8031L62.6903 57.0302C62.47 58.6145 61.6841 60.0657 60.4777 61.116C59.2713 62.1663 57.7256 62.745 56.1259 62.7451ZM50.0078 24C45.5002 23.9991 41.0697 25.1698 37.1511 27.3974C33.2325 29.625 29.9604 32.833 27.6557 36.7065C25.351 40.58 24.0929 44.9861 24.005 49.4925C23.917 53.9988 25.0021 58.4506 27.1538 62.4112L24.1916 71.2996C23.9818 71.9284 23.9514 72.6031 24.1037 73.2482C24.2559 73.8933 24.5848 74.4833 25.0536 74.952C25.5223 75.4207 26.1123 75.7496 26.7575 75.9018C27.4026 76.054 28.0774 76.0236 28.7063 75.8139L37.5955 72.852C41.0752 74.7401 44.9401 75.8088 48.8956 75.9766C52.851 76.1444 56.7926 75.4069 60.4197 73.8202C64.0468 72.2335 67.2637 69.8396 69.825 66.821C72.3864 63.8024 74.2245 60.2389 75.1994 56.4021C76.1742 52.5653 76.26 48.5566 75.4502 44.6816C74.6404 40.8066 72.9563 37.1677 70.5264 34.0424C68.0966 30.917 64.985 28.3877 61.4291 26.6474C57.8732 24.907 53.9668 24.0015 50.0078 24ZM50.0078 72.9412C45.9747 72.9421 42.0126 71.8801 38.5209 69.862C38.2881 69.7282 38.0246 69.657 37.7561 69.6555C37.5915 69.6565 37.4281 69.6831 37.2717 69.7345L27.7401 72.9106C27.6503 72.9405 27.5539 72.9449 27.4617 72.9231C27.3695 72.9014 27.2853 72.8544 27.2183 72.7875C27.1513 72.7205 27.1043 72.6362 27.0826 72.5441C27.0608 72.4519 27.0652 72.3555 27.0951 72.2657L30.2715 62.7451C30.3402 62.5394 30.3644 62.3214 30.3424 62.1056C30.3205 61.8898 30.2528 61.6812 30.144 61.4935C27.6133 57.1222 26.596 52.0379 27.2501 47.0295C27.9042 42.0211 30.193 37.3685 33.7615 33.7935C37.33 30.2186 41.9786 27.9211 46.9862 27.2576C51.9939 26.5941 57.0805 27.6016 61.457 30.1238C65.8335 32.6461 69.2552 36.542 71.1913 41.2072C73.1274 45.8725 73.4696 51.0462 72.1648 55.9257C70.86 60.8053 67.9812 65.1178 63.975 68.1944C59.9688 71.271 55.0592 72.9395 50.0078 72.9412Z" fill="black"/>
</svg>
