<svg width="51" height="53" viewBox="0 0 51 53" fill="none" xmlns="http://www.w3.org/2000/svg">
<ellipse cx="25.6014" cy="26.4351" rx="25.0623" ry="26.1905" fill="#F2F1E1"/>
<path d="M32.627 21.1918L27.6058 26.439L32.627 31.6861C32.8933 31.9645 33.043 32.342 33.043 32.7356C33.043 33.1292 32.8933 33.5067 32.627 33.785C32.3607 34.0633 31.9994 34.2197 31.6228 34.2197C31.2461 34.2197 30.8849 34.0633 30.6185 33.785L25.5974 28.5378L20.5762 33.785C20.3099 34.0633 19.9486 34.2197 19.572 34.2197C19.1953 34.2197 18.8341 34.0633 18.5677 33.785C18.3014 33.5067 18.1518 33.1292 18.1518 32.7356C18.1518 32.342 18.3014 31.9645 18.5677 31.6861L23.5889 26.439L18.5677 21.1918C18.3014 20.9135 18.1518 20.536 18.1518 20.1423C18.1518 19.7487 18.3014 19.3712 18.5677 19.0929C18.8341 18.8146 19.1953 18.6582 19.572 18.6582C19.9486 18.6582 20.3099 18.8146 20.5762 19.0929L25.5974 24.3401L30.6185 19.0929C30.8849 18.8146 31.2461 18.6582 31.6228 18.6582C31.9994 18.6582 32.3607 18.8146 32.627 19.0929C32.8933 19.3712 33.043 19.7487 33.043 20.1423C33.043 20.536 32.8933 20.9135 32.627 21.1918Z" fill="black"/>
</svg>
