<svg width="49" height="52" viewBox="0 0 49 52" fill="none" xmlns="http://www.w3.org/2000/svg">
<ellipse cx="24.6751" cy="25.9436" rx="24.0599" ry="25.1429" fill="#38569A"/>
<path d="M29.8301 15.1725L27.1558 15.168C24.1513 15.168 22.2096 17.2497 22.2096 20.4717V22.9171H19.5207C19.2884 22.9171 19.1002 23.1139 19.1002 23.3567V26.8998C19.1002 27.1426 19.2886 27.3393 19.5207 27.3393H22.2096V36.2796C22.2096 36.5224 22.3978 36.719 22.6301 36.719H26.1384C26.3707 36.719 26.5589 36.5221 26.5589 36.2796V27.3393H29.7028C29.9352 27.3393 30.1233 27.1426 30.1233 26.8998L30.1246 23.3567C30.1246 23.2402 30.0802 23.1285 30.0015 23.046C29.9227 22.9635 29.8155 22.9171 29.7039 22.9171H26.5589V20.8441C26.5589 19.8477 26.7861 19.3419 28.0281 19.3419L29.8296 19.3413C30.0618 19.3413 30.2499 19.1444 30.2499 18.9018V15.6119C30.2499 15.3695 30.062 15.1729 29.8301 15.1725Z" fill="black"/>
</svg>
