<svg width="49" height="52" viewBox="0 0 49 52" fill="none" xmlns="http://www.w3.org/2000/svg">
<path d="M48.3966 25.9436C48.3966 39.5732 37.8289 50.5841 24.8391 50.5841C11.8494 50.5841 1.28174 39.5732 1.28174 25.9436C1.28174 12.314 11.8494 1.30322 24.8391 1.30322C37.8289 1.30322 48.3966 12.314 48.3966 25.9436Z" fill="black" stroke="#E8E8E8" stroke-width="1.00488"/>
<path d="M19.0982 28.1914L18.3804 30.9918L15.7567 31.0498C14.9725 29.53 14.5278 27.7912 14.5278 25.9433C14.5278 24.1565 14.9436 22.4715 15.6807 20.9878H15.6813L18.0171 21.4353L19.0404 23.8617C18.8262 24.5141 18.7095 25.2145 18.7095 25.9433C18.7096 26.7343 18.8467 27.4922 19.0982 28.1914Z" fill="#FBBB00"/>
<path d="M34.9703 23.9302C35.0888 24.582 35.1505 25.2552 35.1505 25.9432C35.1505 26.7146 35.0729 27.4672 34.925 28.193C34.4231 30.6631 33.1115 32.82 31.2945 34.3463L31.294 34.3457L28.3518 34.1888L27.9354 31.4724C29.1411 30.7336 30.0833 29.5773 30.5796 28.193H25.0658V23.9302H30.66H34.9703Z" fill="#518EF8"/>
<path d="M31.2939 34.3464L31.2945 34.3469C29.5274 35.8312 27.2826 36.7193 24.8391 36.7193C20.9123 36.7193 17.4982 34.4257 15.7566 31.0504L19.0982 28.1919C19.9689 30.6205 22.2108 32.3493 24.8391 32.3493C25.9688 32.3493 27.0272 32.0302 27.9353 31.4731L31.2939 34.3464Z" fill="#28B446"/>
<path d="M31.4209 17.6487L28.0805 20.5066C27.1405 19.8926 26.0295 19.5379 24.8392 19.5379C22.1514 19.5379 19.8676 21.3461 19.0404 23.8618L15.6813 20.9879H15.6808C17.3969 17.5303 20.854 15.168 24.8392 15.168C27.3411 15.168 29.6351 16.0993 31.4209 17.6487Z" fill="#F14336"/>
</svg>
