<svg width="80" height="80" viewBox="0 0 80 80" fill="none" xmlns="http://www.w3.org/2000/svg">
<path d="M68.8663 66.6673L46.233 12.7007C44.9997 9.90065 43.0997 7.63398 40.533 5.90065C37.9997 4.20065 35.1663 3.33398 32.033 3.33398C29.233 3.33398 26.6663 4.03398 24.333 5.43398C21.9997 6.83398 20.133 8.73398 18.7663 11.0673C17.3997 13.4007 16.6663 16.0007 16.6663 18.8007L16.7663 30.0007H6.76634V48.1673C8.83301 47.234 11.033 46.7673 13.333 46.7673V36.7673H29.9997C31.8997 36.7673 33.4663 37.434 34.7663 38.734C36.0663 40.0006 36.6663 41.5673 36.6663 43.334V66.7673H29.6997C29.1886 69.173 28.1149 71.4233 26.5663 73.334H43.333V43.334C43.333 40.934 42.6663 38.734 41.4997 36.6673C40.333 34.6007 38.6997 33.034 36.6663 31.8673C34.733 30.6673 32.4997 30.0007 29.9997 30.0007H23.333V18.8007C23.333 16.4007 24.1663 14.3673 25.8663 12.634C27.5663 10.9007 29.633 10.0007 32.033 10.0007C33.7997 10.0007 35.433 10.534 36.8663 11.534C38.2997 12.534 39.3663 13.8007 39.9997 15.3673L61.533 66.6673L53.333 66.7673V73.334H76.6663V66.7673L68.8663 66.6673ZM13.333 60.0006C15.1663 60.0006 16.6663 61.5006 16.6663 63.334C16.6663 65.1673 15.1663 66.6673 13.333 66.6673C11.4997 66.6673 9.99967 65.1673 9.99967 63.334C9.99967 61.5006 11.4997 60.0006 13.333 60.0006ZM13.333 53.334C7.79967 53.334 3.33301 57.8007 3.33301 63.334C3.33301 68.8673 7.79967 73.334 13.333 73.334C18.8663 73.334 23.333 68.8673 23.333 63.334C23.333 57.8007 18.8663 53.334 13.333 53.334Z" fill="#FFC7A1"/>
</svg>
