<svg width="29" height="29" viewBox="0 0 29 29" fill="none" xmlns="http://www.w3.org/2000/svg">
<path d="M23.0227 5.125H5.97723C4.56514 5.125 3.42041 6.26973 3.42041 7.68182V23.0227C3.42041 24.4348 4.56514 25.5795 5.97723 25.5795H23.0227C24.4348 25.5795 25.5795 24.4348 25.5795 23.0227V7.68182C25.5795 6.26973 24.4348 5.125 23.0227 5.125Z" stroke="black" stroke-width="1.5" stroke-linejoin="round"/>
<path d="M7.68177 3.42041V5.12496M21.3181 3.42041V5.12496M25.5795 9.38632H3.42041" stroke="black" stroke-width="1.5" stroke-linecap="round" stroke-linejoin="round"/>
<rect x="5.82227" y="12.0205" width="2.47934" height="2.47934" rx="0.5" fill="black"/>
<rect x="10.781" y="12.0205" width="2.47934" height="2.47934" rx="0.5" fill="black"/>
<rect x="10.781" y="15.7395" width="2.47934" height="2.47934" rx="0.5" fill="black"/>
<rect x="15.7396" y="15.7395" width="2.47934" height="2.47934" rx="0.5" fill="black"/>
<rect x="10.781" y="19.4585" width="2.47934" height="2.47934" rx="0.5" fill="black"/>
<rect x="15.7396" y="19.4585" width="2.47934" height="2.47934" rx="0.5" fill="black"/>
<rect x="20.6984" y="15.7395" width="2.47934" height="2.47934" rx="0.5" fill="black"/>
<rect x="20.6984" y="19.4585" width="2.47934" height="2.47934" rx="0.5" fill="black"/>
</svg>
