<svg width="48" height="48" viewBox="0 0 48 48" fill="none" xmlns="http://www.w3.org/2000/svg">
<circle cx="24" cy="24" r="24" fill="#38569A"/>
<path d="M29.1421 13.7186L26.4745 13.7144C23.4774 13.7144 21.5406 15.7015 21.5406 18.777V21.1112H18.8584C18.6267 21.1112 18.439 21.2991 18.439 21.5309V24.9129C18.439 25.1447 18.6269 25.3324 18.8584 25.3324H21.5406V33.8663C21.5406 34.0981 21.7283 34.2858 21.9601 34.2858H25.4596C25.6914 34.2858 25.8791 34.0979 25.8791 33.8663V25.3324H29.0152C29.247 25.3324 29.4347 25.1447 29.4347 24.9129L29.4359 21.5309C29.4359 21.4196 29.3916 21.313 29.3131 21.2343C29.2346 21.1555 29.1276 21.1112 29.0163 21.1112H25.8791V19.1325C25.8791 18.1814 26.1057 17.6986 27.3446 17.6986L29.1417 17.698C29.3732 17.698 29.5609 17.5101 29.5609 17.2785V14.1381C29.5609 13.9068 29.3735 13.7191 29.1421 13.7186Z" fill="white"/>
</svg>
