<svg width="48" height="48" viewBox="0 0 48 48" fill="none" xmlns="http://www.w3.org/2000/svg">
<circle cx="24" cy="24" r="23.5" fill="white" stroke="#E8E8E8"/>
<path d="M18.2734 26.1459L17.5574 28.8191L14.9402 28.8745C14.158 27.4237 13.7144 25.7639 13.7144 24.0001C13.7144 22.2945 14.1292 20.686 14.8644 19.2698H14.865L17.195 19.697L18.2157 22.013C18.0021 22.6358 17.8857 23.3044 17.8857 24.0001C17.8857 24.7551 18.0225 25.4785 18.2734 26.1459Z" fill="#FBBB00"/>
<path d="M34.1059 22.0786C34.2241 22.7008 34.2857 23.3434 34.2857 24.0001C34.2857 24.7365 34.2082 25.4548 34.0607 26.1477C33.56 28.5055 32.2517 30.5643 30.4393 32.0213L30.4387 32.0207L27.5039 31.871L27.0886 29.2781C28.2912 28.5728 29.231 27.469 29.7261 26.1477H24.2261V22.0786H29.8064H34.1059Z" fill="#518EF8"/>
<path d="M30.4388 32.0207L30.4394 32.0213C28.6767 33.4381 26.4376 34.2858 24.0001 34.2858C20.083 34.2858 16.6775 32.0964 14.9402 28.8745L18.2734 26.146C19.1421 28.4642 21.3784 30.1145 24.0001 30.1145C25.127 30.1145 26.1827 29.8098 27.0886 29.278L30.4388 32.0207Z" fill="#28B446"/>
<path d="M30.5655 16.0823L27.2334 18.8103C26.2958 18.2242 25.1875 17.8857 24.0001 17.8857C21.3191 17.8857 19.0409 19.6116 18.2158 22.013L14.8651 19.2698H14.8645C16.5763 15.9693 20.0249 13.7144 24.0001 13.7144C26.4958 13.7144 28.7841 14.6033 30.5655 16.0823Z" fill="#F14336"/>
</svg>
