<svg width="74" height="74" viewBox="0 0 74 74" fill="none" xmlns="http://www.w3.org/2000/svg">
<path d="M50.4096 35.0174C50.4534 29.578 45.9655 24.5907 40.4059 23.9017L40.0413 23.847C39.7626 23.7916 39.4796 23.7599 39.1955 23.7522C38.0544 23.7522 37.7518 24.5761 37.6716 25.0683C37.6261 25.2727 37.622 25.4842 37.6596 25.6902C37.6972 25.8962 37.7756 26.0926 37.8904 26.2677C38.2695 26.7964 38.933 26.8875 39.4653 26.9677C39.6221 26.9896 39.7715 27.0078 39.8918 27.0406C44.8901 28.189 46.5744 30.0009 47.3946 35.1158C47.4165 35.2434 47.4238 35.3965 47.4311 35.5606C47.4676 36.1694 47.5441 37.4417 48.8711 37.4417C48.9805 37.4417 49.0972 37.4345 49.2211 37.4126C50.457 37.2194 50.4169 36.0564 50.3987 35.4986C50.3895 35.3639 50.3895 35.2287 50.3987 35.0939C50.4027 35.0698 50.4051 35.0455 50.406 35.021L50.4096 35.0174Z" fill="black"/>
<path d="M38.8747 21.9039C39.0205 21.9148 39.1663 21.9257 39.2794 21.944C47.4821 23.2491 51.2591 27.2594 52.3054 35.7975C52.3236 35.9434 52.3236 36.1184 52.3273 36.3079C52.3382 36.9751 52.3601 38.3605 53.8038 38.3896H53.8475C54.0457 38.4002 54.2439 38.3682 54.4288 38.2959C54.6136 38.2236 54.7809 38.1126 54.9193 37.9704C55.3677 37.4855 55.3386 36.7673 55.3131 36.184C55.3058 36.0455 55.2985 35.9106 55.3021 35.7939C55.4042 27.0625 48.0837 19.1441 39.633 18.8524L39.5309 18.8561C39.4983 18.8609 39.4654 18.8633 39.4325 18.8634C39.3486 18.8634 39.2429 18.8561 39.1335 18.8488C38.9881 18.8355 38.8421 18.8282 38.6961 18.8269C37.3508 18.8269 37.0956 19.8112 37.0628 20.4018C36.9899 21.7617 38.2622 21.8601 38.8747 21.9039ZM51.908 46.8294C51.7324 46.6918 51.5587 46.5521 51.3867 46.4101C50.4898 45.6664 49.5347 44.981 48.616 44.3175C48.4237 44.1793 48.2317 44.0408 48.0399 43.9019C46.8587 43.0488 45.7978 42.6296 44.7953 42.6296C43.4464 42.6296 42.2688 43.4024 41.2954 44.9227C40.8652 45.5935 40.3403 45.9216 39.6986 45.9216C39.2507 45.9056 38.8115 45.7924 38.4117 45.5898C34.602 43.8035 31.8786 41.0692 30.3219 37.46C29.5709 35.7101 29.8115 34.5726 31.1386 33.643C31.8896 33.118 33.2895 32.1373 33.1911 30.2598C33.0817 28.127 28.521 21.7106 26.5997 20.9815C25.7801 20.6722 24.8763 20.6696 24.055 20.9742C21.8494 21.7398 20.2635 23.0887 19.4724 24.8642C18.7068 26.5849 18.7432 28.601 19.5745 30.7009C21.9697 36.7746 25.3346 42.0681 29.5855 46.4356C33.7416 50.712 38.8528 54.2119 44.7734 56.8441C45.3057 57.081 45.8671 57.2086 46.2754 57.3034L46.6218 57.3909C46.6692 57.4045 46.7182 57.4119 46.7676 57.4128H46.815C49.6003 57.4128 52.9434 54.7879 53.9715 51.7911C54.8719 49.1663 53.2277 47.872 51.908 46.833V46.8294ZM40.1069 28.8416C39.633 28.8525 38.6377 28.878 38.2877 29.9207C38.1273 30.4092 38.1456 30.8321 38.3461 31.1785C38.6414 31.6889 39.2101 31.8456 39.7241 31.9295C41.5907 32.2394 42.5532 33.3075 42.7428 35.2835C42.8339 36.2095 43.4354 36.8511 44.2083 36.8511C44.2667 36.8524 44.3252 36.8499 44.3833 36.8439C45.313 36.7272 45.7614 36.0236 45.7213 34.7476C45.7359 33.4133 45.0614 31.904 43.913 30.7009C42.761 29.4905 41.372 28.8088 40.1069 28.8416Z" fill="black"/>
</svg>
