<svg width="74" height="74" viewBox="0 0 74 74" fill="none" xmlns="http://www.w3.org/2000/svg">
<path d="M63.1864 11.3425C59.8273 7.96635 55.8261 5.28949 51.4163 3.46805C47.0066 1.64662 42.2764 0.717065 37.5018 0.733616C17.4964 0.733616 1.19156 16.9568 1.19156 36.8622C1.19156 43.2421 2.877 49.4398 6.02804 54.9083L0.898438 73.647L20.1344 68.616C25.4472 71.4961 31.4196 73.0272 37.5018 73.0272C57.5072 73.0272 73.812 56.804 73.812 36.8987C73.812 27.2376 70.0381 18.1599 63.1864 11.3425ZM37.5018 66.9025C32.0791 66.9025 26.7663 65.4442 22.113 62.71L21.0138 62.0538L9.58212 65.0432L12.6232 53.9604L11.8904 52.8302C8.8777 48.0433 7.27797 42.5102 7.2738 36.8622C7.2738 20.3109 20.8306 6.82188 37.4652 6.82188C45.526 6.82188 53.1104 9.95716 58.7896 15.6444C61.6017 18.4296 63.8302 21.7424 65.346 25.3908C66.8617 29.0393 67.6346 32.9508 67.6199 36.8987C67.6932 53.45 54.1364 66.9025 37.5018 66.9025ZM54.0631 44.4452C53.1471 44.0077 48.677 41.8203 47.8709 41.4922C47.0282 41.2005 46.442 41.0547 45.8191 41.9297C45.1962 42.8411 43.4741 44.8827 42.9612 45.466C42.4482 46.0857 41.8986 46.1586 40.9826 45.6847C40.0666 45.2472 37.1354 44.2629 33.6912 41.2005C30.9799 38.7944 29.1845 35.8414 28.6349 34.93C28.122 34.0186 28.5616 33.5446 29.038 33.0707C29.441 32.6697 29.954 32.0135 30.3936 31.5031C30.8333 30.9927 31.0165 30.5916 31.3096 30.0083C31.6028 29.3886 31.4562 28.8782 31.2364 28.4407C31.0165 28.0032 29.1845 23.5555 28.4517 21.7327C27.7189 19.9827 26.9495 20.2015 26.3999 20.165H24.6412C24.0183 20.165 23.0656 20.3838 22.2229 21.2952C21.4168 22.2066 19.0719 24.394 19.0719 28.8417C19.0719 33.2894 22.3328 37.5913 22.7725 38.1746C23.2122 38.7944 29.1845 47.9086 38.2712 51.8094C40.433 52.7573 42.1184 53.3042 43.4375 53.7052C45.5992 54.3979 47.5778 54.2885 49.1533 54.0697C50.912 53.8146 54.5394 51.8823 55.2722 49.7679C56.0416 47.6534 56.0416 45.867 55.7852 45.466C55.5287 45.0649 54.9791 44.8827 54.0631 44.4452Z" fill="black"/>
</svg>
