<svg width="70" height="70" viewBox="0 0 70 70" fill="none" xmlns="http://www.w3.org/2000/svg">
<path d="M34.8462 43.2517L30.7221 47.3758L18.3438 35.0004L30.7192 22.625L34.8433 26.7521L29.5146 32.0838L51.4975 32.0837L51.4975 37.9171L29.5146 37.9171L34.8462 43.2517Z" fill="black"/>
<path fill-rule="evenodd" clip-rule="evenodd" d="M12.3116 57.6871C-0.218435 45.1571 -0.218436 24.8455 12.3116 12.3155C24.8416 -0.214532 45.1532 -0.214533 57.6832 12.3155C70.2132 24.8455 70.2132 45.1571 57.6832 57.6871C45.1532 70.2171 24.8416 70.2171 12.3116 57.6871ZM16.4357 53.563C11.5129 48.6401 8.74724 41.9633 8.74724 35.0013C8.74724 28.0393 11.5129 21.3625 16.4357 16.4396C21.3586 11.5168 28.0354 8.75114 34.9974 8.75114C41.9594 8.75114 48.6362 11.5168 53.5591 16.4396C58.4819 21.3625 61.2476 28.0393 61.2476 35.0013C61.2476 41.9633 58.4819 48.6401 53.5591 53.563C48.6362 58.4858 41.9594 61.2515 34.9974 61.2515C28.0354 61.2515 21.3586 58.4858 16.4357 53.563Z" fill="black"/>
</svg>
