<svg width="152" height="152" viewBox="0 0 152 152" fill="none" xmlns="http://www.w3.org/2000/svg">
<g id="bi:stars" clip-path="url(#clip0_1_80)">
<path id="Vector" d="M72.7412 59.3469C73.7862 56.2119 78.2132 56.2119 79.2582 59.3469L85.3857 77.7484C86.7344 81.7935 89.0068 85.4689 92.0228 88.4832C95.0387 91.4975 98.7153 93.7679 102.761 95.1144L121.153 101.242C124.288 102.287 124.288 106.714 121.153 107.759L102.752 113.886C98.7066 115.235 95.0312 117.508 92.0169 120.524C89.0026 123.539 86.7322 127.216 85.3857 131.262L79.2582 149.654C79.0329 150.34 78.5965 150.938 78.0114 151.362C77.4262 151.786 76.7222 152.014 75.9997 152.014C75.2772 152.014 74.5731 151.786 73.988 151.362C73.4028 150.938 72.9665 150.34 72.7412 149.654L66.6137 131.252C65.2659 127.208 62.9949 123.534 59.9807 120.519C56.9665 117.505 53.2918 115.234 49.2477 113.886L30.8462 107.759C30.1597 107.534 29.5619 107.097 29.1381 106.512C28.7143 105.927 28.4861 105.223 28.4861 104.5C28.4861 103.778 28.7143 103.074 29.1381 102.489C29.5619 101.904 30.1597 101.467 30.8462 101.242L49.2477 95.1144C53.2918 93.7666 56.9665 91.4957 59.9807 88.4815C62.9949 85.4672 65.2659 81.7925 66.6137 77.7484L72.7412 59.3469ZM36.0427 10.9064C36.1789 10.495 36.4413 10.137 36.7926 9.88327C37.1439 9.62952 37.5663 9.49295 37.9997 9.49295C38.433 9.49295 38.8554 9.62952 39.2067 9.88327C39.558 10.137 39.8204 10.495 39.9567 10.9064L43.6332 21.9454C45.2767 26.8664 49.1337 30.7234 54.0547 32.3669L65.0937 36.0434C65.5051 36.1797 65.8631 36.4421 66.1168 36.7934C66.3706 37.1447 66.5072 37.5671 66.5072 38.0004C66.5072 38.4338 66.3706 38.8561 66.1168 39.2075C65.8631 39.5588 65.5051 39.8212 65.0937 39.9574L54.0547 43.6339C51.6277 44.4425 49.4223 45.8053 47.6134 47.6142C45.8045 49.4231 44.4418 51.6284 43.6332 54.0554L39.9567 65.0944C39.8204 65.5058 39.558 65.8638 39.2067 66.1176C38.8554 66.3713 38.433 66.5079 37.9997 66.5079C37.5663 66.5079 37.1439 66.3713 36.7926 66.1176C36.4413 65.8638 36.1789 65.5058 36.0427 65.0944L32.3662 54.0554C31.5576 51.6284 30.1948 49.4231 28.3859 47.6142C26.577 45.8053 24.3717 44.4425 21.9447 43.6339L10.9057 39.9574C10.4943 39.8212 10.1363 39.5588 9.88251 39.2075C9.62876 38.8561 9.49219 38.4338 9.49219 38.0004C9.49219 37.5671 9.62876 37.1447 9.88251 36.7934C10.1363 36.4421 10.4943 36.1797 10.9057 36.0434L21.9447 32.3669C24.3717 31.5583 26.577 30.1956 28.3859 28.3867C30.1948 26.5778 31.5576 24.3724 32.3662 21.9454L36.0427 10.9064ZM103.198 0.940923C103.292 0.670423 103.468 0.435865 103.701 0.269859C103.934 0.103853 104.213 0.0146484 104.5 0.0146484C104.786 0.0146484 105.065 0.103853 105.298 0.269859C105.532 0.435865 105.707 0.670423 105.801 0.940923L108.252 8.29392C109.345 11.5809 111.919 14.1554 115.206 15.2479L122.559 17.6989C122.83 17.7927 123.064 17.9684 123.23 18.2017C123.396 18.4349 123.485 18.7141 123.485 19.0004C123.485 19.2867 123.396 19.5659 123.23 19.7992C123.064 20.0324 122.83 20.2081 122.559 20.3019L115.206 22.7529C113.586 23.2918 112.114 24.2009 110.907 25.408C109.7 26.6151 108.791 28.0871 108.252 29.7069L105.801 37.0599C105.707 37.3304 105.532 37.565 105.298 37.731C105.065 37.897 104.786 37.9862 104.5 37.9862C104.213 37.9862 103.934 37.897 103.701 37.731C103.468 37.565 103.292 37.3304 103.198 37.0599L100.747 29.7069C100.208 28.0871 99.2992 26.6151 98.0921 25.408C96.885 24.2009 95.413 23.2918 93.7932 22.7529L86.4497 20.3019C86.1792 20.2081 85.9446 20.0324 85.7786 19.7992C85.6126 19.5659 85.5234 19.2867 85.5234 19.0004C85.5234 18.7141 85.6126 18.4349 85.7786 18.2017C85.9446 17.9684 86.1792 17.7927 86.4497 17.6989L93.8027 15.2479C97.0897 14.1554 99.6642 11.5809 100.757 8.29392L103.198 0.950423V0.940923Z" fill="white"/>
</g>
<defs>
<clipPath id="clip0_1_80">
<rect width="152" height="152" fill="white"/>
</clipPath>
</defs>
</svg>
