<svg width="371" height="178" viewBox="0 0 371 178" fill="none" xmlns="http://www.w3.org/2000/svg">
<path fill-rule="evenodd" clip-rule="evenodd" d="M307.844 75.6189C276.791 87.4114 234.395 97.2392 187.078 102.463C139.76 107.688 96.2405 107.346 63.3631 102.611C94.4157 90.8188 136.812 80.991 184.129 75.7668C231.447 70.5426 274.966 70.8846 307.844 75.6189ZM313.403 73.4376C328.718 67.2263 340.742 60.5965 348.741 53.9617C348.968 53.7738 349.191 53.5864 349.41 53.3995C349.155 53.2646 348.896 53.1302 348.634 52.9961C339.208 48.1785 325.709 44.2769 308.988 41.5485C275.589 36.0986 230.036 35.4378 180.283 40.9309C130.531 46.424 86.2187 57.0068 54.8136 69.6116C39.0908 75.9221 26.7675 82.6748 18.6199 89.4326C18.3935 89.6205 18.1707 89.8079 17.9517 89.9948C18.2065 90.1297 18.465 90.2641 18.7272 90.3981C27.9811 95.1279 41.1617 98.9748 57.4621 101.695C89.1895 88.9491 133.815 78.3037 183.8 72.785C233.786 67.2661 279.659 67.9197 313.403 73.4376ZM57.804 104.793C91.5481 110.311 137.421 110.964 187.407 105.445C237.392 99.9265 282.017 89.2812 313.745 76.5348C329.763 79.2084 342.769 82.9696 351.996 87.5875C343.848 94.2302 331.677 100.861 316.221 107.064C284.816 119.669 240.504 130.252 190.752 135.745C140.999 141.238 95.4456 140.577 62.0471 135.127C45.6102 132.445 32.286 128.629 22.8847 123.924C30.8822 117.404 42.7543 110.896 57.804 104.793ZM20.0274 122.398C27.578 115.999 38.5743 109.716 52.3118 103.832C36.9597 100.962 24.4345 97.0141 15.5911 92.1288C9.54956 97.9352 7.12129 103.286 7.63919 107.977C8.18457 112.917 12.078 117.858 20.0274 122.398ZM17.6768 124.499C9.90015 119.863 5.33327 114.429 4.65731 108.306C4.01348 102.475 6.95061 96.4825 12.9152 90.5509C5.8007 86.0635 1.62728 80.8562 0.983475 75.0251C-2.08908 47.1962 76.394 15.6961 176.28 4.66778C276.167 -6.36055 359.631 7.25903 362.704 35.088C363.348 40.9193 360.411 46.9118 354.446 52.8434C361.561 57.3308 365.734 62.5381 366.378 68.3692C367.054 74.4916 363.782 80.7918 357.204 87.0125C364.981 91.6482 369.548 97.0828 370.223 103.205C373.296 131.034 294.813 162.534 194.927 173.562C95.0403 184.591 11.5756 170.971 8.50301 143.142C7.82704 137.02 11.0985 130.72 17.6768 124.499ZM20.4291 126.037C49.5794 141.326 115.647 147.055 191.081 138.727C266.514 130.398 329.74 110.394 354.853 89.1135C362.803 93.6533 366.696 98.5948 367.242 103.534C367.839 108.943 364.519 115.229 356.261 122.079C348.113 128.837 335.79 135.589 320.067 141.9C288.662 154.505 244.35 165.087 194.597 170.581C144.845 176.074 99.2913 175.413 65.8928 169.963C49.172 167.235 35.6724 163.333 26.2468 158.515C16.6929 153.632 12.082 148.221 11.4849 142.813C10.9395 137.873 13.6612 132.201 20.4291 126.037ZM354.452 85.4749C361.22 79.3101 363.941 73.6381 363.396 68.6984C362.878 64.0078 359.341 59.3154 352.179 54.967C344.614 61.664 333.252 68.2487 318.895 74.3987C333.585 77.145 345.687 80.8778 354.452 85.4749ZM179.954 37.949C103.5 46.3903 39.5843 66.8251 15.1824 88.4273C8.02019 84.0789 4.48324 79.3865 3.96535 74.6959C3.36822 69.2874 6.68766 63.0012 14.9461 56.1514C23.0937 49.3935 35.417 42.6409 51.1398 36.3303C82.5449 23.7255 126.857 13.1427 176.61 7.64966C226.362 2.15658 271.916 2.81734 305.314 8.26724C322.035 10.9957 335.535 14.8973 344.96 19.7149C354.514 24.5981 359.125 30.0088 359.722 35.4172C360.24 40.108 357.812 45.4591 351.77 51.2656C323.244 35.5069 256.41 29.5077 179.954 37.949Z" fill="black" fill-opacity="0.2"/>
</svg>
