<svg width="362" height="246" viewBox="0 0 362 246" fill="none" xmlns="http://www.w3.org/2000/svg">
<path fill-rule="evenodd" clip-rule="evenodd" d="M68.8018 77.2658C94.2854 98.1789 131.592 119.876 175.275 137.65C218.958 155.424 260.815 165.937 293.661 168.756C268.177 147.843 230.871 126.146 187.187 108.372C143.504 90.5985 101.647 80.0856 68.8018 77.2658ZM64.8578 73.9543C52.7504 63.5469 43.7941 53.5031 38.5121 44.4191C38.2249 43.9253 37.9494 43.4356 37.6853 42.9503C38.2135 42.787 38.7528 42.6288 39.3034 42.4757C49.7871 39.5599 63.8102 38.6582 80.4947 39.8389C113.829 42.1979 157.09 52.816 202.307 71.214C247.524 89.6121 285.909 112.214 311.421 133.798C324.19 144.602 333.6 155.038 339.07 164.445C339.357 164.939 339.633 165.428 339.897 165.914C339.369 166.077 338.829 166.235 338.279 166.388C328.155 169.204 314.73 170.141 298.796 169.139C272.984 147.156 234.074 124.211 188.318 105.594C142.562 86.9762 98.6855 76.2371 64.8578 73.9543ZM297.605 172.068C263.777 169.785 219.901 159.046 174.144 140.429C128.388 121.811 89.4781 98.8663 63.6661 76.8829C47.732 75.8808 34.3076 76.8182 24.1838 79.634C24.1033 79.6563 24.023 79.6788 23.943 79.7014C23.9847 79.7737 24.0265 79.846 24.0686 79.9184C29.5384 89.3255 38.9484 99.7616 51.7176 110.565C77.2296 132.149 115.614 154.751 160.832 173.149C206.049 191.547 249.309 202.165 282.644 204.524C299.328 205.705 313.351 204.803 323.835 201.888C323.916 201.865 323.996 201.843 324.076 201.82C324.034 201.748 323.992 201.676 323.95 201.603C318.668 192.519 309.712 182.475 297.605 172.068ZM327.008 200.907C321.986 191.967 313.611 182.28 302.471 172.341C318.047 173.033 331.272 171.815 341.273 168.626C344.857 176.249 345.435 182.741 343.3 187.987C341.049 193.52 335.669 197.94 327.008 200.907ZM328.425 203.59C337.31 200.456 343.422 195.648 346.079 189.118C348.61 182.898 347.806 175.609 344.119 167.631C352.328 164.495 357.992 159.838 360.523 153.618C372.6 123.935 308.737 69.9036 217.881 32.9359C127.025 -4.03178 43.5803 -9.93691 31.5028 19.7464C28.972 25.9663 29.7756 33.2554 33.4634 41.2325C25.2542 44.3688 19.59 49.026 17.0593 55.2458C14.4022 61.7763 15.4208 69.4853 19.5938 77.9318C10.7087 81.0654 4.59697 85.8734 1.93976 92.404C-10.1378 122.087 53.725 176.119 144.581 213.086C235.438 250.054 318.882 255.959 330.96 226.276C333.617 219.745 332.598 212.036 328.425 203.59ZM325.537 204.521C292.993 214.094 228.47 203.909 159.701 175.928C90.931 147.947 37.6259 110.19 21.0111 80.6146C12.3496 83.5818 6.96992 88.0014 4.71855 93.5347C2.20397 99.7148 3.45329 107.625 8.94906 117.077C14.4189 126.484 23.8289 136.92 36.598 147.723C62.11 169.308 100.495 191.91 145.712 210.308C190.929 228.706 234.19 239.324 267.524 241.683C284.209 242.863 298.232 241.962 308.716 239.046C319.249 236.116 325.666 231.325 328.181 225.145C330.432 219.612 329.666 212.692 325.537 204.521ZM22.4815 77.0007C18.3525 68.8294 17.5868 61.9095 19.8381 56.3764C21.9724 51.1308 26.9183 46.8861 34.8064 43.9308C39.7397 53.1966 48.3573 63.3017 59.9918 73.6811C45.0772 73.0186 32.3185 74.107 22.4815 77.0007ZM203.438 68.4353C273.129 96.7913 326.938 135.187 342.775 164.933C350.664 161.978 355.61 157.733 357.744 152.488C360.258 146.307 359.009 138.397 353.513 128.945C348.044 119.538 338.634 109.102 325.864 98.2989C300.352 76.7145 261.968 54.1127 216.75 35.7147C171.533 17.3167 128.273 6.69853 94.9381 4.33955C78.2537 3.15883 64.2305 4.06051 53.7468 6.97632C43.2133 9.90598 36.7961 14.6969 34.2816 20.877C32.1472 26.1228 32.7245 32.615 36.3088 40.2383C68.4148 29.9991 133.746 40.079 203.438 68.4353Z" fill="white" fill-opacity="0.5"/>
</svg>
