<svg width="504" height="188" viewBox="0 0 504 188" fill="none" xmlns="http://www.w3.org/2000/svg">
<path fill-rule="evenodd" clip-rule="evenodd" d="M419.381 114.238C374.456 117.285 314.922 115.269 250.102 107.39C185.282 99.5105 126.998 87.2053 84.1114 73.4849C129.036 70.4384 188.571 72.4545 253.39 80.3337C318.21 88.2128 376.494 100.518 419.381 114.238ZM427.195 113.645C449.601 111.754 467.765 108.524 480.502 104.133C480.739 104.051 480.974 103.969 481.207 103.887C481 103.751 480.792 103.615 480.581 103.479C469.108 96.0604 451.93 88.465 430.203 81.1683C386.797 66.5911 325.849 53.4072 257.671 45.1197C189.492 36.8323 127.16 35.0312 81.5264 38.7852C58.6843 40.6643 40.1866 43.9232 27.2703 48.3767C27.0334 48.4584 26.7986 48.5404 26.5659 48.6227C26.7723 48.7586 26.9809 48.8946 27.1916 49.0309C38.5054 56.3459 55.367 63.8334 76.6671 71.0368C122.588 67.2253 185.269 69.0311 253.752 77.3556C322.236 85.6801 383.524 98.9432 427.195 113.645ZM76.2975 74.0782C119.968 88.7801 181.257 102.043 249.74 110.368C318.223 118.692 380.904 120.498 426.825 116.687C447.568 123.701 464.101 130.985 475.401 138.117C462.538 142.396 444.409 145.536 422.156 147.366C376.522 151.12 314.191 149.319 246.012 141.032C177.833 132.744 116.886 119.56 73.4798 104.983C52.3141 97.8749 35.4651 90.4831 24.0018 83.248C36.6813 79.0307 54.4783 75.9194 76.2975 74.0782ZM20.8451 81.1653C32.7057 76.9017 49.2468 73.7175 69.4192 71.6989C49.4522 64.5987 33.6427 57.2123 23.1307 49.9227C18.6721 51.7303 15.1514 53.672 12.5716 55.7052C9.2491 58.3239 7.7183 60.9 7.41866 63.3651C7.11902 65.8301 7.98809 68.698 10.5865 72.0364C12.8379 74.9288 16.2541 77.9913 20.8451 81.1653ZM17.4806 82.4553C8.32877 75.7747 3.6883 69.1919 4.44058 63.0031C5.15709 57.1085 10.7088 52.039 20.2952 47.8605C11.9895 41.5072 7.81419 35.2555 8.53068 29.3611C11.95 1.23097 125.487 -8.10901 262.123 8.49964C398.758 25.1083 506.752 61.3762 503.332 89.5063C502.616 95.4009 497.064 100.47 487.478 104.649C495.783 111.002 499.959 117.254 499.242 123.148C498.49 129.337 492.407 134.616 481.922 138.91C491.074 145.591 495.714 152.173 494.962 158.362C491.542 186.492 378.005 195.832 241.37 179.224C104.734 162.615 -3.25901 126.347 0.160326 98.217C0.912602 92.0282 6.9949 86.7489 17.4806 82.4553ZM20.4381 84.5138C55.0993 107.572 142.159 131.43 245.65 144.01C349.142 156.59 439.381 154.283 478.557 140.2C483.148 143.374 486.565 146.436 488.816 149.329C491.414 152.667 492.283 155.535 491.984 158C491.684 160.465 490.153 163.041 486.831 165.66C483.499 168.286 478.597 170.76 472.132 172.989C459.216 177.442 440.718 180.701 417.876 182.58C372.242 186.334 309.911 184.533 241.732 176.246C173.553 167.958 112.605 154.774 69.1995 140.197C47.4728 132.9 30.2944 125.305 18.8212 117.887C13.0787 114.174 8.91216 110.598 6.30629 107.25C3.70784 103.912 2.83877 101.044 3.1384 98.579C3.43805 96.1139 4.96885 93.5378 8.29141 90.9192C11.1701 88.6503 15.2205 86.4955 20.4381 84.5138ZM478.964 136.852C484.182 134.87 488.232 132.715 491.111 130.446C494.434 127.827 495.964 125.251 496.264 122.786C496.564 120.321 495.695 117.453 493.096 114.115C491.079 111.523 488.126 108.795 484.231 105.972C472.278 110.531 455.16 113.914 434.073 116.024C453.174 122.817 468.471 129.871 478.964 136.852ZM258.033 42.1417C153.121 29.3893 61.8279 31.9347 23.5421 46.5375C19.6468 43.7146 16.6941 40.9863 14.6766 38.3943C12.0782 35.056 11.2091 32.1881 11.5088 29.7231C11.8084 27.258 13.3392 24.6819 16.6618 22.0632C19.9938 19.437 24.8956 16.9637 31.3604 14.7346C44.2767 10.2812 62.7744 7.0223 85.6165 5.14322C131.251 1.38919 193.582 3.19029 261.761 11.4777C329.94 19.7651 390.887 32.9491 434.293 47.5263C456.02 54.823 473.198 62.4184 484.671 69.8365C490.414 73.5494 494.58 77.1251 497.186 80.473C499.785 83.8114 500.654 86.6792 500.354 89.1443C500.054 91.6094 498.524 94.1855 495.201 96.8041C492.621 98.8374 489.101 100.779 484.642 102.587C450.97 79.2368 362.944 54.8941 258.033 42.1417Z" fill="black" fill-opacity="0.3"/>
</svg>
