<svg width="420" height="370" viewBox="0 0 420 370" fill="none" xmlns="http://www.w3.org/2000/svg">
<path fill-rule="evenodd" clip-rule="evenodd" d="M88.7997 91.5933C112.342 125.481 150.38 164.496 197.652 200.803C244.923 237.109 292.43 263.796 331.244 277.8C307.702 243.912 269.663 204.897 222.392 168.59C175.12 132.284 127.613 105.597 88.7997 91.5933ZM85.9477 87.4068C75.1679 71.2598 67.9052 56.5136 64.6058 44.0178C64.3465 43.0358 64.1124 42.0708 63.9033 41.1228C64.8732 41.0803 65.8662 41.0575 66.882 41.0547C80.484 41.0173 97.6267 44.5783 117.219 51.4906C156.371 65.3037 204.648 92.2635 252.681 129.155C300.714 166.046 339.214 205.734 362.659 239.998C374.392 257.145 382.254 272.789 385.727 285.94C385.986 286.922 386.22 287.887 386.429 288.835C385.459 288.877 384.466 288.9 383.45 288.903C370.526 288.938 354.406 285.725 336.024 279.475C312.475 244.49 273.241 203.862 224.219 166.211C175.197 128.56 125.824 101.134 85.9477 87.4068ZM334.096 281.986C294.219 268.259 244.847 240.833 195.824 203.182C146.802 165.531 107.568 124.904 84.0192 89.9177C65.6378 83.6679 49.5171 80.4547 36.593 80.4903C36.1795 80.4914 35.7698 80.4959 35.3639 80.5036C35.4612 80.8981 35.5627 81.2954 35.6683 81.6956C39.1408 94.8468 47.0033 110.491 58.7356 127.637C82.1807 161.901 120.681 201.589 168.714 238.48C216.747 275.372 265.024 302.332 304.176 316.145C323.768 323.057 340.911 326.618 354.513 326.581C354.926 326.579 355.336 326.575 355.742 326.567C355.645 326.173 355.543 325.775 355.438 325.375C352.138 312.88 344.875 298.133 334.096 281.986ZM358.798 326.442C355.825 313.948 348.934 299.364 338.694 283.522C357.425 289.583 373.891 292.472 387.013 291.81C388.787 302.178 387.344 310.322 382.916 316.088C378.249 322.164 370.175 325.718 358.798 326.442ZM359.438 329.406C371.087 328.583 379.972 324.846 385.295 317.915C390.365 311.314 391.802 302.338 390.017 291.591C400.861 290.542 409.162 286.839 414.232 280.238C438.428 248.734 379.873 163.158 283.445 89.0979C187.018 15.0378 89.2334 -19.4611 65.0375 12.0423C59.9672 18.6439 58.5307 27.6199 60.3149 38.3669C49.4717 39.4153 41.1702 43.1186 36.1 49.7201C30.7769 56.6508 29.459 66.1987 31.6683 77.6652C20.0194 78.4884 11.1342 82.2246 5.81097 89.1556C-18.3849 120.659 40.1704 206.235 136.598 280.295C233.025 354.355 330.81 388.854 355.006 357.351C360.329 350.42 361.647 340.872 359.438 329.406ZM356.41 329.553C314.495 330.695 240.298 297.242 166.887 240.86C93.4755 184.477 42.0147 121.419 32.3074 80.6285C20.9307 81.3528 12.8572 84.9064 8.19021 90.9829C2.95713 97.7965 1.89355 107.93 5.37925 121.131C8.85178 134.282 16.7143 149.926 28.4465 167.073C51.8916 201.337 90.3921 241.025 138.425 277.916C186.458 314.807 234.735 341.767 273.887 355.58C293.479 362.493 310.622 366.054 324.224 366.016C337.877 365.979 347.394 362.337 352.627 355.523C357.293 349.447 358.644 340.731 356.41 329.553ZM34.6961 77.5184C32.4616 66.3403 33.8124 57.6237 38.4793 51.5474C42.9077 45.7815 50.4033 42.2871 60.8779 41.3261C63.623 54.1743 70.6623 69.3378 81.3489 85.8708C63.4027 80.0642 47.5349 77.1683 34.6961 77.5184ZM254.508 126.776C328.901 183.913 380.753 247.904 389.455 288.632C399.929 287.67 407.425 284.176 411.853 278.41C417.086 271.597 418.15 261.463 414.664 248.262C411.192 235.111 403.329 219.467 391.597 202.321C368.152 168.057 329.651 128.368 281.618 91.4771C233.585 54.5858 185.309 27.626 146.156 13.8129C126.564 6.90058 109.421 3.33962 95.8195 3.37701C82.1659 3.41456 72.6498 7.0561 67.4167 13.8697C62.9882 19.6357 61.5457 27.7791 63.3193 38.1474C104.913 36.0484 180.114 69.6385 254.508 126.776Z" fill="black" fill-opacity="0.5"/>
</svg>
