<svg width="53" height="52" viewBox="0 0 53 52" fill="none" xmlns="http://www.w3.org/2000/svg">
<path d="M26.5026 4.33398C14.5426 4.33398 4.83594 14.0407 4.83594 26.0006C4.83594 37.9606 14.5426 47.6673 26.5026 47.6673C38.4626 47.6673 48.1693 37.9606 48.1693 26.0006C48.1693 14.0407 38.4626 4.33398 26.5026 4.33398ZM36.5559 19.0673C36.2309 22.4907 34.8226 30.8106 34.1076 34.6456C33.8043 36.2706 33.1976 36.8123 32.6343 36.8773C31.3776 36.9856 30.4243 36.054 29.2109 35.2523C27.3043 33.9956 26.2209 33.2157 24.3793 32.0023C22.2343 30.594 23.6209 29.814 24.8559 28.5573C25.1809 28.2323 30.7276 23.184 30.8359 22.729C30.851 22.6601 30.849 22.5885 30.8301 22.5206C30.8112 22.4526 30.776 22.3903 30.7276 22.339C30.5976 22.2306 30.4243 22.274 30.2726 22.2957C30.0776 22.339 27.0443 24.354 21.1293 28.3406C20.2626 28.9256 19.4826 29.229 18.7893 29.2073C18.0093 29.1856 16.5359 28.774 15.4309 28.4056C14.0659 27.9723 13.0043 27.734 13.0909 26.9756C13.1343 26.5856 13.6759 26.1956 14.6943 25.784C21.0209 23.0323 25.2243 21.2123 27.3259 20.3456C33.3493 17.8323 34.5843 17.399 35.4076 17.399C35.5809 17.399 35.9926 17.4423 36.2526 17.659C36.4693 17.8323 36.5343 18.0707 36.5559 18.244C36.5343 18.374 36.5776 18.764 36.5559 19.0673Z" fill="#D88049"/>
</svg>
