<svg width="53" height="52" viewBox="0 0 53 52" fill="none" xmlns="http://www.w3.org/2000/svg">
<path fill-rule="evenodd" clip-rule="evenodd" d="M36.629 5.69166C29.8123 4.16789 22.7432 4.16789 15.9265 5.69166L15.192 5.85416C13.2745 6.28286 11.5135 7.23472 10.1044 8.60402C8.69532 9.97331 7.69342 11.7064 7.21001 13.6108C5.48208 20.4196 5.48208 27.5522 7.21001 34.361C7.67102 36.1772 8.60405 37.8393 9.91451 39.1787C11.225 40.518 12.8663 41.4871 14.672 41.9877L15.6795 48.0023C15.7117 48.1933 15.7944 48.3722 15.9192 48.5203C16.044 48.6685 16.2062 48.7804 16.3889 48.8446C16.5717 48.9088 16.7683 48.9228 16.9583 48.8851C17.1482 48.8475 17.3247 48.7596 17.4692 48.6307L23.3863 43.3375C27.8282 43.6086 32.2861 43.2534 36.629 42.2823L37.3657 42.1198C39.2831 41.6911 41.0442 40.7393 42.4533 39.37C43.8624 38.0007 44.8643 36.2676 45.3477 34.3632C47.0754 27.5543 47.0754 20.4218 45.3477 13.613C44.8641 11.7083 43.8619 9.97501 42.4524 8.60569C41.0429 7.23637 39.2814 6.28467 37.3635 5.85632L36.629 5.69166ZM17.7552 13.4353C17.3525 13.3767 16.9419 13.4578 16.5917 13.665H16.5613C15.7488 14.1417 15.0165 14.7418 14.3925 15.4482C13.8725 16.0483 13.5908 16.655 13.5172 17.24C13.4738 17.5867 13.5042 17.9377 13.606 18.2692L13.645 18.2908C14.23 20.009 14.9927 21.6622 15.9243 23.2178C17.1257 25.4029 18.604 27.4237 20.3227 29.2303L20.3747 29.304L20.457 29.3647L20.5068 29.4232L20.5675 29.4752C22.3804 31.199 24.406 32.6844 26.5952 33.8952C29.0977 35.258 30.6165 35.9015 31.5287 36.1702V36.1832C31.7952 36.2655 32.0378 36.3023 32.2827 36.3023C33.0595 36.2449 33.7948 35.9291 34.3713 35.4053C35.0755 34.7813 35.6713 34.0468 36.135 33.23V33.2148C36.5705 32.3915 36.4232 31.6158 35.7948 31.0893C34.5327 29.9866 33.168 29.0071 31.7193 28.1643C30.7487 27.6378 29.7628 27.9563 29.3642 28.4893L28.5127 29.564C28.075 30.097 27.282 30.0233 27.282 30.0233L27.2603 30.0363C21.3432 28.5262 19.7637 22.5353 19.7637 22.5353C19.7637 22.5353 19.69 21.7207 20.2382 21.3047L21.3042 20.4467C21.8155 20.0307 22.1708 19.047 21.6227 18.0763C20.7855 16.6263 19.808 15.262 18.7042 14.003C18.4634 13.7067 18.1258 13.5049 17.7508 13.4332L17.7552 13.4353ZM27.7522 10.831C27.4649 10.831 27.1893 10.9451 26.9861 11.1483C26.783 11.3515 26.6688 11.627 26.6688 11.9143C26.6688 12.2016 26.783 12.4772 26.9861 12.6804C27.1893 12.8835 27.4649 12.9977 27.7522 12.9977C30.493 12.9977 32.768 13.8925 34.5685 15.6085C35.4937 16.5467 36.2152 17.6582 36.6875 18.8758C37.162 20.0957 37.3787 21.3978 37.3223 22.7022C37.3164 22.8444 37.3385 22.9865 37.3874 23.1202C37.4363 23.2539 37.5111 23.3767 37.6075 23.4815C37.8021 23.6932 38.0729 23.8189 38.3602 23.831C38.6475 23.8431 38.9278 23.7405 39.1395 23.5459C39.3512 23.3512 39.4769 23.0805 39.489 22.7932C39.5562 21.1887 39.2899 19.5878 38.7068 18.0915C38.1213 16.5881 37.2334 15.2209 36.0982 14.0745L36.0765 14.0528C33.8427 11.9187 31.0152 10.831 27.7522 10.831ZM27.6785 14.393C27.3912 14.393 27.1156 14.5071 26.9125 14.7103C26.7093 14.9135 26.5952 15.189 26.5952 15.4763C26.5952 15.7636 26.7093 16.0392 26.9125 16.2424C27.1156 16.4455 27.3912 16.5597 27.6785 16.5597H27.7153C29.6913 16.7005 31.13 17.3592 32.1375 18.4403C33.171 19.554 33.7062 20.9385 33.665 22.6502C33.6584 22.9375 33.7662 23.2157 33.9647 23.4235C34.1632 23.6313 34.4361 23.7518 34.7234 23.7584C35.0107 23.765 35.2889 23.6572 35.4968 23.4587C35.7046 23.2602 35.8251 22.9873 35.8317 22.7C35.8837 20.4532 35.16 18.514 33.7257 16.967V16.9627C32.2588 15.3897 30.246 14.5577 27.8237 14.3952L27.7868 14.3908L27.6785 14.393ZM27.6373 18.0222C27.4924 18.0094 27.3463 18.0259 27.2078 18.0708C27.0694 18.1157 26.9414 18.1881 26.8316 18.2835C26.7217 18.379 26.6322 18.4956 26.5684 18.6264C26.5046 18.7573 26.4678 18.8996 26.4603 19.0449C26.4527 19.1903 26.4745 19.3357 26.5243 19.4724C26.5742 19.6091 26.6511 19.7344 26.7504 19.8408C26.8498 19.9471 26.9695 20.0324 27.1026 20.0915C27.2356 20.1505 27.3791 20.1821 27.5247 20.1845C28.4303 20.2322 29.0088 20.5052 29.3728 20.8713C29.739 21.2397 30.012 21.8312 30.0618 22.7563C30.0645 22.9017 30.0965 23.0451 30.1558 23.1778C30.215 23.3106 30.3004 23.4301 30.4069 23.5292C30.5133 23.6282 30.6386 23.7049 30.7753 23.7545C30.912 23.8041 31.0572 23.8257 31.2024 23.818C31.3476 23.8103 31.4898 23.7734 31.6205 23.7096C31.7511 23.6458 31.8676 23.5563 31.9629 23.4465C32.0583 23.3367 32.1305 23.2089 32.1754 23.0706C32.2203 22.9323 32.2369 22.7863 32.2242 22.6415C32.1548 21.3415 31.7475 20.1932 30.9133 19.3482C30.0748 18.5032 28.933 18.0915 27.6373 18.0222Z" fill="#D88049"/>
</svg>
