<svg width="106" height="111" viewBox="0 0 106 111" fill="none" xmlns="http://www.w3.org/2000/svg">
<path d="M10.5342 105.714C7.63728 105.714 5.15648 104.678 3.09178 102.606C1.02709 100.534 -0.00350244 98.0465 8.94242e-06 95.1429V21.1429C8.94242e-06 18.2357 1.03236 15.7462 3.09705 13.6742C5.16175 11.6022 7.64079 10.5679 10.5342 10.5714H15.8012V5.28573C15.8012 3.78811 16.3069 2.53187 17.3182 1.51702C18.3294 0.502161 19.5795 -0.00350552 21.0683 1.82897e-05C22.5607 1.82897e-05 23.8125 0.507447 24.8238 1.5223C25.835 2.53716 26.3389 3.79164 26.3354 5.28573V10.5714H68.4721V5.28573C68.4721 3.78811 68.9777 2.53187 69.989 1.51702C71.0003 0.502161 72.2503 -0.00350552 73.7391 1.82897e-05C75.2315 1.82897e-05 76.4833 0.507447 77.4946 1.5223C78.5058 2.53716 79.0097 3.79164 79.0062 5.28573V10.5714H84.2733C87.1702 10.5714 89.651 11.6074 91.7157 13.6794C93.7804 15.7514 94.811 18.2393 94.8075 21.1429V52.8572H84.2733V42.2857H10.5342V95.1429H47.4037V105.714H10.5342ZM100.733 79.2857L89.5404 68.0536L93.359 64.2214C94.3246 63.2524 95.5536 62.7679 97.046 62.7679C98.5383 62.7679 99.7673 63.2524 100.733 64.2214L104.552 68.0536C105.517 69.0226 106 70.256 106 71.7536C106 73.2512 105.517 74.4845 104.552 75.4536L100.733 79.2857ZM57.9379 108.357V102.014C57.9379 101.31 58.0696 100.626 58.3329 99.9634C58.5963 99.301 58.9913 98.7072 59.518 98.1821L85.8534 71.7536L97.046 82.9857L70.7106 109.414C70.1839 109.943 69.5904 110.339 68.9303 110.604C68.2701 110.868 67.5907 111 66.8919 111H60.5714C59.8692 111 59.2547 110.736 58.728 110.207C58.2012 109.679 57.9379 109.062 57.9379 108.357Z" fill="#594157"/>
</svg>
