<svg width="14" height="14" viewBox="0 0 14 14" fill="none" xmlns="http://www.w3.org/2000/svg">
<circle cx="6.80214" cy="6.98964" r="6.80214" fill="#38569A"/>
<path d="M8.26007 4.07543L7.504 4.07422C6.65458 4.07422 6.10565 4.63741 6.10565 5.50909V6.17066H5.34545C5.27976 6.17066 5.22656 6.22392 5.22656 6.28961V7.24815C5.22656 7.31384 5.27982 7.36703 5.34545 7.36703H6.10565V9.78574C6.10565 9.85143 6.15884 9.90462 6.22453 9.90462H7.21637C7.28206 9.90462 7.33526 9.85137 7.33526 9.78574V7.36703H8.22411C8.2898 7.36703 8.34299 7.31384 8.34299 7.24815L8.34336 6.28961C8.34336 6.25807 8.3308 6.22786 8.30854 6.20554C8.28628 6.18322 8.25595 6.17066 8.22441 6.17066H7.33526V5.60984C7.33526 5.34028 7.39949 5.20345 7.75063 5.20345L8.25995 5.20326C8.32558 5.20326 8.37878 5.15001 8.37878 5.08438V4.19432C8.37878 4.12875 8.32564 4.07555 8.26007 4.07543Z" fill="#FFEEEE"/>
</svg>
