<svg width="92" height="115" viewBox="0 0 92 115" fill="none" xmlns="http://www.w3.org/2000/svg">
<path d="M46 80.5C55.775 71.6833 62.0521 65.4772 64.8312 61.8815C67.6104 58.2858 69 54.717 69 51.175C69 47.725 67.7542 44.7542 65.2625 42.2625C62.7708 39.7708 59.8 38.525 56.35 38.525C54.3375 38.525 52.3959 38.9313 50.5252 39.744C48.6546 40.5567 47.1462 41.6837 46 43.125C44.85 41.6875 43.3646 40.5605 41.5438 39.744C39.7229 38.9275 37.7583 38.5212 35.65 38.525C32.2 38.525 29.2292 39.7708 26.7375 42.2625C24.2458 44.7542 23 47.725 23 51.175C23 52.9958 23.2396 54.6729 23.7188 56.2062C24.1979 57.7396 25.2521 59.5374 26.8813 61.5998C28.5104 63.6583 30.8334 66.1729 33.8503 69.1437C36.8671 72.1146 40.917 75.9 46 80.5ZM46 115C32.6792 111.646 21.6813 104.002 13.0065 92.069C4.33167 80.1358 -0.00383079 66.8878 2.53975e-06 52.325V17.25L46 0L92 17.25V52.325C92 66.8917 87.6626 80.1416 78.9877 92.0748C70.3129 104.008 59.317 111.65 46 115ZM46 102.925C55.9667 99.7625 64.2083 93.4375 70.725 83.95C77.2417 74.4625 80.5 63.9208 80.5 52.325V25.1562L46 12.2188L11.5 25.1562V52.325C11.5 63.9208 14.7583 74.4625 21.275 83.95C27.7917 93.4375 36.0333 99.7625 46 102.925Z" fill="#594157"/>
</svg>
