<svg width="75" height="74" viewBox="0 0 75 74" fill="none" xmlns="http://www.w3.org/2000/svg">
<path d="M37.5 0C16.8 0 0 16.576 0 37C0 57.424 16.8 74 37.5 74C58.2 74 75 57.424 75 37C75 16.576 58.2 0 37.5 0ZM54.9 25.16C54.3375 31.006 51.9 45.214 50.6625 51.763C50.1375 54.538 49.0875 55.463 48.1125 55.574C45.9375 55.759 44.2875 54.168 42.1875 52.799C38.8875 50.653 37.0125 49.321 33.825 47.249C30.1125 44.844 32.5125 43.512 34.65 41.366C35.2125 40.811 44.8125 32.19 45 31.413C45.026 31.2953 45.0226 31.1731 44.9899 31.0571C44.9572 30.941 44.8963 30.8346 44.8125 30.747C44.5875 30.562 44.2875 30.636 44.025 30.673C43.6875 30.747 38.4375 34.188 28.2 40.996C26.7 41.995 25.35 42.513 24.15 42.476C22.8 42.439 20.25 41.736 18.3375 41.107C15.975 40.367 14.1375 39.96 14.2875 38.665C14.3625 37.999 15.3 37.333 17.0625 36.63C28.0125 31.931 35.2875 28.823 38.925 27.343C49.35 23.051 51.4875 22.311 52.9125 22.311C53.2125 22.311 53.925 22.385 54.375 22.755C54.75 23.051 54.8625 23.458 54.9 23.754C54.8625 23.976 54.9375 24.642 54.9 25.16Z" fill="#594157"/>
</svg>
