<svg width="38" height="28" viewBox="0 0 38 28" fill="none" xmlns="http://www.w3.org/2000/svg">
<path d="M31.0909 19.25L32.1273 18.375C35.5818 15.05 38 12.95 38 10.325C38 8.225 36.2727 6.475 34.2 6.475C32.9909 6.475 31.7818 7 31.0909 7.875C30.4 7 29.1909 6.475 27.9818 6.475C25.9091 6.475 24.1818 8.05 24.1818 10.325C24.1818 12.95 26.6 15.05 30.0545 18.375L31.0909 19.25ZM13.8182 0C15.6506 0 17.4079 0.737498 18.7036 2.05025C19.9994 3.36301 20.7273 5.14348 20.7273 7C20.7273 8.85652 19.9994 10.637 18.7036 11.9497C17.4079 13.2625 15.6506 14 13.8182 14C11.9858 14 10.2284 13.2625 8.93272 11.9497C7.63701 10.637 6.90909 8.85652 6.90909 7C6.90909 5.14348 7.63701 3.36301 8.93272 2.05025C10.2284 0.737498 11.9858 0 13.8182 0ZM13.8182 10.675C14.7802 10.675 15.7028 10.2878 16.3831 9.59862C17.0633 8.90942 17.4455 7.97467 17.4455 7C17.4455 6.02533 17.0633 5.09058 16.3831 4.40138C15.7028 3.71219 14.7802 3.325 13.8182 3.325C13.3418 3.325 12.8702 3.42006 12.4301 3.60474C11.99 3.78943 11.5901 4.06013 11.2533 4.40138C10.9165 4.74264 10.6493 5.14777 10.467 5.59364C10.2847 6.03951 10.1909 6.51739 10.1909 7C10.1909 7.48261 10.2847 7.96049 10.467 8.40636C10.6493 8.85223 10.9165 9.25736 11.2533 9.59862C11.5901 9.93987 11.99 10.2106 12.4301 10.3953C12.8702 10.5799 13.3418 10.675 13.8182 10.675ZM13.8182 15.75C18.43 15.75 27.6364 18.0775 27.6364 22.75V28H0V22.75C0 18.0775 9.20636 15.75 13.8182 15.75ZM3.28182 24.675H24.3545V22.75C24.3545 21.63 19 19.075 13.8182 19.075C8.68818 19.075 3.28182 21.63 3.28182 22.75V24.675Z" fill="black" fill-opacity="0.5"/>
</svg>
