<svg width="70" height="77" viewBox="0 0 70 77" fill="none" xmlns="http://www.w3.org/2000/svg">
<path fill-rule="evenodd" clip-rule="evenodd" d="M52.7885 1.98386C41.0729 -0.661286 28.9236 -0.661286 17.208 1.98386L15.9456 2.26594C12.6502 3.01013 9.62346 4.66249 7.20174 7.03947C4.78003 9.41645 3.05811 12.425 2.22728 15.7309C-0.742428 27.5504 -0.742428 39.9319 2.22728 51.7515C3.01961 54.9043 4.62317 57.7895 6.87541 60.1145C9.12764 62.4396 11.9485 64.1218 15.0519 64.9907L16.7835 75.4317C16.8387 75.7633 16.981 76.0738 17.1954 76.3309C17.4099 76.5881 17.6886 76.7824 18.0027 76.8938C18.3168 77.0052 18.6547 77.0295 18.9812 76.9642C19.3077 76.8989 19.611 76.7463 19.8593 76.5224L30.0289 67.3339C37.6629 67.8045 45.3246 67.1879 52.7885 65.5023L54.0546 65.2202C57.3501 64.476 60.3768 62.8236 62.7985 60.4466C65.2202 58.0697 66.9421 55.0611 67.7729 51.7552C70.7423 39.9357 70.7423 27.5542 67.7729 15.7346C66.9418 12.4283 65.2194 9.4194 62.7969 7.04238C60.3745 4.66536 57.347 3.01327 54.0509 2.2697L52.7885 1.98386ZM20.3508 15.4262C19.6588 15.3245 18.9531 15.4652 18.3512 15.8249H18.299C16.9026 16.6524 15.644 17.6942 14.5716 18.9203C13.6779 19.9622 13.1938 21.0153 13.0672 22.0308C12.9927 22.6326 13.0448 23.2419 13.2198 23.8174L13.2869 23.855C14.2923 26.8376 15.603 29.7073 17.2043 32.4078C19.2689 36.2009 21.8096 39.709 24.7635 42.845L24.8529 42.9729L24.9944 43.0782L25.08 43.1798L25.1843 43.2701C28.3 46.2626 31.7814 48.841 35.5438 50.9428C39.8447 53.3086 42.4551 54.4256 44.0228 54.892V54.9146C44.4808 55.0575 44.8979 55.1215 45.3187 55.1215C46.6538 55.0218 47.9175 54.4736 48.9084 53.5643C50.1186 52.4811 51.1426 51.2061 51.9395 49.7881V49.7618C52.688 48.3326 52.4348 46.9861 51.3549 46.0721C49.1858 44.1578 46.8403 42.4576 44.3505 40.9946C42.6822 40.0806 40.9879 40.6335 40.3027 41.5587L38.8393 43.4243C38.0871 44.3495 36.7242 44.2216 36.7242 44.2216L36.687 44.2442C26.5174 41.6227 23.8028 31.2231 23.8028 31.2231C23.8028 31.2231 23.6762 29.8089 24.6183 29.0867L26.4504 27.5973C27.3292 26.8752 27.9399 25.1676 26.9977 23.4826C25.5589 20.9655 23.8789 18.5972 21.9818 16.4116C21.5681 15.8973 20.9878 15.547 20.3434 15.4225L20.3508 15.4262ZM37.5323 10.9053C37.0385 10.9053 36.5649 11.1034 36.2157 11.4561C35.8666 11.8088 35.6704 12.2871 35.6704 12.7859C35.6704 13.2847 35.8666 13.763 36.2157 14.1157C36.5649 14.4683 37.0385 14.6665 37.5323 14.6665C42.2428 14.6665 46.1528 16.2198 49.2472 19.1987C50.8373 20.8272 52.0773 22.7567 52.8891 24.8705C53.7046 26.988 54.0769 29.2485 53.9801 31.5127C53.9699 31.7596 54.0078 32.0062 54.0919 32.2384C54.176 32.4705 54.3045 32.6836 54.4702 32.8656C54.8047 33.2331 55.27 33.4513 55.7638 33.4722C56.2576 33.4932 56.7394 33.3152 57.1033 32.9773C57.4671 32.6394 57.6831 32.1694 57.7039 31.6707C57.8194 28.8855 57.3617 26.1064 56.3596 23.5089C55.3532 20.8992 53.8273 18.5259 51.8762 16.5358L51.839 16.4982C47.9998 12.7934 43.1403 10.9053 37.5323 10.9053ZM37.4057 17.0887C36.9119 17.0887 36.4383 17.2868 36.0891 17.6395C35.7399 17.9921 35.5438 18.4705 35.5438 18.9692C35.5438 19.468 35.7399 19.9463 36.0891 20.299C36.4383 20.6517 36.9119 20.8498 37.4057 20.8498H37.469C40.865 21.0943 43.3376 22.2377 45.0692 24.1145C46.8454 26.0477 47.7652 28.4511 47.6944 31.4224C47.6831 31.9212 47.8683 32.4041 48.2095 32.7649C48.5506 33.1256 49.0197 33.3348 49.5135 33.3463C50.0073 33.3577 50.4854 33.1706 50.8426 32.826C51.1998 32.4815 51.4068 32.0077 51.4182 31.5089C51.5076 27.6086 50.2638 24.2424 47.7987 21.5569V21.5494C45.2777 18.8188 41.8183 17.3745 37.6552 17.0924L37.5918 17.0849L37.4057 17.0887ZM37.3349 23.3886C37.0857 23.3664 36.8347 23.3951 36.5968 23.4731C36.3588 23.551 36.1389 23.6766 35.9501 23.8423C35.7612 24.008 35.6074 24.2105 35.4978 24.4376C35.3881 24.6647 35.3249 24.9117 35.3119 25.164C35.2989 25.4163 35.3363 25.6687 35.422 25.9061C35.5077 26.1435 35.6399 26.3609 35.8106 26.5456C35.9814 26.7302 36.1872 26.8782 36.4158 26.9807C36.6444 27.0832 36.8912 27.1382 37.1413 27.1422C38.6978 27.225 39.692 27.6989 40.3176 28.3345C40.947 28.9739 41.4162 30.0007 41.5018 31.6067C41.5065 31.8591 41.5613 32.1079 41.6632 32.3384C41.7651 32.5689 41.9119 32.7763 42.0948 32.9483C42.2777 33.1203 42.4931 33.2533 42.728 33.3394C42.9629 33.4256 43.2125 33.4631 43.4621 33.4497C43.7117 33.4363 43.956 33.3723 44.1805 33.2615C44.4051 33.1507 44.6053 32.9954 44.7691 32.8048C44.933 32.6143 45.0572 32.3923 45.1343 32.1522C45.2115 31.9121 45.24 31.6588 45.2181 31.4074C45.099 29.1507 44.3989 27.1573 42.9652 25.6904C41.5241 24.2236 39.5617 23.509 37.3349 23.3886Z" fill="#594157"/>
</svg>
