<svg width="75" height="74" viewBox="0 0 75 74" fill="none" xmlns="http://www.w3.org/2000/svg">
<path d="M0.0150502 73.9999L5.08505 55.6184C1.74432 49.9679 -0.0108399 43.5415 5.03709e-05 37C5.03709e-05 16.5649 16.7888 0 37.5 0C58.2113 0 75 16.5649 75 37C75 57.4351 58.2113 73.9999 37.5 73.9999C30.8729 74.0105 24.3625 72.2801 18.6375 68.9865L0.0150502 73.9999ZM23.9663 19.6396C23.482 19.6693 23.0088 19.7951 22.575 20.0096C22.1682 20.2369 21.7969 20.521 21.4725 20.8532C21.0225 21.2713 20.7675 21.6339 20.4938 21.9854C19.1078 23.7651 18.3623 25.9496 18.375 28.194C18.3825 30.007 18.8625 31.7719 19.6125 33.4221C21.1463 36.7595 23.67 40.293 27.0038 43.5675C27.8063 44.3556 28.59 45.1474 29.4338 45.8837C33.5715 49.4781 38.5022 52.0702 43.8338 53.4539L45.9675 53.7758C46.6613 53.8128 47.355 53.761 48.0525 53.7277C49.1447 53.672 50.2111 53.3803 51.1763 52.873C51.6673 52.6234 52.1466 52.3518 52.6125 52.059C52.6125 52.059 52.7738 51.9554 53.0813 51.726C53.5875 51.356 53.8988 51.0933 54.3188 50.6604C54.63 50.3422 54.9 49.9685 55.1063 49.543C55.3988 48.9399 55.6913 47.7892 55.8113 46.8309C55.9013 46.0983 55.875 45.6987 55.8638 45.4508C55.8488 45.0549 55.515 44.6442 55.1513 44.4703L52.9688 43.5046C52.9688 43.5046 49.7063 42.1023 47.715 41.2069C47.5051 41.1166 47.2801 41.0652 47.0513 41.0552C46.7947 41.0292 46.5355 41.0577 46.291 41.1387C46.0465 41.2198 45.8224 41.3515 45.6338 41.5251V41.5177C45.615 41.5177 45.3638 41.7286 42.6525 44.9698C42.4969 45.1761 42.2826 45.332 42.0368 45.4177C41.791 45.5033 41.525 45.5149 41.2725 45.4508C41.0282 45.3863 40.7888 45.3047 40.5563 45.2066C40.0913 45.0142 39.93 44.9402 39.6113 44.8033L39.5925 44.7959C37.4472 43.8717 35.4609 42.6234 33.705 41.0959C33.2325 40.6889 32.7938 40.2449 32.3438 39.8157C30.8684 38.4217 29.5827 36.8446 28.5188 35.1241L28.2975 34.7726C28.1386 34.5364 28.0101 34.2816 27.915 34.0141C27.7725 33.4702 28.1438 33.0336 28.1438 33.0336C28.1438 33.0336 29.055 32.0494 29.4788 31.5166C29.8316 31.0738 30.1608 30.6131 30.465 30.1365C30.9075 29.4335 31.0463 28.712 30.8138 28.1533C29.7638 25.6225 28.6763 23.1028 27.5588 20.6016C27.3375 20.1058 26.6813 19.7506 26.085 19.6803C25.8825 19.6581 25.68 19.6359 25.4775 19.6211C24.9739 19.5964 24.4693 19.605 23.9663 19.6396Z" fill="#594157"/>
</svg>
