<svg width="78" height="78" viewBox="0 0 78 78" fill="none" xmlns="http://www.w3.org/2000/svg">
<circle cx="39" cy="39" r="39" transform="matrix(-1 0 0 1 78 0)" fill="#F2F1E1"/>
<path d="M37.4661 27.4717C37.5765 27.582 37.6641 27.7129 37.7238 27.8571C37.7836 28.0013 37.8144 28.1558 37.8144 28.3118C37.8144 28.4679 37.7836 28.6224 37.7238 28.7666C37.6641 28.9107 37.5765 29.0417 37.4661 29.152L28.8048 37.8118L52.0634 37.8118C52.3784 37.8118 52.6804 37.937 52.9031 38.1597C53.1258 38.3824 53.2509 38.6844 53.2509 38.9993C53.2509 39.3143 53.1258 39.6163 52.9031 39.839C52.6804 40.0617 52.3784 40.1868 52.0634 40.1868L28.8048 40.1868L37.4661 48.8467C37.6889 49.0695 37.8141 49.3717 37.8141 49.6868C37.8141 50.002 37.6889 50.3042 37.4661 50.527C37.2433 50.7498 36.9411 50.875 36.6259 50.875C36.3108 50.875 36.0086 50.7498 35.7858 50.527L25.0983 39.8395C24.9879 39.7292 24.9003 39.5982 24.8405 39.4541C24.7808 39.3099 24.75 39.1554 24.75 38.9993C24.75 38.8433 24.7808 38.6888 24.8405 38.5446C24.9003 38.4004 24.9879 38.2695 25.0983 38.1592L35.7858 27.4717C35.8961 27.3613 36.027 27.2737 36.1712 27.2139C36.3154 27.1542 36.4699 27.1234 36.6259 27.1234C36.782 27.1234 36.9365 27.1542 37.0807 27.2139C37.2248 27.2737 37.3558 27.3613 37.4661 27.4717Z" fill="black"/>
</svg>
