<svg width="78" height="78" viewBox="0 0 78 78" fill="none" xmlns="http://www.w3.org/2000/svg">
<circle cx="39" cy="39" r="39" fill="#F2F1E1"/>
<path d="M40.5339 27.4717C40.4235 27.582 40.3359 27.7129 40.2762 27.8571C40.2164 28.0013 40.1856 28.1558 40.1856 28.3118C40.1856 28.4679 40.2164 28.6224 40.2762 28.7666C40.3359 28.9107 40.4235 29.0417 40.5339 29.152L49.1952 37.8118L25.9366 37.8118C25.6216 37.8118 25.3196 37.937 25.0969 38.1597C24.8742 38.3824 24.7491 38.6844 24.7491 38.9993C24.7491 39.3143 24.8742 39.6163 25.0969 39.839C25.3196 40.0617 25.6216 40.1868 25.9366 40.1868L49.1952 40.1868L40.5339 48.8467C40.3111 49.0695 40.1859 49.3717 40.1859 49.6868C40.1859 50.002 40.3111 50.3042 40.5339 50.527C40.7567 50.7498 41.0589 50.875 41.3741 50.875C41.6892 50.875 41.9914 50.7498 42.2142 50.527L52.9017 39.8395C53.0121 39.7292 53.0997 39.5982 53.1595 39.4541C53.2192 39.3099 53.25 39.1554 53.25 38.9993C53.25 38.8433 53.2192 38.6888 53.1595 38.5446C53.0997 38.4004 53.0121 38.2695 52.9017 38.1592L42.2142 27.4717C42.1039 27.3613 41.973 27.2737 41.8288 27.2139C41.6846 27.1542 41.5301 27.1234 41.3741 27.1234C41.218 27.1234 41.0635 27.1542 40.9193 27.2139C40.7752 27.2737 40.6442 27.3613 40.5339 27.4717Z" fill="black"/>
</svg>
