<svg width="87" height="87" viewBox="0 0 87 87" fill="none" xmlns="http://www.w3.org/2000/svg">
<g clip-path="url(#clip0_1_158)">
<path d="M43.5 0C19.488 0 0 19.488 0 43.5C0 67.512 19.488 87 43.5 87C67.512 87 87 67.512 87 43.5C87 19.488 67.512 0 43.5 0ZM63.684 29.58C63.0315 36.453 60.204 53.157 58.7685 60.8565C58.1595 64.119 56.9415 65.2065 55.8105 65.337C53.2875 65.5545 51.3735 63.684 48.9375 62.0745C45.1095 59.5515 42.9345 57.9855 39.237 55.5495C34.9305 52.722 37.7145 51.156 40.194 48.633C40.8465 47.9805 51.9825 37.845 52.2 36.9315C52.2302 36.7931 52.2262 36.6495 52.1883 36.513C52.1504 36.3766 52.0797 36.2515 51.9825 36.1485C51.7215 35.931 51.3735 36.018 51.069 36.0615C50.6775 36.1485 44.5875 40.194 32.712 48.198C30.972 49.3725 29.406 49.9815 28.014 49.938C26.448 49.8945 23.49 49.068 21.2715 48.3285C18.531 47.4585 16.3995 46.98 16.5735 45.4575C16.6605 44.6745 17.748 43.8915 19.7925 43.065C32.4945 37.5405 40.9335 33.8865 45.153 32.1465C57.246 27.1005 59.7255 26.2305 61.3785 26.2305C61.7265 26.2305 62.553 26.3175 63.075 26.7525C63.51 27.1005 63.6405 27.579 63.684 27.927C63.6405 28.188 63.7275 28.971 63.684 29.58Z" fill="black"/>
</g>
<defs>
<clipPath id="clip0_1_158">
<rect width="87" height="87" fill="white"/>
</clipPath>
</defs>
</svg>
