<svg width="102" height="102" viewBox="0 0 102 102" fill="none" xmlns="http://www.w3.org/2000/svg">
<path fill-rule="evenodd" clip-rule="evenodd" d="M70.8726 11.1675C57.5013 8.17855 43.6351 8.17855 30.2638 11.1675L28.8231 11.4862C25.0619 12.3271 21.6075 14.1943 18.8435 16.8802C16.0796 19.5661 14.1143 22.9657 13.1661 26.7012C9.77668 40.057 9.77668 54.0477 13.1661 67.4035C14.0704 70.9661 15.9005 74.2263 18.4711 76.8535C21.0416 79.4808 24.261 81.3817 27.8031 82.3635L29.7793 94.1615C29.8424 94.5361 30.0048 94.887 30.2495 95.1776C30.4942 95.4681 30.8124 95.6878 31.1709 95.8136C31.5293 95.9395 31.915 95.9669 32.2876 95.8931C32.6603 95.8193 33.0064 95.647 33.2898 95.394L44.8966 85.0112C53.6094 85.5429 62.3538 84.8462 70.8726 82.9415L72.3176 82.6227C76.0787 81.7818 79.5332 79.9147 82.2971 77.2288C85.0611 74.5429 87.0263 71.1433 87.9746 67.4077C91.3636 54.052 91.3636 40.0613 87.9746 26.7055C87.026 22.9694 85.0601 19.5694 82.2953 16.8835C79.5306 14.1975 76.0753 12.3307 72.3133 11.4905L70.8726 11.1675ZM33.8508 26.357C33.0609 26.242 32.2555 26.401 31.5686 26.8075H31.5091C29.9153 27.7425 28.4788 28.9197 27.2548 30.3052C26.2348 31.4825 25.6823 32.6725 25.5378 33.82C25.4528 34.5 25.5123 35.1885 25.7121 35.8387L25.7886 35.8812C26.9361 39.2515 28.4321 42.4942 30.2596 45.5457C32.616 49.8318 35.5158 53.7958 38.8871 57.3395L38.9891 57.484L39.1506 57.603L39.2483 57.7177L39.3673 57.8197C42.9234 61.2012 46.8967 64.1147 51.1908 66.4897C56.0996 69.163 59.0788 70.4252 60.8681 70.9522V70.9777C61.3908 71.1392 61.8668 71.2115 62.3471 71.2115C63.8709 71.0989 65.3132 70.4795 66.4441 69.452C67.8253 68.228 68.9941 66.7872 69.9036 65.185V65.1552C70.7578 63.5402 70.4688 62.0187 69.2363 60.986C66.7607 58.8229 64.0837 56.9016 61.2421 55.2485C59.3381 54.2157 57.4043 54.8405 56.6223 55.886L54.9521 57.994C54.0936 59.0395 52.5381 58.895 52.5381 58.895L52.4956 58.9205C40.8888 55.9582 37.7906 44.207 37.7906 44.207C37.7906 44.207 37.6461 42.609 38.7213 41.793L40.8123 40.11C41.8153 39.294 42.5123 37.3645 41.4371 35.4605C39.7949 32.6162 37.8774 29.9401 35.7123 27.4705C35.2401 26.8893 34.5778 26.4934 33.8423 26.3527L33.8508 26.357ZM53.4603 21.2485C52.8967 21.2485 52.3562 21.4724 51.9577 21.8709C51.5592 22.2694 51.3353 22.8099 51.3353 23.3735C51.3353 23.9371 51.5592 24.4776 51.9577 24.8761C52.3562 25.2746 52.8967 25.4985 53.4603 25.4985C58.8366 25.4985 63.2991 27.2537 66.8308 30.6197C68.6456 32.46 70.0608 34.6402 70.9873 37.0287C71.9181 39.4215 72.3431 41.9757 72.2326 44.5342C72.2208 44.8133 72.2642 45.0919 72.3602 45.3542C72.4561 45.6165 72.6028 45.8574 72.7919 46.063C73.1736 46.4782 73.7047 46.7248 74.2683 46.7485C74.8319 46.7722 75.3818 46.571 75.7971 46.1892C76.2123 45.8074 76.4589 45.2763 76.4826 44.7127C76.6144 41.5655 76.092 38.4252 74.9483 35.4902C73.7997 32.5413 72.0581 29.8595 69.8313 27.6107L69.7888 27.5682C65.4071 23.382 59.8608 21.2485 53.4603 21.2485ZM53.3158 28.2355C52.7522 28.2355 52.2117 28.4594 51.8132 28.8579C51.4147 29.2564 51.1908 29.7969 51.1908 30.3605C51.1908 30.9241 51.4147 31.4646 51.8132 31.8631C52.2117 32.2616 52.7522 32.4855 53.3158 32.4855H53.3881C57.2641 32.7617 60.0861 34.0537 62.0623 36.1745C64.0896 38.359 65.1393 41.0747 65.0586 44.4322C65.0456 44.9958 65.2571 45.5415 65.6464 45.9492C66.0357 46.3568 66.5711 46.5931 67.1347 46.6061C67.6983 46.6191 68.2439 46.4076 68.6516 46.0183C69.0593 45.6289 69.2956 45.0936 69.3086 44.53C69.4106 40.1227 67.9911 36.319 65.1776 33.2845V33.276C62.3003 30.1905 58.3521 28.5585 53.6006 28.2397L53.5283 28.2312L53.3158 28.2355ZM53.2351 35.3542C52.9507 35.3291 52.6642 35.3616 52.3926 35.4497C52.121 35.5378 51.87 35.6797 51.6545 35.8669C51.439 36.0542 51.2634 36.2829 51.1383 36.5395C51.0132 36.7961 50.941 37.0753 50.9262 37.3604C50.9113 37.6455 50.9541 37.9307 51.0518 38.1989C51.1496 38.4671 51.3005 38.7129 51.4954 38.9215C51.6902 39.1302 51.9251 39.2974 52.1861 39.4132C52.447 39.5291 52.7286 39.5911 53.0141 39.5957C54.7906 39.6892 55.9253 40.2247 56.6393 40.943C57.3576 41.6655 57.8931 42.8257 57.9908 44.6405C57.9961 44.9257 58.0588 45.2068 58.1751 45.4673C58.2913 45.7277 58.4589 45.9621 58.6676 46.1564C58.8764 46.3508 59.1222 46.5011 59.3903 46.5984C59.6584 46.6957 59.9433 46.7381 60.2281 46.723C60.513 46.7079 60.7918 46.6355 61.0481 46.5104C61.3044 46.3852 61.5328 46.2097 61.7199 45.9943C61.9069 45.779 62.0486 45.5282 62.1367 45.2569C62.2247 44.9856 62.2572 44.6994 62.2323 44.4152C62.0963 41.8652 61.2973 39.6127 59.6611 37.9552C58.0163 36.2977 55.7766 35.4902 53.2351 35.3542Z" fill="black"/>
</svg>
