<svg width="86" height="86" viewBox="0 0 86 86" fill="none" xmlns="http://www.w3.org/2000/svg">
<g clip-path="url(#clip0_1_160)">
<path d="M43 0C66.7489 0 86 19.2511 86 43C86 66.7489 66.7489 85.9999 43 85.9999C35.401 86.0122 27.9357 84.0012 21.371 80.1735L0.0172605 85.9999L5.83086 64.6376C1.99996 58.0709 -0.012635 50.6024 5.9685e-05 43C5.9685e-05 19.2511 19.2511 0 43 0ZM28.3456 22.79L27.4856 22.8244C26.9289 22.8583 26.3848 23.0046 25.886 23.2544C25.4196 23.5185 24.9938 23.8487 24.6218 24.2348C24.1058 24.7207 23.8134 25.1421 23.4995 25.5506C21.9091 27.6185 21.0527 30.1572 21.0657 32.766C21.0743 34.873 21.6247 36.9241 22.4847 38.8419C24.2434 42.7205 27.1373 46.827 30.9557 50.6325C31.8759 51.5484 32.7789 52.4686 33.7507 53.3243C38.4953 57.5016 44.1492 60.514 50.2627 62.1221L52.7051 62.4962C53.5006 62.5392 54.2961 62.479 55.0959 62.4403C56.3483 62.3756 57.5711 62.0365 58.6778 61.447C59.2409 61.1569 59.7905 60.8412 60.3247 60.501C60.3247 60.501 60.5096 60.3806 60.8622 60.114C61.4427 59.684 61.7996 59.3787 62.2812 58.8756C62.6381 58.5058 62.9477 58.0715 63.1842 57.577C63.5196 56.8761 63.855 55.5388 63.9926 54.4251C64.0958 53.5737 64.0657 53.1093 64.0528 52.8212C64.0356 52.3611 63.6529 51.8838 63.2358 51.6817L60.7332 50.5594C60.7332 50.5594 56.9922 48.9297 54.7046 47.8891C54.4652 47.7845 54.2087 47.7248 53.9478 47.7128C53.6536 47.6826 53.3564 47.7157 53.076 47.8099C52.7957 47.904 52.5387 48.0571 52.3224 48.2589C52.3009 48.2503 52.0128 48.4954 48.9039 52.2622C48.7255 52.5019 48.4797 52.6832 48.1979 52.7827C47.9161 52.8823 47.611 52.8956 47.3215 52.8212C47.0414 52.7461 46.767 52.6512 46.5002 52.5374C45.967 52.3138 45.7821 52.2278 45.4166 52.073C42.9487 50.996 40.6638 49.5409 38.6441 47.7601C38.1023 47.2871 37.5992 46.7711 37.0832 46.2723C35.3916 44.6522 33.9172 42.8194 32.6972 40.8199L32.4435 40.4114C32.2613 40.1369 32.114 39.8408 32.0049 39.5299C31.8415 38.8978 32.2672 38.3904 32.2672 38.3904C32.2672 38.3904 33.3121 37.2466 33.798 36.6274C34.271 36.0254 34.6709 35.4406 34.9289 35.0235C35.4363 34.2065 35.5954 33.368 35.3288 32.7187C34.1248 29.7775 32.8778 26.8492 31.5964 23.9424C31.3427 23.3662 30.5902 22.9534 29.9065 22.8717C29.6743 22.8459 29.4421 22.8201 29.2099 22.8029C28.6325 22.7742 28.0538 22.7799 27.477 22.8201L28.3413 22.7857L28.3456 22.79Z" fill="black"/>
</g>
<defs>
<clipPath id="clip0_1_160">
<rect width="86" height="86" fill="white"/>
</clipPath>
</defs>
</svg>
