<svg width="55" height="49" viewBox="0 0 55 49" fill="none" xmlns="http://www.w3.org/2000/svg">
<path d="M53.5998 0.953609C53.0362 0.483715 52.3537 0.172857 51.6249 0.0540763C50.8961 -0.0647043 50.1482 0.0130314 49.4607 0.279021L2.58376 18.393C1.76155 18.7012 1.0651 19.2668 0.601665 20.0026C0.138228 20.7385 -0.0665053 21.6039 0.0189914 22.4655C0.0952681 23.3267 0.453263 24.1404 1.03929 24.7846C1.62532 25.4288 2.4078 25.8686 3.26939 26.0383L15.1791 28.3619V43.0029C15.1786 43.795 15.4174 44.5693 15.865 45.2276C16.3126 45.886 16.9488 46.3987 17.6931 46.7006C18.1856 46.8957 18.7111 46.9974 19.2421 47.0005C19.7757 47.0023 20.3044 46.8994 20.7971 46.6978C21.2898 46.4961 21.7367 46.1998 22.1116 45.8262L28.7139 39.3551L38.6937 47.9999C39.4305 48.6392 40.3777 48.9942 41.36 48.9992C41.792 49.008 42.2221 48.9403 42.6297 48.7994C43.2998 48.5908 43.903 48.2136 44.3796 47.7053C44.8561 47.197 45.1895 46.5751 45.3469 45.9011L54.8949 4.87621C55.0618 4.16831 55.0294 3.42904 54.8012 2.73789C54.573 2.04675 54.1577 1.42988 53.5998 0.953609ZM16.7281 24.5892L4.08199 22.1157L39.5317 8.39906L16.7281 24.5892ZM19.2421 43.0029V31.1602L25.6413 36.7068L19.2421 43.0029ZM41.3854 45.0017L20.461 26.8878L50.6034 5.47584L41.3854 45.0017Z" fill="white"/>
</svg>
