<svg width="73" height="73" viewBox="0 0 73 73" fill="none" xmlns="http://www.w3.org/2000/svg">
<path d="M24.2264 18.8709C23.6611 18.7886 23.0847 18.9024 22.593 19.1933H22.5505C21.4098 19.8625 20.3818 20.7051 19.5058 21.6966C18.7758 22.5392 18.3803 23.3908 18.2769 24.2121C18.2161 24.6988 18.2587 25.1915 18.4016 25.6569L18.4564 25.6873C19.2776 28.0993 20.3483 30.4201 21.6562 32.604C23.3427 35.6715 25.418 38.5085 27.8308 41.0447L27.9038 41.1481L28.0194 41.2333L28.0893 41.3154L28.1745 41.3884C30.7195 43.8084 33.5632 45.8936 36.6364 47.5934C40.1495 49.5066 42.2817 50.41 43.5623 50.7871V50.8054C43.9364 50.921 44.2771 50.9727 44.6208 50.9727C45.7114 50.8921 46.7436 50.4488 47.553 49.7134C48.5415 48.8374 49.378 47.8063 50.0289 46.6596V46.6383C50.6403 45.4825 50.4334 44.3935 49.5513 43.6544C47.7795 42.1063 45.8637 40.7313 43.83 39.5482C42.4673 38.809 41.0833 39.2562 40.5237 40.0044L39.3283 41.5131C38.7139 42.2613 37.6006 42.1579 37.6006 42.1579L37.5702 42.1762C29.2634 40.0561 27.046 31.6459 27.046 31.6459C27.046 31.6459 26.9426 30.5023 27.7122 29.9183L29.2087 28.7138C29.9265 28.1298 30.4253 26.7488 29.6558 25.3862C28.4805 23.3506 27.1082 21.4353 25.5587 19.6678C25.2207 19.2519 24.7467 18.9686 24.2203 18.8679L24.2264 18.8709ZM38.2637 15.2148C37.8604 15.2148 37.4735 15.3751 37.1883 15.6603C36.9031 15.9455 36.7429 16.3323 36.7429 16.7357C36.7429 17.139 36.9031 17.5259 37.1883 17.8111C37.4735 18.0963 37.8604 18.2565 38.2637 18.2565C42.1084 18.2565 45.3021 19.5127 47.8298 21.9217C49.1285 23.2388 50.1414 24.7991 50.8045 26.5086C51.4706 28.221 51.7748 30.0491 51.6957 31.8801C51.6788 32.2835 51.8228 32.677 52.096 32.9742C52.3692 33.2714 52.7493 33.4479 53.1527 33.4648C53.556 33.4818 53.9496 33.3378 54.2468 33.0646C54.544 32.7913 54.7204 32.4112 54.7374 32.0079C54.8317 29.7555 54.4578 27.508 53.6393 25.4075C52.8173 23.297 51.5708 21.3776 49.9772 19.7682L49.9467 19.7378C46.8108 16.7418 42.8445 15.2148 38.2637 15.2148Z" fill="white"/>
<path d="M38.1615 20.2179C37.7581 20.2179 37.3713 20.3781 37.0861 20.6633C36.8009 20.9485 36.6406 21.3354 36.6406 21.7387C36.6406 22.1421 36.8009 22.5289 37.0861 22.8141C37.3713 23.0993 37.7581 23.2596 38.1615 23.2596H38.2132C40.9872 23.4573 43.0068 24.3819 44.4212 25.8997C45.8721 27.4631 46.6234 29.4068 46.5656 31.8097C46.5563 32.213 46.7076 32.6035 46.9863 32.8953C47.2649 33.1871 47.6481 33.3562 48.0514 33.3655C48.4548 33.3748 48.8453 33.2234 49.1371 32.9448C49.4288 32.6661 49.598 32.283 49.6073 31.8796C49.6803 28.7254 48.6643 26.0031 46.6508 23.8314V23.8253C44.5915 21.6171 41.7658 20.4491 38.3653 20.2209L38.3135 20.2148L38.1615 20.2179Z" fill="white"/>
<path d="M38.0998 25.3028C37.8963 25.2848 37.6912 25.308 37.4969 25.3711C37.3025 25.4341 37.1229 25.5357 36.9686 25.6697C36.8144 25.8037 36.6888 25.9674 36.5992 26.1511C36.5096 26.3347 36.458 26.5345 36.4474 26.7386C36.4367 26.9426 36.4673 27.1467 36.5373 27.3387C36.6073 27.5306 36.7153 27.7065 36.8547 27.8558C36.9942 28.0051 37.1623 28.1248 37.3491 28.2077C37.5358 28.2906 37.7374 28.3351 37.9417 28.3383C39.2131 28.4053 40.0252 28.7885 40.5362 29.3026C41.0502 29.8196 41.4335 30.65 41.5034 31.9488C41.5072 32.1529 41.5521 32.3541 41.6353 32.5405C41.7185 32.7269 41.8384 32.8947 41.9878 33.0337C42.1373 33.1728 42.3131 33.2804 42.505 33.3501C42.6969 33.4197 42.9008 33.45 43.1047 33.4392C43.3085 33.4284 43.5081 33.3766 43.6915 33.287C43.8749 33.1975 44.0384 33.0719 44.1723 32.9177C44.3061 32.7636 44.4076 32.5841 44.4706 32.39C44.5336 32.1958 44.5569 31.9909 44.539 31.7876C44.4417 29.9626 43.8699 28.3505 42.6988 27.1643C41.5217 25.978 39.9187 25.4001 38.0998 25.3028Z" fill="white"/>
<path fill-rule="evenodd" clip-rule="evenodd" d="M21.4949 7.25546C31.1737 5.09193 41.2108 5.09193 50.8896 7.25546L51.9207 7.48358C54.75 8.1161 57.3486 9.52067 59.4277 11.5412C61.5068 13.5618 62.985 16.1192 63.698 18.9294C66.1548 28.6107 66.1548 38.7523 63.698 48.4335C62.985 51.2437 61.5068 53.8011 59.4277 55.8217C57.3486 57.8422 54.75 59.2468 51.9207 59.8793L50.8865 60.1075C44.8245 61.4631 38.6042 61.9739 32.4023 61.6253L24.3328 68.8462C24.0285 69.1186 23.6568 69.3043 23.2563 69.384C22.8558 69.4637 22.4412 69.4344 22.0559 69.2992C21.6706 69.1641 21.3286 68.9279 21.0657 68.6155C20.8027 68.3031 20.6285 67.9258 20.5611 67.523L19.2258 59.5478C16.6653 58.7511 14.3519 57.311 12.5067 55.3651C10.6615 53.4193 9.34615 51.0327 8.68642 48.4335C6.22953 38.7523 6.22953 28.6107 8.68642 18.9294C9.39945 16.1192 10.8776 13.5618 12.9567 11.5412C15.0358 9.52067 17.6344 8.1161 20.4638 7.48358L21.4949 7.25546ZM49.8949 11.7054C40.8711 9.6882 31.5133 9.6882 22.4895 11.7054L21.4553 11.9366C19.45 12.3857 17.6084 13.3818 16.1351 14.8144C14.6617 16.247 13.6143 18.0598 13.109 20.0518C10.8391 28.9965 10.8391 38.3665 13.109 47.3112C13.6145 49.3035 14.6624 51.1166 16.1364 52.5492C17.6103 53.9818 19.4525 54.9777 21.4584 55.4263L21.7321 55.4872C22.175 55.5862 22.5782 55.8151 22.8903 56.1445C23.2024 56.4739 23.4092 56.889 23.4841 57.3365L24.3784 62.6838L30.0724 57.589C30.2998 57.3849 30.5658 57.2286 30.8548 57.1293C31.1437 57.0301 31.4496 56.9898 31.7544 57.011C37.8349 57.4424 43.9458 56.9864 49.8949 55.6575L50.926 55.4263C52.9319 54.9777 54.7741 53.9818 56.2481 52.5492C57.722 51.1166 58.7699 49.3035 59.2754 47.3112C61.5445 38.3687 61.5445 28.9973 59.2754 20.0518C58.7699 18.0595 57.722 16.2463 56.2481 14.8137C54.7741 13.3811 52.9319 12.3852 50.926 11.9366L49.8949 11.7054Z" fill="white"/>
</svg>
