<svg width="58" height="58" viewBox="0 0 58 58" fill="none" xmlns="http://www.w3.org/2000/svg">
<path d="M49.5265 8.4319C46.8554 5.74824 43.6745 3.62062 40.1692 2.17302C36.6639 0.725415 32.9042 -0.0132105 29.1092 0.000178823C13.2073 0.000178823 0.247614 12.8979 0.233049 28.7318C0.233049 33.8032 1.5658 38.7368 4.08199 43.1049L0 58L15.3084 54.0053C19.5433 56.2996 24.2878 57.5022 29.1092 57.5034H29.1238C45.0294 57.5034 57.9854 44.6057 58 28.7572C58.0036 24.9801 57.2565 21.2397 55.8016 17.7513C54.3467 14.263 52.2164 11.0957 49.5265 8.4319ZM29.1092 52.6386C24.8087 52.6401 20.5873 51.488 16.8887 49.3036L16.0148 48.7817L6.9332 51.1524L9.35836 42.3328L8.7903 41.4229C6.38629 37.6179 5.11486 33.2124 5.12343 28.7173C5.12343 15.5731 15.891 4.85041 29.1238 4.85041C32.2763 4.84478 35.3987 5.46041 38.3111 6.66179C41.2235 7.86317 43.8681 9.62655 46.0927 11.8503C48.3249 14.0653 50.0946 16.6984 51.2996 19.5977C52.5045 22.497 53.1209 25.6051 53.1132 28.7427C53.0987 41.934 42.3311 52.6386 29.1092 52.6386ZM42.2728 34.7529C41.5555 34.3941 38.0124 32.6577 37.346 32.4112C36.6833 32.1756 36.199 32.0523 35.7256 32.7701C35.2413 33.4842 33.8576 35.1118 33.4425 35.5794C33.0274 36.0616 32.5977 36.1159 31.8767 35.7607C31.1593 35.3982 28.8325 34.6442 26.0796 32.1901C23.9312 30.287 22.4928 27.9307 22.0632 27.2166C21.648 26.4988 22.0231 26.1146 22.3836 25.7557C22.7004 25.4367 23.1009 24.9147 23.4614 24.5015C23.8256 24.0882 23.9457 23.7837 24.1824 23.3052C24.4191 22.8195 24.3062 22.4062 24.1278 22.0474C23.9457 21.6885 22.5074 18.1469 21.8993 16.7186C21.3167 15.3085 20.7231 15.5043 20.2789 15.4861C19.8638 15.4608 19.3795 15.4608 18.8951 15.4608C18.5294 15.4698 18.1695 15.554 17.838 15.7081C17.5065 15.8622 17.2106 16.0828 16.9689 16.3561C16.3061 17.0739 14.4527 18.8102 14.4527 22.3519C14.4527 25.8935 17.038 29.2973 17.4022 29.7795C17.759 30.2616 22.4783 37.5079 29.721 40.6254C31.4324 41.3685 32.7798 41.8072 33.8321 42.1407C35.5618 42.6917 37.1239 42.6083 38.3693 42.4307C39.753 42.2204 42.6333 40.6907 43.2415 39.0123C43.8386 37.3303 43.8386 35.8948 43.6566 35.5939C43.4781 35.2894 42.9938 35.1118 42.2728 34.7529Z" fill="white"/>
</svg>
