<svg width="50" height="50" viewBox="0 0 50 50" fill="none" xmlns="http://www.w3.org/2000/svg">
<path d="M39.6823 10.2267C37.7723 8.29736 35.4973 6.76766 32.9899 5.72679C30.4825 4.68592 27.793 4.15473 25.0781 4.16419C13.7031 4.16419 4.43229 13.435 4.43229 24.81C4.43229 28.4559 5.39063 31.9975 7.18229 35.1225L4.26562 45.8309L15.2031 42.9559C18.224 44.6017 21.6198 45.4767 25.0781 45.4767C36.4531 45.4767 45.724 36.2059 45.724 24.8309C45.724 19.31 43.5781 14.1225 39.6823 10.2267ZM25.0781 41.9767C21.9948 41.9767 18.974 41.1434 16.3281 39.5809L15.7031 39.2058L9.20312 40.9142L10.9323 34.5809L10.5156 33.935C8.8026 31.1995 7.893 28.0376 7.89062 24.81C7.89062 15.3517 15.599 7.64335 25.0573 7.64335C29.6406 7.64335 33.9531 9.43502 37.1823 12.685C38.7812 14.2766 40.0483 16.1697 40.9102 18.2547C41.7721 20.3396 42.2115 22.5748 42.2031 24.8309C42.2448 34.2892 34.5365 41.9767 25.0781 41.9767ZM34.4948 29.1434C33.974 28.8934 31.4323 27.6434 30.974 27.4559C30.4948 27.2892 30.1615 27.2059 29.8073 27.7059C29.4531 28.2267 28.474 29.3934 28.1823 29.7267C27.8906 30.0809 27.5781 30.1225 27.0573 29.8517C26.5365 29.6017 24.8698 29.0392 22.9115 27.2892C21.3698 25.9142 20.349 24.2267 20.0365 23.7059C19.7448 23.185 19.9948 22.9142 20.2656 22.6434C20.4948 22.4142 20.7865 22.0392 21.0365 21.7475C21.2865 21.4559 21.3906 21.2267 21.5573 20.8934C21.724 20.5392 21.6406 20.2475 21.5156 19.9975C21.3906 19.7475 20.349 17.2059 19.9323 16.1642C19.5156 15.1642 19.0781 15.2892 18.7656 15.2684H17.7656C17.4115 15.2684 16.8698 15.3934 16.3906 15.9142C15.9323 16.435 14.599 17.685 14.599 20.2267C14.599 22.7684 16.4531 25.2267 16.7031 25.56C16.9531 25.9142 20.349 31.1225 25.5156 33.3517C26.7448 33.8934 27.7031 34.2059 28.4531 34.435C29.6823 34.8309 30.8073 34.7683 31.7031 34.6433C32.7031 34.4975 34.7656 33.3934 35.1823 32.185C35.6198 30.9767 35.6198 29.9559 35.474 29.7267C35.3281 29.4975 35.0156 29.3934 34.4948 29.1434Z" fill="#B9A758"/>
</svg>
