<svg width="50" height="50" viewBox="0 0 50 50" fill="none" xmlns="http://www.w3.org/2000/svg">
<path d="M25.0052 41.6641C29.4255 41.6641 33.6647 39.9081 36.7903 36.7825C39.9159 33.6569 41.6719 29.4177 41.6719 24.9974C41.6719 20.5771 39.9159 16.3379 36.7903 13.2123C33.6647 10.0867 29.4255 8.33073 25.0052 8.33073C20.5849 8.33073 16.3457 10.0867 13.2201 13.2123C10.0945 16.3379 8.33854 20.5771 8.33854 24.9974C8.33854 29.4177 10.0945 33.6569 13.2201 36.7825C16.3457 39.9081 20.5849 41.6641 25.0052 41.6641ZM25.0052 45.8307C13.499 45.8307 4.17188 36.5036 4.17188 24.9974C4.17188 13.4911 13.499 4.16406 25.0052 4.16406C36.5115 4.16406 45.8385 13.4911 45.8385 24.9974C45.8385 36.5036 36.5115 45.8307 25.0052 45.8307Z" fill="#B9A758"/>
<path d="M32.5974 23.7578C32.6224 20.6495 30.0579 17.7995 26.8808 17.4057L26.6724 17.3745C26.5131 17.3428 26.3515 17.3247 26.1891 17.3203C25.537 17.3203 25.3641 17.7911 25.3183 18.0724C25.2923 18.1892 25.2899 18.31 25.3114 18.4278C25.3329 18.5455 25.3777 18.6577 25.4433 18.7578C25.6599 19.0599 26.0391 19.112 26.3433 19.1578C26.4329 19.1703 26.5183 19.1807 26.587 19.1995C29.4433 19.8557 30.4058 20.8911 30.8745 23.8141C30.887 23.887 30.8912 23.9745 30.8954 24.0682C30.9162 24.4161 30.9599 25.1432 31.7183 25.1432C31.7808 25.1432 31.8474 25.1391 31.9183 25.1266C32.6245 25.0161 32.6016 24.3516 32.5912 24.0328C32.5859 23.9558 32.5859 23.8786 32.5912 23.8016C32.5935 23.7878 32.5949 23.7739 32.5954 23.7599L32.5974 23.7578Z" fill="#B9A758"/>
<path d="M26.0105 16.2583C26.0939 16.2646 26.1772 16.2708 26.2418 16.2812C30.9293 17.0271 33.0876 19.3188 33.6855 24.1979C33.696 24.2812 33.696 24.3813 33.698 24.4896C33.7043 24.8708 33.7168 25.6625 34.5418 25.6792H34.5668C34.6801 25.6852 34.7933 25.6669 34.8989 25.6256C35.0046 25.5843 35.1002 25.5209 35.1793 25.4396C35.4355 25.1625 35.4189 24.7521 35.4043 24.4187C35.4001 24.3396 35.396 24.2625 35.398 24.1958C35.4564 19.2062 31.273 14.6812 26.4439 14.5146L26.3855 14.5167C26.3669 14.5194 26.3481 14.5208 26.3293 14.5208C26.2814 14.5208 26.221 14.5167 26.1585 14.5125C26.0753 14.5049 25.9919 14.5007 25.9085 14.5C25.1397 14.5 24.9939 15.0625 24.9751 15.4C24.9335 16.1771 25.6605 16.2333 26.0105 16.2583ZM33.4585 30.5021C33.3581 30.4235 33.2588 30.3436 33.1605 30.2625C32.648 29.8375 32.1022 29.4458 31.5772 29.0667C31.4674 28.9877 31.3576 28.9085 31.248 28.8292C30.573 28.3417 29.9668 28.1021 29.3939 28.1021C28.623 28.1021 27.9501 28.5438 27.3939 29.4125C27.148 29.7958 26.848 29.9833 26.4814 29.9833C26.2254 29.9742 25.9745 29.9095 25.746 29.7937C23.5689 28.7729 22.0126 27.2104 21.123 25.1479C20.6939 24.1479 20.8314 23.4979 21.5897 22.9667C22.0189 22.6667 22.8189 22.1062 22.7626 21.0333C22.7001 19.8146 20.0939 16.1479 18.996 15.7313C18.5276 15.5545 18.0111 15.553 17.5418 15.7271C16.2814 16.1646 15.3751 16.9354 14.923 17.95C14.4855 18.9333 14.5064 20.0854 14.9814 21.2854C16.3501 24.7563 18.273 27.7813 20.7022 30.2771C23.0772 32.7208 25.998 34.7208 29.3814 36.225C29.6855 36.3604 30.0064 36.4333 30.2397 36.4875L30.4376 36.5375C30.4647 36.5453 30.4928 36.5495 30.521 36.55H30.548C32.1397 36.55 34.0501 35.05 34.6376 33.3375C35.1522 31.8375 34.2126 31.0979 33.4585 30.5042V30.5021ZM26.7147 20.2229C26.4439 20.2292 25.8751 20.2437 25.6751 20.8396C25.5835 21.1187 25.5939 21.3604 25.7085 21.5583C25.8772 21.85 26.2022 21.9396 26.496 21.9875C27.5626 22.1646 28.1126 22.775 28.221 23.9042C28.273 24.4333 28.6168 24.8 29.0585 24.8C29.0918 24.8007 29.1252 24.7993 29.1585 24.7958C29.6897 24.7292 29.946 24.3271 29.923 23.5979C29.9314 22.8354 29.546 21.9729 28.8897 21.2854C28.2314 20.5938 27.4376 20.2042 26.7147 20.2229Z" fill="#B9A758"/>
</svg>
