<svg width="50" height="50" viewBox="0 0 50 50" fill="none" xmlns="http://www.w3.org/2000/svg">
<path d="M29.9218 11.7731L33.0051 8.68974C33.3921 8.30265 33.8515 7.99558 34.3571 7.78608C34.8627 7.57658 35.4047 7.46875 35.952 7.46875C36.4993 7.46875 37.0413 7.57658 37.5469 7.78608C38.0525 7.99558 38.5119 8.30265 38.8989 8.68974L41.8447 11.6356C42.6258 12.4169 43.0646 13.4766 43.0646 14.5814C43.0646 15.6863 42.6258 16.7459 41.8447 17.5272L38.7614 20.6106M29.9218 11.7731L9.88845 31.8043C9.19675 32.496 8.77047 33.4091 8.68429 34.3835L8.18012 40.0918C8.15304 40.3953 8.19285 40.701 8.29674 40.9874C8.40062 41.2738 8.56606 41.5339 8.78139 41.7494C8.99672 41.965 9.2567 42.1306 9.543 42.2348C9.82931 42.3389 10.135 42.379 10.4385 42.3522L16.1468 41.8481C17.1227 41.7628 18.0373 41.3365 18.7301 40.6439L38.7614 20.6106M29.9218 11.7731L38.7614 20.6106" stroke="black" stroke-width="1.5" stroke-linecap="round" stroke-linejoin="round"/>
</svg>
