<svg width="30" height="28" viewBox="0 0 30 28" fill="none" xmlns="http://www.w3.org/2000/svg">
<path d="M15.0025 23.4583L8.08583 27.625C7.78028 27.8194 7.46083 27.9028 7.1275 27.875C6.79417 27.8472 6.5025 27.7361 6.2525 27.5417C6.0025 27.3472 5.80806 27.1039 5.66917 26.8117C5.53028 26.5194 5.5025 26.1933 5.58583 25.8333L7.41917 17.9583L1.29417 12.6667C1.01639 12.4167 0.843057 12.1317 0.774168 11.8117C0.705279 11.4917 0.725835 11.1794 0.835835 10.875C0.946946 10.5694 1.11361 10.3194 1.33583 10.125C1.55806 9.93056 1.86361 9.80556 2.2525 9.75L10.3358 9.04167L13.4608 1.625C13.5997 1.29167 13.8153 1.04167 14.1075 0.875C14.3997 0.708333 14.6981 0.625 15.0025 0.625C15.3081 0.625 15.6064 0.708333 15.8975 0.875C16.1886 1.04167 16.4042 1.29167 16.5442 1.625L19.6692 9.04167L27.7525 9.75C28.1414 9.80556 28.4469 9.93056 28.6692 10.125C28.8914 10.3194 29.0581 10.5694 29.1692 10.875C29.2803 11.1806 29.3014 11.4933 29.2325 11.8133C29.1636 12.1333 28.9897 12.4178 28.7108 12.6667L22.5858 17.9583L24.4192 25.8333C24.5025 26.1944 24.4747 26.5211 24.3358 26.8133C24.1969 27.1056 24.0025 27.3483 23.7525 27.5417C23.5025 27.7361 23.2108 27.8472 22.8775 27.875C22.5442 27.9028 22.2247 27.8194 21.9192 27.625L15.0025 23.4583Z" fill="#DEB404"/>
</svg>
