<svg width="50" height="50" viewBox="0 0 50 50" fill="none" xmlns="http://www.w3.org/2000/svg">
<path d="M41.6616 18.7526V12.5026H37.4949V18.7526H31.2449V22.9193H37.4949V29.1693H41.6616V22.9193H47.9116V18.7526H41.6616ZM18.7449 25.0026C23.3491 25.0026 27.0783 21.2734 27.0783 16.6693C27.0783 12.0651 23.3491 8.33594 18.7449 8.33594C14.1408 8.33594 10.4116 12.0651 10.4116 16.6693C10.4116 21.2734 14.1408 25.0026 18.7449 25.0026ZM18.7449 12.5026C21.0366 12.5026 22.9116 14.3776 22.9116 16.6693C22.9116 18.9609 21.0366 20.8359 18.7449 20.8359C16.4533 20.8359 14.5783 18.9609 14.5783 16.6693C14.5783 14.3776 16.4533 12.5026 18.7449 12.5026ZM32.0574 30.3359C28.5574 28.5443 24.0158 27.0859 18.7449 27.0859C13.4741 27.0859 8.93243 28.5443 5.43243 30.3359C4.41588 30.8595 3.5643 31.6545 2.97222 32.6328C2.38013 33.611 2.0707 34.7342 2.07826 35.8776V41.6693H35.4116V35.8776C35.4116 33.5443 34.1408 31.3984 32.0574 30.3359ZM31.2449 37.5026H6.24493V35.8776C6.24493 35.0859 6.66159 34.3776 7.32826 34.0443C9.80743 32.7734 13.8074 31.2526 18.7449 31.2526C23.6824 31.2526 27.6824 32.7734 30.1616 34.0443C30.8283 34.3776 31.2449 35.0859 31.2449 35.8776V37.5026Z" fill="#B9A758"/>
</svg>
