<svg width="50" height="50" viewBox="0 0 50 50" fill="none" xmlns="http://www.w3.org/2000/svg">
<path d="M37.5 33.3359H29.1667V37.5026H37.5V41.6693L43.75 35.4193L37.5 29.1693V33.3359ZM22.9167 8.33594C18.3333 8.33594 14.5833 12.0859 14.5833 16.6693C14.5833 21.2526 18.3333 25.0026 22.9167 25.0026C27.5 25.0026 31.25 21.2526 31.25 16.6693C31.25 12.0859 27.5 8.33594 22.9167 8.33594ZM22.9167 12.5026C25.2083 12.5026 27.0833 14.3776 27.0833 16.6693C27.0833 18.9609 25.2083 20.8359 22.9167 20.8359C20.625 20.8359 18.75 18.9609 18.75 16.6693C18.75 14.3776 20.625 12.5026 22.9167 12.5026ZM22.9167 27.0859C17.2917 27.0859 6.25 29.7943 6.25 35.4193V41.6693H26.0417C25.4167 40.4193 25.2083 39.1693 25 37.7109H10.2083V35.4193C10.2083 34.1693 16.6667 31.0443 22.9167 31.0443C23.9583 31.0443 25 31.2526 26.0417 31.2526C26.6667 30.0026 27.2917 28.7526 28.3333 27.7109C26.25 27.2943 24.375 27.0859 22.9167 27.0859Z" fill="#B9A758"/>
</svg>
