<svg width="50" height="50" viewBox="0 0 50 50" fill="none" xmlns="http://www.w3.org/2000/svg">
<path d="M24.9974 4.16699C13.4974 4.16699 4.16406 13.5003 4.16406 25.0003C4.16406 36.5003 13.4974 45.8337 24.9974 45.8337C36.4974 45.8337 45.8307 36.5003 45.8307 25.0003C45.8307 13.5003 36.4974 4.16699 24.9974 4.16699ZM34.6641 18.3337C34.3516 21.6253 32.9974 29.6253 32.3099 33.3128C32.0182 34.8753 31.4349 35.3962 30.8932 35.4587C29.6849 35.5628 28.7682 34.667 27.6016 33.8962C25.7682 32.6878 24.7266 31.9378 22.9557 30.7712C20.8932 29.417 22.2266 28.667 23.4141 27.4587C23.7266 27.1462 29.0599 22.292 29.1641 21.8545C29.1785 21.7882 29.1766 21.7194 29.1585 21.6541C29.1403 21.5887 29.1065 21.5288 29.0599 21.4795C28.9349 21.3753 28.7682 21.417 28.6224 21.4378C28.4349 21.4795 25.5182 23.417 19.8307 27.2503C18.9974 27.8128 18.2474 28.1045 17.5807 28.0837C16.8307 28.0628 15.4141 27.667 14.3516 27.3128C13.0391 26.8962 12.0182 26.667 12.1016 25.9378C12.1432 25.5628 12.6641 25.1878 13.6432 24.792C19.7266 22.1462 23.7682 20.3962 25.7891 19.5628C31.5807 17.1462 32.7682 16.7295 33.5599 16.7295C33.7266 16.7295 34.1224 16.7712 34.3724 16.9795C34.5807 17.1462 34.6432 17.3753 34.6641 17.542C34.6432 17.667 34.6849 18.042 34.6641 18.3337Z" fill="black"/>
</svg>
