<svg width="50" height="50" viewBox="0 0 50 50" fill="none" xmlns="http://www.w3.org/2000/svg">
<path fill-rule="evenodd" clip-rule="evenodd" d="M34.7445 5.47485C28.19 4.00969 21.3928 4.00969 14.8383 5.47485L14.132 5.6311C12.2883 6.04331 10.595 6.95857 9.2401 8.2752C7.88522 9.59182 6.92186 11.2583 6.45704 13.0894C4.79557 19.6364 4.79557 26.4946 6.45704 33.0415C6.90032 34.7879 7.79746 36.386 9.05752 37.6739C10.3176 38.9618 11.8957 39.8936 13.632 40.3748L14.6008 46.1582C14.6317 46.3418 14.7113 46.5138 14.8313 46.6563C14.9512 46.7987 15.1072 46.9064 15.2829 46.9681C15.4586 47.0298 15.6477 47.0432 15.8304 47.007C16.013 46.9708 16.1827 46.8864 16.3216 46.7623L22.0112 41.6728C26.2822 41.9334 30.5687 41.5919 34.7445 40.6582L35.4529 40.5019C37.2966 40.0897 38.9899 39.1745 40.3448 37.8578C41.6997 36.5412 42.6631 34.8748 43.1279 33.0436C44.7892 26.4966 44.7892 19.6385 43.1279 13.0915C42.6629 11.2601 41.6992 9.59346 40.3439 8.27681C38.9887 6.96015 37.2949 6.04505 35.4508 5.63318L34.7445 5.47485ZM16.5966 12.9207C16.2094 12.8643 15.8146 12.9423 15.4779 13.1415H15.4487C14.6675 13.5998 13.9633 14.1769 13.3633 14.8561C12.8633 15.4332 12.5925 16.0165 12.5216 16.579C12.48 16.9123 12.5091 17.2498 12.607 17.5686L12.6445 17.5894C13.207 19.2415 13.9404 20.8311 14.8362 22.3269C15.9913 24.428 17.4128 26.3711 19.0654 28.1082L19.1154 28.179L19.1945 28.2373L19.2425 28.2936L19.3008 28.3436C21.044 30.0012 22.9917 31.4294 25.0966 32.5936C27.5029 33.904 28.9633 34.5228 29.8404 34.7811V34.7936C30.0966 34.8728 30.33 34.9082 30.5654 34.9082C31.3123 34.853 32.0193 34.5494 32.5737 34.0457C33.2508 33.4457 33.8237 32.7394 34.2695 31.954V31.9394C34.6883 31.1478 34.5466 30.4019 33.9425 29.8957C32.7289 28.8353 31.4167 27.8935 30.0237 27.0832C29.0904 26.5769 28.1425 26.8832 27.7591 27.3957L26.9404 28.429C26.5195 28.9415 25.757 28.8707 25.757 28.8707L25.7362 28.8832C20.0466 27.4311 18.5279 21.6707 18.5279 21.6707C18.5279 21.6707 18.457 20.8873 18.9841 20.4873L20.0091 19.6623C20.5008 19.2623 20.8425 18.3165 20.3154 17.3832C19.5104 15.9889 18.5705 14.6771 17.5091 13.4665C17.2776 13.1816 16.953 12.9876 16.5925 12.9186L16.5966 12.9207ZM26.2091 10.4165C25.9329 10.4165 25.6679 10.5263 25.4726 10.7216C25.2772 10.917 25.1675 11.1819 25.1675 11.4582C25.1675 11.7345 25.2772 11.9994 25.4726 12.1948C25.6679 12.3901 25.9329 12.4999 26.2091 12.4999C28.8445 12.4999 31.032 13.3603 32.7633 15.0103C33.6529 15.9123 34.3466 16.9811 34.8008 18.1519C35.257 19.3249 35.4654 20.5769 35.4112 21.8311C35.4055 21.9679 35.4267 22.1045 35.4738 22.2331C35.5208 22.3616 35.5927 22.4797 35.6854 22.5805C35.8725 22.784 36.1329 22.9049 36.4091 22.9165C36.6854 22.9281 36.9549 22.8295 37.1585 22.6424C37.3621 22.4552 37.4829 22.1949 37.4945 21.9186C37.5592 20.3759 37.3031 18.8365 36.7425 17.3978C36.1794 15.9522 35.3257 14.6376 34.2341 13.5353L34.2133 13.5144C32.0654 11.4623 29.3466 10.4165 26.2091 10.4165ZM26.1383 13.8415C25.862 13.8415 25.5971 13.9513 25.4017 14.1466C25.2064 14.342 25.0966 14.6069 25.0966 14.8832C25.0966 15.1595 25.2064 15.4244 25.4017 15.6198C25.5971 15.8151 25.862 15.9248 26.1383 15.9248H26.1737C28.0737 16.0603 29.457 16.6936 30.4258 17.7332C31.4195 18.804 31.9341 20.1353 31.8945 21.7811C31.8882 22.0574 31.9918 22.3248 32.1827 22.5247C32.3736 22.7245 32.636 22.8404 32.9122 22.8467C33.1885 22.8531 33.456 22.7494 33.6558 22.5586C33.8557 22.3677 33.9715 22.1053 33.9779 21.829C34.0279 19.6686 33.332 17.804 31.9529 16.3165V16.3123C30.5425 14.7998 28.607 13.9999 26.2779 13.8436L26.2425 13.8394L26.1383 13.8415ZM26.0987 17.3311C25.9593 17.3188 25.8188 17.3347 25.6857 17.3779C25.5526 17.4211 25.4296 17.4906 25.3239 17.5824C25.2183 17.6742 25.1322 17.7864 25.0709 17.9121C25.0095 18.0379 24.9742 18.1748 24.9669 18.3145C24.9596 18.4543 24.9806 18.5941 25.0285 18.7256C25.0764 18.857 25.1504 18.9775 25.2459 19.0798C25.3414 19.182 25.4566 19.264 25.5845 19.3208C25.7124 19.3776 25.8504 19.408 25.9904 19.4103C26.8612 19.4561 27.4175 19.7186 27.7675 20.0707C28.1195 20.4248 28.382 20.9936 28.43 21.8832C28.4326 22.023 28.4633 22.1608 28.5203 22.2885C28.5773 22.4161 28.6594 22.531 28.7617 22.6263C28.8641 22.7216 28.9845 22.7952 29.116 22.8429C29.2474 22.8907 29.3871 22.9114 29.5267 22.904C29.6663 22.8966 29.803 22.8612 29.9286 22.7998C30.0543 22.7384 30.1662 22.6524 30.2579 22.5468C30.3496 22.4413 30.4191 22.3183 30.4622 22.1853C30.5054 22.0524 30.5213 21.912 30.5091 21.7728C30.4425 20.5228 30.0508 19.4186 29.2487 18.6061C28.4425 17.7936 27.3445 17.3978 26.0987 17.3311Z" fill="black"/>
</svg>
