<svg width="50" height="50" viewBox="0 0 50 50" fill="none" xmlns="http://www.w3.org/2000/svg">
<path d="M25.0052 4.16699C36.5115 4.16699 45.8386 13.4941 45.8386 25.0003C45.8386 36.5066 36.5115 45.8337 25.0052 45.8337C21.3235 45.8396 17.7066 44.8653 14.5261 43.0107L4.18024 45.8337L6.9969 35.4837C5.14085 32.3021 4.16575 28.6837 4.1719 25.0003C4.1719 13.4941 13.499 4.16699 25.0052 4.16699ZM17.9052 15.2087L17.4886 15.2253C17.2188 15.2418 16.9552 15.3126 16.7136 15.4337C16.4876 15.5616 16.2813 15.7216 16.1011 15.9087C15.8511 16.1441 15.7094 16.3482 15.5573 16.5462C14.7867 17.548 14.3718 18.7781 14.3782 20.042C14.3823 21.0628 14.649 22.0566 15.0657 22.9857C15.9177 24.8649 17.3198 26.8545 19.1698 28.6982C19.6157 29.142 20.0532 29.5878 20.524 30.0024C22.8227 32.0263 25.562 33.4858 28.524 34.2649L29.7073 34.4462C30.0927 34.467 30.4782 34.4378 30.8657 34.4191C31.4724 34.3878 32.0648 34.2235 32.6011 33.9378C32.8739 33.7973 33.1401 33.6444 33.399 33.4795C33.399 33.4795 33.4886 33.4212 33.6594 33.292C33.9407 33.0837 34.1136 32.9357 34.3469 32.692C34.5198 32.5128 34.6698 32.3024 34.7844 32.0628C34.9469 31.7232 35.1094 31.0753 35.1761 30.5357C35.2261 30.1232 35.2115 29.8982 35.2052 29.7587C35.1969 29.5357 35.0115 29.3045 34.8094 29.2066L33.5969 28.6628C33.5969 28.6628 31.7844 27.8732 30.6761 27.3691C30.5601 27.3184 30.4358 27.2895 30.3094 27.2837C30.1669 27.269 30.0228 27.2851 29.887 27.3307C29.7512 27.3763 29.6267 27.4505 29.5219 27.5482C29.5115 27.5441 29.3719 27.6628 27.8657 29.4878C27.7792 29.604 27.6601 29.6918 27.5236 29.74C27.387 29.7883 27.2392 29.7947 27.099 29.7587C26.9633 29.7223 26.8303 29.6763 26.7011 29.6212C26.4427 29.5128 26.3532 29.4712 26.1761 29.3962C24.9804 28.8744 23.8733 28.1694 22.8948 27.3066C22.6323 27.0774 22.3886 26.8274 22.1386 26.5857C21.319 25.8008 20.6047 24.9128 20.0136 23.9441L19.8907 23.7462C19.8024 23.6132 19.731 23.4697 19.6782 23.3191C19.599 23.0128 19.8052 22.767 19.8052 22.767C19.8052 22.767 20.3115 22.2128 20.5469 21.9128C20.7761 21.6212 20.9698 21.3378 21.0948 21.1357C21.3407 20.7399 21.4177 20.3337 21.2886 20.0191C20.7052 18.5941 20.1011 17.1753 19.4802 15.767C19.3573 15.4878 18.9927 15.2878 18.6615 15.2482C18.549 15.2357 18.4365 15.2232 18.324 15.2149C18.0442 15.201 17.7639 15.2038 17.4844 15.2232L17.9032 15.2066L17.9052 15.2087Z" fill="black"/>
</svg>
