<svg width="50" height="50" viewBox="0 0 50 50" fill="none" xmlns="http://www.w3.org/2000/svg">
<path fill-rule="evenodd" clip-rule="evenodd" d="M24.915 2C12.2594 2 2 12.2594 2 24.915C2 37.5706 12.2594 47.83 24.915 47.83C37.5706 47.83 47.83 37.5706 47.83 24.915C47.83 12.2594 37.5706 2 24.915 2ZM35.5243 29.5387C36.1424 28.1055 36.4603 26.5608 36.4584 25H13.5418C13.5399 26.5608 13.8578 28.1055 14.4759 29.5387C15.094 30.972 15.9991 32.2634 17.1355 33.3333C19.1876 35.2708 21.9563 36.4583 25.0001 36.4583C27.9251 36.4624 30.7402 35.3438 32.8647 33.3333C34.0011 32.2634 34.9062 30.972 35.5243 29.5387Z" fill="white"/>
</svg>
