<svg xmlns="http://www.w3.org/2000/svg" width="38" height="38" viewBox="0 0 38 38" fill="none">
  <path d="M23.9469 33.4104L10.6073 20.1104C10.449 19.9521 10.3366 19.7806 10.2701 19.5958C10.2036 19.4111 10.1708 19.2132 10.1719 19.0021C10.1719 18.791 10.2046 18.5931 10.2701 18.4083C10.3355 18.2236 10.4479 18.0521 10.6073 17.8938L23.9469 4.55417C24.3163 4.18472 24.7781 4 25.3323 4C25.8865 4 26.3615 4.19792 26.7573 4.59375C27.1531 4.98958 27.3511 5.45139 27.3511 5.97917C27.3511 6.50694 27.1531 6.96875 26.7573 7.36458L15.1198 19.0021L26.7573 30.6396C27.1268 31.009 27.3115 31.4645 27.3115 32.006C27.3115 32.5475 27.1136 33.0156 26.7177 33.4104C26.3219 33.8063 25.8601 34.0042 25.3323 34.0042C24.8045 34.0042 24.3427 33.8063 23.9469 33.4104Z" fill="black"/>
</svg>