<svg width="50" height="50" viewBox="0 0 50 50" fill="none" xmlns="http://www.w3.org/2000/svg">
<path d="M25.0013 41.668C34.168 41.668 41.668 34.168 41.668 25.0013C41.668 15.8346 34.168 8.33464 25.0013 8.33464C15.8346 8.33464 8.33464 15.8346 8.33464 25.0013C8.33464 34.168 15.8346 41.668 25.0013 41.668ZM25.0013 4.16797C36.4596 4.16797 45.8346 13.543 45.8346 25.0013C45.8346 36.4596 36.4596 45.8346 25.0013 45.8346C13.543 45.8346 4.16797 36.4596 4.16797 25.0013C4.16797 13.543 13.543 4.16797 25.0013 4.16797ZM35.418 28.9596L33.9596 31.668L22.918 25.6263V14.5846H26.043V23.7513L35.418 28.9596Z" fill="white"/>
</svg>
