<svg width="50" height="50" viewBox="0 0 50 50" fill="none" xmlns="http://www.w3.org/2000/svg">
<path d="M19.2708 45.8346L18.4375 39.168C17.9861 38.9944 17.5604 38.786 17.1604 38.543C16.7604 38.2999 16.3701 38.0395 15.9896 37.7617L9.79167 40.3659L4.0625 30.4701L9.42708 26.4076C9.39236 26.1645 9.375 25.9298 9.375 25.7034V24.2992C9.375 24.0728 9.39236 23.8381 9.42708 23.5951L4.0625 19.5326L9.79167 9.63672L15.9896 12.2409C16.3715 11.9631 16.7708 11.7027 17.1875 11.4596C17.6042 11.2166 18.0208 11.0082 18.4375 10.8346L19.2708 4.16797H30.7292L31.5625 10.8346C32.0139 11.0082 32.4396 11.2166 32.8396 11.4596C33.2396 11.7027 33.6299 11.9631 34.0104 12.2409L40.2083 9.63672L45.9375 19.5326L40.5729 23.5951C40.6076 23.8381 40.625 24.0728 40.625 24.2992V25.7034C40.625 25.9298 40.5903 26.1645 40.5208 26.4076L45.8854 30.4701L40.1562 40.3659L34.0104 37.7617C33.6285 38.0395 33.2292 38.2999 32.8125 38.543C32.3958 38.786 31.9792 38.9944 31.5625 39.168L30.7292 45.8346H19.2708ZM25.1042 32.293C27.1181 32.293 28.8368 31.5812 30.2604 30.1576C31.684 28.7339 32.3958 27.0152 32.3958 25.0013C32.3958 22.9874 31.684 21.2687 30.2604 19.8451C28.8368 18.4214 27.1181 17.7096 25.1042 17.7096C23.0556 17.7096 21.3278 18.4214 19.9208 19.8451C18.5139 21.2687 17.8111 22.9874 17.8125 25.0013C17.8125 27.0152 18.5153 28.7339 19.9208 30.1576C21.3264 31.5812 23.0542 32.293 25.1042 32.293ZM25.1042 28.1263C24.2361 28.1263 23.4979 27.8221 22.8896 27.2138C22.2813 26.6055 21.9778 25.868 21.9792 25.0013C21.9792 24.1332 22.2833 23.3951 22.8917 22.7867C23.5 22.1784 24.2375 21.8749 25.1042 21.8763C25.9722 21.8763 26.7104 22.1805 27.3187 22.7888C27.9271 23.3971 28.2306 24.1346 28.2292 25.0013C28.2292 25.8694 27.925 26.6076 27.3167 27.2159C26.7083 27.8242 25.9708 28.1277 25.1042 28.1263ZM22.9167 41.668H27.0313L27.7604 36.1471C28.8368 35.8694 29.8354 35.461 30.7562 34.9221C31.6771 34.3832 32.5188 33.7326 33.2813 32.9701L38.4375 35.1055L40.4687 31.5638L35.9896 28.1784C36.1632 27.6923 36.2847 27.1805 36.3542 26.643C36.4236 26.1055 36.4583 25.5582 36.4583 25.0013C36.4583 24.4457 36.4236 23.8992 36.3542 23.3617C36.2847 22.8242 36.1632 22.3117 35.9896 21.8242L40.4687 18.4388L38.4375 14.8971L33.2813 17.0846C32.5174 16.286 31.6757 15.618 30.7562 15.0805C29.8368 14.543 28.8382 14.1346 27.7604 13.8555L27.0833 8.33464H22.9687L22.2396 13.8555C21.1632 14.1332 20.1653 14.5416 19.2458 15.0805C18.3264 15.6194 17.484 16.2701 16.7187 17.0326L11.5625 14.8971L9.53125 18.4388L14.0104 21.7721C13.8368 22.293 13.7153 22.8138 13.6458 23.3346C13.5764 23.8555 13.5417 24.411 13.5417 25.0013C13.5417 25.5569 13.5764 26.0951 13.6458 26.6159C13.7153 27.1367 13.8368 27.6576 14.0104 28.1784L9.53125 31.5638L11.5625 35.1055L16.7187 32.918C17.4826 33.7166 18.325 34.3853 19.2458 34.9242C20.1667 35.4631 21.1646 35.8707 22.2396 36.1471L22.9167 41.668Z" fill="white"/>
</svg>
