<svg xmlns="http://www.w3.org/2000/svg" width="45" height="45" viewBox="0 0 45 45" fill="none">
  <path d="M43.7767 1.00774C44.0693 1.30071 44.2336 1.69784 44.2336 2.11191C44.2336 2.52597 44.0693 2.9231 43.7767 3.21607L29.3433 17.6515C31.1125 19.9575 31.9832 22.828 31.7931 25.7282C31.6029 28.6285 30.3651 31.3608 28.31 33.4161L26.5767 35.1494L20.7704 43.8577C20.6423 44.0501 20.4731 44.2116 20.275 44.3306C20.077 44.4497 19.855 44.5233 19.625 44.5462C19.395 44.5691 19.1629 44.5408 18.9452 44.4631C18.7275 44.3855 18.5298 44.2606 18.3662 44.0973L0.687076 26.4182C0.523823 26.2546 0.398882 26.0569 0.321257 25.8392C0.243632 25.6215 0.215254 25.3894 0.23817 25.1594C0.261086 24.9294 0.334724 24.7074 0.453778 24.5094C0.572832 24.3113 0.734338 24.1421 0.92666 24.014L9.63499 18.2077L11.3683 16.4744C13.4236 14.4193 16.1559 13.1814 19.0562 12.9913C21.9564 12.8012 24.8269 13.6719 27.1329 15.4411L41.5683 1.00774C41.8613 0.715134 42.2584 0.550781 42.6725 0.550781C43.0866 0.550781 43.4837 0.715134 43.7767 1.00774ZM12.8412 19.4223L25.3621 31.9432L26.0996 31.2077C27.7281 29.5408 28.6338 27.299 28.6203 24.9687C28.6067 22.6383 27.6749 20.4072 26.0271 18.7594C24.3792 17.1115 22.1482 16.1798 19.8178 16.1662C17.4874 16.1527 15.2457 17.0584 13.5787 18.6869L12.8412 19.4223ZM10.4329 21.4327L4.24541 25.5577L19.2267 40.539L23.3517 34.3515L10.4329 21.4327Z" fill="white"/>
</svg>