<svg xmlns="http://www.w3.org/2000/svg" width="50" height="50" viewBox="0 0 50 50" fill="none">
  <path d="M39.6862 10.2267C37.7762 8.29736 35.5012 6.76766 32.9938 5.72679C30.4864 4.68592 27.7969 4.15473 25.082 4.16419C13.707 4.16419 4.4362 13.435 4.4362 24.81C4.4362 28.4559 5.39453 31.9975 7.1862 35.1225L4.26953 45.8309L15.207 42.9559C18.2279 44.6017 21.6237 45.4767 25.082 45.4767C36.457 45.4767 45.7279 36.2059 45.7279 24.8309C45.7279 19.31 43.582 14.1225 39.6862 10.2267ZM25.082 41.9767C21.9987 41.9767 18.9779 41.1434 16.332 39.5809L15.707 39.2058L9.20703 40.9142L10.9362 34.5809L10.5195 33.935C8.8065 31.1995 7.89691 28.0376 7.89453 24.81C7.89453 15.3517 15.6029 7.64335 25.0612 7.64335C29.6445 7.64335 33.957 9.43502 37.1862 12.685C38.7851 14.2766 40.0522 16.1697 40.9141 18.2547C41.776 20.3396 42.2154 22.5748 42.207 24.8309C42.2487 34.2892 34.5404 41.9767 25.082 41.9767ZM34.4987 29.1434C33.9779 28.8934 31.4362 27.6434 30.9779 27.4559C30.4987 27.2892 30.1654 27.2059 29.8112 27.7059C29.457 28.2267 28.4779 29.3934 28.1862 29.7267C27.8945 30.0809 27.582 30.1225 27.0612 29.8517C26.5404 29.6017 24.8737 29.0392 22.9154 27.2892C21.3737 25.9142 20.3529 24.2267 20.0404 23.7059C19.7487 23.185 19.9987 22.9142 20.2695 22.6434C20.4987 22.4142 20.7904 22.0392 21.0404 21.7475C21.2904 21.4559 21.3945 21.2267 21.5612 20.8934C21.7279 20.5392 21.6445 20.2475 21.5195 19.9975C21.3945 19.7475 20.3529 17.2059 19.9362 16.1642C19.5195 15.1642 19.082 15.2892 18.7695 15.2684H17.7695C17.4154 15.2684 16.8737 15.3934 16.3945 15.9142C15.9362 16.435 14.6029 17.685 14.6029 20.2267C14.6029 22.7684 16.457 25.2267 16.707 25.56C16.957 25.9142 20.3529 31.1225 25.5195 33.3517C26.7487 33.8934 27.707 34.2059 28.457 34.435C29.6862 34.8309 30.8112 34.7683 31.707 34.6433C32.707 34.4975 34.7695 33.3934 35.1862 32.185C35.6237 30.9767 35.6237 29.9559 35.4779 29.7267C35.332 29.4975 35.0195 29.3934 34.4987 29.1434Z" fill="white"/>
</svg>