<svg xmlns="http://www.w3.org/2000/svg" width="50" height="50" viewBox="0 0 50 50" fill="none">
  <path d="M16.5934 12.9182C16.2062 12.8619 15.8114 12.9398 15.4747 13.1391H15.4455C14.6643 13.5974 13.9601 14.1745 13.3601 14.8536C12.8601 15.4307 12.5893 16.0141 12.5184 16.5766C12.4768 16.9099 12.5059 17.2474 12.6039 17.5661L12.6414 17.587C13.2039 19.2391 13.9372 20.8286 14.833 22.3245C15.9881 24.4255 17.4096 26.3686 19.0622 28.1057L19.1122 28.1766L19.1914 28.2349L19.2393 28.2911L19.2976 28.3411C21.0408 29.9987 22.9885 31.4269 25.0934 32.5911C27.4997 33.9016 28.9601 34.5203 29.8372 34.7786V34.7911C30.0934 34.8703 30.3268 34.9057 30.5622 34.9057C31.3092 34.8505 32.0162 34.5469 32.5705 34.0432C33.2476 33.4432 33.8205 32.737 34.2664 31.9516V31.937C34.6851 31.1453 34.5434 30.3995 33.9393 29.8932C32.7257 28.8329 31.4135 27.8911 30.0205 27.0807C29.0872 26.5745 28.1393 26.8807 27.7559 27.3932L26.9372 28.4266C26.5164 28.9391 25.7539 28.8682 25.7539 28.8682L25.733 28.8807C20.0434 27.4286 18.5247 21.6682 18.5247 21.6682C18.5247 21.6682 18.4539 20.8849 18.9809 20.4849L20.0059 19.6599C20.4976 19.2599 20.8393 18.3141 20.3122 17.3807C19.5072 15.9865 18.5673 14.6746 17.5059 13.4641C17.2745 13.1792 16.9498 12.9851 16.5893 12.9161L16.5934 12.9182ZM26.208 10.4141C25.9318 10.4141 25.6668 10.5238 25.4714 10.7192C25.2761 10.9145 25.1664 11.1795 25.1664 11.4557C25.1664 11.732 25.2761 11.9969 25.4714 12.1923C25.6668 12.3876 25.9318 12.4974 26.208 12.4974C28.8414 12.4974 31.0289 13.3578 32.7601 15.0078C33.6497 15.9099 34.3434 16.9786 34.7976 18.1495C35.2539 19.3224 35.4622 20.5745 35.408 21.8286C35.3964 22.1049 35.495 22.3745 35.6822 22.578C35.8693 22.7816 36.1297 22.9025 36.4059 22.9141C36.6822 22.9257 36.9518 22.827 37.1553 22.6399C37.3589 22.4528 37.4797 22.1924 37.4914 21.9161C37.556 20.3734 37.2999 18.834 36.7393 17.3953C36.1762 15.9498 35.3225 14.6351 34.2309 13.5328L34.2101 13.512C32.0622 11.4599 29.3455 10.4141 26.208 10.4141Z" fill="white"/>
  <path d="M26.1354 13.838C25.8591 13.838 25.5942 13.9478 25.3988 14.1431C25.2035 14.3385 25.0938 14.6034 25.0938 14.8797C25.0938 15.156 25.2035 15.4209 25.3988 15.6163C25.5942 15.8116 25.8591 15.9214 26.1354 15.9214H26.1708C28.0708 16.0568 29.4542 16.6901 30.4229 17.7297C31.4167 18.8005 31.9312 20.1318 31.8917 21.7776C31.8853 22.0539 31.989 22.3213 32.1798 22.5212C32.3707 22.721 32.6331 22.8369 32.9094 22.8432C33.1856 22.8496 33.4531 22.7459 33.653 22.5551C33.8528 22.3642 33.9686 22.1018 33.975 21.8255C34.025 19.6651 33.3292 17.8005 31.95 16.313V16.3089C30.5396 14.7964 28.6042 13.9964 26.275 13.8401L26.2396 13.8359L26.1354 13.838Z" fill="white"/>
  <path d="M26.0942 17.3322C25.9548 17.3199 25.8143 17.3358 25.6812 17.379C25.5481 17.4221 25.425 17.4917 25.3194 17.5835C25.2137 17.6753 25.1277 17.7874 25.0663 17.9132C25.005 18.039 24.9696 18.1758 24.9623 18.3156C24.9551 18.4553 24.976 18.5951 25.024 18.7266C25.0719 18.8581 25.1458 18.9786 25.2414 19.0808C25.3369 19.1831 25.452 19.2651 25.58 19.3219C25.7079 19.3786 25.8459 19.4091 25.9858 19.4113C26.8567 19.4572 27.4129 19.7197 27.7629 20.0717C28.115 20.4259 28.3775 20.9947 28.4254 21.8842C28.428 22.024 28.4587 22.1619 28.5157 22.2895C28.5727 22.4172 28.6548 22.5321 28.7572 22.6273C28.8595 22.7226 28.98 22.7963 29.1114 22.844C29.2428 22.8917 29.3825 22.9125 29.5221 22.9051C29.6618 22.8977 29.7985 22.8622 29.9241 22.8008C30.0497 22.7395 30.1617 22.6535 30.2534 22.5479C30.3451 22.4423 30.4145 22.3194 30.4577 22.1864C30.5009 22.0534 30.5168 21.9131 30.5046 21.7738C30.4379 20.5238 30.0462 19.4197 29.2442 18.6072C28.4379 17.7947 27.34 17.3988 26.0942 17.3322Z" fill="white"/>
  <path fill-rule="evenodd" clip-rule="evenodd" d="M14.7225 4.96296C21.3518 3.4811 28.2265 3.4811 34.8559 4.96296L35.5621 5.11921C37.5 5.55244 39.2799 6.51448 40.7039 7.89843C42.1279 9.28237 43.1404 11.034 43.6288 12.9588C45.3115 19.5898 45.3115 26.5361 43.6288 33.1671C43.1404 35.0919 42.1279 36.8436 40.7039 38.2275C39.2799 39.6114 37.5 40.5735 35.5621 41.0067L34.8538 41.163C30.7017 42.0915 26.4412 42.4413 22.1934 42.2025L16.6663 47.1484C16.4579 47.3349 16.2033 47.4622 15.929 47.5167C15.6546 47.5713 15.3707 47.5513 15.1068 47.4587C14.8429 47.3661 14.6086 47.2044 14.4285 46.9904C14.2484 46.7764 14.1291 46.518 14.0829 46.2421L13.1684 40.7796C11.4146 40.2339 9.83004 39.2476 8.56621 37.9148C7.30237 36.582 6.40147 34.9474 5.9496 33.1671C4.2668 26.5361 4.2668 19.5898 5.9496 12.9588C6.43798 11.034 7.45043 9.28237 8.87447 7.89843C10.2985 6.51448 12.0784 5.55244 14.0163 5.11921L14.7225 4.96296ZM34.1746 8.01088C27.9939 6.62923 21.5844 6.62923 15.4038 8.01088L14.6954 8.16921C13.3219 8.47683 12.0606 9.15912 11.0514 10.1403C10.0423 11.1215 9.32483 12.3632 8.97877 13.7275C7.42401 19.8541 7.42401 26.2719 8.97877 32.3984C9.325 33.763 10.0428 35.0049 11.0523 35.9861C12.0618 36.9673 13.3236 37.6494 14.6975 37.9567L14.885 37.9984C15.1883 38.0662 15.4645 38.223 15.6783 38.4486C15.8921 38.6742 16.0337 38.9585 16.085 39.265L16.6975 42.9275L20.5975 39.438C20.7533 39.2982 20.9355 39.1911 21.1334 39.1231C21.3313 39.0551 21.5408 39.0276 21.7496 39.0421C25.9143 39.3376 30.0999 39.0253 34.1746 38.115L34.8809 37.9567C36.2547 37.6494 37.5165 36.9673 38.5261 35.9861C39.5356 35.0049 40.2534 33.763 40.5996 32.3984C42.1538 26.2734 42.1538 19.8546 40.5996 13.7275C40.2534 12.363 39.5356 11.1211 38.5261 10.1398C37.5165 9.15863 36.2547 8.47649 34.8809 8.16921L34.1746 8.01088Z" fill="white"/>
</svg>