<svg width="100" height="100" viewBox="0 0 100 100" fill="none" xmlns="http://www.w3.org/2000/svg">
<rect x="1.5" y="1.5" width="97" height="97" rx="28.5" fill="#A083F6" stroke="#E3E3E3" stroke-width="3"/>
<path d="M46.875 60.9375H59.375V64.0625H46.875V60.9375ZM40.625 60.9375H43.75V64.0625H40.625V60.9375ZM46.875 53.125H59.375V56.25H46.875V53.125ZM40.625 53.125H43.75V56.25H40.625V53.125ZM46.875 45.3125H59.375V48.4375H46.875V45.3125ZM40.625 45.3125H43.75V48.4375H40.625V45.3125Z" fill="white"/>
<path d="M64.0625 32.8125H59.375V31.25C59.375 30.4212 59.0458 29.6263 58.4597 29.0403C57.8737 28.4542 57.0788 28.125 56.25 28.125H43.75C42.9212 28.125 42.1263 28.4542 41.5403 29.0403C40.9542 29.6263 40.625 30.4212 40.625 31.25V32.8125H35.9375C35.1087 32.8125 34.3138 33.1417 33.7278 33.7278C33.1417 34.3138 32.8125 35.1087 32.8125 35.9375V68.75C32.8125 69.5788 33.1417 70.3737 33.7278 70.9597C34.3138 71.5458 35.1087 71.875 35.9375 71.875H64.0625C64.8913 71.875 65.6862 71.5458 66.2722 70.9597C66.8583 70.3737 67.1875 69.5788 67.1875 68.75V35.9375C67.1875 35.1087 66.8583 34.3138 66.2722 33.7278C65.6862 33.1417 64.8913 32.8125 64.0625 32.8125ZM43.75 31.25H56.25V37.5H43.75V31.25ZM64.0625 68.75H35.9375V35.9375H40.625V40.625H59.375V35.9375H64.0625V68.75Z" fill="white"/>
</svg>
