<svg width="100" height="100" viewBox="0 0 100 100" fill="none" xmlns="http://www.w3.org/2000/svg">
<rect x="1.5" y="1.5" width="97" height="97" rx="28.5" fill="url(#paint0_linear_351_446)" stroke="#BFBFBF" stroke-width="3"/>
<path d="M71.7767 29.0077C72.0693 29.3007 72.2336 29.6978 72.2336 30.1119C72.2336 30.526 72.0693 30.9231 71.7767 31.2161L57.3433 45.6515C59.1125 47.9575 59.9832 50.828 59.7931 53.7282C59.6029 56.6285 58.3651 59.3608 56.31 61.4161L54.5767 63.1494L48.7704 71.8577C48.6423 72.0501 48.4731 72.2116 48.275 72.3306C48.077 72.4497 47.855 72.5233 47.625 72.5462C47.395 72.5691 47.1629 72.5408 46.9452 72.4631C46.7275 72.3855 46.5298 72.2606 46.3662 72.0973L28.6871 54.4182C28.5238 54.2546 28.3989 54.0569 28.3213 53.8392C28.2436 53.6215 28.2153 53.3894 28.2382 53.1594C28.2611 52.9294 28.3347 52.7074 28.4538 52.5094C28.5728 52.3113 28.7343 52.1421 28.9267 52.014L37.635 46.2077L39.3683 44.4744C41.4236 42.4193 44.1559 41.1814 47.0562 40.9913C49.9564 40.8012 52.8269 41.6719 55.1329 43.4411L69.5683 29.0077C69.8613 28.7151 70.2584 28.5508 70.6725 28.5508C71.0866 28.5508 71.4837 28.7151 71.7767 29.0077ZM40.8412 47.4223L53.3621 59.9432L54.0996 59.2077C55.7281 57.5408 56.6338 55.299 56.6203 52.9687C56.6067 50.6383 55.6749 48.4072 54.0271 46.7594C52.3792 45.1115 50.1482 44.1798 47.8178 44.1662C45.4874 44.1527 43.2457 45.0584 41.5787 46.6869L40.8412 47.4223ZM38.4329 49.4327L32.2454 53.5577L47.2267 68.539L51.3517 62.3515L38.4329 49.4327Z" fill="white"/>
<defs>
<linearGradient id="paint0_linear_351_446" x1="100.116" y1="49.8842" x2="0" y2="49.8842" gradientUnits="userSpaceOnUse">
<stop stop-color="#FFBA05"/>
<stop offset="1" stop-color="#FAD67E"/>
</linearGradient>
</defs>
</svg>
