<svg width="50" height="50" viewBox="0 0 50 50" fill="none" xmlns="http://www.w3.org/2000/svg">
<path d="M29.6875 43.75H20.3125C19.484 43.7492 18.6896 43.4197 18.1037 42.8338C17.5178 42.2479 17.1883 41.4535 17.1875 40.625V32.8125H9.375C8.54645 32.8117 7.75208 32.4822 7.16621 31.8963C6.58033 31.3104 6.25083 30.516 6.25 29.6875V20.3125C6.25083 19.484 6.58033 18.6896 7.16621 18.1037C7.75208 17.5178 8.54645 17.1883 9.375 17.1875H17.1875V9.375C17.1883 8.54645 17.5178 7.75208 18.1037 7.16621C18.6896 6.58033 19.484 6.25083 20.3125 6.25H29.6875C30.516 6.25083 31.3104 6.58033 31.8963 7.16621C32.4822 7.75208 32.8117 8.54645 32.8125 9.375V17.1875H40.625C41.4535 17.1883 42.2479 17.5178 42.8338 18.1037C43.4197 18.6896 43.7492 19.484 43.75 20.3125V29.6875C43.7488 30.5159 43.4191 31.3101 42.8333 31.8958C42.2476 32.4816 41.4534 32.8113 40.625 32.8125H32.8125V40.625C32.8113 41.4534 32.4816 42.2476 31.8958 42.8333C31.3101 43.4191 30.5159 43.7488 29.6875 43.75ZM9.375 20.3125V29.6875H20.3125V40.625H29.6875V29.6875H40.625V20.3125H29.6875V9.375H20.3125V20.3125H9.375Z" fill="white"/>
</svg>
