<svg xmlns="http://www.w3.org/2000/svg" width="50" height="50" viewBox="0 0 50 50" fill="none">
  <g clip-path="url(#clip0_351_2023)">
    <path d="M23.5375 4.5728C24.3596 4.2652 25.2579 4.2251 26.1042 4.45822L26.4625 4.5728L41.0458 10.0416C41.7853 10.3188 42.4307 10.8005 42.9069 11.4305C43.383 12.0605 43.6704 12.8129 43.7354 13.5999L43.75 13.9436V25.1166C43.7499 28.4924 42.8384 31.8057 41.1117 34.7065C39.3849 37.6074 36.9071 39.9883 33.9396 41.5978L33.3854 41.8874L26.3979 45.3811C26.0132 45.5732 25.5929 45.6839 25.1635 45.7061C24.734 45.7283 24.3046 45.6617 23.9021 45.5103L23.6021 45.3811L16.6146 41.8874C13.595 40.3776 11.0391 38.0805 9.21668 35.2387C7.39423 32.3968 6.37288 29.1157 6.26042 25.7416L6.25 25.1166V13.9436C6.25001 13.1543 6.47422 12.3812 6.89653 11.7144C7.31884 11.0476 7.92186 10.5144 8.63542 10.177L8.95417 10.0416L23.5375 4.5728ZM25 8.47488L10.4167 13.9436V25.1166C10.4167 27.7312 11.1197 30.2977 12.452 32.5473C13.7843 34.797 15.6969 36.6472 17.9896 37.9041L18.4792 38.1603L25 41.4207L31.5208 38.1603C33.8599 36.991 35.8414 35.2143 37.2581 33.0163C38.6747 30.8182 39.4742 28.2797 39.5729 25.6666L39.5833 25.1166V13.9436L25 8.47488ZM32.1521 17.977C32.527 17.6033 33.0301 17.3864 33.5591 17.3702C34.0882 17.3541 34.6036 17.5399 35.0006 17.89C35.3976 18.2401 35.6465 18.7281 35.6967 19.255C35.7469 19.782 35.5946 20.3082 35.2708 20.727L35.0979 20.9228L24.1937 31.8291C23.7966 32.2262 23.2673 32.4636 22.7066 32.4963C22.1459 32.5289 21.5927 32.3545 21.1521 32.0061L20.9521 31.8291L15.9437 26.8207C15.5661 26.4467 15.3458 25.9424 15.3277 25.4112C15.3097 24.88 15.4954 24.362 15.8468 23.9633C16.1982 23.5645 16.6887 23.3151 17.218 23.2661C17.7472 23.2172 18.2752 23.3723 18.6937 23.6999L18.8896 23.8728L22.5729 27.5561L32.1521 17.977Z" fill="white"/>
  </g>
  <defs>
    <clipPath id="clip0_351_2023">
      <rect width="50" height="50" fill="white"/>
    </clipPath>
  </defs>
</svg>