<svg width="50" height="50" viewBox="0 0 50 50" fill="none" xmlns="http://www.w3.org/2000/svg">
<path d="M27.082 44.9367C23.5802 45.3702 20.0304 44.6996 16.9281 43.0184C13.8258 41.3371 11.3259 38.7292 9.77735 35.5586C8.22876 32.388 7.7088 28.813 8.29004 25.3327C8.87128 21.8523 10.5247 18.6403 13.0195 16.145L24.1154 5.04916C24.3497 4.81508 24.6674 4.68359 24.9987 4.68359C25.3299 4.68359 25.6477 4.81508 25.882 5.04916L36.9779 16.145C39.1846 18.3503 40.7395 21.1222 41.471 24.155C42.2026 27.1878 42.0824 30.3637 41.1237 33.3325M33.332 41.6658L37.4987 45.8325L45.832 37.4992" stroke="white" stroke-width="4" stroke-linecap="round" stroke-linejoin="round"/>
</svg>
