<svg width="50" height="50" viewBox="0 0 50 50" fill="none" xmlns="http://www.w3.org/2000/svg">
<path d="M46.0085 5.41067C45.8201 5.24792 45.5908 5.1397 45.3454 5.09771C45.1 5.05572 44.8478 5.08154 44.6159 5.17239L5.0339 20.6626C4.55246 20.851 4.14513 21.1905 3.87309 21.6301C3.60104 22.0697 3.47897 22.5858 3.5252 23.1007C3.57143 23.6156 3.78347 24.1016 4.12947 24.4857C4.47547 24.8699 4.93676 25.1314 5.44406 25.231L16.0144 27.3072V39.063C16.0146 39.608 16.1777 40.1405 16.4827 40.5922C16.7877 41.0438 17.2207 41.3941 17.7261 41.5979C18.2316 41.8017 18.7864 41.8498 19.3194 41.7361C19.8524 41.6223 20.3393 41.3519 20.7175 40.9595L25.9206 35.563L34.0417 42.6822C34.5375 43.1209 35.1766 43.3633 35.8386 43.3638C36.1277 43.3631 36.415 43.3177 36.6902 43.229C37.1413 43.0863 37.5472 42.8277 37.8672 42.4792C38.1873 42.1307 38.4104 41.7044 38.5144 41.2427L46.448 6.75247C46.5037 6.51 46.4923 6.2569 46.4149 6.02045C46.3374 5.784 46.1969 5.57317 46.0085 5.41067ZM5.86789 22.9243C5.86041 22.9042 5.86041 22.882 5.86789 22.8618C5.87671 22.855 5.88661 22.8498 5.89718 22.8462L37.0905 10.6353L16.9148 25.0884L5.89718 22.9322L5.86789 22.9243ZM19.03 39.3306C18.9762 39.3865 18.9069 39.425 18.8311 39.4414C18.7553 39.4577 18.6763 39.4511 18.6042 39.4224C18.5321 39.3937 18.4702 39.3442 18.4264 39.2802C18.3826 39.2162 18.3588 39.1406 18.3581 39.063V28.9283L24.1569 34.0064L19.03 39.3306ZM36.2312 40.7134C36.2168 40.7794 36.1849 40.8404 36.1388 40.8899C36.0928 40.9394 36.0343 40.9755 35.9695 40.9947C35.9033 41.0179 35.8322 41.0229 35.7634 41.0091C35.6947 40.9954 35.6309 40.9634 35.5788 40.9165L19.0691 26.4341L43.5534 8.88723L36.2312 40.7134Z" fill="white"/>
</svg>
