<svg width="38" height="42" viewBox="0 0 38 42" fill="none" xmlns="http://www.w3.org/2000/svg">
<path d="M17.5375 0.572801C18.3596 0.265201 19.2579 0.2251 20.1042 0.458218L20.4625 0.572801L35.0458 6.04155C35.7853 6.31882 36.4307 6.80052 36.9069 7.43051C37.383 8.06051 37.6704 8.81285 37.7354 9.59988L37.75 9.94363V21.1166C37.7499 24.4924 36.8384 27.8057 35.1117 30.7065C33.3849 33.6074 30.9071 35.9883 27.9396 37.5978L27.3854 37.8874L20.3979 41.3811C20.0132 41.5732 19.5929 41.6839 19.1635 41.7061C18.734 41.7283 18.3046 41.6617 17.9021 41.5103L17.6021 41.3811L10.6146 37.8874C7.59502 36.3776 5.03912 34.0805 3.21668 31.2387C1.39423 28.3968 0.372876 25.1157 0.260417 21.7416L0.25 21.1166V9.94363C0.250012 9.15432 0.474222 8.38125 0.896529 7.71441C1.31884 7.04757 1.92186 6.5144 2.63542 6.17697L2.95417 6.04155L17.5375 0.572801ZM19 4.47488L4.41667 9.94363V21.1166C4.41672 23.7312 5.11969 26.2977 6.45199 28.5473C7.78429 30.797 9.6969 32.6472 11.9896 33.9041L12.4792 34.1603L19 37.4207L25.5208 34.1603C27.8599 32.991 29.8414 31.2143 31.2581 29.0163C32.6747 26.8182 33.4742 24.2797 33.5729 21.6666L33.5833 21.1166V9.94363L19 4.47488ZM26.1521 13.977C26.527 13.6033 27.0301 13.3864 27.5591 13.3702C28.0882 13.3541 28.6036 13.5399 29.0006 13.89C29.3976 14.2401 29.6465 14.7281 29.6967 15.255C29.7469 15.782 29.5946 16.3082 29.2708 16.727L29.0979 16.9228L18.1937 27.8291C17.7966 28.2262 17.2673 28.4636 16.7066 28.4963C16.1459 28.5289 15.5927 28.3545 15.1521 28.0061L14.9521 27.8291L9.94375 22.8207C9.56614 22.4467 9.34577 21.9424 9.32774 21.4112C9.30972 20.88 9.49541 20.362 9.8468 19.9633C10.1982 19.5645 10.6887 19.3151 11.218 19.2661C11.7472 19.2172 12.2752 19.3723 12.6937 19.6999L12.8896 19.8728L16.5729 23.5561L26.1521 13.977Z" fill="white"/>
</svg>
