<svg width="371" height="177" viewBox="0 0 371 177" fill="none" xmlns="http://www.w3.org/2000/svg">
<path fill-rule="evenodd" clip-rule="evenodd" d="M307.844 74.9201C276.791 86.7127 234.395 96.5405 187.078 101.765C139.76 106.989 96.2405 106.647 63.3631 101.913C94.4157 90.1201 136.812 80.2923 184.129 75.0681C231.447 69.8438 274.966 70.1858 307.844 74.9201ZM313.403 72.7389C328.718 66.5276 340.742 59.8978 348.741 53.2629C348.968 53.0751 349.191 52.8877 349.41 52.7007C349.155 52.5659 348.896 52.4315 348.634 52.2974C339.208 47.4798 325.709 43.5782 308.988 40.8497C275.589 35.3998 230.036 34.7391 180.283 40.2322C130.531 45.7253 86.2187 56.308 54.8136 68.9128C39.0908 75.2234 26.7675 81.976 18.6199 88.7339C18.3935 88.9217 18.1707 89.1091 17.9517 89.2961C18.2065 89.4309 18.465 89.5654 18.7272 89.6994C27.9811 94.4292 41.1617 98.2761 57.4621 100.997C89.1895 88.2503 133.815 77.605 183.8 72.0862C233.786 66.5674 279.659 67.221 313.403 72.7389ZM57.804 104.094C91.5481 109.612 137.421 110.265 187.407 104.747C237.392 99.2277 282.017 88.5824 313.745 75.8361C329.763 78.5096 342.769 82.2708 351.996 86.8888C343.848 93.5315 331.677 100.162 316.221 106.365C284.816 118.97 240.504 129.553 190.752 135.046C140.999 140.539 95.4456 139.878 62.0471 134.428C45.6102 131.746 32.286 127.93 22.8847 123.225C30.8822 116.706 42.7543 110.198 57.804 104.094ZM20.0274 121.699C27.578 115.301 38.5743 109.018 52.3118 103.133C36.9597 100.263 24.4345 96.3154 15.5911 91.43C9.54956 97.2364 7.12129 102.588 7.63919 107.278C8.18457 112.218 12.078 117.159 20.0274 121.699ZM17.6768 123.8C9.90015 119.165 5.33327 113.73 4.65731 107.608C4.01348 101.776 6.95061 95.7837 12.9152 89.8521C5.8007 85.3648 1.62728 80.1575 0.983475 74.3264C-2.08908 46.4974 76.394 14.9974 176.28 3.96905C276.167 -7.05929 359.631 6.56029 362.704 34.3892C363.348 40.2206 360.411 46.2131 354.446 52.1447C361.561 56.6321 365.734 61.8393 366.378 67.6705C367.054 73.7929 363.782 80.093 357.204 86.3138C364.981 90.9495 369.548 96.3841 370.223 102.506C373.296 130.335 294.813 161.835 194.927 172.864C95.0403 183.892 11.5756 170.272 8.50301 142.444C7.82704 136.321 11.0985 130.021 17.6768 123.8ZM20.4291 125.338C49.5794 140.628 115.647 146.356 191.081 138.028C266.514 129.699 329.74 109.696 354.853 88.4148C362.803 92.9545 366.696 97.896 367.242 102.836C367.839 108.244 364.519 114.53 356.261 121.38C348.113 128.138 335.79 134.891 320.067 141.201C288.662 153.806 244.35 164.389 194.597 169.882C144.845 175.375 99.2913 174.714 65.8928 169.264C49.172 166.536 35.6724 162.634 26.2468 157.817C16.6929 152.933 12.082 147.523 11.4849 142.114C10.9395 137.175 13.6612 131.503 20.4291 125.338ZM354.452 84.7761C361.22 78.6114 363.941 72.9394 363.396 67.9997C362.878 63.3091 359.341 58.6167 352.179 54.2683C344.614 60.9652 333.252 67.55 318.895 73.7C333.585 76.4463 345.687 80.179 354.452 84.7761ZM179.954 37.2503C103.5 45.6916 39.5843 66.1264 15.1824 87.7286C8.02019 83.3801 4.48324 78.6878 3.96535 73.9971C3.36822 68.5887 6.68766 62.3024 14.9461 55.4526C23.0937 48.6948 35.417 41.9421 51.1398 35.6316C82.5449 23.0268 126.857 12.444 176.61 6.95093C226.362 1.45785 271.916 2.11861 305.314 7.5685C322.035 10.297 335.535 14.1986 344.96 19.0162C354.514 23.8993 359.125 29.31 359.722 34.7185C360.24 39.4093 357.812 44.7604 351.77 50.5668C323.244 34.8081 256.41 28.8089 179.954 37.2503Z" fill="black" fill-opacity="0.2"/>
</svg>
