<svg width="15" height="14" viewBox="0 0 15 14" fill="none" xmlns="http://www.w3.org/2000/svg">
<circle cx="7.22401" cy="6.98964" r="6.66043" fill="#FFEEEE" stroke="#B8B8B8" stroke-width="0.283422"/>
<path d="M5.60073 7.5973L5.39779 8.35493L4.65602 8.37062C4.43433 7.95945 4.30859 7.48902 4.30859 6.98911C4.30859 6.5057 4.42616 6.04984 4.63455 5.64844H4.63471L5.29509 5.76951L5.58438 6.42593C5.52383 6.60245 5.49083 6.79194 5.49083 6.98911C5.49086 7.20311 5.52962 7.40814 5.60073 7.5973Z" fill="#FBBB00"/>
<path d="M10.0873 6.44531C10.1208 6.62166 10.1382 6.80378 10.1382 6.98991C10.1382 7.19862 10.1163 7.40221 10.0745 7.59858C9.93256 8.26684 9.56175 8.85036 9.04807 9.26329L9.04791 9.26313L8.21613 9.22069L8.0984 8.4858C8.43925 8.2859 8.70563 7.97307 8.84595 7.59858H7.28711V6.44531H8.86869H10.0873Z" fill="#518EF8"/>
<path d="M9.04891 9.26268L9.04907 9.26284C8.54949 9.6644 7.91487 9.90466 7.22403 9.90466C6.11385 9.90466 5.14863 9.28415 4.65625 8.37098L5.60097 7.59766C5.84716 8.25469 6.48097 8.72241 7.22403 8.72241C7.54342 8.72241 7.84263 8.63607 8.09939 8.48535L9.04891 9.26268Z" fill="#28B446"/>
<path d="M9.08478 4.74535L8.14038 5.51852C7.87465 5.35242 7.56054 5.25647 7.22401 5.25647C6.46413 5.25647 5.81846 5.74564 5.58461 6.42624L4.63493 5.64875H4.63477C5.11994 4.71332 6.09733 4.07422 7.22401 4.07422C7.93135 4.07422 8.5799 4.32618 9.08478 4.74535Z" fill="#F14336"/>
</svg>
