<svg width="32" height="32" viewBox="0 0 32 32" fill="none" xmlns="http://www.w3.org/2000/svg">
<path d="M20.9067 19.4493C25.5601 19.4493 29.3334 15.692 29.3334 11.0573C29.3334 6.42396 25.5601 2.66663 20.9067 2.66663C16.2534 2.66663 12.4827 6.42396 12.4827 11.0573C12.4827 13.204 13.4627 14.7653 13.4627 14.7653L3.27341 24.912C2.81607 25.368 2.17607 26.552 3.27341 27.6453L4.44941 28.816C4.90674 29.2066 6.05607 29.7533 6.99607 28.816L8.36941 27.4506C9.74007 28.816 11.3081 28.036 11.8961 27.2546C12.8747 25.8893 11.7001 24.5226 11.7001 24.5226L12.0921 24.132C13.9721 26.0053 15.6187 24.9133 16.2067 24.132C17.1867 22.7666 16.2067 21.4 16.2067 21.4C15.8147 20.62 15.0307 20.62 16.0107 19.644L17.1867 18.4733C18.1267 19.2533 20.0601 19.4493 20.9094 19.4493H20.9067Z" stroke="black" stroke-width="1.5" stroke-linejoin="round"/>
<path d="M23.8466 11.0586C23.8448 11.8364 23.5342 12.5816 22.9832 13.1304C22.4321 13.6792 21.6856 13.9867 20.9079 13.9853C20.1302 13.9867 19.3837 13.6792 18.8326 13.1304C18.2816 12.5816 17.971 11.8364 17.9692 11.0586C17.9699 10.6734 18.0465 10.2921 18.1946 9.93649C18.3426 9.58087 18.5593 9.25789 18.8322 8.986C19.105 8.71411 19.4288 8.49863 19.785 8.35186C20.1411 8.2051 20.5227 8.12992 20.9079 8.13062C21.2931 8.12992 21.6747 8.2051 22.0309 8.35186C22.387 8.49863 22.7108 8.71411 22.9836 8.986C23.2565 9.25789 23.4732 9.58087 23.6212 9.93649C23.7693 10.2921 23.8459 10.6734 23.8466 11.0586Z" stroke="black" stroke-width="1.5"/>
</svg>
