<svg width="519" height="352" viewBox="0 0 519 352" fill="none" xmlns="http://www.w3.org/2000/svg">
<path fill-rule="evenodd" clip-rule="evenodd" d="M424.309 243.14C387.624 212.267 332.761 180.041 268.257 153.796C203.753 127.551 141.976 112.317 94.158 108.808C130.843 139.681 185.706 171.907 250.21 198.152C314.713 224.397 376.49 239.63 424.309 243.14ZM428.123 246.402C444.879 260.969 457.375 275.074 464.851 287.932C465.542 289.12 466.188 290.293 466.789 291.452C465.549 291.862 464.267 292.252 462.942 292.62C447.723 296.853 427.466 298.14 403.482 296.442C355.548 293.05 293.426 277.793 228.545 251.394C163.665 224.995 108.537 192.546 71.8524 161.509C53.4966 145.979 39.8924 130.915 31.9517 117.258C31.2609 116.07 30.615 114.897 30.0139 113.738C31.2536 113.328 32.5357 112.938 33.8601 112.57C48.1891 108.585 66.9834 107.211 89.1491 108.48C126.115 140.403 182.546 173.86 249.079 200.931C315.612 228.002 379.371 243.447 428.123 246.402ZM90.3433 105.545C139.096 108.5 202.855 123.946 269.388 151.017C335.921 178.088 392.351 211.545 429.317 243.467C451.483 244.737 470.278 243.363 484.606 239.378C485.26 239.196 485.904 239.009 486.537 238.817C486.218 238.237 485.887 237.653 485.546 237.066C477.605 223.41 464.001 208.346 445.645 192.816C408.96 161.778 353.833 129.329 288.952 102.931C224.072 76.5319 161.949 61.2744 114.016 57.8823C90.032 56.185 69.7749 57.4717 54.5554 61.7046C53.9015 61.8865 53.2579 62.0735 52.6247 62.2656C52.9441 62.8455 53.2745 63.429 53.6158 64.0161C61.0918 76.8734 73.588 90.9785 90.3433 105.545ZM49.7206 63.2069C56.8346 76.3347 69.0722 90.6218 85.5155 105.291C62.5455 104.271 43.1443 106.149 28.6746 111.022C23.5056 99.9596 22.5811 90.3192 25.8098 82.3839C29.211 74.0249 37.2327 67.5288 49.7206 63.2069ZM48.3267 60.5168C35.5956 65.0067 26.8384 71.8958 23.031 81.2533C19.4048 90.1655 20.5563 100.61 25.8403 112.04C14.0777 116.533 5.96186 123.207 2.33573 132.119C-14.9696 174.65 76.5362 252.069 206.72 305.038C336.903 358.007 456.466 366.468 473.771 323.937C477.398 315.024 476.246 304.58 470.962 293.15C482.725 288.656 490.841 281.983 494.467 273.071C498.274 263.714 496.815 252.668 490.835 240.566C503.566 236.076 512.323 229.187 516.131 219.829C533.436 177.297 441.93 99.8787 311.747 46.9096C181.564 -6.05943 62.0004 -14.5206 44.6951 28.0111C40.8878 37.3683 42.3473 48.4142 48.3267 60.5168ZM51.2028 59.5641C97.4129 45.2021 190.65 59.6946 290.083 100.152C389.516 140.609 466.386 195.33 489.441 237.875C501.929 233.554 509.951 227.058 513.352 218.698C517.174 209.306 515.177 197.525 507.21 183.824C499.269 170.168 485.665 155.104 467.309 139.574C430.624 108.536 375.497 76.0872 310.616 49.6884C245.736 23.2897 183.614 8.0322 135.68 4.64011C111.696 2.94281 91.439 4.22948 76.2195 8.46246C60.9502 12.7093 51.2954 19.7495 47.4739 29.1418C44.0728 37.5006 45.2802 47.7515 51.2028 59.5641ZM487.959 241.518C493.882 253.331 495.089 263.582 491.688 271.941C488.459 279.876 481.067 286.132 469.643 290.443C462.686 276.852 450.108 261.962 432.951 246.656C454.965 247.634 473.701 245.95 487.959 241.518ZM227.415 254.173C126.65 213.173 49.0571 157.526 27.1594 114.747C15.7354 119.058 8.34314 125.314 5.11452 133.249C1.29301 142.641 3.2898 154.422 11.2564 168.124C19.1971 181.78 32.8014 196.844 51.1571 212.374C87.8422 243.412 142.969 275.861 207.85 302.259C272.731 328.658 334.853 343.915 382.787 347.308C406.771 349.005 427.028 347.718 442.247 343.485C457.516 339.238 467.171 332.198 470.993 322.806C474.221 314.871 473.297 305.23 468.128 294.167C422.584 309.506 328.181 295.172 227.415 254.173Z" fill="black" fill-opacity="0.2"/>
</svg>
