<svg width="693" height="304" viewBox="0 0 693 304" fill="none" xmlns="http://www.w3.org/2000/svg">
<path fill-rule="evenodd" clip-rule="evenodd" d="M590.247 152.001C528.005 168.288 441.941 178.392 346.778 178.392C251.613 178.392 165.548 168.287 103.306 152.001C165.548 135.714 251.612 125.61 346.776 125.61C441.94 125.61 528.005 135.714 590.247 152.001ZM596.05 150.446C624.647 142.595 647.709 133.441 663.822 123.449C665.323 122.519 666.757 121.585 668.125 120.649C666.756 119.712 665.32 118.777 663.818 117.846C646.682 107.219 621.685 97.5403 590.53 89.3692C528.266 73.0385 442.084 62.9031 346.774 62.9031C251.464 62.9031 165.281 73.0386 103.017 89.3692C71.8622 97.5404 46.8655 107.219 29.7288 117.846C28.2282 118.776 26.7943 119.71 25.4265 120.646C26.7954 121.583 28.2307 122.518 29.7327 123.449C45.8457 133.441 68.9075 142.595 97.5034 150.445C160.419 133.287 248.843 122.61 346.776 122.61C444.709 122.61 533.134 133.287 596.05 150.446ZM97.5033 153.556C160.419 170.714 248.844 181.392 346.778 181.392C444.71 181.392 533.134 170.714 596.05 153.556C624.646 161.407 647.707 170.561 663.82 180.552C664.571 181.018 665.306 181.484 666.024 181.952C665.305 182.419 664.57 182.886 663.818 183.352C646.682 193.979 621.685 203.658 590.53 211.829C528.266 228.16 442.084 238.295 346.774 238.295C251.464 238.295 165.281 228.16 103.017 211.829C71.8622 203.658 46.8655 193.979 29.7288 183.352C28.9777 182.887 28.2433 182.42 27.5256 181.953C28.244 181.485 28.979 181.018 29.7307 180.552C45.8441 170.56 68.9066 161.406 97.5033 153.556ZM24.8273 180.139C40.52 169.668 63.423 160.149 91.933 152.001C62.1835 143.498 38.5393 133.502 22.8222 122.491C10.1753 131.769 3.97303 141.284 3.97304 150.599C3.97304 160.394 10.8306 170.409 24.8273 180.139ZM22.1937 181.953C8.46791 172.182 0.973037 161.62 0.973036 150.599C0.973035 140.103 7.77119 130.023 20.2758 120.646C7.77369 111.27 0.976938 101.191 0.976937 90.696C0.976932 40.606 155.797 5.41248e-05 346.778 3.02308e-05C537.758 6.33686e-06 692.578 40.6059 692.578 90.6959C692.578 101.192 685.78 111.272 673.275 120.649C685.777 130.025 692.574 140.104 692.574 150.599C692.574 161.619 685.08 172.181 671.355 181.952C685.081 191.723 692.576 202.285 692.576 213.305C692.576 263.395 537.756 304.001 346.776 304.001C155.795 304.002 0.974999 263.396 0.974994 213.306C0.974993 202.285 8.46913 191.724 22.1937 181.953ZM24.8273 183.767C75.3142 217.451 200.427 241.295 346.774 241.295C493.122 241.295 618.236 217.451 668.722 183.766C682.719 193.495 689.576 203.51 689.576 213.305C689.576 224.183 681.119 235.332 663.82 246.059C646.684 256.685 621.687 266.364 590.532 274.535C528.268 290.866 442.086 301.001 346.776 301.001C251.466 301.001 165.283 290.866 103.019 274.535C71.8642 266.364 46.8675 256.685 29.7307 246.059C12.4317 235.332 3.975 224.183 3.97499 213.306C3.97499 203.511 10.8319 193.496 24.8273 183.767ZM668.722 180.137C682.717 170.408 689.574 160.394 689.574 150.599C689.574 141.285 683.373 131.771 670.729 122.494C655.011 133.504 631.368 143.499 601.62 152.001C630.128 160.149 653.03 169.668 668.722 180.137ZM346.774 59.9031C198.45 59.9031 71.9378 84.3955 22.8223 118.801C10.178 109.524 3.97694 100.01 3.97694 90.696C3.97694 79.8187 12.4336 68.6697 29.7327 57.9427C46.8694 47.3163 71.8661 37.6373 103.021 29.4661C165.285 13.1355 251.468 3.00004 346.778 3.00003C442.087 3.00002 528.27 13.1354 590.534 29.4661C621.689 37.6372 646.686 47.3162 663.822 57.9426C681.121 68.6696 689.578 79.8187 689.578 90.6959C689.578 100.011 683.376 109.526 670.729 118.804C621.616 84.3968 495.101 59.9031 346.774 59.9031Z" fill="black" fill-opacity="0.3"/>
</svg>
