<svg width="519" height="352" viewBox="0 0 519 352" fill="none" xmlns="http://www.w3.org/2000/svg">
<path fill-rule="evenodd" clip-rule="evenodd" d="M424.309 108.808C387.624 139.681 332.761 171.906 268.257 198.152C203.753 224.397 141.976 239.63 94.158 243.14C130.843 212.266 185.706 180.041 250.21 153.796C314.713 127.55 376.49 112.317 424.309 108.808ZM428.123 105.545C444.879 90.9784 457.375 76.8732 464.851 64.0159C465.542 62.8279 466.188 61.6542 466.789 60.4953C465.549 60.0852 464.267 59.6959 462.942 59.3275C447.723 55.0946 427.466 53.8079 403.482 55.5052C355.548 58.8973 293.426 74.1548 228.545 100.554C163.665 126.952 108.537 159.401 71.8524 190.439C53.4966 205.969 39.8924 221.033 31.9517 234.689C31.2609 235.877 30.615 237.051 30.0139 238.21C31.2536 238.62 32.5357 239.009 33.8601 239.378C48.1891 243.363 66.9834 244.737 89.1491 243.467C126.115 211.545 182.546 178.088 249.079 151.017C315.612 123.946 379.371 108.5 428.123 105.545ZM90.3433 246.402C139.096 243.447 202.855 228.001 269.388 200.93C335.921 173.859 392.351 140.402 429.317 108.48C451.483 107.211 470.278 108.584 484.606 112.57C485.26 112.752 485.904 112.939 486.537 113.131C486.218 113.711 485.887 114.294 485.546 114.881C477.605 128.538 464.001 143.602 445.645 159.132C408.96 190.169 353.833 222.618 288.952 249.017C224.072 275.416 161.949 290.673 114.016 294.065C90.032 295.762 69.7749 294.476 54.5554 290.243C53.9015 290.061 53.2579 289.874 52.6247 289.682C52.9441 289.102 53.2745 288.518 53.6158 287.931C61.0918 275.074 73.588 260.969 90.3433 246.402ZM49.7206 288.741C56.8346 275.613 69.0722 261.326 85.5155 246.656C62.5455 247.676 43.1443 245.798 28.6746 240.925C23.5056 251.988 22.5811 261.628 25.8098 269.564C29.211 277.923 37.2327 284.419 49.7206 288.741ZM48.3267 291.431C35.5956 286.941 26.8384 280.052 23.031 270.694C19.4048 261.782 20.5563 251.338 25.8403 239.908C14.0777 235.414 5.96186 228.741 2.33573 219.829C-14.9696 177.297 76.5362 99.8786 206.72 46.9095C336.903 -6.05958 456.466 -14.5207 473.771 28.011C477.398 36.9232 476.246 47.3673 470.962 58.7972C482.725 63.2911 490.841 69.9642 494.467 78.8762C498.274 88.2334 496.815 99.2792 490.835 111.382C503.566 115.872 512.323 122.761 516.131 132.118C533.436 174.65 441.93 252.069 311.747 305.038C181.564 358.007 62.0004 366.468 44.6951 323.936C40.8878 314.579 42.3473 303.533 48.3267 291.431ZM51.2028 292.383C97.4129 306.745 190.65 292.253 290.083 251.796C389.516 211.338 466.386 156.617 489.441 114.072C501.929 118.394 509.951 124.89 513.352 133.249C517.174 142.641 515.177 154.422 507.21 168.123C499.269 181.78 485.665 196.844 467.309 212.374C430.624 243.411 375.497 275.86 310.616 302.259C245.736 328.658 183.614 343.915 135.68 347.307C111.696 349.005 91.439 347.718 76.2195 343.485C60.9502 339.238 51.2954 332.198 47.4739 322.806C44.0728 314.447 45.2802 304.196 51.2028 292.383ZM487.959 110.429C493.882 98.6166 495.089 88.3657 491.688 80.0068C488.459 72.0718 481.067 65.8155 469.643 61.5043C462.686 75.0953 450.108 89.985 432.951 105.291C454.965 104.313 473.701 105.998 487.959 110.429ZM227.415 97.7747C126.65 138.774 49.0571 194.421 27.1594 237.201C15.7354 232.89 8.34314 226.633 5.11452 218.698C1.29301 209.306 3.2898 197.525 11.2564 183.824C19.1971 170.168 32.8014 155.103 51.1571 139.574C87.8422 108.536 142.969 76.087 207.85 49.6883C272.731 23.2896 334.853 8.03209 382.787 4.63996C406.771 2.94268 427.028 4.22934 442.247 8.46232C457.516 12.7091 467.171 19.7494 470.993 29.1416C474.221 37.0769 473.297 46.7173 468.128 57.7801C422.584 42.4411 328.181 56.7751 227.415 97.7747Z" fill="black" fill-opacity="0.2"/>
</svg>
