<svg width="53" height="52" viewBox="0 0 53 52" fill="none" xmlns="http://www.w3.org/2000/svg">
<g clip-path="url(#clip0_183_3494)">
<path fill-rule="evenodd" clip-rule="evenodd" d="M26.5026 4.33398C14.5361 4.33398 4.83594 14.0342 4.83594 26.0007C4.83594 30.0957 5.97344 33.9307 7.9516 37.198L6.01894 43.7673C5.90797 44.1445 5.90067 44.5446 5.9978 44.9256C6.09493 45.3066 6.29291 45.6543 6.57092 45.9323C6.84892 46.2104 7.1967 46.4083 7.57767 46.5055C7.95865 46.6026 8.35876 46.5953 8.73594 46.4843L15.3053 44.5517C18.6824 46.595 22.5554 47.6727 26.5026 47.6673C38.4691 47.6673 48.1693 37.9672 48.1693 26.0007C48.1693 14.0342 38.4691 4.33398 26.5026 4.33398ZM21.6016 30.9038C25.9848 35.2848 30.1686 35.8633 31.6463 35.9175C33.8931 35.9998 36.0814 34.2838 36.9329 32.2927C37.0404 32.045 37.0795 31.7729 37.0459 31.505C37.0124 31.2371 36.9075 30.983 36.7423 30.7695C35.5549 29.2528 33.9494 28.163 32.3808 27.0797C32.0533 26.8532 31.6508 26.7624 31.2577 26.8262C30.8647 26.89 30.5116 27.1035 30.2726 27.422L28.9726 29.4045C28.9043 29.5111 28.7978 29.5875 28.6749 29.6181C28.552 29.6487 28.4221 29.6312 28.3118 29.5692C27.4299 29.0643 26.1451 28.2063 25.2221 27.2833C24.2991 26.3603 23.4931 25.134 23.0403 24.3085C22.9841 24.2036 22.9679 24.0819 22.9946 23.966C23.0213 23.8501 23.0891 23.7478 23.1854 23.678L25.1874 22.1917C25.4731 21.9432 25.6575 21.5984 25.7055 21.2229C25.7534 20.8473 25.6616 20.4672 25.4474 20.155C24.4768 18.7337 23.3458 16.9267 21.7056 15.7285C21.4939 15.5751 21.246 15.4794 20.9861 15.451C20.7263 15.4225 20.4635 15.4621 20.2236 15.566C18.2303 16.4197 16.5056 18.608 16.5879 20.8592C16.6421 22.3368 17.2206 26.5207 21.6016 30.9038Z" fill="#D88049"/>
</g>
<defs>
<clipPath id="clip0_183_3494">
<rect width="52" height="52" fill="white" transform="translate(0.5)"/>
</clipPath>
</defs>
</svg>
