<svg width="152" height="152" viewBox="0 0 152 152" fill="none" xmlns="http://www.w3.org/2000/svg">
<g id="bi:stars" clip-path="url(#clip0_1_200)">
<path id="Vector" d="M102.161 72.7412C105.296 73.7862 105.296 78.2132 102.161 79.2582L83.7592 85.3857C79.714 86.7344 76.0387 89.0068 73.0244 92.0228C70.0101 95.0387 67.7397 98.7153 66.3932 102.761L60.2657 121.153C59.2207 124.288 54.7937 124.288 53.7487 121.153L47.6212 102.752C46.2724 98.7066 44 95.0312 40.9841 92.0169C37.9681 89.0026 34.2915 86.7322 30.2457 85.3857L11.8537 79.2582C11.1672 79.0329 10.5694 78.5965 10.1456 78.0114C9.72177 77.4262 9.49359 76.7222 9.49359 75.9997C9.49359 75.2772 9.72177 74.5731 10.1456 73.988C10.5694 73.4028 11.1672 72.9665 11.8537 72.7412L30.2552 66.6137C34.2993 65.2659 37.974 62.9949 40.9882 59.9807C44.0024 56.9665 46.2734 53.2918 47.6212 49.2477L53.7487 30.8462C53.974 30.1597 54.4103 29.5619 54.9955 29.1381C55.5806 28.7143 56.2847 28.4861 57.0072 28.4861C57.7297 28.4861 58.4337 28.7143 59.0189 29.1381C59.604 29.5619 60.0404 30.1597 60.2657 30.8462L66.3932 49.2477C67.7409 53.2918 70.0119 56.9665 73.0261 59.9807C76.0404 62.9949 79.7151 65.2659 83.7592 66.6137L102.161 72.7412ZM150.601 36.0427C151.013 36.1789 151.371 36.4413 151.624 36.7926C151.878 37.1439 152.015 37.5663 152.015 37.9997C152.015 38.433 151.878 38.8554 151.624 39.2067C151.371 39.558 151.013 39.8204 150.601 39.9567L139.562 43.6332C134.641 45.2767 130.784 49.1337 129.141 54.0547L125.464 65.0937C125.328 65.5051 125.066 65.8631 124.714 66.1168C124.363 66.3706 123.941 66.5072 123.507 66.5072C123.074 66.5072 122.651 66.3706 122.3 66.1168C121.949 65.8631 121.686 65.5051 121.55 65.0937L117.874 54.0547C117.065 51.6277 115.702 49.4223 113.893 47.6134C112.085 45.8045 109.879 44.4418 107.452 43.6332L96.4132 39.9567C96.0018 39.8204 95.6438 39.558 95.39 39.2067C95.1363 38.8554 94.9997 38.433 94.9997 37.9997C94.9997 37.5663 95.1363 37.1439 95.39 36.7926C95.6438 36.4413 96.0018 36.1789 96.4132 36.0427L107.452 32.3662C109.879 31.5576 112.085 30.1948 113.893 28.3859C115.702 26.577 117.065 24.3717 117.874 21.9447L121.55 10.9057C121.686 10.4943 121.949 10.1363 122.3 9.88251C122.651 9.62876 123.074 9.49219 123.507 9.49219C123.941 9.49219 124.363 9.62876 124.714 9.88251C125.066 10.1363 125.328 10.4943 125.464 10.9057L129.141 21.9447C129.949 24.3717 131.312 26.577 133.121 28.3859C134.93 30.1948 137.135 31.5576 139.562 32.3662L150.601 36.0427Z" fill="white"/>
</g>
<defs>
<clipPath id="clip0_1_200">
<rect width="152" height="152" fill="white" transform="matrix(4.37114e-08 1 1 -4.37114e-08 0 0)"/>
</clipPath>
</defs>
</svg>
