<svg width="152" height="152" viewBox="0 0 152 152" fill="none" xmlns="http://www.w3.org/2000/svg">
<g id="bi:stars" clip-path="url(#clip0_1_198)">
<path id="Vector" d="M59.3469 72.7412C56.2119 73.7862 56.2119 78.2132 59.3469 79.2582L77.7484 85.3857C81.7935 86.7344 85.4689 89.0068 88.4832 92.0228C91.4975 95.0387 93.7679 98.7153 95.1144 102.761L101.242 121.153C102.287 124.288 106.714 124.288 107.759 121.153L113.886 102.752C115.235 98.7066 117.508 95.0312 120.524 92.0169C123.539 89.0026 127.216 86.7322 131.262 85.3857L149.654 79.2582C150.34 79.0329 150.938 78.5965 151.362 78.0114C151.786 77.4262 152.014 76.7222 152.014 75.9997C152.014 75.2772 151.786 74.5731 151.362 73.988C150.938 73.4028 150.34 72.9665 149.654 72.7412L131.252 66.6137C127.208 65.2659 123.534 62.9949 120.519 59.9807C117.505 56.9665 115.234 53.2918 113.886 49.2477L107.759 30.8462C107.534 30.1597 107.097 29.5619 106.512 29.1381C105.927 28.7143 105.223 28.4861 104.5 28.4861C103.778 28.4861 103.074 28.7143 102.489 29.1381C101.904 29.5619 101.467 30.1597 101.242 30.8462L95.1144 49.2477C93.7666 53.2918 91.4957 56.9665 88.4815 59.9807C85.4672 62.9949 81.7925 65.2659 77.7484 66.6137L59.3469 72.7412ZM10.9064 36.0427C10.495 36.1789 10.137 36.4413 9.88327 36.7926C9.62952 37.1439 9.49295 37.5663 9.49295 37.9997C9.49295 38.433 9.62952 38.8554 9.88327 39.2067C10.137 39.558 10.495 39.8204 10.9064 39.9567L21.9454 43.6332C26.8664 45.2767 30.7234 49.1337 32.3669 54.0547L36.0434 65.0937C36.1797 65.5051 36.4421 65.8631 36.7934 66.1168C37.1447 66.3706 37.5671 66.5072 38.0004 66.5072C38.4338 66.5072 38.8561 66.3706 39.2075 66.1168C39.5588 65.8631 39.8212 65.5051 39.9574 65.0937L43.6339 54.0547C44.4425 51.6277 45.8053 49.4223 47.6142 47.6134C49.4231 45.8045 51.6284 44.4418 54.0554 43.6332L65.0944 39.9567C65.5058 39.8204 65.8638 39.558 66.1176 39.2067C66.3713 38.8554 66.5079 38.433 66.5079 37.9997C66.5079 37.5663 66.3713 37.1439 66.1176 36.7926C65.8638 36.4413 65.5058 36.1789 65.0944 36.0427L54.0554 32.3662C51.6284 31.5576 49.4231 30.1948 47.6142 28.3859C45.8053 26.577 44.4425 24.3717 43.6339 21.9447L39.9574 10.9057C39.8212 10.4943 39.5588 10.1363 39.2075 9.88251C38.8561 9.62876 38.4338 9.49219 38.0004 9.49219C37.5671 9.49219 37.1447 9.62876 36.7934 9.88251C36.4421 10.1363 36.1797 10.4943 36.0434 10.9057L32.3669 21.9447C31.5583 24.3717 30.1956 26.577 28.3867 28.3859C26.5778 30.1948 24.3724 31.5576 21.9454 32.3662L10.9064 36.0427ZM0.940928 103.198C0.670427 103.292 0.435869 103.468 0.269863 103.701C0.103857 103.934 0.0146526 104.213 0.0146526 104.5C0.0146526 104.786 0.103857 105.065 0.269863 105.298C0.435869 105.532 0.670428 105.707 0.940928 105.801L8.29393 108.252C11.5809 109.345 14.1554 111.919 15.2479 115.206L17.6989 122.559C17.7927 122.83 17.9684 123.064 18.2017 123.23C18.435 123.396 18.7141 123.485 19.0004 123.485C19.2867 123.485 19.5659 123.396 19.7992 123.23C20.0324 123.064 20.2081 122.83 20.3019 122.559L22.7529 115.206C23.2918 113.586 24.2009 112.114 25.408 110.907C26.6151 109.7 28.0871 108.791 29.7069 108.252L37.0599 105.801C37.3304 105.707 37.565 105.532 37.731 105.298C37.897 105.065 37.9862 104.786 37.9862 104.5C37.9862 104.213 37.897 103.934 37.731 103.701C37.565 103.468 37.3304 103.292 37.0599 103.198L29.7069 100.747C28.0871 100.208 26.6151 99.2992 25.408 98.0921C24.2009 96.885 23.2918 95.413 22.7529 93.7932L20.3019 86.4497C20.2081 86.1792 20.0324 85.9446 19.7992 85.7786C19.5659 85.6126 19.2867 85.5234 19.0004 85.5234C18.7141 85.5234 18.4349 85.6126 18.2017 85.7786C17.9684 85.9446 17.7927 86.1792 17.6989 86.4497L15.2479 93.8027C14.1554 97.0897 11.5809 99.6642 8.29393 100.757L0.950428 103.198L0.940928 103.198Z" fill="white"/>
</g>
<defs>
<clipPath id="clip0_1_198">
<rect width="152" height="152" fill="white" transform="matrix(4.37114e-08 1 1 -4.37114e-08 0 0)"/>
</clipPath>
</defs>
</svg>
