<svg viewBox="0 0 48 48" fill="none" xmlns="http://www.w3.org/2000/svg" id="__root__"><circle cx="24" cy="24" r="24" fill="#38569A"/><path d="m29.142 13.719-2.668-.005c-2.997 0-4.933 1.987-4.933 5.063v2.334h-2.683a.42.42 0 0 0-.419.42v3.382c0 .232.188.42.42.42h2.682v8.533c0 .232.187.42.42.42h3.499a.42.42 0 0 0 .42-.42v-8.534h3.135a.42.42 0 0 0 .42-.42v-3.381a.42.42 0 0 0-.419-.42H25.88v-1.979c0-.95.227-1.433 1.466-1.433l1.797-.001a.42.42 0 0 0 .419-.42v-3.14a.42.42 0 0 0-.419-.42Z" fill="#fff"/></svg>