<svg viewBox="0 0 10 10" fill="none" xmlns="http://www.w3.org/2000/svg" id="__root__"><g clip-path="url(#key_svg__a)" fill="#000"><path d="M6.782 5.983a2.394 2.394 0 0 0 2.4-2.39 2.394 2.394 0 0 0-2.4-2.388 2.393 2.393 0 0 0-2.398 2.389c0 .645-.046 1.379-.503 1.834l-2.119 2.11c-.13.13-.312.467 0 .778l.335.333c.13.111.458.267.725 0 .216-.215.578-.165.883-.176a.701.701 0 0 0 .512-.268c.212-.296.07-.592-.011-.717a.093.093 0 0 1 .01-.115.086.086 0 0 1 .116-.001c.51.454.951.158 1.112-.056a.662.662 0 0 0 .099-.198c.115-.387-.44-.795-.155-1.08.19-.189.502-.206.761-.137.238.062.49.082.634.082Z" stroke="#000" stroke-linejoin="round"/><path d="M7.618 3.594a.835.835 0 0 1-1.427.59.835.835 0 0 1 0-1.18.835.835 0 0 1 1.182 0 .835.835 0 0 1 .245.59Z"/></g><defs><clipPath id="key_svg__a"><path fill="#fff" transform="translate(.83 .445)" d="M0 0h9.11v9.11H0z"/></clipPath></defs></svg>