<svg width="34" height="35" viewBox="0 0 34 35" fill="none" xmlns="http://www.w3.org/2000/svg">
<path d="M24.0109 12.0094L19.0022 17.0181L24.0109 22.0267C24.2765 22.2924 24.4258 22.6527 24.4258 23.0285C24.4258 23.4042 24.2765 23.7645 24.0109 24.0302C23.7452 24.2959 23.3848 24.4451 23.0091 24.4451C22.6334 24.4451 22.2731 24.2959 22.0074 24.0302L16.9987 19.0215L11.99 24.0302C11.7244 24.2959 11.364 24.4451 10.9883 24.4451C10.6126 24.4451 10.2522 24.2959 9.98657 24.0302C9.72089 23.7645 9.57164 23.4042 9.57164 23.0285C9.57164 22.6528 9.72089 22.2924 9.98657 22.0267L14.9952 17.0181L9.98657 12.0094C9.72089 11.7437 9.57164 11.3834 9.57164 11.0077C9.57164 10.6319 9.72089 10.2716 9.98657 10.0059C10.2522 9.74025 10.6126 9.59099 10.9883 9.59099C11.364 9.59099 11.7244 9.74025 11.99 10.0059L16.9987 15.0146L22.0074 10.0059C22.2731 9.74025 22.6334 9.59099 23.0091 9.59099C23.3848 9.59099 23.7452 9.74025 24.0109 10.0059C24.2765 10.2716 24.4258 10.6319 24.4258 11.0077C24.4258 11.3834 24.2765 11.7437 24.0109 12.0094Z" fill="#AF3B3B"/>
</svg>
