<svg width="24" height="25" viewBox="0 0 24 25" fill="none" xmlns="http://www.w3.org/2000/svg">
<g clip-path="url(#clip0_1_6152)">
<path d="M15.6799 15.087C19.1699 15.087 21.9999 12.269 21.9999 8.793C21.9999 5.318 19.1699 2.5 15.6799 2.5C12.1899 2.5 9.36193 5.318 9.36193 8.793C9.36193 10.403 10.0969 11.574 10.0969 11.574L2.45493 19.184C2.11193 19.526 1.63193 20.414 2.45493 21.234L3.33693 22.112C3.67993 22.405 4.54193 22.815 5.24693 22.112L6.27693 21.088C7.30493 22.112 8.48093 21.527 8.92193 20.941C9.65593 19.917 8.77493 18.892 8.77493 18.892L9.06893 18.599C10.4789 20.004 11.7139 19.185 12.1549 18.599C12.8899 17.575 12.1549 16.55 12.1549 16.55C11.8609 15.965 11.2729 15.965 12.0079 15.233L12.8899 14.355C13.5949 14.94 15.0449 15.087 15.6819 15.087H15.6799Z" stroke="white" stroke-width="1.5" stroke-linejoin="round"/>
<path d="M17.8851 8.7939C17.8837 9.37721 17.6508 9.93611 17.2375 10.3477C16.8242 10.7593 16.2644 10.99 15.6811 10.9889C15.0977 10.99 14.5379 10.7593 14.1246 10.3477C13.7113 9.93611 13.4784 9.37721 13.4771 8.7939C13.4776 8.505 13.535 8.21902 13.646 7.9523C13.7571 7.68559 13.9196 7.44336 14.1242 7.23944C14.3289 7.03552 14.5717 6.87391 14.8388 6.76384C15.106 6.65376 15.3921 6.59738 15.6811 6.5979C15.97 6.59738 16.2561 6.65376 16.5233 6.76384C16.7904 6.87391 17.0332 7.03552 17.2379 7.23944C17.4425 7.44336 17.605 7.68559 17.7161 7.9523C17.8271 8.21902 17.8845 8.505 17.8851 8.7939Z" stroke="white" stroke-width="1.5"/>
</g>
<defs>
<clipPath id="clip0_1_6152">
<rect width="24" height="24" fill="white" transform="translate(0 0.5)"/>
</clipPath>
</defs>
</svg>
