<svg width="100" height="100" viewBox="0 0 100 100" fill="none" xmlns="http://www.w3.org/2000/svg">
<circle cx="50" cy="50" r="50" fill="#F2F1E1"/>
<g clip-path="url(#clip0_1_122)">
<path d="M47.3285 71.835C43.4043 71.3263 39.3645 69.6433 36.422 67.2879C29.7973 62.0024 26.7902 53.652 28.5089 45.3594C29.2459 41.7789 31.1654 38.0114 33.6225 35.2972C35.4326 33.2601 37.6154 31.5879 40.0534 30.3705C43.2902 28.7302 46.3839 27.9932 50.0359 27.9932C52.6567 27.9932 54.7632 28.3369 57.1763 29.1605C60.3465 30.2479 63.2266 32.0448 65.597 34.414C67.9675 36.7833 69.7658 39.6625 70.8548 42.8322C72.1445 46.6134 72.3797 50.638 71.556 54.6269C70.8974 57.7784 69.1993 61.3232 67.1093 63.8862C66.2499 64.9463 64.2727 66.8369 63.2345 67.6028C60.1288 69.9093 56.4763 71.3679 52.636 71.835C51.5044 71.978 48.423 71.9712 47.3285 71.835ZM53.3235 69.9953C58.6837 69.0969 63.4675 66.1061 66.6225 61.6807C70.3392 56.4598 71.3347 49.4555 69.2364 43.3478C68.7428 41.915 67.5177 39.5239 66.6225 38.263C65.627 36.8523 63.163 34.3814 61.7454 33.3859C60.3704 32.4124 58.0288 31.2299 56.431 30.7074C53.547 29.7492 50.4844 29.4513 47.4698 29.8357C44.4551 30.22 41.5653 31.2769 39.0139 32.928C36.6134 34.5049 34.5614 36.5569 32.9845 38.9574C31.3338 41.5074 30.2772 44.3958 29.8928 47.4091C29.5084 50.4224 29.8061 53.4835 30.7639 56.3663C31.2933 57.9627 32.4758 60.3125 33.4424 61.6875C34.4448 63.0983 36.9088 65.5692 38.3195 66.5647C39.5873 67.4529 41.9715 68.6767 43.4043 69.1785C46.5933 70.262 50.0002 70.5425 53.3235 69.9953ZM45.7033 62.6184C44.6753 62.4634 43.689 62.1029 42.8034 61.5583C42.0087 61.0495 36.0068 55.17 35.7139 54.6187C35.377 53.9889 35.9642 52.8422 36.8029 52.4915L37.1962 52.3265L35.9862 51.0945C35.3207 50.4139 34.6895 49.6907 34.5892 49.4899C34.3527 49.032 34.3458 48.0503 34.5672 47.613C34.6607 47.4343 34.882 47.162 35.0539 47.0108C35.3482 46.7674 35.3757 46.6808 35.3482 46.0648C35.3124 45.5203 35.3619 45.3058 35.5984 44.8974C35.9422 44.3103 36.6517 43.9157 37.346 43.9088C37.7324 43.9088 37.8328 43.8593 37.9978 43.5719C38.4282 42.8198 39.6588 42.5475 40.5979 43.0068L41.1067 43.2502L41.3569 43.0068C41.7007 42.6919 42.3882 42.4128 42.8392 42.4128C43.7412 42.4128 45.0158 43.4509 45.0158 44.181C45.0158 45.0542 44.221 45.2054 43.4332 44.4822C42.9107 43.9954 42.6453 43.9445 42.4308 44.2883C42.3235 44.4533 42.5807 44.7613 44.1207 46.315C45.6607 47.8619 45.9398 48.1919 45.9398 48.4848C45.9276 48.7093 45.832 48.9211 45.6718 49.0788C45.5116 49.2365 45.2982 49.3287 45.0735 49.3373C44.7944 49.3373 44.3365 48.9358 42.2232 46.8307C40.0672 44.6815 39.6739 44.3378 39.502 44.4464C39.0359 44.7407 39.194 44.9552 41.7144 47.4824C43.0825 48.8574 44.2073 50.0743 44.2073 50.1898C44.2073 50.4263 43.9928 50.8635 43.814 50.9777C43.6674 51.0421 43.5079 51.0717 43.3479 51.0643C43.0537 51.0712 42.6027 50.6628 40.2047 48.2717C37.7984 45.8792 37.368 45.4928 37.1962 45.6C36.7232 45.9012 36.8813 46.1088 39.6244 48.8657C41.1218 50.363 42.3744 51.7023 42.4102 51.8453C42.4885 52.1038 42.3167 52.5548 42.0884 52.7115C41.9369 52.776 41.773 52.8056 41.6085 52.7982C41.3143 52.7982 40.943 52.4764 38.9589 50.4923C37.0463 48.5797 36.6022 48.1864 36.3588 48.2084C35.6713 48.2868 35.9147 48.5948 39.4663 52.1547C42.5463 55.2415 42.9395 55.6788 42.9395 56.0005C42.9426 56.1187 42.9161 56.2357 42.8623 56.3409C42.8085 56.4461 42.7291 56.5362 42.6315 56.6028C42.0802 57.04 41.8657 56.9397 40.4755 55.5935C39.766 54.9129 39.0359 54.2543 38.842 54.1319C38.4914 53.9174 37.6032 53.8239 37.4382 53.9958C37.3804 54.0453 38.6908 55.4285 40.3463 57.0675C43.1032 59.7955 43.418 60.076 44.2279 60.4624C44.974 60.8339 45.7957 61.0284 46.6291 61.0308C47.4626 61.0332 48.2853 60.8434 49.0335 60.4762C51.3463 59.3734 52.6292 56.6949 51.998 54.2667C51.6832 53.0567 51.2885 52.4764 49.699 50.836C47.8662 48.9592 47.4427 48.4435 46.9917 47.5415C46.4898 46.5323 46.2753 45.5505 46.2753 44.3254C46.2753 42.9999 46.4114 42.399 46.9985 41.1602C47.5568 39.979 48.7242 38.7402 49.8778 38.1022C52.141 36.8413 55.1207 36.9485 57.2822 38.3607C57.7125 38.6398 59.2663 40.1014 61.1995 42.0415C64.0719 44.9208 64.4005 45.2934 64.4005 45.622C64.4005 46.403 63.7625 47.2693 63.0544 47.448C62.789 47.5195 62.8399 47.591 64.043 48.8162C64.7443 49.5257 65.396 50.2915 65.4964 50.528C65.8333 51.3379 65.682 52.1244 65.066 52.7693C64.7512 53.0993 64.7085 53.2134 64.7003 53.872C64.6934 54.4523 64.6288 54.6957 64.3992 55.0257C64.2178 55.2941 63.975 55.5154 63.6908 55.6711C63.4067 55.8268 63.0895 55.9124 62.7657 55.9208C62.3215 55.9208 62.2363 55.9634 62.0135 56.3003C61.5117 57.0744 60.2082 57.3453 59.3639 56.8448L58.9418 56.5945L58.6407 56.8888C57.9752 57.5268 56.8999 57.612 56.0845 57.0895C55.4259 56.6743 54.9392 56.094 54.9392 55.7283C54.9392 55.4065 55.4053 54.8758 55.6913 54.8758C55.9635 54.8758 56.3293 55.0903 56.7445 55.478C57.1598 55.8713 57.5187 55.8713 57.575 55.4712C57.6039 55.2567 57.2602 54.8483 55.87 53.4513C54.4084 51.9759 54.1293 51.639 54.1293 51.353C54.126 51.1934 54.1555 51.0347 54.2159 50.8869C54.374 50.6504 54.8182 50.4854 55.089 50.5569C55.232 50.5927 56.442 51.7105 57.7675 53.0347C59.0999 54.367 60.2673 55.4547 60.3745 55.4547C60.6688 55.4547 60.8613 55.1604 60.7252 54.9102C60.6605 54.796 59.5358 53.6424 58.2323 52.3389C56.1918 50.3053 55.8618 49.9258 55.8618 49.6247C55.8551 49.4625 55.8847 49.3009 55.9484 49.1517C56.0708 48.9729 56.4998 48.7584 56.7432 48.7584C56.8504 48.7584 58.1965 50.011 59.7365 51.5442C62.558 54.3519 62.7657 54.5087 63.0599 54.0439C63.1672 53.872 62.7808 53.4348 60.3883 51.0354C57.9174 48.5577 57.5888 48.185 57.5888 47.8633C57.5888 47.6419 57.6892 47.4123 57.8473 47.2693C58.3698 46.7757 58.5279 46.876 61.0703 49.4033C63.4765 51.8027 63.691 51.9594 63.9853 51.5015C64.0925 51.3297 63.6058 50.8003 60.6193 47.8055C57.3674 44.5399 57.1323 44.2745 57.1323 43.895C57.1323 43.3217 57.4623 43.0494 58.0989 43.0934C58.213 43.1003 58.9005 43.6805 59.61 44.3749C60.3264 45.0693 61.0992 45.721 61.3288 45.8214C61.7798 46.007 62.3023 46.0359 62.525 45.8929C62.7395 45.7568 56.7954 39.9062 56.0227 39.4978C55.3601 39.1402 54.6313 38.922 53.8813 38.8565C53.1312 38.7911 52.3757 38.8799 51.6612 39.1174C50.9467 39.3549 50.2884 39.7362 49.7268 40.2376C49.1652 40.7391 48.7121 41.3502 48.3955 42.0333C48.0229 42.828 47.9734 43.0645 47.9225 44.0889C47.8799 45.0555 47.9157 45.3567 48.1233 45.9727C48.4959 47.0685 48.8177 47.5195 50.4869 49.2245C52.2923 51.0725 52.636 51.4947 53.0939 52.4833C54.3837 55.2333 53.8392 58.4137 51.712 60.5325C50.0937 62.1578 47.8882 62.9182 45.7033 62.6184Z" fill="black"/>
</g>
<defs>
<clipPath id="clip0_1_122">
<rect width="44" height="44" fill="white" transform="translate(28 28)"/>
</clipPath>
</defs>
</svg>
