<svg width="100" height="100" viewBox="0 0 100 100" fill="none" xmlns="http://www.w3.org/2000/svg">
<circle cx="50" cy="50" r="50" fill="#F2F1E1"/>
<path d="M50.0003 68.3337C52.4084 68.3368 54.7933 67.864 57.018 66.9425C59.2427 66.0209 61.2634 64.6688 62.9638 62.9638C64.6688 61.2634 66.0209 59.2427 66.9425 57.018C67.864 54.7933 68.3368 52.4084 68.3337 50.0003C68.3367 47.5923 67.8639 45.2074 66.9424 42.9827C66.0209 40.758 64.6688 38.7374 62.9638 37.0368C61.2634 35.3319 59.2427 33.9798 57.018 33.0582C54.7933 32.1367 52.4084 31.6639 50.0003 31.667C47.5923 31.6639 45.2074 32.1368 42.9827 33.0583C40.758 33.9798 38.7374 35.3319 37.0368 37.0368C35.3319 38.7374 33.9798 40.758 33.0583 42.9827C32.1368 45.2074 31.6639 47.5923 31.667 50.0003C31.6639 52.4084 32.1367 54.7933 33.0582 57.018C33.9798 59.2427 35.3319 61.2634 37.0368 62.9638C38.7374 64.6688 40.758 66.0209 42.9827 66.9424C45.2074 67.8639 47.5923 68.3367 50.0003 68.3337Z" stroke="black" stroke-width="3" stroke-linejoin="round"/>
<path fill-rule="evenodd" clip-rule="evenodd" d="M50.0007 61.9173C50.6084 61.9173 51.1913 61.6759 51.6211 61.2461C52.0509 60.8163 52.2923 60.2334 52.2923 59.6257C52.2923 59.0179 52.0509 58.435 51.6211 58.0052C51.1913 57.5754 50.6084 57.334 50.0007 57.334C49.3929 57.334 48.81 57.5754 48.3802 58.0052C47.9504 58.435 47.709 59.0179 47.709 59.6257C47.709 60.2334 47.9504 60.8163 48.3802 61.2461C48.81 61.6759 49.3929 61.9173 50.0007 61.9173Z" fill="black"/>
<path d="M50 39V53.6667" stroke="black" stroke-width="3" stroke-linecap="round" stroke-linejoin="round"/>
</svg>
