<svg width="100" height="100" viewBox="0 0 100 100" fill="none" xmlns="http://www.w3.org/2000/svg">
<circle cx="50" cy="50" r="50" fill="#F2F1E1"/>
<path d="M58.25 58.25V66.5H36.25V33.5H50V30.75H36.25C35.5207 30.75 34.8212 31.0397 34.3055 31.5555C33.7897 32.0712 33.5 32.7707 33.5 33.5V66.5C33.5 67.2293 33.7897 67.9288 34.3055 68.4445C34.8212 68.9603 35.5207 69.25 36.25 69.25H58.25C58.9793 69.25 59.6788 68.9603 60.1945 68.4445C60.7103 67.9288 61 67.2293 61 66.5V58.25H58.25Z" fill="black"/>
<path d="M68.6175 35.9203L64.08 31.3828C63.6688 30.9797 63.1159 30.7539 62.54 30.7539C61.9641 30.7539 61.4112 30.9797 61 31.3828L41.75 50.6328V58.2503H49.3537L68.6038 39.0003C69.0068 38.589 69.2326 38.0361 69.2326 37.4603C69.2326 36.8844 69.0068 36.3315 68.6038 35.9203H68.6175ZM48.2125 55.5003H44.5V51.7878L57.48 38.794L61.2062 42.5203L48.2125 55.5003ZM63.145 40.5815L59.4188 36.8553L62.54 33.734L66.2663 37.4603L63.145 40.5815Z" fill="black"/>
</svg>
