<svg width="100" height="100" viewBox="0 0 100 100" fill="none" xmlns="http://www.w3.org/2000/svg">
<circle cx="50" cy="50" r="50" fill="#F2F1E1"/>
<path fill-rule="evenodd" clip-rule="evenodd" d="M36.25 34.875C35.8853 34.875 35.5356 35.0199 35.2777 35.2777C35.0199 35.5356 34.875 35.8853 34.875 36.25V63.75C34.875 64.1147 35.0199 64.4644 35.2777 64.7223C35.5356 64.9801 35.8853 65.125 36.25 65.125H50.6875C51.2345 65.125 51.7591 65.3423 52.1459 65.7291C52.5327 66.1159 52.75 66.6405 52.75 67.1875C52.75 67.7345 52.5327 68.2591 52.1459 68.6459C51.7591 69.0327 51.2345 69.25 50.6875 69.25H36.25C34.7913 69.25 33.3924 68.6705 32.3609 67.6391C31.3295 66.6076 30.75 65.2087 30.75 63.75V36.25C30.75 34.7913 31.3295 33.3924 32.3609 32.3609C33.3924 31.3295 34.7913 30.75 36.25 30.75H63.75C65.2087 30.75 66.6076 31.3295 67.6391 32.3609C68.6705 33.3924 69.25 34.7913 69.25 36.25V53.4375C69.25 53.9845 69.0327 54.5091 68.6459 54.8959C68.2591 55.2827 67.7345 55.5 67.1875 55.5C66.6405 55.5 66.1159 55.2827 65.7291 54.8959C65.3423 54.5091 65.125 53.9845 65.125 53.4375V36.25C65.125 35.8853 64.9801 35.5356 64.7223 35.2777C64.4644 35.0199 64.1147 34.875 63.75 34.875H36.25ZM70.02 58.855C70.4062 59.2417 70.6232 59.7659 70.6232 60.3125C70.6232 60.8591 70.4062 61.3833 70.02 61.77L63.145 68.645C62.7583 69.0312 62.2341 69.2482 61.6875 69.2482C61.1409 69.2482 60.6167 69.0312 60.23 68.645L57.48 65.895C57.2774 65.7062 57.1148 65.4785 57.0021 65.2255C56.8894 64.9725 56.8288 64.6994 56.8239 64.4224C56.819 64.1455 56.8699 63.8704 56.9737 63.6136C57.0774 63.3568 57.2318 63.1235 57.4276 62.9276C57.6235 62.7318 57.8568 62.5774 58.1136 62.4737C58.3704 62.3699 58.6455 62.319 58.9224 62.3239C59.1994 62.3288 59.4725 62.3894 59.7255 62.5021C59.9785 62.6148 60.2062 62.7774 60.395 62.98L61.6875 64.2725L67.105 58.855C67.4917 58.4688 68.0159 58.2518 68.5625 58.2518C69.1091 58.2518 69.6333 58.4688 70.02 58.855ZM41.0625 39C40.5155 39 39.9909 39.2173 39.6041 39.6041C39.2173 39.9909 39 40.5155 39 41.0625C39 41.6095 39.2173 42.1341 39.6041 42.5209C39.9909 42.9077 40.5155 43.125 41.0625 43.125H58.9375C59.4845 43.125 60.0091 42.9077 60.3959 42.5209C60.7827 42.1341 61 41.6095 61 41.0625C61 40.5155 60.7827 39.9909 60.3959 39.6041C60.0091 39.2173 59.4845 39 58.9375 39H41.0625ZM39 50C39 49.453 39.2173 48.9284 39.6041 48.5416C39.9909 48.1548 40.5155 47.9375 41.0625 47.9375H58.9375C59.4845 47.9375 60.0091 48.1548 60.3959 48.5416C60.7827 48.9284 61 49.453 61 50C61 50.547 60.7827 51.0716 60.3959 51.4584C60.0091 51.8452 59.4845 52.0625 58.9375 52.0625H41.0625C40.5155 52.0625 39.9909 51.8452 39.6041 51.4584C39.2173 51.0716 39 50.547 39 50ZM41.0625 56.875C40.5155 56.875 39.9909 57.0923 39.6041 57.4791C39.2173 57.8659 39 58.3905 39 58.9375C39 59.4845 39.2173 60.0091 39.6041 60.3959C39.9909 60.7827 40.5155 61 41.0625 61H50.6875C51.2345 61 51.7591 60.7827 52.1459 60.3959C52.5327 60.0091 52.75 59.4845 52.75 58.9375C52.75 58.3905 52.5327 57.8659 52.1459 57.4791C51.7591 57.0923 51.2345 56.875 50.6875 56.875H41.0625Z" fill="black"/>
</svg>
