<svg width="100" height="100" viewBox="0 0 100 100" fill="none" xmlns="http://www.w3.org/2000/svg">
<circle cx="50" cy="50" r="50" fill="#F2F1E1"/>
<path d="M44.5003 64.667H39.0003C37.0554 64.667 35.1901 63.8944 33.8149 62.5191C32.4396 61.1438 31.667 59.2786 31.667 57.3337V40.8337C31.667 38.8887 32.4396 37.0235 33.8149 35.6482C35.1901 34.2729 37.0554 33.5003 39.0003 33.5003H59.167C61.1119 33.5003 62.9772 34.2729 64.3524 35.6482C65.7277 37.0235 66.5003 38.8887 66.5003 40.8337V46.3337M42.667 31.667V35.3337M55.5003 31.667V35.3337M31.667 42.667H66.5003M61.917 56.6792L59.167 59.4292" stroke="black" stroke-width="3" stroke-linecap="round" stroke-linejoin="round"/>
<path d="M59.1667 68.3333C64.2293 68.3333 68.3333 64.2293 68.3333 59.1667C68.3333 54.1041 64.2293 50 59.1667 50C54.1041 50 50 54.1041 50 59.1667C50 64.2293 54.1041 68.3333 59.1667 68.3333Z" stroke="black" stroke-width="3" stroke-linecap="round" stroke-linejoin="round"/>
</svg>
