<svg width="100" height="100" viewBox="0 0 100 100" fill="none" xmlns="http://www.w3.org/2000/svg">
<circle cx="50" cy="50" r="50" fill="#F2F1E1"/>
<path d="M35.2188 31.7812L34.4446 32.5114L32.5114 34.4446L31.7812 35.2188L32.3395 36.1208L35.2188 40.9333L35.6051 41.6208H39.6463L45.1463 47.0781C40.232 52.0144 33.9799 58.2871 33.7599 58.5085C31.6053 60.6617 31.6011 64.19 33.8011 66.2429C35.9502 68.3631 39.4524 68.4181 41.4943 66.2429L41.5355 66.1989L50 57.6917L58.5085 66.2415L58.6364 66.3281C60.7951 68.3631 64.2285 68.3906 66.2429 66.2415V66.2002H66.2841C68.3906 64.0456 68.4126 60.5435 66.2429 58.5071L66.1989 58.4659L59.0241 51.3324C63.8517 50.8814 67.633 46.8045 67.7031 41.8792H67.7458C67.7513 41.8517 67.7458 41.8201 67.7458 41.7926V41.75C67.8805 40.1605 67.5368 38.6398 66.7145 37.3239L65.7712 35.865L59.3679 42.267L57.4346 40.2471L63.9659 33.7159L62.0752 32.9431C60.8692 32.4126 59.5675 32.1342 58.25 32.125C52.9645 32.125 48.625 36.4645 48.625 41.75C48.625 42.3247 48.7488 42.8239 48.8395 43.3395C48.2386 43.9418 47.7876 44.4354 47.0781 45.1449L41.6208 39.6875V35.6051L40.9333 35.2188L36.1208 32.3395L35.2188 31.7812ZM58.25 34.875C58.4425 34.875 58.5772 34.9877 58.7656 35.0042L53.5667 40.2031L54.5114 41.1917L58.3792 45.1875L59.3239 46.1761L64.7812 40.7188C64.8088 41.035 65.0342 41.266 64.9958 41.6208V41.75C64.9958 45.5367 61.9075 48.625 58.1208 48.625C57.6161 48.625 57.0042 48.5068 56.3167 48.3665L55.5853 48.2386L55.0696 48.7542L39.5596 64.3083H39.5156V64.3522C38.5394 65.4206 36.8302 65.4468 35.6917 64.3083V64.2656H35.6477C34.5794 63.2894 34.5532 61.5802 35.6917 60.4417C36.2129 59.9193 46.304 49.7415 51.2458 44.8011L51.8054 44.2429L51.5895 43.4688C51.459 42.9047 51.3871 42.3288 51.375 41.75C51.375 37.9633 54.4632 34.875 58.25 34.875ZM35.6477 35.2188L38.8708 37.196V38.571L38.571 38.8708H37.196L35.2188 35.6491L35.6477 35.2188ZM55.7571 51.9333L64.3096 60.4417V60.4844H64.3509C65.4206 61.4606 65.4468 63.1698 64.3096 64.3083H64.2656V64.3522C63.2894 65.4206 61.5802 65.4468 60.4417 64.3083L51.9333 55.7585L55.7571 51.9333Z" fill="black"/>
</svg>
