<svg viewBox="0 0 371 178" fill="none" xmlns="http://www.w3.org/2000/svg" id="__root__"><path fill-rule="evenodd" clip-rule="evenodd" d="M307.844 75.619c-31.053 11.792-73.449 21.62-120.766 26.844-47.318 5.225-90.838 4.883-123.715.148 31.053-11.792 73.449-21.62 120.766-26.844 47.318-5.224 90.837-4.882 123.715-.148Zm5.559-2.181c15.315-6.212 27.339-12.842 35.338-19.476.227-.188.45-.376.669-.563-.255-.134-.514-.269-.776-.403-9.426-4.818-22.925-8.72-39.646-11.448-33.399-5.45-78.952-6.11-128.705-.617-49.752 5.493-94.064 16.076-125.47 28.68-15.722 6.311-28.046 13.064-36.193 19.822-.227.188-.45.375-.668.562.254.135.513.27.775.403 9.254 4.73 22.435 8.577 38.735 11.297C89.19 88.949 133.815 78.304 183.8 72.785c49.986-5.519 95.859-4.865 129.603.653ZM57.804 104.793c33.744 5.518 79.617 6.171 129.603.652 49.985-5.518 94.61-16.164 126.338-28.91 16.018 2.673 29.024 6.435 38.251 11.053-8.148 6.642-20.319 13.273-35.775 19.476-31.405 12.605-75.717 23.188-125.469 28.681-49.753 5.493-95.306 4.832-128.705-.618-16.437-2.682-29.761-6.498-39.162-11.203 7.997-6.52 19.87-13.028 34.919-19.131Zm-37.777 17.605c7.551-6.399 18.547-12.682 32.285-18.566-15.352-2.87-27.877-6.818-36.72-11.703-6.042 5.806-8.47 11.157-7.953 15.848.546 4.94 4.439 9.881 12.388 14.421Zm-2.35 2.101c-7.777-4.636-12.344-10.07-13.02-16.193-.644-5.831 2.294-11.823 8.258-17.755C5.801 86.064 1.627 80.856.983 75.025-2.089 47.196 76.394 15.696 176.28 4.668c99.887-11.029 183.351 2.591 186.424 30.42.644 5.831-2.293 11.824-8.258 17.755 7.115 4.488 11.288 9.695 11.932 15.526.676 6.123-2.596 12.423-9.174 18.644 7.777 4.635 12.344 10.07 13.019 16.192 3.073 27.829-75.41 59.329-175.296 70.357-99.887 11.029-183.351-2.591-186.424-30.42-.676-6.122 2.595-12.422 9.174-18.643Zm2.752 1.538c29.15 15.289 95.218 21.018 170.652 12.69 75.433-8.329 138.659-28.333 163.772-49.614 7.95 4.54 11.843 9.482 12.389 14.421.597 5.409-2.723 11.695-10.981 18.545-8.148 6.758-20.471 13.51-36.194 19.821-31.405 12.605-75.717 23.187-125.47 28.681-49.752 5.493-95.306 4.832-128.704-.618-16.721-2.728-30.22-6.63-39.646-11.448-9.554-4.883-14.165-10.294-14.762-15.702-.545-4.94 2.176-10.612 8.944-16.776Zm334.023-40.562c6.768-6.165 9.489-11.837 8.944-16.777-.518-4.69-4.055-9.383-11.217-13.731-7.565 6.697-18.927 13.282-33.284 19.432 14.69 2.746 26.792 6.479 35.557 11.076ZM179.954 37.949C103.5 46.39 39.584 66.825 15.182 88.427 8.02 84.08 4.483 79.387 3.965 74.696 3.368 69.287 6.688 63 14.946 56.15c8.148-6.758 20.471-13.51 36.194-19.82C82.545 23.724 126.857 13.142 176.61 7.65c49.752-5.493 95.306-4.833 128.704.617 16.721 2.729 30.221 6.63 39.646 11.448 9.554 4.883 14.165 10.294 14.762 15.702.518 4.691-1.91 10.042-7.952 15.849-28.526-15.76-95.36-21.758-171.816-13.317Z" fill="#000" fill-opacity=".2"/></svg>