<svg viewBox="0 0 9 9" fill="none" xmlns="http://www.w3.org/2000/svg" id="__root__"><g clip-path="url(#Calendar_svg__a)"><path d="M6.994 1.49H2.14a.728.728 0 0 0-.728.728v4.369c0 .402.326.728.728.728h4.854a.728.728 0 0 0 .728-.728V2.218a.728.728 0 0 0-.728-.728Z" stroke="#181818" stroke-width=".427" stroke-linejoin="round"/><path d="M2.626 1.005v.485Zm3.882 0v.485Zm1.214 1.699h-6.31Z" fill="#494A52"/><path d="M2.626 1.005v.485m3.882-.485v.485m1.214 1.214h-6.31" stroke="#181818" stroke-width=".427" stroke-linecap="round" stroke-linejoin="round"/><rect x="2.096" y="3.454" width=".706" height=".706" rx=".142" fill="#181818"/><rect x="3.508" y="3.454" width=".706" height=".706" rx=".142" fill="#181818"/><rect x="3.508" y="4.513" width=".706" height=".706" rx=".142" fill="#181818"/><rect x="4.92" y="4.513" width=".706" height=".706" rx=".142" fill="#181818"/><rect x="3.508" y="5.571" width=".706" height=".706" rx=".142" fill="#181818"/><rect x="4.92" y="5.571" width=".706" height=".706" rx=".142" fill="#181818"/><rect x="6.332" y="4.513" width=".706" height=".706" rx=".142" fill="#181818"/><rect x="6.332" y="5.571" width=".706" height=".706" rx=".142" fill="#181818"/></g><defs><clipPath id="Calendar_svg__a"><path fill="#fff" transform="translate(.684 .277)" d="M0 0h7.766v7.766H0z"/></clipPath></defs></svg>