<svg viewBox="0 0 15 14" fill="none" xmlns="http://www.w3.org/2000/svg" id="__root__"><circle cx="7.224" cy="6.99" r="6.66" fill="#FEE" stroke="#B8B8B8" stroke-width=".283"/><path d="m5.6 7.597-.202.758-.742.016a2.902 2.902 0 0 1-.347-1.382c0-.483.117-.94.326-1.34l.66.12.29.657A1.733 1.733 0 0 0 5.6 7.597Z" fill="#FBBB00"/><path d="M10.087 6.445a2.917 2.917 0 0 1-1.039 2.818l-.832-.042-.118-.735c.341-.2.608-.513.748-.887H7.287V6.445h2.8Z" fill="#518EF8"/><path d="M9.049 9.263a2.915 2.915 0 0 1-4.393-.892l.945-.773a1.733 1.733 0 0 0 2.498.887l.95.778Z" fill="#28B446"/><path d="m9.085 4.745-.945.774a1.734 1.734 0 0 0-2.556.908l-.95-.778a2.915 2.915 0 0 1 4.45-.904Z" fill="#F14336"/></svg>