<svg viewBox="0 0 519 352" fill="none" xmlns="http://www.w3.org/2000/svg" id="__root__"><path fill-rule="evenodd" clip-rule="evenodd" d="M424.309 243.14c-36.685-30.873-91.548-63.099-156.052-89.344-64.504-26.245-126.281-41.479-174.099-44.988 36.685 30.873 91.548 63.099 156.052 89.344 64.503 26.245 126.28 41.478 174.099 44.988Zm3.814 3.262c16.756 14.567 29.252 28.672 36.728 41.53a82.986 82.986 0 0 1 1.938 3.52c-1.24.41-2.522.8-3.847 1.168-15.219 4.233-35.476 5.52-59.46 3.822-47.934-3.392-110.056-18.649-174.937-45.048-64.88-26.399-120.008-58.848-156.693-89.885-18.355-15.53-31.96-30.594-39.9-44.251a83.316 83.316 0 0 1-1.938-3.52c1.24-.41 2.522-.8 3.846-1.168 14.33-3.985 33.123-5.359 55.29-4.09 36.965 31.923 93.396 65.38 159.929 92.451 66.533 27.071 130.292 42.516 179.044 45.471ZM90.343 105.545c48.753 2.955 112.512 18.401 179.045 45.472 66.533 27.071 122.963 60.528 159.929 92.45 22.166 1.27 40.961-.104 55.289-4.089a87.171 87.171 0 0 0 1.931-.561c-.319-.58-.65-1.164-.991-1.751-7.941-13.656-21.545-28.72-39.901-44.25-36.685-31.038-91.812-63.487-156.693-89.885-64.88-26.4-127.003-41.657-174.936-45.049-23.984-1.697-44.241-.41-59.46 3.823-.654.181-1.298.369-1.931.56.32.58.65 1.164.99 1.751 7.477 12.857 19.973 26.962 36.728 41.529ZM49.721 63.207c7.114 13.128 19.351 27.415 35.795 42.084-22.97-1.02-42.372.858-56.841 5.731-5.17-11.062-6.094-20.703-2.865-28.638 3.401-8.36 11.423-14.855 23.91-19.177Zm-1.394-2.69c-12.731 4.49-21.489 11.379-25.296 20.736-3.626 8.912-2.475 19.357 2.81 30.787-11.763 4.493-19.88 11.167-23.505 20.079-17.306 42.531 74.2 119.95 204.384 172.919 130.183 52.969 249.746 61.43 267.051 18.899 3.627-8.913 2.475-19.357-2.809-30.787 11.763-4.494 19.879-11.167 23.505-20.079 3.807-9.357 2.348-20.403-3.632-32.505 12.731-4.49 21.488-11.379 25.296-20.737 17.305-42.532-74.201-119.95-204.384-172.92C181.564-6.058 62-14.52 44.695 28.012c-3.807 9.357-2.348 20.403 3.632 32.506Zm2.876-.953c46.21-14.362 139.447.13 238.88 40.588 99.433 40.457 176.303 95.178 199.358 137.723 12.488-4.321 20.51-10.817 23.911-19.177 3.822-9.392 1.825-21.173-6.142-34.874-7.941-13.656-21.545-28.72-39.901-44.25-36.685-31.038-91.812-63.487-156.693-89.886C245.736 23.29 183.614 8.032 135.68 4.64c-23.984-1.697-44.241-.41-59.46 3.822-15.27 4.247-24.925 11.288-28.746 20.68-3.401 8.359-2.194 18.61 3.729 30.422Zm436.756 181.954c5.923 11.813 7.13 22.064 3.729 30.423-3.229 7.935-10.621 14.191-22.045 18.502-6.957-13.591-19.535-28.481-36.692-43.787 22.014.978 40.75-.706 55.008-5.138Zm-260.544 12.655c-100.765-41-178.358-96.647-200.256-139.426-11.424 4.311-18.816 10.567-22.044 18.502-3.822 9.392-1.825 21.173 6.141 34.875 7.941 13.656 21.545 28.72 39.901 44.25 36.685 31.038 91.812 63.487 156.693 89.885 64.881 26.399 127.003 41.656 174.937 45.049 23.984 1.697 44.241.41 59.46-3.823 15.269-4.247 24.924-11.287 28.746-20.679 3.228-7.935 2.304-17.576-2.865-28.639-45.544 15.339-139.947 1.005-240.713-39.994Z" fill="#000" fill-opacity=".2"/></svg>