<svg viewBox="0 0 362 246" fill="none" xmlns="http://www.w3.org/2000/svg" id="__root__"><path fill-rule="evenodd" clip-rule="evenodd" d="M68.802 77.266c25.483 20.913 62.79 42.61 106.473 60.384s85.54 28.287 118.386 31.106c-25.484-20.913-62.79-42.61-106.474-60.384-43.683-17.773-85.54-28.286-118.385-31.106Zm-3.944-3.312C52.75 63.547 43.794 53.504 38.512 44.42a59.333 59.333 0 0 1-.827-1.469 58.9 58.9 0 0 1 1.618-.474c10.484-2.916 24.507-3.818 41.192-2.637 33.334 2.359 76.595 12.977 121.812 31.375s83.602 41 109.114 62.584c12.769 10.804 22.179 21.24 27.649 30.647.287.494.563.983.827 1.469-.528.163-1.068.321-1.618.474-10.124 2.816-23.549 3.753-39.483 2.751-25.812-21.983-64.722-44.928-110.478-63.545-45.756-18.618-89.633-29.357-123.46-31.64Zm232.747 98.114c-33.828-2.283-77.704-13.022-123.461-31.639-45.756-18.618-84.666-41.563-110.478-63.546-15.934-1.002-29.358-.065-39.482 2.751l-.241.067c.042.073.083.145.126.217 5.47 9.407 14.88 19.844 27.649 30.647 25.512 21.584 63.896 44.186 109.114 62.584 45.217 18.398 88.477 29.016 121.812 31.375 16.684 1.181 30.707.279 41.191-2.636l.241-.068a41.798 41.798 0 0 1-.126-.217c-5.282-9.084-14.238-19.128-26.345-29.535Zm29.403 28.839c-5.022-8.94-13.397-18.627-24.537-28.566 15.576.692 28.801-.526 38.802-3.715 3.584 7.623 4.162 14.115 2.027 19.361-2.251 5.533-7.631 9.953-16.292 12.92Zm1.417 2.683c8.885-3.134 14.997-7.942 17.654-14.472 2.531-6.22 1.727-13.509-1.96-21.487 8.209-3.136 13.873-7.793 16.404-14.013 12.077-29.683-51.786-83.714-142.642-120.682S43.581-9.937 31.503 19.746c-2.531 6.22-1.727 13.51 1.96 21.487-8.209 3.136-13.873 7.793-16.404 14.013-2.657 6.53-1.638 14.24 2.535 22.686-8.885 3.133-14.997 7.941-17.654 14.472-12.078 29.683 51.785 83.715 142.641 120.682 90.857 36.968 174.301 42.873 186.379 13.19 2.657-6.531 1.638-14.24-2.535-22.686Zm-2.888.931c-32.544 9.573-97.067-.612-165.836-28.593-68.77-27.981-122.075-65.738-138.69-95.313C12.35 83.582 6.97 88 4.72 93.535c-2.515 6.18-1.266 14.09 4.23 23.542 5.47 9.407 14.88 19.843 27.649 30.646 25.512 21.585 63.897 44.187 109.114 62.585 45.217 18.398 88.478 29.016 121.812 31.375 16.685 1.18 30.708.279 41.192-2.637 10.533-2.93 16.95-7.721 19.465-13.901 2.251-5.533 1.485-12.453-2.644-20.624ZM22.482 77.001c-4.13-8.172-4.895-15.092-2.644-20.625 2.134-5.245 7.08-9.49 14.968-12.445 4.934 9.266 13.551 19.37 25.186 29.75-14.915-.662-27.673.426-37.51 3.32Zm180.956-8.566c69.691 28.356 123.5 66.752 139.337 96.498 7.889-2.955 12.835-7.2 14.969-12.445 2.514-6.181 1.265-14.091-4.231-23.543-5.469-9.407-14.879-19.843-27.649-30.646-25.512-21.585-63.896-44.186-109.114-62.584C171.533 17.317 128.273 6.699 94.938 4.34c-16.684-1.181-30.707-.28-41.191 2.636-10.534 2.93-16.95 7.72-19.465 13.901-2.135 5.246-1.557 11.738 2.027 19.361C68.415 30 133.746 40.08 203.438 68.435Z" fill="#fff" fill-opacity=".5"/></svg>