<svg viewBox="0 0 693 304" fill="none" xmlns="http://www.w3.org/2000/svg" id="__root__"><path fill-rule="evenodd" clip-rule="evenodd" d="M590.247 152.001c-62.242 16.287-148.306 26.391-243.469 26.391-95.165 0-181.23-10.105-243.472-26.391 62.242-16.287 148.306-26.391 243.47-26.391 95.164 0 181.229 10.104 243.471 26.391Zm5.803-1.555c28.597-7.851 51.659-17.005 67.772-26.997 1.501-.93 2.935-1.864 4.303-2.8a113.455 113.455 0 0 0-4.307-2.803c-17.136-10.627-42.133-20.306-73.288-28.477-62.264-16.33-148.446-26.466-243.756-26.466S165.281 73.04 103.017 89.37c-31.155 8.171-56.151 17.85-73.288 28.477-1.5.93-2.935 1.864-4.302 2.8 1.368.937 2.804 1.872 4.306 2.803 16.113 9.992 39.174 19.146 67.77 26.996 62.916-17.158 151.34-27.835 249.273-27.835 97.933 0 186.358 10.677 249.274 27.836Zm-498.547 3.11c62.916 17.158 151.341 27.836 249.275 27.836 97.932 0 186.356-10.678 249.272-27.836 28.596 7.851 51.657 17.005 67.77 26.996.751.466 1.486.932 2.204 1.4-.719.467-1.454.934-2.206 1.4-17.136 10.627-42.133 20.306-73.288 28.477-62.264 16.331-148.446 26.466-243.756 26.466s-181.493-10.135-243.757-26.466c-31.155-8.171-56.151-17.85-73.288-28.477a115.88 115.88 0 0 1-2.203-1.399c.718-.468 1.453-.935 2.205-1.401 16.113-9.992 39.176-19.146 67.772-26.996Zm-72.676 26.583c15.693-10.471 38.596-19.99 67.106-28.138-29.75-8.503-53.394-18.499-69.11-29.51-12.648 9.278-18.85 18.793-18.85 28.108 0 9.795 6.858 19.81 20.854 29.54Zm-2.633 1.814C8.468 172.182.973 161.62.973 150.599c0-10.496 6.798-20.576 19.303-29.953-12.502-9.376-19.3-19.455-19.3-29.95C.977 40.606 155.798 0 346.779 0c190.98 0 345.8 40.606 345.8 90.696 0 10.496-6.798 20.576-19.303 29.953 12.502 9.376 19.299 19.455 19.299 29.95 0 11.02-7.494 21.582-21.219 31.353 13.726 9.771 21.221 20.333 21.221 31.353 0 50.09-154.82 90.696-345.8 90.696C155.795 304.002.975 263.396.975 213.306c0-11.021 7.494-21.582 21.219-31.353Zm2.633 1.814c50.487 33.684 175.6 57.528 321.947 57.528 146.348 0 271.462-23.844 321.948-57.529 13.997 9.729 20.854 19.744 20.854 29.539 0 10.878-8.457 22.027-25.756 32.754-17.136 10.626-42.133 20.305-73.288 28.476-62.264 16.331-148.446 26.466-243.756 26.466s-181.493-10.135-243.757-26.466c-31.155-8.171-56.152-17.85-73.288-28.476-17.3-10.727-25.756-21.876-25.756-32.753 0-9.795 6.857-19.81 20.852-29.539Zm643.895-3.63c13.995-9.729 20.852-19.743 20.852-29.538 0-9.314-6.201-18.828-18.845-28.105-15.718 11.01-39.361 21.005-69.109 29.507 28.508 8.148 51.41 17.667 67.102 28.136ZM346.774 59.903c-148.324 0-274.836 24.492-323.952 58.898-12.644-9.277-18.845-18.791-18.845-28.105 0-10.877 8.457-22.026 25.756-32.753 17.136-10.627 42.133-20.306 73.288-28.477C165.285 13.136 251.468 3 346.778 3c95.309 0 181.492 10.135 243.756 26.466 31.155 8.171 56.152 17.85 73.288 28.477 17.299 10.727 25.756 21.876 25.756 32.753 0 9.315-6.202 18.83-18.849 28.108-49.113-34.407-175.628-58.9-323.955-58.9Z" fill="#000" fill-opacity=".3"/></svg>