<svg viewBox="0 0 504 188" fill="none" xmlns="http://www.w3.org/2000/svg" id="__root__"><path fill-rule="evenodd" clip-rule="evenodd" d="M419.381 114.238c-44.925 3.047-104.459 1.031-169.279-6.848-64.82-7.88-123.104-20.185-165.99-33.905 44.924-3.047 104.459-1.03 169.278 6.849 64.82 7.879 123.104 20.184 165.991 33.904Zm7.814-.593c22.406-1.891 40.57-5.121 53.307-9.512l.705-.246a85.213 85.213 0 0 0-.626-.408c-11.473-7.419-28.651-15.014-50.378-22.31-43.406-14.578-104.354-27.762-172.532-36.05-68.179-8.287-130.511-10.088-176.145-6.334-22.842 1.88-41.34 5.138-54.256 9.592-.237.081-.471.163-.704.246.206.136.415.272.626.408 11.313 7.315 28.175 14.802 49.475 22.006 45.921-3.812 108.602-2.006 177.085 6.319 68.484 8.324 129.772 21.587 173.443 36.289ZM76.298 74.078c43.67 14.702 104.959 27.965 173.442 36.29 68.483 8.324 131.164 10.13 177.085 6.319 20.743 7.014 37.276 14.298 48.576 21.43-12.863 4.279-30.992 7.419-53.245 9.249-45.634 3.754-107.965 1.953-176.144-6.334-68.179-8.288-129.126-21.472-172.532-36.049-21.166-7.108-38.015-14.5-49.478-21.735 12.68-4.217 30.476-7.329 52.296-9.17Zm-55.453 7.087c11.86-4.263 28.402-7.448 48.574-9.466-19.967-7.1-35.776-14.487-46.288-21.776-4.459 1.807-7.98 3.749-10.56 5.782-3.322 2.619-4.853 5.195-5.152 7.66-.3 2.465.57 5.333 3.167 8.671 2.252 2.893 5.668 5.955 10.26 9.13Zm-3.364 1.29C8.329 75.775 3.688 69.192 4.44 63.003c.716-5.895 6.268-10.964 15.854-15.142-8.306-6.354-12.48-12.605-11.764-18.5C11.95 1.231 125.487-8.109 262.123 8.5c136.635 16.608 244.629 52.876 241.209 81.006-.716 5.895-6.268 10.964-15.854 15.143 8.305 6.353 12.481 12.605 11.764 18.499-.752 6.189-6.835 11.468-17.32 15.762 9.152 6.681 13.792 13.263 13.04 19.452-3.42 28.13-116.957 37.47-253.592 20.862C104.734 162.615-3.259 126.347.16 98.217c.753-6.189 6.835-11.468 17.32-15.762Zm2.957 2.059C55.1 107.572 142.16 131.43 245.65 144.01c103.492 12.58 193.731 10.273 232.907-3.81 4.591 3.174 8.008 6.236 10.259 9.129 2.598 3.338 3.467 6.206 3.168 8.671-.3 2.465-1.831 5.041-5.153 7.66-3.332 2.626-8.234 5.1-14.699 7.329-12.916 4.453-31.414 7.712-54.256 9.591-45.634 3.754-107.965 1.953-176.144-6.334-68.179-8.288-129.127-21.472-172.532-36.049-21.727-7.297-38.906-14.892-50.379-22.31-5.742-3.713-9.909-7.289-12.515-10.637-2.598-3.338-3.467-6.206-3.168-8.671.3-2.465 1.83-5.041 5.153-7.66 2.88-2.269 6.93-4.423 12.147-6.405Zm458.526 52.338c5.218-1.982 9.268-4.137 12.147-6.406 3.323-2.619 4.853-5.195 5.153-7.66.3-2.465-.569-5.333-3.168-8.671-2.017-2.592-4.97-5.32-8.865-8.143-11.953 4.559-29.071 7.942-50.158 10.052 19.101 6.793 34.398 13.847 44.891 20.828Zm-220.931-94.71C153.121 29.389 61.828 31.935 23.543 46.537c-3.896-2.822-6.849-5.55-8.866-8.143-2.599-3.338-3.468-6.206-3.168-8.67.3-2.466 1.83-5.042 5.153-7.66 3.332-2.627 8.234-5.1 14.698-7.33 12.917-4.453 31.414-7.712 54.257-9.59C131.25 1.388 193.582 3.19 261.76 11.477c68.179 8.287 129.126 21.471 172.532 36.048 21.727 7.297 38.905 14.892 50.378 22.31 5.743 3.713 9.909 7.29 12.515 10.637 2.599 3.338 3.468 6.206 3.168 8.671-.3 2.465-1.83 5.041-5.153 7.66-2.58 2.033-6.1 3.975-10.559 5.783-33.672-23.35-121.698-47.693-226.609-60.445Z" fill="#000" fill-opacity=".3"/></svg>