<svg viewBox="0 0 420 370" fill="none" xmlns="http://www.w3.org/2000/svg" id="__root__"><path fill-rule="evenodd" clip-rule="evenodd" d="M88.8 91.593c23.542 33.888 61.58 72.903 108.852 109.21 47.271 36.306 94.778 62.993 133.592 76.997-23.542-33.888-61.581-72.903-108.852-109.21-47.272-36.306-94.779-62.993-133.592-76.997Zm-2.852-4.186c-10.78-16.147-18.043-30.893-21.342-43.39a72.562 72.562 0 0 1-.703-2.894c.97-.043 1.963-.066 2.979-.068 13.602-.038 30.745 3.523 50.337 10.436 39.152 13.813 87.429 40.772 135.462 77.664 48.033 36.891 86.533 76.579 109.978 110.843 11.733 17.147 19.595 32.791 23.068 45.942.259.982.493 1.947.702 2.895-.97.042-1.963.065-2.979.068-12.924.035-29.044-3.178-47.426-9.428-23.549-34.985-62.783-75.613-111.805-113.264-49.022-37.651-98.395-65.077-138.271-78.804Zm248.148 194.579c-39.877-13.727-89.249-41.153-138.272-78.804-49.022-37.651-88.256-78.278-111.805-113.264-18.381-6.25-34.502-9.463-47.426-9.428-.414.001-.823.006-1.23.014.098.394.2.791.305 1.192 3.473 13.15 11.335 28.795 23.068 45.941 23.445 34.264 61.945 73.952 109.978 110.843 48.033 36.892 96.31 63.852 135.462 77.665 19.592 6.912 36.735 10.473 50.337 10.436.413-.002.823-.006 1.229-.014a80.461 80.461 0 0 0-.304-1.192c-3.3-12.495-10.563-27.242-21.342-43.389Zm24.702 44.456c-2.973-12.494-9.864-27.078-20.104-42.92 18.731 6.061 35.197 8.95 48.319 8.288 1.774 10.368.331 18.512-4.097 24.278-4.667 6.076-12.741 9.63-24.118 10.354Zm.64 2.964c11.649-.823 20.534-4.56 25.857-11.491 5.07-6.601 6.507-15.577 4.722-26.324 10.844-1.049 19.145-4.752 24.215-11.353 24.196-31.504-34.359-117.08-130.787-191.14-96.427-74.06-194.212-108.56-218.407-77.056-5.07 6.602-6.507 15.578-4.723 26.325C49.472 39.415 41.17 43.119 36.1 49.72c-5.323 6.93-6.641 16.479-4.432 27.945-11.649.823-20.534 4.56-25.857 11.49-24.196 31.504 34.36 117.08 130.787 191.14 96.427 74.06 194.212 108.559 218.408 77.056 5.323-6.931 6.641-16.479 4.432-27.945Zm-3.028.147c-41.915 1.142-116.112-32.311-189.523-88.693C93.475 184.477 42.015 121.419 32.307 80.628c-11.376.725-19.45 4.278-24.117 10.355-5.233 6.813-6.296 16.947-2.81 30.148 3.472 13.151 11.334 28.795 23.067 45.942 23.445 34.264 61.945 73.952 109.978 110.843 48.033 36.891 96.31 63.851 135.462 77.664 19.592 6.913 36.735 10.474 50.337 10.436 13.653-.037 23.17-3.679 28.403-10.493 4.666-6.076 6.017-14.792 3.783-25.97ZM34.696 77.518c-2.234-11.178-.884-19.894 3.783-25.97 4.429-5.767 11.924-9.26 22.399-10.222 2.745 12.848 9.784 28.012 20.47 44.545-17.945-5.807-33.813-8.703-46.652-8.353Zm219.812 49.258c74.393 57.137 126.245 121.128 134.947 161.856 10.474-.962 17.97-4.456 22.398-10.222 5.233-6.813 6.297-16.947 2.811-30.148-3.472-13.151-11.335-28.795-23.067-45.941-23.445-34.264-61.946-73.953-109.979-110.844-48.033-36.891-96.309-63.851-135.462-77.664C126.564 6.9 109.421 3.34 95.819 3.377c-13.653.038-23.17 3.68-28.402 10.493-4.429 5.766-5.871 13.91-4.098 24.277 41.594-2.099 116.795 31.491 191.189 88.629Z" fill="#000" fill-opacity=".5"/></svg>