<svg viewBox="0 0 519 352" fill="none" xmlns="http://www.w3.org/2000/svg" id="__root__"><path fill-rule="evenodd" clip-rule="evenodd" d="M424.309 108.808c-36.685 30.873-91.548 63.098-156.052 89.344-64.504 26.245-126.281 41.478-174.099 44.988 36.685-30.874 91.548-63.099 156.052-89.344 64.503-26.246 126.28-41.479 174.099-44.988Zm3.814-3.263c16.756-14.567 29.252-28.672 36.728-41.53a83.063 83.063 0 0 0 1.938-3.52 83.41 83.41 0 0 0-3.847-1.167c-15.219-4.233-35.476-5.52-59.46-3.823-47.934 3.392-110.056 18.65-174.937 45.049-64.88 26.398-120.008 58.847-156.693 89.885-18.355 15.53-31.96 30.594-39.9 44.25a83.342 83.342 0 0 0-1.938 3.521c1.24.41 2.522.799 3.846 1.168 14.33 3.985 33.123 5.359 55.29 4.089 36.965-31.922 93.396-65.379 159.929-92.45 66.533-27.071 130.292-42.517 179.044-45.472ZM90.343 246.402c48.753-2.955 112.512-18.401 179.045-45.472 66.533-27.071 122.963-60.528 159.929-92.45 22.166-1.269 40.961.104 55.289 4.09.654.182 1.298.369 1.931.561-.319.58-.65 1.163-.991 1.75-7.941 13.657-21.545 28.721-39.901 44.251-36.685 31.037-91.812 63.486-156.693 89.885-64.88 26.399-127.003 41.656-174.936 45.048-23.984 1.697-44.241.411-59.46-3.822a87.617 87.617 0 0 1-1.931-.561c.32-.58.65-1.164.99-1.751 7.477-12.857 19.973-26.962 36.728-41.529Zm-40.622 42.339c7.114-13.128 19.351-27.415 35.795-42.085-22.97 1.02-42.372-.858-56.841-5.731-5.17 11.063-6.094 20.703-2.865 28.639 3.401 8.359 11.423 14.855 23.91 19.177Zm-1.394 2.69c-12.731-4.49-21.489-11.379-25.296-20.737-3.626-8.912-2.475-19.356 2.81-30.786-11.763-4.494-19.88-11.167-23.505-20.079-17.306-42.532 74.2-119.95 204.384-172.92C336.903-6.06 456.466-14.52 473.771 28.012c3.627 8.912 2.475 19.356-2.809 30.786 11.763 4.494 19.879 11.167 23.505 20.08 3.807 9.356 2.348 20.402-3.632 32.505 12.731 4.49 21.488 11.379 25.296 20.736 17.305 42.532-74.201 119.951-204.384 172.92C181.564 358.007 62 366.468 44.695 323.936c-3.807-9.357-2.348-20.403 3.632-32.505Zm2.876.952c46.21 14.362 139.447-.13 238.88-40.587 99.433-40.458 176.303-95.179 199.358-137.724 12.488 4.322 20.51 10.818 23.911 19.177 3.822 9.392 1.825 21.173-6.142 34.874-7.941 13.657-21.545 28.721-39.901 44.251-36.685 31.037-91.812 63.486-156.693 89.885-64.88 26.399-127.002 41.656-174.936 45.048-23.984 1.698-44.241.411-59.46-3.822-15.27-4.247-24.925-11.287-28.746-20.679-3.401-8.359-2.194-18.61 3.729-30.423Zm436.756-181.954c5.923-11.812 7.13-22.063 3.729-30.422-3.229-7.935-10.621-14.192-22.045-18.503-6.957 13.591-19.535 28.481-36.692 43.787 22.014-.978 40.75.707 55.008 5.138ZM227.415 97.775C126.65 138.774 49.057 194.42 27.159 237.2c-11.424-4.311-18.816-10.568-22.044-18.503-3.822-9.392-1.825-21.173 6.141-34.874 7.941-13.656 21.545-28.721 39.901-44.25 36.685-31.038 91.812-63.487 156.693-89.886C272.731 23.29 334.853 8.032 382.787 4.64c23.984-1.697 44.241-.41 59.46 3.822 15.269 4.247 24.924 11.287 28.746 20.68 3.228 7.935 2.304 17.575-2.865 28.638-45.544-15.339-139.947-1.005-240.713 39.995Z" fill="#000" fill-opacity=".2"/></svg>