<svg viewBox="0 0 53 52" fill="none" xmlns="http://www.w3.org/2000/svg" id="__root__"><path d="M26.503 4.334c-11.96 0-21.667 9.707-21.667 21.667s9.707 21.666 21.667 21.666 21.666-9.706 21.666-21.666S38.463 4.334 26.503 4.334Zm10.053 14.733c-.325 3.424-1.733 11.744-2.448 15.579-.304 1.625-.91 2.166-1.474 2.231-1.256.109-2.21-.823-3.423-1.625-1.907-1.256-2.99-2.036-4.832-3.25-2.145-1.408-.758-2.188.477-3.445.325-.325 5.872-5.373 5.98-5.828a.432.432 0 0 0-.108-.39c-.13-.108-.304-.065-.455-.043-.195.043-3.229 2.058-9.144 6.045-.866.585-1.646.888-2.34.866-.78-.021-2.253-.433-3.358-.801-1.365-.434-2.427-.672-2.34-1.43.043-.39.585-.78 1.603-1.192 6.327-2.752 10.53-4.572 12.632-5.438 6.023-2.514 7.258-2.947 8.082-2.947.173 0 .585.043.845.26a.86.86 0 0 1 .303.585c-.022.13.022.52 0 .823Z" fill="#D88049"/></svg>