<svg viewBox="0 0 53 52" fill="none" xmlns="http://www.w3.org/2000/svg" id="__root__"><path fill-rule="evenodd" clip-rule="evenodd" d="M36.629 5.692a47.45 47.45 0 0 0-20.702 0l-.735.162a10.627 10.627 0 0 0-7.982 7.757 42.178 42.178 0 0 0 0 20.75 10.628 10.628 0 0 0 7.462 7.627l1.008 6.014a1.083 1.083 0 0 0 1.79.629l5.916-5.294c4.442.272 8.9-.084 13.243-1.055l.737-.162a10.628 10.628 0 0 0 7.982-7.757 42.184 42.184 0 0 0 0-20.75 10.627 10.627 0 0 0-7.984-7.757l-.735-.164Zm-18.874 7.743a1.781 1.781 0 0 0-1.163.23h-.03a8.9 8.9 0 0 0-2.17 1.783c-.52.6-.801 1.207-.875 1.792-.043.347-.013.698.089 1.03l.039.02a25.731 25.731 0 0 0 2.28 4.928 28.98 28.98 0 0 0 4.398 6.012l.052.074.082.06.05.06.06.051a29.391 29.391 0 0 0 6.028 4.42c2.503 1.363 4.021 2.006 4.934 2.275v.013c.266.083.509.12.754.12a3.488 3.488 0 0 0 2.088-.898 8.539 8.539 0 0 0 1.764-2.175v-.015c.436-.824.288-1.6-.34-2.126a26.278 26.278 0 0 0-4.076-2.925c-.97-.526-1.956-.208-2.355.325l-.851 1.075c-.438.533-1.231.46-1.231.46l-.022.012c-5.917-1.51-7.496-7.5-7.496-7.5s-.074-.815.474-1.231l1.066-.858c.512-.416.867-1.4.319-2.37a25.582 25.582 0 0 0-2.919-4.074 1.62 1.62 0 0 0-.953-.57l.004.002Zm9.997-2.604a1.083 1.083 0 1 0 0 2.167c2.741 0 5.016.895 6.817 2.61a9.602 9.602 0 0 1 2.118 3.268 9.43 9.43 0 0 1 .635 3.826 1.086 1.086 0 0 0 1.038 1.129 1.084 1.084 0 0 0 1.129-1.038 11.61 11.61 0 0 0-.782-4.701 11.79 11.79 0 0 0-2.609-4.017l-.021-.022c-2.234-2.134-5.062-3.222-8.325-3.222Zm-.073 3.562a1.083 1.083 0 1 0 0 2.167h.036c1.976.14 3.415.8 4.423 1.88 1.033 1.114 1.568 2.498 1.527 4.21a1.084 1.084 0 1 0 2.167.05c.052-2.247-.672-4.186-2.106-5.733v-.004c-1.467-1.573-3.48-2.405-5.902-2.568l-.037-.004-.108.002Zm-.042 3.63a1.084 1.084 0 1 0-.112 2.162c.905.047 1.484.32 1.848.686.366.369.639.96.689 1.885a1.083 1.083 0 1 0 2.162-.114c-.07-1.3-.476-2.449-1.31-3.294-.84-.845-1.981-1.256-3.277-1.326Z" fill="#D88049"/></svg>