<svg viewBox="0 0 53 52" fill="none" xmlns="http://www.w3.org/2000/svg" id="__root__"><g clip-path="url(#whatsapp_svg__a)"><path fill-rule="evenodd" clip-rule="evenodd" d="M26.503 4.334c-11.967 0-21.667 9.7-21.667 21.667 0 4.095 1.137 7.93 3.116 11.197l-1.933 6.57a2.188 2.188 0 0 0 2.717 2.716l6.57-1.932a21.573 21.573 0 0 0 11.197 3.115c11.966 0 21.666-9.7 21.666-21.666 0-11.967-9.7-21.667-21.666-21.667Zm-4.901 26.57c4.383 4.38 8.567 4.96 10.044 5.013 2.247.083 4.435-1.633 5.287-3.624a1.508 1.508 0 0 0-.19-1.523c-1.188-1.517-2.794-2.607-4.362-3.69a1.54 1.54 0 0 0-2.108.342l-1.3 1.982a.496.496 0 0 1-.661.165c-.882-.505-2.167-1.363-3.09-2.286s-1.729-2.149-2.182-2.975a.492.492 0 0 1 .145-.63l2.002-1.486a1.543 1.543 0 0 0 .26-2.037c-.97-1.421-2.101-3.228-3.741-4.427a1.505 1.505 0 0 0-1.482-.162c-1.994.854-3.718 3.042-3.636 5.293.054 1.478.633 5.662 5.014 10.045Z" fill="#D88049"/></g><defs><clipPath id="whatsapp_svg__a"><path fill="#fff" transform="translate(.5)" d="M0 0h52v52H0z"/></clipPath></defs></svg>