<svg width="48" height="48" viewBox="0 0 48 48" fill="none" xmlns="http://www.w3.org/2000/svg">
<circle cx="24" cy="24" r="23.5" fill="white" stroke="#E8E8E8"/>
<path d="M18.2733 26.1459L17.5572 28.8191L14.94 28.8745C14.1579 27.4237 13.7142 25.7639 13.7142 24.0001C13.7142 22.2945 14.129 20.686 14.8643 19.2698H14.8649L17.1949 19.697L18.2156 22.013C18.002 22.6358 17.8855 23.3044 17.8855 24.0001C17.8856 24.7551 18.0224 25.4785 18.2733 26.1459Z" fill="#FBBB00"/>
<path d="M34.1059 22.0786C34.2241 22.7008 34.2857 23.3434 34.2857 24.0001C34.2857 24.7365 34.2082 25.4548 34.0607 26.1477C33.56 28.5055 32.2517 30.5643 30.4393 32.0213L30.4387 32.0207L27.5039 31.871L27.0886 29.2781C28.2912 28.5728 29.231 27.469 29.7261 26.1477H24.2261V22.0786H29.8064H34.1059Z" fill="#518EF8"/>
<path d="M30.4386 32.0207L30.4391 32.0213C28.6765 33.4381 26.4373 34.2858 23.9998 34.2858C20.0828 34.2858 16.6772 32.0964 14.9399 28.8745L18.2732 26.146C19.1418 28.4642 21.3781 30.1145 23.9998 30.1145C25.1267 30.1145 26.1825 29.8098 27.0884 29.278L30.4386 32.0207Z" fill="#28B446"/>
<path d="M30.5654 16.0823L27.2332 18.8103C26.2957 18.2242 25.1874 17.8857 24 17.8857C21.3189 17.8857 19.0408 19.6116 18.2157 22.013L14.8649 19.2698H14.8644C16.5762 15.9693 20.0248 13.7144 24 13.7144C26.4957 13.7144 28.784 14.6033 30.5654 16.0823Z" fill="#F14336"/>
</svg>
