<svg width="25" height="25" viewBox="0 0 25 25" fill="none" xmlns="http://www.w3.org/2000/svg">
<circle cx="12.5" cy="12.5" r="12.5" fill="#74C2EE"/>
<g clip-path="url(#clip0_1915_153853)">
<path d="M12.5 8.59375C11.3411 8.59375 10.2083 8.9374 9.24471 9.58123C8.28114 10.2251 7.53013 11.1402 7.08665 12.2108C6.64316 13.2815 6.52713 14.4596 6.75321 15.5962C6.9793 16.7328 7.53735 17.7769 8.3568 18.5963C9.17625 19.4158 10.2203 19.9738 11.3569 20.1999C12.4935 20.426 13.6716 20.31 14.7423 19.8665C15.8129 19.423 16.7281 18.672 17.3719 17.7084C18.0157 16.7448 18.3594 15.612 18.3594 14.4531C18.3576 12.8997 17.7397 11.4103 16.6412 10.3119C15.5428 9.21342 14.0535 8.59552 12.5 8.59375ZM16.4062 14.7321L11.7207 15.0929C11.6467 15.0929 11.5758 15.0635 11.5234 15.0111C11.4711 14.9588 11.4417 14.8878 11.4417 14.8138L12.221 10.5469H12.779V14.1741H16.4062V14.7321Z" fill="white"/>
<path d="M13.2324 7.61719C13.2972 7.61719 13.3593 7.60004 13.4051 7.56952C13.4508 7.53899 13.4766 7.49759 13.4766 7.45443V7.29167C13.4766 7.119 13.3737 6.9534 13.1905 6.83131C13.0074 6.70922 12.759 6.64062 12.5 6.64062C12.241 6.64062 11.9926 6.70922 11.8095 6.83131C11.6263 6.9534 11.5234 7.119 11.5234 7.29167V7.45443C11.5234 7.49759 11.5492 7.53899 11.5949 7.56952C11.6407 7.60004 11.7028 7.61719 11.7676 7.61719H13.2324Z" fill="white"/>
<path d="M15.7202 6.44069L15.537 6.62389C15.4683 6.6926 15.4297 6.78578 15.4297 6.88293C15.4297 6.98009 15.4683 7.07327 15.537 7.14198L18.8346 10.4396C18.9033 10.5083 18.9965 10.5469 19.0936 10.5469C19.1908 10.5469 19.284 10.5083 19.3527 10.4396L19.5359 10.2564C20.0359 9.74916 20.315 9.0648 20.3125 8.35256C20.3099 7.64031 20.0259 6.95798 19.5222 6.45434C19.0186 5.95071 18.3362 5.66664 17.624 5.66408C16.9118 5.66152 16.2274 5.94068 15.7202 6.44069Z" fill="white"/>
<path d="M5.46412 10.2564L5.64733 10.4396C5.71604 10.5083 5.80921 10.5469 5.90637 10.5469C6.00353 10.5469 6.09671 10.5083 6.16542 10.4396L9.46303 7.14198C9.53172 7.07327 9.57031 6.98009 9.57031 6.88293C9.57031 6.78578 9.53172 6.6926 9.46303 6.62389L9.27983 6.44069C8.7726 5.94068 8.08823 5.66152 7.37599 5.66408C6.66375 5.66664 5.98141 5.95071 5.47778 6.45434C4.97415 6.95798 4.69008 7.64031 4.68752 8.35256C4.68496 9.0648 4.96412 9.74916 5.46412 10.2564Z" fill="white"/>
</g>
<path d="M25 12.5C25 14.1415 24.6767 15.767 24.0485 17.2835C23.4203 18.8001 22.4996 20.1781 21.3388 21.3388C20.1781 22.4996 18.8001 23.4203 17.2835 24.0485C15.767 24.6767 14.1415 25 12.5 25C10.8585 25 9.23303 24.6767 7.71646 24.0485C6.19989 23.4203 4.8219 22.4996 3.66116 21.3388C2.50043 20.1781 1.57969 18.8001 0.951505 17.2835C0.323322 15.767 -1.43506e-07 14.1415 0 12.5L12.5 12.5H25Z" fill="#74C2EE"/>
<path fill-rule="evenodd" clip-rule="evenodd" d="M12.5 12.5H11.8643L11.4417 14.8138C11.4417 14.8878 11.4711 14.9588 11.5234 15.0111C11.5758 15.0635 11.6467 15.0929 11.7207 15.0929L16.4062 14.7321V14.1741H12.779V12.5H12.5ZM6.75321 15.5962C6.54731 14.5611 6.62517 13.4915 6.97573 12.5H0C0 14.1415 0.323322 15.767 0.951505 17.2835C1.57969 18.8001 2.50043 20.1781 3.66116 21.3388C4.8219 22.4996 6.19989 23.4203 7.71646 24.0485C9.23303 24.6767 10.8585 25 12.5 25C14.1415 25 15.767 24.6767 17.2835 24.0485C18.8001 23.4203 20.1781 22.4996 21.3388 21.3388C22.4996 20.1781 23.4203 18.8001 24.0485 17.2835C24.6767 15.767 25 14.1415 25 12.5H18.0223C18.2426 13.1214 18.3586 13.7813 18.3594 14.4531C18.3594 15.612 18.0157 16.7448 17.3719 17.7084C16.7281 18.672 15.8129 19.423 14.7423 19.8665C13.6716 20.31 12.4935 20.426 11.3569 20.1999C10.2203 19.9738 9.17625 19.4158 8.3568 18.5963C7.53735 17.7769 6.9793 16.7328 6.75321 15.5962Z" fill="white"/>
<circle cx="12.5" cy="12.5" r="12.25" stroke="#74C2EE" stroke-width="0.5"/>
<defs>
<clipPath id="clip0_1915_153853">
<rect width="15.625" height="15.625" fill="white" transform="translate(4.6875 4.6875)"/>
</clipPath>
</defs>
</svg>
