<svg width="25" height="25" viewBox="0 0 25 25" fill="none" xmlns="http://www.w3.org/2000/svg">
<circle cx="12.5" cy="12.5" r="12.25" fill="white" stroke="#74C2EE" stroke-width="0.5"/>
<g clip-path="url(#clip0_1915_153873)">
<path d="M12.5 8.59375C11.3411 8.59375 10.2083 8.9374 9.24471 9.58123C8.28114 10.2251 7.53013 11.1402 7.08665 12.2108C6.64316 13.2815 6.52713 14.4596 6.75321 15.5962C6.9793 16.7328 7.53735 17.7769 8.3568 18.5963C9.17625 19.4158 10.2203 19.9738 11.3569 20.1999C12.4935 20.426 13.6716 20.31 14.7423 19.8665C15.8129 19.423 16.7281 18.672 17.3719 17.7084C18.0157 16.7448 18.3594 15.612 18.3594 14.4531C18.3576 12.8997 17.7397 11.4103 16.6412 10.3119C15.5428 9.21342 14.0535 8.59552 12.5 8.59375ZM16.4062 14.7321L11.7207 15.0929C11.6467 15.0929 11.5758 15.0635 11.5234 15.0111C11.4711 14.9588 11.4417 14.8878 11.4417 14.8138L12.221 10.5469H12.779V14.1741H16.4062V14.7321Z" fill="#74C2EE"/>
<path d="M13.2324 7.61719C13.2972 7.61719 13.3593 7.60004 13.4051 7.56952C13.4508 7.53899 13.4766 7.49759 13.4766 7.45443V7.29167C13.4766 7.119 13.3737 6.9534 13.1905 6.83131C13.0074 6.70922 12.759 6.64062 12.5 6.64062C12.241 6.64062 11.9926 6.70922 11.8095 6.83131C11.6263 6.9534 11.5234 7.119 11.5234 7.29167V7.45443C11.5234 7.49759 11.5492 7.53899 11.5949 7.56952C11.6407 7.60004 11.7028 7.61719 11.7676 7.61719H13.2324Z" fill="#74C2EE"/>
<path d="M15.7202 6.44069L15.537 6.62389C15.4683 6.6926 15.4297 6.78578 15.4297 6.88293C15.4297 6.98009 15.4683 7.07327 15.537 7.14198L18.8346 10.4396C18.9033 10.5083 18.9965 10.5469 19.0936 10.5469C19.1908 10.5469 19.284 10.5083 19.3527 10.4396L19.5359 10.2564C20.0359 9.74916 20.315 9.0648 20.3125 8.35256C20.3099 7.64031 20.0259 6.95798 19.5222 6.45434C19.0186 5.95071 18.3362 5.66664 17.624 5.66408C16.9118 5.66152 16.2274 5.94068 15.7202 6.44069Z" fill="#74C2EE"/>
<path d="M5.46412 10.2564L5.64733 10.4396C5.71604 10.5083 5.80921 10.5469 5.90637 10.5469C6.00353 10.5469 6.09671 10.5083 6.16542 10.4396L9.46303 7.14198C9.53172 7.07327 9.57031 6.98009 9.57031 6.88293C9.57031 6.78578 9.53172 6.6926 9.46303 6.62389L9.27983 6.44069C8.7726 5.94068 8.08823 5.66152 7.37599 5.66408C6.66375 5.66664 5.98141 5.95071 5.47778 6.45434C4.97415 6.95798 4.69008 7.64031 4.68752 8.35256C4.68496 9.0648 4.96412 9.74916 5.46412 10.2564Z" fill="#74C2EE"/>
</g>
<defs>
<clipPath id="clip0_1915_153873">
<rect width="15.625" height="15.625" fill="white" transform="translate(4.6875 4.6875)"/>
</clipPath>
</defs>
</svg>
