<svg width="25" height="25" viewBox="0 0 25 25" fill="none" xmlns="http://www.w3.org/2000/svg">
<ellipse cx="12.4886" cy="12.5" rx="12.4886" ry="12.5" fill="#EDC14F"/>
<path d="M4.47734 9.83691C3.01383 9.83691 1.81641 11.0354 1.81641 12.5003C1.81641 13.9651 3.01383 15.1636 4.47734 15.1636C5.94085 15.1636 7.13827 13.9651 7.13827 12.5003C7.13827 11.0354 5.94085 9.83691 4.47734 9.83691ZM20.4429 9.83691C18.9794 9.83691 17.782 11.0354 17.782 12.5003C17.782 13.9651 18.9794 15.1636 20.4429 15.1636C21.9064 15.1636 23.1039 13.9651 23.1039 12.5003C23.1039 11.0354 21.9064 9.83691 20.4429 9.83691ZM12.4601 9.83691C10.9966 9.83691 9.7992 11.0354 9.7992 12.5003C9.7992 13.9651 10.9966 15.1636 12.4601 15.1636C13.9236 15.1636 15.1211 13.9651 15.1211 12.5003C15.1211 11.0354 13.9236 9.83691 12.4601 9.83691Z" fill="white"/>
<mask id="path-3-inside-1_1931_166902" fill="white">
<path d="M25.0002 12.5C25.0002 14.1415 24.6772 15.767 24.0496 17.2835C23.422 18.8001 22.5021 20.1781 21.3424 21.3388C20.1827 22.4996 18.806 23.4203 17.2908 24.0485C15.7756 24.6767 14.1516 25 12.5116 25C10.8716 25 9.24758 24.6767 7.73239 24.0485C6.2172 23.4203 4.84046 22.4996 3.68079 21.3388C2.52111 20.1781 1.6012 18.8001 0.97359 17.2835C0.345977 15.767 0.0229491 14.1415 0.0229492 12.5L12.5116 12.5H25.0002Z"/>
</mask>
<path d="M25.0002 12.5C25.0002 14.1415 24.6772 15.767 24.0496 17.2835C23.422 18.8001 22.5021 20.1781 21.3424 21.3388C20.1827 22.4996 18.806 23.4203 17.2908 24.0485C15.7756 24.6767 14.1516 25 12.5116 25C10.8716 25 9.24758 24.6767 7.73239 24.0485C6.2172 23.4203 4.84046 22.4996 3.68079 21.3388C2.52111 20.1781 1.6012 18.8001 0.97359 17.2835C0.345977 15.767 0.0229491 14.1415 0.0229492 12.5L12.5116 12.5H25.0002Z" fill="white" stroke="#EDC14F" mask="url(#path-3-inside-1_1931_166902)"/>
<path fill-rule="evenodd" clip-rule="evenodd" d="M23.0923 12.4544C23.09 13.9173 21.8935 15.1135 20.4314 15.1135C18.9693 15.1135 17.7727 13.9173 17.7704 12.4544H23.0923ZM20.6444 9.79534C20.5741 9.7897 20.503 9.78682 20.4314 9.78682C20.3597 9.78682 20.2886 9.7897 20.2183 9.79534H20.6444ZM12.6616 9.79534C12.5913 9.7897 12.5202 9.78682 12.4486 9.78682C12.3769 9.78682 12.3058 9.7897 12.2356 9.79534H12.6616ZM4.67879 9.79534C4.60849 9.7897 4.53745 9.78682 4.46577 9.78682C4.39409 9.78682 4.32305 9.7897 4.25276 9.79534H4.67879ZM1.80484 12.4544H7.1267C7.12438 13.9173 5.92787 15.1135 4.46577 15.1135C3.00368 15.1135 1.80716 13.9173 1.80484 12.4544ZM9.78764 12.4544H15.1095C15.1072 13.9173 13.9107 15.1135 12.4486 15.1135C10.9865 15.1135 9.78995 13.9173 9.78764 12.4544Z" fill="#EDC14F"/>
</svg>
