<svg width="25" height="25" viewBox="0 0 25 25" fill="none" xmlns="http://www.w3.org/2000/svg">
<circle cx="12.5" cy="12.5" r="12.25" fill="white" stroke="#EDC14F" stroke-width="0.5"/>
<path d="M4.48171 9.83667C3.01687 9.83667 1.81836 11.0352 1.81836 12.5C1.81836 13.9649 3.01687 15.1634 4.48171 15.1634C5.94656 15.1634 7.14506 13.9649 7.14506 12.5C7.14506 11.0352 5.94656 9.83667 4.48171 9.83667ZM20.4618 9.83667C18.997 9.83667 17.7985 11.0352 17.7985 12.5C17.7985 13.9649 18.997 15.1634 20.4618 15.1634C21.9267 15.1634 23.1252 13.9649 23.1252 12.5C23.1252 11.0352 21.9267 9.83667 20.4618 9.83667ZM12.4718 9.83667C11.0069 9.83667 9.80842 11.0352 9.80842 12.5C9.80842 13.9649 11.0069 15.1634 12.4718 15.1634C13.9366 15.1634 15.1351 13.9649 15.1351 12.5C15.1351 11.0352 13.9366 9.83667 12.4718 9.83667Z" fill="#EDC14F"/>
</svg>
