<svg width="19" height="23" viewBox="0 0 19 23" fill="none" xmlns="http://www.w3.org/2000/svg">
<path fill-rule="evenodd" clip-rule="evenodd" d="M11.3172 21.8471C10.6384 21.9768 9.94602 22.0428 9.24509 22.0428C5.77696 22.0428 2.5199 20.4266 0.0737681 17.4917L0 17.4026L0.0174174 17.2884C0.489738 14.2075 2.09932 11.7327 4.54954 10.3183L4.72372 10.2179L4.86255 10.3634C6.01978 11.5775 7.57609 12.2455 9.24458 12.2455C10.9131 12.2455 12.4694 11.577 13.6266 10.3634L13.7654 10.2179L13.9396 10.3183C14.3129 10.5338 14.6667 10.7739 15 11.0371C14.7577 11.0542 14.5193 11.0853 14.2854 11.1295C14.1443 11.0313 13.9998 10.9373 13.852 10.8475C13.6241 11.0732 13.3828 11.2802 13.1298 11.4678C12.6248 11.6711 12.1527 11.939 11.7238 12.2613C10.948 12.579 10.11 12.7455 9.24458 12.7455C7.50351 12.7455 5.87309 12.0721 4.63711 10.8475C2.45101 12.1756 0.989955 14.4284 0.528749 17.256C2.8822 20.0361 5.97455 21.5428 9.24509 21.5428C9.79577 21.5428 10.3414 21.5001 10.8794 21.4157C11.0181 21.5666 11.1642 21.7106 11.3172 21.8471ZM14.249 5.50443C14.249 8.26303 12.0037 10.5083 9.24509 10.5083C6.48658 10.5083 4.24117 8.26209 4.24117 5.50392C4.24117 2.74581 6.48652 0.5 9.24509 0.5C12.0036 0.5 14.249 2.74578 14.249 5.50443ZM9.24509 11.0083C12.2798 11.0083 14.749 8.53917 14.749 5.50443C14.749 2.46969 12.2798 0 9.24509 0C6.21035 0 3.74117 2.46969 3.74117 5.50392C3.74117 8.53814 6.21035 11.0083 9.24509 11.0083Z" fill="#383F43"/>
<path d="M15.1016 16.8203H14.6016V17.3203H15.1016V16.8203ZM18.3203 16.8203H18.8203V16.3203H18.3203V16.8203ZM18.3203 17.8984V18.3984H18.8203V17.8984H18.3203ZM15.1016 17.8984V17.3984H14.6016V17.8984H15.1016ZM15.1016 21.2266V21.7266H15.6016V21.2266H15.1016ZM14.0156 21.2266H13.5156V21.7266H14.0156V21.2266ZM14.0156 17.8984H14.5156V17.3984H14.0156V17.8984ZM10.8125 17.8984H10.3125V18.3984H10.8125V17.8984ZM10.8125 16.8203V16.3203H10.3125V16.8203H10.8125ZM14.0156 16.8203V17.3203H14.5156V16.8203H14.0156ZM14.0156 13.4766V12.9766H13.5156V13.4766H14.0156ZM15.1016 13.4766H15.6016V12.9766H15.1016V13.4766ZM15.1016 17.3203H18.3203V16.3203H15.1016V17.3203ZM17.8203 16.8203V17.8984H18.8203V16.8203H17.8203ZM18.3203 17.3984H15.1016V18.3984H18.3203V17.3984ZM14.6016 17.8984V21.2266H15.6016V17.8984H14.6016ZM15.1016 20.7266H14.0156V21.7266H15.1016V20.7266ZM14.5156 21.2266V17.8984H13.5156V21.2266H14.5156ZM14.0156 17.3984H10.8125V18.3984H14.0156V17.3984ZM11.3125 17.8984V16.8203H10.3125V17.8984H11.3125ZM10.8125 17.3203H14.0156V16.3203H10.8125V17.3203ZM14.5156 16.8203V13.4766H13.5156V16.8203H14.5156ZM14.0156 13.9766H15.1016V12.9766H14.0156V13.9766ZM14.6016 13.4766V16.8203H15.6016V13.4766H14.6016Z" fill="#383F43"/>
</svg>
