<svg width="18" height="18" viewBox="0 0 18 18" fill="none" xmlns="http://www.w3.org/2000/svg">
<path fill-rule="evenodd" clip-rule="evenodd" d="M6.53978 0.503534C6.42117 0.517628 6.28473 0.58952 6.15602 0.705752C6.12548 0.733335 5.87097 0.977686 5.59044 1.24876C5.3099 1.51984 3.98735 2.79722 2.65142 4.08739C1.31549 5.37755 0.199732 6.46251 0.171958 6.4984C-0.0177332 6.74353 -0.049335 6.9632 0.0714566 7.197C0.155657 7.35997 0.17211 7.37648 2.1503 9.28491C3.20081 10.2984 4.52162 11.5733 5.08543 12.118C5.64924 12.6627 6.13781 13.1322 6.17114 13.1613C6.26279 13.2413 6.33217 13.2855 6.42254 13.3215C6.52327 13.3616 6.64879 13.3672 6.74682 13.3361C6.9175 13.2818 7.06348 13.1587 7.12996 13.0129C7.20607 12.846 7.2013 12.9508 7.2013 11.446C7.2013 9.92884 7.20558 10.0178 7.1243 9.84371C7.02295 9.62667 6.84229 9.50606 6.61553 9.50402C6.43276 9.50238 6.31571 9.55151 6.19535 9.6804C6.13794 9.74185 6.10945 9.78312 6.08249 9.84381C6.00982 10.0074 6.01155 9.98911 6.00518 10.6593L5.99945 11.2638L3.78763 9.12929C2.57113 7.95532 1.56081 6.97907 1.54248 6.95986L1.50916 6.92493L3.74725 4.76599C4.9782 3.57856 5.98937 2.60551 5.99429 2.60365C5.99939 2.60172 6.00479 2.85332 6.00685 3.18822L6.01046 3.77618L6.03679 3.87998C6.05126 3.93708 6.07551 4.01001 6.09066 4.04206C6.12967 4.12459 6.22724 4.22523 6.30849 4.26672C6.44672 4.33731 6.51568 4.34688 7.10403 4.37712C7.47887 4.39639 7.87511 4.44273 8.27187 4.51372C10.158 4.85123 11.8879 5.72803 13.3318 7.07833C13.5451 7.27787 14.0544 7.82265 14.2371 8.04679C14.7871 8.72153 15.2076 9.3739 15.6044 10.168C16.091 11.1416 16.4826 12.3537 16.6486 13.3999C16.6942 13.687 16.7409 14.1728 16.74 14.3507L16.7397 14.4284L16.6837 14.3647C15.6255 13.1611 15.2163 12.7265 14.675 12.2315C13.0268 10.7241 11.3472 9.85176 9.56967 9.58001C9.15815 9.5171 9.01023 9.51088 8.86774 9.55054C8.57578 9.63177 8.4049 9.86178 8.40454 10.174C8.40434 10.3464 8.45739 10.481 8.57063 10.5955C8.69548 10.7218 8.83873 10.7797 9.10542 10.8121C10.7869 11.0157 12.3345 11.7971 13.9075 13.2368C14.9772 14.2159 15.8811 15.312 16.7449 16.6778C16.8782 16.8885 16.9295 16.9601 16.9956 17.0279C17.1611 17.1974 17.3202 17.2471 17.5272 17.1939C17.7878 17.127 17.938 16.9582 17.9888 16.6755C18.0007 16.6087 18.0022 16.4661 17.9975 15.8257C17.9883 14.5643 17.9701 14.2751 17.8509 13.492C17.5027 11.2035 16.7391 9.27916 15.5427 7.67475C15.2846 7.32871 15.1031 7.11309 14.7616 6.74702C14.3688 6.32605 14.0864 6.05887 13.6779 5.72199C12.8476 5.03712 11.8535 4.42205 10.7867 3.93315C9.78046 3.472 8.77997 3.2215 7.45884 3.09993C7.32831 3.08791 7.21827 3.07806 7.21432 3.07802C7.21037 3.07797 7.20577 2.62369 7.20409 2.06847L7.20105 1.05901L7.17289 0.961577C7.13835 0.842098 7.09839 0.769145 7.0251 0.69183C6.89355 0.553027 6.71297 0.482965 6.53978 0.503534Z" fill="#A0627B"/>
</svg>
