<svg width="25" height="25" viewBox="0 0 25 25" fill="none" xmlns="http://www.w3.org/2000/svg">
<circle cx="12.5" cy="12.5" r="12.5" fill="#6A7EE9"/>
<path d="M15.6076 10.8498C15.6076 10.7733 15.6395 10.6976 15.6999 10.6402C15.7607 10.5825 15.8452 10.5484 15.9354 10.5484H16.9909C17.0811 10.5484 17.1656 10.5825 17.2264 10.6402C17.2868 10.6976 17.3187 10.7733 17.3187 10.8498V11.8526C17.3187 11.9291 17.2868 12.0047 17.2264 12.0621C17.1656 12.1198 17.0811 12.1539 16.9909 12.1539H15.9354C15.8452 12.1539 15.7607 12.1198 15.6999 12.0621C15.6395 12.0047 15.6076 11.9291 15.6076 11.8526V10.8498ZM12.4409 10.8498C12.4409 10.7733 12.4728 10.6976 12.5332 10.6402C12.594 10.5825 12.6785 10.5484 12.7687 10.5484H13.8242C13.9144 10.5484 13.9989 10.5825 14.0597 10.6402C14.1201 10.6976 14.152 10.7733 14.152 10.8498V11.8526C14.152 11.9291 14.1201 12.0047 14.0597 12.0621C13.9989 12.1198 13.9144 12.1539 13.8242 12.1539H12.7687C12.6785 12.1539 12.594 12.1198 12.5332 12.0621C12.4728 12.0047 12.4409 11.9291 12.4409 11.8526V10.8498ZM7.25547 15.0704L7.11882 15.2143L7.25547 15.0704C7.19504 15.013 7.16313 14.9374 7.16313 14.8609V13.8581C7.16313 13.7816 7.19504 13.706 7.25547 13.6486C7.31624 13.5908 7.40076 13.5567 7.49091 13.5567H8.54647C8.63662 13.5567 8.72114 13.5908 8.78191 13.6486C8.84234 13.706 8.87425 13.7816 8.87425 13.8581V14.8609C8.87425 14.9374 8.84234 15.013 8.78191 15.0704C8.72114 15.1282 8.63662 15.1623 8.54647 15.1623H7.49091C7.40076 15.1623 7.31624 15.1282 7.25547 15.0704ZM10.4221 15.0704L10.2844 15.2154L10.4221 15.0704C10.3617 15.013 10.3298 14.9374 10.3298 14.8609V13.8581C10.3298 13.7816 10.3617 13.706 10.4221 13.6486C10.4829 13.5908 10.5674 13.5567 10.6576 13.5567H11.7131C11.8033 13.5567 11.8878 13.5908 11.9486 13.6486C12.009 13.706 12.0409 13.7816 12.0409 13.8581V14.8609C12.0409 14.9374 12.009 15.013 11.9486 15.0704C11.8878 15.1282 11.8033 15.1623 11.7131 15.1623H10.6576C10.5674 15.1623 10.4829 15.1282 10.4221 15.0704Z" stroke="white" stroke-width="0.4"/>
<path d="M8.07037 5.91921V6.21921H8.37037H16.1111H16.4111V5.91921V5.45961C16.4111 5.42238 16.4265 5.38337 16.4594 5.35212C16.4929 5.32036 16.5413 5.3 16.5949 5.3C16.6485 5.3 16.697 5.32036 16.7304 5.35212C16.7633 5.38337 16.7787 5.42239 16.7787 5.45961V5.91921V6.21921H17.0787H18.0463C18.4848 6.21921 18.9024 6.38484 19.2081 6.67518C19.5131 6.96501 19.6815 7.35473 19.6815 7.75764V17.869C19.6815 18.2719 19.5131 18.6616 19.2081 18.9514C18.9024 19.2418 18.4848 19.4074 18.0463 19.4074H6.43519C5.99668 19.4074 5.57904 19.2418 5.27343 18.9514C4.96834 18.6616 4.8 18.2719 4.8 17.869V7.75764C4.8 7.35473 4.96834 6.96501 5.27343 6.67518C5.57904 6.38484 5.99668 6.21921 6.43519 6.21921H7.40278H7.70278V5.91921V5.45961C7.70278 5.42239 7.7182 5.38337 7.7511 5.35212C7.78453 5.32036 7.833 5.3 7.88657 5.3C7.94014 5.3 7.98862 5.32036 8.02204 5.35212C8.05495 5.38337 8.07037 5.42239 8.07037 5.45961V5.91921ZM5.46759 8.37685H5.16759V8.67685V17.869C5.16759 18.1974 5.30508 18.5091 5.54437 18.7365C5.78313 18.9633 6.10382 19.0882 6.43519 19.0882H18.0463C18.3777 19.0882 18.6984 18.9633 18.9371 18.7365C19.1764 18.5091 19.3139 18.1974 19.3139 17.869V8.67685V8.37685H19.0139H5.46759Z" stroke="white" stroke-width="0.6"/>
</svg>
