<svg width="27" height="27" viewBox="0 0 27 27" fill="none" xmlns="http://www.w3.org/2000/svg">
<circle cx="13.5" cy="13.5" r="12.75" fill="#6A7EE9" stroke="#6A7EE9" stroke-width="0.5"/>
<path d="M16.6076 11.8498C16.6076 11.7733 16.6395 11.6976 16.6999 11.6402C16.7607 11.5825 16.8452 11.5484 16.9354 11.5484H17.9909C18.0811 11.5484 18.1656 11.5825 18.2264 11.6402C18.2868 11.6976 18.3187 11.7733 18.3187 11.8498V12.8526C18.3187 12.9291 18.2868 13.0047 18.2264 13.0621C18.1656 13.1198 18.0811 13.1539 17.9909 13.1539H16.9354C16.8452 13.1539 16.7607 13.1198 16.6999 13.0621C16.6395 13.0047 16.6076 12.9291 16.6076 12.8526V11.8498ZM13.4409 11.8498C13.4409 11.7733 13.4728 11.6976 13.5332 11.6402C13.594 11.5825 13.6785 11.5484 13.7687 11.5484H14.8242C14.9144 11.5484 14.9989 11.5825 15.0597 11.6402C15.1201 11.6976 15.152 11.7733 15.152 11.8498V12.8526C15.152 12.9291 15.1201 13.0047 15.0597 13.0621C14.9989 13.1198 14.9144 13.1539 14.8242 13.1539H13.7687C13.6785 13.1539 13.594 13.1198 13.5332 13.0621C13.4728 13.0047 13.4409 12.9291 13.4409 12.8526V11.8498ZM8.25547 16.0704L8.11882 16.2143L8.25547 16.0704C8.19504 16.013 8.16313 15.9374 8.16313 15.8609V14.8581C8.16313 14.7816 8.19504 14.706 8.25547 14.6486C8.31624 14.5908 8.40076 14.5567 8.49091 14.5567H9.54647C9.63662 14.5567 9.72114 14.5908 9.78191 14.6486C9.84234 14.706 9.87425 14.7816 9.87425 14.8581V15.8609C9.87425 15.9374 9.84234 16.013 9.78191 16.0704C9.72114 16.1282 9.63662 16.1623 9.54647 16.1623H8.49091C8.40076 16.1623 8.31624 16.1282 8.25547 16.0704ZM11.4221 16.0704L11.2844 16.2154L11.4221 16.0704C11.3617 16.013 11.3298 15.9374 11.3298 15.8609V14.8581C11.3298 14.7816 11.3617 14.706 11.4221 14.6486C11.4829 14.5908 11.5674 14.5567 11.6576 14.5567H12.7131C12.8033 14.5567 12.8878 14.5908 12.9486 14.6486C13.009 14.706 13.0409 14.7816 13.0409 14.8581V15.8609C13.0409 15.9374 13.009 16.013 12.9486 16.0704C12.8878 16.1282 12.8033 16.1623 12.7131 16.1623H11.6576C11.5674 16.1623 11.4829 16.1282 11.4221 16.0704Z" stroke="white" stroke-width="0.4"/>
<path d="M9.07037 6.91921V7.21921H9.37037H17.1111H17.4111V6.91921V6.45961C17.4111 6.42238 17.4265 6.38337 17.4594 6.35212C17.4929 6.32036 17.5413 6.3 17.5949 6.3C17.6485 6.3 17.697 6.32036 17.7304 6.35212C17.7633 6.38337 17.7787 6.42239 17.7787 6.45961V6.91921V7.21921H18.0787H19.0463C19.4848 7.21921 19.9024 7.38484 20.2081 7.67518C20.5131 7.96501 20.6815 8.35473 20.6815 8.75764V18.869C20.6815 19.2719 20.5131 19.6616 20.2081 19.9514C19.9024 20.2418 19.4848 20.4074 19.0463 20.4074H7.43519C6.99668 20.4074 6.57904 20.2418 6.27343 19.9514C5.96834 19.6616 5.8 19.2719 5.8 18.869V8.75764C5.8 8.35473 5.96834 7.96501 6.27343 7.67518C6.57904 7.38484 6.99668 7.21921 7.43519 7.21921H8.40278H8.70278V6.91921V6.45961C8.70278 6.42239 8.7182 6.38337 8.7511 6.35212C8.78453 6.32036 8.833 6.3 8.88657 6.3C8.94014 6.3 8.98862 6.32036 9.02204 6.35212C9.05495 6.38337 9.07037 6.42239 9.07037 6.45961V6.91921ZM6.46759 9.37685H6.16759V9.67685V18.869C6.16759 19.1974 6.30508 19.5091 6.54437 19.7365C6.78313 19.9633 7.10382 20.0882 7.43519 20.0882H19.0463C19.3777 20.0882 19.6984 19.9633 19.9371 19.7365C20.1764 19.5091 20.3139 19.1974 20.3139 18.869V9.67685V9.37685H20.0139H6.46759Z" stroke="white" stroke-width="0.6"/>
<path d="M26 13.5C26 16.8152 24.683 19.9946 22.3388 22.3388C19.9946 24.683 16.8152 26 13.5 26C10.1848 26 7.00537 24.683 4.66117 22.3388C2.31696 19.9946 1 16.8152 1 13.5L13.5 13.5L26 13.5Z" fill="#6A7EE9"/>
<path fill-rule="evenodd" clip-rule="evenodd" d="M5.5 13.5H1C1 16.8152 2.31696 19.9946 4.66117 22.3388C7.00537 24.683 10.1848 26 13.5 26C16.8152 26 19.9946 24.683 22.3388 22.3388C24.683 19.9946 26 16.8152 26 13.5H20.9815V18.869C20.9815 19.3566 20.7776 19.8242 20.4147 20.1689C20.0518 20.5137 19.5595 20.7074 19.0463 20.7074H7.43519C6.92194 20.7074 6.42972 20.5137 6.0668 20.1689C5.70389 19.8242 5.5 19.3566 5.5 18.869V13.5ZM6.46759 13.5H13.5H20.0139V18.869C20.0139 19.1128 19.9119 19.3466 19.7305 19.519C19.549 19.6913 19.3029 19.7882 19.0463 19.7882H7.43519C7.17856 19.7882 6.93245 19.6913 6.75099 19.519C6.56954 19.3466 6.46759 19.1128 6.46759 18.869V13.5ZM8.39316 14.7937C8.37128 14.8145 8.36308 14.8381 8.36308 14.8582V15.861C8.36308 15.8811 8.37128 15.9047 8.39316 15.9255C8.41573 15.947 8.45053 15.9624 8.49086 15.9624H9.54641C9.58673 15.9624 9.62153 15.947 9.64411 15.9255C9.66598 15.9047 9.67419 15.8811 9.67419 15.861V14.8582C9.67419 14.8381 9.66598 14.8145 9.64411 14.7937C9.62153 14.7722 9.58673 14.7568 9.54641 14.7568H8.49086C8.45053 14.7568 8.41573 14.7722 8.39316 14.7937ZM11.5598 14.7937C11.538 14.8145 11.5297 14.8381 11.5297 14.8582V15.861C11.5297 15.8811 11.538 15.9047 11.5598 15.9255C11.5824 15.947 11.6172 15.9624 11.6575 15.9624H12.7131C12.7534 15.9624 12.7882 15.947 12.8108 15.9255C12.8327 15.9047 12.8409 15.8811 12.8409 15.861V14.8582C12.8409 14.8381 12.8327 14.8145 12.8108 14.7937C12.7882 14.7722 12.7534 14.7568 12.7131 14.7568H11.6575C11.6172 14.7568 11.5824 14.7722 11.5598 14.7937ZM8.11766 14.5037C8.01868 14.5977 7.96308 14.7252 7.96308 14.8582V15.861C7.96308 15.994 8.01868 16.1215 8.11766 16.2155C8.21664 16.3095 8.35088 16.3624 8.49086 16.3624H9.54641C9.68639 16.3624 9.82063 16.3095 9.91961 16.2155C10.0186 16.1215 10.0742 15.994 10.0742 15.861V14.8582C10.0742 14.7252 10.0186 14.5977 9.91961 14.5037C9.82063 14.4096 9.68639 14.3568 9.54641 14.3568H8.49086C8.35088 14.3568 8.21664 14.4096 8.11766 14.5037ZM11.2843 14.5037C11.1853 14.5977 11.1297 14.7252 11.1297 14.8582V15.861C11.1297 15.994 11.1853 16.1215 11.2843 16.2155C11.3833 16.3095 11.5175 16.3624 11.6575 16.3624H12.7131C12.8531 16.3624 12.9873 16.3095 13.0863 16.2155C13.1853 16.1215 13.2409 15.994 13.2409 15.861V14.8582C13.2409 14.7252 13.1853 14.5977 13.0863 14.5037C12.9873 14.4096 12.8531 14.3568 12.7131 14.3568H11.6575C11.5175 14.3568 11.3833 14.4096 11.2843 14.5037Z" fill="white"/>
</svg>
