<svg width="21" height="15" viewBox="0 0 21 15" fill="none" xmlns="http://www.w3.org/2000/svg">
<path d="M15.646 0.204645L15.646 0.204645C15.939 0.196565 16.2321 0.199027 16.5249 0.212024L16.5249 0.212025C17.8614 0.271266 19.1809 0.53433 20.438 0.992113C20.438 0.992124 20.438 0.992135 20.4381 0.992146L20.8 1.12416V13.5181L20.067 13.2587C20.0668 13.2586 20.0666 13.2586 20.0665 13.2585C18.9109 12.8445 17.7009 12.6022 16.475 12.5392L16.4742 12.5392C14.162 12.4303 12.4644 13.0177 10.7013 13.6279L10.6868 13.6329L10.6866 13.633L10.6761 13.6366C9.00121 14.2146 7.30213 14.801 5.08425 14.801C4.8852 14.801 4.68205 14.7958 4.47399 14.7862C3.16704 14.7241 1.85298 14.462 0.56651 14.007C0.566401 14.007 0.566292 14.007 0.566183 14.0069L0.2 13.8766V1.48689L0.929102 1.73873C0.929137 1.73874 0.929171 1.73875 0.929205 1.73876C2.3492 2.23008 3.79715 2.48053 5.2451 2.4577C7.40815 2.43552 8.97138 1.8926 10.5986 1.32745L10.6024 1.32615L10.6024 1.32612L10.6205 1.31984C12.138 0.79207 13.6708 0.258982 15.646 0.204645ZM15.6751 1.29431L15.6748 1.29432C13.861 1.35088 12.433 1.84259 10.963 2.3546C9.29366 2.93477 7.59508 3.52509 5.25698 3.54873L5.25578 3.54875C4.75354 3.55684 4.24804 3.52671 3.73987 3.47404L3.55158 3.45452L3.52175 3.64145C3.48625 3.86388 3.40611 4.07683 3.28616 4.26748C3.16621 4.45813 3.00892 4.62254 2.82377 4.75082C2.63861 4.87909 2.42942 4.96858 2.20878 5.01389C1.98814 5.0592 1.76061 5.05941 1.53988 5.01449L1.3 4.96567V5.21047V12.037V12.2816L1.53974 12.233C1.96268 12.1472 2.4024 12.2284 2.76685 12.4595C3.1313 12.6906 3.39222 13.0537 3.49501 13.4729L3.5278 13.6066L3.66445 13.6237C3.95073 13.6594 4.2382 13.6849 4.52631 13.7L4.52727 13.7C6.84436 13.81 8.55478 13.2174 10.3255 12.604L10.3255 12.6039C12.1494 11.9715 14.0063 11.3394 16.5261 11.45C16.7718 11.4613 17.0171 11.4795 17.2618 11.5047L17.4479 11.5238L17.4794 11.3394C17.5171 11.1186 17.5987 10.9077 17.7195 10.7192C17.8403 10.5306 17.9978 10.3682 18.1825 10.2417C18.3673 10.1152 18.5756 10.0271 18.795 9.98264C19.0145 9.93819 19.2407 9.9383 19.4601 9.98295L19.7 10.0318V9.78697V2.96047V2.7157L19.4601 2.76448C19.0363 2.85068 18.5956 2.76923 18.2306 2.53727C17.8656 2.3053 17.6048 1.94088 17.5029 1.52059L17.4701 1.3854L17.3319 1.3691C17.0487 1.33569 16.7631 1.30967 16.4763 1.2974L16.4755 1.29737C16.1997 1.28668 15.9342 1.28669 15.6751 1.29431ZM16.7791 5.71965L16.9205 5.57823L16.7791 5.71965C16.9525 5.89312 17.05 6.1284 17.05 6.37372C17.05 6.61905 16.9525 6.85432 16.7791 7.02779L16.9205 7.16922L16.7791 7.0278C16.6056 7.20127 16.3703 7.29872 16.125 7.29872C15.8797 7.29872 15.6444 7.20127 15.4709 7.0278C15.2975 6.85432 15.2 6.61905 15.2 6.37372C15.2 6.1284 15.2975 5.89312 15.4709 5.71965C15.6444 5.54618 15.8797 5.44872 16.125 5.44872C16.3703 5.44872 16.6056 5.54618 16.7791 5.71965ZM4.22093 7.96965C4.3944 7.79618 4.62967 7.69872 4.875 7.69872C5.12033 7.69872 5.3556 7.79618 5.52907 7.96965C5.70254 8.14312 5.8 8.3784 5.8 8.62372C5.8 8.86905 5.70255 9.10432 5.52907 9.27779C5.3556 9.45127 5.12033 9.54872 4.875 9.54872C4.62967 9.54872 4.3944 9.45127 4.22093 9.27779C4.04745 9.10432 3.95 8.86905 3.95 8.62372C3.95 8.3784 4.04745 8.14312 4.22093 7.96965Z" stroke="#A0627B" stroke-width="0.4"/>
<path fill-rule="evenodd" clip-rule="evenodd" d="M10.6514 4.89634C10.4824 4.78293 10.2768 4.73754 10.1069 4.77614C9.96075 4.80937 10.059 4.72182 8.73583 5.99733L7.53877 7.15121L7.54232 7.19319L7.54587 7.23517L7.66348 7.35717L7.78109 7.47918L7.82291 7.48427L7.86473 7.48936L9.03578 6.36053C10.3547 5.0892 10.248 5.18252 10.359 5.20303C10.402 5.21097 10.4351 5.22484 10.4682 5.24891C10.5019 5.27337 10.6708 5.44575 11.0487 5.84136C11.6403 6.46067 11.6116 6.42643 11.6794 6.59246C11.7263 6.70714 11.7406 6.87851 11.7123 6.98595C11.671 7.14241 11.7258 7.0813 10.9362 7.8518C10.1552 8.61399 10.2085 8.5545 10.2421 8.62594C10.2645 8.67353 10.4183 8.83243 10.4656 8.85685C10.5402 8.89533 10.4775 8.94828 11.2883 8.16186C12.0168 7.45525 12.0186 7.45343 12.0519 7.38748C12.2262 7.04206 12.1949 6.65841 11.961 6.27201L11.9114 6.1902L11.3076 5.5608C10.7983 5.03002 10.6955 4.9259 10.6514 4.89634ZM13.2728 7.63367L13.231 7.62858L12.0617 8.75576C11.1878 9.59805 10.8823 9.88798 10.8527 9.90291C10.7939 9.93253 10.6953 9.91824 10.6296 9.87059C10.5932 9.84412 10.4384 9.68629 10.047 9.27658C9.4553 8.65715 9.48364 8.6909 9.41674 8.52587C9.36944 8.40923 9.35476 8.23782 9.38302 8.13228C9.42513 7.97504 9.36999 8.03655 10.1595 7.26614C10.9406 6.50395 10.8872 6.56344 10.8536 6.492C10.8313 6.44441 10.6775 6.28551 10.6302 6.26109C10.5555 6.22261 10.6182 6.16966 9.80743 6.95608C9.07892 7.66269 9.07713 7.66451 9.04385 7.73046C8.96973 7.87734 8.93693 8.00752 8.93358 8.16822C8.92891 8.39144 9.0001 8.6257 9.14282 8.85682C9.19109 8.93499 9.20007 8.94469 9.80098 9.56808C10.4086 10.1985 10.4104 10.2002 10.479 10.2425C10.6644 10.3565 10.8741 10.3855 11.0623 10.3229L11.1268 10.3015L12.3419 9.13431L13.557 7.9671L13.5534 7.92494L13.5498 7.88277L13.4322 7.76077L13.3146 7.63876L13.2728 7.63367Z" fill="#A0627B"/>
</svg>
