<svg width="26" height="15" viewBox="0 0 26 15" fill="none" xmlns="http://www.w3.org/2000/svg">
<path fill-rule="evenodd" clip-rule="evenodd" d="M7.22433 0.0627181C6.91196 0.204671 6.90179 0.689366 7.20782 0.85194C7.30522 0.90373 7.50993 0.928685 7.83714 0.928685H8.32206L8.74718 1.80316L9.1723 2.67764L8.69962 3.42901C8.43963 3.84223 8.20535 4.20252 8.17893 4.22967C8.14885 4.26057 8.001 4.22126 7.78221 4.1241C6.98842 3.77165 6.37815 3.6393 5.55429 3.64097C4.76862 3.64254 4.29244 3.72205 3.67089 3.95553C2.0007 4.5829 0.704454 5.99924 0.224257 7.72152C-0.182927 9.18192 -0.032735 10.6813 0.651308 11.9848C2.38878 15.2956 6.67427 16.0197 9.31751 13.4491C10.2891 12.5042 10.8223 11.4213 11.0418 9.94755L11.0709 9.75177H11.7037C12.1587 9.75177 12.3365 9.76921 12.3365 9.81384C12.3365 9.84793 12.2298 10.2356 12.0993 10.6753L11.8621 11.4746H11.6489C11.2529 11.4746 11.0221 11.813 11.1902 12.1471C11.3012 12.3675 11.5107 12.4137 12.4017 12.414C13.3901 12.4145 13.6097 12.3223 13.6051 11.9088C13.6021 11.6308 13.3925 11.4746 13.0224 11.4746C12.8011 11.4746 12.7892 11.4676 12.8241 11.3572C12.8444 11.2925 12.9794 10.8488 13.1241 10.371L13.387 9.50216L15.2062 6.612C16.2068 5.02239 17.0434 3.70122 17.0652 3.67606C17.0871 3.65095 17.1996 3.8237 17.3153 4.05999C17.4309 4.29628 17.5183 4.49436 17.5096 4.50015C16.2513 5.33563 15.3584 6.64448 15.0486 8.10723C14.9374 8.63249 14.9009 9.6142 14.9746 10.1017C15.2614 11.9998 16.3928 13.5927 18.0441 14.4235C21.0301 15.9258 24.629 14.3756 25.7062 11.1234C26.7474 7.97984 24.9265 4.60421 21.7416 3.77369C20.8163 3.53233 19.3464 3.62704 18.5217 3.98106L18.3372 4.06031L18.0111 3.42118C17.8317 3.06967 17.4751 2.36502 17.2185 1.85537L16.752 0.928685H17.9117C18.8929 0.928685 19.0894 0.941581 19.1877 1.01227C19.364 1.13919 19.4115 1.31894 19.3249 1.53189C19.235 1.75294 19.0884 1.81621 18.6658 1.81621C18.4235 1.81621 18.3146 1.84138 18.2175 1.91979C18.0605 2.04671 18.0097 2.23205 18.0799 2.42177C18.1689 2.66229 18.266 2.7003 18.7962 2.70207C19.2351 2.70359 19.3139 2.68866 19.5574 2.55793C20.184 2.22161 20.4407 1.44826 20.1417 0.798166C20.0023 0.495206 19.8211 0.308407 19.5006 0.137218C19.2741 0.0162009 19.2561 0.0150525 17.5529 0.0150525L15.8337 0.0150525L15.711 0.161547C15.6431 0.242573 15.5883 0.374711 15.5883 0.457251C15.5883 0.542036 15.7657 0.958078 15.999 1.42017L16.4096 2.23388H13.1795H9.94927L9.64406 1.60817C9.47614 1.26407 9.3388 0.970399 9.3388 0.955572C9.3388 0.940798 9.5804 0.928685 9.87565 0.928685C10.578 0.928685 10.7566 0.832989 10.7598 0.454849C10.761 0.320363 10.7248 0.232811 10.6304 0.141604L10.4994 0.0150525L8.94102 0.00294021C7.70758 -0.00666599 7.34962 0.00575965 7.22433 0.0627181ZM16.2641 3.24613C16.1628 3.42682 13.0242 8.38732 13.0169 8.3784C12.9848 8.3394 10.4566 3.23219 10.4566 3.20635C10.4566 3.18833 11.7724 3.17361 13.3807 3.17361C15.8612 3.17361 16.2985 3.18463 16.2641 3.24613ZM10.9393 6.21288C11.6379 7.62468 12.2171 8.79882 12.2264 8.822C12.2358 8.84524 11.9796 8.86424 11.6572 8.86424H11.0709L11.042 8.66846C10.8339 7.25927 10.2234 6.03005 9.29251 5.14586C9.08923 4.95285 8.93075 4.77545 8.94036 4.75164C8.98095 4.65067 9.62049 3.64458 9.64366 3.6452C9.65763 3.64557 10.2407 4.80103 10.9393 6.21288ZM6.12147 4.58598C6.55639 4.64618 7.23749 4.84624 7.49606 4.98976L7.66032 5.08091L6.38136 7.11617C5.0025 9.31046 4.98121 9.3565 5.22194 9.61984L5.34261 9.75177H7.75295H10.1633L10.1286 9.99975C9.89801 11.6496 8.76928 13.1175 7.25126 13.7418C4.69698 14.7923 1.8281 13.3278 1.05326 10.578C0.898444 10.0286 0.86242 8.97925 0.978163 8.39014C1.25025 7.00466 2.10257 5.80926 3.29607 5.13902C3.75788 4.8797 4.08687 4.75623 4.62651 4.63981C5.16885 4.52276 5.56206 4.50861 6.12147 4.58598ZM21.5745 4.68424C23.3104 5.12759 24.6635 6.58439 25.0164 8.39014C25.1316 8.97972 25.0954 10.0296 24.9409 10.578C24.4805 12.2118 23.3192 13.4059 21.7005 13.91C21.3097 14.0316 21.1609 14.0498 20.5168 14.054C19.9455 14.0578 19.6948 14.0364 19.4001 13.959C17.9463 13.5767 16.8698 12.669 16.2479 11.3009C15.46 9.56789 15.7788 7.5046 17.0527 6.09071C17.3569 5.75314 17.9102 5.27909 17.9494 5.32253C17.9582 5.33224 18.4403 6.28858 19.0209 7.44769C19.6015 8.6068 20.1228 9.59943 20.1792 9.65346C20.3294 9.79724 20.6227 9.7833 20.7669 9.62558C20.9916 9.37979 20.9609 9.29589 19.8128 7.01578C19.2213 5.84121 18.7434 4.87527 18.7506 4.86926C18.8019 4.82703 19.3702 4.66362 19.6704 4.60483C20.1581 4.5094 21.0327 4.54584 21.5745 4.68424ZM8.87527 6.02164C9.31929 6.50362 9.62008 6.97777 9.84994 7.55816C9.98174 7.89088 10.1517 8.58133 10.1517 8.78374C10.1517 8.85484 9.93144 8.86424 8.26759 8.86424C6.90901 8.86424 6.38867 8.84806 6.40224 8.80624C6.43618 8.70161 8.39802 5.58012 8.4314 5.57762C8.44934 5.57626 8.64907 5.77606 8.87527 6.02164Z" fill="#C4C4C4"/>
</svg>
