<svg width="8" height="9" viewBox="0 0 8 9" fill="none" xmlns="http://www.w3.org/2000/svg">
<path d="M1.94824 0.758789C2.42025 0.758789 2.7832 0.952474 3.03711 1.33984C3.29102 1.72721 3.41797 2.28548 3.41797 3.01465C3.41797 3.74056 3.29264 4.29395 3.04199 4.6748C2.7946 5.05241 2.4349 5.24121 1.96289 5.24121C1.49414 5.24121 1.13444 5.04753 0.883789 4.66016C0.633138 4.26953 0.507812 3.71289 0.507812 2.99023C0.507812 1.5026 0.987956 0.758789 1.94824 0.758789ZM2.5 8H1.78223L5.74219 0.861328H6.45996L2.5 8ZM1.94824 1.33984C1.68132 1.33984 1.486 1.47493 1.3623 1.74512C1.24186 2.01204 1.18164 2.42708 1.18164 2.99023C1.18164 3.55339 1.24186 3.97168 1.3623 4.24512C1.486 4.5153 1.68132 4.65039 1.94824 4.65039C2.4821 4.65039 2.74902 4.09863 2.74902 2.99512C2.74902 1.8916 2.4821 1.33984 1.94824 1.33984ZM4.80469 5.8418C4.80469 5.10938 4.92676 4.55599 5.1709 4.18164C5.41504 3.80729 5.77148 3.62012 6.24023 3.62012C6.71224 3.62012 7.07682 3.8138 7.33398 4.20117C7.59115 4.58529 7.71973 5.14193 7.71973 5.87109C7.71973 6.59701 7.5944 7.15039 7.34375 7.53125C7.09635 7.90885 6.73665 8.09766 6.26465 8.09766C5.79264 8.09766 5.43132 7.90397 5.18066 7.5166C4.93001 7.12923 4.80469 6.57096 4.80469 5.8418ZM7.05078 5.86133C7.05078 5.29818 6.98568 4.88314 6.85547 4.61621C6.72526 4.34603 6.52344 4.21094 6.25 4.21094C5.97982 4.21094 5.78288 4.3444 5.65918 4.61133C5.53874 4.875 5.47852 5.29004 5.47852 5.85645C5.47852 6.4196 5.53874 6.83789 5.65918 7.11133C5.78288 7.38151 5.97982 7.5166 6.25 7.5166C6.52344 7.5166 6.72526 7.38151 6.85547 7.11133C6.98568 6.83789 7.05078 6.42122 7.05078 5.86133Z" fill="#383F43"/>
</svg>
