<svg width="23" height="25" viewBox="0 0 23 25" fill="none" xmlns="http://www.w3.org/2000/svg">
<mask id="path-1-inside-1_862_113952" fill="white">
<path fill-rule="evenodd" clip-rule="evenodd" d="M16.4255 12.5152C12.9035 12.7639 10.124 15.6832 10.124 19.2479C10.124 21.2511 11.0018 23.0505 12.3958 24.2867C11.652 24.428 10.8932 24.5 10.1251 24.5C6.32686 24.5 2.75976 22.7403 0.08079 19.5448L0 19.4478L0.0190754 19.3234C0.536355 15.969 2.29915 13.2745 4.98261 11.7345L5.17336 11.6251L5.3254 11.7836C6.5928 13.1055 8.29724 13.8328 10.1246 13.8328C11.9519 13.8328 13.6563 13.1049 14.9237 11.7836L15.0757 11.6251L15.2665 11.7345C15.6745 11.9686 16.0612 12.2294 16.4255 12.5152ZM16.1529 6.49317C16.1529 9.79736 13.4487 12.4858 10.1251 12.4858C6.8015 12.4858 4.09728 9.79624 4.09728 6.49261C4.09728 3.18898 6.8015 0.5 10.1251 0.5C13.4487 0.5 16.1529 3.18898 16.1529 6.49317Z"/>
</mask>
<path d="M16.4255 12.5152L16.4607 13.014L17.7548 12.9226L16.7341 12.1218L16.4255 12.5152ZM12.3958 24.2867L12.4891 24.7779L13.4891 24.5879L12.7275 23.9126L12.3958 24.2867ZM0.08079 19.5448L-0.303488 19.8647L-0.302369 19.8661L0.08079 19.5448ZM0 19.4478L-0.494222 19.372L-0.528361 19.5946L-0.384276 19.7677L0 19.4478ZM0.0190754 19.3234L-0.475084 19.2472L-0.475146 19.2476L0.0190754 19.3234ZM4.98261 11.7345L4.73399 11.3007L4.73374 11.3008L4.98261 11.7345ZM5.17336 11.6251L5.53409 11.2789L5.26362 10.9971L4.92474 11.1913L5.17336 11.6251ZM5.3254 11.7836L5.68632 11.4375L5.68613 11.4373L5.3254 11.7836ZM14.9237 11.7836L14.563 11.4373L14.5629 11.4374L14.9237 11.7836ZM15.0757 11.6251L15.3244 11.1913L14.9855 10.9971L14.715 11.2789L15.0757 11.6251ZM15.2665 11.7345L15.5154 11.3008L15.5151 11.3007L15.2665 11.7345ZM10.624 19.2479C10.624 15.95 13.1962 13.2445 16.4607 13.014L16.3903 12.0165C12.6109 12.2833 9.62402 15.4164 9.62402 19.2479H10.624ZM12.7275 23.9126C11.4356 22.7669 10.624 21.1016 10.624 19.2479H9.62402C9.62402 21.4006 10.568 23.3341 12.0641 24.6608L12.7275 23.9126ZM12.3025 23.7954C11.5894 23.9309 10.8619 24 10.1251 24V25C10.9246 25 11.7145 24.925 12.4891 24.7779L12.3025 23.7954ZM10.1251 24C6.49036 24 3.05844 22.3183 0.463949 19.2236L-0.302369 19.8661C2.46109 23.1623 6.16336 25 10.1251 25V24ZM0.465066 19.2249L0.384276 19.1279L-0.384276 19.7677L-0.303486 19.8647L0.465066 19.2249ZM0.494222 19.5236L0.513297 19.3992L-0.475146 19.2476L-0.494222 19.372L0.494222 19.5236ZM0.513234 19.3996C1.0099 16.1789 2.69376 13.6245 5.23148 12.1681L4.73374 11.3008C1.90453 12.9244 0.0628102 15.7591 -0.475083 19.2472L0.513234 19.3996ZM5.23122 12.1683L5.42198 12.059L4.92474 11.1913L4.73399 11.3007L5.23122 12.1683ZM4.81264 11.9714L4.96468 12.1298L5.68613 11.4373L5.53409 11.2789L4.81264 11.9714ZM4.96449 12.1296C6.32604 13.5497 8.16078 14.3328 10.1246 14.3328V13.3328C8.4337 13.3328 6.85955 12.6612 5.68632 11.4375L4.96449 12.1296ZM10.1246 14.3328C12.0884 14.3328 13.9231 13.5491 15.2845 12.1297L14.5629 11.4374C13.3895 12.6607 11.8153 13.3328 10.1246 13.3328V14.3328ZM15.2844 12.1298L15.4365 11.9714L14.715 11.2789L14.563 11.4373L15.2844 12.1298ZM14.8271 12.059L15.0179 12.1683L15.5151 11.3007L15.3244 11.1913L14.8271 12.059ZM15.0176 12.1681C15.4048 12.3903 15.7716 12.6377 16.1169 12.9086L16.7341 12.1218C16.3508 11.8211 15.9441 11.5469 15.5154 11.3008L15.0176 12.1681ZM10.1251 12.9858C13.7221 12.9858 16.6529 10.0763 16.6529 6.49317H15.6529C15.6529 9.51846 13.1753 11.9858 10.1251 11.9858V12.9858ZM3.59728 6.49261C3.59728 10.0751 6.52804 12.9858 10.1251 12.9858V11.9858C7.07497 11.9858 4.59728 9.51743 4.59728 6.49261H3.59728ZM10.1251 0C6.5281 0 3.59728 2.91011 3.59728 6.49261H4.59728C4.59728 3.46785 7.07491 1 10.1251 1V0ZM16.6529 6.49317C16.6529 2.91014 13.7222 0 10.1251 0V1C13.1753 1 15.6529 3.46782 15.6529 6.49317H16.6529Z" fill="#383F43" mask="url(#path-1-inside-1_862_113952)"/>
<g clip-path="url(#clip0_862_113952)">
<path d="M14.3186 16.5029L14.1522 16.3374L14.0152 16.528C13.4925 17.2552 13.2173 18.1083 13.2173 19.0094C13.2173 21.3722 15.1504 23.2923 17.5243 23.2923C18.4298 23.2923 19.2874 23.0191 20.0187 22.4996L20.2122 22.3621L20.0439 22.1947L14.3186 16.5029ZM20.73 21.5159L20.8964 21.6813L21.0334 21.4908C21.5561 20.7636 21.8312 19.9104 21.8312 19.0094C21.8312 16.6466 19.8981 14.7264 17.5243 14.7264C16.6187 14.7264 15.7611 14.9997 15.0299 15.5192L14.8363 15.6567L15.0047 15.8241L20.73 21.5159ZM12.2483 19.0094C12.2483 16.1192 14.6142 13.7654 17.5243 13.7654C20.4343 13.7654 22.8002 16.1192 22.8002 19.0094C22.8002 21.8996 20.4343 24.2533 17.5243 24.2533C14.6142 24.2533 12.2483 21.8996 12.2483 19.0094Z" stroke="#383F43" stroke-width="0.4"/>
</g>
<defs>
<clipPath id="clip0_862_113952">
<rect width="10.9519" height="10.8879" fill="white" transform="translate(12.0483 13.5654)"/>
</clipPath>
</defs>
</svg>
