<svg width="30" height="14" viewBox="0 0 30 14" fill="none" xmlns="http://www.w3.org/2000/svg">
<path fill-rule="evenodd" clip-rule="evenodd" d="M1.66906 0.111531C0.840791 0.373145 0.239268 0.993192 0.0559514 1.77437C0.00484771 1.99207 -0.00863147 3.15924 0.00496491 6.18753L0.0234841 10.3047L0.161616 10.6192C0.437764 11.248 1.02704 11.7448 1.73464 11.9455C2.07425 12.0418 2.27902 12.0538 3.59347 12.0538H5.07067L5.14545 12.3218C5.34284 13.029 6.06761 13.6813 6.9056 13.906C8.21601 14.2572 9.59716 13.5964 10.0743 12.3898L10.2074 12.0531L14.9254 12.0669L19.6432 12.0807L19.7133 12.296C20.0372 13.2912 21.0664 13.9913 22.2055 13.9913C23.3447 13.9913 24.3742 13.2909 24.6976 12.296L24.7676 12.0807L26.1678 12.0538C27.7298 12.0238 27.7591 12.0175 28.1382 11.6322C28.4796 11.2851 28.4884 11.1875 28.4665 7.97701C28.4486 5.35554 28.4551 5.11109 28.5425 5.11115C28.6072 5.11115 28.7083 5.26372 28.8546 5.58206C29.0959 6.10739 29.2756 6.29516 29.5371 6.29516C29.7534 6.29516 30 6.08317 30 5.89717C30 5.75832 29.4012 4.43228 29.2938 4.33319C29.2602 4.30225 29.0078 4.26484 28.7329 4.25004L28.233 4.22313L28.0404 3.75227C27.2671 1.86161 25.3803 0.426587 23.2088 0.0773561C22.7891 0.00986719 21.2106 -0.00138124 12.3668 0.000125692C2.10977 0.00195554 2.01289 0.00292426 1.66906 0.111531ZM23.4403 1.02893C23.7488 1.10723 24.1971 1.26132 24.4366 1.37143C24.8376 1.55582 25.6046 2.01656 25.6046 2.07312C25.6046 2.08642 20.0664 2.09729 13.2975 2.09729C1.43358 2.09729 0.990469 2.09374 0.990469 1.99928C0.990469 1.81904 1.31034 1.32407 1.5304 1.1638C1.96032 0.85068 1.4293 0.864458 12.5943 0.876029L22.8795 0.886631L23.4403 1.02893ZM4.7412 4.4115V5.81079H2.86583H0.990469V4.4115V3.01221H2.86583H4.7412V4.4115ZM10.3536 4.39805L10.338 5.78388L8.03773 5.79798L5.73748 5.81203V4.41215V3.01221H8.05338H10.3693L10.3536 4.39805ZM15.9348 4.4115V5.81079H13.6199H11.305V4.4115V3.01221H13.6199H15.9348V4.4115ZM21.5023 4.4115V5.81079H19.1874H16.8725V4.4115V3.01221H19.1874H21.5023V4.4115ZM26.7171 3.26785C26.9898 3.66606 27.25 4.28277 27.3693 4.81417C27.4605 5.21948 27.4786 5.54875 27.4792 6.81086L27.48 8.32225L26.7714 8.22769L26.0628 8.13313L24.7857 6.97414L23.5085 5.81515L22.9889 5.79954L22.4692 5.78388L22.4536 4.39805L22.4379 3.01221H24.49H26.5421L26.7171 3.26785ZM24.3492 7.82147L25.6393 8.96916L26.252 9.05575C26.5889 9.10338 27.0031 9.15876 27.1723 9.17878L27.48 9.21527V10.1166C27.48 10.8163 27.4619 11.0318 27.3993 11.0795C27.343 11.1225 26.9344 11.1366 26.0423 11.1265L24.766 11.112L24.6647 10.8383C24.2643 9.75599 23.0201 9.06442 21.8099 9.25149C20.8478 9.40019 20.0521 10.012 19.7463 10.8383L19.645 11.112H14.9142H10.1834L10.0825 10.8382C9.96479 10.519 9.67979 10.0939 9.44666 9.88994C9.14168 9.62306 8.60585 9.36952 8.15014 9.27641C7.7736 9.1995 7.63893 9.19509 7.26971 9.24783C6.25297 9.39298 5.41111 10.06 5.12049 10.9505L5.05022 11.1658L3.62108 11.1654C2.60211 11.1651 2.1301 11.1451 1.97673 11.0954C1.61098 10.9769 1.30963 10.7372 1.14489 10.4336L0.990469 10.149V8.41073V6.67254L12.0248 6.67313L23.0592 6.67378L24.3492 7.82147ZM8.34541 10.2647C8.62372 10.3972 8.96645 10.7161 9.10851 10.975C9.16465 11.0772 9.22367 11.3101 9.23955 11.4923C9.36109 12.8829 7.53461 13.6468 6.45622 12.6565C5.80341 12.0569 5.85381 11.0321 6.56352 10.4742C6.69814 10.3684 6.91673 10.2451 7.04936 10.2001C7.38434 10.0865 8.03961 10.1192 8.34541 10.2647ZM22.9856 10.2958C24.1441 10.9193 24.1098 12.4177 22.9248 12.9501C21.9011 13.4101 20.6985 12.7994 20.5817 11.7603C20.5039 11.0678 20.9968 10.3861 21.7363 10.1634C21.8171 10.1391 22.0716 10.1268 22.3019 10.1362C22.6268 10.1494 22.78 10.1852 22.9856 10.2958Z" fill="#C4C4C4"/>
</svg>
