<svg width="16" height="15" viewBox="0 0 16 15" fill="none" xmlns="http://www.w3.org/2000/svg">
<path d="M10.6819 5.84446C10.6819 5.71167 10.7364 5.58431 10.8333 5.49041C10.9303 5.3965 11.0617 5.34375 11.1988 5.34375H12.2325C12.3696 5.34375 12.5011 5.3965 12.598 5.49041C12.6949 5.58431 12.7494 5.71167 12.7494 5.84446V6.84589C12.7494 6.97868 12.6949 7.10604 12.598 7.19994C12.5011 7.29385 12.3696 7.3466 12.2325 7.3466H11.1988C11.0617 7.3466 10.9303 7.29385 10.8333 7.19994C10.7364 7.10604 10.6819 6.97868 10.6819 6.84589V5.84446ZM7.58075 5.84446C7.58075 5.71167 7.63521 5.58431 7.73214 5.49041C7.82907 5.3965 7.96054 5.34375 8.09762 5.34375H9.13135C9.26843 5.34375 9.39989 5.3965 9.49683 5.49041C9.59376 5.58431 9.64821 5.71167 9.64821 5.84446V6.84589C9.64821 6.97868 9.59376 7.10604 9.49683 7.19994C9.39989 7.29385 9.26843 7.3466 9.13135 7.3466H8.09762C7.96054 7.3466 7.82907 7.29385 7.73214 7.19994C7.63521 7.10604 7.58075 6.97868 7.58075 6.84589V5.84446ZM2.41211 8.84874C2.41211 8.71594 2.46656 8.58858 2.5635 8.49468C2.66043 8.40078 2.79189 8.34802 2.92897 8.34802H3.9627C4.09978 8.34802 4.23125 8.40078 4.32818 8.49468C4.42511 8.58858 4.47957 8.71594 4.47957 8.84874V9.85016C4.47957 9.98296 4.42511 10.1103 4.32818 10.2042C4.23125 10.2981 4.09978 10.3509 3.9627 10.3509H2.92897C2.79189 10.3509 2.66043 10.2981 2.5635 10.2042C2.46656 10.1103 2.41211 9.98296 2.41211 9.85016V8.84874ZM5.5133 8.84874C5.5133 8.71594 5.56775 8.58858 5.66468 8.49468C5.76161 8.40078 5.89308 8.34802 6.03016 8.34802H7.06389C7.20097 8.34802 7.33244 8.40078 7.42937 8.49468C7.5263 8.58858 7.58075 8.71594 7.58075 8.84874V9.85016C7.58075 9.98296 7.5263 10.1103 7.42937 10.2042C7.33244 10.2981 7.20097 10.3509 7.06389 10.3509H6.03016C5.89308 10.3509 5.76161 10.2981 5.66468 10.2042C5.56775 10.1103 5.5133 9.98296 5.5133 9.85016V8.84874Z" fill="#2E3940"/>
<path d="M3.31655 0C3.4422 0 3.56271 0.0483574 3.65157 0.134434C3.74042 0.220511 3.79034 0.337256 3.79034 0.458986V0.917973H11.371V0.458986C11.371 0.337256 11.4209 0.220511 11.5098 0.134434C11.5986 0.0483574 11.7192 0 11.8448 0C11.9705 0 12.091 0.0483574 12.1798 0.134434C12.2687 0.220511 12.3186 0.337256 12.3186 0.458986V0.917973H13.2662C13.7688 0.917973 14.2509 1.1114 14.6063 1.45571C14.9617 1.80002 15.1614 2.26699 15.1614 2.75392V12.8516C15.1614 13.3385 14.9617 13.8055 14.6063 14.1498C14.2509 14.4941 13.7688 14.6876 13.2662 14.6876H1.89517C1.39254 14.6876 0.910495 14.4941 0.555082 14.1498C0.199669 13.8055 0 13.3385 0 12.8516V2.75392C0 2.26699 0.199669 1.80002 0.555082 1.45571C0.910495 1.1114 1.39254 0.917973 1.89517 0.917973H2.84275V0.458986C2.84275 0.337256 2.89267 0.220511 2.98152 0.134434C3.07038 0.0483574 3.19089 0 3.31655 0V0ZM0.947585 3.67189V12.8516C0.947585 13.0951 1.04742 13.3286 1.22513 13.5007C1.40283 13.6729 1.64385 13.7696 1.89517 13.7696H13.2662C13.5175 13.7696 13.7585 13.6729 13.9362 13.5007C14.1139 13.3286 14.2138 13.0951 14.2138 12.8516V3.67189H0.947585Z" fill="#2E3940"/>
</svg>
