<svg width="10" height="7" viewBox="0 0 10 7" fill="none" xmlns="http://www.w3.org/2000/svg">
<path fill-rule="evenodd" clip-rule="evenodd" d="M3.47862 0.0173283C3.32994 0.0433579 3.16183 0.129516 3.04447 0.239813C2.95854 0.320598 2.90002 0.405706 2.76826 0.64167C2.6763 0.806337 2.57409 0.968605 2.54109 1.0023C2.47139 1.07346 2.30425 1.15342 2.22519 1.15342H2.17045V0.998469C2.17045 0.8665 2.16387 0.834677 2.12612 0.784036C2.04228 0.671515 1.99968 0.66334 1.49683 0.66334C0.993984 0.66334 0.95138 0.671515 0.86754 0.784036C0.829544 0.835009 0.823218 0.866325 0.823218 1.00321V1.16291L0.704193 1.1832C0.375665 1.23918 0.118832 1.45695 0.0304813 1.75446C-0.0113413 1.89527 -0.00956456 6.26611 0.0323557 6.41044C0.0735731 6.55232 0.129141 6.64185 0.242836 6.74965C0.432717 6.92963 0.642201 6.99928 0.994941 6.99974C1.18254 6.99998 1.19917 6.99713 1.24388 6.95703C1.30488 6.90236 1.30658 6.82579 1.24789 6.77715C1.20962 6.74545 1.17373 6.73988 0.969656 6.73405C0.778779 6.72861 0.717255 6.72001 0.63773 6.68773C0.514644 6.63777 0.424184 6.56051 0.35776 6.4486L0.305804 6.36108L0.30063 4.10869C0.295553 1.89534 0.296139 1.85469 0.334408 1.76306C0.386072 1.63937 0.464582 1.55731 0.591729 1.49417L0.696305 1.44225L1.49683 1.43278C2.27901 1.42354 2.30005 1.42236 2.41451 1.38207C2.6912 1.28464 2.79905 1.17686 3.02941 0.767599C3.21552 0.436969 3.26906 0.376613 3.43858 0.306296C3.52597 0.270044 3.55071 0.269344 4.943 0.264583C5.88188 0.261362 6.39145 0.265931 6.45619 0.278184C6.57858 0.301343 6.73626 0.396708 6.79544 0.483339C6.8203 0.519732 6.91523 0.677064 7.00643 0.832979C7.19524 1.15575 7.29595 1.26251 7.48995 1.34552C7.67073 1.42287 7.7978 1.43322 8.56808 1.43336L9.27415 1.4335L9.397 1.49051C9.47522 1.52681 9.54316 1.57493 9.58403 1.62297C9.71442 1.77622 9.70825 1.64597 9.70253 4.12147L9.69735 6.36108L9.6454 6.4486C9.57921 6.56011 9.48894 6.63742 9.36543 6.6884L9.2678 6.72868L5.49076 6.73323L1.71372 6.73778L1.66873 6.77566C1.60506 6.82929 1.60805 6.91636 1.67519 6.96371L1.72664 7L5.46793 6.99974C9.57653 6.99946 9.34543 7.00539 9.56101 6.8948C9.6806 6.83346 9.8427 6.68474 9.9003 6.58351C10.0031 6.40284 9.99999 6.48084 9.99999 4.0914C9.99999 2.51434 9.99364 1.84601 9.97802 1.78007C9.9238 1.55115 9.74177 1.34455 9.50155 1.23932L9.36543 1.17968L8.55514 1.17082C7.75623 1.16209 7.74342 1.16137 7.64279 1.12069C7.48788 1.05807 7.40591 0.963371 7.21798 0.629836C7.08562 0.394923 7.02603 0.308695 6.94414 0.233494C6.82764 0.126523 6.65558 0.0445307 6.48761 0.0159805C6.35748 -0.00614549 3.60567 -0.00492017 3.47862 0.0173283ZM4.17803 0.71624C4.13068 0.758689 4.12147 0.778662 4.13156 0.816892C4.13847 0.843132 4.16231 0.878368 4.18451 0.895226C4.22149 0.923286 4.29028 0.925859 5.00158 0.925859C5.71288 0.925859 5.78166 0.923286 5.81864 0.895226C5.84084 0.878368 5.86468 0.843132 5.87159 0.816892C5.88169 0.778662 5.87247 0.758689 5.82512 0.71624L5.76606 0.663288H5.00158H4.23709L4.17803 0.71624ZM1.87757 1.04839V1.17093H1.49683H1.11609V1.04839V0.925859H1.49683H1.87757V1.04839ZM1.08341 1.76861C0.847937 1.8053 0.69734 1.9683 0.697613 2.1862C0.697906 2.42941 0.897257 2.60686 1.16916 2.60593C1.45513 2.60495 1.66654 2.39337 1.6371 2.13761C1.60934 1.89643 1.35422 1.7264 1.08341 1.76861ZM4.81609 1.7681C3.80499 1.83003 2.9371 2.44686 2.63116 3.32101C2.48107 3.74984 2.4846 4.2614 2.64055 4.67866C2.76897 5.02232 2.95102 5.28508 3.24354 5.54895C3.57467 5.84765 3.94547 6.04079 4.3907 6.14645C4.61078 6.19867 4.63748 6.20107 5.00158 6.20107C5.36701 6.20107 5.39175 6.19883 5.61662 6.14551C6.31358 5.98028 6.90037 5.55376 7.2246 4.97672C7.61487 4.28215 7.5611 3.42984 7.08582 2.77718C6.58026 2.08294 5.74423 1.71124 4.81609 1.7681ZM8.69181 1.92363C8.63367 1.97576 8.63974 2.06944 8.70421 2.1149C8.74617 2.1445 8.78346 2.15119 8.90659 2.15119C9.02971 2.15119 9.06701 2.1445 9.10896 2.1149C9.17621 2.06748 9.1791 1.98048 9.11523 1.92667C9.07599 1.89363 9.0477 1.88862 8.90046 1.88862C8.75689 1.88862 8.72487 1.89399 8.69181 1.92363ZM1.3018 2.08458C1.36439 2.15129 1.36373 2.22182 1.29984 2.28988C1.20126 2.39493 1.0113 2.34208 0.986584 2.20274C0.977641 2.15238 0.985354 2.13004 1.02696 2.08572C1.10797 1.99941 1.22141 1.99893 1.3018 2.08458ZM5.23588 2.03606C5.68679 2.06409 6.16703 2.26807 6.52943 2.58553C6.94729 2.95158 7.16257 3.38797 7.18299 3.91042C7.20568 4.49052 6.99833 4.96681 6.54574 5.37416C5.68759 6.14656 4.30528 6.14276 3.44887 5.36564C2.99944 4.95783 2.79747 4.49035 2.82016 3.91042C2.83973 3.41017 3.03679 2.99016 3.41858 2.63502C3.7261 2.34896 4.05291 2.17636 4.47075 2.07933C4.61717 2.04532 4.94294 2.01267 5.04063 2.0222C5.06747 2.02482 5.15534 2.03105 5.23588 2.03606ZM4.62084 2.40774C3.90695 2.54422 3.34117 3.08164 3.22363 3.73493C3.19116 3.91537 3.21039 4.23921 3.26369 4.4093C3.43647 4.96073 3.93582 5.40285 4.5525 5.5504C4.79067 5.60738 5.21249 5.60738 5.45065 5.5504C5.95122 5.43063 6.3875 5.11061 6.61253 4.69813C6.75465 4.43764 6.7871 4.30623 6.78765 3.98919C6.78814 3.70664 6.774 3.6299 6.68026 3.40553C6.64652 3.32479 6.62479 3.29845 6.57711 3.28047C6.50423 3.25299 6.45129 3.26775 6.39943 3.33001L6.36101 3.37615L6.42577 3.54702C6.47865 3.68649 6.49233 3.75338 6.50032 3.91133C6.51362 4.17402 6.47441 4.34588 6.34877 4.57559C6.16027 4.92026 5.85867 5.15388 5.44089 5.27885C5.30277 5.32016 5.25306 5.32571 5.01134 5.32693C4.77641 5.32811 4.71753 5.32254 4.59239 5.2873C4.31078 5.20802 4.10253 5.09261 3.90199 4.9047C3.72308 4.73706 3.5979 4.52828 3.53503 4.2926C3.47695 4.07478 3.48938 3.77867 3.5651 3.57783C3.78222 3.00181 4.33517 2.64132 5.00158 2.64132C5.36109 2.64132 5.6837 2.7436 5.96578 2.94702C6.11583 3.05522 6.17 3.06579 6.2423 3.00096C6.31907 2.93215 6.30577 2.87501 6.1904 2.77789C5.98603 2.60588 5.66549 2.46099 5.36849 2.40641C5.17976 2.37171 4.80574 2.37238 4.62084 2.40774Z" fill="#A0627B"/>
</svg>
