<svg width="25" height="25" viewBox="0 0 25 25" fill="none" xmlns="http://www.w3.org/2000/svg">
<circle cx="12.5" cy="12.5" r="12.5" fill="#FF8282"/>
<path d="M25 12.5C25 14.1415 24.6767 15.767 24.0485 17.2835C23.4203 18.8001 22.4996 20.1781 21.3388 21.3388C20.1781 22.4996 18.8001 23.4203 17.2835 24.0485C15.767 24.6767 14.1415 25 12.5 25C10.8585 25 9.23303 24.6767 7.71646 24.0485C6.19989 23.4203 4.8219 22.4996 3.66116 21.3388C2.50043 20.1781 1.57969 18.8001 0.951505 17.2835C0.323322 15.767 -1.43506e-07 14.1415 0 12.5L12.5 12.5L25 12.5Z" fill="white"/>
<g clip-path="url(#clip0_1915_153896)">
<path d="M20.3125 6.25L18.75 4.6875L12.5 10.9375L6.25 4.6875L4.6875 6.25L10.9375 12.5L4.6875 18.75L6.25 20.3125L12.5 14.0625L18.75 20.3125L20.3125 18.75L14.0625 12.5L20.3125 6.25Z" fill="white"/>
<path fill-rule="evenodd" clip-rule="evenodd" d="M10.8752 12.4377L10.9375 12.5L4.6875 18.75L6.25 20.3125L12.5 14.0625L18.75 20.3125L20.3125 18.75L14.0625 12.5L14.1248 12.4377H10.8752Z" fill="#FF8282"/>
</g>
<circle cx="12.5" cy="12.5" r="12.25" stroke="#FF8282" stroke-width="0.5"/>
<defs>
<clipPath id="clip0_1915_153896">
<rect width="15.625" height="15.625" fill="white" transform="translate(4.6875 4.6875)"/>
</clipPath>
</defs>
</svg>
