<svg width="24" height="10" viewBox="0 0 24 10" fill="none" xmlns="http://www.w3.org/2000/svg">
<mask id="path-1-inside-1_2706_283166" fill="white">
<path fill-rule="evenodd" clip-rule="evenodd" d="M11.9544 0.0343317C13.0557 0.167239 14.0359 0.383843 14.9375 0.693444C15.8375 1.00251 16.5152 1.3219 17.8971 2.08815L18.5313 2.43979L19.1655 2.4951C20.4157 2.60418 21.5316 2.92066 22.6418 3.48101C23.3026 3.81454 23.6633 4.13223 23.8658 4.55933C23.9796 4.79933 23.9808 4.81585 23.9942 6.41016C24.0074 7.97385 24.005 8.02156 23.912 8.11751C23.8237 8.20857 23.7583 8.21622 23.0676 8.21622H22.3188L22.1684 8.53139C21.9981 8.88807 21.6578 9.26912 21.3061 9.49705C20.1126 10.2705 18.5794 9.84153 17.9211 8.54994L17.751 8.21622H12.4223H7.09362L6.94682 8.51604C6.54173 9.34337 5.67166 9.88575 4.76688 9.87495C3.8612 9.8641 3.07146 9.35373 2.66862 8.51894C2.54409 8.26083 2.50406 8.21622 2.39714 8.21622C2.25222 8.21622 0.980068 7.69786 0.679928 7.51652C0.568544 7.4492 0.403795 7.29033 0.313833 7.16343C0.00415802 6.72654 -0.00152779 6.68023 0.000164032 4.59396C0.00171471 2.6282 0.00176048 2.62787 0.212502 2.51215C0.265539 2.48304 0.929331 2.36762 1.6876 2.25569L3.06629 2.05211L3.46118 1.81696C4.87271 0.976453 6.57321 0.376093 8.32533 0.0995745C8.89991 0.00890297 11.3752 -0.0356094 11.9544 0.0343317ZM11.2263 1.62898V2.45238L14.0332 2.44991L16.8401 2.44744L16.3703 2.20105C14.9358 1.4487 13.3737 1.006 11.5551 0.836425C11.4647 0.827998 11.3537 0.817585 11.3085 0.813322C11.2331 0.806202 11.2263 0.874109 11.2263 1.62898ZM8.40763 0.92855C7.48936 1.06998 6.27236 1.39227 5.65964 1.65625L5.48098 1.73321L5.82739 2.0928L6.17385 2.45238H8.30076H10.4277V1.62142V0.790412L9.66428 0.821459C9.24439 0.838557 8.67893 0.88675 8.40763 0.92855ZM4.30767 2.28877C4.12098 2.38525 3.82653 2.55061 3.65332 2.6562C3.34435 2.84461 3.31715 2.8514 2.22051 3.01244C1.60567 3.10273 1.03395 3.18899 0.949955 3.20415C0.801834 3.23094 0.797277 3.23893 0.797277 3.47171V3.71171H1.40986H2.0225L2.00883 4.1113L1.9952 4.5109L1.39624 4.52446L0.797277 4.53802V5.45927C0.797277 6.44135 0.814377 6.53144 1.04236 6.75095C1.13707 6.8421 2.24522 7.34438 2.35167 7.34438C2.37041 7.34438 2.40076 7.22993 2.41917 7.09009C2.52314 6.29987 3.02561 5.56936 3.71017 5.21307C4.65704 4.72024 5.74462 4.89988 6.49438 5.67292C6.89063 6.08147 7.1842 6.73467 7.18565 7.21118L7.18622 7.39282H8.80694H10.4277V5.3343V3.27579H8.14132H5.85497L5.28743 2.69509C4.97532 2.37571 4.7035 2.11416 4.68349 2.11387C4.66348 2.11358 4.49436 2.19228 4.30767 2.28877ZM11.2263 5.3343V7.39282H14.4186H17.6109L17.6382 7.21118C17.6532 7.11131 17.6968 6.90323 17.7351 6.74886C17.9556 5.86007 18.7603 5.12027 19.6753 4.96527C20.9441 4.75036 22.1982 5.70193 22.4117 7.04166L22.4677 7.39282H22.8638H23.26L23.2445 6.24247L23.229 5.09212L23.0961 4.859C22.9382 4.58195 22.6318 4.36491 21.9841 4.0712C21.1327 3.68512 20.2341 3.43175 19.3534 3.32931C19.1596 3.30679 17.2518 3.28552 15.1137 3.28209L11.2263 3.27579V5.3343ZM14.0351 4.1113L14.0214 4.5109H13.2228H12.4242L12.4106 4.1113L12.3969 3.71171H13.2228H14.0487L14.0351 4.1113ZM19.5385 5.8454C19.4465 5.86995 19.2696 5.95951 19.1454 6.04437C18.1407 6.73051 18.2421 8.29265 19.3299 8.88701C19.5388 9.00112 19.6168 9.01531 20.0346 9.01531C20.4526 9.01531 20.5304 9.00112 20.7414 8.88638C21.7128 8.35785 21.9281 7.0419 21.1709 6.26112C20.731 5.80762 20.1927 5.67054 19.5385 5.8454ZM4.10252 5.94265C3.45728 6.26315 3.09838 7.00122 3.24104 7.71399C3.31635 8.09015 3.43943 8.32956 3.68254 8.57285C3.99541 8.88594 4.27812 9.01076 4.7199 9.03091C5.24797 9.05493 5.56864 8.92886 5.92304 8.55794C6.27575 8.18881 6.40258 7.85107 6.37872 7.34438C6.32202 6.13775 5.15566 5.4195 4.10252 5.94265Z"/>
</mask>
<path fill-rule="evenodd" clip-rule="evenodd" d="M11.9544 0.0343317C13.0557 0.167239 14.0359 0.383843 14.9375 0.693444C15.8375 1.00251 16.5152 1.3219 17.8971 2.08815L18.5313 2.43979L19.1655 2.4951C20.4157 2.60418 21.5316 2.92066 22.6418 3.48101C23.3026 3.81454 23.6633 4.13223 23.8658 4.55933C23.9796 4.79933 23.9808 4.81585 23.9942 6.41016C24.0074 7.97385 24.005 8.02156 23.912 8.11751C23.8237 8.20857 23.7583 8.21622 23.0676 8.21622H22.3188L22.1684 8.53139C21.9981 8.88807 21.6578 9.26912 21.3061 9.49705C20.1126 10.2705 18.5794 9.84153 17.9211 8.54994L17.751 8.21622H12.4223H7.09362L6.94682 8.51604C6.54173 9.34337 5.67166 9.88575 4.76688 9.87495C3.8612 9.8641 3.07146 9.35373 2.66862 8.51894C2.54409 8.26083 2.50406 8.21622 2.39714 8.21622C2.25222 8.21622 0.980068 7.69786 0.679928 7.51652C0.568544 7.4492 0.403795 7.29033 0.313833 7.16343C0.00415802 6.72654 -0.00152779 6.68023 0.000164032 4.59396C0.00171471 2.6282 0.00176048 2.62787 0.212502 2.51215C0.265539 2.48304 0.929331 2.36762 1.6876 2.25569L3.06629 2.05211L3.46118 1.81696C4.87271 0.976453 6.57321 0.376093 8.32533 0.0995745C8.89991 0.00890297 11.3752 -0.0356094 11.9544 0.0343317ZM11.2263 1.62898V2.45238L14.0332 2.44991L16.8401 2.44744L16.3703 2.20105C14.9358 1.4487 13.3737 1.006 11.5551 0.836425C11.4647 0.827998 11.3537 0.817585 11.3085 0.813322C11.2331 0.806202 11.2263 0.874109 11.2263 1.62898ZM8.40763 0.92855C7.48936 1.06998 6.27236 1.39227 5.65964 1.65625L5.48098 1.73321L5.82739 2.0928L6.17385 2.45238H8.30076H10.4277V1.62142V0.790412L9.66428 0.821459C9.24439 0.838557 8.67893 0.88675 8.40763 0.92855ZM4.30767 2.28877C4.12098 2.38525 3.82653 2.55061 3.65332 2.6562C3.34435 2.84461 3.31715 2.8514 2.22051 3.01244C1.60567 3.10273 1.03395 3.18899 0.949955 3.20415C0.801834 3.23094 0.797277 3.23893 0.797277 3.47171V3.71171H1.40986H2.0225L2.00883 4.1113L1.9952 4.5109L1.39624 4.52446L0.797277 4.53802V5.45927C0.797277 6.44135 0.814377 6.53144 1.04236 6.75095C1.13707 6.8421 2.24522 7.34438 2.35167 7.34438C2.37041 7.34438 2.40076 7.22993 2.41917 7.09009C2.52314 6.29987 3.02561 5.56936 3.71017 5.21307C4.65704 4.72024 5.74462 4.89988 6.49438 5.67292C6.89063 6.08147 7.1842 6.73467 7.18565 7.21118L7.18622 7.39282H8.80694H10.4277V5.3343V3.27579H8.14132H5.85497L5.28743 2.69509C4.97532 2.37571 4.7035 2.11416 4.68349 2.11387C4.66348 2.11358 4.49436 2.19228 4.30767 2.28877ZM11.2263 5.3343V7.39282H14.4186H17.6109L17.6382 7.21118C17.6532 7.11131 17.6968 6.90323 17.7351 6.74886C17.9556 5.86007 18.7603 5.12027 19.6753 4.96527C20.9441 4.75036 22.1982 5.70193 22.4117 7.04166L22.4677 7.39282H22.8638H23.26L23.2445 6.24247L23.229 5.09212L23.0961 4.859C22.9382 4.58195 22.6318 4.36491 21.9841 4.0712C21.1327 3.68512 20.2341 3.43175 19.3534 3.32931C19.1596 3.30679 17.2518 3.28552 15.1137 3.28209L11.2263 3.27579V5.3343ZM14.0351 4.1113L14.0214 4.5109H13.2228H12.4242L12.4106 4.1113L12.3969 3.71171H13.2228H14.0487L14.0351 4.1113ZM19.5385 5.8454C19.4465 5.86995 19.2696 5.95951 19.1454 6.04437C18.1407 6.73051 18.2421 8.29265 19.3299 8.88701C19.5388 9.00112 19.6168 9.01531 20.0346 9.01531C20.4526 9.01531 20.5304 9.00112 20.7414 8.88638C21.7128 8.35785 21.9281 7.0419 21.1709 6.26112C20.731 5.80762 20.1927 5.67054 19.5385 5.8454ZM4.10252 5.94265C3.45728 6.26315 3.09838 7.00122 3.24104 7.71399C3.31635 8.09015 3.43943 8.32956 3.68254 8.57285C3.99541 8.88594 4.27812 9.01076 4.7199 9.03091C5.24797 9.05493 5.56864 8.92886 5.92304 8.55794C6.27575 8.18881 6.40258 7.85107 6.37872 7.34438C6.32202 6.13775 5.15566 5.4195 4.10252 5.94265Z" stroke="#A0627B" stroke-width="0.6" mask="url(#path-1-inside-1_2706_283166)"/>
</svg>
