<svg width="28" height="19" viewBox="0 0 28 19" fill="none" xmlns="http://www.w3.org/2000/svg">
<path d="M0 3.34375H26V6.34375H0V3.34375Z" fill="#383F43"/>
<path d="M2.75134 12.3844C2.75134 12.1311 2.95667 11.9258 3.20996 11.9258H14.8444C15.0977 11.9258 15.3031 12.1311 15.3031 12.3844C15.3031 12.6377 15.0977 12.843 14.8444 12.843H3.20996C2.95667 12.843 2.75134 12.6377 2.75134 12.3844Z" fill="#383F43"/>
<circle cx="3.86131" cy="15.4477" r="0.772414" fill="#383F43"/>
<circle cx="6.9521" cy="15.4477" r="0.772414" fill="#383F43"/>
<circle cx="10.041" cy="15.4477" r="0.772414" fill="#383F43"/>
<path d="M26.0532 14.7344C26.0706 14.6048 26.08 14.4744 26.0812 14.3438C26.08 14.2131 26.0706 14.0827 26.0532 13.9531L26.9212 13.291C26.9604 13.2618 26.9872 13.2196 26.9964 13.1724C27.0057 13.1252 26.9968 13.0763 26.9713 13.0352L26.1494 11.6465C26.1256 11.6048 26.087 11.5731 26.0408 11.5573C25.9947 11.5414 25.9441 11.5426 25.8988 11.5606L24.8744 11.9629C24.6612 11.8044 24.4281 11.6731 24.1808 11.5723L24.0264 10.5117C24.0196 10.4648 23.9955 10.4219 23.9586 10.391C23.9217 10.3601 23.8746 10.3433 23.8259 10.3438H22.1781C22.1294 10.3433 22.0823 10.3601 22.0454 10.391C22.0085 10.4219 21.9844 10.4648 21.9776 10.5117L21.8232 11.5723C21.5755 11.6725 21.3424 11.8038 21.1296 11.9629L20.1012 11.5606C20.0558 11.5426 20.0053 11.5414 19.9592 11.5573C19.913 11.5731 19.8744 11.6048 19.8506 11.6465L19.0287 13.0352C19.0032 13.0763 18.9943 13.1252 19.0036 13.1724C19.0128 13.2196 19.0396 13.2618 19.0788 13.291L19.9448 13.9531C19.9274 14.0827 19.9181 14.2131 19.9168 14.3438C19.918 14.4744 19.9274 14.6048 19.9448 14.7344L19.0788 15.3965C19.0396 15.4257 19.0128 15.4679 19.0036 15.5151C18.9943 15.5623 19.0032 15.6112 19.0287 15.6523L19.8506 17.041C19.8744 17.0827 19.913 17.1144 19.9592 17.1302C20.0053 17.1461 20.0558 17.1449 20.1012 17.1269L21.1256 16.7246C21.3388 16.8831 21.5719 17.0144 21.8192 17.1152L21.9736 18.1758C21.9804 18.2227 22.0045 18.2656 22.0414 18.2965C22.0783 18.3274 22.1254 18.3442 22.1741 18.3437H23.8179C23.8666 18.3442 23.9137 18.3274 23.9506 18.2965C23.9875 18.2656 24.0116 18.2227 24.0184 18.1758L24.1728 17.1152C24.4204 17.015 24.6536 16.8837 24.8664 16.7246L25.8908 17.1269C25.9361 17.1449 25.9866 17.1461 26.0328 17.1302C26.079 17.1144 26.1176 17.0827 26.1414 17.041L26.9633 15.6523C26.9887 15.6112 26.9977 15.5623 26.9884 15.5151C26.9792 15.4679 26.9524 15.4257 26.9132 15.3965L26.0532 14.7344ZM23 15.7461C22.7152 15.7465 22.4367 15.6646 22.1998 15.5107C21.9628 15.3568 21.778 15.138 21.6688 14.8818C21.5595 14.6255 21.5307 14.3435 21.586 14.0714C21.6413 13.7992 21.7783 13.5492 21.9795 13.3528C22.1807 13.1565 22.4372 13.0228 22.7164 12.9685C22.9957 12.9142 23.2852 12.9419 23.5484 13.048C23.8115 13.1541 24.0364 13.3338 24.1947 13.5644C24.3529 13.7951 24.4374 14.0663 24.4374 14.3438C24.4376 14.5278 24.4007 14.7101 24.3285 14.8803C24.2564 15.0504 24.1506 15.205 24.0171 15.3352C23.8836 15.4655 23.725 15.5688 23.5505 15.6393C23.376 15.7098 23.1889 15.7461 23 15.7461V15.7461Z" stroke="#383F43" stroke-width="0.541667" stroke-linecap="round" stroke-linejoin="round"/>
<path fill-rule="evenodd" clip-rule="evenodd" d="M4 0.5H22C23.933 0.5 25.5 2.067 25.5 4V9.87031C25.6715 9.95347 25.8383 10.0457 26 10.1464V4C26 1.79086 24.2091 0 22 0H4C1.79086 0 0 1.79086 0 4V14.3448C0 16.554 1.79086 18.3448 4 18.3448H18.3888C18.3017 18.1828 18.2215 18.016 18.1485 17.8448H4C2.067 17.8448 0.5 16.2778 0.5 14.3448V4C0.5 2.067 2.067 0.5 4 0.5Z" fill="#383F43"/>
</svg>
