<svg width="24" height="24" viewBox="0 0 24 24" fill="none" xmlns="http://www.w3.org/2000/svg">
<path d="M15.6357 20.6361C15.6357 19.2129 16.7887 18.0837 18.1881 18.0837C19.5813 18.0837 20.7146 19.234 20.7404 20.6383C20.7393 22.0605 19.5868 23.1884 18.1881 23.1884C16.7649 23.1884 15.6357 22.0355 15.6357 20.6361Z" stroke="#383F43" stroke-width="0.5"/>
<path d="M5.68078 4.4786L5.71259 4.6917H5.92804H22.9038C22.9194 4.6917 22.94 4.69441 22.977 4.70114C22.9924 4.70394 23.0155 4.70832 23.0363 4.71153C23.0509 4.71377 23.0697 4.71633 23.0907 4.71769C23.5373 4.80773 23.8164 5.23638 23.7363 5.66024C23.7362 5.66062 23.7361 5.66099 23.736 5.66137L21.9858 14.4128C21.9857 14.4134 21.9855 14.414 21.9854 14.4146C21.7126 15.6752 20.6004 16.5867 19.32 16.5867H8.11064C6.78025 16.5867 5.64528 15.6004 5.4478 14.294C5.44777 14.2938 5.44774 14.2936 5.44771 14.2934L3.77723 2.92335L3.77755 2.9233L3.77503 2.91066C3.73012 2.68611 3.53989 2.46718 3.26042 2.46718H1.07783C0.623093 2.46718 0.25 2.09408 0.25 1.63935C0.25 1.18462 0.623093 0.811523 1.07783 0.811523H3.26042C4.34967 0.811523 5.26633 1.61006 5.41088 2.67012L5.41086 2.67012L5.41133 2.67324L5.68078 4.4786Z" stroke="#383F43" stroke-width="0.5"/>
<path d="M11.0676 20.5104L11.0676 20.5104L11.0678 20.5145C11.1409 21.9045 10.044 23.0843 8.6431 23.1615H8.59593C7.25053 23.1615 6.14647 22.0845 6.09731 20.735C6.04842 19.3392 7.12358 18.1608 8.54849 18.0837C9.89421 18.0872 11.0187 19.1661 11.0676 20.5104Z" stroke="#383F43" stroke-width="0.5"/>
</svg>
