<svg width="19" height="18" viewBox="0 0 19 18" fill="none" xmlns="http://www.w3.org/2000/svg">
<path d="M17.7871 0.0309858C17.6298 -0.0319438 17.4488 0.00289598 17.3285 0.119052L13.3049 4.00424C12.0013 3.42535 10.5372 3.12076 9.04687 3.12076C7.5566 3.12076 6.09242 3.42539 4.7888 4.00427L0.765237 0.119017C0.644836 0.00286083 0.46389 -0.031979 0.306644 0.0309506C0.149399 0.0938803 0.046875 0.242029 0.046875 0.406384V10.5604C0.046875 12.5603 0.991984 14.4365 2.70814 15.8434C4.40452 17.2341 6.65565 18 9.04687 18C11.4381 18 13.6893 17.2341 15.3856 15.8434C17.1017 14.4365 18.0469 12.5603 18.0469 10.5604V0.406384C18.0469 0.242029 17.9443 0.0938803 17.7871 0.0309858ZM9.04691 17.1873C4.5484 17.1873 0.888477 14.2145 0.888477 10.5604V1.38738L4.03221 4.42302C3.56427 4.7165 3.16072 5.04947 2.82774 5.41871C2.67512 5.58795 2.6935 5.84463 2.86873 5.992C2.94846 6.05905 3.04691 6.09188 3.14492 6.09188C3.26241 6.09188 3.37848 6.04397 3.46247 5.95238C4.17257 5.17835 5.17047 4.73665 5.22169 4.70803C6.39511 4.20083 7.70831 3.93343 9.04687 3.93343C10.4405 3.93343 11.8071 4.22245 13.0165 4.77106C13.0355 4.78509 14.2543 5.38496 14.6313 5.95242C14.6997 6.05539 14.8313 6.09192 14.9488 6.09192C15.0468 6.09192 15.1452 6.05905 15.225 5.99204C15.4003 5.84467 15.4186 5.58799 15.266 5.41875C14.9339 5.05045 14.53 4.71724 14.0614 4.42323L17.2053 1.38738V10.5604C17.2052 14.2145 13.5454 17.1873 9.04691 17.1873Z" fill="#A0627B"/>
<path d="M12.9287 12.2695C12.6963 12.2695 12.5079 12.4515 12.5079 12.6759L12.5079 12.6878C12.5047 12.9122 12.6905 13.0966 12.9229 13.0996C12.9249 13.0996 12.9268 13.0997 12.9288 13.0997C13.1585 13.0997 13.3463 12.9214 13.3494 12.6989L13.3496 12.6759C13.3495 12.4515 13.1611 12.2695 12.9287 12.2695Z" fill="#A0627B"/>
<path d="M6.13199 9.2267C6.13199 9.4511 6.3204 9.63303 6.55279 9.63303C6.78518 9.63303 6.97359 9.4511 6.97359 9.2267C6.97359 8.2342 6.16249 7.42676 5.1655 7.42676C4.16851 7.42676 3.35742 8.2342 3.35742 9.2267C3.35742 9.4511 3.54583 9.63303 3.77822 9.63303C4.01061 9.63303 4.19902 9.4511 4.19902 9.2267C4.19902 8.68233 4.63257 8.23943 5.16547 8.23943C5.69837 8.23943 6.13199 8.6823 6.13199 9.2267Z" fill="#A0627B"/>
<path d="M12.9282 7.42676C11.9312 7.42676 11.1201 8.2342 11.1201 9.2267C11.1201 9.4511 11.3085 9.63303 11.5409 9.63303C11.7733 9.63303 11.9617 9.4511 11.9617 9.2267C11.9617 8.68233 12.3953 8.23943 12.9282 8.23943C13.4611 8.23943 13.8946 8.6823 13.8946 9.2267C13.8946 9.4511 14.083 9.63303 14.3154 9.63303C14.5478 9.63303 14.7362 9.4511 14.7362 9.2267C14.7363 8.2342 13.9252 7.42676 12.9282 7.42676Z" fill="#A0627B"/>
<path d="M11.8536 13.5122C11.5977 13.6343 11.2981 13.6988 10.9871 13.6988C10.4715 13.6988 10.0062 13.515 9.73011 13.2415C10.305 13.0271 10.706 12.5513 10.706 11.9998C10.706 11.2481 9.96148 10.6365 9.04641 10.6365C8.13134 10.6365 7.38683 11.2481 7.38683 11.9998C7.38683 12.5513 7.78783 13.0271 8.36271 13.2415C8.08663 13.515 7.6213 13.6988 7.10569 13.6988C6.28179 13.6988 5.58574 13.2298 5.58574 12.6748C5.58574 12.4504 5.39733 12.2685 5.16494 12.2685C4.93255 12.2685 4.74414 12.4504 4.74414 12.6748C4.74414 13.6875 5.8035 14.5114 7.10569 14.5114C7.90943 14.5114 8.61993 14.1972 9.04645 13.7187C9.47296 14.1972 10.1835 14.5114 10.9872 14.5114C11.4267 14.5114 11.8552 14.4178 12.2264 14.2408C12.4348 14.1414 12.5202 13.8978 12.4173 13.6965C12.3144 13.4954 12.062 13.4129 11.8536 13.5122ZM9.04637 12.5504C8.603 12.5504 8.2284 12.2983 8.2284 11.9998C8.2284 11.7014 8.60296 11.4492 9.04637 11.4492C9.48978 11.4492 9.86435 11.7014 9.86435 11.9998C9.86435 12.2983 9.48975 12.5504 9.04637 12.5504Z" fill="#A0627B"/>
</svg>
