<svg width="12" height="9" viewBox="0 0 12 9" fill="none" xmlns="http://www.w3.org/2000/svg">
<path fill-rule="evenodd" clip-rule="evenodd" d="M11.1901 0.0151725C11.1496 0.0270597 11.0685 0.0694121 11.0098 0.109267C10.9478 0.15144 9.49381 1.71464 7.53235 3.84794C4.33204 7.32859 4.15961 7.51194 4.12469 7.47119C4.10448 7.44757 3.39434 6.72497 2.54665 5.86539C0.837565 4.1324 0.924496 4.20734 0.623343 4.20734C0.156511 4.20734 -0.145041 4.6798 0.0715025 5.07198C0.10241 5.12796 0.893917 5.94816 1.95797 7.02682C3.93326 9.02926 3.87581 8.9773 4.13695 8.99788C4.31863 9.01222 4.47584 8.95397 4.62771 8.81612C4.83266 8.63003 11.8858 0.947816 11.9341 0.858049C12.1348 0.485018 11.8533 0.0252532 11.4095 0.00136728C11.3294 -0.00293709 11.2307 0.00326297 11.1901 0.0151725Z" fill="#57B88B"/>
</svg>
