<svg width="18" height="18" viewBox="0 0 18 18" fill="none" xmlns="http://www.w3.org/2000/svg">
<path d="M18 10.2857C18 9.95758 17.8942 9.65195 17.7129 9.39528C17.7865 8.97235 17.8241 8.53994 17.8241 8.10781C17.8241 3.63716 13.8656 0 8.9999 0C4.13422 0 0.175633 3.63716 0.175633 8.10781C0.175633 8.54017 0.213298 8.97269 0.286864 9.39563C0.105724 9.65222 0 9.95774 0 10.2857C0 11.1025 0.653263 11.7816 1.5049 11.9056C1.95937 15.3348 5.14711 18 8.99998 18C12.8528 18 16.0406 15.3348 16.4951 11.9056C17.3468 11.7817 18 11.1025 18 10.2857ZM0.672642 10.2857C0.672642 9.82966 0.999358 9.44252 1.44895 9.31124L1.44899 11.0621C1.44899 11.1287 1.45025 11.1951 1.45231 11.2612C1.00096 11.1309 0.672642 10.7429 0.672642 10.2857ZM9.00002 17.382C5.20723 17.382 2.12163 14.5469 2.12163 11.0621L2.12159 7.86687C2.12159 7.38955 2.39404 6.96726 2.85044 6.73725C3.30234 6.50948 3.83054 6.52486 4.26349 6.77839C5.6775 7.6065 7.31537 8.04423 8.9999 8.04423C10.6845 8.04423 12.3224 7.6065 13.7365 6.77835C14.1694 6.52486 14.6976 6.50941 15.1495 6.73718C15.6059 6.96715 15.8784 7.38947 15.8784 7.86675L15.8785 11.0621C15.8785 14.5469 12.7928 17.382 9.00002 17.382ZM15.4729 6.19535C14.8024 5.85739 14.0181 5.8806 13.375 6.25727C12.0691 7.02207 10.5562 7.42632 8.99985 7.42632C7.44358 7.42632 5.93078 7.02207 4.62493 6.2573C3.98179 5.88064 3.19742 5.85754 2.52688 6.19543C1.85188 6.53559 1.44886 7.16043 1.44891 7.86687V8.67494C1.24881 8.71012 1.06061 8.77613 0.890102 8.86732C0.862526 8.61565 0.848191 8.36173 0.848191 8.10777C0.848233 3.97791 4.50508 0.617994 8.9999 0.617994C13.4947 0.617994 17.1515 3.97791 17.1515 8.10781C17.1515 8.36169 17.1372 8.61557 17.1096 8.86721C16.9391 8.77606 16.751 8.71012 16.551 8.67494V7.86679C16.5509 7.16035 16.148 6.53552 15.4729 6.19535ZM16.5477 11.2612C16.5498 11.1951 16.5511 11.1287 16.5511 11.0621L16.551 9.3112C17.0007 9.44248 17.3274 9.82966 17.3274 10.2857C17.3274 10.7429 16.9991 11.1309 16.5477 11.2612Z" fill="#A0627B"/>
<path d="M5.92333 11.5973C6.23587 11.5973 6.48924 11.3645 6.48924 11.0773C6.48924 10.7902 6.23587 10.5574 5.92333 10.5574C5.61079 10.5574 5.35742 10.7902 5.35742 11.0773C5.35742 11.3645 5.61079 11.5973 5.92333 11.5973Z" fill="#A0627B"/>
<path d="M12.1831 11.5973C12.4956 11.5973 12.749 11.3645 12.749 11.0773C12.749 10.7902 12.4956 10.5574 12.1831 10.5574C11.8706 10.5574 11.6172 10.7902 11.6172 11.0773C11.6172 11.3645 11.8706 11.5973 12.1831 11.5973Z" fill="#A0627B"/>
<path d="M11.1669 9.74661C11.0355 9.86731 11.0355 10.0629 11.1669 10.1836C11.2982 10.3042 11.5111 10.3042 11.6425 10.1836C11.9408 9.90945 12.4262 9.90945 12.7245 10.1836C12.7902 10.2439 12.8762 10.2741 12.9623 10.2741C13.0484 10.2741 13.1344 10.2439 13.2001 10.1836C13.3315 10.0629 13.3315 9.86731 13.2001 9.74661C12.6395 9.2316 11.7275 9.2316 11.1669 9.74661Z" fill="#A0627B"/>
<path d="M5.92275 9.35864C5.53873 9.35864 5.17767 9.49607 4.90611 9.74558C4.77479 9.86625 4.77479 10.0619 4.90611 10.1825C5.03744 10.3032 5.25036 10.3032 5.38172 10.1825C5.52625 10.0497 5.71836 9.97664 5.92271 9.97664C6.12709 9.97664 6.3192 10.0498 6.46373 10.1825C6.52943 10.2429 6.61544 10.273 6.70153 10.273C6.78759 10.273 6.87368 10.2429 6.93934 10.1825C7.07067 10.0619 7.07071 9.86625 6.93934 9.74558C6.66786 9.49603 6.3068 9.35864 5.92275 9.35864Z" fill="#A0627B"/>
<path d="M10.3634 13.1256C10.1777 13.1256 10.0271 13.264 10.0271 13.4346C10.0271 13.9553 9.56604 14.379 8.99929 14.379C8.43254 14.379 7.97143 13.9553 7.97143 13.4346C7.97143 13.264 7.82085 13.1256 7.63513 13.1256C7.44941 13.1256 7.29883 13.264 7.29883 13.4346C7.29883 14.2961 8.06164 14.997 8.99929 14.997C9.93689 14.997 10.6997 14.2961 10.6997 13.4346C10.6997 13.264 10.5491 13.1256 10.3634 13.1256Z" fill="#A0627B"/>
</svg>
