<svg width="18" height="18" viewBox="0 0 18 18" fill="none" xmlns="http://www.w3.org/2000/svg">
<path fill-rule="evenodd" clip-rule="evenodd" d="M4.49796 3.18794C2.07518 4.94177 0.0718408 6.40483 0.0460382 6.43918C-0.030057 6.54055 -0.00965493 6.70692 0.0912302 6.80777C0.181952 6.89853 0.19264 6.89984 0.841306 6.89984H1.49931V12.3583V17.8168L1.59138 17.9089L1.68342 18.001H9.00006H16.3167L16.4087 17.9089L16.5008 17.8168V12.3583V6.89984H17.1588C17.8075 6.89984 17.8182 6.89853 17.9089 6.80777C18.0034 6.71333 18.0273 6.56868 17.9669 6.45669C17.9482 6.42197 17.4762 6.06444 16.918 5.66221L15.9032 4.93089L15.902 3.00713L15.9008 1.08334L15.8087 0.991308L15.7166 0.899236H14.4065C13.1728 0.899236 13.0911 0.903436 13.0078 0.970868C12.9205 1.04141 12.9189 1.05514 12.9005 1.88986L12.8817 2.73722L10.9909 1.36818C9.64595 0.394323 9.07173 -0.000854492 9.0016 -0.000854492C8.93042 -0.000854492 7.67704 0.886597 4.49796 3.18794ZM12.8913 3.487L16.7492 6.28103L15.5749 6.29093L14.4006 6.30083V6.60033V6.89984H15.1507H15.9008V12.1504V17.4009L11.691 17.3979C7.98251 17.3953 7.51007 17.3887 7.72396 17.3423C7.85751 17.3134 8.10912 17.2214 8.2831 17.1379C8.53831 17.0154 8.65818 16.9265 8.90375 16.6778C9.07113 16.5083 9.25618 16.279 9.31498 16.1684C9.47332 15.8705 10.2244 13.6329 10.2545 13.3692C10.2879 13.0774 10.2069 12.686 10.0483 12.3716C9.92464 12.1268 9.55808 11.7277 9.415 11.6823C9.37244 11.6688 9.33759 11.6394 9.33759 11.6169C9.33759 11.5944 9.93207 9.84463 10.6586 7.72841C11.8699 4.20054 11.9796 3.86053 11.9789 3.63701C11.9773 3.11998 11.6154 2.75807 11.1003 2.75833C10.7001 2.75852 10.4015 2.97083 10.2523 3.36117C10.2141 3.46131 9.60845 5.22248 8.90649 7.27488L7.63024 11.0065L7.29315 11.0283C6.7816 11.0613 6.42802 11.2023 6.10882 11.5009C5.80617 11.784 5.71931 11.9655 5.28921 13.2134C5.06479 13.8645 4.87206 14.4119 4.86092 14.43C4.83092 14.4785 5.35515 14.723 5.39666 14.6798C5.41541 14.6603 5.55257 14.29 5.70146 13.8568C5.85035 13.4236 5.98416 13.0558 5.99882 13.0395C6.02343 13.0121 7.0334 13.3308 7.09678 13.386C7.11227 13.3995 7.06584 13.586 6.99365 13.8004C6.92142 14.0149 6.86235 14.2023 6.86235 14.217C6.86235 14.2317 6.9854 14.2852 7.13579 14.3357L7.40919 14.4277L7.55399 14.0061L7.69876 13.5845L7.97437 13.6771C8.12596 13.7281 8.24999 13.7838 8.24999 13.8009C8.24999 13.8685 7.65293 15.5603 7.57556 15.712C7.32094 16.211 6.65626 16.5566 6.09787 16.4802C5.9471 16.4596 4.80572 16.0921 4.27624 15.8937C4.18784 15.8606 4.19279 15.8543 4.39809 15.7379C4.51577 15.6712 4.68957 15.5518 4.7843 15.4727L4.95652 15.3287L4.75745 15.1272C4.64801 15.0163 4.5475 14.9256 4.53419 14.9256C4.52084 14.9256 4.44433 14.9786 4.36415 15.0432C4.14239 15.2221 3.79911 15.3682 3.48888 15.4159C3.25377 15.452 3.1569 15.4486 2.8781 15.3948C2.69583 15.3596 2.50546 15.3411 2.45498 15.3537C2.26641 15.4011 2.20588 15.7033 2.35751 15.8405C2.43102 15.907 6.39186 17.2694 6.73108 17.3449C6.92723 17.3885 6.64464 17.3953 4.52774 17.3979L2.09937 17.4009V12.1504V6.89984H2.84944H3.59952V6.59981V6.29978H2.41444H1.22936L2.89261 5.09411C3.8074 4.431 5.3997 3.27791 6.43105 2.53174C7.46241 1.78552 8.45813 1.06286 8.64378 0.925789C8.82942 0.78875 8.99305 0.680289 9.00737 0.684789C9.0217 0.68929 10.7695 1.95028 12.8913 3.487ZM15.3007 2.98069C15.3007 3.79546 15.2926 4.46209 15.2827 4.46209C15.2728 4.46209 14.8719 4.17849 14.3919 3.83188L13.5193 3.20163L13.5092 2.35048L13.4991 1.4993H14.3999H15.3007V2.98069ZM11.2272 3.37936C11.37 3.44439 11.4198 3.60213 11.3624 3.8072C11.3363 3.90032 11.3026 3.98411 11.2875 3.99345C11.2725 4.00278 11.144 3.97079 11.0021 3.92238C10.7174 3.82528 10.7025 3.79404 10.8213 3.54366C10.9074 3.36237 11.057 3.3018 11.2272 3.37936ZM10.8305 4.50305C10.9582 4.54618 11.0628 4.60375 11.0628 4.63097C11.0628 4.6765 8.78449 11.3659 8.76097 11.3894C8.74534 11.405 8.27365 11.2449 8.2366 11.2113C8.19504 11.1737 10.5025 4.42459 10.557 4.42459C10.5796 4.42459 10.7027 4.45988 10.8305 4.50305ZM5.99976 5.99975V6.29978H5.69973H5.3997V6.59981V6.89984H5.69973H5.99976V7.19987V7.4999H6.29979H6.59982V7.19987V6.89984H6.89985H7.19988V6.59981V6.29978H6.89985H6.59982V5.99975V5.69972H6.29979H5.99976V5.99975ZM6.59982 6.59981V6.89984H6.29979H5.99976V6.59981V6.29978H6.29979H6.59982V6.59981ZM12.6004 9.30008V9.60011H12.3004H12.0004V9.90014V10.2002H12.3004H12.6004V10.5002V10.8002H12.9005H13.2005V10.5002V10.2002H13.5005H13.8005V9.90014V9.60011H13.5005H13.2005V9.30008V9.00005H12.9005H12.6004V9.30008ZM13.2005 9.90014V10.2002H12.9005H12.6004V9.90014V9.60011H12.9005H13.2005V9.90014ZM8.2546 11.8687C8.64876 12.0026 9.02789 12.1471 9.09708 12.1899C9.2924 12.3106 9.51435 12.5868 9.58763 12.8003C9.66058 13.0128 9.67348 13.4796 9.60826 13.5449C9.54777 13.6054 6.22478 12.4594 6.22478 12.3781C6.22478 12.241 6.54323 11.8829 6.76859 11.7665C7.17719 11.5554 7.37157 11.5688 8.2546 11.8687ZM9.1407 14.0721C9.26964 14.1183 9.3751 14.1747 9.3751 14.1975C9.3751 14.2699 8.89366 15.6668 8.81678 15.8174C8.56164 16.3175 8.07274 16.6703 7.4833 16.7795L7.33542 16.8069L7.52223 16.6593C7.99766 16.2835 8.13691 16.0331 8.55407 14.8038C8.7063 14.3551 8.84783 13.988 8.86857 13.988C8.88931 13.988 9.0118 14.0259 9.1407 14.0721ZM6.55077 15.0908L6.45742 15.3684L6.7255 15.464C6.87292 15.5165 7.00437 15.5477 7.01758 15.5332C7.07608 15.4692 7.20836 15.032 7.17745 15.0049C7.14509 14.9766 6.70836 14.8131 6.665 14.8131C6.65349 14.8131 6.60211 14.9381 6.55077 15.0908Z" fill="#A0627B"/>
</svg>
