<svg width="20" height="18" viewBox="0 0 20 18" fill="none" xmlns="http://www.w3.org/2000/svg">
<path d="M14.5959 0.0045537C13.7727 0.0456799 12.9562 0.367391 12.2788 1.04624L0.870115 12.4786C0.180412 13.1697 -0.0713419 14.0251 0.0170029 14.822C0.105392 15.6189 0.507941 16.3569 1.07381 16.924C1.63959 17.491 2.37611 17.8944 3.1713 17.983C3.96658 18.0715 4.82018 17.8192 5.50984 17.1281L15.2888 7.32903C16.2214 6.39434 16.1525 5.17836 15.4925 4.51687C14.8324 3.85546 13.6188 3.78634 12.6861 4.72099L6.16698 11.2536L6.73232 11.8202L13.2516 5.28745C13.9487 4.58888 14.5687 4.72397 14.9272 5.08324C15.2858 5.44256 15.4206 6.06386 14.7234 6.76243L4.94464 16.5615C4.41199 17.0953 3.83955 17.2513 3.25969 17.1867C2.67978 17.1222 2.09197 16.8111 1.63915 16.3574C1.18636 15.9036 0.875978 15.3146 0.811573 14.7335C0.747169 14.1524 0.902805 13.5787 1.43545 13.045L12.8441 1.61275C13.5707 0.884673 14.4064 0.695733 15.2834 0.844081C16.1604 0.992474 17.0656 1.50993 17.7794 2.22519C18.4932 2.94036 19.0095 3.84754 19.1576 4.72637C19.3057 5.60524 19.1171 6.44264 18.3906 7.1708L8.61177 16.9699L9.17702 17.5363L18.9559 7.73718C19.8591 6.83209 20.1289 5.67908 19.9459 4.59298C19.763 3.50687 19.159 2.47458 18.3447 1.65868C17.5306 0.842745 16.5004 0.237513 15.4165 0.0541367C15.1456 0.00829254 14.8704 -0.00915505 14.596 0.0045537H14.5959Z" fill="black"/>
</svg>
