<svg width="28" height="26" viewBox="0 0 28 26" fill="none" xmlns="http://www.w3.org/2000/svg">
<mask id="path-1-inside-1_3217_166261" fill="white">
<path fill-rule="evenodd" clip-rule="evenodd" d="M13.137 6.8449C13.1126 6.86107 13.0722 6.90037 13.0471 6.93224L13.0016 6.99018L13.0006 9.89665C12.9995 12.7681 12.9998 12.8039 13.019 12.8645C13.0297 12.8983 13.052 12.9469 13.0686 12.9726C13.1121 13.04 15.4558 15.3804 15.5125 15.413C15.5964 15.4612 15.6626 15.458 15.7399 15.402C15.8296 15.337 15.8588 15.2282 15.8113 15.1363C15.7954 15.1054 15.4529 14.7553 14.6747 13.9743C14.0574 13.3548 13.5455 12.8332 13.5262 12.8041C13.507 12.7753 13.4794 12.719 13.4649 12.6792L13.4384 12.6066L13.4363 9.81668C13.4352 8.28219 13.432 7.01491 13.4293 7.00049C13.4267 6.98606 13.3977 6.94564 13.365 6.91067C13.2704 6.80952 13.2147 6.79346 13.137 6.8449Z"/>
</mask>
<path fill-rule="evenodd" clip-rule="evenodd" d="M13.137 6.8449C13.1126 6.86107 13.0722 6.90037 13.0471 6.93224L13.0016 6.99018L13.0006 9.89665C12.9995 12.7681 12.9998 12.8039 13.019 12.8645C13.0297 12.8983 13.052 12.9469 13.0686 12.9726C13.1121 13.04 15.4558 15.3804 15.5125 15.413C15.5964 15.4612 15.6626 15.458 15.7399 15.402C15.8296 15.337 15.8588 15.2282 15.8113 15.1363C15.7954 15.1054 15.4529 14.7553 14.6747 13.9743C14.0574 13.3548 13.5455 12.8332 13.5262 12.8041C13.507 12.7753 13.4794 12.719 13.4649 12.6792L13.4384 12.6066L13.4363 9.81668C13.4352 8.28219 13.432 7.01491 13.4293 7.00049C13.4267 6.98606 13.3977 6.94564 13.365 6.91067C13.2704 6.80952 13.2147 6.79346 13.137 6.8449Z" fill="#383F43"/>
<path d="M13.137 6.8449L13.6893 7.6786L13.6893 7.67857L13.137 6.8449ZM13.0471 6.93224L12.2608 6.3144L12.2608 6.31443L13.0471 6.93224ZM13.0016 6.99018L12.2153 6.37237L12.0017 6.64417L12.0016 6.98983L13.0016 6.99018ZM13.0006 9.89665L14.0006 9.89701V9.89701L13.0006 9.89665ZM13.019 12.8645L12.0657 13.1667L12.0658 13.1668L13.019 12.8645ZM13.0686 12.9726L13.9088 12.4304L13.9088 12.4304L13.0686 12.9726ZM15.5125 15.413L16.0111 14.5461L16.011 14.546L15.5125 15.413ZM15.7399 15.402L16.3266 16.2118L16.3266 16.2118L15.7399 15.402ZM15.8113 15.1363L14.9227 15.595L14.9228 15.5951L15.8113 15.1363ZM14.6747 13.9743L13.9664 14.6802L13.9664 14.6802L14.6747 13.9743ZM13.5262 12.8041L14.3593 12.2511L14.3593 12.251L13.5262 12.8041ZM13.4649 12.6792L12.5255 13.0221L12.5256 13.0223L13.4649 12.6792ZM13.4384 12.6066L12.4384 12.6074L12.4385 12.7839L12.499 12.9496L13.4384 12.6066ZM13.4363 9.81668L14.4363 9.81593V9.81593L13.4363 9.81668ZM13.4293 7.00049L12.4462 7.1832L12.4462 7.18332L13.4293 7.00049ZM13.365 6.91067L14.0953 6.22754L14.0953 6.22754L13.365 6.91067ZM12.5848 6.0112C12.4445 6.10416 12.3284 6.22833 12.2608 6.3144L13.8334 7.55009C13.8124 7.57682 13.7971 7.5922 13.7891 7.59998C13.7837 7.60522 13.775 7.61335 13.7628 7.62373C13.7531 7.63195 13.7274 7.65331 13.6893 7.6786L12.5848 6.0112ZM12.2608 6.31443L12.2153 6.37237L13.7879 7.608L13.8334 7.55006L12.2608 6.31443ZM12.0016 6.98983L12.0006 9.8963L14.0006 9.89701L14.0016 6.99054L12.0016 6.98983ZM12.0006 9.8963C12.0001 11.3296 11.9998 12.0611 12.0022 12.4408C12.0033 12.6256 12.0051 12.7459 12.009 12.8267C12.0137 12.9256 12.0241 13.0354 12.0657 13.1667L13.9722 12.5623C14.0042 12.6633 14.0074 12.7459 14.0067 12.7313C14.0052 12.6986 14.0033 12.6191 14.0022 12.4284C13.9999 12.0572 14.0001 11.3351 14.0006 9.89701L12.0006 9.8963ZM12.0658 13.1668C12.0991 13.2719 12.1566 13.4036 12.2283 13.5147L13.9088 12.4304C13.9253 12.456 13.9356 12.4751 13.9398 12.483C13.9449 12.4926 13.9483 12.4998 13.9505 12.5046C13.9528 12.5097 13.9554 12.5156 13.9583 12.5229C13.9609 12.5295 13.9661 12.543 13.9722 12.5622L12.0658 13.1668ZM12.2283 13.5147C12.2645 13.5708 12.2998 13.6124 12.3035 13.6169C12.3154 13.6313 12.3261 13.6433 12.3328 13.6509C12.3468 13.6666 12.3612 13.6821 12.3734 13.695C12.3985 13.7218 12.4303 13.755 12.4658 13.7915C12.5375 13.8655 12.6355 13.9653 12.7496 14.0807C12.9784 14.3122 13.2789 14.6138 13.579 14.9135C13.8792 15.2132 14.1805 15.5125 14.411 15.7397C14.5259 15.8529 14.625 15.95 14.6982 16.0207C14.7343 16.0555 14.7672 16.087 14.7937 16.1118C14.8064 16.1236 14.8224 16.1384 14.8387 16.1528C14.8464 16.1596 14.8599 16.1714 14.8763 16.1848C14.8844 16.1914 14.8979 16.2023 14.9149 16.2148C14.9271 16.2239 14.9638 16.251 15.0141 16.2799L16.011 14.546C16.0604 14.5744 16.0959 14.6007 16.1067 14.6087C16.1222 14.6202 16.134 14.6297 16.1402 14.6347C16.1526 14.6449 16.161 14.6523 16.1626 14.6537C16.1667 14.6574 16.1663 14.6572 16.1587 14.65C16.1447 14.6369 16.1214 14.6147 16.0879 14.5823C16.0218 14.5185 15.9282 14.4269 15.8147 14.3151C15.5885 14.0921 15.2905 13.7961 14.9922 13.4982C14.6939 13.2003 14.3967 12.9021 14.172 12.6748C14.0594 12.5608 13.9667 12.4664 13.9017 12.3994C13.8688 12.3654 13.8458 12.3414 13.8318 12.3264C13.8243 12.3185 13.8231 12.3171 13.8257 12.3199C13.8267 12.3211 13.8327 12.3278 13.841 12.3378C13.8412 12.338 13.874 12.3764 13.9088 12.4304L12.2283 13.5147ZM15.014 16.2798C15.1604 16.364 15.3889 16.4593 15.6769 16.4454C15.9667 16.4314 16.1865 16.3133 16.3266 16.2118L15.1533 14.5921C15.216 14.5467 15.3641 14.4582 15.5804 14.4477C15.7951 14.4374 15.9485 14.5101 16.0111 14.5461L15.014 16.2798ZM16.3266 16.2118C16.7748 15.8871 16.9971 15.2532 16.6999 14.6775L14.9228 15.5951C14.7205 15.2033 14.8843 14.787 15.1532 14.5922L16.3266 16.2118ZM16.6999 14.6776C16.6665 14.6128 16.633 14.5658 16.6221 14.5505C16.6066 14.5289 16.5929 14.5115 16.5842 14.5007C16.5668 14.4789 16.5504 14.4601 16.5394 14.4476C16.5164 14.4216 16.4902 14.3933 16.4643 14.3658C16.4112 14.3095 16.3373 14.233 16.2437 14.1373C16.0554 13.9448 15.7725 13.6592 15.3831 13.2685L13.9664 14.6802C14.3552 15.0704 14.6325 15.3504 14.814 15.5358C14.9053 15.6292 14.9686 15.6948 15.0085 15.7372C15.0182 15.7475 15.0257 15.7556 15.0314 15.7617C15.0342 15.7648 15.0364 15.7671 15.0379 15.7689C15.0387 15.7697 15.0393 15.7703 15.0397 15.7708C15.0401 15.7712 15.0402 15.7714 15.0402 15.7714C15.0402 15.7714 15.0399 15.7711 15.0394 15.7705C15.0389 15.7699 15.038 15.7689 15.0369 15.7675C15.0348 15.7652 15.0305 15.76 15.0247 15.7528C15.0196 15.7464 15.0088 15.7328 14.9956 15.7144C14.987 15.7023 14.9552 15.6578 14.9227 15.595L16.6999 14.6776ZM15.3831 13.2685C15.0757 12.96 14.7952 12.6765 14.5899 12.4673C14.4869 12.3624 14.4044 12.2777 14.3472 12.2184C14.3183 12.1884 14.2984 12.1674 14.2865 12.1547C14.2802 12.148 14.2795 12.1471 14.2822 12.1501C14.2833 12.1514 14.2889 12.1576 14.2967 12.1669C14.2971 12.1674 14.3269 12.2023 14.3593 12.2511L12.693 13.3572C12.7266 13.4078 12.7587 13.4455 12.7622 13.4496C12.7731 13.4627 12.7827 13.4736 12.7888 13.4804C12.8014 13.4945 12.8143 13.5085 12.825 13.52C12.8472 13.5438 12.8753 13.5732 12.9067 13.6058C12.9703 13.6718 13.0579 13.7617 13.1625 13.8683C13.3723 14.082 13.6565 14.3691 13.9664 14.6802L15.3831 13.2685ZM14.3593 12.251C14.3741 12.2734 14.383 12.2892 14.3855 12.2939C14.389 12.3002 14.3909 12.3039 14.3916 12.3053C14.3924 12.3069 14.3933 12.309 14.3947 12.3122C14.3959 12.3148 14.3994 12.3229 14.4041 12.336L12.5256 13.0223C12.5613 13.1201 12.6218 13.25 12.6931 13.3573L14.3593 12.251ZM14.4042 12.3362L14.3777 12.2637L12.499 12.9496L12.5255 13.0221L14.4042 12.3362ZM14.4384 12.6059L14.4363 9.81593L12.4363 9.81742L12.4384 12.6074L14.4384 12.6059ZM14.4363 9.81593C14.4357 9.04829 14.4347 8.34725 14.4334 7.83609C14.4328 7.58061 14.4321 7.37201 14.4314 7.22606C14.431 7.15328 14.4307 7.09498 14.4303 7.05387C14.4301 7.03366 14.4299 7.01557 14.4297 7.00131C14.4296 6.99468 14.4294 6.98546 14.4292 6.97598C14.429 6.97179 14.4287 6.96266 14.4282 6.9516C14.4279 6.94639 14.4273 6.93559 14.4263 6.92207C14.4261 6.92038 14.423 6.87411 14.4125 6.81765L12.4462 7.18332C12.4357 7.12709 12.4326 7.0812 12.4325 7.08004C12.4315 7.06705 12.431 7.05694 12.4307 7.05255C12.4303 7.04316 12.4301 7.0363 12.43 7.03498C12.4299 7.03124 12.4299 7.03013 12.43 7.03395C12.4301 7.04059 12.4302 7.05271 12.4304 7.07153C12.4307 7.10848 12.4311 7.16353 12.4314 7.23557C12.4321 7.37925 12.4328 7.58607 12.4334 7.84103C12.4347 8.35074 12.4357 9.05058 12.4363 9.81743L14.4363 9.81593ZM14.4125 6.81777C14.3792 6.63877 14.3028 6.50998 14.2929 6.49252C14.2663 6.44557 14.2401 6.40707 14.2212 6.38075C14.1826 6.32691 14.1393 6.27462 14.0953 6.22754L12.6347 7.59379C12.6233 7.58169 12.6109 7.56709 12.5956 7.54581C12.5884 7.53577 12.572 7.51226 12.5526 7.47805C12.5429 7.46086 12.5271 7.43164 12.5103 7.39327C12.4967 7.36184 12.4653 7.28618 12.4462 7.1832L14.4125 6.81777ZM14.0953 6.22754C14.0332 6.16115 13.8372 5.95074 13.5219 5.85976C13.1027 5.7388 12.763 5.89316 12.5848 6.01123L13.6893 7.67857C13.6474 7.70634 13.5554 7.76105 13.4213 7.79264C13.2732 7.82749 13.116 7.82424 12.9674 7.78137C12.8321 7.74231 12.7408 7.68106 12.6972 7.6481C12.6741 7.63061 12.6577 7.61601 12.6487 7.60757C12.6439 7.60314 12.6404 7.59968 12.6382 7.59747C12.636 7.59525 12.6348 7.59395 12.6347 7.5938L14.0953 6.22754Z" fill="#383F43" mask="url(#path-1-inside-1_3217_166261)"/>
<path d="M7.85812 3.86008C7.8657 3.72222 7.76009 3.60431 7.62222 3.59673L5.37561 3.47323C5.23775 3.46565 5.11985 3.57126 5.11227 3.70913C5.10469 3.84699 5.21031 3.9649 5.34817 3.97247L7.34515 4.08226L7.23537 6.07924C7.22779 6.2171 7.33341 6.33501 7.47127 6.34259C7.60913 6.35017 7.72704 6.24455 7.73462 6.10669L7.85812 3.86008ZM5.1335 7.20906L4.90612 7.10515L5.1335 7.20906ZM4.21078 11.2812L4.46075 11.2854L4.21078 11.2812ZM4.9945 15.3823L5.22529 15.2862L4.9945 15.3823ZM7.35372 18.8272L7.18068 19.0076L7.35372 18.8272ZM10.8943 21.0403L10.9807 20.8057L10.8943 21.0403ZM15.0246 21.6519L15.0393 21.9015L15.0246 21.6519ZM19.0545 20.5598L18.9412 20.3369L18.9412 20.3369L19.0545 20.5598ZM22.5597 17.9222C22.5463 17.7848 22.4241 17.6842 22.2867 17.6975L20.0472 17.9149C19.9098 17.9282 19.8092 18.0504 19.8225 18.1878C19.8358 18.3253 19.9581 18.4259 20.0955 18.4125L22.0861 18.2193L22.2793 20.21C22.2926 20.3474 22.4149 20.448 22.5523 20.4347C22.6897 20.4213 22.7903 20.2991 22.777 20.1617L22.5597 17.9222ZM7.44169 3.66014C6.36832 4.62165 5.5051 5.79448 4.90612 7.10515L5.36088 7.31298C5.93124 6.06493 6.75322 4.94814 7.77531 4.03257L7.44169 3.66014ZM4.90612 7.10515C4.30715 8.41582 3.98532 9.83607 3.96082 11.2769L4.46075 11.2854C4.48408 9.91342 4.79053 8.56102 5.36088 7.31298L4.90612 7.10515ZM3.96082 11.2769C3.93631 12.7178 4.20966 14.1481 4.76372 15.4784L5.22529 15.2862C4.6977 14.0194 4.43741 12.6574 4.46075 11.2854L3.96082 11.2769ZM4.76372 15.4784C5.31778 16.8087 6.14062 18.0102 7.18068 19.0076L7.52677 18.6468C6.5364 17.697 5.75288 16.5529 5.22529 15.2862L4.76372 15.4784ZM7.18068 19.0076C8.22074 20.0051 9.45559 20.777 10.8079 21.2749L10.9807 20.8057C9.69299 20.3316 8.51713 19.5966 7.52677 18.6468L7.18068 19.0076ZM10.8079 21.2749C12.1601 21.7729 13.6007 21.9862 15.0393 21.9015L15.0099 21.4024C13.64 21.483 12.2683 21.2799 10.9807 20.8057L10.8079 21.2749ZM15.0393 21.9015C16.4778 21.8168 17.8834 21.4359 19.1679 20.7826L18.9412 20.3369C17.7181 20.959 16.3797 21.3217 15.0099 21.4024L15.0393 21.9015ZM19.1679 20.7826C20.4523 20.1294 21.5881 19.2179 22.5038 18.1052L22.1178 17.7875C21.2458 18.847 20.1643 19.7149 18.9412 20.3369L19.1679 20.7826Z" fill="#383F43"/>
<path d="M24.0224 14.699C24.7971 12.2972 24.6553 9.69373 23.6244 7.39031C22.5934 5.0869 20.7463 3.24665 18.4391 2.2243C16.1318 1.20194 13.5278 1.06986 11.1289 1.85351" stroke="#383F43" stroke-width="0.5" stroke-dasharray="2 2"/>
</svg>
