<svg width="8" height="8" viewBox="0 0 8 8" fill="none" xmlns="http://www.w3.org/2000/svg">
<path d="M7.6 1.2C7.82091 0.979086 7.82091 0.620914 7.6 0.4C7.37909 0.179086 7.02091 0.179086 6.8 0.4L4 3.2L1.2 0.4C0.979086 0.179086 0.620914 0.179086 0.4 0.4C0.179086 0.620914 0.179086 0.979086 0.4 1.2L3.2 4L0.4 6.8C0.179086 7.02091 0.179086 7.37909 0.4 7.6C0.620914 7.82091 0.979086 7.82091 1.2 7.6L4 4.8L6.8 7.6C7.02091 7.82091 7.37909 7.82091 7.6 7.6C7.82091 7.37909 7.82091 7.02091 7.6 6.8L4.8 4L7.6 1.2Z" fill="#383F43"/>
</svg>
