<svg width="14" height="14" viewBox="0 0 14 14" fill="none" xmlns="http://www.w3.org/2000/svg">
<g clip-path="url(#clip0_2364_147970)">
<path d="M5.84799 10.7668H5.93647H12.6C13.2483 10.7668 13.8 10.2151 13.8 9.5668V1.8668C13.8 1.21845 13.2483 0.666797 12.6 0.666797H1.4C0.751657 0.666797 0.2 1.21845 0.2 1.8668V9.5668C0.2 10.2151 0.751657 10.7668 1.4 10.7668H3.26667H3.46667V10.9668V13.3001C3.46667 13.3138 3.47506 13.3261 3.48753 13.3311C3.48767 13.3312 3.48781 13.3313 3.48795 13.3313L5.84799 10.7668ZM5.84799 10.7668L5.78847 10.8323M5.84799 10.7668L5.78847 10.8323M5.78847 10.8323L3.52512 13.3221M5.78847 10.8323L3.52512 13.3221M3.52512 13.3221C3.52508 13.3222 3.52504 13.3222 3.525 13.3223L3.52512 13.3221Z" stroke="#5C4C52" stroke-width="0.4"/>
</g>
<defs>
<clipPath id="clip0_2364_147970">
<rect width="14" height="14" fill="white"/>
</clipPath>
</defs>
</svg>
