<svg width="16" height="16" viewBox="0 0 16 16" fill="none" xmlns="http://www.w3.org/2000/svg">
<mask id="path-1-inside-1_1247_150140" fill="white">
<path d="M6.40001 2.40001C6.18783 2.40001 5.98435 2.48429 5.83432 2.63432C5.68429 2.78435 5.60001 2.98783 5.60001 3.20001V3.60001C5.60001 3.70609 5.55786 3.80783 5.48285 3.88285C5.40783 3.95786 5.30609 4.00001 5.20001 4.00001C5.09392 4.00001 4.99218 3.95786 4.91716 3.88285C4.84215 3.80783 4.80001 3.70609 4.80001 3.60001V3.20001C4.80001 2.77566 4.96858 2.36869 5.26864 2.06864C5.56869 1.76858 5.97566 1.60001 6.40001 1.60001H6.80001C6.90609 1.60001 7.00783 1.64215 7.08285 1.71716C7.15786 1.79218 7.20001 1.89392 7.20001 2.00001C7.20001 2.10609 7.15786 2.20783 7.08285 2.28285C7.00783 2.35786 6.90609 2.40001 6.80001 2.40001H6.40001ZM5.60001 9.60001C5.60001 9.81218 5.68429 10.0157 5.83432 10.1657C5.98435 10.3157 6.18783 10.4 6.40001 10.4H6.80001C6.90609 10.4 7.00783 10.4421 7.08285 10.5172C7.15786 10.5922 7.20001 10.6939 7.20001 10.8C7.20001 10.9061 7.15786 11.0078 7.08285 11.0828C7.00783 11.1579 6.90609 11.2 6.80001 11.2H6.40001C5.97566 11.2 5.56869 11.0314 5.26864 10.7314C4.96858 10.4313 4.80001 10.0244 4.80001 9.60001V9.20001C4.80001 9.09392 4.84215 8.99218 4.91716 8.91716C4.99218 8.84215 5.09392 8.80001 5.20001 8.80001C5.30609 8.80001 5.40783 8.84215 5.48285 8.91716C5.55786 8.99218 5.60001 9.09392 5.60001 9.20001V9.60001ZM5.60001 5.20001C5.60001 5.09392 5.55786 4.99218 5.48285 4.91716C5.40783 4.84215 5.30609 4.80001 5.20001 4.80001C5.09392 4.80001 4.99218 4.84215 4.91716 4.91716C4.84215 4.99218 4.80001 5.09392 4.80001 5.20001V7.60001C4.80001 7.70609 4.84215 7.80783 4.91716 7.88285C4.99218 7.95786 5.09392 8.00001 5.20001 8.00001C5.30609 8.00001 5.40783 7.95786 5.48285 7.88285C5.55786 7.80783 5.60001 7.70609 5.60001 7.60001V5.20001ZM12.8 2.40001C13.0122 2.40001 13.2157 2.48429 13.3657 2.63432C13.5157 2.78435 13.6 2.98783 13.6 3.20001V3.60001C13.6 3.70609 13.6421 3.80783 13.7172 3.88285C13.7922 3.95786 13.8939 4.00001 14 4.00001C14.1061 4.00001 14.2078 3.95786 14.2828 3.88285C14.3579 3.80783 14.4 3.70609 14.4 3.60001V3.20001C14.4 2.77566 14.2314 2.36869 13.9314 2.06864C13.6313 1.76858 13.2244 1.60001 12.8 1.60001H12.4C12.2939 1.60001 12.1922 1.64215 12.1172 1.71716C12.0421 1.79218 12 1.89392 12 2.00001C12 2.10609 12.0421 2.20783 12.1172 2.28285C12.1922 2.35786 12.2939 2.40001 12.4 2.40001H12.8ZM12.8 10.4C13.0122 10.4 13.2157 10.3157 13.3657 10.1657C13.5157 10.0157 13.6 9.81218 13.6 9.60001V9.20001C13.6 9.09392 13.6421 8.99218 13.7172 8.91716C13.7922 8.84215 13.8939 8.80001 14 8.80001C14.1061 8.80001 14.2078 8.84215 14.2828 8.91716C14.3579 8.99218 14.4 9.09392 14.4 9.20001V9.60001C14.4 10.0244 14.2314 10.4313 13.9314 10.7314C13.6313 11.0314 13.2244 11.2 12.8 11.2H12.4C12.2939 11.2 12.1922 11.1579 12.1172 11.0828C12.0421 11.0078 12 10.9061 12 10.8C12 10.6939 12.0421 10.5922 12.1172 10.5172C12.1922 10.4421 12.2939 10.4 12.4 10.4H12.8ZM14 4.80001C13.8939 4.80001 13.7922 4.84215 13.7172 4.91716C13.6421 4.99218 13.6 5.09392 13.6 5.20001V7.60001C13.6 7.70609 13.6421 7.80783 13.7172 7.88285C13.7922 7.95786 13.8939 8.00001 14 8.00001C14.1061 8.00001 14.2078 7.95786 14.2828 7.88285C14.3579 7.80783 14.4 7.70609 14.4 7.60001V5.20001C14.4 5.09392 14.3579 4.99218 14.2828 4.91716C14.2078 4.84215 14.1061 4.80001 14 4.80001ZM8.40001 1.60001C8.29392 1.60001 8.19218 1.64215 8.11716 1.71716C8.04215 1.79218 8.00001 1.89392 8.00001 2.00001C8.00001 2.10609 8.04215 2.20783 8.11716 2.28285C8.19218 2.35786 8.29392 2.40001 8.40001 2.40001H10.8C10.9061 2.40001 11.0078 2.35786 11.0828 2.28285C11.1579 2.20783 11.2 2.10609 11.2 2.00001C11.2 1.89392 11.1579 1.79218 11.0828 1.71716C11.0078 1.64215 10.9061 1.60001 10.8 1.60001H8.40001ZM8.00001 10.8C8.00001 10.6939 8.04215 10.5922 8.11716 10.5172C8.19218 10.4421 8.29392 10.4 8.40001 10.4H10.8C10.9061 10.4 11.0078 10.4421 11.0828 10.5172C11.1579 10.5922 11.2 10.6939 11.2 10.8C11.2 10.9061 11.1579 11.0078 11.0828 11.0828C11.0078 11.1579 10.9061 11.2 10.8 11.2H8.40001C8.29392 11.2 8.19218 11.1579 8.11716 11.0828C8.04215 11.0078 8.00001 10.9061 8.00001 10.8ZM3.20001 4.80001H4.00001V5.60001H3.20001C2.98783 5.60001 2.78435 5.68429 2.63432 5.83432C2.48429 5.98435 2.40001 6.18783 2.40001 6.40001V11.6C2.40001 12.1304 2.61072 12.6391 2.98579 13.0142C3.36087 13.3893 3.86957 13.6 4.40001 13.6H9.60001C9.81218 13.6 10.0157 13.5157 10.1657 13.3657C10.3157 13.2157 10.4 13.0122 10.4 12.8V12H11.2V12.8C11.2 13.2244 11.0314 13.6313 10.7314 13.9314C10.4313 14.2314 10.0244 14.4 9.60001 14.4H4.40001C3.6574 14.4 2.94521 14.105 2.42011 13.5799C1.89501 13.0548 1.60001 12.3426 1.60001 11.6V6.40001C1.60001 5.97566 1.76858 5.56869 2.06864 5.26864C2.36869 4.96858 2.77566 4.80001 3.20001 4.80001V4.80001Z"/>
</mask>
<path d="M6.40001 2.40001C6.18783 2.40001 5.98435 2.48429 5.83432 2.63432C5.68429 2.78435 5.60001 2.98783 5.60001 3.20001V3.60001C5.60001 3.70609 5.55786 3.80783 5.48285 3.88285C5.40783 3.95786 5.30609 4.00001 5.20001 4.00001C5.09392 4.00001 4.99218 3.95786 4.91716 3.88285C4.84215 3.80783 4.80001 3.70609 4.80001 3.60001V3.20001C4.80001 2.77566 4.96858 2.36869 5.26864 2.06864C5.56869 1.76858 5.97566 1.60001 6.40001 1.60001H6.80001C6.90609 1.60001 7.00783 1.64215 7.08285 1.71716C7.15786 1.79218 7.20001 1.89392 7.20001 2.00001C7.20001 2.10609 7.15786 2.20783 7.08285 2.28285C7.00783 2.35786 6.90609 2.40001 6.80001 2.40001H6.40001ZM5.60001 9.60001C5.60001 9.81218 5.68429 10.0157 5.83432 10.1657C5.98435 10.3157 6.18783 10.4 6.40001 10.4H6.80001C6.90609 10.4 7.00783 10.4421 7.08285 10.5172C7.15786 10.5922 7.20001 10.6939 7.20001 10.8C7.20001 10.9061 7.15786 11.0078 7.08285 11.0828C7.00783 11.1579 6.90609 11.2 6.80001 11.2H6.40001C5.97566 11.2 5.56869 11.0314 5.26864 10.7314C4.96858 10.4313 4.80001 10.0244 4.80001 9.60001V9.20001C4.80001 9.09392 4.84215 8.99218 4.91716 8.91716C4.99218 8.84215 5.09392 8.80001 5.20001 8.80001C5.30609 8.80001 5.40783 8.84215 5.48285 8.91716C5.55786 8.99218 5.60001 9.09392 5.60001 9.20001V9.60001ZM5.60001 5.20001C5.60001 5.09392 5.55786 4.99218 5.48285 4.91716C5.40783 4.84215 5.30609 4.80001 5.20001 4.80001C5.09392 4.80001 4.99218 4.84215 4.91716 4.91716C4.84215 4.99218 4.80001 5.09392 4.80001 5.20001V7.60001C4.80001 7.70609 4.84215 7.80783 4.91716 7.88285C4.99218 7.95786 5.09392 8.00001 5.20001 8.00001C5.30609 8.00001 5.40783 7.95786 5.48285 7.88285C5.55786 7.80783 5.60001 7.70609 5.60001 7.60001V5.20001ZM12.8 2.40001C13.0122 2.40001 13.2157 2.48429 13.3657 2.63432C13.5157 2.78435 13.6 2.98783 13.6 3.20001V3.60001C13.6 3.70609 13.6421 3.80783 13.7172 3.88285C13.7922 3.95786 13.8939 4.00001 14 4.00001C14.1061 4.00001 14.2078 3.95786 14.2828 3.88285C14.3579 3.80783 14.4 3.70609 14.4 3.60001V3.20001C14.4 2.77566 14.2314 2.36869 13.9314 2.06864C13.6313 1.76858 13.2244 1.60001 12.8 1.60001H12.4C12.2939 1.60001 12.1922 1.64215 12.1172 1.71716C12.0421 1.79218 12 1.89392 12 2.00001C12 2.10609 12.0421 2.20783 12.1172 2.28285C12.1922 2.35786 12.2939 2.40001 12.4 2.40001H12.8ZM12.8 10.4C13.0122 10.4 13.2157 10.3157 13.3657 10.1657C13.5157 10.0157 13.6 9.81218 13.6 9.60001V9.20001C13.6 9.09392 13.6421 8.99218 13.7172 8.91716C13.7922 8.84215 13.8939 8.80001 14 8.80001C14.1061 8.80001 14.2078 8.84215 14.2828 8.91716C14.3579 8.99218 14.4 9.09392 14.4 9.20001V9.60001C14.4 10.0244 14.2314 10.4313 13.9314 10.7314C13.6313 11.0314 13.2244 11.2 12.8 11.2H12.4C12.2939 11.2 12.1922 11.1579 12.1172 11.0828C12.0421 11.0078 12 10.9061 12 10.8C12 10.6939 12.0421 10.5922 12.1172 10.5172C12.1922 10.4421 12.2939 10.4 12.4 10.4H12.8ZM14 4.80001C13.8939 4.80001 13.7922 4.84215 13.7172 4.91716C13.6421 4.99218 13.6 5.09392 13.6 5.20001V7.60001C13.6 7.70609 13.6421 7.80783 13.7172 7.88285C13.7922 7.95786 13.8939 8.00001 14 8.00001C14.1061 8.00001 14.2078 7.95786 14.2828 7.88285C14.3579 7.80783 14.4 7.70609 14.4 7.60001V5.20001C14.4 5.09392 14.3579 4.99218 14.2828 4.91716C14.2078 4.84215 14.1061 4.80001 14 4.80001ZM8.40001 1.60001C8.29392 1.60001 8.19218 1.64215 8.11716 1.71716C8.04215 1.79218 8.00001 1.89392 8.00001 2.00001C8.00001 2.10609 8.04215 2.20783 8.11716 2.28285C8.19218 2.35786 8.29392 2.40001 8.40001 2.40001H10.8C10.9061 2.40001 11.0078 2.35786 11.0828 2.28285C11.1579 2.20783 11.2 2.10609 11.2 2.00001C11.2 1.89392 11.1579 1.79218 11.0828 1.71716C11.0078 1.64215 10.9061 1.60001 10.8 1.60001H8.40001ZM8.00001 10.8C8.00001 10.6939 8.04215 10.5922 8.11716 10.5172C8.19218 10.4421 8.29392 10.4 8.40001 10.4H10.8C10.9061 10.4 11.0078 10.4421 11.0828 10.5172C11.1579 10.5922 11.2 10.6939 11.2 10.8C11.2 10.9061 11.1579 11.0078 11.0828 11.0828C11.0078 11.1579 10.9061 11.2 10.8 11.2H8.40001C8.29392 11.2 8.19218 11.1579 8.11716 11.0828C8.04215 11.0078 8.00001 10.9061 8.00001 10.8ZM3.20001 4.80001H4.00001V5.60001H3.20001C2.98783 5.60001 2.78435 5.68429 2.63432 5.83432C2.48429 5.98435 2.40001 6.18783 2.40001 6.40001V11.6C2.40001 12.1304 2.61072 12.6391 2.98579 13.0142C3.36087 13.3893 3.86957 13.6 4.40001 13.6H9.60001C9.81218 13.6 10.0157 13.5157 10.1657 13.3657C10.3157 13.2157 10.4 13.0122 10.4 12.8V12H11.2V12.8C11.2 13.2244 11.0314 13.6313 10.7314 13.9314C10.4313 14.2314 10.0244 14.4 9.60001 14.4H4.40001C3.6574 14.4 2.94521 14.105 2.42011 13.5799C1.89501 13.0548 1.60001 12.3426 1.60001 11.6V6.40001C1.60001 5.97566 1.76858 5.56869 2.06864 5.26864C2.36869 4.96858 2.77566 4.80001 3.20001 4.80001V4.80001Z" stroke="#5C4C52" stroke-width="0.4" mask="url(#path-1-inside-1_1247_150140)"/>
</svg>
