<svg width="24" height="24" viewBox="0 0 20 24" fill="none" xmlns="http://www.w3.org/2000/svg">
<path d="M10.0027 22.5L6.67675 20.4328C4.63766 19.1653 2.94497 17.4011 1.77926 15.3291C0.61618 13.257 0 10.9111 0 8.54586V4.82343L0.507306 4.67317C2.4425 4.10364 3.96686 2.63745 4.58553 0.752039L4.6672 0.5H15.3328L15.4145 0.752039C16.0306 2.63749 17.5551 4.10369 19.4927 4.67317L20 4.82343V8.54586C20 10.9111 19.3838 13.2569 18.2207 15.3291C17.0577 17.4012 15.365 19.1654 13.3232 20.4328L10.0027 22.5ZM0.744828 5.36353V8.54555C0.744828 13.1427 3.11058 17.3571 7.07496 19.8196L10.0025 21.6372L12.93 19.8172C16.8943 17.355 19.2601 13.1408 19.2601 8.54315V5.36358C17.1863 4.74561 15.5382 3.21157 14.7983 1.22672H5.2042C4.46675 3.21153 2.81618 4.74557 0.744873 5.36358L0.744828 5.36353Z" fill="#383F43"/>
<path d="M8.5623 14.0855L5.39723 10.9859L5.92187 10.4721L8.56234 13.058L14.0834 7.64893L14.608 8.16271L8.5623 14.0855Z" fill="#383F43"/>
</svg>
