<svg width="52" height="42" viewBox="0 0 52 42" fill="none" xmlns="http://www.w3.org/2000/svg">
<circle cx="20.8344" cy="20.8344" r="20.8344" fill="#3A8DC2"/>
<path d="M18.5767 9.64949C17.1355 9.46798 14.0729 12.9167 13.8928 13.4613C13.7126 14.0059 13.7126 14.3689 14.0729 14.9134C14.4332 15.458 14.7935 15.458 15.5141 15.458C16.2347 15.458 18.2611 13.1102 18.7568 13.0983C19.2525 13.0863 20.5583 13.8243 20.7385 14.1874C20.9186 14.5504 17.1355 18.3622 17.1355 18.3622L24.8819 22.174C24.8819 22.174 26.5033 21.811 26.8636 22.174C27.2239 22.537 26.3232 27.6194 26.6835 28.527C27.0437 29.4346 27.4041 29.6161 28.1247 29.6161C28.8453 29.6161 29.2056 29.0715 29.3857 28.164C29.5659 27.2564 30.4666 21.0849 29.5659 19.9958C28.6651 18.9067 23.4407 19.6328 23.6209 19.2698C23.801 18.9067 26.8636 16.3655 26.5033 14.9134C26.143 13.4613 20.0179 9.83101 18.5767 9.64949Z" fill="white"/>
<circle cx="26.8608" cy="11.3642" r="2.4106" fill="white"/>
<path d="M23.3651 30.9193C22.0139 32.1048 20.2697 32.7447 18.4724 32.7141C16.6751 32.6835 14.9536 31.9846 13.6436 30.7538C12.3335 29.5229 11.5289 27.8482 11.3864 26.0563C11.244 24.2644 11.7741 22.4837 12.8732 21.0614L15.0767 22.7642C14.4008 23.6388 14.0749 24.7338 14.1625 25.8357C14.2501 26.9376 14.7449 27.9673 15.5505 28.7242C16.356 29.4811 17.4146 29.9109 18.5198 29.9297C19.625 29.9485 20.6976 29.555 21.5284 28.826L23.3651 30.9193Z" fill="white"/>
<path d="M13.812 20.0604C15.1744 18.8586 16.9393 18.2135 18.7557 18.2536C20.572 18.2937 22.3067 19.016 23.6148 20.2768C24.9228 21.5376 25.7084 23.2445 25.8153 25.0582C25.9222 26.8718 25.3426 28.6592 24.1916 30.0649L22.0369 28.3008C22.7446 27.4364 23.1011 26.3372 23.0353 25.222C22.9696 24.1068 22.4865 23.0571 21.6822 22.2818C20.8778 21.5065 19.8111 21.0624 18.6942 21.0378C17.5773 21.0131 16.492 21.4097 15.6542 22.1488L13.812 20.0604Z" fill="white"/>
<circle cx="43.5631" cy="8.43709" r="8.43709" fill="white"/>
<mask id="mask0_7108_9841" style="mask-type:alpha" maskUnits="userSpaceOnUse" x="35" y="0" width="17" height="17">
<circle cx="43.5631" cy="8.43709" r="8.43709" fill="white"/>
</mask>
<g mask="url(#mask0_7108_9841)">
<rect x="41.6689" y="12.5054" width="10.2146" height="7.14341" transform="rotate(-46.4145 41.6689 12.5054)" fill="#E2E2E2"/>
</g>
<path d="M49.0398 5.0931L48.0427 4.03557C47.906 3.89046 47.7397 3.81787 47.5443 3.81787C47.3486 3.81787 47.1824 3.89046 47.0456 4.03557L42.2359 9.14448L40.0804 6.8505C39.9435 6.70533 39.7773 6.63283 39.5819 6.63283C39.3863 6.63283 39.2201 6.70533 39.0832 6.8505L38.0861 7.90806C37.9493 8.0532 37.8809 8.22951 37.8809 8.43691C37.8809 8.64415 37.9493 8.82061 38.0861 8.96573L40.7402 11.7806L41.7374 12.8381C41.8742 12.9833 42.0404 13.0558 42.2359 13.0558C42.4314 13.0558 42.5976 12.9831 42.7345 12.8381L43.7316 11.7806L49.0398 6.15072C49.1766 6.00555 49.2451 5.82927 49.2451 5.62187C49.2452 5.41457 49.1766 5.23827 49.0398 5.0931Z" fill="#3A8DC2"/>
</svg>
