<svg width="12" height="12" viewBox="0 0 12 12" fill="none" xmlns="http://www.w3.org/2000/svg">
<circle cx="6" cy="6" r="5.75" fill="#D393F1" stroke="#BE89D7" stroke-width="0.5"/>
<path d="M5.1894 5.90793L4.28688 6.0205M5.44952 7.5133L5.98919 2.82323C5.99814 2.74894 6.03089 2.67955 6.08255 2.62542C6.13422 2.57129 6.20201 2.53533 6.2758 2.52293L6.6053 2.46937L6.45639 5.54838L9.53319 5.41634L9.47749 5.74549C9.46461 5.8192 9.42821 5.88675 9.37375 5.93806C9.31929 5.98937 9.24968 6.02167 9.17533 6.03014L6.41796 6.3271" stroke="white" stroke-width="0.4"/>
<path d="M3.76551 6.61952C3.68659 6.69839 3.58605 6.75206 3.47661 6.77374C3.36718 6.79543 3.25377 6.78416 3.15074 6.74135C3.04771 6.69855 2.9597 6.62613 2.89786 6.53328C2.83601 6.44043 2.8031 6.33131 2.8033 6.21975C2.8035 6.10818 2.8368 5.99919 2.89898 5.90656C2.96117 5.81393 3.04944 5.74183 3.15262 5.6994C3.2558 5.65697 3.36925 5.6461 3.4786 5.66818C3.58796 5.69026 3.68831 5.7443 3.76694 5.82344C3.87212 5.9293 3.93103 6.07255 3.93076 6.22178C3.93049 6.37101 3.87107 6.51404 3.76551 6.61952Z" stroke="white" stroke-width="0.4"/>
<path d="M5.75049 9.00655C5.67158 9.08541 5.57104 9.13908 5.4616 9.16077C5.35216 9.18245 5.23875 9.17118 5.13572 9.12837C5.0327 9.08557 4.94469 9.01316 4.88284 8.9203C4.82099 8.82745 4.78809 8.71834 4.78829 8.60677C4.78849 8.49521 4.82179 8.38621 4.88397 8.29358C4.94615 8.20095 5.03442 8.12886 5.1376 8.08642C5.24078 8.04399 5.35423 8.03313 5.46359 8.05521C5.57295 8.07729 5.6733 8.13132 5.75193 8.21046C5.85711 8.31633 5.91602 8.45957 5.91575 8.6088C5.91548 8.75803 5.85605 8.90107 5.75049 9.00655Z" stroke="white" stroke-width="0.4"/>
</svg>
