<svg width="20" height="18" viewBox="0 0 20 18" fill="none" xmlns="http://www.w3.org/2000/svg">
<g clip-path="url(#clip0_1570_288398)">
<path d="M14.2963 2.90116H6.45191C6.28977 2.90116 6.1582 2.77519 6.1582 2.61995C6.1582 2.46459 6.28977 2.33875 6.45191 2.33875H14.2963C14.4584 2.33875 14.5901 2.46459 14.5901 2.61995C14.5901 2.77519 14.4587 2.90116 14.2963 2.90116Z" fill="#A0627B"/>
<path d="M10.5223 16.4005C6.71589 16.4005 3.61914 13.4357 3.61914 9.79123V4.51266C3.61914 4.35742 3.75071 4.23132 3.91298 4.23132C4.07512 4.23132 4.20668 4.35742 4.20668 4.51266V9.79123C4.20668 13.1255 7.03976 15.8381 10.5223 15.8381C14.0048 15.8381 16.838 13.1255 16.838 9.79123V4.58796C16.838 4.43272 16.9694 4.30688 17.1315 4.30688C17.2938 4.30688 17.4254 4.43272 17.4254 4.58796V9.79123C17.4254 13.4357 14.3286 16.4005 10.5223 16.4005Z" fill="#A0627B"/>
<path d="M10.6697 12.1761L12.2829 10.4158C12.4556 10.2274 12.3158 9.93225 12.0541 9.93225H9.2853C9.02378 9.93225 8.88414 10.2274 9.05651 10.4158L10.6697 12.1761Z" fill="#A0627B"/>
<path d="M18.8942 6.55748C18.8177 6.55748 18.7427 6.52898 18.6864 6.47496L16.3363 4.22505C16.2217 4.11533 16.2217 3.93714 16.3363 3.82742C16.4512 3.71744 16.6371 3.71744 16.7519 3.82742L18.6003 5.59717V2.05741H15.8521C15.1 2.05741 14.4879 2.64341 14.4879 3.36351V4.02611C14.4879 4.1816 14.3564 4.30744 14.1941 4.30744C14.032 4.30744 13.9004 4.1816 13.9004 4.02611V3.36351C13.9004 2.33333 14.7758 1.495 15.8521 1.495H18.8942C19.0563 1.495 19.1879 1.62084 19.1879 1.77607V6.27614C19.1879 6.38986 19.1164 6.49236 19.0066 6.53607C18.9701 6.55038 18.932 6.55748 18.8942 6.55748Z" fill="#A0627B"/>
<path d="M1.85732 6.55748C1.81934 6.55748 1.78109 6.55038 1.74487 6.53607C1.63512 6.49236 1.56348 6.38986 1.56348 6.27614V1.77607C1.56348 1.62084 1.69491 1.495 1.85732 1.495H4.89926C5.97537 1.495 6.85096 2.33333 6.85096 3.36351V4.02611C6.85096 4.1816 6.71952 4.30744 6.55725 4.30744C6.39511 4.30744 6.26341 4.1816 6.26341 4.02611V3.36351C6.26341 2.64341 5.6515 2.05741 4.89926 2.05741H2.15088V5.59717L3.99956 3.82716C4.1143 3.71744 4.30027 3.71744 4.41487 3.82716C4.5296 3.93714 4.5296 4.11533 4.41487 4.22505L2.06483 6.47496C2.00868 6.52898 1.93354 6.55748 1.85732 6.55748Z" fill="#A0627B"/>
<path d="M10.67 14.9948C9.86022 14.9948 9.20117 14.3639 9.20117 13.5885V13.4916C9.20117 13.3362 9.33287 13.2104 9.49501 13.2104C9.65728 13.2104 9.78885 13.3362 9.78885 13.4916V13.5885C9.78885 14.0538 10.184 14.4323 10.67 14.4323C11.1558 14.4323 11.5512 14.0538 11.5512 13.5885V13.4909C11.5512 13.3356 11.6828 13.2097 11.845 13.2097C12.0072 13.2097 12.1389 13.3356 12.1389 13.4909V13.5885C12.1389 14.3639 11.4797 14.9948 10.67 14.9948Z" fill="#A0627B"/>
<path d="M8.90692 13.87C7.77304 13.87 6.85059 12.9868 6.85059 11.9013C6.85059 11.746 6.98215 11.62 7.14429 11.62C7.30656 11.62 7.43813 11.746 7.43813 11.9013C7.43813 12.6767 8.09704 13.3075 8.90692 13.3075C9.71652 13.3075 10.3756 12.6767 10.3756 11.9013C10.3756 11.746 10.507 11.62 10.6693 11.62C10.8317 11.62 10.9631 11.746 10.9631 11.9013C10.9631 12.9868 10.0407 13.87 8.90692 13.87Z" fill="#A0627B"/>
<path d="M12.4322 13.87C11.2984 13.87 10.376 12.9868 10.376 11.9013C10.376 11.746 10.5074 11.62 10.6697 11.62C10.8321 11.62 10.9635 11.746 10.9635 11.9013C10.9635 12.6767 11.6223 13.3075 12.4322 13.3075C13.242 13.3075 13.901 12.6767 13.901 11.9013C13.901 11.746 14.0325 11.62 14.1947 11.62C14.3569 11.62 14.4885 11.746 14.4885 11.9013C14.4885 12.9868 13.5661 13.87 12.4322 13.87Z" fill="#A0627B"/>
<path d="M8.02606 9.65127C6.89205 9.65127 5.96973 8.76807 5.96973 7.68257C5.96973 6.59695 6.89205 5.71375 8.02606 5.71375C9.15967 5.71375 10.0821 6.59695 10.0821 7.68257C10.0821 8.76807 9.15967 9.65127 8.02606 9.65127ZM8.02606 6.27629C7.21618 6.27629 6.55727 6.90716 6.55727 7.68257C6.55727 8.45799 7.21618 9.08886 8.02606 9.08886C8.8358 9.08886 9.49471 8.45799 9.49471 7.68257C9.49471 6.90716 8.8358 6.27629 8.02606 6.27629Z" fill="#A0627B"/>
<path d="M8.35573 7.21609C8.08681 7.04228 7.7216 7.1101 7.54007 7.36758C7.35854 7.62507 7.42937 7.97486 7.6983 8.14867C7.96723 8.32247 8.33257 8.25452 8.5141 7.99704C8.69563 7.73956 8.62466 7.38989 8.35573 7.21609Z" fill="#A0627B"/>
<path d="M13.6428 7.21629C13.3739 7.04249 13.0087 7.11043 12.8272 7.36792C12.6456 7.6254 12.7165 7.97507 12.9855 8.14887C13.2545 8.32268 13.6195 8.25486 13.8011 7.99737C13.9826 7.73989 13.9118 7.39009 13.6428 7.21629Z" fill="#A0627B"/>
</g>
<defs>
<clipPath id="clip0_1570_288398">
<rect width="18.8" height="18" fill="white" transform="translate(0.977539)"/>
</clipPath>
</defs>
</svg>
