<svg width="25" height="25" viewBox="0 0 25 25" fill="none" xmlns="http://www.w3.org/2000/svg">
<circle cx="12.5" cy="12.5" r="12.5" fill="#82E280"/>
<g clip-path="url(#clip0_1915_153815)">
<path d="M9.26731 15.5561L6.3123 12.6011L4.6875 14.2259L8.58702 18.1254L8.5915 18.1209L9.30339 18.8328L20.3125 7.82361L18.6562 6.16724L9.26731 15.5561Z" fill="white"/>
<path d="M25 12.5C25 15.8152 23.683 18.9946 21.3388 21.3388C18.9946 23.683 15.8152 25 12.5 25C9.1848 25 6.00537 23.683 3.66117 21.3388C1.31696 18.9946 5.00582e-07 15.8152 0 12.5L12.5 12.5L25 12.5Z" fill="#82E280"/>
</g>
<path fill-rule="evenodd" clip-rule="evenodd" d="M6.3123 12.6011L9.26731 15.5561L12.3234 12.5H0C0 15.8152 1.31696 18.9946 3.66117 21.3388C6.00537 23.683 9.1848 25 12.5 25C15.8152 25 18.9946 23.683 21.3388 21.3388C23.683 18.9946 25 15.8152 25 12.5H15.6362L9.30339 18.8328L8.5915 18.1209L8.58702 18.1254L4.6875 14.2259L6.3123 12.6011Z" fill="white"/>
<mask id="path-5-inside-1_1915_153815" fill="white">
<path d="M25 12.5C25 14.1415 24.6767 15.767 24.0485 17.2835C23.4203 18.8001 22.4996 20.1781 21.3388 21.3388C20.1781 22.4996 18.8001 23.4203 17.2835 24.0485C15.767 24.6767 14.1415 25 12.5 25C10.8585 25 9.23303 24.6767 7.71646 24.0485C6.19989 23.4203 4.8219 22.4996 3.66116 21.3388C2.50043 20.1781 1.57969 18.8001 0.951505 17.2835C0.323322 15.767 -1.43506e-07 14.1415 0 12.5L12.5 12.5L25 12.5Z"/>
</mask>
<path d="M25 12.5C25 14.1415 24.6767 15.767 24.0485 17.2835C23.4203 18.8001 22.4996 20.1781 21.3388 21.3388C20.1781 22.4996 18.8001 23.4203 17.2835 24.0485C15.767 24.6767 14.1415 25 12.5 25C10.8585 25 9.23303 24.6767 7.71646 24.0485C6.19989 23.4203 4.8219 22.4996 3.66116 21.3388C2.50043 20.1781 1.57969 18.8001 0.951505 17.2835C0.323322 15.767 -1.43506e-07 14.1415 0 12.5L12.5 12.5L25 12.5Z" stroke="#82E280" mask="url(#path-5-inside-1_1915_153815)"/>
<defs>
<clipPath id="clip0_1915_153815">
<rect width="15.625" height="15.625" fill="white" transform="translate(4.6875 4.6875)"/>
</clipPath>
</defs>
</svg>
