<svg width="12" height="14" viewBox="0 0 12 14" fill="none" xmlns="http://www.w3.org/2000/svg">
<path fill-rule="evenodd" clip-rule="evenodd" d="M4.62373 12.7724C4.79867 12.9852 5.02031 13.0515 5.25532 12.9612C5.36164 12.9204 10.4114 7.7921 10.674 7.45817C10.8097 7.28563 10.8182 7.25976 10.8182 7.01878C10.8182 6.79564 10.8045 6.74375 10.7111 6.615C10.6522 6.53375 9.41568 5.25401 7.96325 3.77116C5.62784 1.38677 5.30642 1.07204 5.1837 1.0492C4.95614 1.00682 4.80622 1.05636 4.6597 1.22234C4.54809 1.34878 4.52681 1.4006 4.52681 1.54575C4.52681 1.64078 4.5452 1.75578 4.56766 1.80131C4.59013 1.8468 5.73502 3.03886 7.11187 4.45027L8.93406 6.31822C9.31296 6.70665 9.31296 7.32637 8.93406 7.71479L7.11187 9.58274C5.73502 10.9942 4.59013 12.1862 4.56766 12.2317C4.49091 12.3871 4.51748 12.6432 4.62373 12.7724Z" stroke="#383F43" stroke-width="0.6"/>
<path fill-rule="evenodd" clip-rule="evenodd" d="M1.10013 12.7392C1.27506 12.952 1.49671 13.0183 1.73171 12.928C1.83803 12.8872 6.88778 7.75889 7.15043 7.42496C7.28614 7.25243 7.29461 7.22656 7.29461 6.98558C7.29461 6.76244 7.28085 6.71054 7.18751 6.5818C7.12863 6.50055 5.89207 5.2208 4.43965 3.73795C2.10424 1.35357 1.78282 1.03884 1.6601 1.016C1.43253 0.973616 1.28261 1.02316 1.1361 1.18914C1.02448 1.31558 1.0032 1.3674 1.0032 1.51254C1.0032 1.60758 1.02159 1.72258 1.04406 1.76811C1.06652 1.8136 2.21141 3.00566 3.58827 4.41707L5.41045 6.28502C5.78935 6.67344 5.78935 7.29317 5.41045 7.68159L3.58827 9.54954C2.21141 10.961 1.06652 12.153 1.04406 12.1985C0.967303 12.3539 0.993876 12.61 1.10013 12.7392Z" stroke="#383F43" stroke-width="0.6"/>
</svg>
