<svg width="15" height="15" viewBox="0 0 15 15" fill="none" xmlns="http://www.w3.org/2000/svg">
<g clip-path="url(#clip0_2173_172902)">
<path d="M13.14 2.66304C12.415 1.91332 11.5455 1.3185 10.584 0.914593C9.62243 0.510684 8.58892 0.306083 7.54602 0.313166C6.11964 0.311804 4.71932 0.695159 3.49252 1.42283C1.8824 2.37693 0.708425 3.922 0.220727 5.72892C-0.266971 7.53584 -0.0298465 9.46178 0.881556 11.0964C3.16615 15.0129 8.10086 15.0129 9.6805 14.3602C10.1374 14.1643 10.2288 13.8053 10.1244 13.5508C10.0199 13.2962 9.8241 13.2048 9.47162 13.3549C7.17397 14.2818 3.06822 13.4855 1.59302 10.0912C1.02992 8.76757 0.933845 7.29172 1.32055 5.90621C1.70726 4.5207 2.55376 3.30793 3.72097 2.46721C4.99915 1.65752 6.50519 1.28354 8.01367 1.4012C9.52214 1.51887 10.9519 2.12186 12.0891 3.11995C12.6549 3.62906 13.1092 4.24963 13.4238 4.94269C13.7383 5.63576 13.9061 6.38636 13.9168 7.14737C13.9886 8.96199 13.3489 10.6395 12.7092 11.2923C12.6076 11.3998 12.4745 11.4723 12.329 11.4993C12.1835 11.5263 12.0332 11.5063 11.8998 11.4424C11.7576 11.3761 11.64 11.2665 11.5638 11.1294C11.4876 10.9922 11.4567 10.8345 11.4755 10.6787V4.5364C11.4755 4.5364 11.4755 4.13824 11.1035 4.13824H11.0121C10.9665 4.1406 10.922 4.15228 10.8811 4.17258C10.8403 4.19289 10.804 4.22136 10.7747 4.25625C10.7453 4.29114 10.7234 4.33169 10.7103 4.37539C10.6973 4.41909 10.6933 4.465 10.6988 4.51029C10.6979 4.55029 10.6891 4.58972 10.6728 4.62626C10.6566 4.66281 10.6331 4.69575 10.6039 4.72312C10.5747 4.75048 10.5404 4.77173 10.5029 4.78562C10.4654 4.79952 10.4254 4.80578 10.3855 4.80403H10.3528C10.2809 4.80486 10.2113 4.7793 10.157 4.73222C9.38861 3.94307 8.34046 3.48816 7.23925 3.4659C6.13995 3.4659 5.08565 3.90261 4.30833 4.67993C3.53101 5.45725 3.09432 6.51151 3.09432 7.61081C3.09432 8.71011 3.53101 9.76439 4.30833 10.5417C5.08565 11.319 6.13995 11.7557 7.23925 11.7557C8.32394 11.7531 9.3635 11.3213 10.1309 10.5547L10.6596 10.026L10.6988 11.214C10.7008 11.4748 10.7783 11.7295 10.922 11.9472C11.0656 12.165 11.2692 12.3365 11.5082 12.4411C11.7608 12.5718 12.0454 12.6277 12.3287 12.6022C12.6119 12.5768 12.8821 12.4711 13.1074 12.2975C13.6832 11.7861 14.1478 11.1618 14.4723 10.4634C14.7968 9.76501 14.9743 9.00734 14.9938 8.23746C15.0879 7.23056 14.9717 6.21507 14.6526 5.25546C14.3335 4.29585 13.8184 3.41304 13.14 2.66304ZM7.20009 10.9267C6.77608 10.936 6.35477 10.8567 5.96317 10.6938C5.57157 10.531 5.21828 10.2882 4.92585 9.981C4.63342 9.67383 4.40831 9.30901 4.2649 8.90988C4.1215 8.51075 4.06296 8.08609 4.09303 7.66304C4.09303 5.70482 5.39849 4.32752 7.20658 4.32752C7.62762 4.30648 8.04863 4.37009 8.44466 4.51459C8.84068 4.65909 9.2037 4.88154 9.51225 5.16879C9.8208 5.45604 10.0686 5.80225 10.241 6.18694C10.4134 6.57164 10.5069 6.987 10.516 7.40846V7.80011C10.4803 8.65083 10.1137 9.45394 9.49417 10.0381C8.87467 10.6222 8.05143 10.9411 7.20009 10.9267Z" fill="#383F43"/>
</g>
<defs>
<clipPath id="clip0_2173_172902">
<rect width="15" height="14.3734" fill="white" transform="translate(0 0.313232)"/>
</clipPath>
</defs>
</svg>
