<svg width="56" height="56" viewBox="0 0 56 56" fill="none" xmlns="http://www.w3.org/2000/svg">
<circle cx="28" cy="28" r="28" fill="#38569A"/>
<path d="M33.9992 16.005L30.8869 16C27.3904 16 25.1308 18.3183 25.1308 21.9064V24.6297H22.0016C21.7312 24.6297 21.5122 24.8489 21.5122 25.1193V29.065C21.5122 29.3354 21.7314 29.5544 22.0016 29.5544H25.1308V39.5106C25.1308 39.781 25.3498 40 25.6202 40H29.703C29.9734 40 30.1923 39.7808 30.1923 39.5106V29.5544H33.8512C34.1216 29.5544 34.3405 29.3354 34.3405 29.065L34.342 25.1193C34.342 24.9895 34.2903 24.8651 34.1987 24.7733C34.1071 24.6814 33.9822 24.6297 33.8524 24.6297H30.1923V22.3212C30.1923 21.2116 30.4567 20.6483 31.9021 20.6483L33.9987 20.6475C34.2689 20.6475 34.4878 20.4283 34.4878 20.1582V16.4944C34.4878 16.2245 34.2691 16.0055 33.9992 16.005Z" fill="white"/>
</svg>
