<svg width="21" height="21" viewBox="0 0 21 21" fill="none" xmlns="http://www.w3.org/2000/svg">
<path d="M5.74453 12.8148C4.91153 11.9818 4.22037 11.0129 3.79978 9.91251C3.47734 9.06889 3.13728 8.054 3.01607 7.25796C2.76206 5.58974 2.53989 4.53042 3.53553 3.53478C4.53118 2.53913 5.59049 2.76131 7.25871 3.01532C8.05476 3.13653 9.06965 3.47658 9.91327 3.79903C11.0137 4.21961 11.9826 4.91078 12.8156 5.74377L19.799 12.7272C20.1895 13.1177 20.1895 13.7509 19.799 14.1414L14.1421 19.7982C13.7516 20.1888 13.1184 20.1888 12.7279 19.7982L5.74453 12.8148Z" stroke="#383F43" stroke-width="0.4"/>
<circle cx="5.62164" cy="5.69141" r="1" transform="rotate(-45 5.62164 5.69141)" stroke="#383F43" stroke-width="0.4"/>
<path d="M7.6228 11.7002L10.9226 8.40036C11.3132 8.00984 11.9463 8.00984 12.3368 8.40036L14.1282 10.1917C14.5187 10.5822 14.5187 11.2154 14.1282 11.6059L12.4311 13.303" stroke="#383F43" stroke-width="0.6" stroke-linecap="round" stroke-linejoin="round"/>
<path d="M11.6287 10.8976L9.93164 12.5947C9.54112 12.9852 9.54112 13.6183 9.93164 14.0089L11.723 15.8002C12.1135 16.1907 12.7467 16.1907 13.1372 15.8002L16.437 12.5004" stroke="#383F43" stroke-width="0.6" stroke-linecap="round" stroke-linejoin="round"/>
</svg>
