<svg width="30" height="30" viewBox="0 0 30 30" fill="none" xmlns="http://www.w3.org/2000/svg">
<g filter="url(#filter0_i_1931_166831)">
<path fill-rule="evenodd" clip-rule="evenodd" d="M0.204195 21.2526C0.722875 22.697 1.61172 23.6072 2.92972 24.0434L3.59208 24.2626L3.59208 26.9208C3.59208 29.7449 3.64773 30 4.26412 30C4.88025 30 4.93616 29.7443 4.93616 26.9281V24.277L5.71519 23.994C6.79409 23.602 7.52419 22.9363 8.0555 21.8606C8.4391 21.084 8.49757 20.8302 8.49462 19.9538C8.49179 19.1247 8.42405 18.806 8.11814 18.1831C7.62997 17.1888 6.62043 16.2837 5.66479 15.9836L4.93616 15.7547L4.93616 8.08781C4.93616 1.29643 4.9121 0.396831 4.72501 0.210403C4.45525 -0.058392 4.07299 -0.058392 3.80324 0.210403C3.61614 0.396831 3.59208 1.29643 3.59208 8.08781L3.59208 15.7547L2.86346 15.9836C0.778251 16.6385 -0.525237 19.2212 0.204195 21.2526ZM1.69801 18.7781C2.21319 17.7802 3.21332 17.1429 4.26412 17.1429C6.25941 17.1429 7.65685 19.2738 6.87863 21.1296C5.93683 23.3756 2.62838 23.3946 1.65567 21.1598C1.36696 20.4963 1.38685 19.3811 1.69801 18.7781ZM10.8988 11.1226C11.2527 12.43 12.3795 13.628 13.6228 14.0186L14.3447 14.2453L14.3447 21.9122C14.3447 28.7036 14.3688 29.6032 14.5559 29.7896C14.8256 30.0584 15.2079 30.0584 15.4776 29.7896C15.6647 29.6032 15.6888 28.7036 15.6888 21.9122L15.6888 14.2453L16.4174 14.0164C17.3474 13.7243 18.3848 12.8084 18.8374 11.8799C19.9712 9.5542 18.8014 6.76755 16.3512 5.95661L15.6888 5.73737V3.07915C15.6888 0.255134 15.6332 9.53674e-07 15.0168 9.53674e-07C14.4004 9.53674e-07 14.3447 0.255134 14.3447 3.07915V5.73737L13.6824 5.95661C12.3371 6.40192 11.3478 7.43639 10.9314 8.83393C10.6793 9.67996 10.6707 10.28 10.8988 11.1226ZM12.4023 8.87036C12.8439 7.81701 13.8294 7.17978 15.0168 7.17978C15.8215 7.17978 16.6138 7.50951 17.1272 8.05795C17.8471 8.82697 18.0591 10.2991 17.5829 11.2219C16.4568 13.4033 13.5783 13.3816 12.4172 11.183C12.1438 10.6654 12.1363 9.50451 12.4023 8.87036ZM21.7095 21.2526C22.2282 22.697 23.117 23.6072 24.435 24.0434L25.0974 24.2626V26.9208C25.0974 29.7449 25.153 30 25.7694 30C26.3855 30 26.4414 29.7443 26.4414 26.9281V24.277L27.2205 23.994C28.2994 23.602 29.0295 22.9363 29.5608 21.8606C29.9444 21.084 30.0029 20.8302 29.9999 19.9538C29.9971 19.1247 29.9293 18.806 29.6234 18.1831C29.1353 17.1888 28.1257 16.2837 27.1701 15.9836L26.4414 15.7547V8.08781C26.4414 1.29643 26.4174 0.396831 26.2303 0.210403C25.9605 -0.058392 25.5783 -0.058392 25.3085 0.210403C25.1214 0.396831 25.0974 1.29643 25.0974 8.08781V15.7547L24.3687 15.9836C22.2835 16.6385 20.98 19.2212 21.7095 21.2526ZM23.2033 18.7781C24.3216 16.612 27.2172 16.612 28.3355 18.7781C28.649 19.3855 28.6709 20.4454 28.3839 21.1296C27.4421 23.3756 24.1337 23.3946 23.1609 21.1598C22.8722 20.4963 22.8921 19.3811 23.2033 18.7781Z" fill="#383F43"/>
</g>
<defs>
<filter id="filter0_i_1931_166831" x="0" y="0" width="30" height="30" filterUnits="userSpaceOnUse" color-interpolation-filters="sRGB">
<feFlood flood-opacity="0" result="BackgroundImageFix"/>
<feBlend mode="normal" in="SourceGraphic" in2="BackgroundImageFix" result="shape"/>
<feColorMatrix in="SourceAlpha" type="matrix" values="0 0 0 0 0 0 0 0 0 0 0 0 0 0 0 0 0 0 127 0" result="hardAlpha"/>
<feOffset/>
<feGaussianBlur stdDeviation="2"/>
<feComposite in2="hardAlpha" operator="arithmetic" k2="-1" k3="1"/>
<feColorMatrix type="matrix" values="0 0 0 0 0 0 0 0 0 0 0 0 0 0 0 0 0 0 0.12 0"/>
<feBlend mode="normal" in2="shape" result="effect1_innerShadow_1931_166831"/>
</filter>
</defs>
</svg>
