<svg width="30" height="30" viewBox="0 0 30 30" fill="none" xmlns="http://www.w3.org/2000/svg">
<path fill-rule="evenodd" clip-rule="evenodd" d="M8.74741 0.204195C7.30299 0.722875 6.39281 1.61172 5.95661 2.92972L5.73737 3.59208H3.07915C0.255134 3.59208 0 3.64773 0 4.26412C0 4.88025 0.25567 4.93616 3.07192 4.93616H5.72304L6.00603 5.71519C6.39804 6.79409 7.06366 7.52419 8.13937 8.0555C8.91603 8.43911 9.16982 8.49757 10.0462 8.49462C10.8753 8.49179 11.194 8.42405 11.8169 8.11814C12.8112 7.62997 13.7163 6.62043 14.0164 5.66479L14.2453 4.93616H21.9122C28.7036 4.93616 29.6032 4.9121 29.7896 4.72501C30.0584 4.45525 30.0584 4.07299 29.7896 3.80324C29.6032 3.61614 28.7036 3.59208 21.9122 3.59208H14.2453L14.0164 2.86346C13.3615 0.778251 10.7788 -0.525237 8.74741 0.204195ZM11.2219 1.69801C12.2198 2.21319 12.8571 3.21332 12.8571 4.26412C12.8571 6.25941 10.7262 7.65685 8.87036 6.87863C6.62437 5.93683 6.60536 2.62838 8.84022 1.65567C9.50371 1.36696 10.6189 1.38685 11.2219 1.69801ZM18.8774 10.8988C17.57 11.2527 16.372 12.3795 15.9814 13.6228L15.7547 14.3447H8.08781C1.29643 14.3447 0.39683 14.3688 0.210402 14.5559C-0.058393 14.8256 -0.058393 15.2079 0.210402 15.4776C0.39683 15.6647 1.29643 15.6888 8.08781 15.6888H15.7547L15.9836 16.4174C16.2757 17.3474 17.1916 18.3848 18.1201 18.8374C20.4458 19.9712 23.2325 18.8014 24.0434 16.3512L24.2626 15.6888H26.9208C29.7449 15.6888 30 15.6332 30 15.0168C30 14.4004 29.7449 14.3447 26.9208 14.3447H24.2626L24.0434 13.6824C23.5981 12.3371 22.5636 11.3478 21.1661 10.9314C20.32 10.6793 19.72 10.6707 18.8774 10.8988ZM21.1296 12.4023C22.183 12.8439 22.8202 13.8294 22.8202 15.0168C22.8202 15.8215 22.4905 16.6138 21.9421 17.1272C21.173 17.8471 19.7009 18.0591 18.7781 17.5829C16.5967 16.4568 16.6184 13.5783 18.817 12.4172C19.3346 12.1438 20.4955 12.1363 21.1296 12.4023ZM8.74741 21.7095C7.30299 22.2282 6.39281 23.117 5.95661 24.435L5.73737 25.0974H3.07915C0.255134 25.0974 0 25.153 0 25.7694C0 26.3855 0.25567 26.4414 3.07192 26.4414H5.72304L6.00603 27.2205C6.39804 28.2994 7.06366 29.0295 8.13937 29.5608C8.91603 29.9444 9.16982 30.0029 10.0462 29.9999C10.8753 29.9971 11.194 29.9293 11.8169 29.6234C12.8112 29.1353 13.7163 28.1257 14.0164 27.1701L14.2453 26.4414H21.9122C28.7036 26.4414 29.6032 26.4174 29.7896 26.2303C30.0584 25.9605 30.0584 25.5783 29.7896 25.3085C29.6032 25.1214 28.7036 25.0974 21.9122 25.0974H14.2453L14.0164 24.3687C13.3615 22.2835 10.7788 20.98 8.74741 21.7095ZM11.2219 23.2033C13.388 24.3216 13.388 27.2172 11.2219 28.3355C10.6145 28.649 9.5546 28.6709 8.87036 28.3839C6.62437 27.4421 6.60536 24.1337 8.84022 23.1609C9.50371 22.8722 10.6189 22.8921 11.2219 23.2033Z" fill="#383F43"/>
</svg>
