<svg width="16" height="15" viewBox="0 0 16 15" fill="none" xmlns="http://www.w3.org/2000/svg">
<path fill-rule="evenodd" clip-rule="evenodd" d="M3.55988 0.0279267C3.04346 0.0893737 2.46952 0.283951 2.04485 0.54153C1.71354 0.742502 1.2058 1.21575 0.963779 1.54914C0.336404 2.41336 -0.00108585 3.53795 2.62463e-06 4.76046C0.00131519 6.21977 0.35827 8.13908 0.900488 9.60211C1.06635 10.0497 1.13025 10.1628 1.25751 10.2338C1.35688 10.2893 1.43278 10.2913 3.55373 10.2913C5.61462 10.2915 5.75391 10.2882 5.85873 10.238C6.03221 10.1548 6.11429 9.97936 6.11452 9.6913C6.1149 9.20243 6.23809 8.66506 6.60849 7.53658C6.86559 6.75323 6.98107 6.29685 7.05886 5.75658C7.20542 4.73879 7.12187 3.20358 6.8703 2.29188C6.60833 1.34245 6.14362 0.676978 5.49547 0.323107C5.00345 0.0544413 4.27302 -0.056926 3.55988 0.0279267ZM10.7883 0.0286599C9.76544 0.171792 9.01747 0.813511 8.62712 1.88284C8.39275 2.52494 8.27472 3.25447 8.23947 4.27874C8.19855 5.46736 8.32274 6.22889 8.78607 7.63044C9.1267 8.66093 9.25111 9.21172 9.25149 9.6913C9.25171 9.97936 9.3338 10.1548 9.50728 10.238C9.61209 10.2882 9.75139 10.2915 11.8123 10.2913C13.9332 10.2913 14.0091 10.2893 14.1085 10.2338C14.2346 10.1634 14.2965 10.0537 14.4648 9.6022C15.0054 8.15181 15.3637 6.22067 15.3658 4.7458C15.368 3.27301 14.8558 1.91715 13.9723 1.05672C13.4432 0.541384 12.8591 0.231714 12.1329 0.0814546C11.8099 0.0146107 11.0906 -0.0136344 10.7883 0.0286599ZM4.5192 0.918924C5.23052 1.05704 5.68137 1.55856 5.93604 2.4949C6.21354 3.51519 6.25224 4.95812 6.03173 6.06021C5.96232 6.40701 5.87992 6.68694 5.48545 7.9157C5.36219 8.29964 5.2327 8.84392 5.2028 9.10358C5.19166 9.20037 5.17584 9.30925 5.16761 9.34556L5.15269 9.41155H3.49348H1.83427L1.70135 9.00568C1.21387 7.51728 0.97921 6.14442 0.978602 4.77736C0.978282 4.04149 1.00585 3.82222 1.17011 3.25341C1.49598 2.12525 2.22589 1.3121 3.18506 1.00879C3.58642 0.88185 4.13725 0.844777 4.5192 0.918924ZM11.9718 0.949721C12.0856 0.975179 12.3089 1.05267 12.468 1.12189C13.4458 1.54744 14.0926 2.49983 14.3469 3.88842C14.4011 4.18465 14.4004 5.3388 14.3457 5.84792C14.23 6.9241 14.0082 7.95166 13.6634 9.00826L13.5317 9.41155H11.8725H10.2133L10.1984 9.34556C10.1902 9.30925 10.1744 9.20037 10.1632 9.10358C10.1254 8.77491 9.98608 8.23942 9.7453 7.49731C9.45251 6.59472 9.40077 6.41097 9.31818 5.9799C9.19012 5.31167 9.16028 4.6498 9.22098 3.82412C9.35304 2.02785 9.85466 1.123 10.8319 0.91822C11.0761 0.867068 11.6763 0.883669 11.9718 0.949721ZM1.25437 11.3774C1.05873 11.4867 1.02563 11.61 1.02483 12.2325C1.02445 12.5338 1.03924 12.8798 1.05771 13.0015C1.19915 13.9332 1.9347 14.6902 2.94496 14.9438C3.23423 15.0164 3.90502 15.0163 4.1935 14.9436C5.07673 14.7209 5.74514 14.1243 6.00439 13.3272C6.08369 13.0833 6.09144 13.0116 6.10619 12.3863C6.12124 11.7494 6.1183 11.7013 6.05641 11.5731C6.0156 11.4887 5.95029 11.4144 5.8844 11.3776C5.78049 11.3195 5.73019 11.3182 3.56923 11.3182C1.41044 11.3182 1.35787 11.3196 1.25437 11.3774ZM9.48161 11.3776C9.41588 11.4143 9.35041 11.4886 9.30988 11.5726C9.24845 11.6998 9.24534 11.7499 9.25959 12.3857C9.27371 13.0144 9.28101 13.0822 9.36114 13.3272C9.62167 14.1238 10.2915 14.7215 11.1725 14.9436C11.4895 15.0235 12.1346 15.0176 12.4624 14.9318C13.4511 14.673 14.1684 13.9228 14.3083 13.0015C14.3268 12.8798 14.3416 12.5338 14.3412 12.2325C14.3404 11.61 14.3073 11.4867 14.1116 11.3774C14.0081 11.3196 13.9556 11.3182 11.7968 11.3182C9.63582 11.3182 9.58552 11.3195 9.48161 11.3776ZM5.14524 12.5866C5.12017 13.1347 5.00072 13.4165 4.66733 13.714C4.02341 14.2886 3.03014 14.2635 2.41497 13.657C2.10488 13.3513 1.98454 13.0239 1.98454 12.4858V12.1979H3.57377H5.163L5.14524 12.5866ZM13.3815 12.4858C13.3815 12.854 13.3367 13.0741 13.2136 13.3125C13.0935 13.5447 12.7663 13.8567 12.5255 13.9685C11.6641 14.3684 10.6284 13.986 10.3055 13.1488C10.2561 13.0207 10.2339 12.8734 10.2208 12.5866L10.203 12.1979H11.7922H13.3815V12.4858Z" fill="#C4C4C4"/>
</svg>
