<svg width="15" height="16" viewBox="0 0 15 16" fill="none" xmlns="http://www.w3.org/2000/svg">
<path d="M7.50201 16L5.00756 14.4966C3.47825 13.5748 2.20872 12.2917 1.33445 10.7848C0.462135 9.27784 0 7.57174 0 5.85153V3.14431L0.38048 3.03504C1.83188 2.62083 2.97515 1.55451 3.43915 0.183301L3.5004 0H11.4996L11.5609 0.183301C12.023 1.55454 13.1663 2.62086 14.6195 3.03504L15 3.14431V5.85153C15 7.57174 14.5379 9.27778 13.6656 10.7848C12.7932 12.2918 11.5238 13.5748 9.99244 14.4966L7.50201 16ZM0.558621 3.53712V5.85131C0.558621 9.19472 2.33294 12.2597 5.30622 14.0506L7.50184 15.3725L9.69747 14.0489C12.6707 12.2582 14.4451 9.19331 14.4451 5.84957V3.53715C12.8898 3.08772 11.6537 1.97205 11.0987 0.528524H3.90315C3.35006 1.97202 2.11214 3.08769 0.558655 3.53715L0.558621 3.53712Z" fill="#383F43"/>
<path d="M6.42165 9.88036L4.04785 7.62611L4.44133 7.25245L6.42168 9.13307L10.5625 5.19922L10.9559 5.57288L6.42165 9.88036Z" fill="#383F43"/>
</svg>
