<svg width="18" height="18" viewBox="0 0 18 18" fill="none" xmlns="http://www.w3.org/2000/svg">
<path d="M15 10C15 9.72386 14.7761 9.5 14.5 9.5C14.2239 9.5 14 9.72386 14 10H15ZM14.5 16.5V17C14.7761 17 15 16.7761 15 16.5H14.5ZM11 16.5H10.5V17H11V16.5ZM11 11.5H11.5V11H11V11.5ZM7 11.5V11H6.5V11.5H7ZM7 16.5V17H7.5V16.5H7ZM3.5 16.5H3C3 16.7761 3.22386 17 3.5 17V16.5ZM4 10C4 9.72386 3.77614 9.5 3.5 9.5C3.22386 9.5 3 9.72386 3 10H4ZM14 10V16.5H15V10H14ZM14.5 16H11V17H14.5V16ZM11.5 16.5V11.5H10.5V16.5H11.5ZM11 11H7V12H11V11ZM6.5 11.5V16.5H7.5V11.5H6.5ZM7 16H3.5V17H7V16ZM4 16.5V10H3V16.5H4Z" fill="#A0627B"/>
<path d="M1.5 9L9 1.5L16.5 9" stroke="#A0627B" stroke-linecap="round"/>
</svg>
