<svg width="21" height="27" viewBox="0 0 21 27" fill="none" xmlns="http://www.w3.org/2000/svg">
<path d="M17.9829 10.6826L11.3162 4.01596C11.2329 3.93318 11.1203 3.88672 11.0029 3.88672C10.8855 3.88672 10.7728 3.93318 10.6896 4.01596L4.02289 10.6826C3.95007 10.7676 3.91203 10.877 3.91635 10.9889C3.92067 11.1007 3.96704 11.2068 4.04619 11.286C4.12534 11.3651 4.23145 11.4115 4.34331 11.4158C4.45516 11.4202 4.56453 11.3821 4.64955 11.3093L11.0007 4.95818L17.3518 11.3137C17.4368 11.3865 17.5462 11.4246 17.658 11.4203C17.7699 11.416 17.876 11.3696 17.9551 11.2904C18.0343 11.2113 18.0807 11.1052 18.085 10.9933C18.0893 10.8815 18.0513 10.7721 17.9784 10.6871L17.9829 10.6826Z" fill="#A0627B"/>
<path d="M15.4438 17.2234H13.2216V12.779H8.77713V17.2234H6.5549V11.0012L5.66602 11.8901V17.2234C5.66602 17.4592 5.75967 17.6853 5.92637 17.852C6.09306 18.0187 6.31916 18.1123 6.5549 18.1123H9.66602V13.6679H12.3327V18.1123H15.4438C15.6795 18.1123 15.9056 18.0187 16.0723 17.852C16.239 17.6853 16.3327 17.4592 16.3327 17.2234V11.7834L15.4438 10.8945V17.2234Z" fill="#A0627B"/>
<path d="M2.85992 18.2451L2.85985 18.245C1.14 15.6316 0.3 13.2421 0.3 11.07C0.3 7.76297 1.33153 5.1581 3.37351 3.22142L3.37355 3.22138C5.43122 1.26901 7.80263 0.3 10.5 0.3C13.1974 0.3 15.5688 1.26901 17.6264 3.22138L17.6265 3.22142C19.6685 5.1581 20.7 7.76297 20.7 11.07C20.7 13.2421 19.8604 15.6317 18.1414 18.2451C16.4545 20.8094 13.9107 23.5948 10.5 26.6007C7.08927 23.5948 4.54602 20.8094 2.85992 18.2451Z" stroke="#A0627B" stroke-width="0.6"/>
</svg>
