<svg width="16" height="16" viewBox="0 0 16 16" fill="none" xmlns="http://www.w3.org/2000/svg">
<circle cx="8" cy="8" r="7.75" stroke="#383F43" stroke-width="0.5"/>
<path d="M8.64816 3.25844L8.64814 3.25844C8.31901 3.32893 8.06338 3.56084 7.98244 3.82312L7.98244 3.82313C7.96975 3.86424 7.95858 3.93641 7.95587 4.02114C7.95317 4.10559 7.9596 4.17985 7.96998 4.22427L8.64816 3.25844ZM8.64816 3.25844C8.68389 3.25079 8.7631 3.24659 8.86185 3.25352C8.95932 3.26036 9.04276 3.2757 9.08577 3.29048C9.17274 3.32038 9.22469 3.34454 9.26912 3.37295M8.64816 3.25844L9.26912 3.37295M8.51204 4.79464L8.51204 4.79465C8.65025 4.84244 8.86914 4.85461 9.01112 4.82256L8.51204 4.79464ZM8.51204 4.79464C8.24247 4.70143 8.02565 4.46237 7.96998 4.22429L8.51204 4.79464ZM8.27406 11.0409C8.21549 10.9142 8.21459 10.8181 8.21571 10.6177C8.21776 10.2526 8.2676 10.0406 8.57112 8.95002L8.81197 9.01705L8.57112 8.95002C8.84991 7.94829 8.87442 7.84227 8.90177 7.60625C8.93611 7.30983 8.93183 7.11635 8.89645 6.97097C8.86331 6.83478 8.79908 6.72544 8.6792 6.60486L8.67919 6.60484C8.57856 6.50362 8.53067 6.46992 8.46591 6.43773L8.27406 11.0409ZM8.27406 11.0409C8.30823 11.1148 8.35177 11.1872 8.41845 11.2497C8.48516 11.3122 8.56021 11.3509 8.63622 11.3801C8.79361 11.4406 8.98702 11.4549 9.17212 11.443C9.21362 11.4403 9.25579 11.4362 9.29831 11.4308M8.27406 11.0409L9.29831 11.4308M9.29831 11.4308C9.27994 11.4381 9.26098 11.4455 9.24157 11.4531C9.06735 11.5212 8.8642 11.5972 8.73272 11.6418C8.47474 11.7294 8.35712 11.7487 8.03833 11.75C7.54201 11.7519 7.29468 11.6545 7.08929 11.4484L7.08928 11.4484C6.97934 11.3381 6.91155 11.2253 6.87356 11.094C6.83455 10.9593 6.82298 10.7913 6.84672 10.5662C6.8766 10.283 6.92597 10.0655 7.16866 9.19582C7.4846 8.06373 7.56056 7.74765 7.56062 7.43787V7.43786C7.56066 7.13392 7.48806 6.83494 7.20267 6.69881L9.29831 11.4308ZM6.4954 6.62419C6.75382 6.58793 7.00639 6.60518 7.20265 6.6988L6.4954 6.62419ZM6.4954 6.62419C7.01312 6.42399 7.32986 6.33514 7.5711 6.30968C7.93164 6.27163 8.22932 6.3202 8.46588 6.43772L6.4954 6.62419ZM9.26912 3.37295C9.31433 3.40186 9.36198 3.4417 9.43364 3.51406L9.26912 3.37295Z" stroke="#383F43" stroke-width="0.5"/>
</svg>
