<svg width="20" height="24" viewBox="0 0 20 24" fill="none" xmlns="http://www.w3.org/2000/svg">
<path d="M1.03213 8.82264C-1.03688 12.3436 0.278426 17.6867 2.56641 20.9265C3.70847 22.5462 4.86474 24.0002 6.44844 24.0002C6.47829 24.0002 6.50822 23.9996 6.53887 23.9984C7.28295 23.9693 7.82064 23.7447 8.34052 23.5276C8.92419 23.2836 9.52784 23.0314 10.4747 23.0314C11.3755 23.0314 11.9503 23.2754 12.5062 23.5113C13.0541 23.7438 13.6184 23.9843 14.4523 23.9689C16.2362 23.9363 17.3315 22.3675 18.2978 20.9834C19.3062 19.5383 19.812 18.1352 19.9827 17.599L19.9896 17.5777C20.0221 17.4824 19.9762 17.3784 19.883 17.3364C19.8805 17.3352 19.871 17.3314 19.8684 17.3303C19.5542 17.2043 16.7986 16.0055 16.7696 12.738C16.7427 10.0834 18.8369 8.67762 19.2568 8.42283L19.2764 8.41087C19.3219 8.38214 19.3536 8.33658 19.3644 8.28449C19.3751 8.23248 19.3639 8.17834 19.3334 8.13459C17.8879 6.0602 15.6725 5.74757 14.7805 5.70996C14.6511 5.69729 14.5175 5.69092 14.3834 5.69092C13.3357 5.69092 12.3322 6.07893 11.5259 6.39069C10.9694 6.60591 10.4886 6.79177 10.1571 6.79177C9.78452 6.79177 9.30108 6.60363 8.74124 6.38582C7.99259 6.09443 7.14405 5.76426 6.24576 5.76426C6.22433 5.76426 6.20323 5.76449 6.18245 5.76489C4.09378 5.79502 2.12019 6.96685 1.03213 8.82264Z" fill="#323232"/>
<path d="M14.7827 0.000151195C13.5179 0.0506692 12.0006 0.814184 11.0937 1.85586C10.323 2.73143 9.57014 4.19126 9.7685 5.66273C9.78093 5.7548 9.85732 5.82586 9.95177 5.83302C10.0371 5.83955 10.1243 5.84285 10.2111 5.84293C11.4478 5.84293 12.782 5.17195 13.6931 4.09156C14.6521 2.95073 15.137 1.48666 14.9903 0.175233C14.9787 0.0724659 14.8865 -0.00386192 14.7827 0.000151195Z" fill="#323232"/>
</svg>
