<svg width="24" height="24" viewBox="0 0 24 24" fill="none" xmlns="http://www.w3.org/2000/svg">
<path d="M7.06639 1.65519C6.82887 1.41767 6.44783 1.41767 6.21031 1.65519L2.38515 5.4556L1.03423 4.09478C0.796701 3.85725 0.41567 3.85725 0.178144 4.09478C-0.0593814 4.3323 -0.0593814 4.71334 0.178144 4.95086L1.95959 6.7422C2.07835 6.86096 2.23175 6.92034 2.3901 6.92034C2.5435 6.92034 2.69691 6.86096 2.81567 6.7422L7.07134 2.51128C7.29897 2.27375 7.30392 1.89272 7.06639 1.65519Z" fill="#2E3940"/>
<path d="M3.62204 9.27588C2.12266 9.27588 0.900391 10.4981 0.900391 11.9975C0.900391 13.4969 2.12266 14.7192 3.62204 14.7192C5.12142 14.7192 6.34369 13.4969 6.34369 11.9975C6.33874 10.4981 5.12142 9.27588 3.62204 9.27588ZM3.62204 13.5068C2.7907 13.5068 2.11276 12.8289 2.11276 11.9975C2.11276 11.1662 2.7907 10.4883 3.62204 10.4883C4.45338 10.4883 5.13132 11.1662 5.13132 11.9975C5.13132 12.8289 4.45338 13.5068 3.62204 13.5068Z" fill="#2E3940"/>
<path d="M3.62204 17.0796C2.12266 17.0796 0.900391 18.3019 0.900391 19.8012C0.900391 21.3006 2.12266 22.5229 3.62204 22.5229C5.12142 22.5229 6.34369 21.3006 6.34369 19.8012C6.33874 18.2969 5.12142 17.0796 3.62204 17.0796ZM3.62204 21.3056C2.7907 21.3056 2.11276 20.6276 2.11276 19.7963C2.11276 18.965 2.7907 18.287 3.62204 18.287C4.45338 18.287 5.13132 18.965 5.13132 19.7963C5.12637 20.6326 4.45338 21.3056 3.62204 21.3056Z" fill="#2E3940"/>
<path d="M20.561 11H10.439C10.1963 11 10 11.4472 10 12C10 12.5528 10.1963 13 10.439 13H20.561C20.8037 13 21 12.5528 21 12C21 11.4472 20.8037 11 20.561 11Z" fill="#2E3940"/>
<path d="M23.9202 11H22.0798C22.0357 11 22 11.4472 22 12C22 12.5528 22.0357 13 22.0798 13H23.9202C23.9643 13 24 12.5528 24 12C24 11.4472 23.9643 11 23.9202 11Z" fill="#2E3940"/>
<path d="M10.2794 21H16.7206C16.8751 21 17 20.5528 17 20C17 19.4472 16.8751 19 16.7206 19H10.2794C10.1249 19 10 19.4472 10 20C10 20.5528 10.1249 21 10.2794 21Z" fill="#2E3940"/>
<path d="M19.1995 21H23.8005C23.9108 21 24 20.5528 24 20C24 19.4472 23.9108 19 23.8005 19H19.1995C19.0892 19 19 19.4472 19 20C19 20.5528 19.0892 21 19.1995 21Z" fill="#2E3940"/>
<path d="M23.4413 4H10.5587C10.2498 4 10 4.44715 10 5C10 5.55285 10.2498 6 10.5587 6H23.4413C23.7502 6 24 5.55285 24 5C24 4.44715 23.7502 4 23.4413 4Z" fill="#2E3940"/>
</svg>
