<svg width="24" height="24" viewBox="0 0 24 24" fill="none" xmlns="http://www.w3.org/2000/svg">
<path d="M9.19928 10.3944L9.37242 10.2213L9.29698 9.98832C8.45101 7.37612 9.12987 4.49757 11.0828 2.54468C13.9423 -0.314864 18.5958 -0.314905 21.4553 2.54463C24.3149 5.40417 24.3149 10.0577 21.4553 12.9172L21.4552 12.9173C19.5055 14.8683 16.6808 15.4978 14.065 14.6498L13.8337 14.5749L13.6607 14.7456L11.8575 16.5249L11.8556 16.5268C11.7987 16.5838 11.7219 16.6156 11.6414 16.6156H10.356H9.95597V17.0156V18.3248C9.95597 18.4105 9.91941 18.4929 9.85446 18.5514C9.78484 18.6126 9.69989 18.6367 9.62532 18.6267L9.62533 18.6266L9.61806 18.6258L8.54963 18.5015L8.14352 18.4543L8.10518 18.8613L7.96578 20.3417L7.96577 20.3418C7.95214 20.487 7.83793 20.6012 7.69282 20.6148L7.69272 20.6148L6.21231 20.7542L5.8055 20.7925L5.85246 21.1984L5.97607 22.2668C5.98675 22.3591 5.95469 22.4509 5.88939 22.5162L5.88929 22.5163L4.89507 23.5112C4.89505 23.5112 4.89504 23.5112 4.89502 23.5112C4.83811 23.5681 4.7613 23.6 4.68085 23.6H0.703126C0.535398 23.6 0.4 23.4646 0.4 23.2969V19.3192C0.4 19.2387 0.431855 19.1619 0.488858 19.1048L9.19928 10.3944ZM20.0319 7.51666L19.749 7.23381L20.0319 7.51665C21.0106 6.53784 21.0107 4.94701 20.0319 3.96818C19.0531 2.98936 17.4622 2.98936 16.4834 3.96818C15.5046 4.947 15.5046 6.53784 16.4834 7.51666C17.4622 8.49547 19.0531 8.49547 20.0319 7.51666Z" stroke="#383F43" stroke-width="0.8"/>
</svg>
