<svg width="18" height="18" viewBox="0 0 18 18" fill="none" xmlns="http://www.w3.org/2000/svg">
<g clip-path="url(#clip0_2567_157506)">
<g filter="url(#filter0_d_2567_157506)">
<path d="M8.74388 0.00458131C5.16768 0.130062 2.19674 2.92016 1.85351 6.4816C1.78339 7.19389 1.82399 7.88403 1.94947 8.54465C1.94947 8.54465 1.96054 8.62215 1.99745 8.76977C2.10817 9.26432 2.27424 9.74409 2.48092 10.1943C3.20059 11.8994 4.86505 14.7523 8.59995 17.8561C8.82877 18.048 9.16461 18.048 9.39712 17.8561C13.132 14.7559 14.7965 11.9031 15.5198 10.1907C15.7302 9.7404 15.8926 9.26432 16.0033 8.76608C16.0365 8.62215 16.0513 8.54096 16.0513 8.54096C16.1362 8.09808 16.1805 7.64414 16.1805 7.17912C16.1805 3.12684 12.8257 -0.139352 8.74388 0.00458131ZM8.99854 10.7516C7.07204 10.7516 5.51091 9.1905 5.51091 7.26401C5.51091 5.33751 7.07204 3.77638 8.99854 3.77638C10.925 3.77638 12.4862 5.33751 12.4862 7.26401C12.4862 9.1905 10.925 10.7516 8.99854 10.7516Z" fill="#A0627B"/>
</g>
</g>
<defs>
<filter id="filter0_d_2567_157506" x="-18.1807" y="-10" width="54.3613" height="58" filterUnits="userSpaceOnUse" color-interpolation-filters="sRGB">
<feFlood flood-opacity="0" result="BackgroundImageFix"/>
<feColorMatrix in="SourceAlpha" type="matrix" values="0 0 0 0 0 0 0 0 0 0 0 0 0 0 0 0 0 0 127 0" result="hardAlpha"/>
<feOffset dy="10"/>
<feGaussianBlur stdDeviation="10"/>
<feComposite in2="hardAlpha" operator="out"/>
<feColorMatrix type="matrix" values="0 0 0 0 0.180392 0 0 0 0 0.403922 0 0 0 0 0.54902 0 0 0 0.12 0"/>
<feBlend mode="normal" in2="BackgroundImageFix" result="effect1_dropShadow_2567_157506"/>
<feBlend mode="normal" in="SourceGraphic" in2="effect1_dropShadow_2567_157506" result="shape"/>
</filter>
<clipPath id="clip0_2567_157506">
<rect width="18" height="18" fill="white"/>
</clipPath>
</defs>
</svg>
