<svg width="13" height="16" viewBox="0 0 13 16" fill="none" xmlns="http://www.w3.org/2000/svg">
<path d="M6.16392 0.253919L6.16396 0.253917C9.65027 0.130982 12.5154 2.9204 12.5154 6.38144C12.5154 6.77881 12.4776 7.16656 12.4051 7.5449L12.4047 7.54713L12.4047 7.54717L12.4047 7.5472L12.4047 7.54722L12.4047 7.54724L12.4046 7.54743L12.4043 7.54928L12.4026 7.55787L12.3955 7.59388C12.3889 7.62601 12.3787 7.67401 12.3644 7.73586L12.3639 7.73784C12.2694 8.16303 12.131 8.56891 11.9517 8.95254L11.9516 8.95247L11.9479 8.96108C11.3203 10.4468 9.86489 12.9498 6.57635 15.6795C6.46134 15.7742 6.2975 15.7724 6.18787 15.6805L6.187 15.6798C2.89818 12.9467 1.44269 10.4435 0.818396 8.96443L0.818507 8.96438L0.815279 8.95735C0.638393 8.57199 0.496623 8.16213 0.402282 7.74074L0.402356 7.74072L0.400857 7.73472C0.385524 7.67339 0.375806 7.62762 0.370068 7.59821C0.367199 7.58351 0.365325 7.5729 0.364242 7.56648L0.363185 7.56L0.363168 7.55989L0.363421 7.55985L0.361283 7.54859C0.253892 6.98321 0.219339 6.39374 0.279178 5.78591L0.279227 5.7854C0.572261 2.74478 3.11019 0.361067 6.16392 0.253919ZM3.0314 6.45689C3.0314 8.30741 4.531 9.807 6.38151 9.807C8.23203 9.807 9.73162 8.30741 9.73162 6.45689C9.73162 4.60638 8.23203 3.10678 6.38151 3.10678C4.531 3.10678 3.0314 4.60638 3.0314 6.45689Z" stroke="#A0627B" stroke-width="0.5"/>
</svg>
