  <svg    
      width="70"
      height="70"
      viewBox="0 0 40 40"
      fill="none"
      xmlns="http://www.w3.org/2000/svg"
    >
      <g clipPath="url(#clip0_945_114930)">
        <path
          d="M19.4309 0.0101807C11.4837 0.289027 4.88164 6.48925 4.11892 14.4036C3.96309 15.9864 4.05331 17.5201 4.33215 18.9881C4.33215 18.9881 4.35676 19.1603 4.43877 19.4884C4.68481 20.5874 5.05387 21.6535 5.51315 22.6541C7.11241 26.4431 10.8112 32.7828 19.111 39.6801C19.6195 40.1066 20.3658 40.1066 20.8825 39.6801C29.1823 32.791 32.8811 26.4513 34.4885 22.6459C34.956 21.6453 35.3169 20.5874 35.5629 19.4802C35.6367 19.1603 35.6695 18.9799 35.6695 18.9799C35.8582 17.9957 35.9566 16.987 35.9566 15.9536C35.9566 6.94852 28.5016 -0.309672 19.4309 0.0101807ZM19.9967 23.8925C15.7156 23.8925 12.2465 20.4233 12.2465 16.1422C12.2465 11.8611 15.7156 8.39196 19.9967 8.39196C24.2779 8.39196 27.747 11.8611 27.747 16.1422C27.747 20.4233 24.2779 23.8925 19.9967 23.8925Z"
          fill="#B9BABB"
        />
      </g>
      <defs>
        <clipPath id="clip0_945_114930">
          <rect
            width="40"
            height="40"
            fill="white"
          />
        </clipPath>
      </defs>
    </svg>