<svg width="16" height="16" viewBox="0 0 16 16" fill="none" xmlns="http://www.w3.org/2000/svg">
<path d="M3.23609 4.80588V6.4765H3.12494C2.42531 6.4765 1.85645 7.04536 1.85645 7.74499V14.7315C1.85645 15.4311 2.42531 16 3.12494 16H12.874C13.5737 16 14.1425 15.4311 14.1425 14.7315V7.74172C14.1425 7.04209 13.5737 6.47323 12.874 6.47323H12.8413V4.80262C12.8413 2.15447 10.6869 0 8.03871 0C5.39057 0.00326931 3.23609 2.15774 3.23609 4.80588ZM8.75142 11.5472C8.65334 11.6191 8.62718 11.6878 8.62718 11.8022C8.63045 12.3155 8.63045 12.8255 8.63045 13.3388C8.64026 13.5513 8.53238 13.7605 8.34276 13.8553C7.89486 14.0842 7.44696 13.7638 7.44696 13.3388V13.3355C7.44696 12.8222 7.44696 12.309 7.45023 11.7957C7.45023 11.6911 7.42735 11.6224 7.33581 11.5537C6.87157 11.2105 6.71791 10.6253 6.95003 10.112C7.17561 9.61177 7.72813 9.31753 8.24795 9.42215C8.82661 9.53985 9.22874 10.0041 9.23528 10.5828C9.23528 10.9849 9.07508 11.3118 8.75142 11.5472ZM5.33826 4.80588C5.33826 3.31508 6.55117 2.10544 8.03871 2.10544C9.52951 2.10544 10.7392 3.31835 10.7392 4.80588V6.4765H5.33826V4.80588Z" fill="#383F43"/>
</svg>
