<svg width="97" height="34" viewBox="0 0 97 34" fill="none" xmlns="http://www.w3.org/2000/svg">
<path d="M17.9741 12.2699C16.0552 11.3916 13.852 11.0538 11.7199 11.1889C9.58784 11.324 7.45574 11.9997 5.67899 13.0807C3.90224 14.1617 2.40977 15.7157 1.4148 17.4724C0.419818 19.229 -0.00660187 21.256 0.135538 23.2153C0.277678 25.1747 0.917307 27.134 2.05443 28.8231C3.19154 30.5122 4.82615 31.8635 6.74504 32.8094C8.66393 33.7553 10.796 34.0585 12.9992 33.991C15.2734 33.991 21.8833 33.991 21.8833 33.991L19.1826 31.9311C17.6191 31.9311 14.7759 31.9311 12.9992 31.9311C11.2224 31.9987 9.44569 31.6608 7.88216 30.9176C6.31862 30.1744 4.96829 29.0258 4.04438 27.6746C3.12047 26.3233 2.55191 24.7017 2.48084 23.0802C2.40977 21.4587 2.76512 19.8371 3.54689 18.4183C4.32866 16.9319 5.53685 15.7157 7.02932 14.8374C8.52179 13.959 10.2275 13.4185 11.9331 13.2834C13.7099 13.1483 15.4866 13.4861 17.0502 14.1617L17.9741 12.2699Z" fill="#A0627B"/>
<path d="M37.6085 14.4763C38.0349 12.9899 38.016 11.3148 37.8028 9.82842C37.5896 8.34202 37.021 6.85561 36.1682 5.57189C35.3153 4.28817 34.1782 3.13958 32.8279 2.19368C31.4776 1.31535 29.914 0.639709 28.3505 0.301888C26.7159 -0.035932 25.0813 -0.103496 23.4467 0.16676C21.8121 0.437017 20.2485 0.977529 18.8271 1.7883C17.4057 2.59907 16.1976 3.68009 15.2736 4.89625C14.3497 6.1124 13.639 7.98921 13.2837 9.47562L15.5579 9.94856C15.8422 8.73241 16.4108 7.19343 17.1925 6.17996C17.8322 5.09894 18.8271 4.22061 19.9643 3.54496C21.1014 2.86932 22.3806 2.46394 23.731 2.26125C25.0813 1.99099 26.4316 2.05855 27.7819 2.32881C29.1323 2.59907 30.3405 3.13958 31.4065 3.88279C32.4726 4.62599 33.3965 5.57189 34.1072 6.65291C34.8179 7.73394 35.2443 8.88253 35.4575 10.1662C35.6707 11.45 35.6185 11.7738 35.6185 13.0575L37.6085 14.4763Z" fill="#A0627B"/>
<path d="M91.9159 18.395C90.4592 17.5286 88.725 16.9954 86.852 16.9954C81.7881 16.9954 77.6953 20.7943 77.6953 25.5264C77.6953 30.2585 81.8574 33.9908 86.852 33.9908C88.5169 33.9908 90.043 33.5909 91.4303 32.8578V33.9908H96.0087V25.5264V25.4598V25.3931V18.395H91.9159ZM91.4303 25.5264C91.4303 27.8591 89.3493 29.7253 86.852 29.7253C84.3547 29.7253 82.2737 27.7925 82.2737 25.4598C82.2737 23.1271 84.2854 21.1942 86.852 21.1942C89.4186 21.2609 91.4303 23.1271 91.4303 25.5264Z" fill="#A0627B"/>
<path d="M71.2209 17.4099C71.2209 17.4099 70.0741 17.4099 68.0671 17.7415C66.1319 18.0731 64.9134 18.4048 64.9134 18.4048V17.4099H60.2544V33.9909H64.985V22.9148C64.985 22.9148 69.1423 21.8536 69.2856 21.8536C69.2856 21.8536 69.3573 21.8536 69.429 21.8536C69.9307 21.7873 71.2209 21.5883 71.2209 22.9148V33.9909H75.9516V21.7873C75.9516 19.3333 73.873 17.4099 71.2209 17.4099Z" fill="#A0627B"/>
<path d="M53.7795 17.4099C53.7795 17.4099 52.6327 17.4099 50.6257 17.7415C48.6905 18.0731 47.472 18.4048 47.472 18.4048V17.4099H42.813V33.9909H47.5436V22.9148C47.5436 22.9148 51.7009 21.8536 51.8442 21.8536C51.8442 21.8536 51.9159 21.8536 51.9876 21.8536C52.4893 21.7873 53.7795 21.5883 53.7795 22.9148V33.9909H58.5102V21.7873C58.5102 19.3333 56.4315 17.4099 53.7795 17.4099Z" fill="#A0627B"/>
<path d="M40.5616 17.4102H37.9329C35.8725 15.2053 32.8886 13.6794 29.4783 13.6794C23.3683 13.6794 18.395 18.2228 18.395 23.8353C18.395 29.4477 23.3683 33.9911 29.4783 33.9911C31.8939 33.9911 34.0964 33.323 35.9436 32.1203V33.9911H40.6327V23.8353V17.4102H40.5616ZM29.4783 29.3809C26.0681 29.3809 23.3683 26.9087 23.3683 23.8353C23.3683 20.7618 26.1391 18.2897 29.4783 18.2897C32.8886 18.2897 35.5884 20.7618 35.5884 23.8353C35.5884 26.8419 32.8175 29.3809 29.4783 29.3809Z" fill="#A0627B"/>
<path d="M61.6109 12.4051C61.4688 12.4727 61.3266 12.5402 61.1845 12.6078C61.0423 12.6753 60.8291 12.6754 60.6159 12.6754C60.4027 12.6754 60.1895 12.6753 60.0474 12.6078V11.797C60.1895 11.8646 60.3316 11.8646 60.4738 11.8646C60.5449 11.8646 60.6159 11.8646 60.687 11.797C60.7581 11.797 60.8291 11.7295 60.8291 11.6619C60.9002 11.5268 60.9002 11.4592 60.9002 11.2565V8.89176L60.3316 8.95932V8.14856C61.1134 8.08099 61.8952 8.01343 62.677 8.01343C63.2455 8.01343 63.6719 8.08099 63.9562 8.21612C64.0984 8.28368 64.2405 8.35125 64.3116 8.41881C64.3826 8.48638 64.4537 8.6215 64.5248 8.75663C64.5958 8.89176 64.5958 9.02689 64.5958 9.16202C64.5958 9.29715 64.5958 9.43227 64.5958 9.63497V12.6078H63.4587V9.63497C63.4587 9.09445 63.1034 8.8242 62.4637 8.8242C62.3216 8.8242 62.1795 8.8242 61.9663 8.8242V11.2565C62.0373 11.797 61.8952 12.2024 61.6109 12.4051Z" fill="#A0627B"/>
<path d="M65.7329 11.0536V8.08081H66.87V10.1753L66.1593 11.0536H65.7329Z" fill="#A0627B"/>
<path d="M69.2153 8.01343C70.0682 8.01343 70.5657 8.14856 70.8499 8.41881C70.9921 8.55394 71.0632 8.75663 71.1342 8.95932C71.2053 9.16202 71.2053 9.36471 71.2053 9.63497V11.797H71.7739V12.6078H67.865V11.797H70.0682V9.63497C70.0682 9.09445 69.7128 8.8242 69.0732 8.8242C68.7178 8.8242 68.3625 8.8242 68.0072 8.89176H67.7939V8.01343C68.2204 8.01343 68.7179 8.01343 69.2153 8.01343Z" fill="#A0627B"/>
<path d="M75.8248 12.4051C75.6826 12.4727 75.5405 12.5402 75.3983 12.6078C75.2562 12.6753 75.043 12.6754 74.8298 12.6754C74.6166 12.6754 74.4034 12.6753 74.2612 12.6078V11.797C74.4034 11.8646 74.5455 11.8646 74.6876 11.8646C74.8298 11.8646 74.8298 11.8646 74.9009 11.797C74.9719 11.797 75.043 11.7295 75.043 11.6619C75.1141 11.5268 75.1141 11.4592 75.1141 11.2565V8.89176L74.5455 8.95932V8.14856C75.3273 8.08099 76.109 8.01343 76.8908 8.01343C77.4594 8.01343 77.8858 8.08099 78.1701 8.21612C78.3122 8.28368 78.4543 8.35125 78.5254 8.41881C78.5965 8.48638 78.6676 8.6215 78.7386 8.75663C78.8097 8.89176 78.8097 9.02689 78.8097 9.16202C78.8097 9.29715 78.8097 9.43227 78.8097 9.63497V12.6078H77.6726V9.63497C77.6726 9.09445 77.3172 8.8242 76.6776 8.8242C76.5355 8.8242 76.3933 8.8242 76.1801 8.8242V11.2565C76.2512 11.797 76.109 12.2024 75.8248 12.4051Z" fill="#A0627B"/>
<path d="M81.226 12.6076H80.0889V8.08081H81.226V12.6076Z" fill="#A0627B"/>
<path d="M82.0083 8.08099C82.5058 8.01343 82.9322 8.01343 83.2876 8.01343C83.6429 8.01343 83.9272 8.01343 84.1404 8.08099C84.3536 8.08099 84.5668 8.14856 84.709 8.21612C84.8511 8.28368 84.9932 8.35125 85.0643 8.41881C85.1354 8.48638 85.2064 8.6215 85.2775 8.75663C85.3486 8.89176 85.3486 9.02689 85.3486 9.16202C85.3486 9.29715 85.3486 9.43227 85.3486 9.63497V12.6078H84.2115V9.63497C84.2115 9.09445 83.8561 8.8242 83.2165 8.8242C82.8611 8.8242 82.5058 8.8242 82.0083 8.89176V8.08099Z" fill="#A0627B"/>
<path d="M88.4751 8.08081V8.89158C88.333 8.95914 88.2619 9.09427 88.1197 9.2294C88.0487 9.36453 87.9776 9.49966 87.9065 9.70235C87.8355 9.83748 87.8355 10.0402 87.7644 10.1753C87.7644 10.378 87.7644 10.5131 87.6933 10.5807C87.6933 10.6482 87.6933 10.8509 87.6933 11.0536V12.6076H86.5562V11.0536C86.5562 10.5807 86.6273 10.1753 86.7694 9.83748C86.9116 9.49966 87.0537 9.29696 87.1958 9.16184C87.338 9.02671 87.4801 8.95914 87.5512 8.89158H87.6222H86.4141V8.08081H88.4751Z" fill="#A0627B"/>
<path d="M90.3944 12.6076H89.2573V8.08081H90.3944V12.6076Z" fill="#A0627B"/>
<path d="M93.2372 10.1079L93.5215 11.5268C93.7347 11.3916 93.8769 11.2565 94.019 11.0538C94.1611 10.8511 94.2322 10.5809 94.2322 10.1755L94.4454 8.08099H95.5825L95.3693 10.0404C95.2983 10.4457 95.2272 10.7836 95.1561 11.0538C94.8008 11.8646 94.019 12.4051 92.8819 12.5402L91.3184 12.7429V11.9321L92.5976 11.7295L91.5316 8.01343H92.6687L93.2372 10.1079Z" fill="#A0627B"/>
</svg>
