<svg width="156" height="59" viewBox="0 0 156 59" fill="none" xmlns="http://www.w3.org/2000/svg">
<path d="M29.0973 20.9366C25.9767 19.4379 22.3939 18.8615 18.9266 19.092C15.4593 19.3226 11.992 20.4755 9.1026 22.3201C6.2132 24.1647 3.78609 26.8163 2.16803 29.8137C0.549958 32.8112 -0.1435 36.2698 0.0876526 39.6132C0.318805 42.9565 1.35899 46.2998 3.20821 49.182C5.05743 52.0642 7.71569 54.3699 10.8362 55.9839C13.9568 57.5979 17.4241 58.1154 21.007 58.0001C24.7054 58.0001 35.4545 58.0001 35.4545 58.0001L31.0626 54.4852C28.52 54.4852 23.8964 54.4852 21.007 54.4852C18.1176 54.6005 15.2281 54.024 12.6855 52.7559C10.1428 51.4877 7.94684 49.5279 6.44435 47.2221C4.94186 44.9164 4.01725 42.1495 3.90167 39.3826C3.78609 36.6157 4.36397 33.8488 5.63531 31.4278C6.90665 28.8915 8.87145 26.8163 11.2986 25.3176C13.7257 23.8188 16.4995 22.8965 19.2733 22.6659C22.1627 22.4354 25.0521 23.0118 27.5948 24.1647L29.0973 20.9366Z" fill="#A0627B"/>
<path d="M61.027 24.7015C61.7205 22.1652 61.6898 19.3069 61.343 16.7706C60.9963 14.2343 60.0717 11.698 58.6848 9.50752C57.2979 7.31707 55.4486 5.35718 53.2527 3.74316C51.0567 2.24443 48.5141 1.09156 45.9714 0.515124C43.3131 -0.0613121 40.6549 -0.176599 37.9966 0.284549C35.3384 0.745698 32.7957 1.668 30.4842 3.05144C28.1727 4.43489 26.2079 6.27948 24.7054 8.35465C23.2029 10.4298 22.0471 13.6323 21.4692 16.1686L25.1677 16.9756C25.63 14.9004 26.5546 12.2744 27.8259 10.5451C28.8661 8.70051 30.4842 7.20178 32.3334 6.04891C34.1826 4.89604 36.263 4.20431 38.4589 3.85845C40.6549 3.3973 42.8508 3.51259 45.0468 3.97374C47.2427 4.43489 49.2075 5.35718 50.9412 6.62534C52.6748 7.8935 54.1773 9.50752 55.3331 11.3521C56.4888 13.1967 57.1823 15.1566 57.529 17.347C57.8757 19.5375 57.7909 20.09 57.7909 22.2805L61.027 24.7015Z" fill="#A0627B"/>
<path d="M149.344 31.3882C146.975 29.9098 144.155 29 141.109 29C132.874 29 126.218 35.4824 126.218 43.5569C126.218 51.6314 132.987 58 141.109 58C143.817 58 146.298 57.3176 148.555 56.0667V58H156V43.5569V43.4431V43.3294V31.3882H149.344ZM148.555 43.5569C148.555 47.5373 145.17 50.7216 141.109 50.7216C137.048 50.7216 133.664 47.4235 133.664 43.4431C133.664 39.4627 136.935 36.1647 141.109 36.1647C145.283 36.2784 148.555 39.4627 148.555 43.5569Z" fill="#A0627B"/>
<path d="M115.689 29.7073C115.689 29.7073 113.824 29.7073 110.56 30.2731C107.413 30.839 105.431 31.4048 105.431 31.4048V29.7073H97.8546V58H105.548V39.1004C105.548 39.1004 112.308 37.2897 112.541 37.2897C112.541 37.2897 112.658 37.2897 112.775 37.2897C113.591 37.1765 115.689 36.837 115.689 39.1004V58H123.382V37.1765C123.382 32.9892 120.002 29.7073 115.689 29.7073Z" fill="#A0627B"/>
<path d="M87.325 29.7073C87.325 29.7073 85.46 29.7073 82.1963 30.2731C79.0491 30.839 77.0675 31.4048 77.0675 31.4048V29.7073H69.4909V58H77.1841V39.1004C77.1841 39.1004 83.9447 37.2897 84.1778 37.2897C84.1778 37.2897 84.2944 37.2897 84.411 37.2897C85.2269 37.1765 87.325 36.837 87.325 39.1004V58H95.0182V37.1765C95.0182 32.9892 91.6379 29.7073 87.325 29.7073Z" fill="#A0627B"/>
<path d="M65.8299 29.7073H61.555C58.2043 25.945 53.3517 23.3414 47.8059 23.3414C37.8695 23.3414 29.7818 31.094 29.7818 40.6707C29.7818 50.2474 37.8695 58 47.8059 58C51.7342 58 55.3159 56.8599 58.3199 54.8077V58H65.9454V40.6707V29.7073H65.8299ZM47.8059 50.1334C42.26 50.1334 37.8695 45.9151 37.8695 40.6707C37.8695 35.4263 42.3755 31.208 47.8059 31.208C53.3517 31.208 57.7422 35.4263 57.7422 40.6707C57.7422 45.8011 53.2362 50.1334 47.8059 50.1334Z" fill="#A0627B"/>
<path d="M100.061 21.1671C99.83 21.2824 99.5988 21.3977 99.3677 21.513C99.1365 21.6283 98.7898 21.6283 98.443 21.6283C98.0963 21.6283 97.7496 21.6283 97.5184 21.513V20.1295C97.7496 20.2448 97.9807 20.2448 98.2119 20.2448C98.3275 20.2448 98.443 20.2448 98.5586 20.1295C98.6742 20.1295 98.7898 20.0143 98.7898 19.899C98.9053 19.6684 98.9053 19.5531 98.9053 19.2072V15.1722L97.9807 15.2875V13.904C99.2521 13.7887 100.523 13.6735 101.795 13.6735C102.719 13.6735 103.413 13.7887 103.875 14.0193C104.106 14.1346 104.337 14.2499 104.453 14.3652C104.569 14.4805 104.684 14.711 104.8 14.9416C104.915 15.1722 104.915 15.4028 104.915 15.6333C104.915 15.8639 104.915 16.0945 104.915 16.4404V21.513H103.066V16.4404C103.066 15.5181 102.488 15.0569 101.448 15.0569C101.217 15.0569 100.986 15.0569 100.639 15.0569V19.2072C100.755 20.1295 100.523 20.8213 100.061 21.1671Z" fill="#A0627B"/>
<path d="M106.765 18.8615V13.7888H108.614V17.3627L107.458 18.8615H106.765Z" fill="#A0627B"/>
<path d="M112.428 13.6735C113.815 13.6735 114.624 13.904 115.086 14.3652C115.317 14.5958 115.433 14.9416 115.548 15.2875C115.664 15.6333 115.664 15.9792 115.664 16.4404V20.1295H116.588V21.513H110.232V20.1295H113.815V16.4404C113.815 15.5181 113.237 15.0569 112.197 15.0569C111.619 15.0569 111.041 15.0569 110.463 15.1722H110.116V13.6735C110.81 13.6735 111.619 13.6735 112.428 13.6735Z" fill="#A0627B"/>
<path d="M123.176 21.1671C122.945 21.2824 122.714 21.3977 122.483 21.513C122.252 21.6283 121.905 21.6283 121.558 21.6283C121.212 21.6283 120.865 21.6283 120.634 21.513V20.1295C120.865 20.2448 121.096 20.2448 121.327 20.2448C121.558 20.2448 121.558 20.2448 121.674 20.1295C121.789 20.1295 121.905 20.0143 121.905 19.899C122.021 19.6684 122.021 19.5531 122.021 19.2072V15.1722L121.096 15.2875V13.904C122.367 13.7887 123.639 13.6735 124.91 13.6735C125.835 13.6735 126.528 13.7887 126.99 14.0193C127.222 14.1346 127.453 14.2499 127.568 14.3652C127.684 14.4805 127.799 14.711 127.915 14.9416C128.031 15.1722 128.031 15.4028 128.031 15.6333C128.031 15.8639 128.031 16.0945 128.031 16.4404V21.513H126.181V16.4404C126.181 15.5181 125.604 15.0569 124.563 15.0569C124.332 15.0569 124.101 15.0569 123.754 15.0569V19.2072C123.87 20.1295 123.639 20.8213 123.176 21.1671Z" fill="#A0627B"/>
<path d="M131.96 21.5131H130.111V13.7888H131.96V21.5131Z" fill="#A0627B"/>
<path d="M133.232 13.7887C134.041 13.6735 134.734 13.6735 135.312 13.6735C135.89 13.6735 136.352 13.6735 136.699 13.7887C137.046 13.7887 137.392 13.904 137.623 14.0193C137.855 14.1346 138.086 14.2499 138.201 14.3652C138.317 14.4805 138.432 14.711 138.548 14.9416C138.664 15.1722 138.664 15.4028 138.664 15.6333C138.664 15.8639 138.664 16.0945 138.664 16.4404V21.513H136.814V16.4404C136.814 15.5181 136.236 15.0569 135.196 15.0569C134.618 15.0569 134.041 15.0569 133.232 15.1722V13.7887V13.7887Z" fill="#A0627B"/>
<path d="M143.749 13.7888V15.1723C143.518 15.2876 143.402 15.5181 143.171 15.7487C143.055 15.9793 142.94 16.2098 142.824 16.5557C142.709 16.7863 142.709 17.1321 142.593 17.3627C142.593 17.7086 142.593 17.9392 142.478 18.0544C142.478 18.1697 142.478 18.5156 142.478 18.8615V21.5131H140.628V18.8615C140.628 18.0544 140.744 17.3627 140.975 16.7863C141.206 16.2098 141.437 15.864 141.669 15.6334C141.9 15.4028 142.131 15.2876 142.246 15.1723H142.362H140.397V13.7888H143.749V13.7888Z" fill="#A0627B"/>
<path d="M146.869 21.5131H145.02V13.7888H146.869V21.5131Z" fill="#A0627B"/>
<path d="M151.493 17.2474L151.955 19.6684C152.302 19.4378 152.533 19.2072 152.764 18.8614C152.995 18.5155 153.111 18.0544 153.111 17.3626L153.457 13.7887H155.307L154.96 17.1321C154.844 17.8238 154.729 18.4002 154.613 18.8614C154.035 20.2448 152.764 21.1671 150.915 21.3977L148.372 21.7436V20.3601L150.452 20.0143L148.719 13.6735H150.568L151.493 17.2474Z" fill="#A0627B"/>
</svg>
