<svg width="16" height="16" viewBox="0 0 16 16" fill="none" xmlns="http://www.w3.org/2000/svg">
<path d="M10.8249 2.25526C10.8249 2.25526 9.97557 1.87304 9.97557 2.76602C9.97557 3.65899 10.8171 4.25823 10.8277 4.25632C12.3134 5.22611 13.2953 6.90318 13.2953 8.80975C13.2953 11.7646 10.937 14.1685 7.99984 14.242C5.06272 14.1685 2.70434 11.7646 2.70434 8.80975C2.70434 6.90315 3.68628 5.22614 5.17194 4.25632C5.18261 4.25823 6.02407 3.65896 6.02407 2.76602C6.02407 1.87307 5.17472 2.25526 5.17472 2.25526C2.68115 3.38445 0.946289 5.89424 0.946289 8.80975C0.946289 12.7355 4.09175 15.9261 7.99984 16C11.9079 15.9261 15.0533 12.7355 15.0533 8.80975C15.0534 5.89424 13.3185 3.38445 10.8249 2.25526Z" fill="#FF8282"/>
<path d="M8.04895 0C7.25866 0 7.01172 0.578621 7.01172 0.804918V4.34656V7.88821C7.01172 8.11454 7.25869 8.69313 8.04895 8.69313C8.83924 8.69313 8.98742 8.11451 8.98742 7.88821V4.34656V0.804918C8.98739 0.578591 8.83924 0 8.04895 0Z" fill="#FF8282"/>
</svg>
