<svg width="22" height="18" viewBox="0 0 22 18" fill="none" xmlns="http://www.w3.org/2000/svg">
<path fill-rule="evenodd" clip-rule="evenodd" d="M0.795834 0.259821C0.350834 0.50131 0 0.969621 0 1.32227C0 1.4356 0.573833 1.49993 1.58333 1.49993C2.59283 1.49993 3.16667 1.4356 3.16667 1.32227C3.16667 0.957788 2.80833 0.495644 2.33667 0.251655C1.73517 -0.0593302 1.3805 -0.0574976 0.795834 0.259821ZM3.255 0.606638L3.66667 1.21311V8.86442C3.66667 17.3435 3.66217 17.3054 4.73483 17.7535C5.6995 18.1567 6.72033 17.6647 7.02433 16.6504L7.21767 16.0051L11.2338 15.9604L15.25 15.9159V13.1661V10.4162L14.3333 10.3683L13.4167 10.3204L12.2545 11.4933C11.6153 12.1383 10.9797 12.6661 10.842 12.6661C10.7043 12.6661 11.1245 12.1224 11.7758 11.4578C12.8792 10.332 12.9667 10.1889 13.057 9.36173C13.1692 8.33461 13.661 7.192 14.6407 5.68224C15.3198 4.63562 15.3332 4.58679 15.324 3.18235C15.3117 1.32777 15.0855 0.667635 14.3333 0.291986C13.8137 0.0323316 13.1547 0.000499794 8.29667 0.000333135L2.84333 0L3.255 0.606638ZM19.6452 1.57743C18.4455 2.02257 17.683 2.65804 17.5653 3.31101C17.413 4.15647 17.3178 4.26413 17.045 3.89998C16.819 3.5985 16.7755 3.6195 16.1462 4.33313C14.5815 6.10738 13.1483 8.77709 13.4035 9.44206C13.4918 9.67222 14.1452 9.10174 16.5907 6.65902C18.2825 4.9691 19.6667 3.70283 19.6667 3.84482C19.6667 3.98698 18.3223 5.43441 16.6792 7.06134C14.8772 8.84575 13.7773 10.0524 13.9073 10.1024C14.6007 10.3684 18.0103 8.53493 17.9493 7.9288C17.9247 7.68414 18.0638 7.56865 18.516 7.45832C18.9027 7.36382 19.4302 6.99334 20.0018 6.41437C20.75 5.65707 20.8553 5.47725 20.6773 5.26259C20.4988 5.0476 20.5595 4.95344 21.0708 4.65178C21.8115 4.2148 22 3.88382 22 3.02019C22 1.77608 20.91 1.10828 19.6452 1.57743ZM9.75 5.24975C9.75 5.43241 6.60817 5.57691 6.18317 5.41391C5.95867 5.32758 5.95717 5.29509 6.17133 5.15693C6.49617 4.94727 9.75 5.03177 9.75 5.24975ZM10.7353 6.76718C11.4022 7.02301 10.6293 7.16633 8.58333 7.16633C6.55117 7.16633 5.98567 7.06967 6.28233 6.77285C6.41783 6.63753 10.384 6.63236 10.7353 6.76718ZM11.5833 8.67576C10.7077 8.85692 6.84383 8.84975 6.41667 8.66626C6.21567 8.57993 7.30667 8.52594 9.16667 8.53043C11.2372 8.53543 12.031 8.58327 11.5833 8.67576ZM10.5833 10.1662C10.6502 10.2742 9.87733 10.332 8.38483 10.3304C6.83733 10.3285 6.16517 10.2749 6.33333 10.1662C6.66667 9.9507 10.4502 9.9507 10.5833 10.1662ZM7.257 17.0555C7.024 17.4532 6.83333 17.8282 6.83333 17.8888C6.83333 18.0723 16.0268 18.013 16.7035 17.8252C17.3508 17.6453 17.8333 17.1345 17.8333 16.6287C17.8333 16.3514 17.5103 16.3326 12.757 16.3326H7.68067L7.257 17.0555Z" fill="white"/>
</svg>
