<svg width="19" height="23" viewBox="0 0 19 23" fill="none" xmlns="http://www.w3.org/2000/svg">
<rect x="14.9807" y="9.29318" width="2.3884" height="0.54581" rx="0.272905" transform="rotate(-30.5167 14.9807 9.29318)" stroke="#383F43" stroke-width="0.2"/>
<rect x="13.5036" y="7.84124" width="2.3884" height="0.54581" rx="0.272905" transform="rotate(-65.4369 13.5036 7.84124)" stroke="#383F43" stroke-width="0.2"/>
<rect x="16.1084" y="11.333" width="2.3884" height="0.54581" rx="0.272905" transform="rotate(-5.04396 16.1084 11.333)" stroke="#383F43" stroke-width="0.2"/>
<mask id="path-4-inside-1_2567_172966" fill="white">
<path fill-rule="evenodd" clip-rule="evenodd" d="M7.09175 0.0495612C6.79001 0.160927 6.49934 0.413354 6.17716 0.843768C5.63738 1.56493 5.5499 1.63267 5.3143 1.51174C5.25986 1.4838 5.03994 1.3324 4.82559 1.17535C4.25258 0.755538 3.95651 0.664477 3.66063 0.817038C3.21412 1.04727 3.0631 1.80783 3.31008 2.58223C3.53027 3.27262 4.14153 4.29476 4.8629 5.17891C5.47878 5.93372 5.48549 5.93848 6.19017 6.11737C7.75573 6.5149 9.11482 6.5534 10.3825 6.23619C11.0778 6.0622 11.2024 5.99463 11.4624 5.65061C12.1946 4.6821 12.9148 3.16718 13.1219 2.16003C13.3113 1.23887 13.2354 1.01277 12.6797 0.842645C11.444 0.464342 10.6159 0.739365 9.70007 1.83214L9.43061 2.1537L9.2493 1.95545C9.14959 1.84647 8.96602 1.58061 8.84137 1.3647C8.39827 0.597227 8.17309 0.293183 7.94378 0.152661C7.69082 -0.00232573 7.34553 -0.0441497 7.09175 0.0495612ZM5.29721 7.36665C3.41677 9.04954 1.55424 11.969 0.659919 14.6354C-0.198326 17.1941 -0.219448 19.2802 0.596599 20.8892C0.818242 21.3263 0.985902 21.5642 1.3147 21.9084C1.82624 22.4439 2.48968 22.7961 3.22672 22.9235C3.83001 23.0278 13.0569 23.0244 13.5682 22.9197C14.5723 22.7142 15.4983 22.0615 16.1381 21.1086C16.9579 19.8875 17.1772 18.573 16.8627 16.7641C16.4235 14.237 15.0308 11.3209 13.1428 8.97497C12.6467 8.35857 11.3162 6.99774 11.2108 6.99899C11.179 6.9994 11.1241 7.01782 11.0888 7.03996C11.0351 7.0737 11.0452 7.1374 11.1515 7.43237C11.4981 8.39361 12.1782 9.56715 12.7485 10.1879C13.1102 10.5817 13.17 10.6761 13.17 10.8538C13.17 11.0657 12.9229 11.3111 12.7099 11.3107C12.5096 11.3103 12.3845 11.2209 12.0186 10.8168C11.6409 10.3997 11.1714 9.7216 10.8583 9.14064L10.6207 8.69985L10.4042 9.14756C10.1813 9.6087 9.89547 10.0595 9.73638 10.2011C9.4864 10.4234 9.0636 10.2804 8.9793 9.945C8.93134 9.75412 8.92586 9.76693 9.3521 9.07577C9.58118 8.70443 9.78936 8.19756 9.95245 7.61423L10.0395 7.30304L9.89366 7.33161C9.81348 7.34733 9.35976 7.37227 8.88538 7.387C8.21909 7.40771 7.88835 7.39684 7.43124 7.33916C6.93388 7.2764 6.16125 7.12496 5.80454 7.02033C5.73551 7.00007 5.61458 7.0826 5.29721 7.36665ZM8.73386 12.1001C8.90977 12.1903 9.00001 12.4068 9.00001 12.7386V13.0011L9.27301 13.0822C9.79109 13.2359 10.3218 13.6697 10.5409 14.1184C10.593 14.225 10.658 14.4315 10.6854 14.5773C10.7481 14.9117 10.6622 15.1286 10.4222 15.2415C10.1103 15.3881 9.79897 15.1956 9.74417 14.8223C9.70302 14.5416 9.62678 14.4047 9.40894 14.2199C9.07448 13.9361 8.508 13.8394 8.02043 13.9829C7.771 14.0564 7.44765 14.3051 7.34444 14.5029C7.25882 14.6669 7.25882 14.9632 7.34444 15.1272C7.51555 15.4552 8.01055 15.7128 8.47265 15.7143C9.81021 15.7188 10.8849 16.7534 10.6821 17.8412C10.5527 18.5347 9.94655 19.1481 9.19151 19.3496L9.00001 19.4007V19.6925C9.00001 20.1819 8.83204 20.4305 8.50143 20.4305C8.17082 20.4305 8.00284 20.1819 8.00284 19.6925V19.4007L7.78424 19.3364C7.22682 19.1723 6.75131 18.8114 6.51593 18.3736C6.22244 17.828 6.22439 17.3732 6.52087 17.194C6.70426 17.0832 6.85374 17.0832 7.0369 17.1939C7.17977 17.2802 7.27677 17.4926 7.27736 17.7204C7.27777 17.871 7.5504 18.1903 7.77771 18.3063C8.12006 18.4809 8.48606 18.5266 8.84305 18.4392C9.0098 18.3984 9.21576 18.3225 9.3007 18.2705C9.78805 17.9719 9.86179 17.3978 9.46021 17.028C9.23113 16.817 9.01125 16.742 8.43688 16.6789C7.61028 16.5881 7.20275 16.4082 6.76703 15.9417C6.43928 15.5909 6.31097 15.2739 6.31097 14.8151C6.31097 14.5741 6.33961 14.4052 6.41145 14.222C6.60101 13.7389 7.16753 13.2491 7.72985 13.0822L8.00284 13.0011V12.7468C8.00284 12.4075 8.07573 12.2189 8.24674 12.1156C8.4188 12.0116 8.55278 12.0073 8.73386 12.1001Z"/>
</mask>
<path d="M7.09175 0.0495612L7.23025 0.424817L7.23031 0.424796L7.09175 0.0495612ZM6.17716 0.843768L5.85694 0.60407L5.85693 0.604077L6.17716 0.843768ZM5.3143 1.51174L5.13163 1.8676L5.13163 1.8676L5.3143 1.51174ZM4.82559 1.17535L5.06201 0.852692L5.06199 0.852682L4.82559 1.17535ZM3.66063 0.817038L3.47732 0.461514L3.47731 0.461519L3.66063 0.817038ZM3.31008 2.58223L2.92899 2.70377L2.92899 2.70377L3.31008 2.58223ZM4.8629 5.17891L4.55296 5.43178L4.55297 5.43179L4.8629 5.17891ZM6.19017 6.11737L6.28862 5.72967L6.28859 5.72966L6.19017 6.11737ZM10.3825 6.23619L10.2854 5.84815L10.2854 5.84815L10.3825 6.23619ZM11.4624 5.65061L11.1434 5.40938L11.1433 5.40939L11.4624 5.65061ZM13.1219 2.16003L12.7301 2.07947V2.07947L13.1219 2.16003ZM12.6797 0.842645L12.7969 0.460171L12.7968 0.460167L12.6797 0.842645ZM9.70007 1.83214L9.3935 1.5752L9.39348 1.57522L9.70007 1.83214ZM9.43061 2.1537L9.13543 2.42365L9.44376 2.76079L9.7372 2.41061L9.43061 2.1537ZM9.2493 1.95545L9.54448 1.6855L9.54442 1.68543L9.2493 1.95545ZM8.84137 1.3647L9.18779 1.16471L9.18778 1.1647L8.84137 1.3647ZM7.94378 0.152661L8.15279 -0.188392L8.15275 -0.188413L7.94378 0.152661ZM5.29721 7.36665L5.56396 7.66472L5.56397 7.66471L5.29721 7.36665ZM0.659919 14.6354L1.03915 14.7626L1.03916 14.7626L0.659919 14.6354ZM0.596599 20.8892L0.953348 20.7083L0.953339 20.7083L0.596599 20.8892ZM1.3147 21.9084L1.02545 22.1847L1.02546 22.1847L1.3147 21.9084ZM3.22672 22.9235L3.15859 23.3177L3.1586 23.3177L3.22672 22.9235ZM13.5682 22.9197L13.488 22.5278L13.4879 22.5278L13.5682 22.9197ZM16.1381 21.1086L15.806 20.8856L15.806 20.8856L16.1381 21.1086ZM16.8627 16.7641L16.4686 16.8326V16.8326L16.8627 16.7641ZM13.1428 8.97497L13.4544 8.72418L13.4544 8.72417L13.1428 8.97497ZM11.2108 6.99899L11.206 6.59902L11.2057 6.59903L11.2108 6.99899ZM11.0888 7.03996L10.8763 6.70111L10.8762 6.70116L11.0888 7.03996ZM11.1515 7.43237L10.7752 7.56803L10.7752 7.56804L11.1515 7.43237ZM12.7485 10.1879L13.043 9.91731L13.043 9.9173L12.7485 10.1879ZM12.7099 11.3107L12.7108 10.9107H12.7107L12.7099 11.3107ZM12.0186 10.8168L11.7221 11.0853L11.7221 11.0853L12.0186 10.8168ZM10.8583 9.14064L10.5062 9.33044L10.5062 9.33044L10.8583 9.14064ZM10.6207 8.69985L10.9728 8.51006L10.6013 7.82095L10.2606 8.52573L10.6207 8.69985ZM10.4042 9.14756L10.0441 8.97344L10.0441 8.97348L10.4042 9.14756ZM9.73638 10.2011L10.0022 10.5L10.0023 10.4999L9.73638 10.2011ZM8.9793 9.945L8.59135 10.0425L8.59137 10.0425L8.9793 9.945ZM9.3521 9.07577L9.01167 8.86576L9.01164 8.86581L9.3521 9.07577ZM9.95245 7.61423L9.56723 7.50649L9.56722 7.50653L9.95245 7.61423ZM10.0395 7.30304L10.4247 7.41077L10.5995 6.7857L9.96256 6.9105L10.0395 7.30304ZM9.89366 7.33161L9.81674 6.93907L9.81668 6.93909L9.89366 7.33161ZM8.88538 7.387L8.87296 6.98719L8.87296 6.98719L8.88538 7.387ZM7.43124 7.33916L7.48132 6.9423H7.48132L7.43124 7.33916ZM5.80454 7.02033L5.69189 7.40414L5.69196 7.40416L5.80454 7.02033ZM8.73386 12.1001L8.55141 12.4561L8.55141 12.4561L8.73386 12.1001ZM9.00001 13.0011H8.60001V13.2995L8.88612 13.3845L9.00001 13.0011ZM9.27301 13.0822L9.15912 13.4656L9.15919 13.4656L9.27301 13.0822ZM10.5409 14.1184L10.9003 13.9429L10.9003 13.9428L10.5409 14.1184ZM10.6854 14.5773L10.2922 14.651L10.2922 14.6511L10.6854 14.5773ZM10.4222 15.2415L10.5924 15.6034L10.5924 15.6034L10.4222 15.2415ZM9.74417 14.8223L9.3484 14.8804L9.34841 14.8804L9.74417 14.8223ZM9.40894 14.2199L9.15015 14.5249L9.15016 14.5249L9.40894 14.2199ZM8.02043 13.9829L7.9075 13.5992L7.90744 13.5992L8.02043 13.9829ZM7.34444 14.5029L7.69905 14.6879L7.69907 14.6879L7.34444 14.5029ZM7.34444 15.1272L7.69907 14.9422L7.69905 14.9422L7.34444 15.1272ZM8.47265 15.7143L8.47399 15.3143H8.47397L8.47265 15.7143ZM10.6821 17.8412L11.0753 17.9146L11.0753 17.9146L10.6821 17.8412ZM9.19151 19.3496L9.08838 18.9631L9.08834 18.9631L9.19151 19.3496ZM9.00001 19.4007L8.89684 19.0143L8.60001 19.0935V19.4007H9.00001ZM8.00284 19.4007H8.40284V19.1015L8.11577 19.017L8.00284 19.4007ZM7.78424 19.3364L7.6713 19.7201L7.67131 19.7201L7.78424 19.3364ZM6.51593 18.3736L6.86823 18.1842L6.86821 18.1842L6.51593 18.3736ZM6.52087 17.194L6.31398 16.8517L6.31396 16.8517L6.52087 17.194ZM7.0369 17.1939L7.2438 16.8515L7.24379 16.8515L7.0369 17.1939ZM7.27736 17.7204L6.87736 17.7214L6.87736 17.7214L7.27736 17.7204ZM7.77771 18.3063L7.59595 18.6626L7.59596 18.6626L7.77771 18.3063ZM8.84305 18.4392L8.748 18.0507L8.748 18.0507L8.84305 18.4392ZM9.3007 18.2705L9.09177 17.9294L9.09166 17.9294L9.3007 18.2705ZM9.46021 17.028L9.18921 17.3222L9.18924 17.3222L9.46021 17.028ZM8.43688 16.6789L8.48058 16.2813L8.48056 16.2813L8.43688 16.6789ZM6.76703 15.9417L7.05934 15.6687L7.05934 15.6687L6.76703 15.9417ZM6.41145 14.222L6.03909 14.0759L6.03906 14.0759L6.41145 14.222ZM7.72985 13.0822L7.84369 13.4656L7.84374 13.4656L7.72985 13.0822ZM8.00284 13.0011L8.11674 13.3845L8.40284 13.2995V13.0011H8.00284ZM8.24674 12.1156L8.45359 12.4579L8.45366 12.4579L8.24674 12.1156ZM6.95325 -0.325695C6.54533 -0.175137 6.19755 0.149021 5.85694 0.60407L6.49739 1.08347C6.80113 0.677687 7.0347 0.496992 7.23025 0.424817L6.95325 -0.325695ZM5.85693 0.604077C5.72206 0.784267 5.62064 0.916612 5.53983 1.01407C5.45622 1.11491 5.4101 1.15921 5.3868 1.17724C5.3699 1.19033 5.4023 1.16064 5.46768 1.15983C5.5194 1.15919 5.5423 1.17916 5.49696 1.15588L5.13163 1.8676C5.20409 1.90479 5.32628 1.96163 5.47753 1.95977C5.64245 1.95774 5.77463 1.88872 5.87652 1.80983C5.97202 1.73591 6.0637 1.63561 6.15567 1.5247C6.25044 1.41041 6.36237 1.26385 6.49739 1.08346L5.85693 0.604077ZM5.49696 1.15588C5.50411 1.15955 5.49627 1.15568 5.46327 1.13421C5.43555 1.11617 5.39933 1.09181 5.35671 1.06248C5.27168 1.00395 5.16633 0.92913 5.06201 0.852692L4.58918 1.49801C4.6992 1.57862 4.81098 1.65803 4.90311 1.72145C4.98394 1.77708 5.07635 1.83922 5.13163 1.8676L5.49696 1.15588ZM5.06199 0.852682C4.76917 0.638151 4.50689 0.476158 4.25678 0.39923C3.97856 0.313657 3.72217 0.335264 3.47732 0.461514L3.84394 1.17256C3.89496 1.14625 3.93456 1.13711 4.0216 1.16388C4.13674 1.19929 4.309 1.29274 4.58919 1.49802L5.06199 0.852682ZM3.47731 0.461519C3.10617 0.652891 2.90911 1.03419 2.83296 1.41766C2.75527 1.80887 2.78797 2.2616 2.92899 2.70377L3.69116 2.46069C3.58521 2.12846 3.56993 1.81371 3.61763 1.57348C3.66688 1.32551 3.76858 1.21142 3.84395 1.17256L3.47731 0.461519ZM2.92899 2.70377C3.17066 3.46149 3.81602 4.52854 4.55296 5.43178L5.17283 4.92604C4.46705 4.06099 3.88988 3.08374 3.69116 2.46068L2.92899 2.70377ZM4.55297 5.43179C4.84419 5.7887 5.03985 6.03343 5.2623 6.19071C5.50189 6.36012 5.76054 6.42099 6.09175 6.50507L6.28859 5.72966C5.91512 5.63486 5.81808 5.6039 5.72417 5.5375C5.61312 5.45899 5.49749 5.32393 5.17282 4.92603L4.55297 5.43179ZM6.09173 6.50506C7.70651 6.91509 9.13428 6.96086 10.4796 6.62422L10.2854 5.84815C9.09537 6.14593 7.80495 6.1147 6.28862 5.72967L6.09173 6.50506ZM10.4795 6.62423C10.8192 6.53924 11.074 6.46851 11.2763 6.35879C11.5021 6.23635 11.6398 6.07924 11.7815 5.89183L11.1433 5.40939C11.0249 5.56601 10.9703 5.61469 10.895 5.65553C10.7962 5.7091 10.6411 5.75914 10.2854 5.84815L10.4795 6.62423ZM11.7815 5.89183C12.5432 4.88435 13.2926 3.31565 13.5137 2.2406L12.7301 2.07947C12.537 3.01871 11.8461 4.47985 11.1434 5.40938L11.7815 5.89183ZM13.5137 2.2406C13.5621 2.00516 13.5971 1.79778 13.6099 1.61769C13.6225 1.43929 13.6156 1.25976 13.5594 1.09242C13.4298 0.706192 13.1029 0.553865 12.7969 0.460171L12.5626 1.22512C12.6862 1.26294 12.746 1.2935 12.7755 1.31485C12.7939 1.32819 12.7966 1.33394 12.801 1.34698C12.8096 1.37258 12.8209 1.43292 12.8119 1.56131C12.8029 1.68801 12.7764 1.85432 12.7301 2.07947L13.5137 2.2406ZM12.7968 0.460167C12.1289 0.255672 11.5234 0.213666 10.9439 0.406123C10.37 0.596716 9.8761 0.999375 9.3935 1.5752L10.0066 2.08907C10.4399 1.57213 10.818 1.29089 11.196 1.16535C11.5684 1.04168 11.9949 1.05132 12.5627 1.22512L12.7968 0.460167ZM9.39348 1.57522L9.12402 1.89679L9.7372 2.41061L10.0067 2.08905L9.39348 1.57522ZM9.72578 1.88375L9.54448 1.6855L8.95413 2.2254L9.13543 2.42365L9.72578 1.88375ZM9.54442 1.68543C9.47312 1.60751 9.30638 1.37014 9.18779 1.16471L8.49496 1.5647C8.62565 1.79108 8.82606 2.08542 8.95419 2.22547L9.54442 1.68543ZM9.18778 1.1647C8.96493 0.778714 8.78848 0.494319 8.63385 0.285519C8.47866 0.0759662 8.32911 -0.0803362 8.15279 -0.188392L7.73478 0.493715C7.78776 0.52618 7.86545 0.59216 7.99095 0.761629C8.11701 0.931851 8.27471 1.18322 8.49496 1.5647L9.18778 1.1647ZM8.15275 -0.188413C7.80692 -0.400302 7.33413 -0.466342 6.95319 -0.325674L7.23031 0.424796C7.35692 0.378043 7.57472 0.39565 7.73481 0.493735L8.15275 -0.188413ZM5.03045 7.06858C3.09262 8.80284 1.19448 11.7837 0.280682 14.5082L1.03916 14.7626C1.91401 12.1542 3.74092 9.29624 5.56396 7.66472L5.03045 7.06858ZM0.280684 14.5082C-0.594878 17.1185 -0.644183 19.3271 0.239858 21.0702L0.953339 20.7083C0.205287 19.2334 0.198226 17.2697 1.03915 14.7626L0.280684 14.5082ZM0.239849 21.0702C0.478687 21.5411 0.668831 21.8114 1.02545 22.1847L1.60394 21.6321C1.30297 21.3171 1.1578 21.1115 0.953348 20.7083L0.239849 21.0702ZM1.02546 22.1847C1.59683 22.7828 2.33805 23.1758 3.15859 23.3177L3.29485 22.5294C2.64131 22.4164 2.05566 22.105 1.60393 21.6321L1.02546 22.1847ZM3.1586 23.3177C3.26849 23.3367 3.51283 23.3481 3.81087 23.3574C4.12536 23.3672 4.53998 23.3752 5.01987 23.3816C5.98011 23.3943 7.20793 23.4004 8.43209 23.4C9.65623 23.3995 10.8783 23.3925 11.8271 23.3791C12.3013 23.3724 12.7088 23.364 13.0149 23.354C13.1676 23.349 13.2974 23.3435 13.3984 23.3374C13.4886 23.332 13.5837 23.3248 13.6484 23.3116L13.4879 22.5278C13.4888 22.5277 13.4519 22.5328 13.3504 22.5389C13.2598 22.5443 13.1383 22.5495 12.9887 22.5544C12.6899 22.5642 12.288 22.5725 11.8158 22.5792C10.8719 22.5926 9.65369 22.5995 8.43179 22.6C7.20991 22.6004 5.98594 22.5943 5.03049 22.5817C4.55254 22.5753 4.14334 22.5674 3.83576 22.5578C3.6818 22.553 3.55523 22.5478 3.45915 22.5424C3.41106 22.5397 3.37232 22.5371 3.34256 22.5345C3.32774 22.5332 3.31615 22.532 3.30741 22.531C3.29824 22.5299 3.29455 22.5293 3.29485 22.5294L3.1586 23.3177ZM13.6484 23.3116C14.7681 23.0824 15.7796 22.3603 16.4702 21.3316L15.806 20.8856C15.2171 21.7628 14.3765 22.346 13.488 22.5278L13.6484 23.3116ZM16.4702 21.3316C17.3608 20.0049 17.5843 18.5796 17.2568 16.6956L16.4686 16.8326C16.77 18.5665 16.5549 19.77 15.806 20.8856L16.4702 21.3316ZM17.2568 16.6956C16.8041 14.0909 15.3775 11.1137 13.4544 8.72418L12.8312 9.22575C14.6841 11.5281 16.0429 14.383 16.4686 16.8326L17.2568 16.6956ZM13.4544 8.72417C13.194 8.40056 12.7264 7.89518 12.3163 7.47572C12.1101 7.26486 11.9135 7.07067 11.7598 6.92765C11.6837 6.85687 11.6132 6.79403 11.555 6.74701C11.5267 6.7242 11.4939 6.69903 11.4605 6.67758C11.4441 6.6671 11.4195 6.65221 11.3897 6.63867C11.371 6.63017 11.3003 6.5979 11.206 6.59902L11.2156 7.39897C11.1278 7.40001 11.0661 7.37032 11.0586 7.36693C11.0401 7.35851 11.029 7.35127 11.0283 7.35083C11.0262 7.34948 11.0333 7.35401 11.0525 7.3695C11.0891 7.39907 11.1437 7.44715 11.2149 7.5134C11.3558 7.64445 11.5426 7.82876 11.7443 8.035C12.1498 8.44973 12.5955 8.93297 12.8312 9.22576L13.4544 8.72417ZM11.2057 6.59903C11.1301 6.59999 11.0634 6.61883 11.0238 6.63213C10.979 6.64717 10.9264 6.66966 10.8763 6.70111L11.3014 7.37882C11.2926 7.38432 11.2867 7.38712 11.2846 7.38809C11.2821 7.38922 11.2802 7.38992 11.2785 7.39052C11.2769 7.39104 11.2726 7.39242 11.2653 7.39395C11.2597 7.39513 11.242 7.39863 11.2159 7.39896L11.2057 6.59903ZM10.8762 6.70116C10.802 6.74772 10.7203 6.82719 10.6803 6.95117C10.647 7.05452 10.6567 7.14822 10.6652 7.20132C10.6814 7.30294 10.7256 7.43045 10.7752 7.56803L11.5278 7.29672C11.5017 7.22432 11.4834 7.17135 11.4709 7.13154C11.4577 7.08943 11.4551 7.07466 11.4551 7.07509C11.4553 7.07641 11.4572 7.08828 11.457 7.10727C11.4567 7.12671 11.454 7.1586 11.4416 7.19689C11.4286 7.23729 11.4073 7.27676 11.378 7.31169C11.3498 7.34524 11.321 7.36648 11.3014 7.37877L10.8762 6.70116ZM10.7752 7.56804C11.1361 8.56889 11.841 9.79129 12.4539 10.4585L13.043 9.9173C12.5155 9.34301 11.8601 8.21833 11.5278 7.29671L10.7752 7.56804ZM12.4539 10.4585C12.6399 10.661 12.7194 10.7566 12.7569 10.8159C12.7716 10.839 12.7716 10.8443 12.77 10.8386C12.7683 10.8325 12.77 10.8328 12.77 10.8538H13.57C13.57 10.6936 13.5358 10.5506 13.4329 10.388C13.3501 10.2572 13.2188 10.1086 13.043 9.91731L12.4539 10.4585ZM12.77 10.8538C12.77 10.8304 12.7762 10.8241 12.7705 10.8353C12.7654 10.8455 12.7547 10.8614 12.738 10.8781C12.7212 10.8947 12.7051 10.9054 12.6944 10.9107C12.6828 10.9165 12.6884 10.9106 12.7108 10.9107L12.7091 11.7107C12.958 11.7112 13.1688 11.5776 13.3017 11.4457C13.4343 11.314 13.57 11.1036 13.57 10.8538H12.77ZM12.7107 10.9107C12.7005 10.9107 12.6952 10.9101 12.6933 10.9098C12.6923 10.9097 12.6918 10.9096 12.6918 10.9096C12.6918 10.9096 12.6918 10.9096 12.6918 10.9096C12.6919 10.9096 12.6919 10.9096 12.6919 10.9096C12.6919 10.9096 12.6915 10.9095 12.6906 10.9091C12.6897 10.9087 12.688 10.9079 12.6855 10.9066C12.6805 10.904 12.6719 10.899 12.6589 10.8897C12.5967 10.8453 12.5007 10.7533 12.3151 10.5483L11.7221 11.0853C11.9024 11.2845 12.0519 11.4392 12.1938 11.5406C12.3628 11.6614 12.525 11.7104 12.7092 11.7107L12.7107 10.9107ZM12.3151 10.5484C11.9624 10.1588 11.5108 9.50816 11.2104 8.95085L10.5062 9.33044C10.8321 9.93504 11.3194 10.6406 11.7221 11.0853L12.3151 10.5484ZM11.2104 8.95085L10.9728 8.51006L10.2686 8.88965L10.5062 9.33044L11.2104 8.95085ZM10.2606 8.52573L10.0441 8.97344L10.7643 9.32168L10.9808 8.87397L10.2606 8.52573ZM10.0441 8.97348C9.93898 9.1909 9.81918 9.40545 9.70853 9.57999C9.59023 9.7666 9.50442 9.87204 9.47049 9.90223L10.0023 10.4999C10.1274 10.3885 10.2641 10.1978 10.3842 10.0083C10.512 9.80679 10.6465 9.56537 10.7643 9.32165L10.0441 8.97348ZM9.47054 9.90218C9.46744 9.90494 9.46467 9.90647 9.45905 9.90741C9.45191 9.90859 9.43944 9.90854 9.42387 9.90327C9.39055 9.892 9.37265 9.86904 9.36723 9.84749L8.59137 10.0425C8.74198 10.6417 9.50698 10.9404 10.0022 10.5L9.47054 9.90218ZM9.36724 9.84754C9.35105 9.7831 9.35699 9.79918 9.35732 9.81929C9.35794 9.85661 9.34673 9.87609 9.35549 9.85566C9.38632 9.78379 9.46797 9.64991 9.69256 9.28574L9.01164 8.86581C8.80999 9.19279 8.68127 9.39808 8.62026 9.54032C8.58311 9.62694 8.55562 9.72221 8.55743 9.83241C8.55896 9.92541 8.58357 10.0115 8.59135 10.0425L9.36724 9.84754ZM9.69254 9.28579C9.94722 8.87294 10.1681 8.32842 10.3377 7.72192L9.56722 7.50653C9.41061 8.0667 9.21515 8.53592 9.01167 8.86576L9.69254 9.28579ZM10.3377 7.72196L10.4247 7.41077L9.65425 7.19531L9.56723 7.50649L10.3377 7.72196ZM9.96256 6.9105L9.81674 6.93907L9.97057 7.72415L10.1164 7.69557L9.96256 6.9105ZM9.81668 6.93909C9.82362 6.93773 9.80438 6.94085 9.73787 6.94604C9.68086 6.95049 9.60514 6.95535 9.5154 6.96028C9.33627 6.97012 9.10746 6.97991 8.87296 6.98719L8.8978 7.78681C9.13769 7.77936 9.37292 7.76931 9.55929 7.75907C9.72752 7.74983 9.89617 7.73873 9.97063 7.72413L9.81668 6.93909ZM8.87296 6.98719C8.21918 7.00751 7.91079 6.9965 7.48132 6.9423L7.38116 7.73601C7.86592 7.79718 8.21901 7.80791 8.89781 7.78681L8.87296 6.98719ZM7.48132 6.9423C6.99834 6.88136 6.24774 6.73348 5.91712 6.6365L5.69196 7.40416C6.07477 7.51645 6.86942 7.67144 7.38116 7.73601L7.48132 6.9423ZM5.91719 6.63652C5.7924 6.5999 5.68109 6.62241 5.60574 6.64944C5.53352 6.67534 5.46977 6.714 5.41849 6.749C5.31568 6.81918 5.18838 6.92724 5.03044 7.0686L5.56397 7.66471C5.72341 7.52201 5.81525 7.44678 5.86951 7.40975C5.89677 7.39114 5.89603 7.39522 5.87581 7.40247C5.85247 7.41084 5.78217 7.43064 5.69189 7.40414L5.91719 6.63652ZM8.55141 12.4561C8.5406 12.4506 8.5487 12.4467 8.56369 12.4826C8.58124 12.5247 8.60001 12.6049 8.60001 12.7386H9.40001C9.40001 12.3644 9.30017 11.9409 8.91631 11.7442L8.55141 12.4561ZM8.60001 12.7386V13.0011H9.40001V12.7386H8.60001ZM8.88612 13.3845L9.15912 13.4656L9.3869 12.6987L9.1139 12.6176L8.88612 13.3845ZM9.15919 13.4656C9.57976 13.5905 10.0158 13.9547 10.1815 14.2939L10.9003 13.9428C10.6277 13.3846 10.0024 12.8814 9.38683 12.6987L9.15919 13.4656ZM10.1815 14.2939C10.2145 14.3615 10.27 14.5323 10.2922 14.651L11.0785 14.5036C11.0461 14.3308 10.9715 14.0885 10.9003 13.9429L10.1815 14.2939ZM10.2922 14.6511C10.3156 14.7754 10.3014 14.8299 10.2954 14.8451C10.293 14.8511 10.291 14.8537 10.2884 14.8563C10.2852 14.8596 10.2754 14.8685 10.2519 14.8795L10.5924 15.6034C10.7917 15.5097 10.9531 15.3568 11.0391 15.1398C11.1204 14.9347 11.1179 14.7136 11.0785 14.5036L10.2922 14.6511ZM10.2519 14.8795C10.2284 14.8906 10.2146 14.8909 10.21 14.8907C10.2054 14.8905 10.2017 14.8895 10.1971 14.8867C10.1894 14.8819 10.153 14.8535 10.1399 14.7642L9.34841 14.8804C9.39011 15.1645 9.53678 15.419 9.77643 15.5671C10.0218 15.7188 10.3213 15.7309 10.5924 15.6034L10.2519 14.8795ZM10.1399 14.7643C10.1157 14.5991 10.0765 14.4419 9.99234 14.2906C9.90832 14.1396 9.79531 14.0231 9.66772 13.9148L9.15016 14.5249C9.24041 14.6014 9.27444 14.6458 9.29328 14.6796C9.312 14.7133 9.33147 14.7648 9.3484 14.8804L10.1399 14.7643ZM9.66773 13.9149C9.21286 13.5289 8.5004 13.4247 7.9075 13.5992L8.13336 14.3667C8.5156 14.2542 8.9361 14.3432 9.15015 14.5249L9.66773 13.9149ZM7.90744 13.5992C7.72079 13.6542 7.53361 13.7639 7.38373 13.8792C7.238 13.9913 7.07993 14.1451 6.98981 14.3178L7.69907 14.6879C7.71216 14.6628 7.76737 14.5934 7.87147 14.5133C7.97143 14.4364 8.07065 14.3851 8.13342 14.3666L7.90744 13.5992ZM6.98983 14.3178C6.9073 14.476 6.88023 14.661 6.88023 14.8151C6.88023 14.9691 6.9073 15.1542 6.98983 15.3123L7.69905 14.9422C7.69938 14.9428 7.69379 14.9314 7.68848 14.9049C7.68342 14.8797 7.68022 14.8486 7.68022 14.8151C7.68022 14.7815 7.68342 14.7504 7.68848 14.7252C7.69379 14.6987 7.69938 14.6873 7.69905 14.6879L6.98983 14.3178ZM6.98981 15.3123C7.12506 15.5715 7.36557 15.7683 7.61478 15.898C7.86861 16.0301 8.17031 16.1133 8.47132 16.1143L8.47397 15.3143C8.31288 15.3138 8.13603 15.2674 7.98406 15.1883C7.82747 15.1068 7.73493 15.0109 7.69907 14.9422L6.98981 15.3123ZM8.4713 16.1143C9.03901 16.1162 9.54265 16.3372 9.8776 16.6597C10.2123 16.9819 10.3607 17.3828 10.2888 17.7679L11.0753 17.9146C11.2063 17.2118 10.9187 16.5515 10.4324 16.0833C9.94636 15.6154 9.24385 15.3169 8.47399 15.3143L8.4713 16.1143ZM10.2888 17.7679C10.1914 18.2904 9.7146 18.796 9.08838 18.9631L9.29465 19.7361C10.1785 19.5002 10.914 18.7791 11.0753 17.9146L10.2888 17.7679ZM9.08834 18.9631L8.89684 19.0143L9.10318 19.7872L9.29469 19.7361L9.08834 18.9631ZM8.60001 19.4007V19.6925H9.40001V19.4007H8.60001ZM8.60001 19.6925C8.60001 19.9035 8.56163 19.9939 8.54324 20.0211C8.53738 20.0298 8.53665 20.0279 8.54067 20.0259C8.54314 20.0246 8.53365 20.0305 8.50143 20.0305V20.8305C8.78303 20.8305 9.03963 20.7154 9.20615 20.4689C9.3544 20.2495 9.40001 19.9709 9.40001 19.6925H8.60001ZM8.50143 20.0305C8.46921 20.0305 8.45972 20.0246 8.46219 20.0259C8.46621 20.0279 8.46548 20.0298 8.45961 20.0211C8.44122 19.9939 8.40284 19.9035 8.40284 19.6925H7.60284C7.60284 19.9709 7.64845 20.2495 7.7967 20.4689C7.96322 20.7154 8.21982 20.8305 8.50143 20.8305V20.0305ZM8.40284 19.6925V19.4007H7.60284V19.6925H8.40284ZM8.11577 19.017L7.89716 18.9527L7.67131 19.7201L7.88992 19.7845L8.11577 19.017ZM7.89718 18.9527C7.42356 18.8133 7.04442 18.5119 6.86823 18.1842L6.16363 18.5631C6.45819 19.1109 7.03008 19.5314 7.6713 19.7201L7.89718 18.9527ZM6.86821 18.1842C6.74018 17.9461 6.69668 17.7629 6.69716 17.6481C6.69739 17.5932 6.70749 17.5644 6.71318 17.5527C6.71747 17.544 6.72093 17.5405 6.72778 17.5364L6.31396 16.8517C6.01603 17.0318 5.89845 17.3406 5.89717 17.6447C5.89593 17.9384 5.99819 18.2555 6.16365 18.5631L6.86821 18.1842ZM6.72776 17.5364C6.77854 17.5057 6.79035 17.5109 6.77911 17.5109C6.76781 17.5109 6.77948 17.5057 6.83001 17.5362L7.24379 16.8515C7.11117 16.7714 6.95651 16.7108 6.77884 16.7109C6.60121 16.7109 6.44659 16.7716 6.31398 16.8517L6.72776 17.5364ZM6.83001 17.5362C6.81425 17.5267 6.82768 17.5288 6.84663 17.5702C6.86411 17.6085 6.87721 17.662 6.87736 17.7214L7.67736 17.7193C7.67655 17.4089 7.54797 17.0353 7.2438 16.8515L6.83001 17.5362ZM6.87736 17.7214C6.87774 17.8611 6.93438 17.9814 6.97342 18.0522C7.01883 18.1346 7.07719 18.2146 7.13827 18.2861C7.25614 18.4241 7.42069 18.5732 7.59595 18.6626L7.95947 17.9499C7.90742 17.9234 7.822 17.8548 7.74663 17.7666C7.71108 17.7249 7.687 17.6896 7.67407 17.6661C7.66773 17.6546 7.66696 17.6512 7.66841 17.6554C7.66924 17.6579 7.67725 17.6811 7.67736 17.7193L6.87736 17.7214ZM7.59596 18.6626C8.01947 18.8786 8.48343 18.939 8.9381 18.8278L8.748 18.0507C8.4887 18.1141 8.22064 18.0831 7.95946 17.9499L7.59596 18.6626ZM8.93809 18.8278C9.12034 18.7832 9.37289 18.6954 9.50975 18.6115L9.09166 17.9294C9.09264 17.9288 9.09003 17.9305 9.08268 17.9342C9.07565 17.9377 9.06617 17.9423 9.0541 17.9476C9.0298 17.9585 8.99921 17.9708 8.96417 17.9838C8.89331 18.0099 8.81468 18.0344 8.748 18.0507L8.93809 18.8278ZM9.50964 18.6115C9.84455 18.4064 10.0642 18.0875 10.1105 17.7269C10.1572 17.3633 10.0214 17.001 9.73117 16.7338L9.18924 17.3222C9.30061 17.4248 9.32869 17.5345 9.31706 17.625C9.30505 17.7185 9.2442 17.836 9.09177 17.9294L9.50964 18.6115ZM9.73121 16.7338C9.58031 16.5948 9.42076 16.4923 9.20717 16.4194C9.00806 16.3515 8.77298 16.3134 8.48058 16.2813L8.39319 17.0765C8.67515 17.1075 8.8372 17.1385 8.94889 17.1766C9.0461 17.2097 9.11102 17.2502 9.18921 17.3222L9.73121 16.7338ZM8.48056 16.2813C8.0854 16.2379 7.8229 16.1762 7.61692 16.0853C7.41771 15.9973 7.24958 15.8723 7.05934 15.6687L6.47473 16.2148C6.72021 16.4776 6.9737 16.6758 7.29383 16.8171C7.60719 16.9555 7.96176 17.0291 8.39321 17.0765L8.48056 16.2813ZM7.05934 15.6687C6.91902 15.5185 6.83676 15.392 6.78687 15.2688C6.73735 15.1465 6.71097 15.0057 6.71097 14.8151H5.91097C5.91097 15.0833 5.94874 15.3304 6.04532 15.569C6.14153 15.8067 6.2873 16.0142 6.47473 16.2148L7.05934 15.6687ZM6.71097 14.8151C6.71097 14.6132 6.73382 14.4956 6.78384 14.368L6.03906 14.0759C5.9454 14.3148 5.91097 14.5349 5.91097 14.8151H6.71097ZM6.78381 14.3681C6.84852 14.2032 6.99072 14.0105 7.19247 13.8361C7.39234 13.6633 7.62542 13.5304 7.84369 13.4656L7.61601 12.6987C7.27196 12.8008 6.94062 12.9963 6.66926 13.2309C6.39978 13.4639 6.16394 13.7577 6.03909 14.0759L6.78381 14.3681ZM7.84374 13.4656L8.11674 13.3845L7.88895 12.6176L7.61595 12.6987L7.84374 13.4656ZM8.40284 13.0011V12.7468H7.60284V13.0011H8.40284ZM8.40284 12.7468C8.40284 12.6001 8.41945 12.524 8.43378 12.4869C8.44335 12.4621 8.44835 12.4611 8.45359 12.4579L8.03989 11.7732C7.68304 11.9888 7.60284 12.3673 7.60284 12.7468H8.40284ZM8.45366 12.4579C8.5027 12.4283 8.51215 12.4335 8.49961 12.4339C8.48759 12.4342 8.49802 12.4287 8.55141 12.4561L8.91631 11.7442C8.78862 11.6787 8.64152 11.6289 8.47422 11.6343C8.30641 11.6396 8.16284 11.6989 8.03983 11.7733L8.45366 12.4579Z" fill="#383F43" mask="url(#path-4-inside-1_2567_172966)"/>
</svg>
