<svg width="22" height="18" viewBox="0 0 22 18" fill="none" xmlns="http://www.w3.org/2000/svg">
<path d="M11.7758 11.4578C11.292 11.9516 10.9357 12.3785 10.8409 12.5655C10.8397 12.5658 10.8391 12.566 10.8391 12.5661C10.8392 12.5661 10.8396 12.5661 10.8406 12.5661C10.8081 12.6304 10.8067 12.6661 10.842 12.6661C10.8592 12.6661 10.8841 12.6579 10.9158 12.6422C10.9158 12.6432 10.9158 12.6438 10.9158 12.6438C10.9159 12.6438 10.9161 12.6432 10.9165 12.6419C11.1395 12.5315 11.6957 12.0572 12.2545 11.4933L13.4167 10.3204M11.7758 11.4578C12.8792 10.332 12.9667 10.1889 13.057 9.36173C13.1692 8.33461 13.661 7.192 14.6407 5.68224M11.7758 11.4578L11.7044 11.3878C11.3772 11.7217 11.1064 12.0268 10.9339 12.25C10.8486 12.3604 10.7834 12.4557 10.7485 12.5266C10.7329 12.5584 10.7148 12.6014 10.7159 12.644C10.7165 12.6683 10.7238 12.7036 10.7535 12.732C10.7828 12.7601 10.8181 12.7661 10.842 12.7661C10.8841 12.7661 10.927 12.7482 10.9602 12.7318C10.9975 12.7134 11.0402 12.6876 11.0865 12.6566C11.1795 12.5944 11.2948 12.5058 11.4241 12.3985C11.683 12.1835 12.0041 11.888 12.3255 11.5637L12.3255 11.5637L13.4562 10.4226M11.7758 11.4578L11.7044 11.3878C12.2589 10.8221 12.5471 10.5137 12.711 10.2456C12.8699 9.98557 12.9127 9.76175 12.9576 9.35087C13.0723 8.30065 13.574 7.1423 14.5568 5.6278L14.6407 5.68224M14.6407 5.68224C15.3198 4.63562 15.3332 4.58679 15.324 3.18235C15.3117 1.32777 15.0855 0.667635 14.3333 0.291986C13.8137 0.0323316 13.1547 0.000499794 8.29667 0.000333135L2.96419 7.3829e-06L3.03205 0.100012M14.6407 5.68224L14.5568 5.6278C14.8988 5.10067 15.0618 4.84064 15.144 4.54011C15.2266 4.23777 15.2286 3.89036 15.224 3.183C15.2178 2.25635 15.1579 1.64207 15.0115 1.21499C14.8682 0.796762 14.642 0.557909 14.2887 0.38145L14.2886 0.381441C14.0484 0.261395 13.7713 0.189042 12.937 0.148735C12.1031 0.108443 10.7266 0.100416 8.29666 0.100333L3.03205 0.100012M3.03205 0.100012L2.9112 0.100004L3.255 0.606638M3.03205 0.100012L3.33774 0.550476L3.255 0.606638M3.255 0.606638L3.66667 1.21311V8.86442C3.66667 15.8218 3.66364 17.0447 4.25514 17.5072C4.38451 17.6083 4.54233 17.6731 4.73483 17.7535M3.255 0.606638L3.33775 0.550486L3.74941 1.15695L3.76667 1.18238V1.21311V8.86442V8.95114C3.76666 13.1372 3.76666 15.2175 3.89779 16.3086C3.96386 16.8585 4.06155 17.1371 4.19411 17.3062C4.32558 17.474 4.49981 17.5469 4.77338 17.6612L4.73483 17.7535M4.73483 17.7535C5.6995 18.1567 6.72033 17.6647 7.02433 16.6504L7.21767 16.0051L11.2338 15.9604L15.25 15.9159M4.73483 17.7535L4.77339 17.6612C5.68198 18.041 6.64118 17.5805 6.92854 16.6217L7.12187 15.9764L7.14299 15.9059L7.21655 15.9051L11.2327 15.8604L15.15 15.817M15.25 15.9159V13.1661V10.4162M15.25 15.9159H15.15V15.817M15.25 15.9159L15.2489 15.8159L15.15 15.817M15.25 10.4162L14.3333 10.3683L13.4167 10.3204M15.25 10.4162L15.2448 10.516L15.15 10.5111M15.25 10.4162H15.15V10.5111M13.4167 10.3204L13.4877 10.3907L13.4562 10.4226M13.4167 10.3204L13.4114 10.4202L13.4562 10.4226M13.4562 10.4226L14.3281 10.4682L14.3281 10.4682L15.15 10.5111M15.15 15.817V13.1661V10.5111M19.9307 6.34411L19.9307 6.34409C20.3074 5.96274 20.5107 5.73783 20.6006 5.5844C20.6445 5.50966 20.6541 5.46361 20.6523 5.43249C20.6505 5.40306 20.6376 5.3714 20.6004 5.32647C20.6004 5.32645 20.6004 5.32644 20.6004 5.32642L20.6773 5.26259L19.9307 6.34411ZM19.9307 6.34411C19.361 6.92105 18.8502 7.27371 18.4923 7.36118C18.2656 7.41648 18.0975 7.47701 17.99 7.56624C17.9337 7.61296 17.893 7.66826 17.8696 7.73418C17.8466 7.79902 17.8427 7.86784 17.8498 7.93881L19.9307 6.34411ZM6.2116 6.70216L6.21167 6.7021C6.23305 6.68074 6.25986 6.67071 6.27334 6.66604C6.29067 6.66005 6.31044 6.65517 6.33088 6.65101C6.37206 6.64264 6.42544 6.63532 6.48772 6.62877C6.61282 6.61563 6.78258 6.60475 6.98148 6.59601C7.37977 6.57852 7.90074 6.56939 8.42777 6.56871C8.95484 6.56803 9.48918 6.57581 9.91425 6.59223C10.1267 6.60044 10.3128 6.61085 10.4574 6.62355C10.5297 6.6299 10.5927 6.6369 10.6439 6.64467L6.2116 6.70216ZM6.2116 6.70216C6.17003 6.74375 6.13249 6.79219 6.1166 6.84725C6.09843 6.91023 6.11132 6.97308 6.15464 7.0242C6.19257 7.06896 6.24892 7.09912 6.30943 7.12155C6.37187 7.1447 6.44995 7.16362 6.54267 7.17947C6.91083 7.24242 7.56895 7.26633 8.58333 7.26633C9.60557 7.26633 10.319 7.23073 10.6949 7.16101M6.2116 6.70216L10.6949 7.16101M10.6684 10.1136C10.6857 10.1417 10.6947 10.1803 10.6798 10.2206C10.6671 10.2549 10.6421 10.2758 10.6252 10.2872C10.5917 10.3099 10.546 10.3242 10.5011 10.3349C10.4065 10.3575 10.2628 10.3752 10.0763 10.3891C9.70098 10.4172 9.13159 10.4312 8.38472 10.4304C7.6108 10.4294 7.05245 10.4156 6.70774 10.388C6.53809 10.3744 6.41073 10.357 6.33483 10.3327C6.3152 10.3264 6.29476 10.3184 6.27648 10.3075C6.26003 10.2977 6.23342 10.2787 6.21844 10.2452C6.20003 10.204 6.20832 10.1629 6.22662 10.1333L10.6684 10.1136ZM10.6684 10.1136C10.6515 10.0862 10.627 10.0695 10.6099 10.0597C10.5912 10.0491 10.5701 10.0406 10.5491 10.0335C10.507 10.0194 10.4537 10.0074 10.3932 9.99695C10.2715 9.9759 10.1076 9.95879 9.91706 9.94523C9.53525 9.91807 9.03687 9.90457 8.5334 9.90457C8.02984 9.90457 7.51916 9.91807 7.11264 9.9452C6.90957 9.95875 6.73089 9.97581 6.59146 9.99658C6.52183 10.0069 6.46035 10.0185 6.40974 10.0314C6.36172 10.0437 6.31418 10.0595 6.27906 10.0822L10.6684 10.1136ZM10.6949 7.16101C10.789 7.14356 10.8676 7.123 10.9264 7.0978M10.6949 7.16101L10.9264 7.0978M10.9264 7.0978C10.9557 7.08521 10.9844 7.06967 11.0082 7.04961M10.9264 7.0978L11.0082 7.04961M11.0082 7.04961C11.032 7.02959 11.057 6.99981 11.0659 6.95854M11.0082 7.04961L11.0659 6.95854M11.0659 6.95854C11.085 6.86966 11.0192 6.80783 10.9774 6.77717M11.0659 6.95854L10.9774 6.77717M10.9774 6.77717C10.9279 6.74081 10.8571 6.7068 10.7712 6.67382L10.9774 6.77717ZM6.96108 17.8228C7.0244 17.8313 7.11672 17.8393 7.23584 17.8467C7.48642 17.8621 7.84652 17.8741 8.28237 17.8827C9.15364 17.9 10.323 17.9039 11.514 17.8962C12.705 17.8886 13.9168 17.8693 14.8728 17.8402C15.3509 17.8257 15.7644 17.8087 16.079 17.7895C16.2364 17.78 16.3684 17.7699 16.4709 17.7594C16.5758 17.7486 16.6436 17.738 16.6768 17.7288M6.96108 17.8228L17.8333 16.6287C17.8333 16.3514 17.5103 16.3326 12.757 16.3326H7.68067M6.96108 17.8228C6.98134 17.7763 7.01051 17.7155 7.04693 17.6439C7.12266 17.4949 7.22758 17.3035 7.34328 17.1061L7.73797 16.4326M6.96108 17.8228L7.68067 16.3326M16.6768 17.7288L16.7035 17.8252L16.6767 17.7288C16.6767 17.7288 16.6767 17.7288 16.6768 17.7288ZM16.6768 17.7288C16.9836 17.6436 17.25 17.4801 17.4385 17.2805C17.6275 17.0804 17.7333 16.8496 17.7333 16.6287C17.7333 16.6031 17.7294 16.5955 17.7271 16.592C17.7244 16.5881 17.7137 16.5748 17.6723 16.5586C17.5845 16.5244 17.411 16.4963 17.0718 16.4765C16.4006 16.4373 15.1354 16.4326 12.757 16.4326H7.73797M7.73797 16.4326L7.76694 16.3831L7.68067 16.3326M7.73797 16.4326H7.68067V16.3326M0.84353 0.347713L0.843534 0.347711C1.12924 0.192651 1.34709 0.121248 1.56046 0.120123C1.7741 0.118996 1.99626 0.188234 2.29074 0.340485C2.51357 0.455759 2.70981 0.622852 2.84951 0.803049C2.98066 0.97221 3.05565 1.14441 3.06554 1.28977C3.05737 1.2934 3.04614 1.29774 3.03112 1.30248C2.97093 1.32149 2.87534 1.33931 2.74241 1.35422C2.47829 1.38385 2.0868 1.39993 1.58333 1.39993C1.07986 1.39993 0.688375 1.38385 0.424252 1.35422C0.291323 1.33931 0.195732 1.32149 0.135546 1.30248C0.120559 1.29775 0.109341 1.29342 0.101176 1.28979C0.111155 1.14926 0.184395 0.97843 0.311077 0.809314C0.446212 0.628914 0.634329 0.461241 0.84353 0.347713ZM19.5691 3.82701C19.569 3.82705 19.569 3.82711 19.569 3.82717L19.5691 3.82701ZM16.8438 3.82432C16.8716 3.84213 16.9062 3.8816 16.965 3.95997L17.831 8.0137C17.8139 8.05023 17.7856 8.09367 17.7445 8.14351C17.6622 8.24326 17.5375 8.3585 17.3792 8.48291C17.0633 8.73117 16.6265 9.0058 16.1638 9.25455C15.7014 9.50322 15.2171 9.72394 14.8073 9.86569C14.6022 9.93662 14.4183 9.98688 14.2666 10.0115C14.1705 10.0271 14.093 10.0313 14.0335 10.0269C14.0525 9.99771 14.0783 9.96142 14.1117 9.91772C14.2219 9.77325 14.4012 9.56457 14.6427 9.29962C15.125 8.77047 15.8491 8.02406 16.7495 7.1324C17.5718 6.31822 18.3197 5.54861 18.8624 4.96435C19.1336 4.67236 19.3543 4.42583 19.5076 4.2428C19.5841 4.15149 19.645 4.07456 19.6873 4.01496C19.7083 3.98534 19.726 3.95809 19.739 3.93434C19.7454 3.92248 19.7517 3.90977 19.7565 3.89687C19.7607 3.88537 19.7667 3.86665 19.7667 3.84482C19.7667 3.82064 19.7582 3.77818 19.7167 3.75149C19.6821 3.72925 19.647 3.73354 19.6331 3.73602C19.6033 3.74136 19.5741 3.75713 19.553 3.76959C19.5053 3.79777 19.44 3.84601 19.3614 3.90895C19.2026 4.0362 18.9748 4.23577 18.6956 4.49117C18.1367 5.00253 17.3666 5.74266 16.52 6.58827C15.2967 7.81015 14.5244 8.56097 14.0474 8.97754C13.8073 9.18719 13.6486 9.30616 13.548 9.35945C13.5236 9.37239 13.5049 9.38023 13.4909 9.38461C13.4905 9.38473 13.4901 9.38484 13.4898 9.38496C13.4723 9.3243 13.468 9.23591 13.4831 9.11701C13.4998 8.98546 13.539 8.82632 13.5993 8.64417C13.7198 8.28005 13.9211 7.83411 14.1805 7.35087C14.6992 6.3846 15.4444 5.28007 16.2212 4.39927C16.3789 4.22047 16.4977 4.08746 16.5916 3.99215C16.6875 3.89471 16.7485 3.84611 16.7902 3.82597C16.8092 3.81686 16.8191 3.81614 16.8234 3.81631C16.827 3.81645 16.8329 3.81737 16.8438 3.82432ZM6.14727 5.50725L6.14736 5.50728C6.21503 5.53324 6.3235 5.54951 6.44957 5.56075C6.57939 5.57233 6.73955 5.57941 6.91794 5.5827C7.27494 5.58927 7.70974 5.58071 8.13055 5.56135C8.55118 5.542 8.95992 5.51175 9.26454 5.47465C9.41627 5.45617 9.54529 5.43562 9.63782 5.4131C9.6833 5.40203 9.72522 5.38926 9.75775 5.37371C9.7737 5.36608 9.79296 5.35521 9.80963 5.33947C9.826 5.324 9.85 5.29385 9.85 5.24975C9.85 5.20945 9.8307 5.17946 9.81345 5.16115C9.7967 5.14337 9.77685 5.13086 9.75983 5.12193C9.72554 5.10394 9.68149 5.08968 9.63417 5.07766C9.53793 5.05321 9.40422 5.03225 9.24782 5.01444C8.93373 4.97869 8.51368 4.95413 8.08507 4.94301C7.65629 4.93188 7.2164 4.93413 6.86237 4.95246C6.68554 4.96161 6.52841 4.97486 6.40408 4.99281C6.34198 5.00177 6.28642 5.01213 6.23987 5.02425C6.19535 5.03583 6.15109 5.05097 6.11711 5.07291C6.0636 5.10742 6.01741 5.13915 5.98436 5.1689C5.95714 5.1934 5.90971 5.24124 5.91286 5.30946C5.91621 5.38231 5.97323 5.42307 6.00432 5.44208C6.0413 5.4647 6.09127 5.48571 6.14727 5.50725ZM10.4711 8.87641C10.9625 8.8545 11.3758 8.82082 11.6036 8.77369L11.6812 8.7548C11.7016 8.74874 11.7246 8.74069 11.7441 8.72911C11.7535 8.72352 11.7691 8.71304 11.7822 8.69561C11.797 8.67576 11.8108 8.64288 11.8009 8.60396C11.7924 8.5701 11.7703 8.55034 11.7586 8.54152C11.7458 8.53189 11.7326 8.5258 11.723 8.52192C11.6873 8.50763 11.6336 8.49848 11.5734 8.49118C11.5095 8.48343 11.4266 8.47656 11.3253 8.47047C10.9208 8.44613 10.202 8.43293 9.16691 8.43044C8.23632 8.42818 7.49656 8.44055 7.01386 8.46441C6.77366 8.47628 6.59291 8.49117 6.4836 8.50934C6.45599 8.51393 6.431 8.51903 6.40978 8.5249C6.39111 8.53006 6.3658 8.53826 6.34439 8.55291C6.3337 8.56021 6.31473 8.57528 6.30285 8.60122C6.28847 8.63262 6.29035 8.66709 6.30475 8.69557C6.31664 8.71911 6.3342 8.73318 6.34436 8.74027C6.35565 8.74815 6.36732 8.7539 6.3772 8.75814C6.44601 8.7877 6.56745 8.80893 6.71374 8.8261C6.8649 8.84385 7.0566 8.85861 7.27561 8.87049C7.71388 8.89425 8.26612 8.90671 8.83163 8.90776C9.39722 8.9088 9.97723 8.89843 10.4711 8.87641Z" stroke="#383F43" stroke-width="0.2"/>
</svg>
