<svg width="24" height="27" viewBox="0 0 24 27" fill="none" xmlns="http://www.w3.org/2000/svg">
<path fill-rule="evenodd" clip-rule="evenodd" d="M4.27627 10.6932C4.65587 11.9662 5.3465 13.1247 6.28582 14.064L15.3383 23.1165C15.7288 23.507 16.362 23.507 16.7525 23.1165L23.1164 16.7525C23.507 16.362 23.507 15.7288 23.1164 15.3383L13.8851 6.10693C13.0632 5.28502 12.0496 4.68072 10.9357 4.34857L6.86769 3.13551C4.58244 2.45405 2.45405 4.58245 3.1355 6.86769L4.27627 10.6932ZM8.16255 10.1764C8.22855 10.3518 8.34546 10.5234 8.51328 10.6912C8.6811 10.859 8.85269 10.9759 9.02805 11.0419C9.20718 11.1079 9.3882 11.1173 9.57111 11.0702C9.7559 11.0212 9.93786 10.9127 10.117 10.7449C10.2018 10.6676 10.2839 10.5893 10.3631 10.5102C10.4423 10.431 10.5215 10.348 10.6007 10.2612C10.7666 10.084 10.8722 9.90298 10.9174 9.71819C10.9627 9.5334 10.9533 9.3505 10.8892 9.16948C10.825 8.98846 10.7119 8.81687 10.5497 8.6547C10.3876 8.49254 10.216 8.3794 10.035 8.31529C9.85584 8.25307 9.67387 8.24458 9.48908 8.28984C9.30429 8.33509 9.12327 8.44069 8.94602 8.60662C8.86117 8.6877 8.77915 8.76784 8.69995 8.84704C8.62076 8.92623 8.54156 9.00731 8.46236 9.09028C8.29454 9.26941 8.18612 9.45138 8.13709 9.63617C8.08995 9.81907 8.09844 9.99915 8.16255 10.1764ZM9.24584 10.5582C9.09687 10.5526 8.96111 10.4885 8.83854 10.3659C8.71786 10.2452 8.6547 10.1104 8.64904 9.96144C8.64527 9.81059 8.72258 9.65031 8.88097 9.4806C8.96205 9.39575 9.03748 9.31844 9.10724 9.24867C9.1789 9.17702 9.25621 9.10159 9.33918 9.0224C9.45231 8.9168 9.56074 8.84798 9.66445 8.81592C9.77193 8.78387 9.87186 8.78387 9.96426 8.81592C10.0585 8.84609 10.1453 8.90078 10.2245 8.97997C10.3056 9.06105 10.3612 9.14874 10.3914 9.24302C10.4234 9.33541 10.4225 9.43441 10.3885 9.54C10.3584 9.6456 10.2905 9.75496 10.1849 9.8681C10.1076 9.95295 10.0331 10.0312 9.96143 10.1029C9.89166 10.1726 9.81341 10.2471 9.72667 10.3263C9.55696 10.4847 9.39669 10.562 9.24584 10.5582ZM9.78695 11.8687C9.78695 11.8951 9.79638 11.9177 9.81524 11.9366L10.0641 12.1855C10.0849 12.2062 10.1084 12.2166 10.1348 12.2166C10.1612 12.2166 10.1839 12.2071 10.2027 12.1883L10.9042 11.4868L11.7555 12.3382C11.7763 12.3589 11.7998 12.3693 11.8262 12.3693C11.8526 12.3693 11.8753 12.3599 11.8941 12.341L12.0921 12.143C12.1129 12.1223 12.1232 12.0987 12.1232 12.0723C12.1232 12.0459 12.1129 12.0224 12.0921 12.0016L11.2408 11.1503L11.7782 10.6129L12.6861 11.5208C12.7068 11.5415 12.7295 11.5528 12.754 11.5547C12.7804 11.5547 12.8039 11.5444 12.8247 11.5236L13.0227 11.3256C13.0434 11.3049 13.0538 11.2813 13.0538 11.2549C13.0538 11.2285 13.0434 11.2049 13.0227 11.1842L11.7951 9.95666C11.7763 9.93781 11.7537 9.92838 11.7273 9.92838C11.7009 9.92838 11.6773 9.93875 11.6565 9.95949L9.81524 11.8008C9.79638 11.8197 9.78695 11.8423 9.78695 11.8687ZM11.4857 13.5674C11.4857 13.5938 11.4951 13.6164 11.5139 13.6353L11.7629 13.8842C11.7836 13.9049 11.8072 13.9153 11.8336 13.9153C11.86 13.9153 11.8826 13.9059 11.9014 13.887L12.6029 13.1856L13.4543 14.0369C13.475 14.0577 13.4986 14.068 13.525 14.068C13.5514 14.068 13.574 14.0586 13.5928 14.0397L13.7908 13.8418C13.8116 13.821 13.8219 13.7974 13.8219 13.771C13.8219 13.7446 13.8116 13.7211 13.7908 13.7003L12.9395 12.849L13.4769 12.3116L14.3848 13.2195C14.4055 13.2402 14.4282 13.2516 14.4527 13.2534C14.4791 13.2534 14.5027 13.2431 14.5234 13.2223L14.7214 13.0243C14.7421 13.0036 14.7525 12.98 14.7525 12.9536C14.7525 12.9272 14.7421 12.9037 14.7214 12.8829L13.4938 11.6554C13.475 11.6365 13.4524 11.6271 13.426 11.6271C13.3996 11.6271 13.376 11.6375 13.3553 11.6582L11.5139 13.4995C11.4951 13.5184 11.4857 13.541 11.4857 13.5674ZM13.1844 15.2661C13.1844 15.2925 13.1938 15.3151 13.2127 15.334L14.4798 16.6011C14.5005 16.6219 14.5241 16.6322 14.5505 16.6322C14.5769 16.6322 14.5995 16.6228 14.6184 16.604L14.8051 16.4173C14.8258 16.3965 14.8362 16.373 14.8362 16.3466C14.8362 16.3202 14.8258 16.2966 14.8051 16.2759L13.8519 15.3227L14.3695 14.8051L15.2378 15.6734C15.2586 15.6941 15.2812 15.7055 15.3057 15.7073C15.3321 15.7073 15.3557 15.697 15.3764 15.6762L15.5518 15.5009C15.5725 15.4801 15.5819 15.4575 15.5801 15.433C15.5801 15.4066 15.5697 15.383 15.5489 15.3623L14.6806 14.4939L15.1812 13.9933L16.1118 14.9239C16.1325 14.9446 16.1561 14.955 16.1825 14.955C16.2089 14.955 16.2315 14.9456 16.2504 14.9267L16.4371 14.74C16.4578 14.7193 16.4682 14.6957 16.4682 14.6693C16.4682 14.6429 16.4578 14.6193 16.4371 14.5986L15.1926 13.3541C15.1737 13.3352 15.1511 13.3258 15.1247 13.3258C15.0983 13.3258 15.0747 13.3362 15.054 13.3569L13.2127 15.1982C13.1938 15.2171 13.1844 15.2397 13.1844 15.2661ZM14.9439 17.0256C14.9439 17.052 14.9533 17.0746 14.9721 17.0935L15.2295 17.3509C15.2503 17.3716 15.2729 17.381 15.2974 17.3791C15.3238 17.3791 15.3464 17.3697 15.3653 17.3509L16.0441 16.672L16.4373 17.0652L16.1318 18.1004C16.1243 18.1268 16.1205 18.157 16.1205 18.1909C16.1205 18.2248 16.1365 18.2578 16.1686 18.2899L16.426 18.5473C16.441 18.5624 16.4599 18.5699 16.4825 18.5699C16.507 18.5718 16.5278 18.5643 16.5447 18.5473C16.5542 18.5379 16.5617 18.5247 16.5674 18.5077L16.8757 17.3735C17.0322 17.447 17.1906 17.4715 17.3509 17.447C17.513 17.4244 17.6639 17.3433 17.8034 17.2038C18.0052 17.002 18.0928 16.7823 18.0664 16.5448C18.04 16.3072 17.9128 16.0743 17.6846 15.8461L16.952 15.1136C16.9332 15.0947 16.9106 15.0853 16.8842 15.0853C16.8578 15.0853 16.8342 15.0957 16.8134 15.1164L14.9721 16.9577C14.9533 16.9766 14.9439 16.9992 14.9439 17.0256ZM16.7625 16.7512L16.3637 16.3524L16.9634 15.7528L17.3622 16.1516C17.4791 16.2685 17.5375 16.3816 17.5375 16.491C17.5413 16.6004 17.496 16.7022 17.4018 16.7965C17.3075 16.8908 17.2057 16.936 17.0963 16.9322C16.9888 16.9266 16.8776 16.8663 16.7625 16.7512Z" fill="white"/>
<path d="M15.2031 23.6886L5.30356 13.7891L10.0083 24.402C10.2148 24.868 10.7388 25.104 11.2247 24.95L15.2031 23.6886Z" fill="white"/>
</svg>
