<svg width="20" height="23" viewBox="0 0 20 23" fill="none" xmlns="http://www.w3.org/2000/svg">
<rect x="15.9807" y="9.29318" width="2.3884" height="0.54581" rx="0.272905" transform="rotate(-30.5167 15.9807 9.29318)" stroke="white" stroke-width="0.2"/>
<rect x="14.5036" y="7.84124" width="2.3884" height="0.54581" rx="0.272905" transform="rotate(-65.4369 14.5036 7.84124)" stroke="white" stroke-width="0.2"/>
<rect x="17.1084" y="11.333" width="2.3884" height="0.54581" rx="0.272905" transform="rotate(-5.04396 17.1084 11.333)" stroke="white" stroke-width="0.2"/>
<path fill-rule="evenodd" clip-rule="evenodd" d="M7.09175 0.0495612C6.79001 0.160927 6.49934 0.413354 6.17716 0.843768C5.63738 1.56493 5.5499 1.63267 5.3143 1.51174C5.25986 1.4838 5.03994 1.3324 4.82559 1.17535C4.25258 0.755538 3.95651 0.664477 3.66063 0.817038C3.21412 1.04727 3.0631 1.80783 3.31008 2.58223C3.53027 3.27262 4.14153 4.29476 4.8629 5.17891C5.47878 5.93372 5.48549 5.93848 6.19017 6.11737C7.75573 6.5149 9.11482 6.5534 10.3825 6.23619C11.0778 6.0622 11.2024 5.99463 11.4624 5.65061C12.1946 4.6821 12.9148 3.16718 13.1219 2.16003C13.3113 1.23887 13.2354 1.01277 12.6797 0.842645C11.444 0.464342 10.6159 0.739365 9.70007 1.83214L9.43061 2.1537L9.2493 1.95545C9.14959 1.84647 8.96602 1.58061 8.84137 1.3647C8.39827 0.597227 8.17309 0.293183 7.94378 0.152661C7.69082 -0.00232573 7.34553 -0.0441497 7.09175 0.0495612ZM5.29721 7.36665C3.41677 9.04954 1.55424 11.969 0.659919 14.6354C-0.198326 17.1941 -0.219448 19.2802 0.596599 20.8892C0.818242 21.3263 0.985902 21.5642 1.3147 21.9084C1.82624 22.4439 2.48968 22.7961 3.22672 22.9235C3.83001 23.0278 13.0569 23.0244 13.5682 22.9197C14.5723 22.7142 15.4983 22.0615 16.1381 21.1086C16.9579 19.8875 17.1772 18.573 16.8627 16.7641C16.4235 14.237 15.0308 11.3209 13.1428 8.97497C12.6467 8.35857 11.3162 6.99774 11.2108 6.99899C11.179 6.9994 11.1241 7.01782 11.0888 7.03996C11.0351 7.0737 11.0452 7.1374 11.1515 7.43237C11.4981 8.39361 12.1782 9.56715 12.7485 10.1879C13.1102 10.5817 13.17 10.6761 13.17 10.8538C13.17 11.0657 12.9229 11.3111 12.7099 11.3107C12.5096 11.3103 12.3845 11.2209 12.0186 10.8168C11.6409 10.3997 11.1714 9.7216 10.8583 9.14064L10.6207 8.69985L10.4042 9.14756C10.1813 9.6087 9.89547 10.0595 9.73638 10.2011C9.4864 10.4234 9.0636 10.2804 8.9793 9.945C8.93134 9.75412 8.92586 9.76693 9.3521 9.07577C9.58118 8.70443 9.78936 8.19756 9.95245 7.61423L10.0395 7.30304L9.89366 7.33161C9.81348 7.34733 9.35976 7.37227 8.88538 7.387C8.21909 7.40771 7.88835 7.39684 7.43124 7.33916C6.93388 7.2764 6.16125 7.12496 5.80454 7.02033C5.73551 7.00007 5.61458 7.0826 5.29721 7.36665ZM8.73386 12.1001C8.90977 12.1903 9.00001 12.4068 9.00001 12.7386V13.0011L9.27301 13.0822C9.79109 13.2359 10.3218 13.6697 10.5409 14.1184C10.593 14.225 10.658 14.4315 10.6854 14.5773C10.7481 14.9117 10.6622 15.1286 10.4222 15.2415C10.1103 15.3881 9.79897 15.1956 9.74417 14.8223C9.70302 14.5416 9.62678 14.4047 9.40894 14.2199C9.07448 13.9361 8.508 13.8394 8.02043 13.9829C7.771 14.0564 7.44765 14.3051 7.34444 14.5029C7.25882 14.6669 7.25882 14.9632 7.34444 15.1272C7.51555 15.4552 8.01055 15.7128 8.47265 15.7143C9.81021 15.7188 10.8849 16.7534 10.6821 17.8412C10.5527 18.5347 9.94655 19.1481 9.19151 19.3496L9.00001 19.4007V19.6925C9.00001 20.1819 8.83204 20.4305 8.50143 20.4305C8.17082 20.4305 8.00284 20.1819 8.00284 19.6925V19.4007L7.78424 19.3364C7.22682 19.1723 6.75131 18.8114 6.51593 18.3736C6.22244 17.828 6.22439 17.3732 6.52087 17.194C6.70426 17.0832 6.85374 17.0832 7.0369 17.1939C7.17977 17.2802 7.27677 17.4926 7.27736 17.7204C7.27777 17.871 7.5504 18.1903 7.77771 18.3063C8.12006 18.4809 8.48606 18.5266 8.84305 18.4392C9.0098 18.3984 9.21576 18.3225 9.3007 18.2705C9.78805 17.9719 9.86179 17.3978 9.46021 17.028C9.23113 16.817 9.01125 16.742 8.43688 16.6789C7.61028 16.5881 7.20275 16.4082 6.76703 15.9417C6.43928 15.5909 6.31097 15.2739 6.31097 14.8151C6.31097 14.5741 6.33961 14.4052 6.41145 14.222C6.60101 13.7389 7.16753 13.2491 7.72985 13.0822L8.00284 13.0011V12.7468C8.00284 12.4075 8.07573 12.2189 8.24674 12.1156C8.4188 12.0116 8.55278 12.0073 8.73386 12.1001Z" fill="white"/>
</svg>
