<svg width="24" height="27" viewBox="0 0 24 27" fill="none" xmlns="http://www.w3.org/2000/svg">
<path d="M15.2031 23.6886L5.30356 13.7891L10.0083 24.402C10.2148 24.868 10.7388 25.104 11.2247 24.95L15.2031 23.6886Z" stroke="black" stroke-width="0.2"/>
<path d="M4.27627 10.6932L4.18043 10.7218L4.27627 10.6932ZM3.1355 6.86769L3.03967 6.89627L3.1355 6.86769ZM6.86769 3.13551L6.89626 3.03968L6.86769 3.13551ZM10.9357 4.34857L10.9643 4.25274L10.9357 4.34857ZM8.16324 10.1771L8.0692 10.2111L8.06965 10.2123L8.16324 10.1771ZM8.13778 9.63686L8.04113 9.61121L8.04095 9.6119L8.13778 9.63686ZM8.46305 9.09097L8.39071 9.02192L8.39008 9.0226L8.46305 9.09097ZM8.94672 8.60731L8.87837 8.5343L8.87763 8.53501L8.94672 8.60731ZM10.0357 8.31598L10.069 8.22172L10.0685 8.22152L10.0357 8.31598ZM10.8898 9.17017L10.9841 9.13678L10.8898 9.17017ZM10.9181 9.71888L10.821 9.6951L10.821 9.6951L10.9181 9.71888ZM10.6013 10.2619L10.5283 10.1936L10.5275 10.1945L10.6013 10.2619ZM10.1177 10.7456L10.0503 10.6717L10.0493 10.6726L10.1177 10.7456ZM9.5718 11.0709L9.59676 11.1677L9.59744 11.1675L9.5718 11.0709ZM9.02874 11.0426L8.99352 11.1362L8.99417 11.1364L9.02874 11.0426ZM9.24653 10.5589L9.24273 10.6589L9.24403 10.6589L9.24653 10.5589ZM9.72736 10.327L9.65993 10.2531L9.65913 10.2539L9.72736 10.327ZM10.1856 9.86879L10.1125 9.80055L10.1116 9.80144L10.1856 9.86879ZM10.3892 9.54069L10.294 9.51007L10.2931 9.51322L10.3892 9.54069ZM10.392 9.24371L10.2968 9.27419L10.2976 9.27648L10.392 9.24371ZM9.96495 8.81661L9.93216 8.91112L9.93447 8.91186L9.96495 8.81661ZM9.66514 8.81661L9.63655 8.72078L9.6356 8.72107L9.66514 8.81661ZM9.33987 9.02309L9.27163 8.94998L9.27082 8.95075L9.33987 9.02309ZM8.88166 9.48129L8.80936 9.4122L8.80856 9.41306L8.88166 9.48129ZM8.64973 9.96213L8.54975 9.96463L8.5498 9.96592L8.64973 9.96213ZM9.78764 11.8694L9.88764 11.8694L9.88764 11.8694L9.78764 11.8694ZM11.7279 9.92907L11.7279 10.0291H11.7279L11.7279 9.92907ZM13.0545 11.2556L12.9545 11.2556V11.2556L13.0545 11.2556ZM12.7547 11.5554L12.747 11.6554L12.7547 11.6554L12.7547 11.5554ZM11.7789 10.6135L11.8496 10.5428L11.7789 10.4721L11.7081 10.5428L11.7789 10.6135ZM11.2415 11.1509L11.1707 11.0802L11.1 11.1509L11.1707 11.2217L11.2415 11.1509ZM12.1239 12.073L12.0239 12.073V12.073L12.1239 12.073ZM11.8269 12.37L11.8269 12.27L11.8269 12.27L11.8269 12.37ZM10.9049 11.4875L10.9756 11.4168L10.9049 11.3461L10.8342 11.4168L10.9049 11.4875ZM10.1355 12.2173L10.1355 12.1173L10.1355 12.1173L10.1355 12.2173ZM11.4864 13.5681L11.5864 13.5681L11.5864 13.5681L11.4864 13.5681ZM13.4267 11.6278L13.4267 11.7278H13.4267L13.4267 11.6278ZM14.7532 12.9543L14.6532 12.9543V12.9543L14.7532 12.9543ZM14.4534 13.2541L14.4457 13.3541L14.4534 13.3541L14.4534 13.2541ZM13.4776 12.3123L13.5483 12.2416L13.4776 12.1708L13.4069 12.2416L13.4776 12.3123ZM12.9402 12.8497L12.8695 12.779L12.7987 12.8497L12.8695 12.9204L12.9402 12.8497ZM13.8226 13.7717L13.7226 13.7717V13.7717L13.8226 13.7717ZM13.5257 14.0687L13.5257 13.9687L13.5257 13.9687L13.5257 14.0687ZM12.6036 13.1862L12.6743 13.1155L12.6036 13.0448L12.5329 13.1155L12.6036 13.1862ZM11.8343 13.916L11.8343 13.816L11.8343 13.816L11.8343 13.916ZM13.1851 15.2668L13.2851 15.2668L13.2851 15.2668L13.1851 15.2668ZM15.1254 13.3265L15.1254 13.4265H15.1254L15.1254 13.3265ZM16.4689 14.67L16.5689 14.67L16.5689 14.67L16.4689 14.67ZM15.1819 13.994L15.2526 13.9233L15.1819 13.8526L15.1112 13.9233L15.1819 13.994ZM14.6813 14.4946L14.6106 14.4239L14.5399 14.4946L14.6106 14.5653L14.6813 14.4946ZM15.5807 15.4337L15.4805 15.4337L15.481 15.4413L15.5807 15.4337ZM15.3064 15.708L15.2987 15.808L15.3064 15.808L15.3064 15.708ZM15.2385 15.6741L15.3092 15.6034L15.2385 15.6741ZM14.3702 14.8058L14.4409 14.7351L14.3702 14.6643L14.2995 14.7351L14.3702 14.8058ZM13.8526 15.3234L13.7819 15.2527L13.7112 15.3234L13.7819 15.3941L13.8526 15.3234ZM14.8369 16.3473L14.7369 16.3473V16.3473L14.8369 16.3473ZM14.5512 16.6329L14.5512 16.5329H14.5512L14.5512 16.6329ZM16.8849 15.086L16.8849 14.986L16.8849 14.986L16.8849 15.086ZM17.3515 17.4477L17.3377 17.3487L17.3364 17.3489L17.3515 17.4477ZM16.8764 17.3742L16.9189 17.2837L16.8111 17.233L16.7799 17.3479L16.8764 17.3742ZM16.5681 18.5084L16.6631 18.54L16.6646 18.5346L16.5681 18.5084ZM16.4832 18.5706L16.4909 18.4706H16.4832L16.4832 18.5706ZM16.1212 18.1916L16.0212 18.1916L16.0212 18.1916L16.1212 18.1916ZM16.1325 18.1011L16.0366 18.0728L16.0363 18.0736L16.1325 18.1011ZM16.438 17.0659L16.5339 17.0942L16.5507 17.0372L16.5087 16.9952L16.438 17.0659ZM16.0448 16.6727L16.1155 16.602L16.0448 16.5313L15.9741 16.602L16.0448 16.6727ZM15.366 17.3515L15.2953 17.2808L15.366 17.3515ZM15.2981 17.3798L15.2981 17.2795L15.2904 17.2801L15.2981 17.3798ZM16.3644 16.3531L16.2937 16.2824L16.223 16.3531L16.2937 16.4238L16.3644 16.3531ZM17.097 16.9329L17.0917 17.0328L17.0935 17.0329L17.097 16.9329ZM17.5382 16.4917L17.4382 16.4917L17.4383 16.4952L17.5382 16.4917ZM16.964 15.7535L17.0348 15.6828L16.964 15.6121L16.8933 15.6828L16.964 15.7535ZM4.18043 10.7218C4.56479 12.0107 5.26405 13.1836 6.21511 14.1347L6.35653 13.9933C5.42895 13.0657 4.74696 11.9218 4.3721 10.6647L4.18043 10.7218ZM3.03967 6.89627L4.18043 10.7218L4.3721 10.6647L3.23133 6.83912L3.03967 6.89627ZM6.89626 3.03968C4.53484 2.33551 2.3355 4.53485 3.03967 6.89627L3.23133 6.83912C2.57259 4.63005 4.63004 2.5726 6.83911 3.23134L6.89626 3.03968ZM10.9643 4.25274L6.89626 3.03968L6.83911 3.23134L10.9071 4.4444L10.9643 4.25274ZM13.9558 6.03622C13.1222 5.20257 12.094 4.58964 10.9643 4.25274L10.9071 4.4444C12.0051 4.77181 13.0042 5.36748 13.8144 6.17764L13.9558 6.03622ZM23.1872 15.2676L13.9558 6.03622L13.8144 6.17764L23.0457 15.409L23.1872 15.2676ZM23.1872 16.8232C23.6167 16.3936 23.6167 15.6971 23.1872 15.2676L23.0457 15.409C23.3972 15.7605 23.3972 16.3303 23.0457 16.6818L23.1872 16.8232ZM16.8232 23.1872L23.1872 16.8232L23.0457 16.6818L16.6818 23.0457L16.8232 23.1872ZM15.2676 23.1872C15.6971 23.6167 16.3936 23.6167 16.8232 23.1872L16.6818 23.0457C16.3303 23.3972 15.7605 23.3972 15.409 23.0457L15.2676 23.1872ZM6.21511 14.1347L15.2676 23.1872L15.409 23.0457L6.35653 13.9933L6.21511 14.1347ZM8.06965 10.2123C8.14181 10.404 8.26796 10.5873 8.44326 10.7626L8.58468 10.6212C8.42433 10.4608 8.31667 10.3009 8.25683 10.1419L8.06965 10.2123ZM8.04095 9.6119C7.9888 9.81425 7.99823 10.0149 8.0692 10.2111L8.25728 10.1431C8.20003 9.9848 8.19249 9.82527 8.23462 9.66182L8.04095 9.6119ZM8.39008 9.0226C8.21408 9.21047 8.09543 9.40654 8.04113 9.61121L8.23444 9.6625C8.27819 9.49759 8.37639 9.32974 8.53603 9.15934L8.39008 9.0226ZM8.62993 8.77702C8.55017 8.85677 8.47044 8.93841 8.39072 9.02192L8.53539 9.16002C8.61406 9.0776 8.69272 8.99707 8.77135 8.91844L8.62993 8.77702ZM8.87763 8.53501C8.79225 8.61659 8.70969 8.69726 8.62993 8.77702L8.77135 8.91844C8.84999 8.8398 8.93147 8.76019 9.0158 8.67961L8.87763 8.53501ZM9.46599 8.1934C9.26052 8.24371 9.06477 8.35981 8.87837 8.53431L9.01506 8.68031C9.18316 8.52294 9.34944 8.42785 9.51356 8.38766L9.46599 8.1934ZM10.0685 8.22152C9.87106 8.15294 9.66944 8.14357 9.46599 8.1934L9.51356 8.38766C9.67969 8.34697 9.84199 8.35457 10.0028 8.41045L10.0685 8.22152ZM10.6211 8.58468C10.4505 8.41401 10.2666 8.29168 10.069 8.22172L10.0023 8.41025C10.1668 8.46851 10.3261 8.57245 10.4797 8.7261L10.6211 8.58468ZM10.9841 9.13678C10.9142 8.93926 10.7918 8.75536 10.6211 8.58468L10.4797 8.7261C10.6334 8.87976 10.7373 9.03904 10.7956 9.20355L10.9841 9.13678ZM11.0153 9.74267C11.0652 9.53876 11.0547 9.33599 10.9841 9.13678L10.7956 9.20355C10.8533 9.36639 10.8616 9.52942 10.821 9.6951L11.0153 9.74267ZM10.6743 10.3303C10.8488 10.1439 10.9649 9.94813 11.0153 9.74267L10.821 9.6951C10.7808 9.85922 10.6857 10.0255 10.5283 10.1936L10.6743 10.3303ZM10.4345 10.5816C10.5148 10.5012 10.595 10.4172 10.6752 10.3294L10.5275 10.1945C10.4493 10.2802 10.3711 10.3621 10.293 10.4401L10.4345 10.5816ZM10.185 10.8195C10.271 10.7412 10.3541 10.6619 10.4345 10.5816L10.293 10.4401C10.215 10.5182 10.1341 10.5954 10.0503 10.6717L10.185 10.8195ZM9.59744 11.1675C9.80211 11.1132 9.99819 10.9946 10.1861 10.8186L10.0493 10.6726C9.87891 10.8323 9.71106 10.9305 9.54615 10.9742L9.59744 11.1675ZM8.99417 11.1364C9.19216 11.2094 9.39394 11.22 9.59675 11.1677L9.54684 10.974C9.38385 11.016 9.22359 11.0078 9.06331 10.9488L8.99417 11.1364ZM8.44326 10.7626C8.61855 10.9379 8.80178 11.064 8.99352 11.1362L9.06396 10.949C8.90497 10.8892 8.74502 10.7815 8.58468 10.6212L8.44326 10.7626ZM9.25032 10.459C9.13061 10.4545 9.01779 10.4037 8.90995 10.2959L8.76852 10.4373C8.90582 10.5746 9.06452 10.6521 9.24273 10.6589L9.25032 10.459ZM9.65913 10.2539C9.49852 10.4038 9.36257 10.4618 9.24903 10.459L9.24403 10.6589C9.43218 10.6636 9.61679 10.567 9.79559 10.4001L9.65913 10.2539ZM9.89141 10.0328C9.82289 10.1014 9.74576 10.1748 9.65993 10.2531L9.79479 10.4008C9.88244 10.3208 9.96181 10.2453 10.0328 10.1743L9.89141 10.0328ZM10.1116 9.80144C10.0352 9.88529 9.96184 9.96241 9.89141 10.0328L10.0328 10.1743C10.1057 10.1014 10.1813 10.022 10.2595 9.93614L10.1116 9.80144ZM10.2931 9.51322C10.2686 9.59866 10.2114 9.69455 10.1125 9.80056L10.2587 9.93702C10.3709 9.81676 10.4494 9.69391 10.4854 9.56816L10.2931 9.51322ZM10.2976 9.27648C10.3216 9.34569 10.3222 9.42224 10.294 9.51009L10.4844 9.57129C10.5241 9.44795 10.5266 9.32651 10.4865 9.21093L10.2976 9.27648ZM10.1545 9.05137C10.2261 9.12298 10.2722 9.19732 10.2968 9.27418L10.4873 9.21323C10.4515 9.10154 10.3864 9.00051 10.2959 8.90995L10.1545 9.05137ZM9.93447 8.91186C10.0117 8.93657 10.085 8.98195 10.1545 9.05137L10.2959 8.90995C10.2069 8.82099 10.1068 8.757 9.99543 8.72137L9.93447 8.91186ZM9.69372 8.91244C9.78417 8.88547 9.8624 8.88688 9.93217 8.91109L9.99773 8.72214C9.88271 8.68223 9.76106 8.68365 9.63656 8.72079L9.69372 8.91244ZM9.4081 9.09619C9.51457 8.99682 9.61018 8.93827 9.69467 8.91215L9.6356 8.72107C9.51267 8.75907 9.39144 8.83817 9.27163 8.94998L9.4081 9.09619ZM9.17865 9.32007C9.24969 9.24903 9.32644 9.17415 9.40891 9.09542L9.27082 8.95075C9.18736 9.03042 9.10949 9.10639 9.03722 9.17865L9.17865 9.32007ZM8.95396 9.55038C9.03461 9.46598 9.1095 9.38922 9.17865 9.32007L9.03722 9.17865C8.96683 9.24904 8.89087 9.32691 8.80936 9.41221L8.95396 9.55038ZM8.7497 9.95963C8.74686 9.84608 8.80486 9.71014 8.95477 9.54953L8.80856 9.41306C8.64168 9.59186 8.54506 9.77647 8.54976 9.96463L8.7497 9.95963ZM8.90995 10.2959C8.80432 10.1903 8.75422 10.0784 8.74966 9.95833L8.5498 9.96592C8.55655 10.1437 8.63279 10.3016 8.76852 10.4373L8.90995 10.2959ZM9.68764 11.8694C9.68764 11.9226 9.70782 11.9706 9.74522 12.008L9.88664 11.8665C9.88563 11.8655 9.88628 11.8659 9.88702 11.8677C9.88776 11.8695 9.88764 11.8704 9.88764 11.8694L9.68764 11.8694ZM9.74522 11.7308C9.70782 11.7682 9.68764 11.8161 9.68764 11.8694L9.88764 11.8694C9.88764 11.8683 9.88776 11.8693 9.88702 11.8711C9.88628 11.8728 9.88563 11.8732 9.88664 11.8722L9.74522 11.7308ZM11.5865 9.88947L9.74522 11.7308L9.88664 11.8722L11.7279 10.0309L11.5865 9.88947ZM11.7279 9.82907C11.672 9.82907 11.6237 9.85226 11.5865 9.88947L11.7279 10.0309C11.7308 10.0281 11.7318 10.0279 11.7307 10.0284C11.7303 10.0286 11.7297 10.0288 11.729 10.0289C11.7283 10.0291 11.7279 10.0291 11.7279 10.0291L11.7279 9.82907ZM11.8665 9.88664C11.8291 9.84925 11.7812 9.82907 11.7279 9.82907L11.7279 10.0291C11.729 10.0291 11.728 10.0292 11.7263 10.0284C11.7245 10.0277 11.7241 10.0271 11.7251 10.0281L11.8665 9.88664ZM13.0941 11.1142L11.8665 9.88664L11.7251 10.0281L12.9527 11.2556L13.0941 11.1142ZM13.1545 11.2556C13.1545 11.1996 13.1313 11.1514 13.0941 11.1142L12.9527 11.2556C12.9555 11.2584 12.9556 11.2594 12.9552 11.2584C12.955 11.2579 12.9548 11.2573 12.9546 11.2567C12.9545 11.256 12.9545 11.2556 12.9545 11.2556L13.1545 11.2556ZM13.0941 11.397C13.1313 11.3598 13.1545 11.3116 13.1545 11.2556L12.9545 11.2556C12.9545 11.2556 12.9545 11.2552 12.9546 11.2545C12.9548 11.2539 12.955 11.2533 12.9552 11.2528C12.9556 11.2518 12.9555 11.2528 12.9527 11.2556L13.0941 11.397ZM12.8961 11.595L13.0941 11.397L12.9527 11.2556L12.7547 11.4536L12.8961 11.595ZM12.7547 11.6554C12.8106 11.6554 12.8589 11.6322 12.8961 11.595L12.7547 11.4536C12.7519 11.4564 12.7508 11.4566 12.7519 11.4561C12.7523 11.4559 12.7529 11.4557 12.7536 11.4556C12.7543 11.4554 12.7547 11.4554 12.7547 11.4554L12.7547 11.6554ZM12.6161 11.5922C12.6503 11.6264 12.6943 11.6511 12.747 11.6551L12.7623 11.4557C12.7633 11.4558 12.7641 11.4561 12.764 11.4561C12.7637 11.4559 12.7614 11.4547 12.7575 11.4508L12.6161 11.5922ZM11.7081 10.6843L12.6161 11.5922L12.7575 11.4508L11.8496 10.5428L11.7081 10.6843ZM11.3122 11.2217L11.8496 10.6843L11.7081 10.5428L11.1707 11.0802L11.3122 11.2217ZM12.1635 11.9316L11.3122 11.0802L11.1707 11.2217L12.0221 12.073L12.1635 11.9316ZM12.2239 12.073C12.2239 12.017 12.2007 11.9688 12.1635 11.9316L12.0221 12.073C12.0249 12.0758 12.0251 12.0768 12.0246 12.0758C12.0244 12.0754 12.0242 12.0747 12.0241 12.0741C12.0239 12.0734 12.0239 12.073 12.0239 12.073L12.2239 12.073ZM12.1635 12.2144C12.2007 12.1772 12.2239 12.129 12.2239 12.073L12.0239 12.073C12.0239 12.073 12.0239 12.0726 12.0241 12.072C12.0242 12.0713 12.0244 12.0707 12.0246 12.0702C12.0251 12.0692 12.0249 12.0702 12.0221 12.073L12.1635 12.2144ZM11.9655 12.4124L12.1635 12.2144L12.0221 12.073L11.8241 12.271L11.9655 12.4124ZM11.8269 12.47C11.8802 12.47 11.9281 12.4498 11.9655 12.4124L11.8241 12.271C11.8231 12.272 11.8235 12.2714 11.8252 12.2706C11.827 12.2699 11.828 12.27 11.8269 12.27L11.8269 12.47ZM11.6855 12.4096C11.7227 12.4468 11.771 12.47 11.8269 12.47L11.8269 12.27C11.8269 12.27 11.8273 12.27 11.828 12.2701C11.8287 12.2703 11.8293 12.2705 11.8297 12.2707C11.8308 12.2711 11.8297 12.271 11.8269 12.2682L11.6855 12.4096ZM10.8342 11.5582L11.6855 12.4096L11.8269 12.2682L10.9756 11.4168L10.8342 11.5582ZM10.2741 12.2597L10.9756 11.5582L10.8342 11.4168L10.1327 12.1183L10.2741 12.2597ZM10.1355 12.3173C10.1888 12.3173 10.2367 12.2971 10.2741 12.2597L10.1327 12.1183C10.1317 12.1193 10.1321 12.1186 10.1338 12.1179C10.1356 12.1171 10.1366 12.1173 10.1355 12.1173L10.1355 12.3173ZM9.99412 12.2569C10.0313 12.2941 10.0796 12.3173 10.1355 12.3173L10.1355 12.1173C10.1355 12.1173 10.1359 12.1173 10.1366 12.1174C10.1373 12.1175 10.1379 12.1178 10.1383 12.118C10.1394 12.1184 10.1384 12.1183 10.1355 12.1154L9.99412 12.2569ZM9.74522 12.008L9.99412 12.2569L10.1355 12.1154L9.88664 11.8665L9.74522 12.008ZM11.3864 13.5681C11.3864 13.6213 11.4065 13.6693 11.4439 13.7067L11.5854 13.5653C11.5843 13.5642 11.585 13.5646 11.5857 13.5664C11.5865 13.5682 11.5864 13.5691 11.5864 13.5681L11.3864 13.5681ZM11.4439 13.4295C11.4065 13.4669 11.3864 13.5149 11.3864 13.5681L11.5864 13.5681C11.5864 13.5671 11.5865 13.568 11.5857 13.5698C11.585 13.5715 11.5843 13.5719 11.5854 13.5709L11.4439 13.4295ZM13.2852 11.5882L11.4439 13.4295L11.5854 13.5709L13.4267 11.7296L13.2852 11.5882ZM13.4267 11.5278C13.3707 11.5278 13.3224 11.551 13.2852 11.5882L13.4267 11.7296C13.4295 11.7268 13.4305 11.7266 13.4295 11.7271C13.429 11.7273 13.4284 11.7275 13.4277 11.7276C13.427 11.7278 13.4266 11.7278 13.4267 11.7278L13.4267 11.5278ZM13.5652 11.5854C13.5279 11.548 13.4799 11.5278 13.4267 11.5278L13.4267 11.7278C13.4277 11.7278 13.4267 11.7279 13.425 11.7272C13.4232 11.7264 13.4228 11.7258 13.4238 11.7268L13.5652 11.5854ZM14.7928 12.8129L13.5652 11.5854L13.4238 11.7268L14.6514 12.9543L14.7928 12.8129ZM14.8532 12.9543C14.8532 12.8983 14.83 12.8501 14.7928 12.8129L14.6514 12.9543C14.6542 12.9571 14.6543 12.9581 14.6539 12.9571C14.6537 12.9567 14.6535 12.956 14.6533 12.9554C14.6532 12.9547 14.6532 12.9543 14.6532 12.9543L14.8532 12.9543ZM14.7928 13.0957C14.83 13.0585 14.8532 13.0103 14.8532 12.9543L14.6532 12.9543C14.6532 12.9543 14.6532 12.9539 14.6533 12.9533C14.6535 12.9526 14.6537 12.952 14.6539 12.9515C14.6543 12.9505 14.6542 12.9515 14.6514 12.9543L14.7928 13.0957ZM14.5948 13.2937L14.7928 13.0957L14.6514 12.9543L14.4534 13.1523L14.5948 13.2937ZM14.4534 13.3541C14.5094 13.3541 14.5576 13.3309 14.5948 13.2937L14.4534 13.1523C14.4506 13.1551 14.4496 13.1553 14.4506 13.1548C14.451 13.1546 14.4517 13.1544 14.4523 13.1543C14.453 13.1541 14.4534 13.1541 14.4534 13.1541L14.4534 13.3541ZM14.3148 13.2909C14.349 13.3251 14.393 13.3498 14.4457 13.3538L14.461 13.1544C14.4621 13.1545 14.4628 13.1548 14.4627 13.1548C14.4624 13.1546 14.4602 13.1534 14.4562 13.1495L14.3148 13.2909ZM13.4069 12.383L14.3148 13.2909L14.4562 13.1495L13.5483 12.2416L13.4069 12.383ZM13.0109 12.9204L13.5483 12.383L13.4069 12.2416L12.8695 12.779L13.0109 12.9204ZM13.8622 13.6303L13.0109 12.779L12.8695 12.9204L13.7208 13.7717L13.8622 13.6303ZM13.9226 13.7717C13.9226 13.7157 13.8994 13.6675 13.8622 13.6303L13.7208 13.7717C13.7236 13.7745 13.7238 13.7756 13.7233 13.7745C13.7231 13.7741 13.7229 13.7735 13.7228 13.7728C13.7226 13.7721 13.7226 13.7717 13.7226 13.7717L13.9226 13.7717ZM13.8622 13.9132C13.8994 13.8759 13.9226 13.8277 13.9226 13.7717L13.7226 13.7717C13.7226 13.7717 13.7226 13.7713 13.7228 13.7707C13.7229 13.77 13.7231 13.7694 13.7233 13.7689C13.7238 13.7679 13.7236 13.7689 13.7208 13.7717L13.8622 13.9132ZM13.6642 14.1111L13.8622 13.9132L13.7208 13.7717L13.5228 13.9697L13.6642 14.1111ZM13.5257 14.1687C13.5789 14.1687 13.6268 14.1485 13.6642 14.1111L13.5228 13.9697C13.5218 13.9707 13.5222 13.9701 13.524 13.9693C13.5257 13.9686 13.5267 13.9687 13.5257 13.9687L13.5257 14.1687ZM13.3842 14.1083C13.4214 14.1455 13.4697 14.1687 13.5257 14.1687L13.5257 13.9687C13.5256 13.9687 13.526 13.9687 13.5267 13.9689C13.5274 13.969 13.528 13.9692 13.5284 13.9694C13.5295 13.9699 13.5285 13.9697 13.5257 13.9669L13.3842 14.1083ZM12.5329 13.257L13.3842 14.1083L13.5257 13.9669L12.6743 13.1155L12.5329 13.257ZM11.9728 13.9584L12.6743 13.257L12.5329 13.1155L11.8314 13.817L11.9728 13.9584ZM11.8343 14.016C11.8875 14.016 11.9355 13.9958 11.9728 13.9584L11.8314 13.817C11.8304 13.818 11.8308 13.8173 11.8326 13.8166C11.8343 13.8159 11.8353 13.816 11.8343 13.816L11.8343 14.016ZM11.6928 13.9556C11.73 13.9928 11.7783 14.016 11.8343 14.016L11.8343 13.816C11.8342 13.816 11.8346 13.816 11.8353 13.8161C11.836 13.8163 11.8366 13.8165 11.837 13.8167C11.8381 13.8171 11.8371 13.817 11.8343 13.8142L11.6928 13.9556ZM11.4439 13.7067L11.6928 13.9556L11.8343 13.8142L11.5854 13.5653L11.4439 13.7067ZM13.0851 15.2668C13.0851 15.32 13.1052 15.368 13.1426 15.4054L13.2841 15.264C13.2831 15.263 13.2837 15.2633 13.2844 15.2651C13.2852 15.2669 13.2851 15.2678 13.2851 15.2668L13.0851 15.2668ZM13.1426 15.1282C13.1052 15.1656 13.0851 15.2136 13.0851 15.2668L13.2851 15.2668C13.2851 15.2658 13.2852 15.2667 13.2844 15.2685C13.2837 15.2703 13.2831 15.2706 13.2841 15.2696L13.1426 15.1282ZM14.9839 13.2869L13.1426 15.1282L13.2841 15.2696L15.1254 13.4283L14.9839 13.2869ZM15.1254 13.2265C15.0694 13.2265 15.0212 13.2497 14.9839 13.2869L15.1254 13.4283C15.1282 13.4255 15.1292 13.4254 15.1282 13.4258C15.1277 13.426 15.1271 13.4262 15.1264 13.4264C15.1258 13.4265 15.1254 13.4265 15.1254 13.4265L15.1254 13.2265ZM15.264 13.2841C15.2266 13.2467 15.1786 13.2265 15.1254 13.2265L15.1254 13.4265C15.1264 13.4265 15.1255 13.4266 15.1237 13.4259C15.1219 13.4251 15.1215 13.4245 15.1225 13.4255L15.264 13.2841ZM16.5085 14.5286L15.264 13.2841L15.1225 13.4255L16.367 14.67L16.5085 14.5286ZM16.5689 14.67C16.5689 14.614 16.5457 14.5658 16.5085 14.5286L16.367 14.67C16.3699 14.6728 16.37 14.6738 16.3696 14.6728C16.3694 14.6723 16.3692 14.6717 16.369 14.6711C16.3689 14.6704 16.3689 14.67 16.3689 14.67L16.5689 14.67ZM16.5085 14.8114C16.5457 14.7742 16.5689 14.726 16.5689 14.67L16.3689 14.67C16.3689 14.67 16.3689 14.6696 16.369 14.6689C16.3692 14.6683 16.3694 14.6677 16.3696 14.6672C16.37 14.6662 16.3699 14.6672 16.367 14.67L16.5085 14.8114ZM16.3218 14.9981L16.5085 14.8114L16.367 14.67L16.1804 14.8567L16.3218 14.9981ZM16.1832 15.0557C16.2364 15.0557 16.2844 15.0355 16.3218 14.9981L16.1804 14.8567C16.1794 14.8577 16.1797 14.857 16.1815 14.8563C16.1833 14.8555 16.1842 14.8557 16.1832 14.8557L16.1832 15.0557ZM16.0418 14.9953C16.079 15.0325 16.1272 15.0557 16.1832 15.0557L16.1832 14.8557C16.1832 14.8557 16.1836 14.8557 16.1843 14.8558C16.1849 14.856 16.1855 14.8562 16.186 14.8564C16.187 14.8568 16.186 14.8567 16.1832 14.8538L16.0418 14.9953ZM15.1112 14.0647L16.0418 14.9953L16.1832 14.8538L15.2526 13.9233L15.1112 14.0647ZM14.752 14.5653L15.2526 14.0647L15.1112 13.9233L14.6106 14.4239L14.752 14.5653ZM15.6203 15.2923L14.752 14.4239L14.6106 14.5653L15.4789 15.4337L15.6203 15.2923ZM15.6807 15.4337C15.6807 15.3777 15.6576 15.3295 15.6203 15.2923L15.4789 15.4337C15.4817 15.4365 15.4819 15.4375 15.4814 15.4365C15.4812 15.436 15.481 15.4354 15.4809 15.4347C15.4808 15.4341 15.4807 15.4337 15.4807 15.4337L15.6807 15.4337ZM15.6232 15.5723C15.6602 15.5353 15.685 15.4853 15.6805 15.426L15.481 15.4413C15.4808 15.4379 15.4814 15.4339 15.4828 15.4306C15.484 15.4277 15.4847 15.4279 15.4818 15.4308L15.6232 15.5723ZM15.4478 15.7476L15.6232 15.5723L15.4818 15.4308L15.3064 15.6062L15.4478 15.7476ZM15.3064 15.808C15.3624 15.808 15.4106 15.7848 15.4478 15.7476L15.3064 15.6062C15.3036 15.609 15.3026 15.6092 15.3036 15.6087C15.304 15.6085 15.3047 15.6083 15.3053 15.6082C15.306 15.608 15.3064 15.608 15.3064 15.608L15.3064 15.808ZM15.1678 15.7448C15.202 15.779 15.246 15.8037 15.2987 15.8077L15.3141 15.6083C15.3151 15.6084 15.3158 15.6087 15.3158 15.6087C15.3154 15.6085 15.3132 15.6073 15.3092 15.6034L15.1678 15.7448ZM14.2995 14.8765L15.1678 15.7448L15.3092 15.6034L14.4409 14.7351L14.2995 14.8765ZM13.9233 15.3941L14.4409 14.8765L14.2995 14.7351L13.7819 15.2527L13.9233 15.3941ZM14.8765 16.2058L13.9233 15.2527L13.7819 15.3941L14.735 16.3473L14.8765 16.2058ZM14.9369 16.3473C14.9369 16.2913 14.9137 16.243 14.8765 16.2058L14.735 16.3473C14.7379 16.3501 14.738 16.3511 14.7376 16.3501C14.7374 16.3496 14.7372 16.349 14.737 16.3483C14.7369 16.3476 14.7369 16.3472 14.7369 16.3473L14.9369 16.3473ZM14.8765 16.4887C14.9137 16.4515 14.9369 16.4032 14.9369 16.3473L14.7369 16.3473C14.7369 16.3473 14.7369 16.3469 14.737 16.3462C14.7372 16.3455 14.7374 16.3449 14.7376 16.3445C14.738 16.3434 14.7379 16.3444 14.735 16.3473L14.8765 16.4887ZM14.6898 16.6754L14.8765 16.4887L14.735 16.3473L14.5484 16.5339L14.6898 16.6754ZM14.5512 16.7329C14.6044 16.7329 14.6524 16.7127 14.6898 16.6754L14.5484 16.5339C14.5474 16.5349 14.5477 16.5343 14.5495 16.5335C14.5513 16.5328 14.5522 16.5329 14.5512 16.5329L14.5512 16.7329ZM14.4098 16.6725C14.447 16.7097 14.4952 16.7329 14.5512 16.7329L14.5512 16.5329C14.5512 16.5329 14.5516 16.5329 14.5523 16.5331C14.5529 16.5332 14.5535 16.5334 14.554 16.5336C14.555 16.5341 14.554 16.5339 14.5512 16.5311L14.4098 16.6725ZM13.1426 15.4054L14.4098 16.6725L14.5512 16.5311L13.2841 15.264L13.1426 15.4054ZM14.8445 17.0263C14.8446 17.0795 14.8647 17.1275 14.9021 17.1649L15.0435 17.0235C15.0425 17.0224 15.0432 17.0228 15.0439 17.0246C15.0447 17.0264 15.0445 17.0273 15.0445 17.0263L14.8445 17.0263ZM14.9021 16.8877C14.8647 16.9251 14.8445 16.9731 14.8445 17.0263L15.0445 17.0263C15.0445 17.0253 15.0447 17.0262 15.0439 17.028C15.0432 17.0297 15.0425 17.0301 15.0435 17.0291L14.9021 16.8877ZM16.7434 15.0464L14.9021 16.8877L15.0435 17.0291L16.8849 15.1878L16.7434 15.0464ZM16.8849 14.986C16.8289 14.986 16.7806 15.0092 16.7434 15.0464L16.8849 15.1878C16.8877 15.185 16.8887 15.1848 16.8876 15.1853C16.8872 15.1855 16.8866 15.1857 16.8859 15.1858C16.8852 15.186 16.8848 15.186 16.8848 15.186L16.8849 14.986ZM17.0234 15.0436C16.986 15.0062 16.9381 14.986 16.8849 14.986L16.8848 15.186C16.8859 15.186 16.8849 15.1861 16.8832 15.1854C16.8814 15.1846 16.881 15.184 16.882 15.185L17.0234 15.0436ZM17.756 15.7761L17.0234 15.0436L16.882 15.185L17.6146 15.9175L17.756 15.7761ZM18.1665 16.5344C18.1369 16.2675 17.9946 16.0147 17.756 15.7761L17.6146 15.9175C17.8323 16.1352 17.9446 16.3482 17.9677 16.5565L18.1665 16.5344ZM17.8748 17.2752C18.0934 17.0566 18.1969 16.8081 18.1665 16.5344L17.9677 16.5565C17.9901 16.7579 17.9183 16.9488 17.7334 17.1338L17.8748 17.2752ZM17.3654 17.5468C17.5532 17.5205 17.7231 17.4269 17.8748 17.2752L17.7334 17.1338C17.606 17.2612 17.4742 17.3296 17.3377 17.3487L17.3654 17.5468ZM16.8338 17.4647C17.0071 17.5461 17.1854 17.5743 17.3667 17.5466L17.3364 17.3489C17.1971 17.3702 17.0587 17.3494 16.9189 17.2837L16.8338 17.4647ZM16.6646 18.5346L16.9729 17.4004L16.7799 17.3479L16.4716 18.4821L16.6646 18.5346ZM16.6162 18.6187C16.6396 18.5952 16.654 18.5669 16.6629 18.54L16.4732 18.4768C16.4709 18.4838 16.4701 18.4819 16.4747 18.4773L16.6162 18.6187ZM16.4755 18.6703C16.5283 18.6744 16.578 18.6569 16.6162 18.6187L16.4747 18.4773C16.4757 18.4763 16.4785 18.474 16.483 18.4724C16.4874 18.4708 16.4906 18.4709 16.4909 18.4709L16.4755 18.6703ZM16.3559 18.6187C16.391 18.6537 16.4358 18.6706 16.4832 18.6706L16.4832 18.4706C16.4832 18.4706 16.4856 18.4706 16.4892 18.4721C16.493 18.4736 16.4958 18.4757 16.4974 18.4773L16.3559 18.6187ZM16.0985 18.3613L16.3559 18.6187L16.4974 18.4773L16.24 18.2199L16.0985 18.3613ZM16.0212 18.1916C16.0212 18.26 16.0542 18.317 16.0985 18.3613L16.24 18.2199C16.23 18.2099 16.2253 18.2025 16.2231 18.1981C16.2212 18.1941 16.2212 18.1922 16.2212 18.1916L16.0212 18.1916ZM16.0363 18.0736C16.0257 18.1108 16.0212 18.1505 16.0212 18.1916L16.2212 18.1916C16.2212 18.1648 16.2242 18.1442 16.2286 18.1286L16.0363 18.0736ZM16.342 17.0376L16.0366 18.0728L16.2284 18.1294L16.5339 17.0942L16.342 17.0376ZM15.9741 16.7434L16.3672 17.1366L16.5087 16.9952L16.1155 16.602L15.9741 16.7434ZM15.4367 17.4223L16.1155 16.7434L15.9741 16.602L15.2953 17.2808L15.4367 17.4223ZM15.2981 17.4798C15.3513 17.4798 15.3993 17.4597 15.4367 17.4223L15.2953 17.2808C15.2943 17.2818 15.2946 17.2812 15.2964 17.2805C15.2982 17.2797 15.2991 17.2798 15.2981 17.2798L15.2981 17.4798ZM15.1595 17.4223C15.1965 17.4593 15.2465 17.4841 15.3058 17.4795L15.2904 17.2801C15.2939 17.2799 15.2979 17.2805 15.3012 17.2819C15.3041 17.2831 15.3038 17.2837 15.3009 17.2808L15.1595 17.4223ZM14.9021 17.1649L15.1595 17.4223L15.3009 17.2808L15.0435 17.0235L14.9021 17.1649ZM16.8339 16.6812L16.4351 16.2824L16.2937 16.4238L16.6925 16.8226L16.8339 16.6812ZM17.1022 16.8331C17.0294 16.8292 16.9402 16.7874 16.8339 16.6812L16.6925 16.8226C16.8163 16.9465 16.9496 17.0253 17.0917 17.0328L17.1022 16.8331ZM17.3317 16.7265C17.2525 16.8058 17.1762 16.8356 17.1004 16.833L17.0935 17.0329C17.2365 17.0378 17.3639 16.9772 17.4732 16.8679L17.3317 16.7265ZM17.4383 16.4952C17.4409 16.5709 17.411 16.6472 17.3317 16.7265L17.4732 16.8679C17.5824 16.7586 17.6431 16.6312 17.6382 16.4883L17.4383 16.4952ZM17.2921 16.223C17.3998 16.3306 17.4382 16.4198 17.4382 16.4917L17.6382 16.4917C17.6382 16.3449 17.5598 16.2078 17.4336 16.0816L17.2921 16.223ZM16.8933 15.8242L17.2921 16.223L17.4336 16.0816L17.0348 15.6828L16.8933 15.8242ZM16.4351 16.4238L17.0348 15.8242L16.8933 15.6828L16.2937 16.2824L16.4351 16.4238ZM5.93969 5.9397C5.78348 6.09591 5.53021 6.09591 5.374 5.9397L5.23258 6.08112C5.4669 6.31543 5.8468 6.31543 6.08111 6.08112L5.93969 5.9397ZM5.93969 5.37401C6.0959 5.53022 6.0959 5.78349 5.93969 5.9397L6.08111 6.08112C6.31543 5.8468 6.31543 5.4669 6.08111 5.23259L5.93969 5.37401ZM5.374 5.37401C5.53021 5.2178 5.78348 5.2178 5.93969 5.37401L6.08111 5.23259C5.8468 4.99828 5.4669 4.99828 5.23258 5.23259L5.374 5.37401ZM5.374 5.9397C5.21779 5.78349 5.21779 5.53022 5.374 5.37401L5.23258 5.23259C4.99827 5.4669 4.99827 5.8468 5.23258 6.08112L5.374 5.9397Z" fill="black"/>
</svg>
