<svg width="18" height="20" viewBox="0 0 18 20" fill="none" xmlns="http://www.w3.org/2000/svg">
<path d="M17.1239 15.7171C14.9475 18.3252 12.0616 19.7505 8.99994 19.7505C5.93785 19.7505 3.05236 18.3257 0.875494 15.7171C1.29451 12.9966 2.71072 10.8272 4.85223 9.58585C5.94819 10.7303 7.42153 11.3609 8.99948 11.3609C10.5775 11.3609 12.0508 10.7298 13.1467 9.58585C15.2882 10.8272 16.7044 12.9966 17.1239 15.7171ZM13.7439 4.99442C13.7439 7.60991 11.6154 9.73838 8.99994 9.73838C6.3845 9.73838 4.25598 7.60902 4.25598 4.99396C4.25598 2.37892 6.38447 0.25 8.99994 0.25C11.6154 0.25 13.7439 2.37891 13.7439 4.99442Z" stroke="#383F43" stroke-width="0.5"/>
</svg>
