<svg width="22" height="19" viewBox="0 0 22 19" fill="none" xmlns="http://www.w3.org/2000/svg">
<g clip-path="url(#clip0_8888_38578)">
<path d="M14.3411 10.6016C14.1001 10.9228 13.8462 11.2378 13.5792 11.5464C13.2373 11.9716 12.8857 12.3874 12.5536 12.7654L12.4169 12.9071C12.2183 13.0904 11.9831 13.2327 11.7258 13.3252C11.4685 13.4177 11.1945 13.4586 10.9203 13.4454C10.6461 13.4321 10.3776 13.365 10.1311 13.2481C9.88466 13.1312 9.66538 12.9669 9.48665 12.7654L9.34014 12.6048C9.04712 12.2646 8.74432 11.9149 8.4513 11.5464C8.15828 11.1779 7.93364 10.8945 7.69922 10.6016V16.2709L14.3704 18.4252L14.3411 10.6016ZM13.6378 17.4709L8.37316 15.7701V12.5764L8.92015 13.2094C9.17689 13.5022 9.49639 13.7373 9.85649 13.8986C10.2166 14.0599 10.6087 14.1434 11.0055 14.1434C11.4023 14.1434 11.7944 14.0599 12.1545 13.8986C12.5146 13.7373 12.8341 13.5022 13.0908 13.2094L13.1983 13.0772L13.6378 12.5764V17.4709Z" fill="#383F43"/>
<path d="M15.4548 4.81842C15.4548 3.6757 14.9855 2.57975 14.1503 1.77172C13.315 0.963692 12.1821 0.509766 11.0008 0.509766C9.81956 0.509766 8.68668 0.963692 7.8514 1.77172C7.01612 2.57975 6.54688 3.6757 6.54688 4.81842C6.54915 5.039 6.582 5.25828 6.64456 5.4704C6.67783 5.61451 6.72022 5.7565 6.77152 5.89558C6.96587 6.39781 7.20102 6.88438 7.47478 7.3507C7.53338 7.43574 7.58222 7.53023 7.63106 7.61527C8.50124 9.0058 9.48089 10.3294 10.5613 11.5743L10.698 11.7349C10.755 11.799 10.8345 11.8403 10.9211 11.8508C11.0078 11.8613 11.0954 11.8402 11.1669 11.7916L11.2255 11.7349C12.3747 10.4455 13.4135 9.06778 14.3315 7.61527L14.4292 7.45462L14.6441 7.55858L14.439 7.4452C14.991 6.66139 15.3395 5.76031 15.4548 4.81842ZM14.3413 6.2074C14.0162 6.86169 13.6441 7.49316 13.2278 8.09717C12.5245 9.12709 11.7334 10.1098 11.1962 10.7523L11.0008 10.9696L10.8152 10.7523C10.0897 9.90283 9.41152 9.01654 8.78361 8.09717C8.36008 7.4975 7.98769 6.8655 7.67012 6.2074C7.43732 5.77554 7.29461 5.30358 7.25013 4.81842C7.20551 4.25755 7.29596 3.69428 7.51436 3.17293C7.73277 2.65157 8.07318 2.18632 8.50886 1.81374C8.94453 1.44115 9.46359 1.1714 10.0252 1.02566C10.5869 0.879919 11.1758 0.862179 11.7458 0.973815C12.3157 1.08545 12.8511 1.32342 13.3099 1.66904C13.7687 2.01466 14.1384 2.45853 14.39 2.96571C14.6415 3.4729 14.768 4.02962 14.7596 4.59209C14.7511 5.15457 14.6079 5.7075 14.3413 6.2074Z" fill="#383F43"/>
<path d="M0.666045 8.61578C0.559235 8.76952 0.501495 8.95023 0.5 9.13546V18.1685C0.500726 18.2244 0.515299 18.2794 0.542491 18.3287C0.569683 18.378 0.608705 18.4203 0.656283 18.452C0.707605 18.4777 0.764544 18.4911 0.822327 18.4911C0.88011 18.4911 0.937049 18.4777 0.988372 18.452L5.97954 16.2504V8.05831C5.80372 7.74334 5.64745 7.42838 5.5107 7.11342C5.43256 6.9339 5.35443 6.76383 5.28606 6.59375L1.09581 8.20949C0.911982 8.29787 0.761605 8.44003 0.666045 8.61578ZM1.20326 8.97484L4.90513 7.53863L5.00279 7.73705C5.08093 7.89768 5.16884 8.04885 5.24698 8.20003V8.31341V15.8725L1.17396 17.6583L1.20326 8.97484Z" fill="#383F43"/>
<path d="M21.333 16.1666C21.438 16.0155 21.4957 15.8384 21.4991 15.6564V6.62331C21.501 6.56695 21.4876 6.51107 21.4602 6.46131C21.4327 6.41155 21.3923 6.36965 21.3428 6.33982C21.2932 6.31418 21.2379 6.30078 21.1816 6.30078C21.1254 6.30078 21.0701 6.31418 21.0205 6.33982L16.0195 8.54142V18.4343L20.9033 16.5446C21.0858 16.4681 21.237 16.3351 21.333 16.1666ZM20.7958 15.817L16.7228 17.3855V8.93825L20.7958 7.15244V15.817Z" fill="#383F43"/>
<path d="M11.0004 6.66978C12.1656 6.66978 13.1102 5.75602 13.1102 4.62884C13.1102 3.50165 12.1656 2.58789 11.0004 2.58789C9.8352 2.58789 8.89062 3.50165 8.89062 4.62884C8.89062 5.75602 9.8352 6.66978 11.0004 6.66978Z" fill="#383F43"/>
</g>
<defs>
<clipPath id="clip0_8888_38578">
<rect width="21" height="18" fill="white" transform="translate(0.5 0.5)"/>
</clipPath>
</defs>
</svg>
