<svg width="10" height="10" viewBox="0 0 10 10" fill="none" xmlns="http://www.w3.org/2000/svg">
<path fill-rule="evenodd" clip-rule="evenodd" d="M6.33107 0.0109631C6.22999 0.0441012 6.15743 0.0928601 6.0841 0.176947C6.04252 0.224611 5.3573 1.09492 4.56137 2.11096L3.11422 3.95834L1.63064 4.951C0.5162 5.69668 0.133273 5.96266 0.0916774 6.02006C0.0612286 6.06209 0.0264775 6.14391 0.014431 6.2019C-0.0284554 6.40845 -0.0539369 6.36454 1.14811 8.15619C1.75412 9.05942 2.27278 9.82343 2.30073 9.85399C2.40969 9.97313 2.60701 10.0287 2.76755 9.98539C2.8164 9.97221 3.0438 9.83491 3.31512 9.65473C3.57033 9.48527 3.78843 9.34102 3.79984 9.33418C3.81122 9.32734 3.91682 9.39674 4.03451 9.48838C4.29277 9.68949 4.33133 9.71072 4.46312 9.72433C4.6083 9.73931 4.74594 9.68971 4.84507 9.5867C4.88823 9.54187 5.26486 9.06968 5.68203 8.53742L6.44053 7.56967L6.63754 7.43282C6.7459 7.35755 7.4671 6.87377 8.24025 6.35774C9.01338 5.84172 9.68032 5.38864 9.72233 5.35089C9.76435 5.31315 9.81475 5.24707 9.83434 5.20406C9.87725 5.10991 9.88192 4.92631 9.84375 4.83499C9.82887 4.79937 9.70076 4.59671 9.55909 4.38466C9.41741 4.1726 9.297 3.98743 9.29153 3.97316C9.28605 3.95889 9.43159 3.75662 9.61518 3.5234C9.88675 3.17838 9.95455 3.07973 9.97986 2.99275C10.0317 2.81458 9.9832 2.65053 9.83827 2.51329C9.79703 2.47423 9.16046 1.97233 8.42369 1.39797C7.68691 0.823618 7.00394 0.29118 6.90594 0.214796C6.80797 0.138393 6.69873 0.0608755 6.66321 0.0425176C6.58982 0.00457011 6.40431 -0.0130449 6.33107 0.0109631ZM6.58647 0.344182C6.63429 0.37556 7.34654 0.927607 8.16926 1.57097C9.13478 2.326 9.67453 2.76041 9.6917 2.7963C9.71405 2.84305 9.71407 2.8626 9.6919 2.91896C9.66569 2.98553 9.13033 3.68634 9.10439 3.68802C9.09694 3.68851 8.75915 3.19404 8.35375 2.58918C7.94836 1.98435 7.59803 1.46851 7.57527 1.4429C7.46994 1.32435 7.21647 1.26833 7.06734 1.33064C6.99604 1.36042 5.72157 2.20386 5.65162 2.26756C5.56387 2.34746 5.6259 2.51593 5.74302 2.51581C5.77073 2.51579 5.85768 2.473 5.93628 2.42072L6.07913 2.32566L6.19201 2.43851C6.64673 2.8931 7.31867 3.02702 7.92456 2.78381L8.08916 2.71775L8.4699 3.28878L8.85062 3.85979L8.75274 3.9552C8.54963 4.15313 8.38886 4.4316 8.31392 4.7153C8.28734 4.81589 8.27796 4.9195 8.2785 5.10631C8.27932 5.38471 8.30625 5.51925 8.40458 5.73605L8.46069 5.85973L7.39105 6.57459C6.80275 6.96775 5.7626 7.66338 5.0796 8.12043C4.39661 8.57748 3.82733 8.95578 3.81456 8.96112C3.80177 8.96644 3.7413 8.92081 3.68019 8.85969C3.22694 8.40657 2.48837 8.27104 1.91813 8.53635L1.79763 8.5924L1.41011 8.01699L1.02258 7.44158L1.10357 7.36877C1.41752 7.08658 1.60207 6.65965 1.60408 6.21091C1.6052 5.95973 1.57416 5.8 1.48137 5.5792C1.44947 5.50328 1.4254 5.4398 1.42788 5.4381C1.43037 5.4364 2.25962 4.88285 3.27067 4.208C4.28172 3.53314 5.13385 2.95456 5.16432 2.92229C5.22602 2.85689 5.22406 2.7904 5.15849 2.72359C5.087 2.65075 5.03799 2.67415 4.47229 3.0511C4.17171 3.2514 3.9258 3.41081 3.9258 3.40538C3.9258 3.38657 6.27655 0.394446 6.3334 0.340878C6.40724 0.271317 6.47684 0.272216 6.58647 0.344182ZM7.32444 1.62323C7.34906 1.6369 7.49223 1.83235 7.6426 2.05755L7.91597 2.46699L7.81894 2.51176C7.37363 2.71726 6.78534 2.60461 6.41196 2.24238L6.32673 2.15968L6.75051 1.87835C7.18493 1.58992 7.22907 1.57031 7.32444 1.62323ZM7.42633 3.8122C7.05009 4.06667 7.04491 4.07115 7.03881 4.14536C7.03087 4.24187 7.07592 4.29496 7.16573 4.29496C7.21749 4.29496 7.3123 4.241 7.61072 4.04175C7.93238 3.82695 7.99189 3.77963 8.00278 3.73007C8.02431 3.63207 7.95536 3.55064 7.85296 3.55316C7.82805 3.55377 7.63607 3.67035 7.42633 3.8122ZM4.60517 3.75762C3.84595 3.90145 3.26813 4.4395 3.07276 5.18451C3.00308 5.45026 2.99853 5.82307 3.06183 6.08006C3.21405 6.69805 3.64659 7.20466 4.21953 7.43602C4.38556 7.50306 4.57914 7.54748 4.63944 7.53235C4.72562 7.51073 4.76804 7.34302 4.70098 7.28898C4.68874 7.27909 4.6083 7.25188 4.52226 7.22848C3.60586 6.97923 3.09357 6.0244 3.39506 5.1275C3.47822 4.88007 3.59207 4.70246 3.79718 4.50024C4.10929 4.19248 4.42154 4.05299 4.85471 4.02785C5.63807 3.98235 6.34418 4.51166 6.52816 5.28226C6.58759 5.53126 6.57486 5.89236 6.49814 6.13271C6.33954 6.6297 5.95992 7.02355 5.48058 7.18842C5.33117 7.2398 5.29472 7.27432 5.29472 7.36439C5.29472 7.52011 5.41554 7.53888 5.68744 7.42537C6.10747 7.25004 6.46026 6.91469 6.66401 6.49709C6.8189 6.17969 6.84704 6.04868 6.84726 5.64395C6.84743 5.32719 6.84352 5.28909 6.79455 5.13012C6.58446 4.44802 6.08166 3.96407 5.39592 3.78399C5.19532 3.7313 4.81165 3.7185 4.60517 3.75762ZM9.30391 4.53055C9.58322 4.95073 9.60722 5.00449 9.55706 5.09818C9.52905 5.15049 8.71658 5.6905 8.69657 5.67009C8.68775 5.66109 8.65615 5.58334 8.62631 5.49732C8.57828 5.35878 8.57208 5.313 8.57208 5.09653C8.57208 4.87982 8.57824 4.83448 8.62644 4.69594C8.65635 4.61002 8.71112 4.4898 8.7482 4.42879C8.82081 4.30931 8.98309 4.11901 9.01238 4.11901C9.02224 4.11901 9.15342 4.30421 9.30391 4.53055ZM4.15333 4.531C4.08887 4.58167 4.08526 4.6665 4.14404 4.74902L4.18628 4.80832L4.1196 4.92799C4.05825 5.03808 4.05293 5.06097 4.05315 5.21384C4.05334 5.34643 4.06195 5.39609 4.09574 5.45955C4.20052 5.65636 4.40267 5.75564 4.65913 5.73627L4.79794 5.72577L5.00934 6.03855C5.14087 6.23316 5.21382 6.35826 5.20242 6.36966C5.19232 6.37975 5.12757 6.39733 5.0585 6.40874C4.98945 6.42016 4.91424 6.43301 4.89142 6.43727C4.84043 6.44679 4.79688 6.54415 4.8137 6.61107C4.82047 6.63803 4.84882 6.67504 4.87673 6.69332C4.92157 6.72268 4.94533 6.72396 5.08084 6.70421C5.16518 6.69191 5.26918 6.66401 5.31195 6.64222L5.3897 6.60255L5.43196 6.67092C5.50463 6.78847 5.59629 6.81053 5.67694 6.72988C5.73804 6.66882 5.73784 6.59926 5.67638 6.50884C5.6323 6.44397 5.63048 6.43369 5.6568 6.39746C5.76764 6.24487 5.7932 6.166 5.7933 5.97631C5.7934 5.79982 5.78992 5.78424 5.72335 5.6635C5.64423 5.51998 5.5316 5.42211 5.40635 5.38799C5.35611 5.37433 5.24562 5.3695 5.12261 5.37564L4.92118 5.38569L4.76493 5.15253C4.679 5.0243 4.61395 4.91086 4.62041 4.90044C4.62684 4.89 4.67464 4.88148 4.72658 4.88148C4.85252 4.88148 4.91142 4.83475 4.91142 4.73485C4.91142 4.61784 4.85045 4.58089 4.6787 4.59379C4.60341 4.59944 4.51676 4.61551 4.48616 4.62947C4.43652 4.65211 4.42823 4.6508 4.40948 4.61731C4.33978 4.4928 4.24327 4.46026 4.15333 4.531ZM4.49292 5.27249L4.61128 5.44844H4.5362C4.43302 5.44844 4.35533 5.36745 4.34158 5.24555C4.33219 5.1623 4.34238 5.09653 4.36469 5.09653C4.37013 5.09653 4.42784 5.17571 4.49292 5.27249ZM1.22767 5.73681C1.40281 6.19965 1.30787 6.71659 0.983629 7.06552L0.862792 7.19557L0.593818 6.80014C0.445896 6.58266 0.316161 6.37981 0.305562 6.34937C0.266059 6.23611 0.307126 6.19349 0.738161 5.90022C0.958656 5.75021 1.14942 5.62676 1.1621 5.62592C1.17477 5.62508 1.20428 5.67497 1.22767 5.73681ZM5.39534 5.71402C5.5046 5.81672 5.54113 5.98678 5.48314 6.12274L5.45823 6.18118L5.29732 5.9411C5.08391 5.62262 5.08739 5.63652 5.22359 5.6478C5.31207 5.65513 5.34705 5.66862 5.39534 5.71402ZM2.31845 7.22977C1.88841 7.51423 1.87241 7.52789 1.87241 7.61077C1.87241 7.68218 1.94555 7.7554 2.01691 7.7554C2.05948 7.7554 2.78239 7.28472 2.82514 7.22916C2.85133 7.19514 2.85694 7.13098 2.83807 7.08179C2.8261 7.05063 2.73378 6.99293 2.69588 6.99293C2.68522 6.99293 2.51538 7.0995 2.31845 7.22977ZM5.43589 8.37613C5.31944 8.52399 5.09452 8.80962 4.93608 9.01089C4.77764 9.21217 4.62874 9.39031 4.60521 9.40679C4.55431 9.44243 4.47904 9.44443 4.42317 9.41162C4.40095 9.39856 4.31524 9.33543 4.23271 9.27135C4.13315 9.19402 4.08921 9.14826 4.10211 9.13535C4.13323 9.10425 5.61581 8.10919 5.63249 8.10821C5.6408 8.10772 5.55233 8.22829 5.43589 8.37613ZM2.84044 8.72313C3.03171 8.76315 3.27575 8.88849 3.41714 9.01936C3.48178 9.0792 3.53468 9.13467 3.53468 9.14264C3.53468 9.17021 2.70249 9.71045 2.66001 9.71045C2.55678 9.71045 2.51168 9.66157 2.24057 9.2557C2.09109 9.03189 1.97359 8.841 1.97946 8.8315C1.99082 8.81314 2.25941 8.72108 2.34176 8.70731C2.45528 8.68835 2.71328 8.69654 2.84044 8.72313Z" fill="white"/>
</svg>
