<svg width="22" height="22" viewBox="0 0 22 22" fill="none" xmlns="http://www.w3.org/2000/svg">
<mask id="path-1-inside-1_1667_154245" fill="white">
<path fill-rule="evenodd" clip-rule="evenodd" d="M12.2597 0.00852291C11.4767 0.0847505 10.7386 0.340708 10.0959 0.758825C10.0239 0.805678 9.96496 0.845266 9.96496 0.846792C9.96496 0.848318 10.1511 0.849649 10.3785 0.84974C10.8213 0.849923 10.9642 0.862001 11.3122 0.928589C11.787 1.01947 12.3112 1.2086 12.7379 1.44302C13.85 2.05404 14.7347 3.10478 15.187 4.35182C15.3643 4.84067 15.4749 5.33297 15.5306 5.88054C15.5587 6.15631 15.5587 6.76045 15.5306 7.03622C15.4567 7.76313 15.2918 8.38035 15.0054 9.00191C14.763 9.52803 14.49 9.94905 14.1188 10.3694C13.8721 10.6487 13.5532 10.9409 13.2763 11.1413C13.2288 11.1757 13.1913 11.2051 13.193 11.2068C13.1947 11.2084 13.2536 11.2019 13.3239 11.1924C14.2192 11.0716 15.0815 10.6949 15.788 10.116C16.6356 9.42146 17.2547 8.4767 17.5874 7.37022C17.6947 7.01331 17.7729 6.6081 17.8156 6.18837C17.8437 5.9126 17.8437 5.30847 17.8156 5.0327C17.6584 3.48681 17.0026 2.17294 15.9095 1.21425C15.1734 0.568595 14.2537 0.156113 13.2616 0.0266537C13.0756 0.00239234 12.4407 -0.00909919 12.2597 0.00852291ZM8.80836 1.89987C7.24236 2.05235 5.87639 2.93181 5.02029 4.33877C4.53231 5.14074 4.25802 5.9883 4.15492 7.01274C4.13207 7.23967 4.13582 7.95204 4.16101 8.17363C4.342 9.76542 5.07056 11.1191 6.25553 12.0653C7.17545 12.7999 8.35722 13.1864 9.47639 13.1188C10.2612 13.0713 10.9204 12.882 11.5895 12.5117C12.8042 11.8395 13.7078 10.6863 14.1361 9.26156C14.2434 8.90466 14.3216 8.49944 14.3643 8.07972C14.3924 7.80395 14.3924 7.19981 14.3643 6.92404C14.2071 5.37815 13.5513 4.06428 12.4582 3.10559C11.7221 2.45994 10.8024 2.04746 9.81025 1.918C9.62429 1.89374 8.98935 1.88224 8.80836 1.89987ZM16.8493 10.8553C16.8229 10.8656 16.7479 10.9186 16.6827 10.9731C16.343 11.2569 16.1697 11.3875 15.8976 11.5649C15.7474 11.6629 15.3255 11.9011 15.2282 11.9429C15.2069 11.952 15.19 11.9632 15.1906 11.9677C15.1911 11.9722 15.2726 12.0346 15.3716 12.1063C16.0034 12.5642 16.6807 13.2018 17.1937 13.8216C17.955 14.7415 18.5343 15.7666 18.9586 16.9447C19.2858 17.8531 19.5292 18.9174 19.6188 19.8315L19.6459 20.1087H20.823H22L21.9924 20.0337C21.9883 19.9924 21.9687 19.7561 21.949 19.5086C21.9294 19.2611 21.9025 18.9618 21.8894 18.8434C21.8132 18.1544 21.6366 17.3262 21.4095 16.5925C20.7184 14.3591 19.4349 12.5498 17.5901 11.2087C17.0784 10.8367 16.9969 10.7979 16.8493 10.8553ZM13.398 12.7466C13.3716 12.7569 13.2966 12.8099 13.2314 12.8644C12.763 13.2557 12.4744 13.458 12.0596 13.6857C10.8552 14.3467 9.52 14.5677 8.20361 14.324C7.22713 14.1433 6.28769 13.695 5.48842 13.0285C5.19274 12.7819 5.15921 12.7601 5.05141 12.7445C4.9356 12.7276 4.82368 12.7821 4.47447 13.025C3.36589 13.7962 2.40759 14.8209 1.67786 16.0153C0.633088 17.7254 0.0626471 19.6704 0.00779517 21.7098L0 22H9.27435H18.5487L18.5411 21.925C18.537 21.8838 18.5174 21.6475 18.4977 21.4C18.478 21.1525 18.4512 20.8531 18.4381 20.7348C18.3618 20.0457 18.1853 19.2175 17.9582 18.4838C17.2671 16.2504 15.9836 14.4411 14.1388 13.1001C13.6271 12.7281 13.5456 12.6892 13.398 12.7466Z"/>
</mask>
<path fill-rule="evenodd" clip-rule="evenodd" d="M12.2597 0.00852291C11.4767 0.0847505 10.7386 0.340708 10.0959 0.758825C10.0239 0.805678 9.96496 0.845266 9.96496 0.846792C9.96496 0.848318 10.1511 0.849649 10.3785 0.84974C10.8213 0.849923 10.9642 0.862001 11.3122 0.928589C11.787 1.01947 12.3112 1.2086 12.7379 1.44302C13.85 2.05404 14.7347 3.10478 15.187 4.35182C15.3643 4.84067 15.4749 5.33297 15.5306 5.88054C15.5587 6.15631 15.5587 6.76045 15.5306 7.03622C15.4567 7.76313 15.2918 8.38035 15.0054 9.00191C14.763 9.52803 14.49 9.94905 14.1188 10.3694C13.8721 10.6487 13.5532 10.9409 13.2763 11.1413C13.2288 11.1757 13.1913 11.2051 13.193 11.2068C13.1947 11.2084 13.2536 11.2019 13.3239 11.1924C14.2192 11.0716 15.0815 10.6949 15.788 10.116C16.6356 9.42146 17.2547 8.4767 17.5874 7.37022C17.6947 7.01331 17.7729 6.6081 17.8156 6.18837C17.8437 5.9126 17.8437 5.30847 17.8156 5.0327C17.6584 3.48681 17.0026 2.17294 15.9095 1.21425C15.1734 0.568595 14.2537 0.156113 13.2616 0.0266537C13.0756 0.00239234 12.4407 -0.00909919 12.2597 0.00852291ZM8.80836 1.89987C7.24236 2.05235 5.87639 2.93181 5.02029 4.33877C4.53231 5.14074 4.25802 5.9883 4.15492 7.01274C4.13207 7.23967 4.13582 7.95204 4.16101 8.17363C4.342 9.76542 5.07056 11.1191 6.25553 12.0653C7.17545 12.7999 8.35722 13.1864 9.47639 13.1188C10.2612 13.0713 10.9204 12.882 11.5895 12.5117C12.8042 11.8395 13.7078 10.6863 14.1361 9.26156C14.2434 8.90466 14.3216 8.49944 14.3643 8.07972C14.3924 7.80395 14.3924 7.19981 14.3643 6.92404C14.2071 5.37815 13.5513 4.06428 12.4582 3.10559C11.7221 2.45994 10.8024 2.04746 9.81025 1.918C9.62429 1.89374 8.98935 1.88224 8.80836 1.89987ZM16.8493 10.8553C16.8229 10.8656 16.7479 10.9186 16.6827 10.9731C16.343 11.2569 16.1697 11.3875 15.8976 11.5649C15.7474 11.6629 15.3255 11.9011 15.2282 11.9429C15.2069 11.952 15.19 11.9632 15.1906 11.9677C15.1911 11.9722 15.2726 12.0346 15.3716 12.1063C16.0034 12.5642 16.6807 13.2018 17.1937 13.8216C17.955 14.7415 18.5343 15.7666 18.9586 16.9447C19.2858 17.8531 19.5292 18.9174 19.6188 19.8315L19.6459 20.1087H20.823H22L21.9924 20.0337C21.9883 19.9924 21.9687 19.7561 21.949 19.5086C21.9294 19.2611 21.9025 18.9618 21.8894 18.8434C21.8132 18.1544 21.6366 17.3262 21.4095 16.5925C20.7184 14.3591 19.4349 12.5498 17.5901 11.2087C17.0784 10.8367 16.9969 10.7979 16.8493 10.8553ZM13.398 12.7466C13.3716 12.7569 13.2966 12.8099 13.2314 12.8644C12.763 13.2557 12.4744 13.458 12.0596 13.6857C10.8552 14.3467 9.52 14.5677 8.20361 14.324C7.22713 14.1433 6.28769 13.695 5.48842 13.0285C5.19274 12.7819 5.15921 12.7601 5.05141 12.7445C4.9356 12.7276 4.82368 12.7821 4.47447 13.025C3.36589 13.7962 2.40759 14.8209 1.67786 16.0153C0.633088 17.7254 0.0626471 19.6704 0.00779517 21.7098L0 22H9.27435H18.5487L18.5411 21.925C18.537 21.8838 18.5174 21.6475 18.4977 21.4C18.478 21.1525 18.4512 20.8531 18.4381 20.7348C18.3618 20.0457 18.1853 19.2175 17.9582 18.4838C17.2671 16.2504 15.9836 14.4411 14.1388 13.1001C13.6271 12.7281 13.5456 12.6892 13.398 12.7466Z" stroke="#383F43" mask="url(#path-1-inside-1_1667_154245)"/>
</svg>
