<svg width="164" height="86" viewBox="0 0 164 86" fill="none" xmlns="http://www.w3.org/2000/svg">
<rect x="0.5" y="0.5" width="163" height="85" rx="3.5" fill="#FBF4F6" stroke="#A0627B"/>
<path d="M100.717 50.4687L101.542 51.1721V50.0883V26.75C101.542 25.877 101.195 25.0397 100.578 24.4224C99.9603 23.8051 99.123 23.4583 98.25 23.4583H64.75C63.877 23.4583 63.0397 23.8051 62.4224 24.4224C61.8051 25.0397 61.4583 25.877 61.4583 26.75V59.4125V60.4804L62.2785 59.7965L82.5994 42.8532C82.5997 42.8529 82.6001 42.8526 82.6005 42.8523C83.8949 41.7876 85.5189 41.2055 87.195 41.2055C88.8701 41.2055 90.4933 41.787 91.7874 42.8505L100.717 50.4687ZM65.993 62.6577L64.9335 63.5417H66.3133H98.25C99.123 63.5417 99.9603 63.1949 100.578 62.5776C101.195 61.9603 101.542 61.123 101.542 60.25V57.4583V57.2274L101.366 57.0776L88.7754 46.3576L88.7627 46.3468L88.7493 46.3369C88.2877 45.9941 87.7281 45.8091 87.1531 45.8091C86.5782 45.8091 86.0185 45.9941 85.5569 46.3369L85.5456 46.3453L85.5347 46.3544L65.993 62.6577ZM64.75 18.875H98.25C100.339 18.875 102.342 19.7047 103.818 21.1815C105.295 22.6584 106.125 24.6614 106.125 26.75V60.25C106.125 62.3386 105.295 64.3416 103.818 65.8185C102.342 67.2953 100.339 68.125 98.25 68.125H64.75C62.6614 68.125 60.6584 67.2953 59.1815 65.8185C57.7047 64.3416 56.875 62.3386 56.875 60.25V26.75C56.875 24.6614 57.7047 22.6584 59.1815 21.1815C60.6584 19.7047 62.6614 18.875 64.75 18.875Z" stroke="#A0627B"/>
<g clip-path="url(#clip0_7179_194985)">
<path d="M79 35H77.6562C77.8854 34.3438 78 33.6771 78 33H79C79.2708 33 79.5052 33.099 79.7031 33.2969C79.901 33.4948 80 33.7318 80 34.0078C80 34.2839 79.901 34.5182 79.7031 34.7109C79.5052 34.9036 79.2708 35 79 35ZM78.5 31.3594L77.8594 31.7344C77.724 31.0781 77.474 30.4583 77.1094 29.875L77.5156 29.6406C77.7552 29.4948 78.0052 29.4583 78.2656 29.5312C78.526 29.6042 78.7266 29.7604 78.8672 30C79.0078 30.2396 79.0417 30.4922 78.9688 30.7578C78.8958 31.0234 78.7396 31.224 78.5 31.3594ZM76.2188 28.7344C75.75 28.2656 75.2031 27.8854 74.5781 27.5938L74.6406 27.5C74.776 27.2604 74.9766 27.1042 75.2422 27.0312C75.5078 26.9583 75.7604 26.9922 76 27.1328C76.2396 27.2734 76.3958 27.474 76.4688 27.7344C76.5417 27.9948 76.5052 28.2448 76.3594 28.4844L76.2188 28.7344ZM76.3594 39.5156C76.5052 39.7552 76.5417 40.0052 76.4688 40.2656C76.3958 40.526 76.2396 40.7266 76 40.8672C75.7604 41.0078 75.5078 41.0417 75.2422 40.9688C74.9766 40.8958 74.776 40.7396 74.6406 40.5L73.625 38.7656C74.2812 38.5885 74.8854 38.3073 75.4375 37.9219L76.3594 39.5156ZM71.9922 42C71.7161 42 71.4818 41.9036 71.2891 41.7109C71.0964 41.5182 71 41.2812 71 41V38.875C71.3333 38.9583 71.6667 39 72 39C72.3125 39 72.6458 38.9688 73 38.9062V41C73 41.2812 72.901 41.5182 72.7031 41.7109C72.5052 41.9036 72.2682 42 71.9922 42ZM72 32C71.6562 32 71.3854 31.8594 71.1875 31.5781C70.2396 31.724 69.4714 32.0964 68.8828 32.6953C68.2943 33.2943 68 34.0625 68 35H65C64.7292 35 64.4948 34.9036 64.2969 34.7109C64.099 34.5182 64 34.2839 64 34.0078C64 33.7318 64.099 33.4948 64.2969 33.2969C64.4948 33.099 64.7292 33 65 33H68.2969L65.5 31.3594C65.2604 31.224 65.1042 31.0234 65.0312 30.7578C64.9583 30.4922 64.9922 30.2396 65.1328 30C65.2734 29.7604 65.474 29.6042 65.7344 29.5312C65.9948 29.4583 66.2448 29.4948 66.4844 29.6406L69.2344 31.2344L67.6406 28.4844C67.4948 28.2448 67.4583 27.9948 67.5312 27.7344C67.6042 27.474 67.7604 27.2734 68 27.1328C68.2396 26.9922 68.4922 26.9583 68.7578 27.0312C69.0234 27.1042 69.224 27.2604 69.3594 27.5L71 30.2969V27C71 26.7292 71.0964 26.4948 71.2891 26.2969C71.4818 26.099 71.7188 26 72 26C72.2812 26 72.5182 26.099 72.7109 26.2969C72.9036 26.4948 73 26.7292 73 27V31C73 31.2812 72.901 31.5182 72.7031 31.7109C72.5052 31.9036 72.2708 32 72 32ZM65.5 36.6406L68.0156 35.1719C68.0365 35.8802 68.2344 36.5312 68.6094 37.125L66.4844 38.3594C66.2448 38.5052 65.9948 38.5417 65.7344 38.4688C65.474 38.3958 65.2734 38.2396 65.1328 38C64.9922 37.7604 64.9583 37.5078 65.0312 37.2422C65.1042 36.9766 65.2604 36.776 65.5 36.6406ZM68.8438 37.4375C69.2708 38 69.7969 38.4115 70.4219 38.6719L69.3594 40.5C69.224 40.7396 69.0234 40.8958 68.7578 40.9688C68.4922 41.0417 68.2396 41.0078 68 40.8672C67.7604 40.7266 67.6042 40.526 67.5312 40.2656C67.4583 40.0052 67.4948 39.7552 67.6406 39.5156L68.8438 37.4375ZM77.25 35.9062L78.5 36.6406C78.7396 36.776 78.8958 36.9766 78.9688 37.2422C79.0417 37.5078 79.0078 37.7604 78.8672 38C78.7266 38.2396 78.526 38.3958 78.2656 38.4688C78.0052 38.5417 77.7552 38.5052 77.5156 38.3594L75.9844 37.4688C76.5052 37.0104 76.9271 36.4896 77.25 35.9062Z" fill="#A0627B"/>
</g>
<defs>
<clipPath id="clip0_7179_194985">
<rect width="16" height="16" fill="white" transform="translate(64 26)"/>
</clipPath>
</defs>
</svg>
