<svg width="20" height="20" viewBox="0 0 20 20" fill="none" xmlns="http://www.w3.org/2000/svg">
<path fill-rule="evenodd" clip-rule="evenodd" d="M0.955566 15.6556V16.7391H17.1657V15.6556L17.106 15.5959C16.5227 15.0484 16.0149 14.4259 15.5959 13.7445C15.1144 12.7769 14.8247 11.7252 14.7427 10.6475V7.63584C14.7558 6.15856 14.2484 4.72383 13.3094 3.58331C12.4113 2.4991 11.1443 1.78504 9.7517 1.57836L9.38485 1.52718V0.375396C9.38474 0.27344 9.34496 0.17552 9.27393 0.102377C9.24511 0.0696953 9.20966 0.0435239 9.16994 0.0255952C9.13023 0.00766659 9.08714 -0.00158691 9.04356 -0.00158691C8.99998 -0.00158691 8.95695 0.00766659 8.91723 0.0255952C8.87751 0.0435239 8.84206 0.0696953 8.81324 0.102377C8.74454 0.176377 8.70776 0.27447 8.71087 0.375396V1.53572L8.34396 1.5869C6.94684 1.79786 5.67846 2.5218 4.78627 3.61744C3.85851 4.75379 3.35483 6.17739 3.3615 7.64436V10.6219C3.27888 11.6968 2.98917 12.7455 2.50833 13.7104C2.09347 14.4051 1.58857 15.042 1.00675 15.6044L0.955566 15.6556ZM1.749 15.5191C2.16167 15.0599 2.53015 14.5629 2.84957 14.0346L2.92638 13.9493C3.414 12.9235 3.70346 11.8149 3.77954 10.6817V7.6273C3.77661 6.29161 4.23467 4.99583 5.07637 3.9587C5.90928 2.9447 7.08886 2.27585 8.38666 2.08173L9.0521 1.97935L9.70051 2.06467C11.0081 2.25117 12.1982 2.92084 13.0364 3.94162C13.8956 4.97327 14.3612 6.2762 14.3503 7.61876V10.6561C14.4234 11.798 14.7129 12.9155 15.2034 13.9493L15.2461 14.0346C15.5644 14.5605 15.9361 15.0523 16.3552 15.502L17.0122 16.2187H1.10059L1.749 15.5191Z" fill="#383F43"/>
<path d="M7.35437 17.3619C7.4287 17.7112 7.63697 18.0175 7.93452 18.2151C8.26442 18.4459 8.65807 18.5682 9.0607 18.5649C9.46574 18.5666 9.86166 18.4446 10.1954 18.2151C10.4911 18.0172 10.6965 17.7106 10.767 17.3619H7.35437Z" fill="#383F43"/>
<path fill-rule="evenodd" clip-rule="evenodd" d="M17.1658 15.6556L17.4702 15.9168C17.7995 16.1994 17.5997 16.7391 17.1658 16.7391" fill="#383F43"/>
<path fill-rule="evenodd" clip-rule="evenodd" d="M0.955627 15.6556L0.651187 15.9168C0.321904 16.1994 0.521729 16.7391 0.955627 16.7391" fill="#383F43"/>
</svg>
