<svg width="18" height="23" viewBox="0 0 18 23" fill="none" xmlns="http://www.w3.org/2000/svg">
<path fill-rule="evenodd" clip-rule="evenodd" d="M0.984394 0.202715C0.560489 0.395243 0.208008 0.79809 0.0892252 1.22561C0.031295 1.43429 0.000267006 4.17592 9.15582e-06 9.12424C-0.000420594 15.8999 0.013847 16.7175 0.134521 16.8382C0.208867 16.9125 0.295849 16.9727 0.327908 16.972C0.595212 16.966 0.600112 16.848 0.622115 9.87767L0.644118 2.92045L6.3383 2.89836L12.0325 2.87627V4.29505V5.71383L11.7531 5.71486C11.1214 5.71718 9.98576 6.14615 9.22038 6.67157C8.08876 7.44838 7.02212 9.07774 7.52011 9.26889C7.73654 9.35192 7.85171 9.25187 8.16208 8.71116C8.32598 8.42546 8.72273 7.94406 9.04366 7.64134C10.017 6.72314 11.0417 6.31548 12.3763 6.31548C13.7603 6.31548 14.7855 6.74265 15.7739 7.73107C16.7636 8.7207 17.1946 9.75442 17.1992 11.15C17.2078 13.6837 15.2552 15.7884 12.7057 15.9936C10.5139 16.1701 8.35065 14.6645 7.6915 12.5039C7.60701 12.2267 7.53773 11.663 7.52415 11.1411C7.50215 10.2957 7.44413 10.1043 7.20829 10.0986C6.91528 10.0914 6.79375 11.2071 6.98851 12.1171C7.37855 13.9395 8.42508 15.3075 10.0127 16.07C10.4805 16.2948 11.661 16.6295 11.9859 16.6295C12.0115 16.6295 12.0325 17.2099 12.0325 17.9193V19.2092L6.3383 19.1871L0.644118 19.165L0.601143 18.5211C0.564442 17.9717 0.533844 17.8727 0.391941 17.8457C0.0694567 17.7843 -0.000506544 18.0497 9.15582e-06 19.3318C0.000267006 19.9965 0.0404056 20.6841 0.0892252 20.8598C0.208008 21.2874 0.560489 21.6902 0.984394 21.8827C1.30851 22.03 1.66692 22.0407 6.34105 22.0424C11.7448 22.0445 11.6982 22.0481 12.1899 21.589C12.6163 21.1908 12.6341 21.0789 12.6341 18.7913V16.6471L13.1803 16.552C15.0238 16.231 16.4383 15.1969 17.2576 13.5714C17.6598 12.7734 17.8179 12.0675 17.8143 11.0857C17.8045 8.43517 15.9145 6.21724 13.2788 5.76316L12.6771 5.65951L12.6341 3.34453C12.5895 0.939478 12.5769 0.858513 12.1896 0.496492C11.6987 0.0374334 11.7448 0.0409573 6.34105 0.0430201C1.66692 0.0447391 1.30851 0.0554828 0.984394 0.202715ZM11.4653 0.762593C11.8865 0.938619 12.0325 1.20025 12.0325 1.7793V2.27583H6.30478H0.577077L0.627616 1.78669C0.681506 1.26445 0.872573 0.925468 1.21104 0.751506C1.53172 0.586654 11.0691 0.597054 11.4653 0.762593ZM5.6862 1.23394C5.62294 1.27408 5.58426 1.39914 5.60025 1.51199C5.62818 1.70985 5.65517 1.71715 6.35859 1.71715C6.99238 1.71715 7.09191 1.69687 7.11778 1.56262C7.17468 1.26703 6.9733 1.15839 6.37079 1.15977C6.05742 1.16054 5.74937 1.19389 5.6862 1.23394ZM11.2013 7.8569C9.27418 8.5506 8.32985 10.7994 9.21608 12.5842C9.32334 12.8 9.47436 12.9883 9.55189 13.0026C9.64231 13.0192 10.4815 12.1962 11.894 10.7056C13.1047 9.42815 14.0947 8.35283 14.094 8.31613C14.0906 8.14948 13.9199 8.0166 13.5075 7.85991C12.9158 7.63507 11.8213 7.63369 11.2013 7.8569ZM12.0325 8.98053V9.66873L10.8963 10.8714C10.2715 11.5329 9.73075 12.0741 9.69465 12.0741C9.49989 12.0741 9.44316 10.8914 9.60999 10.3071C9.83492 9.51935 10.5318 8.78198 11.3676 8.44738C12.0164 8.18772 12.0325 8.20062 12.0325 8.98053ZM13.0617 8.37509C13.1685 8.44265 13.156 8.48958 12.9821 8.67454C12.7063 8.96815 12.6341 8.9513 12.6341 8.59315C12.6341 8.27814 12.7859 8.2007 13.0617 8.37509ZM12.8136 11.6087C11.6277 12.8654 10.6573 13.9489 10.6573 14.0165C10.6573 14.214 11.1559 14.4621 11.7758 14.5729C13.2727 14.8403 14.8345 14.0309 15.5184 12.6328C15.751 12.1576 15.7708 12.0428 15.7711 11.1716C15.7713 10.3604 15.7423 10.1622 15.5674 9.77496C15.4076 9.42145 15.3208 9.32372 15.1667 9.32372C15.0207 9.32372 14.4137 9.91317 12.8136 11.6087ZM15.1589 10.4518C15.3561 11.4375 15.0964 12.4143 14.4564 13.0947C14.0298 13.5483 13.2737 13.9628 12.8705 13.9642L12.6341 13.965V13.335V12.705L13.8115 11.4441C14.4589 10.7506 15.015 10.1832 15.047 10.1832C15.079 10.1832 15.1294 10.3041 15.1589 10.4518ZM12.0325 13.6642C12.0325 13.922 12.0039 13.965 11.832 13.965C11.5182 13.965 11.4952 13.8681 11.7465 13.6057C11.8743 13.4724 11.9908 13.3634 12.0056 13.3634C12.0204 13.3634 12.0325 13.4987 12.0325 13.6642ZM12.0325 20.3062C12.0325 20.6261 11.9826 20.8739 11.8923 21.0029C11.5868 21.4391 11.5415 21.4427 6.28931 21.4427H1.40013L1.10808 21.2463C0.789202 21.0319 0.613692 20.6424 0.605956 20.1319L0.601143 19.8096H6.31681H12.0325V20.3062Z" fill="#383F43"/>
</svg>
