<svg width="26" height="25" viewBox="0 0 26 25" fill="none" xmlns="http://www.w3.org/2000/svg">
<path d="M18.7133 5.69459C18.8978 5.60289 19.0755 5.49867 19.2451 5.3827C20.6192 4.44243 21.0427 2.71324 20.1862 1.52988C19.3298 0.346515 17.5227 0.153874 16.1486 1.10332C14.7745 2.05276 14.0686 3.73149 13.3015 5.69L18.7133 5.69459ZM2.03564 11.7949H23.9698V22.6653C23.9698 23.1519 23.7714 23.6186 23.4184 23.9626C23.0654 24.3067 22.5866 24.5 22.0874 24.5H3.918C3.41877 24.5 2.93998 24.3067 2.58697 23.9626C2.23396 23.6186 2.03564 23.1519 2.03564 22.6653V11.7949Z" stroke="#222222" stroke-width="0.5" stroke-linecap="round" stroke-linejoin="round"/>
<path d="M15.7534 11.7949H10.2476V24.5H15.7534V11.7949Z" stroke="#222222" stroke-width="0.5" stroke-linecap="round" stroke-linejoin="round"/>
<path d="M7.28785 5.69459C7.10426 5.60389 6.92806 5.49962 6.76079 5.3827C5.38668 4.44243 4.95844 2.71324 5.81962 1.52988C6.68079 0.346515 8.48315 0.153874 9.86197 1.10332C11.2408 2.05276 11.9373 3.73149 12.709 5.69L7.28785 5.69459Z" stroke="#222222" stroke-width="0.5" stroke-linecap="round" stroke-linejoin="round"/>
<path d="M23.5882 5.69458H2.41176C1.63207 5.69458 1 6.31064 1 7.07059V10.4189C1 11.1788 1.63207 11.7949 2.41176 11.7949H23.5882C24.3679 11.7949 25 11.1788 25 10.4189V7.07059C25 6.31064 24.3679 5.69458 23.5882 5.69458Z" stroke="#222222" stroke-width="0.5" stroke-linecap="round" stroke-linejoin="round"/>
<path d="M16.2563 5.69458H9.74805V11.7949H16.2563V5.69458Z" stroke="#222222" stroke-width="0.5" stroke-linecap="round" stroke-linejoin="round"/>
</svg>
