<svg width="24" height="24" viewBox="0 0 24 24" fill="none" xmlns="http://www.w3.org/2000/svg">
<path d="M17.1593 9.14835C17.1593 9.01021 17.2164 8.87547 17.3219 8.77441C17.4277 8.673 17.5734 8.61426 17.7275 8.61426H19.3638C19.5179 8.61426 19.6636 8.673 19.7694 8.77441C19.8748 8.87547 19.932 9.01021 19.932 9.14835V10.7165C19.932 10.8547 19.8748 10.9894 19.7694 11.0905C19.6636 11.1919 19.5179 11.2506 19.3638 11.2506H17.7275C17.5734 11.2506 17.4277 11.1919 17.3219 11.0905C17.2164 10.9894 17.1593 10.8547 17.1593 10.7165V9.14835ZM12.4128 8.77441L12.2404 8.59457L12.4128 8.77441C12.5186 8.673 12.6643 8.61426 12.8184 8.61426H14.4547C14.6088 8.61426 14.7545 8.673 14.8603 8.77441L15.0326 8.59457L14.8603 8.77441C14.9657 8.87547 15.0229 9.01021 15.0229 9.14835V10.7165C15.0229 10.8547 14.9657 10.9894 14.8603 11.0905L15.0333 11.271L14.8603 11.0905C14.7545 11.1919 14.6088 11.2506 14.4547 11.2506H12.8184C12.6643 11.2506 12.5186 11.1919 12.4128 11.0905L12.2398 11.271L12.4128 11.0905C12.3073 10.9894 12.2502 10.8547 12.2502 10.7165V9.14835C12.2502 9.01021 12.3073 8.87547 12.4128 8.77441ZM4.06836 13.8529C4.06836 13.7148 4.12552 13.58 4.23098 13.479C4.33679 13.3775 4.4825 13.3188 4.63654 13.3188H6.2729C6.42695 13.3188 6.57265 13.3775 6.67847 13.479C6.78393 13.58 6.84109 13.7148 6.84109 13.8529V15.4211C6.84109 15.5592 6.78393 15.694 6.67847 15.795C6.57265 15.8964 6.42695 15.9552 6.2729 15.9552H4.63654C4.4825 15.9552 4.33679 15.8964 4.23098 15.795C4.12552 15.694 4.06836 15.5592 4.06836 15.4211V13.8529ZM8.97745 13.8529C8.97745 13.7148 9.03461 13.58 9.14007 13.479C9.24588 13.3775 9.39159 13.3188 9.54563 13.3188H11.182C11.336 13.3188 11.4817 13.3775 11.5876 13.479C11.693 13.58 11.7502 13.7148 11.7502 13.8529V15.4211C11.7502 15.5592 11.693 15.694 11.5876 15.795C11.4817 15.8964 11.336 15.9552 11.182 15.9552H9.54563C9.39159 15.9552 9.24588 15.8964 9.14007 15.795C9.03461 15.694 8.97745 15.5592 8.97745 15.4211V13.8529Z" stroke="#383F43" stroke-width="0.5"/>
<path d="M5.25 0.25C5.38596 0.25 5.51432 0.301859 5.60735 0.391014C5.70002 0.479822 5.75 0.597946 5.75 0.71875V1.4375V1.6875H6H18H18.25V1.4375V0.71875C18.25 0.597945 18.3 0.479822 18.3926 0.391014C18.4857 0.301859 18.614 0.25 18.75 0.25C18.886 0.25 19.0143 0.301859 19.1074 0.391014C19.2 0.479822 19.25 0.597945 19.25 0.71875V1.4375V1.6875H19.5H21C21.7327 1.6875 22.4334 1.96653 22.9483 2.46007C23.463 2.95325 23.75 3.61982 23.75 4.3125V20.125C23.75 20.8177 23.463 21.4843 22.9483 21.9774C22.4334 22.471 21.7327 22.75 21 22.75H3C2.2673 22.75 1.56664 22.471 1.05166 21.9774C0.53703 21.4843 0.25 20.8177 0.25 20.125V4.3125C0.25 3.61982 0.53703 2.95325 1.05166 2.46007C1.56664 1.96653 2.2673 1.6875 3 1.6875H4.5H4.75V1.4375V0.71875C4.75 0.597946 4.79998 0.479822 4.89265 0.391014C4.98568 0.301859 5.11404 0.25 5.25 0.25ZM1.5 5.5H1.25V5.75V20.125C1.25 20.5761 1.43708 21.0064 1.76636 21.322C2.09529 21.6372 2.53922 21.8125 3 21.8125H21C21.4608 21.8125 21.9047 21.6372 22.2336 21.322C22.5629 21.0064 22.75 20.5761 22.75 20.125V5.75V5.5H22.5H1.5Z" stroke="#383F43" stroke-width="0.5"/>
</svg>
