<svg width="21" height="14" viewBox="0 0 21 14" fill="none" xmlns="http://www.w3.org/2000/svg">
<path d="M0 3.97681C0 3.14838 0.671573 2.47681 1.5 2.47681H17.7593C18.5877 2.47681 19.2593 3.14838 19.2593 3.97681V4.69903H0V3.97681Z" fill="#383F43"/>
<path d="M2.03809 9.17358C2.03809 8.98596 2.19018 8.83386 2.3778 8.83386H10.9959C11.1836 8.83386 11.3357 8.98596 11.3357 9.17358C11.3357 9.3612 11.1836 9.5133 10.9959 9.5133H2.3778C2.19018 9.5133 2.03809 9.3612 2.03809 9.17358Z" fill="#383F43"/>
<circle cx="2.86024" cy="11.4426" r="0.572158" fill="#383F43"/>
<circle cx="5.14967" cy="11.4426" r="0.572158" fill="#383F43"/>
<circle cx="7.43776" cy="11.4426" r="0.572158" fill="#383F43"/>
<path d="M19.2987 10.9143C19.3116 10.8184 19.3186 10.7217 19.3195 10.625C19.3186 10.5282 19.3116 10.4316 19.2987 10.3356L19.9417 9.84515C19.9707 9.82354 19.9905 9.79226 19.9974 9.7573C20.0042 9.72233 19.9976 9.68613 19.9788 9.65562L19.37 8.62698C19.3523 8.59613 19.3237 8.57262 19.2895 8.5609C19.2553 8.54917 19.2179 8.55003 19.1843 8.56332L18.4255 8.86135C18.2676 8.74395 18.0949 8.64671 17.9117 8.572L17.7974 7.78642C17.7923 7.75165 17.7745 7.71986 17.7472 7.69697C17.7198 7.67408 17.6849 7.66165 17.6489 7.66199H16.4282C16.3922 7.66165 16.3573 7.67408 16.3299 7.69697C16.3026 7.71986 16.2848 7.75165 16.2797 7.78642L16.1654 8.572C15.9819 8.64624 15.8092 8.74352 15.6516 8.86135L14.8898 8.56332C14.8562 8.55003 14.8188 8.54917 14.7846 8.5609C14.7504 8.57262 14.7218 8.59613 14.7042 8.62698L14.0953 9.65562C14.0765 9.68613 14.0699 9.72233 14.0767 9.7573C14.0836 9.79226 14.1034 9.82354 14.1325 9.84515L14.774 10.3356C14.7611 10.4316 14.7541 10.5282 14.7532 10.625C14.7541 10.7217 14.761 10.8184 14.774 10.9143L14.1325 11.4048C14.1034 11.4264 14.0836 11.4576 14.0767 11.4926C14.0699 11.5276 14.0765 11.5638 14.0953 11.5943L14.7042 12.6229C14.7218 12.6538 14.7504 12.6773 14.7846 12.689C14.8188 12.7007 14.8562 12.6999 14.8898 12.6866L15.6486 12.3885C15.8065 12.506 15.9792 12.6032 16.1624 12.6779L16.2768 13.4635C16.2818 13.4982 16.2996 13.53 16.327 13.5529C16.3543 13.5758 16.3892 13.5883 16.4253 13.5879H17.6429C17.679 13.5883 17.7139 13.5758 17.7412 13.5529C17.7685 13.53 17.7864 13.4982 17.7914 13.4635L17.9058 12.6779C18.0892 12.6037 18.262 12.5064 18.4196 12.3885L19.1784 12.6866C19.212 12.6999 19.2494 12.7007 19.2836 12.689C19.3178 12.6773 19.3464 12.6538 19.364 12.6229L19.9728 11.5943C19.9917 11.5638 19.9983 11.5276 19.9915 11.4926C19.9846 11.4576 19.9648 11.4264 19.9357 11.4048L19.2987 10.9143ZM17.0371 11.6637C16.8261 11.664 16.6198 11.6033 16.4443 11.4894C16.2688 11.3754 16.1319 11.2133 16.051 11.0235C15.97 10.8337 15.9487 10.6248 15.9897 10.4232C16.0306 10.2216 16.1321 10.0364 16.2811 9.89094C16.4302 9.74552 16.6202 9.64644 16.827 9.60625C17.0339 9.56605 17.2483 9.58653 17.4433 9.66511C17.6382 9.74369 17.8048 9.87683 17.922 10.0477C18.0392 10.2185 18.1018 10.4194 18.1018 10.625C18.102 10.7613 18.0746 10.8963 18.0212 11.0224C17.9677 11.1484 17.8893 11.2629 17.7905 11.3594C17.6916 11.4559 17.5741 11.5324 17.4449 11.5846C17.3156 11.6368 17.177 11.6637 17.0371 11.6637V11.6637Z" stroke="#383F43" stroke-width="0.541667" stroke-linecap="round" stroke-linejoin="round"/>
<path fill-rule="evenodd" clip-rule="evenodd" d="M4 0.5H15.2593C17.1923 0.5 18.7593 2.067 18.7593 4V7.25132C18.9321 7.32758 19.0991 7.4161 19.2593 7.51588V4C19.2593 1.79086 17.4684 0 15.2593 0H4C1.79086 0 0 1.79086 0 4V9.58876C0 11.7979 1.79086 13.5888 4 13.5888H13.6213C13.535 13.4282 13.4578 13.2612 13.3904 13.0888H4C2.067 13.0888 0.5 11.5218 0.5 9.58876V4C0.5 2.067 2.067 0.5 4 0.5Z" fill="#383F43"/>
</svg>
