<svg width="24" height="23" viewBox="0 0 24 23" fill="none" xmlns="http://www.w3.org/2000/svg">
<path d="M20.9826 15.0714L20.9695 12.4857C20.9691 12.4081 20.9687 12.3323 20.9684 12.2583C20.9609 10.7811 20.9571 10.0226 20.9262 9.56009C20.9097 9.31164 20.8846 9.13485 20.8435 8.97017C20.8072 8.825 20.7596 8.69531 20.7069 8.55175C20.7014 8.537 20.696 8.5221 20.6904 8.50703C20.3415 7.55366 19.619 6.7643 18.7225 6.37697C18.7225 6.37697 18.7225 6.37698 18.7225 6.37698L20.9826 15.0714ZM20.9826 15.0714L21.0042 15.0674L21.0042 15.0674C21.2439 15.0222 21.705 14.9368 22.0293 14.8776L22.0921 15.2219L20.9826 15.0714ZM3.36558 6.0527C3.35538 5.99964 3.34348 5.92034 3.32815 5.79824L3.32815 5.79821C3.22225 4.95511 3.22611 4.77927 3.28068 4.54993C3.36379 4.20068 3.5142 3.93935 3.72417 3.74532C3.93578 3.54977 4.2287 3.40347 4.6261 3.32003L4.62611 3.32003C4.97847 3.24603 10.6738 2.16643 18.36 0.716752C18.8948 0.615883 19.4011 0.523723 19.7857 0.456542C19.9782 0.422923 20.1391 0.395743 20.2574 0.376894C20.3547 0.361398 20.4074 0.354283 20.4272 0.351607C20.4346 0.350613 20.4374 0.350232 20.4363 0.350261C20.8667 0.338993 21.4232 0.701326 21.6703 1.24945C21.6703 1.24945 21.6703 1.24946 21.6703 1.24946L3.36558 6.0527ZM18.7965 9.50431H9.65344C7.03394 9.50431 4.64458 9.50756 2.90515 9.5128C2.03551 9.51543 1.32798 9.51855 0.835263 9.52201C0.659412 9.52324 0.510569 9.52453 0.391312 9.52585C0.411977 9.4531 0.44174 9.3673 0.480466 9.27458C0.554221 9.09798 0.644116 8.93537 0.721648 8.83485C0.896664 8.60796 1.25957 8.38647 1.59561 8.31801C1.60062 8.3177 1.61082 8.31708 1.62798 8.31637C1.66218 8.31494 1.71103 8.31348 1.77462 8.31203C1.9014 8.30915 2.08061 8.30645 2.30556 8.30394C2.75512 8.29893 3.38321 8.29475 4.13091 8.29139C5.6261 8.28468 7.5972 8.2813 9.56978 8.28127C11.5424 8.28124 13.5159 8.28455 15.0159 8.29121C15.7661 8.29454 16.3972 8.29871 16.8504 8.3037C17.0772 8.3062 17.2584 8.3089 17.3873 8.31178C17.452 8.31322 17.5021 8.31468 17.5376 8.31612C17.5619 8.31711 17.5734 8.31791 17.5765 8.31806C17.8758 8.371 18.1774 8.54537 18.4119 8.7939C18.6162 9.01037 18.7509 9.26283 18.7965 9.50431ZM0.00822052 9.66579L0.00822919 9.66579L0.00822052 9.66579ZM18.8589 16.6898V18.72C18.8589 19.4793 18.8549 20.0957 18.8474 20.5421C18.8437 20.7656 18.8391 20.9448 18.8338 21.0775C18.8312 21.1439 18.8284 21.197 18.8256 21.2372C18.8242 21.2573 18.8229 21.273 18.8217 21.2848C18.8204 21.2975 18.8197 21.3023 18.8197 21.3018C18.7034 21.989 18.2216 22.4914 17.621 22.6097C17.6265 22.6087 17.6248 22.6088 17.6122 22.6096C17.5962 22.6106 17.5626 22.6127 17.5034 22.6149C17.4126 22.6183 17.2838 22.6216 17.1143 22.6245C16.7759 22.6305 16.2819 22.6353 15.6205 22.6392C14.298 22.6468 12.3103 22.6502 9.56672 22.65C9.16756 22.65 8.788 22.65 8.42705 22.6499C4.90771 22.6499 3.1566 22.6499 2.23832 22.6241C1.7261 22.6097 1.50132 22.5875 1.3802 22.561C1.30662 22.5449 1.28718 22.5339 1.21856 22.4949C1.19797 22.4832 1.17295 22.4689 1.14072 22.4513L0.9728 22.7584L1.14071 22.4513C0.833752 22.2835 0.606779 22.0091 0.434019 21.5138L0.434013 21.5138L0.350397 21.2741V18.8659C0.350397 18.1881 0.35344 17.5693 0.358331 17.1183C0.36005 16.9599 0.36199 16.8228 0.364092 16.7115C0.479555 16.7102 0.62428 16.7089 0.796176 16.7077C1.28503 16.7042 1.99071 16.7011 2.86094 16.6984C4.60125 16.6931 6.99822 16.6898 9.63171 16.6898H18.8589ZM5.99033 19.4212L5.99021 19.4211C5.85072 19.3609 5.69529 19.3431 5.43122 19.3331C5.15823 19.3228 4.71661 19.3208 3.969 19.3212C3.18197 19.3216 2.74063 19.3234 2.47782 19.3349C2.21251 19.3464 2.07801 19.3688 1.93461 19.439L1.93455 19.439C1.46641 19.6685 1.23525 20.1916 1.36556 20.6939L1.70435 20.606L1.36556 20.6939C1.40825 20.8584 1.49551 21.0119 1.59743 21.1349C1.69799 21.2563 1.83361 21.373 1.99303 21.4379L1.9931 21.4379C2.05028 21.4611 2.11199 21.4687 2.13554 21.4715L2.1373 21.4717C2.17406 21.4762 2.21767 21.4798 2.26549 21.4829C2.36188 21.4891 2.49155 21.494 2.6509 21.4979C2.97049 21.5058 3.42229 21.5097 3.99309 21.5095C4.85816 21.5091 5.30962 21.5089 5.56206 21.4958C5.68775 21.4893 5.78956 21.4787 5.87809 21.4546C5.97832 21.4273 6.04422 21.3871 6.08851 21.36L6.09042 21.3588C6.25206 21.26 6.38804 21.1321 6.47987 20.9612C6.57082 20.7919 6.60431 20.6066 6.60431 20.4153C6.60431 19.9851 6.39354 19.5954 5.99033 19.4212ZM0.443588 14.479C0.409155 14.4794 0.378035 14.4799 0.350397 14.4803V13.1251V11.738H9.60462H18.8589V13.0971V14.4561L9.81781 14.4565C7.23505 14.4566 4.86297 14.4598 3.12178 14.4649C2.25124 14.4674 1.5381 14.4704 1.03509 14.4737C0.783675 14.4754 0.584187 14.4771 0.443588 14.479Z" stroke="#383F43" stroke-width="0.7"/>
</svg>
