<svg width="10" height="10" viewBox="0 0 10 10" fill="none" xmlns="http://www.w3.org/2000/svg">
<path fill-rule="evenodd" clip-rule="evenodd" d="M8.79935 0.0106453C8.94806 0.0492253 9.03809 0.122328 9.47041 0.555476C9.97741 1.06343 9.99596 1.09175 9.99583 1.35739C9.99568 1.64118 10.2845 1.33395 6.08159 5.52183L2.28377 9.30611L1.22073 9.65305C0.636052 9.84387 0.141255 10 0.121201 10C0.0659056 10 0 9.92305 0 9.85853C0 9.82695 0.148625 9.33262 0.330289 8.75999L0.660576 7.71884L0.970915 7.40406C1.14161 7.23094 2.85847 5.51807 4.78617 3.59769C7.59953 0.795029 8.31106 0.096867 8.39227 0.0593381C8.50295 0.0081854 8.69935 -0.015299 8.79935 0.0106453ZM8.52404 0.327002C8.47036 0.351979 8.25328 0.551965 7.93117 0.87322L7.42301 1.38006L8.02111 1.97383L8.61921 2.56761L9.12896 2.06313C9.40931 1.78566 9.65235 1.5331 9.66904 1.50187C9.72092 1.40487 9.7079 1.254 9.63846 1.14753C9.55239 1.01551 8.87727 0.358307 8.78842 0.320064C8.69039 0.277867 8.62601 0.279549 8.52404 0.327002ZM1.02178 7.76871C1.01886 7.77609 1.2857 8.04755 1.61476 8.37199L2.21307 8.96187L5.31413 5.87389L8.41519 2.78591L7.81491 2.18969L7.2146 1.59346L4.12087 4.67438C2.4193 6.36887 1.02473 7.76133 1.02178 7.76871ZM0.615638 8.84201C0.486094 9.25161 0.382725 9.59278 0.385943 9.60015C0.389162 9.60753 0.73834 9.50063 1.16192 9.36258L1.93205 9.11161L1.40608 8.58913C1.11679 8.30176 0.873582 8.07352 0.865641 8.08195C0.857677 8.09038 0.745182 8.43241 0.615638 8.84201Z" fill="#5C4C52"/>
</svg>
