<svg width="25" height="25" viewBox="0 0 25 25" fill="none" xmlns="http://www.w3.org/2000/svg">
<circle cx="12.5" cy="12.5" r="12.5" fill="#757D7F"/>
<g clip-path="url(#clip0_1931_166865)">
<path d="M7.14307 18.75H10.7145L10.7145 6.25L7.14307 6.25L7.14307 18.75ZM14.2859 6.25L14.2859 18.75H17.8574V6.25L14.2859 6.25Z" fill="white"/>
</g>
<path d="M25 12.5C25 15.8152 23.683 18.9946 21.3388 21.3388C18.9946 23.683 15.8152 25 12.5 25C9.18479 25 6.00537 23.683 3.66117 21.3388C1.31696 18.9946 5.00582e-07 15.8152 0 12.5L12.5 12.5L25 12.5Z" fill="#757D7F"/>
<path fill-rule="evenodd" clip-rule="evenodd" d="M10.7143 18.75H7.14287V12.5L0 12.5C0 15.8152 1.31696 18.9946 3.66117 21.3388C6.00537 23.683 9.1848 25 12.5 25C15.8152 25 18.9946 23.683 21.3388 21.3388C23.683 18.9946 25 15.8152 25 12.5H17.8572V18.75H14.2857V12.5H12.5L10.7143 12.5V18.75Z" fill="white"/>
<circle cx="12.5" cy="12.5" r="12.25" stroke="#757D7F" stroke-width="0.5"/>
<defs>
<clipPath id="clip0_1931_166865">
<rect width="12.5" height="12.5" fill="white" transform="translate(6.25 6.25)"/>
</clipPath>
</defs>
</svg>
