<svg width="10" height="10" viewBox="0 0 10 10" fill="none" xmlns="http://www.w3.org/2000/svg">
<path d="M2.33789 0.310547C2.9043 0.310547 3.33984 0.542969 3.64453 1.00781C3.94922 1.47266 4.10156 2.14258 4.10156 3.01758C4.10156 3.88867 3.95117 4.55273 3.65039 5.00977C3.35352 5.46289 2.92188 5.68945 2.35547 5.68945C1.79297 5.68945 1.36133 5.45703 1.06055 4.99219C0.759766 4.52344 0.609375 3.85547 0.609375 2.98828C0.609375 1.20312 1.18555 0.310547 2.33789 0.310547ZM3 9H2.13867L6.89062 0.433594H7.75195L3 9ZM2.33789 1.00781C2.01758 1.00781 1.7832 1.16992 1.63477 1.49414C1.49023 1.81445 1.41797 2.3125 1.41797 2.98828C1.41797 3.66406 1.49023 4.16602 1.63477 4.49414C1.7832 4.81836 2.01758 4.98047 2.33789 4.98047C2.97852 4.98047 3.29883 4.31836 3.29883 2.99414C3.29883 1.66992 2.97852 1.00781 2.33789 1.00781ZM5.76562 6.41016C5.76562 5.53125 5.91211 4.86719 6.20508 4.41797C6.49805 3.96875 6.92578 3.74414 7.48828 3.74414C8.05469 3.74414 8.49219 3.97656 8.80078 4.44141C9.10938 4.90234 9.26367 5.57031 9.26367 6.44531C9.26367 7.31641 9.11328 7.98047 8.8125 8.4375C8.51562 8.89062 8.08398 9.11719 7.51758 9.11719C6.95117 9.11719 6.51758 8.88477 6.2168 8.41992C5.91602 7.95508 5.76562 7.28516 5.76562 6.41016ZM8.46094 6.43359C8.46094 5.75781 8.38281 5.25977 8.22656 4.93945C8.07031 4.61523 7.82812 4.45312 7.5 4.45312C7.17578 4.45312 6.93945 4.61328 6.79102 4.93359C6.64648 5.25 6.57422 5.74805 6.57422 6.42773C6.57422 7.10352 6.64648 7.60547 6.79102 7.93359C6.93945 8.25781 7.17578 8.41992 7.5 8.41992C7.82812 8.41992 8.07031 8.25781 8.22656 7.93359C8.38281 7.60547 8.46094 7.10547 8.46094 6.43359Z" fill="#A0627B"/>
</svg>
