<svg width="14" height="14" viewBox="0 0 14 14" fill="none" xmlns="http://www.w3.org/2000/svg">
<path d="M5.37803 6.07519L5.48624 5.96698L5.43909 5.82139C4.94753 4.30351 5.342 2.63091 6.47673 1.49618C8.1383 -0.165377 10.8423 -0.1654 12.5038 1.49615C14.1654 3.15771 14.1654 5.86173 12.5038 7.52326L12.5038 7.52332C11.371 8.65683 9.72984 9.02269 8.20972 8.52988L8.06518 8.48302L7.95703 8.58975L6.90519 9.62766L6.90398 9.62886C6.8739 9.65895 6.83332 9.67579 6.79081 9.67579H6.04098H5.79098V9.92579V10.6895C5.79098 10.7346 5.77173 10.7782 5.73741 10.8091C5.70017 10.8419 5.65537 10.8542 5.617 10.8491L5.617 10.849L5.61246 10.8485L4.98921 10.776L4.73539 10.7465L4.71143 11.0009L4.63011 11.8644L4.6301 11.8645C4.6229 11.9412 4.5626 12.0015 4.48592 12.0087L4.48586 12.0087L3.62228 12.09L3.36803 12.114L3.39738 12.3677L3.46948 12.9909C3.47513 13.0397 3.45818 13.0882 3.42369 13.1226L3.42363 13.1227L2.84367 13.7031C2.84366 13.7031 2.84365 13.7031 2.84364 13.7031C2.81356 13.7332 2.77299 13.75 2.7305 13.75H0.410157C0.32152 13.75 0.25 13.6785 0.25 13.5898V11.2695C0.25 11.227 0.26682 11.1864 0.296952 11.1563L5.37803 6.07519ZM11.697 4.3965L11.5203 4.21972L11.6971 4.3965C12.2745 3.81902 12.2745 2.88048 11.697 2.30298C11.1196 1.7255 10.181 1.7255 9.60353 2.30298C9.02604 2.88047 9.02604 3.81902 9.60353 4.3965C10.181 4.97399 11.1196 4.97399 11.697 4.3965Z" stroke="#A0627B" stroke-width="0.5"/>
</svg>
