<svg width="14" height="14" viewBox="0 0 14 14" fill="none" xmlns="http://www.w3.org/2000/svg">
<path fill-rule="evenodd" clip-rule="evenodd" d="M6.71181 0.0358605C6.48519 0.0908988 6.31221 0.189979 6.13647 0.365352C5.95762 0.543871 5.84939 0.740362 5.79963 0.976983C5.77857 1.07702 5.76913 1.84222 5.76913 3.44578V5.76961H3.44515C1.8415 5.76961 1.07625 5.77905 0.976204 5.80011C0.739815 5.84982 0.543038 5.95812 0.364207 6.13694C-0.121402 6.62252 -0.121402 7.38011 0.364207 7.86348C0.542709 8.04115 0.740553 8.1501 0.976204 8.20055C1.07783 8.22229 1.81611 8.23157 3.44515 8.23157H5.76913V10.5554C5.76913 12.159 5.77857 12.9242 5.79963 13.0242C5.84948 13.2612 5.95756 13.4573 6.13647 13.6354C6.62457 14.1212 7.37989 14.1216 7.86312 13.6362C8.0408 13.4577 8.14977 13.2598 8.20021 13.0242C8.22196 12.9226 8.23123 12.1843 8.23123 10.5554V8.23157H10.5552C12.1589 8.23157 12.9241 8.22213 13.0242 8.20107C13.2611 8.15123 13.4573 8.04315 13.6354 7.86424C14.1212 7.3762 14.1216 6.62235 13.6362 6.13694C13.4553 5.95609 13.2427 5.83945 13.0153 5.79631C12.9306 5.78025 11.9487 5.76961 10.5528 5.76961H8.23123V3.44578C8.23123 1.84222 8.2218 1.07702 8.20073 0.976983C8.15102 0.740608 8.04272 0.543844 7.86389 0.365024C7.55164 0.0527933 7.13365 -0.0666115 6.71181 0.0358605Z" fill="#57B88B"/>
</svg>
