<svg width="28" height="28" viewBox="0 0 28 28" fill="none" xmlns="http://www.w3.org/2000/svg">
<path d="M14.0003 0.666656C6.63614 0.666656 0.666992 6.63581 0.666992 14C0.666992 21.3642 6.63614 27.3333 14.0003 27.3333C21.3645 27.3333 27.3337 21.3633 27.3337 14C27.3337 6.63668 21.3645 0.666656 14.0003 0.666656ZM14.0003 25.6667C7.55697 25.6667 2.33366 20.4433 2.33366 14C2.33366 7.55663 7.55697 2.33332 14.0003 2.33332C20.4437 2.33332 25.667 7.55663 25.667 14C25.667 20.4433 20.4437 25.6667 14.0003 25.6667ZM19.0003 13.1667L14.8337 13.1667V8.99999C14.8337 8.53999 14.4603 8.16666 14.0003 8.16666C13.5403 8.16666 13.167 8.53999 13.167 8.99999V13.1667H9.00033C8.54032 13.1667 8.16699 13.54 8.16699 14C8.16699 14.46 8.54032 14.8333 9.00033 14.8333H13.167L13.167 19C13.167 19.46 13.5403 19.8333 14.0003 19.8333C14.4603 19.8333 14.8337 19.46 14.8337 19L14.8337 14.8333L19.0003 14.8333C19.4603 14.8333 19.8337 14.46 19.8337 14C19.8337 13.54 19.4603 13.1667 19.0003 13.1667Z" fill="#BA8EF2"/>
</svg>
