<svg width="18" height="14" viewBox="0 0 18 14" fill="none" xmlns="http://www.w3.org/2000/svg">
<path fill-rule="evenodd" clip-rule="evenodd" d="M8.51185 1.00624C6.68828 1.13709 5.11683 1.6478 3.56323 2.61444C1.75559 3.73912 0.326641 5.4158 0.0430617 6.74481C-0.0686302 7.26826 0.0436416 8.03663 0.302439 8.51985C0.56429 9.00873 1.01129 9.46623 1.54605 9.79263L1.87676 9.99449L1.87699 10.5267C1.87718 10.9568 1.89222 11.1046 1.95528 11.2974C2.35291 12.5127 4.11821 13.2274 7.21013 13.425C7.9769 13.474 9.84867 13.4736 10.6389 13.4243C13.8688 13.2228 15.604 12.4743 15.8984 11.1554C15.9284 11.0212 15.9531 10.7041 15.9534 10.4483L15.9541 9.98451L16.2233 9.83267C17.1845 9.29054 17.7709 8.56111 17.9447 7.69118C18.0193 7.31821 18.0185 7.07106 17.9418 6.71724C17.7568 5.86405 17.0786 4.83792 16.0643 3.87672C14.4448 2.34211 12.2356 1.30272 10.0776 1.06023C9.69546 1.01729 8.7921 0.986164 8.51185 1.00624ZM10.1163 1.2643C11.2422 1.39687 12.5615 1.82008 13.6115 2.3856C15.4326 3.36629 16.9416 4.81865 17.5601 6.1859C17.8872 6.90894 17.8757 7.60115 17.5249 8.30617C17.2831 8.79208 16.7232 9.34005 16.1436 9.65804L15.9541 9.76198L15.954 9.45618C15.954 9.1184 15.8902 8.947 15.7221 8.83315C15.5637 8.72583 13.5474 8.36266 12.3006 8.21687C11.0395 8.06944 10.6297 8.04925 8.89846 8.0494C7.17035 8.04955 6.85855 8.06518 5.55428 8.2172C4.44192 8.34684 2.3156 8.72077 2.10625 8.82353C1.93459 8.9078 1.88147 9.04969 1.88147 9.42377C1.88147 9.60647 1.86682 9.75593 1.84888 9.75593C1.77891 9.75593 1.26491 9.38494 1.04299 9.17426C0.474674 8.63473 0.207681 8.01956 0.204317 7.2418C0.202113 6.73189 0.266832 6.49692 0.568234 5.9205C1.42052 4.2905 3.44087 2.65055 5.60434 1.83256C7.11626 1.26088 8.55179 1.08009 10.1163 1.2643ZM8.76183 2.80496C8.47442 3.08519 8.32079 3.14766 7.91651 3.14865L7.59175 3.14945L7.17228 3.54188C6.94155 3.75773 6.75277 3.95027 6.75277 3.96976C6.75277 3.98925 6.82178 4.09014 6.90618 4.19394C7.14154 4.48359 7.17796 4.59759 7.1787 5.04764C7.17997 5.78221 7.33678 6.20524 7.75502 6.60229C8.04509 6.87767 8.31657 7.01519 8.74401 7.10324C9.00694 7.15742 9.04827 7.1572 9.29191 7.10012C10.0132 6.93115 10.4476 6.57737 10.6953 5.9572C10.7676 5.77633 10.7878 5.63206 10.8087 5.14975C10.8361 4.51626 10.8387 4.50763 11.0956 4.18395L11.2505 3.98888L10.8345 3.59271L10.4185 3.19654L10.0599 3.17625C9.61864 3.15125 9.46345 3.08302 9.21188 2.80349C9.11063 2.69096 9.01549 2.59891 9.00049 2.59891C8.98545 2.59891 8.87805 2.69163 8.76183 2.80496ZM9.1709 3.04386C9.38582 3.25666 9.59923 3.33829 9.99713 3.35983L10.3289 3.37778L10.6651 3.69214L11.0013 4.00646L10.8873 4.1431C10.6668 4.40736 10.6207 4.55828 10.6191 5.02129C10.6162 5.88064 10.3597 6.39015 9.76257 6.72234C9.50439 6.866 9.0521 6.96715 8.83795 6.92916C8.18377 6.81315 7.69977 6.42832 7.48517 5.85348C7.41882 5.67588 7.39767 5.52375 7.38731 5.14975C7.37142 4.57796 7.33323 4.42927 7.14011 4.187L6.99305 4.00257L7.3272 3.69041L7.6613 3.37826L7.9994 3.35741C8.40275 3.33253 8.60645 3.25464 8.81932 3.04386C8.90337 2.96062 8.98247 2.89254 8.99511 2.89254C9.00775 2.89254 9.08685 2.96062 9.1709 3.04386ZM8.67797 3.8606C8.43097 4.33172 8.51135 4.28246 7.85461 4.36482C7.66324 4.38883 7.49885 4.41474 7.4893 4.42245C7.47979 4.43012 7.63057 4.58864 7.82438 4.77472L8.17677 5.11304L8.09872 5.54665C8.0558 5.78514 8.02932 5.98847 8.03987 5.99853C8.05047 6.00855 8.25328 5.92428 8.49062 5.81127L8.9222 5.60581L9.37063 5.83289C9.78422 6.04235 9.81716 6.05314 9.79462 5.97189C9.78121 5.92344 9.74023 5.70575 9.70358 5.48811L9.637 5.09245L9.98093 4.76441C10.1701 4.58398 10.3171 4.42968 10.3076 4.42153C10.2981 4.41338 10.0815 4.3784 9.82633 4.34383C9.57116 4.30926 9.36003 4.27824 9.35713 4.27494C9.35427 4.2716 9.25406 4.0831 9.13452 3.85598C9.01498 3.6289 8.91257 3.44307 8.90704 3.44307C8.90147 3.44307 8.7984 3.63096 8.67797 3.8606ZM9.07062 4.17371L9.22433 4.46396L9.57646 4.50962L9.92858 4.55531L9.67474 4.79817L9.42085 5.04103L9.47803 5.34978C9.5095 5.5196 9.52767 5.66571 9.51847 5.67445C9.50926 5.68322 9.36827 5.62204 9.20516 5.5385L8.90859 5.38666L8.61801 5.53545C8.45819 5.6173 8.31924 5.6765 8.30926 5.66703C8.29929 5.65753 8.3163 5.50848 8.34707 5.33579L8.40302 5.0218L8.15779 4.79828C8.02294 4.67533 7.9126 4.57021 7.9126 4.56467C7.9126 4.55913 8.06624 4.53465 8.25402 4.51028L8.59547 4.46598L8.74505 4.17474C8.82728 4.01457 8.89962 3.88351 8.90577 3.88351C8.91191 3.88351 8.9861 4.01409 9.07062 4.17371ZM11.3341 8.30401C12.59 8.42168 13.2729 8.51982 14.6976 8.78734C15.3597 8.91165 15.6066 8.97255 15.6641 9.02573C15.7359 9.09205 15.7423 9.1536 15.7533 9.88534C15.7627 10.5149 15.7549 10.6735 15.7146 10.6735C15.6868 10.6734 15.2377 10.5922 14.7164 10.4929C11.2239 9.82753 8.24802 9.73192 4.95503 10.1793C4.43299 10.2502 2.74775 10.5407 2.1811 10.6574L2.07478 10.6793V9.88728C2.07478 9.16421 2.08104 9.08933 2.14665 9.02705C2.19973 8.97666 2.48517 8.90953 3.23883 8.77028C4.70737 8.4989 5.64923 8.37059 6.7721 8.289C7.06979 8.26734 7.39164 8.24356 7.48733 8.23614C7.94898 8.20029 10.7556 8.2498 11.3341 8.30401ZM10.3096 10.1236C11.7975 10.2012 12.9195 10.341 14.6343 10.6627L15.7308 10.8683L15.7128 11.0466C15.7025 11.1484 15.634 11.3417 15.5532 11.4969C14.9437 12.6677 12.6747 13.2767 8.91412 13.2788C4.73984 13.2811 2.41125 12.5348 2.1071 11.097C2.08325 10.9843 2.07056 10.8857 2.07892 10.8781C2.09937 10.8594 4.24154 10.4693 4.70373 10.4001C6.46184 10.1369 8.56992 10.0328 10.3096 10.1236Z" fill="#383F43"/>
</svg>
