<svg width="27" height="20" viewBox="0 0 27 20" fill="none" xmlns="http://www.w3.org/2000/svg">
<path d="M14.0005 12.8275L14.5535 12.2755C15.4815 11.3475 16.0028 10.0888 16.0028 8.77646C16.0028 7.46408 15.4815 6.20545 14.5535 5.27746C13.6255 4.34947 12.3669 3.82813 11.0545 3.82812C9.74209 3.82813 8.48347 4.34947 7.55547 5.27746L2.44947 10.3815C1.75739 11.0735 1.28606 11.9551 1.0951 12.915C0.904144 13.8749 1.00213 14.8699 1.37667 15.774C1.75121 16.6782 2.38548 17.451 3.19927 17.9947C4.01305 18.5384 4.96978 18.8286 5.94847 18.8285C6.59869 18.8303 7.24281 18.7032 7.84358 18.4545C8.44435 18.2057 8.98983 17.8404 9.44847 17.3795" stroke="#383F43" stroke-width="0.8"/>
<path d="M18.2342 15.6028C16.0718 17.3202 12.9266 16.9594 11.2092 14.797C9.49183 12.6346 9.85259 9.48936 12.015 7.77197" stroke="#383F43" stroke-width="0.5" stroke-dasharray="1 1"/>
<path d="M23.1934 10.7924C25.255 8.95528 25.4369 5.79469 23.5998 3.73307C21.7626 1.67145 18.602 1.48949 16.5404 3.32666" stroke="#383F43" stroke-width="0.5" stroke-dasharray="1 1"/>
<path d="M23.2416 10.0259L22.3531 10.9472L22.9457 11.9051L23.9258 10.7983L23.2416 10.0259Z" fill="#383F43"/>
<path d="M17.3418 15.5522L18.4282 14.6846L19.4244 15.4443L18.1269 16.391L17.3418 15.5522Z" fill="#383F43"/>
<rect x="19.3623" y="13.8203" width="3.05571" height="1.07677" transform="rotate(-43.5527 19.3623 13.8203)" fill="#383F43"/>
</svg>
