<svg width="10" height="12" viewBox="0 0 10 12" fill="none" xmlns="http://www.w3.org/2000/svg">
<path d="M5.00134 11.1214L3.33838 10.0815C2.31883 9.44391 1.47248 8.55644 0.88963 7.51417C0.30809 6.47186 0 5.29181 0 4.102V2.2295L0.253653 2.15392C1.22125 1.86743 1.98343 1.12989 2.29277 0.181471L2.3336 0.0546875H7.6664L7.70723 0.181471C8.01532 1.12991 8.77753 1.86745 9.74635 2.15392L10 2.2295V4.102C10 5.29181 9.69191 6.47182 9.11037 7.51417C8.52883 8.55648 7.6825 9.44396 6.66162 10.0815L5.00134 11.1214ZM0.372414 2.50119V4.10184C0.372414 6.41437 1.55529 8.5343 3.53748 9.77305L5.00123 10.6874L6.46498 9.77184C8.44717 8.53328 9.63004 6.41339 9.63004 4.10064V2.50122C8.59317 2.19036 7.76911 1.41869 7.39914 0.42025H2.6021C2.23337 1.41867 1.40809 2.19034 0.372436 2.50122L0.372414 2.50119Z" fill="#A0627B"/>
<path d="M4.28126 6.88818L2.69873 5.32899L2.96105 5.07054L4.28129 6.3713L7.04181 3.65039L7.30413 3.90884L4.28126 6.88818Z" fill="#A0627B"/>
</svg>
