<svg width="15" height="15" viewBox="0 0 15 15" fill="none" xmlns="http://www.w3.org/2000/svg">
<circle cx="7.5" cy="7.5" r="7.25" stroke="#383F43" stroke-width="0.5"/>
<path d="M8.04433 3.05811L8.04431 3.05811C7.74047 3.12883 7.49198 3.36515 7.41141 3.64895L7.41141 3.64896C7.39835 3.69492 7.38745 3.77291 7.38481 3.86277C7.38217 3.95232 7.38836 4.0325 7.39901 4.08205L8.04433 3.05811ZM8.04433 3.05811C8.07444 3.05109 8.14687 3.0465 8.24036 3.05363C8.33237 3.06065 8.40947 3.07632 8.44758 3.09055C8.52973 3.12124 8.57801 3.14574 8.61929 3.17443C8.66175 3.20394 8.70713 3.24507 8.776 3.32065C8.93487 3.49502 9 3.6631 9 3.90582C9 4.28266 8.73355 4.62273 8.37883 4.70978C8.24848 4.74176 8.04475 4.72958 7.91704 4.68157L7.91703 4.68157M8.04433 3.05811L7.91703 4.68157M7.91703 4.68157C7.66732 4.58772 7.45478 4.34128 7.39902 4.08207L7.91703 4.68157ZM8.19588 12.0486C8.45782 11.9519 8.98995 11.7257 9.01094 11.7021M8.19588 12.0486L8.10933 11.814L9.01094 11.7021M8.19588 12.0486C7.92118 12.1499 7.7824 12.1736 7.45434 12.175C6.94107 12.1772 6.63195 12.0654 6.37421 11.7843L6.63135 9.24619C6.39887 10.1517 6.35092 10.3805 6.32201 10.6783M8.19588 12.0486L8.10931 11.814M9.01094 11.7021C9.01908 11.6929 9.04726 11.5835 9.07411 11.4675C8.99468 11.4975 8.91254 11.522 8.83007 11.541C8.83002 11.541 8.82998 11.541 8.82993 11.541C8.82575 11.542 8.82157 11.5429 8.8174 11.5439C8.79892 11.5666 8.7894 11.5866 8.78789 11.5898L8.78774 11.5902C8.78418 11.5975 8.78214 11.6029 8.78168 11.6041C8.78127 11.6051 8.78106 11.6057 8.78106 11.6057C8.78106 11.6057 8.78155 11.6043 8.78257 11.601C8.7857 11.5909 8.79037 11.5742 8.79638 11.5512C8.79663 11.5502 8.79689 11.5492 8.79715 11.5482C8.77316 11.5533 8.74916 11.5579 8.72523 11.562M9.01094 11.7021L8.10931 11.814M8.10931 11.814C7.97884 11.8622 7.89165 11.8877 7.80309 11.9028C7.71325 11.9182 7.61259 11.9243 7.45327 11.925C7.21346 11.926 7.0398 11.9001 6.90348 11.8508C6.77119 11.803 6.66266 11.729 6.55847 11.6154L6.55846 11.6154C6.35917 11.398 6.27695 11.1425 6.32201 10.6783M8.10931 11.814C8.23481 11.7677 8.42912 11.6888 8.59596 11.6178C8.64246 11.5981 8.68622 11.5792 8.72523 11.562M6.32201 10.6783L6.07318 10.6541L6.32201 10.6783ZM8.72523 11.562C8.75378 11.5495 8.77979 11.5379 8.80246 11.5276C8.81299 11.486 8.82505 11.4355 8.83668 11.3844C8.84539 11.3462 8.85364 11.3086 8.86067 11.275M8.72523 11.562C8.66344 11.5727 8.60203 11.5801 8.54201 11.5843C8.36192 11.597 8.17168 11.582 8.01596 11.5169M8.86067 11.275C8.58506 11.354 8.29089 11.3609 8.11234 11.2863M8.86067 11.275L6.98049 5.98866C7.36049 5.94506 7.69353 5.99863 7.96976 6.1478C8.06332 6.19834 8.13018 6.25419 8.23747 6.3715C8.51709 6.67721 8.58695 6.98929 8.51885 7.6282C8.49 7.89883 8.46013 8.03154 8.1948 9.06781C7.90143 10.2136 7.86472 10.3982 7.86297 10.7367C7.86186 10.9521 7.86625 10.9949 7.89679 11.0668M8.86067 11.275L8.01596 11.5169M8.11234 11.2863C8.00041 11.2395 7.9472 11.1853 7.89679 11.0668M8.11234 11.2863L8.01596 11.5169M8.11234 11.2863L8.01596 11.5169M7.89679 11.0668L7.66672 11.1646M7.89679 11.0668L7.66673 11.1646L7.66672 11.1646M5.9695 6.56944L5.90252 6.5977C6.17732 6.54505 6.45308 6.55647 6.66446 6.66607C6.66447 6.66607 6.66448 6.66608 6.66448 6.66608L5.9695 6.56944ZM5.9695 6.56944C5.9695 6.56944 5.9695 6.56944 5.96951 6.56944C6.4749 6.35627 6.77954 6.26335 7.00898 6.23703C7.34939 6.19798 7.62879 6.24781 7.85094 6.36776L5.9695 6.56944ZM7.66672 11.1646C7.61303 11.0383 7.61189 10.9445 7.61297 10.7354C7.61491 10.3599 7.66143 10.1431 7.95261 9.0058C8.21957 7.96316 8.24376 7.85031 8.27026 7.6017C8.30331 7.29166 8.29961 7.08592 8.2646 6.92952C8.23156 6.78197 8.16778 6.66573 8.05299 6.54023L8.05298 6.54022C7.95621 6.4344 7.91097 6.40019 7.85097 6.36778L7.66672 11.1646ZM7.66672 11.1646C7.69865 11.2397 7.73951 11.3138 7.80311 11.3786C7.86757 11.4442 7.94096 11.4856 8.01594 11.5169L7.66672 11.1646ZM9.08282 11.4294C9.08433 11.4227 9.08583 11.4161 9.08732 11.4094C9.08732 11.4094 9.08733 11.4094 9.08733 11.4093C9.11293 11.2948 9.13374 11.1891 9.12894 11.1839C9.12627 11.1809 9.07398 11.1986 9.01272 11.2231C8.97354 11.2388 8.93339 11.2529 8.89272 11.2655C8.89996 11.2866 8.91463 11.3197 8.94373 11.3518L9.03215 11.2716L9.03216 11.2716L9.12886 11.1839L9.03232 11.272L9.03231 11.272L8.94425 11.3523C8.9874 11.3996 9.03631 11.4172 9.05901 11.4238C9.06751 11.4262 9.07552 11.4281 9.08282 11.4294Z" stroke="#383F43" stroke-width="0.5"/>
</svg>
