<svg width="15" height="15" viewBox="0 0 15 15" fill="none" xmlns="http://www.w3.org/2000/svg">
<circle cx="7.5" cy="7.5" r="7.25" stroke="#A0627B" stroke-width="0.5"/>
<path d="M8.04433 3.05811L8.04431 3.05811C7.74047 3.12883 7.49198 3.36515 7.41141 3.64895L7.41141 3.64896C7.39835 3.69492 7.38745 3.77291 7.38481 3.86277C7.38217 3.95232 7.38836 4.0325 7.39901 4.08205L8.04433 3.05811ZM8.04433 3.05811C8.07444 3.05109 8.14687 3.0465 8.24036 3.05363C8.33237 3.06065 8.40947 3.07632 8.44758 3.09055C8.52973 3.12124 8.57801 3.14574 8.61929 3.17443C8.66175 3.20394 8.70713 3.24507 8.77601 3.32066C8.93487 3.49502 9 3.6631 9 3.90582C9 4.28266 8.73356 4.62273 8.37884 4.70978C8.24849 4.74176 8.04475 4.72958 7.91704 4.68157L7.91703 4.68157M8.04433 3.05811L7.91703 4.68157M7.91703 4.68157C7.66732 4.58772 7.45478 4.34128 7.39902 4.08207L7.91703 4.68157ZM5.90252 6.5977C6.17732 6.54505 6.45308 6.55647 6.66446 6.66607L5.90252 6.5977ZM5.90252 6.5977L5.9695 6.56944C5.9695 6.56944 5.9695 6.56944 5.96951 6.56944C6.4749 6.35627 6.77955 6.26335 7.00898 6.23703C7.34941 6.19797 7.62882 6.24781 7.85097 6.36778C7.91097 6.40019 7.95621 6.4344 8.05298 6.54022L8.05299 6.54023C8.16778 6.66573 8.23156 6.78197 8.2646 6.92952C8.29961 7.08592 8.30331 7.29166 8.27026 7.6017C8.24376 7.85031 8.21957 7.96316 7.95261 9.0058C7.66143 10.1431 7.61491 10.3599 7.61297 10.7354C7.61189 10.9445 7.61303 11.0383 7.66672 11.1646L5.90252 6.5977ZM7.00602 7.42281V7.42283C7.00596 7.74042 6.9346 8.06508 6.63135 9.24619C6.39887 10.1517 6.35092 10.3805 6.32201 10.6783C6.27695 11.1425 6.35917 11.398 6.55846 11.6154L6.55847 11.6154C6.66266 11.729 6.77119 11.803 6.90348 11.8508C7.0398 11.9001 7.21346 11.926 7.45327 11.925C7.61259 11.9243 7.71325 11.9182 7.80309 11.9028C7.89165 11.8877 7.97884 11.8622 8.10931 11.814L7.00602 7.42281ZM7.00602 7.42281C7.00605 7.1158 6.941 6.80945 6.66448 6.66608L7.00602 7.42281ZM8.72523 11.562C8.66344 11.5727 8.60203 11.5801 8.54201 11.5843C8.36192 11.597 8.17167 11.582 8.01594 11.5169M8.72523 11.562L7.66673 11.1646C7.69865 11.2397 7.73952 11.3138 7.80311 11.3786C7.86757 11.4442 7.94096 11.4856 8.01594 11.5169M8.72523 11.562C8.68622 11.5792 8.64246 11.5981 8.59596 11.6178C8.42913 11.6887 8.23482 11.7677 8.10933 11.814L8.72523 11.562ZM8.01594 11.5169L8.11234 11.2863L8.01596 11.5169C8.01595 11.5169 8.01595 11.5169 8.01594 11.5169Z" stroke="#A0627B" stroke-width="0.5"/>
</svg>
