<svg width="88" height="88" viewBox="0 0 88 88" fill="none" xmlns="http://www.w3.org/2000/svg">
<path fill-rule="evenodd" clip-rule="evenodd" d="M0 13.2344V26.4688H2.23438H4.46875V28.6172V30.7656H2.23438H0V33V35.2344H2.23438H4.46875V37.3799V39.5254L8.80859 39.5713L13.1484 39.6172L13.1966 41.8086L13.2447 44H6.62234H0V46.2344V48.4688H6.61719H13.2344V50.6172V52.7656H15.3777H17.5209L17.5691 54.957L17.6172 57.1484L19.8086 57.1966L22 57.2447V55.0052V52.7656H24.2344H26.4688V50.6172V48.4688H30.8516H35.2344V50.6172V52.7656H33H30.7656V55V57.2344H28.6172H26.4688V59.3828V61.5312H19.8516H13.2344V59.3828V57.2344H8.85672H4.47906L4.43094 55.043L4.38281 52.8516L2.19141 52.8034L0 52.7553V54.9948V57.2344H2.23438H4.46875V59.3828V61.5312H2.23438H0V74.7656V88H17.6223H35.2447L35.1966 85.8086L35.1484 83.6172L30.8086 83.5713L26.4688 83.5254V74.7627V66H28.612H30.7553L30.8034 68.1914L30.8516 70.3828L33.043 70.4309L35.2344 70.4791V72.6223V74.7656H33H30.7656V77V79.2344H35.1433H39.5209L39.5691 77.043L39.6172 74.8516L41.8086 74.8034L44 74.7553V77V79.2447L46.1914 79.1966L48.3828 79.1484V77V74.8516L46.1914 74.8034L44 74.7553V72.6172V70.4791L46.1914 70.4309L48.3828 70.3828L48.4309 68.1914L48.4791 66H50.6223H52.7656V70.3828V74.7656H55H57.2344V77V79.2344H59.3828H61.5312V81.3799V83.5254L65.957 83.5713L70.3828 83.6172L70.4309 85.8086L70.4791 88H72.6172H74.7553L74.8034 85.8086L74.8516 83.6172L79.1914 83.5713L83.5312 83.5254V85.7627V88H85.7656H88V83.6172V79.2344H83.6172H79.2344V77V74.7656H77H74.7656V70.3828V66H77H79.2344V68.2344V70.4688H83.6172H88V65.9948V61.5209L85.8086 61.5691L83.6172 61.6172L83.5691 63.8086L83.5209 66H81.3828H79.2447L79.1966 63.8086L79.1484 61.6172L76.957 61.5691L74.7656 61.5209V57.1433V52.7656H77H79.2344V50.6172V48.4688H81.3828H83.5312V46.2344V44H85.7656H88V39.6172V35.2344H85.7656H83.5312V37.3828V39.5312H79.1484H74.7656V37.3828V35.2344H77H79.2344V33V30.7656H77H74.7656V33V35.2344H72.6172H70.4688V30.8516V26.4688H77H83.5312V28.6172V30.7656H85.7656H88V15.3828V0H74.7656H61.5312V2.23438V4.46875H59.3828H57.2344V6.61719V8.76562H59.3813H61.5282L61.5727 17.5742L61.6172 26.3828L63.8086 26.4309L66 26.4791V28.6223V30.7656H63.7656H61.5312V28.6172V26.4688H57.1484H52.7656V24.2344V22H50.6223H48.4791L48.4309 19.8086L48.3828 17.6172L46.1914 17.5691L44 17.5209V19.7605V22H39.6223H35.2447L35.1966 19.8086L35.1484 17.6172L32.957 17.5691L30.7656 17.5209V15.3777V13.2344H28.6172H26.4688V8.85156V4.46875H30.8516H35.2344V6.61719V8.76562H37.3777H39.5209L39.5691 10.957L39.6172 13.1484L46.1914 13.1935L52.7656 13.2385V15.3849V17.5312H55H57.2344V15.3828V13.2344H55H52.7656V8.85156V4.46875H50.6172H48.4688V6.61719V8.76562H44H39.5312V6.61719V4.46875H37.3828H35.2344V2.23438V0H17.6172H0V13.2344ZM44 2.23953V4.47906L46.1914 4.43094L48.3828 4.38281L48.4309 2.19141L48.4791 0H46.2395H44V2.23953ZM22 13.2344V22H13.2344H4.46875V13.2344V4.46875H13.2344H22V13.2344ZM83.5312 13.2344V22H74.7656H66V13.2344V4.46875H74.7656H83.5312V13.2344ZM8.76562 13.1484V17.5312H13.1484H17.5312V13.1484V8.76562H13.1484H8.76562V13.1484ZM70.4688 13.1484V17.5312H74.8516H79.2344V13.1484V8.76562H74.8516H70.4688V13.1484ZM30.7656 22V26.4688H33H35.2344V30.8516V35.2344H28.6172H22V33V30.7656H19.7656H17.5312V33V35.2344H11H4.46875V33V30.7656H6.61719H8.76562V28.6172V26.4688H11H13.2344V28.6172V30.7656H15.3828H17.5312V28.6201V26.4746L21.957 26.4287L26.3828 26.3828L26.4287 21.957L26.4746 17.5312H28.6201H30.7656V22ZM26.4688 28.6172V30.7656H28.6172H30.7656V28.6172V26.4688H28.6172H26.4688V28.6172ZM52.7656 28.6172V30.7656H50.6172H48.4688V35.1484V39.5312H50.6172H52.7656V37.3828V35.2344H55H57.2344V33V30.7656H59.3777H61.5209L61.5691 32.957L61.6172 35.1484L66.043 35.1943L70.4688 35.2402V37.3857V39.5312H72.6172H74.7656V41.7656V44H68.1484H61.5312V41.7656V39.5312H59.3828H57.2344V41.7656V44H52.8516H48.4688V46.2344V48.4688H55H61.5312V50.6172V52.7656H55H48.4688V50.6172V48.4688H46.2344H44V50.6172V52.7656H41.7656H39.5312V50.6172V48.4688H37.3828H35.2344V46.2344V44H32.9948H30.7553L30.8034 41.8086L30.8516 39.6172L35.1914 39.5713L39.5312 39.5254V41.7627V44H44.0052H48.4791L48.4309 41.8086L48.3828 39.6172L46.1914 39.5691L44 39.5209V37.3828V35.2447L41.8086 35.1966L39.6172 35.1484L39.5713 30.8086L39.5254 26.4688H46.1455H52.7656V28.6172ZM26.4309 41.8086L26.4791 44H22.0052H17.5312V41.8803C17.5312 40.7143 17.5842 39.7076 17.6486 39.643C17.7133 39.5783 19.705 39.546 22.0744 39.5713L26.3828 39.6172L26.4309 41.8086ZM22 50.6172V52.7656H19.7656H17.5312V50.6172V48.4688H19.7656H22V50.6172ZM74.7656 50.6172V52.7656H70.3828H66V50.6172V48.4688H70.3828H74.7656V50.6172ZM83.6058 52.991C83.5582 53.1149 83.5414 54.1011 83.5682 55.1824L83.6172 57.1484L85.8086 57.1966L88 57.2447V55.0052V52.7656H85.8462C84.228 52.7656 83.6708 52.8217 83.6058 52.991ZM39.5312 59.3828V61.5312H41.7656H44V59.3828V57.2344H48.3828H52.7656V59.3828V61.5312H50.6172H48.4688V63.7656V66H46.2344H44V68.2395V70.4791L41.8086 70.4309L39.6172 70.3828L39.5713 65.957L39.5254 61.5312H37.3799H35.2344V63.7656V66H33H30.7656V61.6172V57.2344H35.1484H39.5312V59.3828ZM70.4278 63.8086L70.3828 70.3828L63.8086 70.4278L57.2344 70.4729V63.8536V57.2344H63.8536H70.4729L70.4278 63.8086ZM61.6459 61.6459C61.5828 61.7088 61.5312 62.7143 61.5312 63.8803V66H63.7656H66V63.7656V61.5312H63.8803C62.7143 61.5312 61.7088 61.5828 61.6459 61.6459ZM22 74.7656V83.5312H13.2344H4.46875V74.7656V66H13.2344H22V74.7656ZM8.76562 74.8516V79.2344H13.1484H17.5312V74.8516V70.4688H13.1484H8.76562V74.8516ZM74.7656 77V79.2344H68.1484H61.5312V77.1146C61.5312 75.9486 61.5828 74.9432 61.6459 74.8803C61.7088 74.8172 64.6865 74.7656 68.2631 74.7656H74.7656V77ZM39.6459 83.6459C39.5828 83.7088 39.5312 84.7143 39.5312 85.8803V88H41.7656H44V85.7656V83.5312H41.8803C40.7143 83.5312 39.7088 83.5828 39.6459 83.6459ZM48.4688 85.7627V88H52.8567H57.2447L57.1966 85.8086L57.1484 83.6172L52.8086 83.5713L48.4688 83.5254V85.7627Z" fill="black"/>
</svg>
