<svg width="14" height="14" viewBox="0 0 14 14" fill="none" xmlns="http://www.w3.org/2000/svg">
<path d="M1.4 1.3H1.3V1.4V4.1H0.1V0.1H4.107V1.3H1.4ZM1.3 12.6V12.7H1.4H4.107V13.9H0.1V9.9H1.3V12.6ZM12.6 12.7H12.7V12.6V9.9H13.9V13.9H9.9V12.7H12.6ZM12.7 1.4V1.3H12.6H9.9V0.1H13.9V4.1H12.7V1.4Z" stroke="#5C4C52" stroke-width="0.2"/>
<path d="M3.49766 3.39375H3.39766V3.49375V4.89375V4.99375H3.49766H4.89766H4.99766V4.89375V3.49375V3.39375H4.89766H3.49766ZM3.49766 8.99375H3.39766V9.09375V10.4937V10.5938H3.49766H4.89766H4.99766V10.4937V9.09375V8.99375H4.89766H3.49766ZM10.4977 4.99375H10.5977V4.89375V3.49375V3.39375H10.4977H9.09766H8.99766V3.49375V4.89375V4.99375H9.09766H10.4977ZM10.6047 10.5938H11.8047V11.7937H10.6047V10.5938ZM10.4047 10.3937H9.20466V9.19375H10.4047V10.3937ZM9.00466 8.99375H7.80466V7.79375H9.00466V8.99375ZM10.6047 8.99375V7.79375H11.8047V8.99375H10.6047ZM6.19766 6.19375H2.19766V2.19375H6.19766V6.19375ZM6.19766 7.79375V11.7937H2.19766V7.79375H6.19766ZM7.79766 2.19375H11.7977V6.19375H7.79766V2.19375Z" stroke="#5C4C52" stroke-width="0.2"/>
</svg>
