<svg width="10" height="10" viewBox="0 0 10 10" fill="none" xmlns="http://www.w3.org/2000/svg">
<path fill-rule="evenodd" clip-rule="evenodd" d="M3.69055 0.174716C4.67386 -0.0922814 5.71526 -0.0524884 6.67532 0.288767C7.63538 0.630022 8.46828 1.25645 9.06249 2.08417V1.09351C9.06249 0.96918 9.11188 0.849947 9.19978 0.762035C9.28769 0.674124 9.40692 0.624735 9.53124 0.624735C9.65557 0.624735 9.7748 0.674124 9.8627 0.762035C9.95061 0.849947 10 0.96918 10 1.09351V3.74987H7.34372C7.2194 3.74987 7.10017 3.70048 7.01226 3.61257C6.92435 3.52466 6.87496 3.40543 6.87496 3.2811C6.87496 3.15678 6.92435 3.03754 7.01226 2.94963C7.10017 2.86172 7.2194 2.81233 7.34372 2.81233H8.42311C7.93352 2.04635 7.20118 1.46672 6.34325 1.16615C5.48531 0.86559 4.55137 0.861467 3.69081 1.15444C2.83026 1.44742 2.09283 2.02057 1.5965 2.78219C1.10017 3.54382 0.873614 4.44991 0.953083 5.35551C1.03255 6.26112 1.41345 7.1139 2.03484 7.77744C2.65623 8.44097 3.48221 8.87692 4.38064 9.01553C5.27906 9.15415 6.19802 8.98742 6.99049 8.54202C7.78296 8.09662 8.40316 7.39829 8.75186 6.55875C8.7745 6.50054 8.80853 6.44745 8.85197 6.40258C8.89541 6.35771 8.94738 6.32198 9.00482 6.29747C9.06226 6.27297 9.12402 6.26019 9.18647 6.25989C9.24892 6.25959 9.3108 6.27177 9.36848 6.29571C9.42615 6.31966 9.47846 6.35489 9.52234 6.39933C9.56621 6.44378 9.60076 6.49654 9.62396 6.55452C9.64715 6.61251 9.65853 6.67454 9.65742 6.73698C9.65631 6.79942 9.64274 6.86101 9.6175 6.91814C9.29175 7.70226 8.77169 8.3905 8.10636 8.918C7.44102 9.44551 6.65231 9.79488 5.81459 9.93321C4.97686 10.0715 4.11771 9.99423 3.31813 9.70861C2.51854 9.42299 1.80485 8.93845 1.24434 8.30067C0.683831 7.66289 0.29496 6.89287 0.114386 6.0632C-0.0661888 5.23353 -0.032519 4.37154 0.212222 3.55848C0.456962 2.74543 0.904711 2.00809 1.51326 1.41597C2.12181 0.823857 2.87112 0.396467 3.69055 0.174091V0.174716Z" fill="black" fill-opacity="0.8"/>
</svg>
