<svg width="19" height="12" viewBox="0 0 19 12" fill="none" xmlns="http://www.w3.org/2000/svg">
<path fill-rule="evenodd" clip-rule="evenodd" d="M0.725985 0.25875C0.489998 0.402644 0.500062 0.258468 0.500062 3.49842V6.4243L0.586455 6.51066C0.633962 6.55817 0.696531 6.59705 0.725528 6.59705C0.835568 6.59705 0.955392 6.51305 0.99097 6.411C1.01557 6.34041 1.02792 5.36644 1.02792 3.49504V0.685047H6.79916H12.5704V4.96069V9.23634H9.19577H5.82115L5.70818 9.06032C5.44739 8.65383 4.96655 8.35394 4.45804 8.28053C4.11969 8.23168 3.73713 8.29531 3.42506 8.45236C3.19147 8.56993 2.86356 8.86504 2.72787 9.07985L2.62909 9.2362L1.8285 9.23627L1.02792 9.23634V8.60815C1.02792 8.24027 1.0118 7.93376 0.989034 7.86841C0.921116 7.6736 0.731475 7.62929 0.586455 7.77435C0.500133 7.86064 0.500062 7.86134 0.500133 8.61012C0.500168 9.25351 0.50886 9.37675 0.561716 9.48147C0.644941 9.64652 0.809668 9.73372 1.07891 9.75533L1.30258 9.77327L1.31483 10.0707C1.32651 10.3556 1.3319 10.3726 1.44197 10.4709L1.5569 10.5736L2.04021 10.5743L2.52352 10.575L2.64074 10.8245C2.78224 11.1256 3.10328 11.4589 3.39269 11.605C4.29353 12.0598 5.34646 11.7242 5.80197 10.8369L5.93699 10.5739L9.88533 10.5737L13.8337 10.5736L13.947 10.8111C14.1541 11.2452 14.5895 11.6101 15.0665 11.7494C15.1766 11.7816 15.3854 11.8049 15.5592 11.8045C16.2357 11.8029 16.8387 11.4202 17.1407 10.8007L17.2515 10.5736H17.4736C17.8938 10.5736 18.233 10.375 18.4123 10.0238L18.5 9.85217V7.77593C18.5 5.70047 18.5 5.69962 18.4221 5.55411C18.2783 5.28508 17.0442 3.54561 16.9269 3.44648C16.7033 3.25751 16.5321 3.2069 16.0601 3.19022C15.5787 3.17319 15.482 3.19909 15.4259 3.36019C15.3842 3.47974 15.4397 3.6042 15.5623 3.66625C15.6161 3.69345 15.7959 3.71059 16.0312 3.7109C16.3291 3.71132 16.4355 3.7248 16.5159 3.77227C16.6108 3.82837 17.7927 5.47352 17.9331 5.74505C17.9828 5.84123 17.9897 6.06026 17.9897 7.54543V9.23634H17.5578H17.126L17.0575 9.1093C16.9634 8.93444 16.6633 8.63659 16.4633 8.51933C16.0882 8.2995 15.6414 8.21363 15.2449 8.28517C14.7708 8.37069 14.2847 8.6931 14.0363 9.08678L13.942 9.23634H13.5025H13.0631V6.47388V3.71143L13.5645 3.7109C14.1113 3.71034 14.2115 3.68479 14.2874 3.52668C14.3254 3.44743 14.3242 3.41523 14.2799 3.32961C14.2508 3.27334 14.2013 3.21746 14.17 3.20543C14.1387 3.19343 13.8768 3.18357 13.588 3.18357H13.0631V1.86217C13.0631 0.403031 13.0621 0.395887 12.8414 0.261354C12.7309 0.193929 12.6181 0.192627 6.78157 0.192627C1.02486 0.192627 0.830888 0.194773 0.725985 0.25875ZM4.22191 2.43577C3.92121 2.70153 2.27377 4.25083 2.16281 4.37224C2.09989 4.44103 2.04844 4.53503 2.04844 4.58106C2.04844 4.69011 2.19751 4.83753 2.3078 4.83753C2.4019 4.83753 2.46436 4.78309 3.68009 3.64105C4.08186 3.26363 4.42482 2.94977 4.44217 2.94357C4.45956 2.93738 4.9215 3.35368 5.46868 3.8687C6.01589 4.38371 6.50071 4.81441 6.54611 4.82581C6.71977 4.86937 6.89572 4.67016 6.83308 4.50086C6.81074 4.44044 5.93727 3.59815 4.80104 2.54135C4.49869 2.26014 4.43401 2.24835 4.22191 2.43577ZM9.48842 3.18868C9.35723 3.25234 9.29769 3.40348 9.29769 3.67286V3.92257H8.68699C8.09174 3.92257 8.07401 3.92472 7.9855 4.00671C7.86395 4.11936 7.84773 4.23376 7.8611 4.8825C7.87244 5.432 7.87289 5.43478 7.96995 5.53183L8.06743 5.62931L8.67893 5.64033L9.29044 5.65138L9.303 5.92797C9.31352 6.15935 9.32904 6.21893 9.39794 6.29227C9.51411 6.41593 9.63284 6.43686 9.7856 6.36061C9.85595 6.32552 10.3043 6.0062 10.7819 5.65106C11.7059 4.96393 11.7641 4.90312 11.7038 4.6868C11.6777 4.59309 11.5329 4.46908 10.8632 3.9667C10.4183 3.63292 9.98425 3.31226 9.8987 3.25409C9.73905 3.14564 9.61714 3.12618 9.48842 3.18868ZM4.372 3.38799C4.32418 3.39549 4.25922 3.41988 4.22769 3.44219C4.06514 3.55705 2.80838 4.76299 2.76619 4.84456C2.72762 4.91917 2.71706 5.14826 2.71706 5.9102C2.71706 6.97144 2.72994 7.05428 2.91462 7.17931C3.01126 7.24473 3.0854 7.24808 4.44485 7.24808C5.98872 7.24808 5.99228 7.24769 6.1215 7.05752C6.17703 6.97584 6.18333 6.86063 6.18333 5.92843C6.18333 5.06183 6.1746 4.87817 6.13054 4.81673C6.083 4.75043 4.85443 3.5826 4.71634 3.47242C4.63924 3.4109 4.47793 3.37135 4.372 3.38799ZM10.5105 4.34317C11.0698 4.75743 11.0981 4.78404 11.029 4.82996C10.9888 4.85667 10.7055 5.06633 10.3995 5.29592L9.84314 5.71335L9.82287 5.51297C9.81171 5.40276 9.79063 5.28599 9.77606 5.25348C9.72916 5.14903 9.54683 5.11905 8.95813 5.11905H8.38273V4.76715V4.41524H9.0283C9.78923 4.41524 9.79341 4.41337 9.81879 4.0626C9.82973 3.91114 9.84564 3.8605 9.87639 3.87918C9.89976 3.89336 10.1851 4.10219 10.5105 4.34317ZM5.27854 4.69525L5.67306 5.06324V5.90053V6.73781H5.40914H5.14521V6.14623C5.14521 5.59423 5.14028 5.54929 5.07145 5.47542C4.95877 5.35447 4.85577 5.33019 4.45558 5.33019C3.78745 5.33019 3.73759 5.39125 3.73759 6.20883V6.73781H3.49125H3.24492V5.89606V5.0543L3.84763 4.48858L4.4503 3.92285L4.66718 4.12506C4.78644 4.23626 5.06156 4.49287 5.27854 4.69525ZM13.6688 4.29162C13.4553 4.38564 13.4463 4.44952 13.4576 5.78894L13.4678 6.98263L13.5653 7.08015L13.6629 7.17769L15.4128 7.18649C16.7676 7.19332 17.1826 7.18526 17.2507 7.15081C17.4104 7.07008 17.4618 6.90384 17.4618 6.46737C17.4618 6.25088 17.4473 6.03548 17.4295 5.98868C17.3861 5.87441 16.3649 4.41633 16.2659 4.32726C16.1914 4.26016 16.1321 4.2565 14.9861 4.24875C14.0006 4.2421 13.7637 4.24981 13.6688 4.29162ZM16.4563 5.45276L16.934 6.13834V6.4205V6.70262H15.456H13.978V5.73488V4.76715H14.9783H15.9786L16.4563 5.45276ZM4.65254 6.29793V6.73781H4.45899H4.26544V6.29793V5.85805H4.45899H4.65254V6.29793ZM4.72971 8.88218C4.98516 8.99687 5.25922 9.26854 5.3712 9.51804C5.72596 10.3086 5.23864 11.1649 4.36127 11.2927C3.85537 11.3664 3.31168 11.0502 3.0746 10.5445C2.99496 10.3747 2.98099 10.2975 2.98099 10.0281C2.98099 9.75466 2.99401 9.68498 3.0765 9.51786C3.24654 9.17321 3.57254 8.90189 3.92702 8.81001C4.11314 8.76176 4.54876 8.80093 4.72971 8.88218ZM16.0602 8.89478C16.3356 9.02956 16.5179 9.2008 16.655 9.4536C16.7695 9.66492 16.7757 9.69406 16.7757 10.0281C16.7757 10.3412 16.7649 10.4019 16.6785 10.578C16.5714 10.7959 16.3161 11.0562 16.1024 11.1652C15.4908 11.4772 14.7222 11.2168 14.4086 10.5912C14.0601 9.89581 14.4202 9.07745 15.1846 8.82785C15.4195 8.7511 15.8308 8.78256 16.0602 8.89478ZM4.05733 9.24123C3.70117 9.30683 3.4523 9.59391 3.42728 9.96805C3.39342 10.4744 3.74575 10.8551 4.24785 10.8546C4.55439 10.8543 4.9252 10.5787 5.00497 10.2921C5.17625 9.67647 4.68027 9.12647 4.05733 9.24123ZM15.3387 9.25298C14.6123 9.44234 14.5034 10.4109 15.1697 10.757C15.6606 11.0121 16.2203 10.7401 16.3385 10.1892C16.4614 9.61608 15.9137 9.10314 15.3387 9.25298ZM4.3763 9.76701C4.46438 9.81417 4.55404 10.0199 4.52378 10.1053C4.47824 10.234 4.36092 10.3272 4.24458 10.3272C4.08091 10.3272 4.02358 10.2972 3.96281 10.1797C3.82556 9.91428 4.11391 9.6266 4.3763 9.76701ZM15.7403 9.83187C15.8715 9.96313 15.8778 10.1198 15.7567 10.2409C15.5634 10.4342 15.2436 10.3137 15.246 10.0484C15.2486 9.75937 15.5401 9.6317 15.7403 9.83187ZM2.45771 9.84337C2.44606 9.88694 2.43628 9.95817 2.43603 10.0017C2.43557 10.0776 2.42301 10.0809 2.13642 10.0809H1.8373V9.92255V9.7642H2.15813C2.47365 9.7642 2.47858 9.7655 2.45771 9.84337ZM13.7669 9.92269V10.0812L9.88713 10.0723L6.00737 10.0633L5.99657 9.91375L5.98573 9.7642H9.87632H13.7669V9.92269ZM17.9545 9.7928C17.9545 9.80853 17.9098 9.86428 17.8551 9.91668C17.7512 10.0162 17.5805 10.0809 17.4217 10.0809C17.3362 10.0809 17.3271 10.0673 17.3156 9.92255L17.303 9.7642H17.6288C17.8079 9.7642 17.9545 9.77707 17.9545 9.7928Z" fill="#A0627B"/>
</svg>
