<svg width="19" height="18" viewBox="0 0 19 18" fill="none" xmlns="http://www.w3.org/2000/svg">
<path fill-rule="evenodd" clip-rule="evenodd" d="M8.36901 1.48069C7.76796 1.90719 5.78753 3.30974 3.96808 4.59753C2.14864 5.88539 0.612512 6.98454 0.554463 7.04023C0.466563 7.12451 0.479716 7.18909 0.633227 7.42593C0.734596 7.58236 0.836989 7.71082 0.860854 7.71138C0.884641 7.71185 1.12337 7.55282 1.39125 7.35788C1.6592 7.16294 1.89668 7.00345 1.91897 7.00345C1.94134 7.00345 1.95961 9.30729 1.95961 12.1231V17.2427H9.481H17.0024L17.0226 12.12L17.0429 6.99738L17.5548 7.35914L18.0668 7.72098L18.2834 7.46366C18.4025 7.32212 18.5 7.18074 18.5 7.14955C18.5 7.11836 17.5873 6.44603 16.4718 5.65556C15.3564 4.86509 13.8943 3.82856 13.2228 3.35219C10.7588 1.60403 9.63703 0.811984 9.55047 0.759213C9.50171 0.729519 8.971 1.05355 8.36901 1.48069ZM12.9056 4.06414L16.217 6.40902L16.1967 11.4518L16.1765 16.4945L9.46186 16.5146L2.74725 16.5347V11.4658V6.39681L6.07502 4.02901C7.90533 2.72673 9.44579 1.67429 9.4984 1.6902C9.55102 1.70611 11.0842 2.77438 12.9056 4.06414ZM11.9307 4.83634C11.6284 4.99828 11.4956 5.18361 11.4925 5.44786C11.4904 5.63319 11.4574 5.66446 11.2644 5.66446C11.1402 5.66446 10.9453 5.73795 10.8312 5.82774L10.6236 5.99094L10.4161 5.82774C10.2892 5.72787 10.0928 5.66446 9.91057 5.66446C9.34568 5.66446 9.3634 5.62012 9.3634 7.0355C9.3634 7.92246 9.39215 8.33967 9.45792 8.40544C9.6156 8.56313 10.1833 8.51988 10.4221 8.33203L10.6355 8.16411L10.8627 8.33203C10.9876 8.42442 11.1444 8.49996 11.2112 8.49996C11.3186 8.49996 11.3325 8.88984 11.3325 11.8929V15.2858L11.5627 15.516C11.9606 15.9139 12.6112 15.8003 12.8193 15.2965C12.8838 15.1402 12.9041 14.1777 12.8893 11.9656C12.8688 8.91386 12.8654 8.85439 12.7109 8.85439C12.5563 8.85439 12.5529 8.91378 12.5327 11.9604C12.5144 14.7125 12.4973 15.0826 12.3827 15.2094C12.2236 15.3852 12.0142 15.3928 11.8501 15.2287C11.7414 15.1199 11.7263 14.6867 11.7263 11.6607C11.7263 9.08683 11.7025 8.19254 11.6318 8.12189C11.5798 8.06991 11.4442 8.02738 11.3304 8.02738C11.2118 8.02738 11.0449 7.94357 10.9387 7.83047C10.8369 7.72217 10.6951 7.63356 10.6236 7.63356C10.5521 7.63356 10.4103 7.72217 10.3086 7.83047C10.2068 7.93877 10.0412 8.02738 9.94043 8.02738C9.75888 8.02738 9.75722 8.01895 9.75722 7.08221C9.75722 6.14547 9.75888 6.13704 9.94043 6.13704C10.0412 6.13704 10.2068 6.22565 10.3086 6.33395C10.4103 6.44225 10.5521 6.53086 10.6236 6.53086C10.6951 6.53086 10.8369 6.44225 10.9387 6.33395C11.1145 6.14681 11.1671 6.13704 11.9999 6.13704C12.5765 6.13704 12.9086 6.10475 12.9708 6.04253C13.0228 5.99054 13.0653 5.79616 13.0653 5.61059C13.0653 4.98457 12.4446 4.56106 11.9307 4.83634ZM12.59 5.34421C12.7339 5.61311 12.6838 5.66446 12.2777 5.66446C11.951 5.66446 11.8838 5.64028 11.8838 5.52269C11.8838 5.1903 12.4332 5.05144 12.59 5.34421ZM6.70678 5.73653C6.11511 6.01189 6.05595 6.19951 6.05564 7.80117C6.0554 8.81635 6.02886 9.21104 5.95687 9.26964C5.90276 9.31367 5.48886 9.45985 5.03722 9.59438C4.11285 9.86974 3.87199 9.99891 3.80843 10.2535C3.78417 10.3504 3.7748 10.7664 3.78748 11.1779L3.81056 11.9262L4.26345 11.9498L4.71634 11.9734V12.5263C4.71634 13.0546 4.72422 13.0781 4.89356 13.0541C5.05455 13.0312 5.0729 12.9803 5.09409 12.4972C5.11725 11.9683 5.11859 11.9656 5.3459 11.9656C5.56612 11.9656 5.57542 11.9807 5.59834 12.3791C5.62031 12.7613 5.63701 12.7926 5.81903 12.7926C6.00106 12.7926 6.01775 12.7613 6.03973 12.3791C6.06281 11.9791 6.07116 11.9656 6.29571 11.9656C6.51302 11.9656 6.52791 11.9852 6.52791 12.2722C6.52791 12.4457 6.57068 12.5946 6.62636 12.615C6.82587 12.6884 6.92173 12.5778 6.92173 12.2741C6.92173 11.9838 6.93567 11.9656 7.15802 11.9656C7.33665 11.9656 7.39431 12.0016 7.39431 12.1135C7.39431 12.3387 7.60091 12.4821 7.74875 12.3594C7.81373 12.3054 7.86689 12.1948 7.86689 12.1135C7.86689 12.0023 7.92439 11.9656 8.09798 11.9656C8.29143 11.9656 8.33309 12.0008 8.35397 12.1822C8.37185 12.338 8.42312 12.3988 8.53638 12.3988C8.64965 12.3988 8.70092 12.338 8.7188 12.1822C8.73967 12.0008 8.78134 11.9656 8.97478 11.9656C9.14838 11.9656 9.20588 12.0023 9.20588 12.1135C9.20588 12.3387 9.41247 12.4821 9.56031 12.3594C9.70177 12.2419 9.71768 11.7212 9.58394 11.5875C9.51424 11.5178 8.80158 11.493 6.86659 11.493H4.24376V10.9512C4.24376 10.6127 4.2807 10.3799 4.34221 10.3303C4.3964 10.2868 4.75966 10.1567 5.14954 10.0413C6.57107 9.62053 6.52791 9.69039 6.52791 7.80849C6.52791 6.58466 6.54027 6.46848 6.68764 6.3104C6.90196 6.08033 7.17834 6.02166 7.44527 6.14965C7.81955 6.32915 7.86445 6.52716 7.86571 8.00327C7.86721 9.69748 7.83893 9.65117 9.08773 10.0082C9.56425 10.1445 9.99848 10.3107 10.0526 10.3775C10.1239 10.4656 10.151 10.9257 10.151 12.0451C10.151 13.8165 10.0739 14.2223 9.66089 14.622C9.39042 14.8838 8.86719 15.145 8.78268 15.0605C8.7555 15.0333 8.73329 14.5906 8.73329 14.0766C8.73329 13.3008 8.71234 13.134 8.60987 13.0947C8.4284 13.0251 8.35129 13.1417 8.26079 13.6224C8.15391 14.19 7.82869 14.6294 7.31539 14.8995C6.91353 15.111 6.87218 15.1161 5.57565 15.1161H4.24754L4.22596 13.7968L4.20438 12.4775H4.00747H3.81056V14.0134V15.5493H5.4646C7.10068 15.5493 7.12289 15.547 7.51245 15.3412C7.72905 15.2268 7.97377 15.0585 8.05632 14.9671C8.27883 14.7209 8.33947 14.7618 8.33947 15.1579C8.33947 15.5949 8.43407 15.6455 9.01015 15.5165C9.57543 15.3901 10.08 14.9941 10.3394 14.4734C10.5441 14.0628 10.5449 14.0541 10.5449 12.1214C10.5449 9.80429 10.6349 9.98544 9.28464 9.58572L8.37886 9.3176L8.33947 7.85102C8.30395 6.52803 8.28418 6.36318 8.13768 6.16713C7.73733 5.63138 7.24867 5.48441 6.70678 5.73653ZM13.6166 5.7411C13.3971 5.88303 13.6327 6.0927 14.0736 6.1476C14.5376 6.20541 14.9603 6.44186 15.1991 6.77724C15.4009 7.06063 15.3674 7.11576 15.065 6.99809C14.9399 6.94934 14.6059 6.90405 14.3229 6.89743C13.674 6.88215 13.4486 7.01841 13.1645 7.59764C12.9541 8.02667 12.9531 8.02738 12.5859 8.02738C12.1581 8.02738 11.9558 8.18372 12.123 8.38528C12.1982 8.47586 12.346 8.5009 12.7037 8.48373L13.1834 8.46058L13.4197 8.0184C13.5497 7.77517 13.7047 7.51817 13.7641 7.44736C13.9159 7.26652 14.573 7.28416 15.1132 7.48359C15.8811 7.76714 15.9008 7.76682 15.9008 7.47067C15.9008 6.9157 15.2936 6.10908 14.691 5.86342C14.3347 5.71818 13.7543 5.6521 13.6166 5.7411ZM6.96662 6.66303C6.93795 6.73778 6.96851 6.84765 7.03696 6.91618C7.14589 7.02503 7.17093 7.02424 7.28695 6.9083C7.35784 6.83741 7.39439 6.72344 7.36816 6.65515C7.30499 6.49054 7.03074 6.49589 6.96662 6.66303ZM4.71634 10.8235V11.0226L7.17771 11.0018C9.57961 10.9815 9.63908 10.9772 9.63908 10.8235C9.63908 10.6697 9.57961 10.6655 7.17771 10.6452L4.71634 10.6244V10.8235Z" fill="#A0627B"/>
</svg>
