<svg width="15" height="15" viewBox="0 0 15 14" fill="none" xmlns="http://www.w3.org/2000/svg">
<path fill-rule="evenodd" clip-rule="evenodd" d="M7.36443 0.0430188C5.40192 0.317255 3.68768 1.39247 2.61848 3.0198C2.28607 3.52573 2.03501 4.05081 1.78994 4.75271C1.78082 4.77881 1.66285 4.61064 1.50389 4.3449C1.35509 4.09618 1.2003 3.85725 1.1599 3.81396C0.968276 3.60864 0.624076 3.54672 0.377438 3.67317C0.0467461 3.84273 -0.0884533 4.21078 0.0598854 4.53773C0.152843 4.74267 1.84775 7.54794 1.8786 7.54794C1.92554 7.54794 4.82818 5.79256 4.91899 5.70924C5.07424 5.56683 5.13125 5.41536 5.11795 5.18041C5.10828 5.0093 5.08959 4.94824 5.01373 4.84033C4.85244 4.61082 4.5603 4.49855 4.30396 4.56757C4.2356 4.58599 3.92805 4.75326 3.62051 4.93933L3.06135 5.27764L3.08287 5.17716C3.09469 5.12187 3.15299 4.95232 3.21239 4.80036C3.89465 3.05538 5.34163 1.83699 7.21094 1.43351C7.49441 1.37233 7.62028 1.36392 8.25471 1.36392C9.06235 1.36392 9.31049 1.40026 9.94317 1.61107C11.9783 2.28919 13.3904 4.05053 13.6253 6.20365C13.8299 8.07971 12.9557 10.0105 11.3949 11.1296C9.38595 12.5698 6.64932 12.4537 4.7518 10.8476C4.6065 10.7247 4.44764 10.6038 4.39876 10.579C3.95936 10.3564 3.4333 10.6914 3.43561 11.1925C3.43696 11.4882 3.59561 11.6829 4.20702 12.1389C5.39901 13.0281 6.76896 13.4823 8.25471 13.4812C8.87901 13.4807 9.33324 13.4248 9.92331 13.276C13.5133 12.3701 15.7019 8.69155 14.7951 5.08783C14.317 3.188 13.016 1.56951 11.2707 0.703083C10.5979 0.369076 9.84109 0.135884 9.12583 0.0421286C8.69448 -0.0144195 7.77212 -0.013959 7.36443 0.0430188Z" fill="#383F43"/>
</svg>
