<svg width="22" height="22" viewBox="0 0 22 22" fill="none" xmlns="http://www.w3.org/2000/svg">
<mask id="path-1-inside-1_1704_155308" fill="white">
<path fill-rule="evenodd" clip-rule="evenodd" d="M3.3377 0.0661182C2.83575 0.223758 2.43507 0.59236 2.27532 1.0435C1.99403 1.83812 0.12172 8.11579 0.0589395 8.47488C-0.0890022 9.32101 0.0482149 10.4568 0.39591 11.2645C0.744241 12.0737 1.25021 12.7616 1.9481 13.375C2.89696 14.2088 4.00616 14.7311 5.31986 14.9626C5.79708 15.0467 6.70025 15.1255 6.70025 15.083C6.70025 15.0705 6.5769 14.6661 6.42616 14.1844C6.00462 12.8376 6.00516 12.2616 6.42856 11.5003C7.04673 10.3887 8.46904 9.7824 9.85889 10.0379C10.6036 10.1749 11.4197 10.66 11.7988 11.191C11.8867 11.3143 11.963 11.4209 11.9682 11.428C11.9733 11.4351 12.1654 11.4069 12.3951 11.3653L12.8125 11.2898L12.9363 10.9221C13.0044 10.7199 13.3726 9.52801 13.7544 8.27352C14.4155 6.10176 14.4477 5.97709 14.4274 5.66822C14.4109 5.4165 14.3749 5.29329 14.2666 5.11848C13.7419 4.27132 12.5024 4.07206 11.7002 4.70589C11.367 4.9691 11.2619 5.18725 10.9283 6.30691L10.6424 7.26678L10.6143 6.99548C10.5786 6.65197 10.439 6.37629 10.1713 6.12108C9.85458 5.81914 9.55527 5.70157 9.04514 5.67876C8.66635 5.66181 8.59318 5.6717 8.32967 5.77563C8.02605 5.89536 7.65025 6.19403 7.52101 6.41829C7.44971 6.54202 7.44922 6.5412 7.42366 6.26168C7.29276 4.8282 5.2201 4.4 4.35087 5.62682C4.29215 5.70966 4.25704 5.73738 4.27285 5.68844C4.52168 4.91815 5.47544 1.72321 5.50036 1.57659C5.5414 1.33486 5.43156 0.922617 5.26383 0.689148C5.10218 0.464113 4.77212 0.21145 4.50253 0.1064C4.18363 -0.0178877 3.66258 -0.0358766 3.3377 0.0661182ZM15.6992 1.36894C15.5873 1.42089 15.4778 1.51987 15.4177 1.62354C15.3249 1.78338 15.3192 1.87552 15.3192 3.21681C15.3192 4.55867 15.3249 4.65016 15.4177 4.81026C15.5286 5.00121 15.8107 5.15342 16.0537 5.15342C16.2967 5.15342 16.5789 5.00121 16.6897 4.81026C16.7826 4.65016 16.7883 4.55867 16.7883 3.21681C16.7883 1.87496 16.7826 1.78346 16.6897 1.62337C16.509 1.31209 16.0667 1.19848 15.6992 1.36894ZM20.1428 2.64203C19.9287 2.7401 18.463 4.02804 18.352 4.21567C18.231 4.41996 18.2323 4.59701 18.356 4.81026C18.4669 5.00121 18.749 5.15342 18.992 5.15342C19.075 5.15342 19.2246 5.11607 19.3245 5.07036C19.5475 4.96845 21.0091 3.67846 21.1174 3.48794C21.4172 2.96075 20.7366 2.37004 20.1428 2.64203ZM17.8037 6.96222C17.3039 7.07252 16.8704 7.3869 16.6631 7.7895C16.4191 8.26341 16.4376 8.37745 17.1218 10.6016C17.4501 11.6691 17.7188 12.5579 17.7188 12.5767C17.7188 12.5956 17.6428 12.5236 17.55 12.4167C17.2287 12.0469 16.7688 11.8508 16.2251 11.8517C15.7968 11.8524 15.4624 11.9661 15.1494 12.2175C14.813 12.4877 14.631 12.8042 14.5968 13.1786L14.5713 13.4578L14.4397 13.2757C14.2715 13.0431 13.9893 12.8261 13.7056 12.711C13.5317 12.6404 13.386 12.6205 13.042 12.6203C12.6593 12.6202 12.5649 12.6358 12.325 12.7393C11.8018 12.9652 11.4697 13.3938 11.4092 13.9213L11.377 14.2022L11.0938 13.2605C10.6892 11.9152 10.5246 11.6613 9.88563 11.398C9.65796 11.3041 9.54665 11.2863 9.19778 11.2879C8.83863 11.2896 8.74225 11.307 8.49529 11.4153C8.13917 11.5713 7.81513 11.8815 7.68232 12.1935C7.49197 12.6406 7.51131 12.7366 8.33633 15.4405C8.75141 16.8007 9.15033 18.0588 9.22285 18.2363C9.87789 19.8394 11.5233 21.2212 13.3909 21.7367C14.1593 21.9487 14.5538 22 15.4171 22C16.0098 22 16.3358 21.9793 16.6402 21.9224C17.9674 21.6741 19.0188 21.1995 19.934 20.4354C20.9189 19.6131 21.5537 18.6338 21.8687 17.4508C21.9804 17.0312 21.9979 16.8693 21.9999 16.2351C22.0016 15.6993 21.9797 15.4114 21.9181 15.1592C21.7275 14.3787 19.7175 7.88921 19.6084 7.70187C19.291 7.15687 18.4617 6.81697 17.8037 6.96222ZM2.70911 16.9299C2.49496 17.028 1.0293 18.3159 0.918236 18.5036C0.866228 18.5914 0.823721 18.7229 0.823721 18.7958C0.823721 19.0093 0.996932 19.2572 1.21422 19.3547C1.45687 19.4634 1.65834 19.4645 1.8908 19.3582C2.11377 19.2563 3.57536 17.9663 3.68368 17.7758C3.98344 17.2486 3.30283 16.6579 2.70911 16.9299ZM5.61119 16.9479C5.49929 16.9998 5.38979 17.0988 5.3296 17.2025C5.2368 17.3623 5.23112 17.4545 5.23112 18.7958C5.23112 20.1376 5.2368 20.2291 5.3297 20.3892C5.44057 20.5802 5.72269 20.7324 5.96569 20.7324C6.20868 20.7324 6.49081 20.5802 6.60168 20.3892C6.69462 20.2291 6.70025 20.1376 6.70025 18.7926C6.70025 17.3942 6.69805 17.3624 6.59046 17.1941C6.39193 16.8837 5.97529 16.779 5.61119 16.9479Z"/>
</mask>
<path fill-rule="evenodd" clip-rule="evenodd" d="M3.3377 0.0661182C2.83575 0.223758 2.43507 0.59236 2.27532 1.0435C1.99403 1.83812 0.12172 8.11579 0.0589395 8.47488C-0.0890022 9.32101 0.0482149 10.4568 0.39591 11.2645C0.744241 12.0737 1.25021 12.7616 1.9481 13.375C2.89696 14.2088 4.00616 14.7311 5.31986 14.9626C5.79708 15.0467 6.70025 15.1255 6.70025 15.083C6.70025 15.0705 6.5769 14.6661 6.42616 14.1844C6.00462 12.8376 6.00516 12.2616 6.42856 11.5003C7.04673 10.3887 8.46904 9.7824 9.85889 10.0379C10.6036 10.1749 11.4197 10.66 11.7988 11.191C11.8867 11.3143 11.963 11.4209 11.9682 11.428C11.9733 11.4351 12.1654 11.4069 12.3951 11.3653L12.8125 11.2898L12.9363 10.9221C13.0044 10.7199 13.3726 9.52801 13.7544 8.27352C14.4155 6.10176 14.4477 5.97709 14.4274 5.66822C14.4109 5.4165 14.3749 5.29329 14.2666 5.11848C13.7419 4.27132 12.5024 4.07206 11.7002 4.70589C11.367 4.9691 11.2619 5.18725 10.9283 6.30691L10.6424 7.26678L10.6143 6.99548C10.5786 6.65197 10.439 6.37629 10.1713 6.12108C9.85458 5.81914 9.55527 5.70157 9.04514 5.67876C8.66635 5.66181 8.59318 5.6717 8.32967 5.77563C8.02605 5.89536 7.65025 6.19403 7.52101 6.41829C7.44971 6.54202 7.44922 6.5412 7.42366 6.26168C7.29276 4.8282 5.2201 4.4 4.35087 5.62682C4.29215 5.70966 4.25704 5.73738 4.27285 5.68844C4.52168 4.91815 5.47544 1.72321 5.50036 1.57659C5.5414 1.33486 5.43156 0.922617 5.26383 0.689148C5.10218 0.464113 4.77212 0.21145 4.50253 0.1064C4.18363 -0.0178877 3.66258 -0.0358766 3.3377 0.0661182ZM15.6992 1.36894C15.5873 1.42089 15.4778 1.51987 15.4177 1.62354C15.3249 1.78338 15.3192 1.87552 15.3192 3.21681C15.3192 4.55867 15.3249 4.65016 15.4177 4.81026C15.5286 5.00121 15.8107 5.15342 16.0537 5.15342C16.2967 5.15342 16.5789 5.00121 16.6897 4.81026C16.7826 4.65016 16.7883 4.55867 16.7883 3.21681C16.7883 1.87496 16.7826 1.78346 16.6897 1.62337C16.509 1.31209 16.0667 1.19848 15.6992 1.36894ZM20.1428 2.64203C19.9287 2.7401 18.463 4.02804 18.352 4.21567C18.231 4.41996 18.2323 4.59701 18.356 4.81026C18.4669 5.00121 18.749 5.15342 18.992 5.15342C19.075 5.15342 19.2246 5.11607 19.3245 5.07036C19.5475 4.96845 21.0091 3.67846 21.1174 3.48794C21.4172 2.96075 20.7366 2.37004 20.1428 2.64203ZM17.8037 6.96222C17.3039 7.07252 16.8704 7.3869 16.6631 7.7895C16.4191 8.26341 16.4376 8.37745 17.1218 10.6016C17.4501 11.6691 17.7188 12.5579 17.7188 12.5767C17.7188 12.5956 17.6428 12.5236 17.55 12.4167C17.2287 12.0469 16.7688 11.8508 16.2251 11.8517C15.7968 11.8524 15.4624 11.9661 15.1494 12.2175C14.813 12.4877 14.631 12.8042 14.5968 13.1786L14.5713 13.4578L14.4397 13.2757C14.2715 13.0431 13.9893 12.8261 13.7056 12.711C13.5317 12.6404 13.386 12.6205 13.042 12.6203C12.6593 12.6202 12.5649 12.6358 12.325 12.7393C11.8018 12.9652 11.4697 13.3938 11.4092 13.9213L11.377 14.2022L11.0938 13.2605C10.6892 11.9152 10.5246 11.6613 9.88563 11.398C9.65796 11.3041 9.54665 11.2863 9.19778 11.2879C8.83863 11.2896 8.74225 11.307 8.49529 11.4153C8.13917 11.5713 7.81513 11.8815 7.68232 12.1935C7.49197 12.6406 7.51131 12.7366 8.33633 15.4405C8.75141 16.8007 9.15033 18.0588 9.22285 18.2363C9.87789 19.8394 11.5233 21.2212 13.3909 21.7367C14.1593 21.9487 14.5538 22 15.4171 22C16.0098 22 16.3358 21.9793 16.6402 21.9224C17.9674 21.6741 19.0188 21.1995 19.934 20.4354C20.9189 19.6131 21.5537 18.6338 21.8687 17.4508C21.9804 17.0312 21.9979 16.8693 21.9999 16.2351C22.0016 15.6993 21.9797 15.4114 21.9181 15.1592C21.7275 14.3787 19.7175 7.88921 19.6084 7.70187C19.291 7.15687 18.4617 6.81697 17.8037 6.96222ZM2.70911 16.9299C2.49496 17.028 1.0293 18.3159 0.918236 18.5036C0.866228 18.5914 0.823721 18.7229 0.823721 18.7958C0.823721 19.0093 0.996932 19.2572 1.21422 19.3547C1.45687 19.4634 1.65834 19.4645 1.8908 19.3582C2.11377 19.2563 3.57536 17.9663 3.68368 17.7758C3.98344 17.2486 3.30283 16.6579 2.70911 16.9299ZM5.61119 16.9479C5.49929 16.9998 5.38979 17.0988 5.3296 17.2025C5.2368 17.3623 5.23112 17.4545 5.23112 18.7958C5.23112 20.1376 5.2368 20.2291 5.3297 20.3892C5.44057 20.5802 5.72269 20.7324 5.96569 20.7324C6.20868 20.7324 6.49081 20.5802 6.60168 20.3892C6.69462 20.2291 6.70025 20.1376 6.70025 18.7926C6.70025 17.3942 6.69805 17.3624 6.59046 17.1941C6.39193 16.8837 5.97529 16.779 5.61119 16.9479Z" stroke="#383F43" stroke-width="0.6" mask="url(#path-1-inside-1_1704_155308)"/>
</svg>
