<svg width="24" height="24" viewBox="0 0 24 25" fill="none" xmlns="http://www.w3.org/2000/svg">
<mask id="path-1-inside-1_1978_149097" fill="white">
<path fill-rule="evenodd" clip-rule="evenodd" d="M3.64113 0.572129C3.09354 0.7441 2.65644 1.14621 2.48217 1.63837C2.17531 2.50522 0.132786 9.35359 0.0642977 9.74533C-0.0970933 10.6684 0.0525981 11.9074 0.431902 12.7886C0.8119 13.6713 1.36387 14.4218 2.1252 15.0909C3.16032 16.0005 4.37035 16.5703 5.80348 16.8228C6.32409 16.9145 7.30937 17.0005 7.30937 16.9542C7.30937 16.9405 7.1748 16.4994 7.01036 15.9739C6.55049 14.5047 6.55108 13.8763 7.01298 13.0457C7.68734 11.8332 9.23896 11.1717 10.7552 11.4505C11.5676 11.5999 12.4579 12.1291 12.8714 12.7084C12.9673 12.8429 13.0505 12.9592 13.0562 12.9669C13.0618 12.9746 13.2714 12.9439 13.5219 12.8985L13.9773 12.8162L14.1124 12.415C14.1866 12.1944 14.5883 10.8942 15.0048 9.52566C15.726 7.15647 15.7611 7.02046 15.739 6.68351C15.721 6.40891 15.6817 6.2745 15.5635 6.08379C14.9912 5.15962 13.6389 4.94225 12.7638 5.6337C12.4004 5.92084 12.2857 6.15882 11.9218 7.38027L11.6099 8.4274L11.5792 8.13144C11.5403 7.7567 11.388 7.45595 11.0959 7.17755C10.7505 6.84816 10.4239 6.71989 9.86742 6.69501C9.4542 6.67651 9.37438 6.68731 9.08691 6.80069C8.75569 6.9313 8.34572 7.25712 8.20474 7.50177C8.12695 7.63675 8.12642 7.63585 8.09853 7.33092C7.95573 5.76713 5.69466 5.29999 4.7464 6.63835C4.68234 6.72872 4.64404 6.75896 4.6613 6.70558C4.93274 5.86525 5.97321 2.37987 6.0004 2.21991C6.04517 1.95621 5.92534 1.50649 5.74236 1.2518C5.56602 1.00631 5.20594 0.730673 4.91185 0.616072C4.56396 0.480486 3.99554 0.460862 3.64113 0.572129ZM17.1264 1.99339C17.0044 2.05006 16.8849 2.15804 16.8193 2.27114C16.718 2.4455 16.7118 2.54602 16.7118 4.00925C16.7118 5.47309 16.718 5.5729 16.8194 5.74755C16.9403 5.95586 17.2481 6.12192 17.5132 6.12192C17.7783 6.12192 18.086 5.95586 18.207 5.74755C18.3083 5.5729 18.3145 5.47309 18.3145 4.00925C18.3145 2.54541 18.3083 2.44559 18.207 2.27095C18.0098 1.93137 17.5273 1.80743 17.1264 1.99339ZM21.974 3.38221C21.7404 3.4892 20.1415 4.89422 20.0203 5.09892C19.8884 5.32178 19.8897 5.51492 20.0247 5.74755C20.1457 5.95586 20.4535 6.12192 20.7186 6.12192C20.809 6.12192 20.9723 6.08116 21.0813 6.03131C21.3245 5.92013 22.919 4.51286 23.0372 4.30502C23.3642 3.72991 22.6217 3.0855 21.974 3.38221ZM19.4222 8.09515C18.877 8.21547 18.4041 8.55843 18.1779 8.99763C17.9117 9.51462 17.932 9.63904 18.6783 12.0654C19.0365 13.2299 19.3296 14.1995 19.3296 14.22C19.3296 14.2406 19.2467 14.1621 19.1454 14.0455C18.7949 13.6421 18.2932 13.4281 17.7001 13.4291C17.2329 13.4299 16.868 13.5539 16.5266 13.8282C16.1596 14.1229 15.9611 14.4682 15.9238 14.8767L15.896 15.1812L15.7523 14.9825C15.5689 14.7289 15.2611 14.4921 14.9516 14.3665C14.7618 14.2895 14.6029 14.2678 14.2277 14.2677C13.8101 14.2675 13.7072 14.2845 13.4454 14.3975C12.8747 14.6438 12.5123 15.1115 12.4464 15.6868L12.4113 15.9933L12.1023 14.9661C11.661 13.4984 11.4813 13.2215 10.7843 12.9341C10.536 12.8318 10.4145 12.8124 10.0339 12.8141C9.64214 12.8159 9.537 12.8349 9.26759 12.953C8.8791 13.1232 8.5256 13.4616 8.38071 13.802C8.17306 14.2897 8.19416 14.3945 9.09418 17.3442C9.54699 18.828 9.98218 20.2005 10.0613 20.3942C10.7759 22.143 12.5708 23.6504 14.6083 24.2128C15.4465 24.4441 15.8768 24.5 16.8187 24.5C17.4652 24.5 17.8208 24.4775 18.153 24.4153C19.6008 24.1445 20.7478 23.6267 21.7462 22.7932C22.8206 21.8961 23.5132 20.8278 23.8567 19.5372C23.9786 19.0795 23.9977 18.9029 23.9999 18.2111C24.0018 17.6266 23.9779 17.3124 23.9107 17.0374C23.7027 16.1859 21.51 9.10641 21.391 8.90204C21.0448 8.30749 20.1401 7.9367 19.4222 8.09515ZM2.95539 18.969C2.72177 19.076 1.12288 20.481 1.00171 20.6857C0.944976 20.7815 0.898605 20.9249 0.898605 21.0045C0.898605 21.2374 1.08756 21.5079 1.3246 21.6142C1.58931 21.7328 1.80909 21.734 2.06269 21.6181C2.30593 21.5069 3.90039 20.0996 4.01856 19.8918C4.34557 19.3167 3.60309 18.6723 2.95539 18.969ZM6.12129 18.9886C5.99922 19.0453 5.87977 19.1533 5.81411 19.2664C5.71288 19.4407 5.70668 19.5412 5.70668 21.0045C5.70668 22.4683 5.71288 22.5681 5.81422 22.7428C5.93517 22.9511 6.24294 23.1171 6.50802 23.1171C6.77311 23.1171 7.08088 22.9511 7.20183 22.7428C7.30323 22.5681 7.30937 22.4683 7.30937 21.001C7.30937 19.4755 7.30696 19.4408 7.18959 19.2572C6.97302 18.9186 6.51849 18.8043 6.12129 18.9886Z"/>
</mask>
<path d="M3.64113 0.572129L3.49136 0.0950865L3.49132 0.0951003L3.64113 0.572129ZM2.48217 1.63837L2.01084 1.47148L2.01083 1.47152L2.48217 1.63837ZM0.0642977 9.74533L0.556826 9.83144L0.556827 9.83144L0.0642977 9.74533ZM0.431902 12.7886L0.891159 12.5909L0.891157 12.5909L0.431902 12.7886ZM2.1252 15.0909L1.79513 15.4665L1.79515 15.4665L2.1252 15.0909ZM5.80348 16.8228L5.71671 17.3152H5.71671L5.80348 16.8228ZM7.01036 15.9739L7.48754 15.8246L7.48753 15.8246L7.01036 15.9739ZM7.01298 13.0457L6.57601 12.8027L6.576 12.8027L7.01298 13.0457ZM10.7552 11.4505L10.8456 10.9587L10.8456 10.9587L10.7552 11.4505ZM12.8714 12.7084L13.2784 12.418L13.2784 12.4179L12.8714 12.7084ZM13.0562 12.9669L13.4603 12.6725L13.4598 12.6718L13.0562 12.9669ZM13.5219 12.8985L13.4329 12.4065L13.4328 12.4065L13.5219 12.8985ZM13.9773 12.8162L14.0663 13.3082L14.3569 13.2556L14.4512 12.9757L13.9773 12.8162ZM14.1124 12.415L14.5862 12.5746L14.5862 12.5745L14.1124 12.415ZM15.0048 9.52566L14.5265 9.38006L14.5265 9.38007L15.0048 9.52566ZM15.739 6.68351L15.2401 6.71622L15.2401 6.71626L15.739 6.68351ZM15.5635 6.08379L15.1385 6.34706L15.1385 6.34707L15.5635 6.08379ZM12.7638 5.6337L13.0738 6.02603L13.0738 6.02602L12.7638 5.6337ZM11.9218 7.38027L11.4426 7.23752L11.4426 7.23754L11.9218 7.38027ZM11.6099 8.4274L11.1126 8.47902L12.0891 8.57012L11.6099 8.4274ZM11.5792 8.13144L11.0819 8.18305L11.0819 8.18306L11.5792 8.13144ZM11.0959 7.17755L10.7509 7.53943L10.7509 7.53943L11.0959 7.17755ZM9.86742 6.69501L9.84506 7.19451L9.84509 7.19451L9.86742 6.69501ZM9.08691 6.80069L9.27033 7.26583L9.27036 7.26582L9.08691 6.80069ZM8.20474 7.50177L8.63795 7.75142L8.63795 7.75142L8.20474 7.50177ZM8.09853 7.33092L7.60061 7.37639L7.60061 7.37646L8.09853 7.33092ZM4.7464 6.63835L5.15433 6.92747L5.15437 6.92741L4.7464 6.63835ZM4.6613 6.70558L5.13706 6.85937L5.13709 6.85927L4.6613 6.70558ZM6.0004 2.21991L6.49333 2.30371L6.49334 2.3036L6.0004 2.21991ZM5.74236 1.2518L5.33628 1.54351L5.33629 1.54352L5.74236 1.2518ZM4.91185 0.616072L4.73028 1.08194L4.73031 1.08195L4.91185 0.616072ZM17.1264 1.99339L16.916 1.53983L16.9159 1.53987L17.1264 1.99339ZM16.8193 2.27114L17.2517 2.52219L17.2517 2.52217L16.8193 2.27114ZM16.8194 5.74755L16.3869 5.9985L16.387 5.99861L16.8194 5.74755ZM18.207 5.74755L18.6394 5.99861L18.6394 5.9985L18.207 5.74755ZM18.207 2.27095L18.6394 2.02L18.6394 2.01992L18.207 2.27095ZM21.974 3.38221L22.1822 3.8368L22.1822 3.83678L21.974 3.38221ZM20.0203 5.09892L19.59 4.84423L19.59 4.84425L20.0203 5.09892ZM20.0247 5.74755L19.5923 5.99852L19.5923 5.99861L20.0247 5.74755ZM21.0813 6.03131L20.8734 5.57655L20.8734 5.57659L21.0813 6.03131ZM23.0372 4.30502L22.6025 4.05789L22.6025 4.05789L23.0372 4.30502ZM19.4222 8.09515L19.5299 8.5834L19.53 8.5834L19.4222 8.09515ZM18.1779 8.99763L17.7334 8.7687L17.7334 8.76874L18.1779 8.99763ZM18.6783 12.0654L19.1562 11.9184L19.1562 11.9184L18.6783 12.0654ZM19.1454 14.0455L18.768 14.3734L18.768 14.3734L19.1454 14.0455ZM17.7001 13.4291L17.6993 12.9291H17.6993L17.7001 13.4291ZM16.5266 13.8282L16.2135 13.4383L16.2135 13.4383L16.5266 13.8282ZM15.9238 14.8767L16.4218 14.9222L16.4218 14.9221L15.9238 14.8767ZM15.896 15.1812L15.4908 15.4742L16.2725 16.5553L16.3939 15.2267L15.896 15.1812ZM15.7523 14.9825L15.3472 15.2755L15.3472 15.2755L15.7523 14.9825ZM14.9516 14.3665L14.7636 14.8298L14.7636 14.8299L14.9516 14.3665ZM14.2277 14.2677L14.2279 13.7677H14.2279L14.2277 14.2677ZM13.4454 14.3975L13.2473 13.9384L13.2473 13.9384L13.4454 14.3975ZM12.4464 15.6868L11.9496 15.6299L11.9496 15.6299L12.4464 15.6868ZM12.4113 15.9933L11.9325 16.1373L12.908 16.0502L12.4113 15.9933ZM12.1023 14.9661L11.6235 15.11L11.6235 15.1101L12.1023 14.9661ZM10.7843 12.9341L10.9749 12.4719L10.9748 12.4719L10.7843 12.9341ZM10.0339 12.8141L10.0362 13.3141H10.0362L10.0339 12.8141ZM9.26759 12.953L9.46827 13.411L9.46829 13.411L9.26759 12.953ZM8.38071 13.802L8.84076 13.9978L8.84076 13.9978L8.38071 13.802ZM9.09418 17.3442L8.61595 17.4901L8.61595 17.4901L9.09418 17.3442ZM10.0613 20.3941L9.59843 20.5833L9.59844 20.5833L10.0613 20.3941ZM14.6083 24.2128L14.4753 24.6947L14.4753 24.6948L14.6083 24.2128ZM18.153 24.4153L18.061 23.9238L18.061 23.9238L18.153 24.4153ZM21.7462 22.7932L22.0666 23.177L21.7462 22.7932ZM23.8567 19.5372L23.3736 19.4086L23.3736 19.4086L23.8567 19.5372ZM23.9999 18.2111L24.4999 18.2127V18.2127L23.9999 18.2111ZM23.9107 17.0374L23.425 17.156L23.425 17.156L23.9107 17.0374ZM21.391 8.90204L21.8231 8.65049L21.8231 8.65043L21.391 8.90204ZM2.95539 18.969L3.16359 19.4236L3.16363 19.4236L2.95539 18.969ZM1.00171 20.6857L1.43195 20.9404L1.43198 20.9404L1.00171 20.6857ZM1.3246 21.6142L1.12002 22.0704L1.12011 22.0705L1.3246 21.6142ZM2.06269 21.6181L1.85484 21.1633L1.85484 21.1633L2.06269 21.6181ZM4.01856 19.8918L3.58391 19.6447L3.58391 19.6447L4.01856 19.8918ZM6.12129 18.9886L5.91087 18.5351L5.91077 18.5351L6.12129 18.9886ZM5.81411 19.2664L6.24651 19.5174L6.24653 19.5174L5.81411 19.2664ZM5.81422 22.7428L5.38175 22.9937L5.38182 22.9938L5.81422 22.7428ZM7.20183 22.7428L7.63423 22.9938L7.63423 22.9938L7.20183 22.7428ZM7.18959 19.2572L7.61085 18.9879L7.6108 18.9878L7.18959 19.2572ZM3.49132 0.0951003C2.81098 0.308763 2.24332 0.814936 2.01084 1.47148L2.9535 1.80526C3.06956 1.47749 3.37611 1.17944 3.79094 1.04916L3.49132 0.0951003ZM2.01083 1.47152C1.85202 1.92013 1.25999 3.86526 0.7047 5.72711C0.425704 6.66256 0.153982 7.58376 -0.0524159 8.2961C-0.155565 8.6521 -0.242732 8.95709 -0.306434 9.18604C-0.365791 9.39937 -0.414309 9.57959 -0.428232 9.65922L0.556827 9.83144C0.556119 9.83549 0.557082 9.82963 0.562541 9.80692C0.567365 9.78685 0.574163 9.75993 0.583104 9.72573C0.600953 9.65747 0.625772 9.56622 0.656971 9.45409C0.719277 9.23015 0.805315 8.92907 0.908079 8.5744C1.11351 7.86541 1.38443 6.94688 1.66299 6.01292C2.22279 4.13594 2.80546 2.22346 2.95351 1.80522L2.01083 1.47152ZM-0.42823 9.65921C-0.606795 10.6805 -0.444149 12.018 -0.0273534 12.9863L0.891157 12.5909C0.549346 11.7968 0.412608 10.6563 0.556826 9.83144L-0.42823 9.65921ZM-0.0273558 12.9862C0.383575 13.9409 0.981192 14.7511 1.79513 15.4665L2.45527 14.7153C1.74654 14.0924 1.24022 13.4018 0.891159 12.5909L-0.0273558 12.9862ZM1.79515 15.4665C2.90304 16.44 4.19859 17.0477 5.71671 17.3152L5.89025 16.3304C4.54212 16.0928 3.41761 15.561 2.45525 14.7153L1.79515 15.4665ZM5.71671 17.3152C5.99673 17.3646 6.38898 17.4105 6.7082 17.4384C6.86806 17.4523 7.01822 17.4625 7.13248 17.4659C7.187 17.4675 7.24711 17.468 7.30001 17.4644C7.32199 17.4629 7.36993 17.4592 7.42301 17.4455C7.4457 17.4397 7.50742 17.4228 7.5745 17.3803C7.63413 17.3424 7.80937 17.209 7.80937 16.9542H6.80937C6.80937 16.7023 6.98268 16.5715 7.03856 16.536C7.10187 16.4958 7.158 16.4811 7.17334 16.4772C7.19595 16.4713 7.21287 16.4689 7.21932 16.4681C7.227 16.4671 7.23164 16.4668 7.23203 16.4667C7.23248 16.4667 7.22689 16.4671 7.21317 16.4671C7.20019 16.4672 7.18324 16.4669 7.16208 16.4663C7.07534 16.4637 6.94664 16.4554 6.79511 16.4422C6.49154 16.4157 6.13084 16.3728 5.89025 16.3304L5.71671 17.3152ZM7.80937 16.9542C7.80937 16.9139 7.80427 16.8824 7.80336 16.8765C7.80153 16.8647 7.79963 16.8553 7.79855 16.8501C7.79634 16.8394 7.79414 16.8304 7.79293 16.8256C7.79032 16.8151 7.78742 16.8045 7.78501 16.7958C7.77994 16.7776 7.77317 16.7542 7.76535 16.7277C7.74951 16.674 7.72703 16.5994 7.69977 16.5101C7.64513 16.331 7.57001 16.0881 7.48754 15.8246L6.53318 16.1233C6.61515 16.3852 6.68953 16.6256 6.74328 16.8019C6.77022 16.8902 6.79166 16.9613 6.8062 17.0106C6.81356 17.0355 6.81858 17.053 6.82152 17.0636C6.82312 17.0693 6.82327 17.07 6.8227 17.0678C6.82252 17.067 6.8211 17.0614 6.81941 17.0532C6.81859 17.0493 6.81688 17.0408 6.81518 17.0299C6.8144 17.0249 6.80937 16.994 6.80937 16.9542H7.80937ZM7.48753 15.8246C7.26052 15.0993 7.16568 14.6354 7.16601 14.2708C7.16632 13.93 7.25001 13.6483 7.44996 13.2887L6.576 12.8027C6.31405 13.2738 6.1665 13.7216 6.16601 14.2699C6.16554 14.7944 6.30033 15.3793 6.53319 16.1233L7.48753 15.8246ZM7.44995 13.2887C8.00541 12.29 9.32823 11.6965 10.6647 11.9422L10.8456 10.9587C9.14968 10.6469 7.36927 11.3763 6.57601 12.8027L7.44995 13.2887ZM10.6647 11.9422C11.3716 12.0722 12.1384 12.5421 12.4644 12.9989L13.2784 12.4179C12.7773 11.716 11.7636 11.1275 10.8456 10.9587L10.6647 11.9422ZM12.4644 12.9988C12.5588 13.1312 12.6447 13.2512 12.6525 13.262L13.4598 12.6718C13.4603 12.6724 13.4561 12.6666 13.4449 12.651C13.4349 12.6371 13.4211 12.6177 13.4044 12.5944C13.371 12.5477 13.3263 12.4851 13.2784 12.418L12.4644 12.9988ZM12.6521 13.2613C12.7566 13.4048 12.9003 13.4426 12.917 13.4474C12.9602 13.4601 12.9957 13.464 13.0108 13.4655C13.044 13.4688 13.0712 13.4681 13.0818 13.4678C13.1073 13.4671 13.1315 13.4648 13.1473 13.4632C13.1823 13.4596 13.2251 13.4539 13.2698 13.4473C13.3612 13.4339 13.4819 13.4139 13.611 13.3905L13.4328 12.4065C13.3114 12.4285 13.202 12.4465 13.1246 12.4579C13.0849 12.4637 13.0586 12.4671 13.0449 12.4685C13.0364 12.4694 13.0413 12.4686 13.0533 12.4682C13.0571 12.4681 13.079 12.4674 13.1084 12.4703C13.1216 12.4716 13.1556 12.4753 13.1976 12.4876C13.2191 12.4939 13.2548 12.5058 13.2957 12.5281C13.3343 12.5491 13.402 12.5925 13.4603 12.6725L12.6521 13.2613ZM13.6108 13.3905L14.0663 13.3082L13.8883 12.3241L13.4329 12.4065L13.6108 13.3905ZM14.4512 12.9757L14.5862 12.5746L13.6385 12.2555L13.5034 12.6566L14.4512 12.9757ZM14.5862 12.5745C14.6635 12.3451 15.0679 11.0353 15.4831 9.67125L14.5265 9.38007C14.1086 10.753 13.7098 12.0438 13.6385 12.2555L14.5862 12.5745ZM15.4831 9.67126C15.8419 8.49249 16.0352 7.85293 16.1347 7.46755C16.2399 7.06045 16.2534 6.88709 16.2379 6.65076L15.2401 6.71626C15.2467 6.81688 15.2537 6.87999 15.1665 7.21743C15.0737 7.57659 14.8888 8.18964 14.5265 9.38006L15.4831 9.67126ZM16.2379 6.6508C16.2279 6.49758 16.2103 6.35407 16.1687 6.21181C16.1256 6.06459 16.0636 5.94161 15.9886 5.82051L15.1385 6.34707C15.1816 6.41668 15.1983 6.45626 15.2089 6.49258C15.221 6.53385 15.2321 6.59484 15.2401 6.71622L16.2379 6.6508ZM15.9886 5.82053C15.2514 4.63022 13.5519 4.37375 12.4538 5.24138L13.0738 6.02602C13.7259 5.51075 14.7309 5.68902 15.1385 6.34706L15.9886 5.82053ZM12.4538 5.24137C12.2208 5.42549 12.0493 5.61434 11.8926 5.93949C11.7525 6.22998 11.6223 6.6345 11.4426 7.23752L12.401 7.52302C12.5852 6.90459 12.6942 6.57939 12.7934 6.37374C12.8758 6.20275 12.9434 6.12905 13.0738 6.02603L12.4538 5.24137ZM11.4426 7.23754L11.1307 8.28467L12.0891 8.57012L12.401 7.52299L11.4426 7.23754ZM12.1073 8.37578L12.0765 8.07982L11.0819 8.18306L11.1126 8.47902L12.1073 8.37578ZM12.0765 8.07982C12.0245 7.57809 11.8124 7.16981 11.441 6.81566L10.7509 7.53943C10.9635 7.74208 11.0562 7.9353 11.0819 8.18305L12.0765 8.07982ZM11.441 6.81566C11.2323 6.61676 11.0109 6.4617 10.7436 6.3567C10.4806 6.25338 10.2005 6.20941 9.88976 6.19551L9.84509 7.19451C10.0908 7.2055 10.2523 7.2381 10.378 7.28748C10.4995 7.33518 10.6141 7.40894 10.7509 7.53943L11.441 6.81566ZM9.88978 6.19551C9.68824 6.18649 9.52155 6.18144 9.36293 6.20292C9.19226 6.22602 9.05354 6.27637 8.90346 6.33556L9.27036 7.26582C9.40775 7.21163 9.45267 7.19989 9.49709 7.19388C9.55354 7.18623 9.63338 7.18504 9.84506 7.19451L9.88978 6.19551ZM8.9035 6.33555C8.68007 6.42365 8.45217 6.567 8.2634 6.71703C8.08073 6.8622 7.88742 7.051 7.77152 7.25212L8.63795 7.75142C8.66304 7.70789 8.7452 7.61146 8.88557 7.49991C9.01984 7.39321 9.16253 7.30834 9.27033 7.26583L8.9035 6.33555ZM7.77153 7.25212C7.74158 7.30409 7.75062 7.28505 7.7704 7.26058C7.77867 7.25035 7.79806 7.22728 7.82813 7.20181C7.85528 7.17882 7.91759 7.13101 8.01272 7.10505C8.12392 7.07472 8.2542 7.08206 8.37336 7.14555C8.47713 7.20084 8.53299 7.2778 8.55759 7.31737C8.58359 7.35921 8.59658 7.39489 8.60197 7.41085C8.60808 7.42898 8.61115 7.44235 8.61225 7.44732C8.61425 7.45646 8.61389 7.45736 8.61197 7.44227C8.60816 7.41223 8.60378 7.36549 8.59646 7.28539L7.60061 7.37646C7.60723 7.44882 7.61338 7.51654 7.61994 7.56822C7.62321 7.59398 7.62799 7.62754 7.63552 7.66182C7.64007 7.68256 7.65709 7.76291 7.70826 7.84525C7.73619 7.89018 7.79559 7.9708 7.90313 8.0281C8.02606 8.0936 8.16037 8.10132 8.27589 8.06981C8.37534 8.04268 8.44227 7.99213 8.47439 7.96493C8.50942 7.93526 8.53412 7.90652 8.5481 7.88922C8.59073 7.83648 8.62901 7.76694 8.63795 7.75142L7.77153 7.25212ZM8.59646 7.28546C8.50037 6.2332 7.68814 5.58486 6.82568 5.40667C5.96411 5.22867 4.94648 5.49109 4.33842 6.34928L5.15437 6.92741C5.49458 6.44725 6.08162 6.27407 6.62335 6.38599C7.16419 6.49773 7.55389 6.86485 7.60061 7.37639L8.59646 7.28546ZM4.33847 6.34922C4.30477 6.39677 4.3158 6.37113 4.36346 6.33349C4.37349 6.32557 4.43058 6.27936 4.52087 6.25244C4.56971 6.23788 4.66215 6.21867 4.77462 6.24504C4.90211 6.27493 5.00759 6.35247 5.0748 6.45366C5.17972 6.61161 5.15525 6.76898 5.154 6.77966C5.14908 6.82183 5.13959 6.85153 5.13706 6.85937L4.18554 6.55178C4.17869 6.57296 4.16662 6.6134 4.16074 6.66378C4.15854 6.68267 4.13473 6.84573 4.24181 7.00694C4.31011 7.10976 4.41704 7.18832 4.54636 7.21864C4.66065 7.24543 4.75527 7.22606 4.80663 7.21074C4.90198 7.18231 4.96551 7.13226 4.98325 7.11825C5.06176 7.05624 5.12397 6.9703 5.15433 6.92747L4.33847 6.34922ZM5.13709 6.85927C5.27484 6.43281 5.60446 5.34582 5.90155 4.35063C6.05044 3.85186 6.19187 3.37381 6.29789 3.01001C6.35086 2.82827 6.39529 2.674 6.4275 2.55954C6.45434 2.46414 6.48422 2.35726 6.49333 2.30371L5.50747 2.13612C5.50977 2.12256 5.5012 2.15959 5.46487 2.2887C5.43391 2.39874 5.39048 2.54957 5.33783 2.73021C5.23264 3.09117 5.09188 3.56697 4.94333 4.06458C4.64553 5.06216 4.31919 6.13802 4.1855 6.55188L5.13709 6.85927ZM6.49334 2.3036C6.53254 2.07271 6.49642 1.8157 6.43992 1.60372C6.3819 1.386 6.28474 1.1498 6.14844 0.960071L5.33629 1.54352C5.38296 1.60849 5.43721 1.7245 5.47365 1.86123C5.51162 2.00371 5.51302 2.10341 5.50745 2.13623L6.49334 2.3036ZM6.14845 0.960086C5.91311 0.632475 5.47342 0.298281 5.09339 0.150194L4.73031 1.08195C4.93847 1.16307 5.21892 1.38014 5.33628 1.54351L6.14845 0.960086ZM5.09342 0.150204C4.85132 0.0558505 4.56266 0.0110386 4.29621 0.00182909C4.02989 -0.00737578 3.73892 0.0173653 3.49136 0.0950865L3.7909 1.04917C3.89775 1.01563 4.06819 0.994545 4.26166 1.00123C4.455 1.00791 4.62449 1.04071 4.73028 1.08194L5.09342 0.150204ZM16.9159 1.53987C16.7038 1.63832 16.5056 1.81559 16.3868 2.0201L17.2517 2.52217C17.2643 2.50049 17.3049 2.46179 17.337 2.44691L16.9159 1.53987ZM16.3869 2.02008C16.3484 2.08638 16.3061 2.16858 16.2759 2.28431C16.2491 2.38738 16.2364 2.49943 16.2285 2.62603C16.2131 2.87533 16.2118 3.28604 16.2118 4.00925H17.2118C17.2118 3.26922 17.2136 2.89806 17.2266 2.68771C17.233 2.58448 17.2408 2.54725 17.2436 2.53671C17.2443 2.53406 17.244 2.53555 17.2429 2.53808C17.2423 2.53929 17.2435 2.53624 17.2517 2.52219L16.3869 2.02008ZM16.2118 4.00925C16.2118 4.73274 16.2131 5.14346 16.2285 5.39273C16.2364 5.51932 16.2491 5.63137 16.276 5.73447C16.3063 5.85019 16.3485 5.93235 16.3869 5.9985L17.2518 5.4966C17.2436 5.48242 17.2424 5.4793 17.2429 5.48044C17.244 5.48291 17.2443 5.48438 17.2436 5.48176C17.2408 5.47128 17.233 5.43414 17.2266 5.33097C17.2136 5.12071 17.2118 4.7496 17.2118 4.00925H16.2118ZM16.387 5.99861C16.5062 6.20404 16.6935 6.35506 16.8748 6.45288C17.0587 6.5521 17.2829 6.62192 17.5132 6.62192V5.62192C17.4783 5.62192 17.4162 5.6087 17.3496 5.57282C17.3187 5.55613 17.2936 5.53804 17.2754 5.52175C17.2567 5.50496 17.251 5.49515 17.2518 5.49649L16.387 5.99861ZM17.5132 6.62192C17.7434 6.62192 17.9677 6.5521 18.1516 6.45288C18.3328 6.35506 18.5201 6.20404 18.6394 5.99861L17.7746 5.49649C17.7754 5.49515 17.7696 5.50496 17.7509 5.52175C17.7328 5.53804 17.7076 5.55613 17.6767 5.57282C17.6102 5.6087 17.548 5.62192 17.5132 5.62192V6.62192ZM18.6394 5.9985C18.6778 5.93235 18.7201 5.85019 18.7503 5.73447C18.7772 5.63137 18.79 5.51932 18.7978 5.39273C18.8132 5.14346 18.8145 4.73274 18.8145 4.00925H17.8145C17.8145 4.7496 17.8127 5.12071 17.7997 5.33097C17.7933 5.43414 17.7855 5.47128 17.7828 5.48176C17.7821 5.48438 17.7824 5.48291 17.7835 5.48044C17.784 5.4793 17.7827 5.48242 17.7745 5.4966L18.6394 5.9985ZM18.8145 4.00925C18.8145 3.28576 18.8132 2.87504 18.7978 2.62577C18.79 2.49918 18.7772 2.38713 18.7503 2.28403C18.7201 2.16831 18.6778 2.08615 18.6394 2.02L17.7745 2.5219C17.7827 2.53608 17.784 2.5392 17.7835 2.53806C17.7824 2.53559 17.7821 2.53411 17.7828 2.53674C17.7855 2.54722 17.7933 2.58436 17.7997 2.68753C17.8127 2.89779 17.8145 3.2689 17.8145 4.00925H18.8145ZM18.6394 2.01992C18.2889 1.41612 17.506 1.26613 16.916 1.53983L17.3369 2.44695C17.5486 2.34873 17.7308 2.44662 17.7746 2.52198L18.6394 2.01992ZM21.7658 2.92762C21.6819 2.96602 21.5912 3.0315 21.5306 3.07633C21.4558 3.13167 21.3672 3.20135 21.272 3.27868C21.0809 3.43389 20.8502 3.63038 20.6249 3.82833C20.3997 4.02626 20.176 4.22899 19.9993 4.397C19.9113 4.48067 19.8318 4.55873 19.7684 4.62488C19.7198 4.67567 19.6395 4.76067 19.59 4.84423L20.4506 5.3536C20.4314 5.38598 20.4276 5.3823 20.4905 5.31666C20.5387 5.26638 20.6058 5.20025 20.6883 5.12174C20.8528 4.96539 21.0662 4.77181 21.285 4.57952C21.5038 4.38725 21.7242 4.19964 21.9024 4.05491C21.9919 3.98228 22.0675 3.92304 22.1253 3.88026C22.1973 3.82698 22.2076 3.82514 22.1822 3.8368L21.7658 2.92762ZM19.59 4.84425C19.4907 5.01205 19.421 5.2047 19.4225 5.423C19.4239 5.63945 19.4952 5.83117 19.5923 5.99852L20.4572 5.49659C20.4193 5.43131 20.4224 5.41013 20.4224 5.41614C20.4225 5.424 20.418 5.40865 20.4506 5.35358L19.59 4.84425ZM19.5923 5.99861C19.7116 6.20404 19.8989 6.35506 20.0802 6.45288C20.2641 6.5521 20.4883 6.62192 20.7185 6.62192V5.62192C20.6837 5.62192 20.6215 5.6087 20.555 5.57282C20.5241 5.55613 20.499 5.53804 20.4808 5.52175C20.4621 5.50496 20.4564 5.49515 20.4571 5.49649L19.5923 5.99861ZM20.7185 6.62192C20.9 6.62192 21.135 6.55652 21.2892 6.48602L20.8734 5.57659C20.853 5.5859 20.8152 5.59936 20.7718 5.61021C20.7514 5.6153 20.7342 5.61871 20.7216 5.62065C20.7072 5.62288 20.7071 5.62192 20.7185 5.62192V6.62192ZM21.2891 6.48606C21.3737 6.44739 21.4649 6.38205 21.5272 6.33604C21.6031 6.28005 21.6925 6.20976 21.7883 6.13189C21.9805 5.9756 22.2117 5.77814 22.437 5.57929C22.6623 5.38047 22.8856 5.17677 23.0619 5.00772C23.1497 4.92354 23.2292 4.84477 23.2925 4.77779C23.3406 4.72688 23.4222 4.63941 23.4718 4.55216L22.6025 4.05789C22.6226 4.0226 22.6285 4.02457 22.5658 4.09084C22.5184 4.14102 22.452 4.20717 22.3699 4.28589C22.2064 4.44262 21.9938 4.63666 21.7753 4.82954C21.5568 5.02239 21.3363 5.21057 21.1575 5.35591C21.0678 5.42885 20.9918 5.48837 20.9334 5.53143C20.8615 5.58448 20.8496 5.58743 20.8734 5.57655L21.2891 6.48606ZM23.4718 4.55216C23.7826 4.00555 23.5552 3.44836 23.1988 3.13908C22.8455 2.83244 22.2914 2.68686 21.7658 2.92764L22.1822 3.83678C22.3043 3.78085 22.4452 3.80912 22.5433 3.89428C22.5902 3.93494 22.6092 3.97405 22.6147 3.99634C22.6183 4.01099 22.6198 4.02748 22.6025 4.05789L23.4718 4.55216ZM19.3144 7.60689C18.6452 7.75458 18.0371 8.17906 17.7334 8.7687L18.6224 9.22656C18.7711 8.9378 19.1087 8.67637 19.5299 8.5834L19.3144 7.60689ZM17.7334 8.76874C17.6644 8.90267 17.5865 9.06114 17.5481 9.25805C17.509 9.45837 17.5168 9.66207 17.5549 9.89599C17.627 10.3379 17.833 11.0179 18.2004 12.2124L19.1562 11.9184C18.7773 10.6865 18.6 10.0912 18.5419 9.73501C18.5149 9.56991 18.5209 9.49393 18.5296 9.44969C18.5389 9.40204 18.5583 9.35109 18.6224 9.22653L17.7334 8.76874ZM18.2004 12.2124C18.3793 12.7941 18.5419 13.3268 18.6596 13.7164C18.7185 13.9113 18.766 14.0696 18.7986 14.1801C18.815 14.2356 18.8272 14.2776 18.8352 14.3056C18.8393 14.32 18.8416 14.3284 18.8425 14.3321C18.8431 14.3345 18.8425 14.3319 18.8413 14.3268C18.8408 14.3245 18.8392 14.3175 18.8374 14.3079C18.8365 14.3031 18.835 14.2944 18.8336 14.2834C18.8326 14.2755 18.8296 14.2513 18.8296 14.22H19.8296C19.8296 14.1884 19.8265 14.1638 19.8254 14.1553C19.8239 14.1438 19.8223 14.1345 19.8213 14.1289C19.8192 14.1177 19.8172 14.1087 19.8161 14.1039C19.8138 14.0938 19.8114 14.0846 19.8098 14.0784C19.8063 14.0651 19.802 14.0494 19.7973 14.033C19.7878 13.9996 19.7744 13.9534 19.7577 13.8969C19.7242 13.7834 19.676 13.6227 19.6169 13.427C19.4985 13.0355 19.3355 12.5012 19.1562 11.9184L18.2004 12.2124ZM18.8296 14.22C18.8296 14.152 18.8458 13.9741 19.0087 13.8385C19.1692 13.7049 19.3441 13.7195 19.4074 13.7299C19.4773 13.7415 19.5273 13.7655 19.5455 13.7747C19.5687 13.7863 19.5856 13.7973 19.5942 13.803C19.6213 13.8213 19.6329 13.8341 19.6194 13.8213C19.602 13.8048 19.5675 13.769 19.5228 13.7175L18.768 14.3734C18.8246 14.4386 18.8822 14.5003 18.9315 14.5471C18.9514 14.5659 18.99 14.6018 19.0358 14.6326C19.041 14.6361 19.1243 14.6967 19.2442 14.7165C19.3099 14.7274 19.4868 14.7417 19.6485 14.607C19.8126 14.4704 19.8296 14.2906 19.8296 14.22H18.8296ZM19.5228 13.7176C19.066 13.1918 18.4196 12.9279 17.6993 12.9291L17.701 13.9291C18.1668 13.9283 18.5237 14.0923 18.768 14.3734L19.5228 13.7176ZM17.6993 12.9291C17.1266 12.9301 16.6497 13.088 16.2135 13.4383L16.8397 14.218C17.0864 14.0199 17.3391 13.9297 17.701 13.9291L17.6993 12.9291ZM16.2135 13.4383C15.7578 13.8044 15.4774 14.2673 15.4259 14.8312L16.4218 14.9221C16.4449 14.6691 16.5615 14.4415 16.8397 14.218L16.2135 13.4383ZM15.4259 14.8312L15.3981 15.1357L16.3939 15.2267L16.4218 14.9222L15.4259 14.8312ZM16.3012 14.8883L16.1575 14.6896L15.3472 15.2755L15.4908 15.4742L16.3012 14.8883ZM16.1575 14.6896C15.9154 14.3547 15.5299 14.0615 15.1395 13.9032L14.7636 14.8299C14.9923 14.9226 15.2225 15.1031 15.3472 15.2755L16.1575 14.6896ZM15.1396 13.9032C14.8595 13.7896 14.623 13.7679 14.2279 13.7677L14.2274 14.7677C14.5829 14.7678 14.6642 14.7895 14.7636 14.8298L15.1396 13.9032ZM14.2279 13.7677C14.0209 13.7676 13.8526 13.7709 13.6963 13.7969C13.5269 13.825 13.3925 13.8757 13.2473 13.9384L13.6435 14.8565C13.7601 14.8062 13.8081 14.792 13.86 14.7834C13.9249 14.7726 14.0168 14.7676 14.2274 14.7677L14.2279 13.7677ZM13.2473 13.9384C12.527 14.2493 12.0378 14.8613 11.9496 15.6299L12.9431 15.7438C12.9869 15.3616 13.2225 15.0383 13.6436 14.8565L13.2473 13.9384ZM11.9496 15.6299L11.9145 15.9364L12.908 16.0502L12.9431 15.7437L11.9496 15.6299ZM12.8901 15.8493L12.5811 14.822L11.6235 15.1101L11.9325 16.1373L12.8901 15.8493ZM12.5811 14.8221C12.3642 14.1004 12.1912 13.5938 11.9587 13.2354C11.6955 12.8297 11.3745 12.6366 10.9749 12.4719L10.5938 13.3964C10.8912 13.519 11.0085 13.608 11.1197 13.7796C11.2616 13.9983 11.3992 14.364 11.6235 15.11L12.5811 14.8221ZM10.9748 12.4719C10.8325 12.4132 10.7001 12.3673 10.5377 12.3414C10.3853 12.317 10.2246 12.3132 10.0317 12.3141L10.0362 13.3141C10.2239 13.3132 10.3142 13.3183 10.3797 13.3288C10.4353 13.3377 10.4878 13.3527 10.5938 13.3964L10.9748 12.4719ZM10.0317 12.3141C9.83552 12.315 9.67208 12.3196 9.51569 12.348C9.34951 12.3781 9.21394 12.4306 9.06689 12.4951L9.46829 13.411C9.59065 13.3573 9.64236 13.3413 9.69405 13.3319C9.75553 13.3208 9.84056 13.315 10.0362 13.3141L10.0317 12.3141ZM9.06692 12.495C8.58013 12.7084 8.12281 13.1313 7.92067 13.6061L8.84076 13.9978C8.92839 13.792 9.17807 13.5381 9.46827 13.411L9.06692 12.495ZM7.92067 13.6061C7.86585 13.7349 7.80227 13.8907 7.78079 14.0939C7.75996 14.291 7.7816 14.4988 7.83191 14.7486C7.92988 15.235 8.17036 16.0298 8.61595 17.4901L9.57241 17.1982C9.11798 15.7089 8.8979 14.9765 8.81223 14.5511C8.77071 14.345 8.76977 14.2508 8.77525 14.199C8.7801 14.1531 8.79175 14.1129 8.84076 13.9978L7.92067 13.6061ZM8.61595 17.4901C9.06382 18.9577 9.50808 20.3621 9.59843 20.5833L10.5242 20.205C10.4563 20.0389 10.0302 18.6983 9.57241 17.1982L8.61595 17.4901ZM9.59844 20.5833C10.3792 22.494 12.3087 24.0968 14.4753 24.6947L14.7413 23.7308C12.833 23.2041 11.1726 21.792 10.5241 20.205L9.59844 20.5833ZM14.4753 24.6948C15.3603 24.939 15.8356 25 16.8187 25V24C15.9181 24 15.5327 23.9492 14.7413 23.7308L14.4753 24.6948ZM16.8187 25C17.4735 25 17.8663 24.9776 18.2449 24.9068L18.061 23.9238C17.7753 23.9773 17.457 24 16.8187 24V25ZM18.2449 24.9068C19.7656 24.6224 20.9943 24.0723 22.0666 23.177L21.4257 22.4093C20.5014 23.1811 19.4361 23.6666 18.061 23.9238L18.2449 24.9068ZM22.0666 23.177C23.2163 22.2171 23.9684 21.0612 24.3399 19.6658L23.3736 19.4086C23.0579 20.5943 22.4249 21.5751 21.4257 22.4093L22.0666 23.177ZM24.3399 19.6658C24.4766 19.1525 24.4976 18.9296 24.4999 18.2127L23.4999 18.2094C23.4977 18.8762 23.4806 19.0065 23.3736 19.4086L24.3399 19.6658ZM24.4999 18.2127C24.5018 17.621 24.4788 17.2559 24.3964 16.9187L23.425 17.156C23.477 17.3689 23.5017 17.6321 23.4999 18.2095L24.4999 18.2127ZM24.3964 16.9187C24.2878 16.474 23.6811 14.4712 23.0951 12.5791C22.8003 11.6274 22.5081 10.6951 22.2819 9.98746C22.1689 9.63388 22.0719 9.33483 21.9991 9.11695C21.9628 9.00834 21.9318 8.91751 21.9074 8.84927C21.8953 8.81544 21.8837 8.78417 21.8733 8.75776C21.8677 8.7435 21.849 8.69502 21.8231 8.65049L20.9589 9.1536C20.9404 9.12184 20.9332 9.09956 20.9429 9.12413C20.9477 9.13655 20.9553 9.15674 20.9658 9.18619C20.9867 9.24453 21.0152 9.32758 21.0506 9.43377C21.1214 9.64549 21.2168 9.93971 21.3294 10.2919C21.5543 10.9957 21.8456 11.9249 22.1398 12.875C22.7319 14.7866 23.3256 16.7493 23.425 17.156L24.3964 16.9187ZM21.8231 8.65043C21.5809 8.23462 21.1683 7.93093 20.7356 7.75357C20.3008 7.57536 19.7907 7.50177 19.3144 7.6069L19.53 8.5834C19.7715 8.53007 20.0728 8.56266 20.3563 8.67887C20.642 8.79594 20.8548 8.97491 20.9589 9.15366L21.8231 8.65043ZM2.74719 18.5144C2.66334 18.5528 2.57258 18.6183 2.51198 18.6631C2.43717 18.7185 2.3486 18.7881 2.25339 18.8655C2.06229 19.0207 1.83161 19.2172 1.60634 19.4151C1.38109 19.613 1.15744 19.8158 0.980728 19.9838C0.892722 20.0675 0.813181 20.1455 0.749809 20.2117C0.701153 20.2625 0.620898 20.3475 0.57144 20.431L1.43198 20.9404C1.41282 20.9728 1.40903 20.9691 1.47192 20.9034C1.52009 20.8532 1.58717 20.787 1.66975 20.7085C1.8342 20.5522 2.0476 20.3586 2.26642 20.1663C2.48523 19.974 2.70565 19.7864 2.88383 19.6417C2.97326 19.5691 3.04888 19.5098 3.1067 19.467C3.17873 19.4138 3.18904 19.4119 3.16359 19.4236L2.74719 18.5144ZM0.571472 20.431C0.52063 20.5168 0.480796 20.6118 0.453143 20.6973C0.428084 20.7748 0.398605 20.8883 0.398605 21.0045H1.39861C1.39861 21.018 1.39767 21.027 1.39728 21.0303C1.39686 21.0339 1.39659 21.0348 1.397 21.0328C1.39788 21.0284 1.4002 21.0187 1.40462 21.0051C1.40894 20.9917 1.41418 20.9779 1.41972 20.9652C1.42541 20.9522 1.42991 20.9439 1.43195 20.9404L0.571472 20.431ZM0.398605 21.0045C0.398605 21.249 0.493943 21.473 0.61284 21.6432C0.733522 21.8159 0.907097 21.9749 1.12002 22.0704L1.52918 21.158C1.50507 21.1471 1.46564 21.1178 1.43259 21.0705C1.41737 21.0487 1.40775 21.029 1.40253 21.0144C1.39716 20.9994 1.39861 20.9961 1.39861 21.0045H0.398605ZM1.12011 22.0705C1.29981 22.151 1.49008 22.203 1.69517 22.2041C1.90137 22.2052 2.09158 22.1546 2.27055 22.0728L1.85484 21.1633C1.78021 21.1975 1.73372 21.2043 1.70046 21.2041C1.66607 21.2039 1.6141 21.196 1.52909 21.1579L1.12011 22.0705ZM2.27054 22.0728C2.35515 22.0342 2.44628 21.9688 2.50862 21.9228C2.5845 21.8668 2.67387 21.7965 2.76968 21.7187C2.96194 21.5624 3.19309 21.3649 3.41839 21.1661C3.64365 20.9673 3.86702 20.7636 4.04335 20.5945C4.13114 20.5103 4.2106 20.4316 4.27392 20.3646C4.32205 20.3137 4.40361 20.2262 4.45322 20.1389L3.58391 19.6447C3.60397 19.6094 3.60986 19.6114 3.54722 19.6776C3.49978 19.7278 3.43338 19.794 3.35127 19.8727C3.1878 20.0294 2.97519 20.2234 2.75666 20.4163C2.53817 20.6092 2.31771 20.7974 2.13891 20.9427C2.04919 21.0156 1.97317 21.0752 1.91482 21.1182C1.84294 21.1713 1.83105 21.1742 1.85484 21.1633L2.27054 22.0728ZM4.45322 20.1389C4.76401 19.5923 4.53657 19.0351 4.18023 18.7259C3.82695 18.4192 3.27275 18.2736 2.74715 18.5144L3.16363 19.4236C3.28573 19.3676 3.42663 19.3959 3.52475 19.4811C3.57159 19.5217 3.59056 19.5608 3.59606 19.5831C3.59968 19.5978 3.6012 19.6143 3.58391 19.6447L4.45322 20.1389ZM5.91077 18.5351C5.69868 18.6336 5.50043 18.8108 5.3817 19.0153L6.24653 19.5174C6.25911 19.4957 6.29976 19.457 6.33182 19.4421L5.91077 18.5351ZM5.38171 19.0153C5.34322 19.0816 5.30099 19.1638 5.2708 19.2795C5.24392 19.3826 5.23121 19.4947 5.22338 19.6213C5.20798 19.8706 5.20668 20.2813 5.20668 21.0045H6.20668C6.20668 20.2645 6.20848 19.8933 6.22148 19.6829C6.22786 19.5797 6.23568 19.5425 6.23843 19.5319C6.23912 19.5293 6.23883 19.5308 6.23772 19.5333C6.23718 19.5345 6.23836 19.5315 6.24651 19.5174L5.38171 19.0153ZM5.20668 21.0045C5.20668 21.728 5.20797 22.1387 5.2234 22.388C5.23123 22.5145 5.24396 22.6266 5.27089 22.7297C5.30111 22.8454 5.34337 22.9276 5.38175 22.9937L6.24668 22.4918C6.23845 22.4776 6.23724 22.4745 6.23774 22.4757C6.23883 22.4781 6.23912 22.4796 6.23843 22.477C6.23569 22.4665 6.22787 22.4294 6.22149 22.3262C6.20848 22.1159 6.20668 21.7448 6.20668 21.0045H5.20668ZM5.38182 22.9938C5.50109 23.1993 5.68836 23.3503 5.86964 23.4481C6.05353 23.5473 6.27777 23.6171 6.50802 23.6171V22.6171C6.47319 22.6171 6.41101 22.6039 6.3445 22.568C6.31356 22.5514 6.28843 22.5333 6.27027 22.517C6.25155 22.5002 6.24584 22.4904 6.24662 22.4917L5.38182 22.9938ZM6.50802 23.6171C6.73828 23.6171 6.96252 23.5473 7.1464 23.4481C7.32769 23.3503 7.51495 23.1993 7.63423 22.9938L6.76943 22.4917C6.77021 22.4904 6.76449 22.5002 6.74578 22.517C6.72762 22.5333 6.70249 22.5514 6.67155 22.568C6.60504 22.6039 6.54286 22.6171 6.50802 22.6171V23.6171ZM7.63423 22.9938C7.67267 22.9276 7.71497 22.8454 7.7452 22.7295C7.77213 22.6264 7.78485 22.5142 7.79267 22.3874C7.80808 22.1378 7.80937 21.7262 7.80937 21.001H6.80937C6.80937 21.7431 6.80758 22.1151 6.79457 22.3258C6.78819 22.4293 6.78036 22.4665 6.77761 22.477C6.77693 22.4797 6.77722 22.4782 6.77833 22.4756C6.77885 22.4745 6.77765 22.4776 6.76942 22.4917L7.63423 22.9938ZM7.80937 21.001C7.80937 20.2495 7.8091 19.8359 7.79232 19.5916C7.78372 19.4664 7.76906 19.3509 7.73455 19.2418C7.69686 19.1227 7.64408 19.0398 7.61085 18.9879L6.76834 19.5266C6.7938 19.5664 6.78532 19.5567 6.7811 19.5434C6.78005 19.5401 6.788 19.5631 6.79467 19.6601C6.80843 19.8605 6.80937 20.227 6.80937 21.001H7.80937ZM7.6108 18.9878C7.24196 18.4112 6.50439 18.2597 5.91087 18.5351L6.33172 19.4422C6.5326 19.349 6.70407 19.4261 6.76839 19.5266L7.6108 18.9878Z" fill="#383F43" mask="url(#path-1-inside-1_1978_149097)"/>
</svg>
