<svg width="26" height="24" viewBox="0 0 26 24" fill="none" xmlns="http://www.w3.org/2000/svg">
<path fill-rule="evenodd" clip-rule="evenodd" d="M17.4754 7.43065C17.4754 7.49347 17.4986 7.66173 17.5269 7.80456C17.5725 8.0338 17.6111 8.06421 17.8571 8.06421C18.1321 8.06421 18.1356 8.05956 18.1356 7.69031V7.31641H17.8055C17.5804 7.31641 17.4754 7.3528 17.4754 7.43065ZM16.1462 7.45783C15.9435 7.4894 15.9346 7.51042 15.9913 7.82259C16.0677 8.24336 16.0787 8.25233 16.4354 8.18494C16.723 8.1306 16.7326 8.11706 16.7326 7.76418C16.7326 7.37133 16.7257 7.36767 16.1462 7.45783ZM14.7684 7.73069C14.3996 7.81868 14.3883 7.84029 14.5164 8.21004L14.6282 8.53234L14.9622 8.44369L15.2961 8.35503L15.2255 8.0019C15.1866 7.80763 15.1292 7.65259 15.0978 7.65724C15.0665 7.66198 14.9182 7.69496 14.7684 7.73069ZM13.293 8.17439C12.9278 8.31024 12.9179 8.33193 13.0632 8.68191C13.1549 8.90284 13.2291 8.97854 13.3195 8.94364C13.3896 8.91655 13.5362 8.87185 13.6455 8.84418C13.7548 8.81659 13.8441 8.77438 13.8441 8.75037C13.8441 8.62599 13.6461 8.06513 13.6042 8.07053C13.5773 8.07402 13.4373 8.12072 13.293 8.17439ZM11.8429 8.82141C11.6727 8.90982 11.5335 9.00936 11.5337 9.04251C11.5339 9.07567 11.6074 9.22407 11.6972 9.3723L11.8604 9.64176L12.1508 9.50233C12.4785 9.34496 12.4914 9.29245 12.2933 8.92328L12.1523 8.66072L11.8429 8.82141ZM10.4898 9.74396C10.1978 10.0703 10.1994 10.1195 10.5087 10.312L10.8055 10.4966L11.0216 10.2791L11.2378 10.0614L11.0673 9.83137C10.8461 9.53275 10.6987 9.51048 10.4898 9.74396ZM10.4684 11.0623L10.1875 11.2348L10.4939 11.5398L10.8004 11.8448L11.0015 11.5955C11.254 11.2823 11.2538 11.191 10.9998 11.0235C10.7518 10.8598 10.8047 10.8559 10.4684 11.0623ZM11.755 11.9307C11.6785 12.0922 11.6159 12.2437 11.6159 12.2673C11.6159 12.3098 12.1435 12.5511 12.2364 12.5511C12.2811 12.5511 12.5237 12.028 12.5237 11.9317C12.5237 11.8981 11.9799 11.6371 11.9099 11.6371C11.9012 11.6371 11.8315 11.7692 11.755 11.9307ZM13.1437 12.5197C13.0751 12.6852 13.0189 12.8342 13.0189 12.8509C13.0189 12.8882 13.5926 13.1327 13.6803 13.1327C13.7152 13.1327 13.7662 13.0427 13.7936 12.9327C13.821 12.8227 13.8662 12.673 13.8941 12.5998C13.9307 12.5036 13.8634 12.4329 13.6495 12.3429C13.2644 12.1809 13.2877 12.1728 13.1437 12.5197ZM14.5698 13.0846L14.4419 13.4321L14.7994 13.5615L15.157 13.691L15.2777 13.3342L15.3985 12.9774L15.0481 12.8573L14.6977 12.737L14.5698 13.0846ZM16.0269 13.587C15.9611 13.7455 15.9073 13.8945 15.9073 13.9182C15.9073 13.9559 16.4551 14.2129 16.5353 14.2129C16.5652 14.2129 16.8151 13.6434 16.8151 13.5753C16.8151 13.538 16.2783 13.2989 16.1946 13.2989C16.1681 13.2989 16.0927 13.4286 16.0269 13.587ZM17.4352 14.1815C17.3665 14.347 17.3103 14.4956 17.3103 14.5117C17.3103 14.558 17.7881 14.7945 17.8818 14.7945C17.9652 14.7945 18.2181 14.3718 18.2181 14.2324C18.2181 14.1709 17.7059 13.8805 17.5974 13.8805C17.577 13.8805 17.5039 14.0159 17.4352 14.1815ZM18.7651 14.9272L18.5602 15.2308L18.7999 15.4338L19.0395 15.6369L19.3315 15.4126C19.6521 15.1664 19.6387 15.1029 19.1997 14.7883L18.97 14.6236L18.7651 14.9272ZM19.1803 16.3524C19.1424 16.5353 19.1843 16.6286 19.3901 16.82L19.6472 17.0591L19.7957 16.7784C19.8774 16.6241 19.9458 16.4137 19.9477 16.3109C19.9508 16.1449 19.9106 16.1239 19.5895 16.1239C19.2613 16.1239 19.2233 16.1452 19.1803 16.3524ZM18.2794 17.1189C18.1542 17.197 18.0308 17.282 18.0051 17.3078C17.968 17.3452 18.1619 17.8203 18.2619 17.9369C18.2744 17.9516 18.4355 17.886 18.6199 17.7913L18.9551 17.6191L18.7846 17.3282C18.5665 16.9561 18.5511 16.9497 18.2794 17.1189ZM16.8341 17.7236C16.6455 17.7845 16.5761 17.8507 16.6033 17.9436C16.6248 18.0167 16.6669 18.1805 16.697 18.3076C16.7542 18.5491 16.7779 18.5511 17.2897 18.3583C17.5092 18.2756 17.509 18.277 17.3558 17.9077C17.226 17.5948 17.2294 17.596 16.8341 17.7236ZM15.4661 18.1543C15.1508 18.2338 15.1491 18.2365 15.2017 18.5678C15.2309 18.7511 15.2713 18.9179 15.2916 18.9384C15.3643 19.0116 15.9897 18.7741 15.9836 18.6756C15.9801 18.6203 15.9337 18.4624 15.8804 18.3246C15.7872 18.0836 15.7717 18.0773 15.4661 18.1543ZM13.9812 18.5566C13.6713 18.6349 13.6656 18.6432 13.7195 18.9382C13.7935 19.344 13.839 19.3754 14.2055 19.2735C14.5134 19.188 14.5192 19.1791 14.4648 18.8805C14.3924 18.484 14.3584 18.4612 13.9812 18.5566ZM12.4412 18.9403C12.3195 18.9743 12.2377 19.0561 12.2417 19.1397C12.2718 19.7575 12.2463 19.7228 12.6237 19.6621C12.8149 19.6313 12.9858 19.5916 13.0034 19.574C13.0209 19.5563 13.0097 19.3897 12.9785 19.2038C12.9191 18.8498 12.8629 18.8221 12.4412 18.9403ZM10.9969 19.2575C10.7353 19.3209 10.6927 19.405 10.7545 19.7364C10.8122 20.0468 10.8125 20.0469 11.1491 19.9927C11.3343 19.9628 11.4978 19.9265 11.5124 19.9118C11.5269 19.8971 11.5143 19.7306 11.4843 19.5417C11.4286 19.1909 11.3826 19.1641 10.9969 19.2575ZM9.44006 19.591C9.2127 19.6252 9.20568 19.6398 9.25809 19.9702C9.28813 20.1591 9.32708 20.3282 9.34458 20.3459C9.36216 20.3635 9.53142 20.3516 9.72082 20.3195C10.0513 20.2632 10.0631 20.2508 10.0152 20.01C9.9878 19.872 9.96535 19.7077 9.96535 19.6449C9.96535 19.5311 9.89008 19.5234 9.44006 19.591ZM7.91338 19.9229C7.73446 19.957 7.72274 19.9886 7.77267 20.3031C7.80271 20.4917 7.83911 20.6581 7.85363 20.6728C7.86824 20.6874 8.03676 20.6742 8.22823 20.6434L8.57641 20.5873L8.52062 20.2881C8.43554 19.8313 8.42522 19.8251 7.91338 19.9229ZM6.3867 20.2527C6.25639 20.2879 6.24129 20.3461 6.28734 20.6363C6.31722 20.8245 6.35031 20.9871 6.36087 20.9977C6.38514 21.0222 6.99766 20.8845 7.03587 20.846C7.05146 20.8302 7.03793 20.6867 7.00574 20.5271C6.94533 20.2277 6.76889 20.1494 6.3867 20.2527Z" fill="#383F43"/>
<path d="M19.9474 5.21053H24.8566C24.9239 5.2105 24.9897 5.19148 25.0465 5.15569C25.1033 5.11991 25.1486 5.06883 25.1771 5.00845C25.2056 4.94808 25.2162 4.88089 25.2076 4.81477C25.199 4.74864 25.1716 4.68632 25.1285 4.63509L23.8422 3.10526L25.1285 1.57544C25.1716 1.52421 25.199 1.46188 25.2076 1.39576C25.2162 1.32964 25.2056 1.26245 25.1771 1.20207C25.1486 1.14169 25.1033 1.09062 25.0465 1.05483C24.9897 1.01904 24.9239 1.00002 24.8566 1H19.9474V7.31579" stroke="#383F43" stroke-width="0.7" stroke-linecap="round" stroke-linejoin="round"/>
<path d="M5 18.875C5 19.9105 4.2 21.5 3 23C1.8 21.5 1 19.9105 1 18.875C1 17.8395 1.89543 17 3 17C4.10457 17 5 17.8395 5 18.875Z" stroke="#383F43" stroke-width="0.7" stroke-linejoin="round"/>
</svg>
