<svg width="40" height="40" viewBox="0 0 40 40" fill="none" xmlns="http://www.w3.org/2000/svg">
<circle cx="20" cy="20" r="19.75" fill="#F4C7C7" stroke="#F1B0B0" stroke-width="0.5"/>
<path d="M31.4253 12.1253H31.4247L8.5687 12.1253C8.56852 12.1253 8.56833 12.1253 8.56814 12.1253C8.40058 12.1259 8.23634 12.1722 8.09308 12.2591C7.94966 12.3461 7.83269 12.4706 7.75476 12.6192C7.67684 12.7678 7.6409 12.9348 7.65083 13.1022C7.66074 13.2695 7.71601 13.4308 7.81069 13.569C7.81083 13.5692 7.81096 13.5694 7.81109 13.5696L19.2389 30.0764L19.2389 30.0764C19.3985 30.3071 19.6838 30.4389 19.9951 30.4389C20.3061 30.4389 20.5919 30.3072 20.7522 30.0764L31.4253 12.1253ZM31.4253 12.1253C31.5932 12.125 31.7579 12.1708 31.9016 12.2576C32.0453 12.3444 32.1625 12.4689 32.2404 12.6176C32.3183 12.7663 32.354 12.9335 32.3435 13.1011C32.3331 13.2686 32.2769 13.4301 32.1811 13.568L32.1808 13.5685L20.7524 30.0761L31.4253 12.1253Z" stroke="white" stroke-width="0.7"/>
</svg>
