<svg width="10" height="11" viewBox="0 0 10 11" fill="none" xmlns="http://www.w3.org/2000/svg">
<path d="M9.86008 9.45153L7.46585 6.73076C7.29416 6.53556 7.07958 6.45741 6.98662 6.55721C6.89333 6.6563 6.67861 6.57834 6.50692 6.38314L6.47268 6.34408C7.54425 4.79379 7.44026 2.57412 6.15346 1.15864C4.74904 -0.386214 2.47195 -0.386214 1.06772 1.15864C-0.336699 2.7035 -0.336699 5.20794 1.06772 6.7528C2.37643 8.19258 4.442 8.28901 5.85424 7.0455L5.86927 7.06274C6.04064 7.25794 6.10447 7.49644 6.01089 7.59569C5.91775 7.69497 5.98112 7.93363 6.15299 8.12847L8.54592 10.8503C8.71761 11.045 9.0005 11.0508 9.17813 10.8618L9.8497 10.147C10.0267 9.95842 10.0314 9.64744 9.86008 9.45153ZM5.36318 5.88343C4.39672 6.9467 2.82401 6.9467 1.85769 5.88379C0.891233 4.82068 0.89138 3.0905 1.85769 2.02759C2.82401 0.964479 4.39672 0.964641 5.36286 2.02775C6.32947 3.09069 6.32947 4.82052 5.36318 5.88343Z" fill="#A0627B"/>
</svg>
