<svg width="10" height="11" viewBox="0 0 10 11" fill="none" xmlns="http://www.w3.org/2000/svg">
<g clip-path="url(#clip0_2173_158042)">
<path d="M9.86033 9.45153L7.46609 6.73076C7.29441 6.53556 7.07983 6.45741 6.98686 6.55721C6.89358 6.6563 6.67885 6.57834 6.50716 6.38314L6.47292 6.34408C7.54449 4.79379 7.4405 2.57412 6.1537 1.15864C4.74929 -0.386214 2.4722 -0.386214 1.06796 1.15864C-0.336455 2.7035 -0.336455 5.20794 1.06796 6.7528C2.37668 8.19258 4.44224 8.28901 5.85448 7.0455L5.86952 7.06274C6.04088 7.25794 6.10472 7.49644 6.01114 7.59569C5.918 7.69497 5.98137 7.93363 6.15323 8.12847L8.54617 10.8503C8.71785 11.045 9.00074 11.0508 9.17837 10.8618L9.84994 10.147C10.0269 9.95842 10.0317 9.64744 9.86033 9.45153ZM5.36343 5.88343C4.39697 6.9467 2.82425 6.9467 1.85794 5.88379C0.891477 4.82068 0.891624 3.0905 1.85794 2.02759C2.82425 0.964479 4.39697 0.964641 5.3631 2.02775C6.32971 3.09069 6.32971 4.82052 5.36343 5.88343Z" fill="#C4C4C4"/>
</g>
<defs>
<clipPath id="clip0_2173_158042">
<rect width="10" height="11" fill="white"/>
</clipPath>
</defs>
</svg>
