<svg width="29" height="26" viewBox="0 0 29 26" fill="none" xmlns="http://www.w3.org/2000/svg">
<path fill-rule="evenodd" clip-rule="evenodd" d="M26.6326 11.743C26.3804 11.6339 23.4396 10.4034 20.0976 9.00839C13.5305 6.26729 13.4405 6.23919 12.7523 6.70989C12.3825 6.96295 12.0818 7.63795 12.1643 8.02983C12.1929 8.16573 12.7362 9.33363 13.3714 10.6253C14.0067 11.9169 14.5257 13.0471 14.5245 13.1367C14.5234 13.2264 14.014 14.3253 13.3924 15.5786C12.7709 16.8321 12.2272 18.0016 12.1844 18.1777C11.9652 19.0772 12.8942 19.9901 13.828 19.7927C14.3738 19.6774 27.1352 14.3059 27.3318 14.1087C27.7818 13.6576 27.7718 12.6027 27.3133 12.1571C27.1912 12.0384 26.8848 11.852 26.6326 11.743ZM26.6364 13.2464C26.6015 13.3998 25.2027 14.0214 20.2271 16.0948C16.7265 17.5535 13.7386 18.76 13.5873 18.7759C13.0478 18.8322 13.1435 18.51 14.4694 15.8038C15.1639 14.3863 15.7133 13.1471 15.6904 13.05C15.6675 12.9528 15.0993 11.7535 14.4276 10.385C13.1837 7.84998 13.0706 7.48737 13.523 7.4873C13.7991 7.4873 26.4821 12.7682 26.5969 12.9309C26.6431 12.9965 26.6609 13.1384 26.6364 13.2464ZM6.70102 8.50652C5.63239 8.50119 4.66375 8.55338 4.54843 8.62242C4.3107 8.76483 4.24129 9.22269 4.42895 9.41034C4.56514 9.54654 8.66216 9.56843 8.79697 9.43362C8.92821 9.30239 8.90762 8.77979 8.76559 8.63775C8.69866 8.57082 7.76958 8.51177 6.70102 8.50652ZM6.25951 12.5912C3.46578 12.5884 1.1575 12.644 1.03452 12.717C0.740883 12.8916 0.68855 13.1773 0.900728 13.4469C1.0532 13.6406 1.69018 13.6629 6.17594 13.6311C8.98193 13.6112 11.3518 13.5422 11.4424 13.4779C11.6725 13.3144 11.6776 13.0095 11.4536 12.7856C11.3023 12.6343 10.26 12.5953 6.25951 12.5912ZM6.70941 16.684C5.64012 16.6748 4.66937 16.7249 4.55201 16.7951C4.3107 16.9396 4.23961 17.3958 4.42894 17.5851C4.56514 17.7213 8.66216 17.7432 8.79697 17.6084C8.92609 17.4793 8.90857 16.9555 8.7704 16.8173C8.7061 16.753 7.7787 16.693 6.70941 16.684Z" fill="white"/>
</svg>
