<svg width="16" height="17" viewBox="0 0 16 17" fill="none" xmlns="http://www.w3.org/2000/svg">
<path fill-rule="evenodd" clip-rule="evenodd" d="M14.2662 0.650705C14.0618 0.73155 11.7022 1.69807 9.02252 2.79839C3.75704 4.96052 3.69023 4.9955 3.56719 5.65043C3.50113 6.00244 3.71286 6.55384 3.98124 6.72865C4.0743 6.78928 5.04228 7.14228 6.1323 7.51326C7.22233 7.88416 8.15521 8.22957 8.20525 8.28088C8.25537 8.3322 8.58882 9.24105 8.94622 10.3006C9.3037 11.3602 9.65771 12.3284 9.7331 12.4521C10.1179 13.0843 11.1599 13.0752 11.5765 12.4359C11.82 12.0623 16.0003 1.81505 16 1.59247C15.9993 1.08323 15.3969 0.492726 14.8855 0.500068C14.7493 0.501965 14.4706 0.569777 14.2662 0.650705ZM15.1188 1.49818C15.1859 1.6046 14.7462 2.74634 13.1045 6.72989C11.9494 9.53251 10.9417 11.9029 10.8651 11.9973C10.5917 12.3341 10.4636 12.0979 9.68281 9.81926C9.2738 8.62572 8.88362 7.6149 8.81574 7.57299C8.74778 7.531 7.74793 7.17437 6.59383 6.78054C4.45614 6.05095 4.18702 5.90996 4.44293 5.65423C4.59908 5.49823 14.761 1.31512 14.918 1.34218C14.9812 1.35315 15.0716 1.42328 15.1188 1.49818ZM1.16038 10.0855C0.55286 10.6864 0.0344376 11.2633 0.00826044 11.3675C-0.0456628 11.5823 0.174076 11.8802 0.386384 11.8802C0.540473 11.8802 2.87048 9.5773 2.87048 9.42493C2.87048 9.27661 2.56321 8.9929 2.40252 8.9929C2.32679 8.9929 1.76782 9.48458 1.16038 10.0855ZM3.22127 12.6433C1.63933 14.2206 0.364996 15.5564 0.336754 15.6672C0.269371 15.9318 0.401413 16.1228 0.673919 16.1553C0.869793 16.1786 1.24271 15.8312 3.76224 13.2782C5.33832 11.6813 6.63991 10.303 6.65477 10.2155C6.69243 9.993 6.52281 9.81786 6.26946 9.81786C6.09828 9.81786 5.48663 10.3849 3.22127 12.6433ZM5.79101 14.702C5.18092 15.3011 4.66011 15.878 4.63343 15.984C4.57869 16.202 4.79653 16.5 5.01073 16.5C5.16482 16.5 7.49483 14.1971 7.49483 14.0447C7.49483 13.8988 7.18863 13.6127 7.03232 13.6127C6.95956 13.6127 6.40101 14.1028 5.79101 14.702Z" fill="#383F43"/>
</svg>
