<svg width="24" height="24" viewBox="0 0 24 24" fill="none" xmlns="http://www.w3.org/2000/svg">
<path fill-rule="evenodd" clip-rule="evenodd" d="M10.4533 4.0492C10.3006 4.11739 10.1638 4.2786 10.1191 4.44326C10.0978 4.52148 10.0803 4.76148 10.0801 4.97659L10.0799 5.36771L9.73714 5.48486C9.54859 5.54929 9.22535 5.6817 9.01877 5.77912L8.64324 5.95629L8.32164 5.63715C7.91214 5.23085 7.76078 5.17158 7.45664 5.29837C7.30027 5.36355 5.50606 7.12938 5.34695 7.37467C5.23737 7.54363 5.21536 7.72077 5.28181 7.89873C5.3024 7.95377 5.46283 8.14356 5.63833 8.32045L5.95748 8.64205L5.7803 9.01759C5.68288 9.22417 5.55047 9.5474 5.48604 9.73595L5.36889 10.0787L4.97778 10.079C4.5243 10.0792 4.34226 10.1195 4.20007 10.251C4.00196 10.4342 4 10.4514 4 11.9954C4 13.4697 4.00651 13.5421 4.15349 13.7C4.30738 13.8653 4.41813 13.8964 4.90784 13.9119L5.37127 13.9266L5.48722 14.2656C5.551 14.452 5.68288 14.7735 5.7803 14.98L5.95748 15.3556L5.63833 15.6772C5.46283 15.8541 5.3024 16.0439 5.28181 16.0989C5.21536 16.2769 5.23737 16.454 5.34695 16.623C5.50606 16.8683 7.30027 18.6341 7.45664 18.6993C7.76078 18.8261 7.91214 18.7668 8.32164 18.3605L8.64324 18.0413L9.01877 18.2185C9.22535 18.3159 9.54859 18.4483 9.73714 18.5128L10.0799 18.6299L10.0801 19.021C10.0804 19.4745 10.1207 19.6566 10.2522 19.7987C10.4354 19.9969 10.4523 19.9988 12 19.9988C13.5603 19.9988 13.5767 19.9969 13.7514 19.7892C13.8844 19.6311 13.9196 19.4705 13.9198 19.0195L13.92 18.6268L14.2133 18.531C14.3747 18.4782 14.6982 18.3468 14.9323 18.2389L15.358 18.0427L15.679 18.3611C16.0878 18.7667 16.2393 18.826 16.5434 18.6993C16.6997 18.6341 18.4939 16.8683 18.653 16.623C18.7626 16.454 18.7846 16.2769 18.7182 16.0989C18.6976 16.0439 18.5371 15.854 18.3616 15.6771L18.0423 15.3554L18.2161 14.9838C18.3117 14.7794 18.4438 14.4579 18.5098 14.2694L18.6296 13.9266L19.0926 13.9119C19.5818 13.8964 19.6927 13.8652 19.8465 13.7C19.9935 13.5421 20 13.4697 20 11.9954C20 10.4388 19.998 10.4221 19.7904 10.2474C19.6325 10.1145 19.4718 10.0793 19.0222 10.0789L18.6311 10.0785L18.5105 9.73197C18.4442 9.54139 18.3117 9.21827 18.2161 9.01386L18.0423 8.64223L18.3616 8.32052C18.5371 8.1436 18.6976 7.95377 18.7182 7.89873C18.7846 7.72077 18.7626 7.54363 18.653 7.37467C18.5205 7.1703 16.7111 5.37578 16.5618 5.30058C16.4309 5.23466 16.2447 5.22662 16.1001 5.28063C16.045 5.30122 15.8553 5.46164 15.6784 5.63715L15.3568 5.95629L14.9812 5.77912C14.7746 5.6817 14.4514 5.54929 14.2629 5.48486L13.9201 5.36771L13.9199 4.97659C13.9196 4.52707 13.8843 4.36639 13.7514 4.20842C13.5764 4.00045 13.5615 3.99867 11.9922 4.0002C10.8749 4.00131 10.5365 4.01208 10.4533 4.0492ZM13.3786 5.16212L13.3883 5.77432L13.5386 5.81293C14.0585 5.94659 14.6475 6.18271 15.101 6.43921C15.2519 6.52454 15.3961 6.59437 15.4216 6.59437C15.447 6.59437 15.6513 6.41037 15.8756 6.18548C16.0998 5.96059 16.2994 5.77659 16.3192 5.77659C16.3664 5.77659 18.2222 7.63192 18.2222 7.67914C18.2222 7.69912 18.0306 7.90655 17.7965 8.14008L17.3708 8.56468L17.4656 8.72621C17.7562 9.22143 18.0395 9.90406 18.1852 10.4602L18.2245 10.6105L18.8367 10.6202L19.4489 10.6299V11.9988V13.3677L18.8367 13.3774L18.2245 13.3872L18.1852 13.5374C18.0395 14.0936 17.7562 14.7762 17.4656 15.2714L17.3708 15.4329L17.7965 15.8576C18.0306 16.0911 18.2222 16.2983 18.2222 16.318C18.2222 16.3652 16.3669 18.221 16.3197 18.221C16.2997 18.221 16.0998 18.037 15.8756 17.8121C15.6513 17.5873 15.4471 17.4033 15.4217 17.4033C15.3963 17.4033 15.2644 17.4663 15.1285 17.5433C14.7396 17.7637 14.2765 17.9608 13.8297 18.0963C13.6033 18.1649 13.4114 18.221 13.4032 18.221C13.395 18.221 13.384 18.4971 13.3786 18.8344L13.3689 19.4477H12H10.6311L10.6214 18.8344C10.616 18.497 10.605 18.221 10.5968 18.221C10.5886 18.221 10.3989 18.1656 10.1752 18.0978C9.70656 17.9557 9.25948 17.7648 8.85333 17.5333L8.56889 17.3712L8.14172 17.7961C7.90677 18.0298 7.69888 18.221 7.67975 18.221C7.63324 18.221 5.77778 16.365 5.77778 16.3185C5.77778 16.2985 5.96178 16.0986 6.18667 15.8744C6.41156 15.6501 6.59556 15.4458 6.59556 15.4204C6.59556 15.3949 6.52572 15.2507 6.44039 15.0998C6.18389 14.6463 5.94777 14.0573 5.81412 13.5374L5.7755 13.3872L5.16331 13.3774L4.55111 13.3677V11.9988V10.6299L5.16331 10.6202L5.7755 10.6105L5.81412 10.4602C5.94777 9.94036 6.18389 9.35131 6.44039 8.89784C6.52572 8.74694 6.59556 8.60269 6.59556 8.57723C6.59556 8.55181 6.41156 8.34751 6.18667 8.12326C5.96178 7.89901 5.77778 7.69937 5.77778 7.67963C5.77778 7.63242 7.6331 5.77659 7.68032 5.77659C7.70034 5.77659 7.9002 5.96059 8.12444 6.18548C8.34869 6.41037 8.553 6.59437 8.57842 6.59437C8.60388 6.59437 8.74812 6.52454 8.89902 6.43921C9.35278 6.18253 9.94133 5.94666 10.4622 5.81272L10.6133 5.77386V5.1767C10.6133 4.84827 10.6242 4.5687 10.6374 4.55544C10.6507 4.54218 11.2707 4.53549 12.0152 4.54061L13.3689 4.54993L13.3786 5.16212ZM11.239 7.71818C10.3443 7.87974 9.49575 8.34104 8.85269 9.01539C7.25991 10.6858 7.25991 13.3118 8.85269 14.9822C10.2047 16.4001 12.2914 16.7472 14.0147 15.841C16.565 14.4999 17.1287 11.1012 15.1467 9.01574C14.4961 8.33115 13.6511 7.87619 12.733 7.71608C12.3438 7.6482 11.6207 7.64923 11.239 7.71818ZM12.7107 8.24973C14.2155 8.53521 15.4245 9.72742 15.7371 11.2344C15.8758 11.9027 15.8069 12.7313 15.5596 13.3705C15.3607 13.8843 15.1155 14.2522 14.6844 14.6833C14.1108 15.2569 13.5249 15.5782 12.7644 15.7359C12.363 15.8192 11.694 15.8247 11.2893 15.7479C9.7606 15.4579 8.54091 14.2382 8.25092 12.7095C8.17995 12.3354 8.17995 11.6622 8.25092 11.2881C8.53639 9.78317 9.71058 8.58637 11.2178 8.26403C11.6067 8.18083 12.3119 8.17411 12.7107 8.24973Z" fill="#A0627B"/>
</svg>
