<svg width="15" height="15" viewBox="0 0 15 15" fill="none" xmlns="http://www.w3.org/2000/svg">
<path fill-rule="evenodd" clip-rule="evenodd" d="M6.05 0.0461237C5.9068 0.110057 5.7786 0.26119 5.73663 0.415557C5.7167 0.48889 5.70027 0.71389 5.70013 0.915557L5.69993 1.28222L5.37857 1.39206C5.2018 1.45246 4.89877 1.57659 4.7051 1.66792L4.35303 1.83402L4.05153 1.53482C3.66763 1.15392 3.52573 1.09836 3.2406 1.21722C3.094 1.27832 1.41193 2.93379 1.26277 3.16376C1.16003 3.32216 1.1394 3.48822 1.2017 3.65506C1.221 3.70666 1.3714 3.88459 1.53593 4.05042L1.83513 4.35192L1.66903 4.70399C1.5777 4.89766 1.45357 5.20069 1.39317 5.37746L1.28333 5.69882L0.916667 5.69902C0.491533 5.69929 0.320867 5.73706 0.187567 5.86032C0.0018333 6.03206 0 6.04816 0 7.49566C0 8.87789 0.00610005 8.94576 0.1439 9.09372C0.288167 9.24869 0.392 9.27786 0.8511 9.29242L1.28557 9.30619L1.39427 9.62396C1.45407 9.79872 1.5777 10.1001 1.66903 10.2938L1.83513 10.6459L1.53593 10.9474C1.3714 11.1132 1.221 11.2911 1.2017 11.3427C1.1394 11.5096 1.16003 11.6756 1.26277 11.834C1.41193 12.064 3.094 13.7195 3.2406 13.7806C3.52573 13.8994 3.66763 13.8439 4.05153 13.463L4.35303 13.1638L4.7051 13.3299C4.89877 13.4212 5.2018 13.5453 5.37857 13.6057L5.69993 13.7156L5.70013 14.0822C5.7004 14.5074 5.73817 14.678 5.86143 14.8113C6.0332 14.9971 6.049 14.9989 7.5 14.9989C8.9628 14.9989 8.97813 14.9971 9.14193 14.8024C9.26667 14.6542 9.2996 14.5036 9.2998 14.0808L9.3 13.7126L9.575 13.6228C9.72627 13.5734 10.0296 13.4501 10.2491 13.349L10.6482 13.165L10.9491 13.4636C11.3323 13.8438 11.4744 13.8994 11.7594 13.7806C11.906 13.7195 13.5881 12.064 13.7372 11.834C13.84 11.6756 13.8606 11.5096 13.7983 11.3427C13.779 11.2911 13.6286 11.1132 13.464 10.9473L13.1647 10.6457L13.3276 10.2973C13.4172 10.1057 13.5411 9.80429 13.6029 9.62752L13.7153 9.30616L14.1493 9.29239C14.608 9.27786 14.7119 9.24866 14.8561 9.09372C14.9939 8.94576 15 8.87789 15 7.49566C15 6.03639 14.9981 6.02072 14.8035 5.85696C14.6554 5.73236 14.5048 5.69932 14.0833 5.69892L13.7167 5.69856L13.6036 5.37372C13.5414 5.19506 13.4172 4.89212 13.3276 4.70049L13.1647 4.35209L13.464 4.05049C13.6286 3.88462 13.779 3.70666 13.7983 3.65506C13.8606 3.48822 13.84 3.32216 13.7372 3.16376C13.613 2.97216 11.9167 1.28979 11.7767 1.21929C11.654 1.15749 11.4794 1.14996 11.3438 1.20059C11.2922 1.21989 11.1143 1.37029 10.9485 1.53482L10.647 1.83402L10.2949 1.66792C10.1012 1.57659 9.7982 1.45246 9.62143 1.39206L9.30007 1.28222L9.29987 0.915557C9.2996 0.494124 9.26657 0.34349 9.14193 0.19539C8.9779 0.000423765 8.9639 -0.00124294 7.49273 0.000190397C6.4452 0.00122373 6.128 0.0113237 6.05 0.0461237ZM8.79243 1.08949L8.80157 1.66342L8.94243 1.69962C9.4298 1.82492 9.98203 2.04629 10.4072 2.28676C10.5486 2.36676 10.6839 2.43222 10.7077 2.43222C10.7316 2.43222 10.9231 2.25972 11.1333 2.04889C11.3436 1.83806 11.5307 1.66556 11.5492 1.66556C11.5935 1.66556 13.3333 3.40492 13.3333 3.44919C13.3333 3.46792 13.1537 3.66239 12.9342 3.88132L12.5351 4.27939L12.624 4.43082C12.8965 4.89509 13.162 5.53506 13.2986 6.05646L13.3355 6.19732L13.9094 6.20646L14.4833 6.21556V7.49889V8.78222L13.9094 8.79132L13.3355 8.80046L13.2986 8.94132C13.162 9.46272 12.8965 10.1027 12.624 10.567L12.5351 10.7184L12.9342 11.1165C13.1537 11.3354 13.3333 11.5297 13.3333 11.5481C13.3333 11.5924 11.5939 13.3322 11.5497 13.3322C11.5309 13.3322 11.3436 13.1597 11.1333 12.9489C10.9231 12.7381 10.7316 12.5656 10.7079 12.5656C10.6841 12.5656 10.5604 12.6246 10.433 12.6968C10.0683 12.9035 9.6342 13.0883 9.21537 13.2153C9.00313 13.2796 8.8232 13.3322 8.81553 13.3322C8.80783 13.3322 8.79747 13.591 8.79247 13.9072L8.78333 14.4822H7.5H6.21667L6.20753 13.9072C6.20253 13.591 6.19217 13.3322 6.18447 13.3322C6.1768 13.3322 5.99897 13.2802 5.78923 13.2167C5.3499 13.0835 4.93077 12.9045 4.55 12.6875L4.28333 12.5355L3.88287 12.9339C3.6626 13.153 3.4677 13.3322 3.44977 13.3322C3.40617 13.3322 1.66667 11.5922 1.66667 11.5486C1.66667 11.5298 1.83917 11.3425 2.05 11.1322C2.26083 10.922 2.43333 10.7305 2.43333 10.7066C2.43333 10.6828 2.36787 10.5475 2.28787 10.4061C2.0474 9.98092 1.82603 9.42869 1.70073 8.94132L1.66453 8.80046L1.0906 8.79132L0.516667 8.78222V7.49889V6.21556L1.0906 6.20646L1.66453 6.19732L1.70073 6.05646C1.82603 5.56909 2.0474 5.01686 2.28787 4.59172C2.36787 4.45026 2.43333 4.31502 2.43333 4.29116C2.43333 4.26732 2.26083 4.07579 2.05 3.86556C1.83917 3.65532 1.66667 3.46816 1.66667 3.44966C1.66667 3.40539 3.40603 1.66556 3.4503 1.66556C3.46907 1.66556 3.65643 1.83806 3.86667 2.04889C4.0769 2.25972 4.26843 2.43222 4.29227 2.43222C4.31613 2.43222 4.45137 2.36676 4.59283 2.28676C5.01823 2.04612 5.57 1.82499 6.05833 1.69942L6.2 1.66299V1.10316C6.2 0.795257 6.21017 0.533157 6.2226 0.520724C6.23503 0.50829 6.8163 0.502024 7.51427 0.506824L8.78333 0.515557L8.79243 1.08949ZM6.78657 3.48579C5.9478 3.63726 5.15227 4.06972 4.5494 4.70192C3.05617 6.26792 3.05617 8.72986 4.5494 10.2959C5.8169 11.6251 7.77317 11.9505 9.38877 11.1009C11.7797 9.84366 12.3081 6.65739 10.45 4.70226C9.84007 4.06046 9.0479 3.63392 8.18717 3.48382C7.82233 3.42019 7.14443 3.42116 6.78657 3.48579ZM8.1663 3.98412C9.57707 4.25176 10.7104 5.36946 11.0035 6.78222C11.1335 7.40876 11.069 8.18562 10.8371 8.78482C10.6507 9.26652 10.4208 9.61146 10.0167 10.0156C9.47883 10.5534 8.92957 10.8545 8.21667 11.0024C7.84027 11.0805 7.2131 11.0856 6.8337 11.0137C5.40057 10.7418 4.2571 9.59832 3.98523 8.16519C3.9187 7.81442 3.9187 7.18336 3.98523 6.83259C4.25287 5.42172 5.35367 4.29972 6.76667 3.99752C7.13127 3.91952 7.79243 3.91322 8.1663 3.98412Z" fill="#383F43"/>
</svg>
