<svg width="18" height="18" viewBox="0 0 18 18" fill="none" xmlns="http://www.w3.org/2000/svg">
<g clip-path="url(#clip0_2109_141612)">
<path d="M12.6105 1.20785L12.5324 1.14546M12.6105 1.20785C11.9927 1.98184 11.8226 2.91531 12.1111 4.01773C12.1247 4.06966 12.1021 4.11234 12.0826 4.13786C12.0633 4.16302 12.0356 4.18711 12.0034 4.21133C11.9377 4.26078 11.8279 4.32952 11.6539 4.43027C11.304 4.63282 10.6775 4.97436 9.58139 5.56691C8.89317 5.93893 8.26181 6.27859 7.799 6.52615C7.56762 6.64991 7.37824 6.75072 7.24492 6.82106C7.17829 6.85621 7.12544 6.88387 7.08825 6.90302C7.06972 6.91257 7.05469 6.9202 7.04365 6.92565L7.0289 6.93273C7.0289 6.93273 7.01709 6.93838 7.00583 6.94122C6.97214 6.94975 6.94197 6.94263 6.92289 6.93581C6.90243 6.9285 6.13253 6.11406 6.35665 6.36727M12.6105 1.20785C13.4989 0.174166 14.6027 0.0399709 15.0435 0.102083C15.4456 0.112701 15.5856 0.1346 15.8452 0.222187C17.4593 0.766886 18.2943 2.48861 17.7164 4.07486C17.3782 5.00312 16.622 5.6811 15.623 5.94623C15.458 5.99 15.206 6.01392 14.9452 6.01485C14.6847 6.01578 14.4266 5.99375 14.25 5.9508C13.6823 5.81274 13.1117 5.47367 12.7383 5.05399C12.6598 4.96576 12.5967 4.90142 12.5429 4.86219C12.4897 4.8233 12.4207 4.79123 12.3447 4.82043C12.337 4.82339 12.3249 4.82963 12.3173 4.83356L12.3157 4.83437L12.2693 4.85862C12.2302 4.87924 12.1745 4.9088 12.1047 4.94599C11.965 5.02039 11.7684 5.12555 11.5338 5.25126C11.0647 5.50269 10.4437 5.83643 9.82225 6.17086C9.20083 6.5053 8.57903 6.84045 8.10848 7.09472C7.87322 7.22185 7.67571 7.32878 7.53495 7.40531C7.46459 7.44356 7.4083 7.47427 7.36854 7.49613C7.33215 7.51612 7.30337 7.53203 7.29472 7.53778C7.26667 7.55644 7.25705 7.58253 7.25399 7.59264C7.25041 7.60442 7.24977 7.61431 7.24959 7.61911C7.24921 7.62913 7.25034 7.63747 7.25089 7.64124C7.25216 7.64994 7.25426 7.65873 7.25604 7.6656C7.25985 7.6803 7.26559 7.69912 7.27238 7.71992C7.28614 7.76207 7.30612 7.81827 7.32902 7.87863C7.43221 8.15065 7.52952 8.71917 7.52952 9.05826C7.52952 9.39734 7.43221 9.96586 7.32902 10.2378C7.30611 10.2982 7.28613 10.3544 7.27238 10.3966C7.26559 10.4174 7.25984 10.4363 7.25603 10.451C7.25425 10.4579 7.25215 10.4667 7.25088 10.4754C7.25033 10.4792 7.24922 10.4875 7.24959 10.4975C7.24976 10.5023 7.2504 10.5121 7.25392 10.5237C7.25692 10.5337 7.26627 10.5595 7.29373 10.5782M6.56129 6.56755C6.3767 6.3944 5.98715 6.03883 5.85748 5.9517C5.53853 5.73731 5.08751 5.53676 4.6745 5.42669C4.47003 5.3722 4.12685 5.34526 3.77314 5.34844C3.41977 5.35162 3.07133 5.38472 2.85688 5.44334C1.53305 5.80526 0.550065 6.79785 0.181155 8.14816C0.129473 8.33739 0.100736 8.70256 0.0996417 9.07332C0.0985459 9.44512 0.125358 9.79857 0.175046 9.9663C0.515911 11.1167 1.18292 11.9304 2.16777 12.4075C2.45867 12.5485 2.68363 12.6354 2.92107 12.6882C3.15891 12.7412 3.41385 12.7611 3.76595 12.7631C4.22935 12.7657 4.42632 12.7483 4.65471 12.6899M7.31819 10.5925L7.3195 10.5933L7.36463 10.6182C7.40291 10.6391 7.4576 10.6689 7.52629 10.7063C7.66371 10.7809 7.85753 10.8859 8.08899 11.011C8.55195 11.2613 9.16571 11.5925 9.7805 11.9237C11.0065 12.5844 12.2457 13.2506 12.2895 13.2706C12.3154 13.2824 12.352 13.2979 12.3952 13.2986C12.4415 13.2993 12.482 13.2833 12.5195 13.2601C12.5867 13.2185 12.6758 13.1324 12.817 12.9935C13.3656 12.4538 13.9423 12.2007 14.7036 12.1651C15.2364 12.1402 15.628 12.2177 16.0831 12.4367M16.0831 12.4367L16.1265 12.3466M16.0831 12.4367C16.8259 12.7941 17.3894 13.4747 17.614 14.2873C17.6685 14.4843 17.6949 14.7684 17.6914 15.056C17.6879 15.3439 17.6545 15.6237 17.5957 15.8125M17.5957 15.8125L17.6911 15.8423M17.5957 15.8125C17.2183 17.0233 16.2236 17.818 14.9969 17.8945C13.7037 17.9753 12.5037 17.1553 12.102 15.9155M12.102 15.9155L12.0069 15.9463M12.102 15.9155C11.928 15.3784 11.9286 14.7584 12.1096 14.0999C12.1236 14.049 12.1028 14.0064 12.083 13.9798C12.064 13.9543 12.0364 13.9302 12.0048 13.9062C11.9402 13.8572 11.8318 13.7894 11.6597 13.6898C11.3134 13.4895 10.6916 13.1511 9.59981 12.5619C8.91673 12.1933 8.28869 11.8556 7.8271 11.6084C7.59632 11.4848 7.40706 11.3838 7.2733 11.3129C7.20645 11.2774 7.15331 11.2494 7.11572 11.2298L7.07071 11.2066L7.06979 11.2061C7.06192 11.2021 7.04967 11.1959 7.0412 11.1928C6.99421 11.1752 6.9504 11.1894 6.92542 11.2006C6.89761 11.213 6.87026 11.2318 6.84448 11.2526C6.79235 11.2947 6.73089 11.3579 6.66231 11.4378M6.66231 11.4378L6.73819 11.503M6.66231 11.4378C6.10929 12.0822 5.46829 12.4818 4.65471 12.6899M4.65471 12.6899L4.67948 12.7867M15.1371 5.29382L15.1229 5.19484M15.1371 5.29382C16.1373 5.14997 16.9114 4.36628 17.0327 3.37196C17.1607 2.32289 16.5258 1.30732 15.5345 0.981133M15.1371 5.29382C13.7004 5.50038 12.4269 4.2321 12.6323 2.79771C12.8318 1.40541 14.2056 0.543977 15.5345 0.981133M15.5345 0.981133L15.5032 1.07612M3.35401 6.00152C3.4991 5.97847 3.71424 5.97658 3.92799 5.98929C4.14249 6.00205 4.36529 6.03011 4.5267 6.07068C4.66888 6.10645 4.96189 6.22613 5.18126 6.33581C6.29977 6.89521 6.98277 8.17459 6.82324 9.41249C6.65643 10.7066 5.76151 11.7225 4.49706 12.0536M3.35401 6.00152L3.3697 6.10028M3.35401 6.00152C1.79824 6.24873 0.707491 7.50609 0.707491 9.05826C0.707491 9.54339 0.793163 9.94245 0.988519 10.3623M0.988519 10.3623L1.07919 10.3201M0.988519 10.3623C1.37043 11.183 2.08297 11.7819 2.97155 12.0314C3.40526 12.1532 4.07776 12.1634 4.49706 12.0536M4.49706 12.0536L4.47173 11.9569M13.516 16.8174L13.5754 16.7369M13.516 16.8174C14.6292 17.6382 16.2048 17.2448 16.82 15.996C17.4708 14.6748 16.6792 13.1023 15.2291 12.8338C14.5087 12.7004 13.795 12.9299 13.2633 13.4626C12.3044 14.4231 12.424 16.0121 13.516 16.8174Z" stroke="#383F43" stroke-width="0.2"/>
</g>
<defs>
<clipPath id="clip0_2109_141612">
<rect width="18" height="18" fill="white"/>
</clipPath>
</defs>
</svg>
