<svg width="10" height="10" viewBox="0 0 10 10" fill="none" xmlns="http://www.w3.org/2000/svg">
<path fill-rule="evenodd" clip-rule="evenodd" d="M1.12683 0.0365727C0.709159 0.147629 0.341041 0.448498 0.151995 0.833333C-0.0107394 1.1646 0.000151779 0.825023 0.000151779 5.57012V9.86277L0.0687616 9.93139L0.137371 10H0.493072H0.848773L0.917382 9.93139L0.985992 9.86277V5.66333C0.985992 0.933756 0.971604 1.2993 1.16434 1.12965C1.23902 1.0639 1.30808 1.02737 1.39277 1.00885C1.47882 0.990047 1.98535 0.984953 3.13372 0.991362C4.9314 1.00139 4.83776 0.993474 5.18755 1.16479C5.42917 1.28312 5.70899 1.56357 5.83008 1.80876C6.00643 2.1658 5.99387 1.95446 6.00807 4.80275C6.02209 7.62033 6.0099 7.41458 6.16677 7.48016C6.27129 7.52385 6.73546 7.5227 6.84127 7.4785C7.00812 7.40878 6.99683 7.62016 6.98948 4.70392C6.98286 2.08364 6.98272 2.07704 6.93155 1.89702C6.66345 0.954085 6.03814 0.324765 5.1134 0.067277L4.91762 0.0127699L3.08677 0.00751173C1.54283 0.00307511 1.23569 0.00762908 1.12683 0.0365727ZM9.08216 0.068615L9.01355 0.13723V4.33052C9.01355 7.46399 9.00658 8.55148 8.98597 8.63331C8.9451 8.79566 8.78 8.95319 8.61227 8.98993C8.51913 9.01031 8.0551 9.01528 6.86583 9.00864C5.06779 8.99862 5.16009 9.00641 4.81324 8.83507C4.56807 8.71397 4.28764 8.43413 4.16932 8.19249C3.99304 7.83249 4.00567 8.04519 3.99147 5.19725C3.97745 2.37967 3.98964 2.58542 3.83277 2.51984C3.72825 2.47615 3.26408 2.4773 3.15827 2.5215C2.99143 2.59122 3.00272 2.37984 3.01006 5.29608C3.01668 7.91636 3.01682 7.92296 3.06799 8.10298C3.182 8.50394 3.33095 8.79817 3.56892 9.09232C3.89946 9.50099 4.35717 9.7884 4.91435 9.93723C5.10279 9.98756 5.13054 9.98826 6.94798 9.98826C8.78587 9.98826 8.79098 9.98812 8.95487 9.9362C9.39725 9.79601 9.74643 9.4581 9.92609 8.99629L9.98765 8.83803L9.99383 4.48793L10 0.13784L9.93108 0.0689202L9.86217 0H9.50647H9.15077L9.08216 0.068615Z" fill="#A0627B"/>
</svg>
