<svg width="7" height="7" viewBox="0 0 7 7" fill="none" xmlns="http://www.w3.org/2000/svg">
<path fill-rule="evenodd" clip-rule="evenodd" d="M0.788778 0.0256009C0.496411 0.10334 0.238729 0.313948 0.106396 0.583333C-0.00751756 0.815221 0.000106245 0.577516 0.000106245 3.89908V6.90394L0.0481331 6.95197L0.09616 7H0.34515H0.594141L0.642168 6.95197L0.690194 6.90394V3.96433C0.690194 0.653629 0.680122 0.909507 0.815035 0.790753C0.867317 0.744728 0.915656 0.71916 0.974938 0.706195C1.03517 0.693033 1.38975 0.689467 2.1936 0.693953C3.45198 0.700969 3.38644 0.695432 3.63128 0.815352C3.80042 0.898185 3.99629 1.0945 4.08106 1.26613C4.2045 1.51606 4.19571 1.36812 4.20565 3.36192C4.21546 5.33423 4.20693 5.1902 4.31674 5.23611C4.38991 5.26669 4.71482 5.26589 4.78889 5.23495C4.90568 5.18615 4.89778 5.33411 4.89263 3.29274C4.888 1.45855 4.8879 1.45393 4.85208 1.32791C4.66441 0.667859 4.2267 0.227336 3.57938 0.0470939L3.44233 0.00893895L2.16074 0.00525821C1.07998 0.00215258 0.864984 0.00534035 0.788778 0.0256009ZM6.35751 0.0480305L6.30948 0.096061V3.03136C6.30948 5.22479 6.3046 5.98603 6.29018 6.04332C6.26157 6.15696 6.146 6.26723 6.02859 6.29295C5.96339 6.30721 5.63857 6.3107 4.80608 6.30605C3.54746 6.29903 3.61206 6.30449 3.36926 6.18455C3.19765 6.09978 3.00135 5.90389 2.91852 5.73474C2.79513 5.48274 2.80397 5.63163 2.79403 3.63808C2.78422 1.66577 2.79275 1.8098 2.68294 1.76388C2.60977 1.73331 2.28486 1.73411 2.21079 1.76505C2.094 1.81385 2.1019 1.66588 2.10704 3.70726C2.11168 5.54145 2.11178 5.54607 2.1476 5.67209C2.2274 5.95276 2.33167 6.15872 2.49824 6.36463C2.72962 6.65069 3.05002 6.85188 3.44005 6.95606C3.57195 6.99129 3.59137 6.99178 4.86359 6.99178C6.15011 6.99178 6.15369 6.99169 6.26841 6.95534C6.57808 6.85721 6.8225 6.62067 6.94826 6.2974L6.99136 6.18662L6.99568 3.14155L7 0.0964883L6.95176 0.0482441L6.90352 0H6.65453H6.40554L6.35751 0.0480305Z" fill="#2E3940"/>
</svg>
