<svg width="12" height="10" viewBox="0 0 12 10" fill="none" xmlns="http://www.w3.org/2000/svg">
<path d="M7.87442 5.3434C7.92621 5.33002 7.98354 5.3125 8.0455 5.29107C8.26296 5.21586 8.52234 5.09781 8.77144 4.96387C9.02078 4.82979 9.25399 4.68291 9.42059 4.55199C9.50443 4.48611 9.56647 4.42809 9.60515 4.38118C9.62444 4.35779 9.63473 4.34096 9.63951 4.33072C9.63982 4.33006 9.64009 4.32946 9.64033 4.32892C9.63686 4.28386 9.63991 4.23526 9.6571 4.18675C9.67626 4.13269 9.70945 4.08871 9.75174 4.0536C9.82874 3.98967 9.93985 3.95276 10.064 3.92246C10.2318 3.88146 10.4945 3.70611 10.8034 3.39336L10.8034 3.39333C11.0114 3.18274 11.1126 3.06901 11.1544 2.99776C11.1615 2.98554 11.1654 2.97707 11.1674 2.97176L7.87442 5.3434ZM7.87442 5.3434C7.92447 5.28469 7.9856 5.21565 8.05745 5.13682C8.31896 4.84992 8.71263 4.44408 9.20327 3.95822C9.65248 3.51345 10.0614 3.09268 10.3585 2.77279C10.5069 2.61305 10.6285 2.47721 10.7137 2.37555C10.756 2.32503 10.7911 2.28079 10.8164 2.2452C10.8288 2.22766 10.8409 2.20934 10.8505 2.19167C10.8553 2.18286 10.861 2.17162 10.8657 2.15891C10.8696 2.1483 10.8773 2.12569 10.8773 2.09717C10.8773 2.06513 10.8659 2.00438 10.8062 1.96597C10.7568 1.93425 10.7079 1.94105 10.6922 1.94387C10.6575 1.95007 10.6286 1.9669 10.6167 1.97398C10.5845 1.99302 10.5444 2.02298 10.5011 2.05766C10.412 2.12908 10.2858 2.23963 10.1332 2.3793C9.82695 2.65946 9.40584 3.0642 8.94345 3.52607C8.27571 4.19305 7.85679 4.60021 7.59942 4.82494C7.54185 4.87521 7.49429 4.91461 7.45531 4.94497C7.46545 4.88871 7.48301 4.8218 7.50842 4.74499C7.5718 4.55344 7.67893 4.3155 7.81892 4.05472C8.09876 3.53343 8.50115 2.93713 8.9195 2.46274C9.00585 2.36483 9.06895 2.2943 9.11797 2.24451C9.13707 2.22511 9.15229 2.21073 9.16422 2.20014C9.16808 2.20512 9.17242 2.21079 9.17725 2.21724C9.2142 2.26654 9.26173 2.32417 9.31925 2.35649C9.35182 2.37479 9.3987 2.39134 9.45384 2.38268C9.50966 2.37391 9.54997 2.34311 9.57624 2.31337C9.62203 2.26154 9.64806 2.18684 9.66704 2.11922C9.68792 2.0448 9.70776 1.9489 9.72871 1.83261C9.75229 1.70179 9.84453 1.55471 10.023 1.40593C10.2002 1.25826 10.4515 1.11839 10.7677 1.00104C11.0782 0.885899 11.3498 0.915955 11.5381 1.03136C11.724 1.14525 11.85 1.35479 11.85 1.64738C11.85 1.87519 11.8243 2.00606 11.7677 2.1054C11.7112 2.20463 11.6122 2.29298 11.417 2.40814C11.3464 2.44978 11.2868 2.48687 11.2398 2.52116C11.1949 2.554 11.1494 2.59266 11.1187 2.64041C11.0828 2.69614 11.0688 2.76154 11.0866 2.82999C11.1015 2.88703 11.1356 2.9332 11.1631 2.96625L7.87442 5.3434ZM3.31892 3.0931L3.3188 3.09305C3.28836 3.08134 3.25369 3.06721 3.22528 3.04984C3.20572 3.03788 3.13408 2.99246 3.12984 2.90046C3.12592 2.81543 3.18473 2.7625 3.20032 2.74847L3.20034 2.74845C3.22464 2.72658 3.25569 2.70565 3.28484 2.68684L3.31892 3.0931ZM3.31892 3.0931C3.36972 3.11258 3.4412 3.12213 3.50946 3.12822M3.31892 3.0931L3.50946 3.12822M3.32063 3.58824L3.32073 3.58815C3.34855 3.56036 3.38088 3.54918 3.39041 3.54589L3.39061 3.54581C3.40565 3.54061 3.42098 3.53697 3.43419 3.53428C3.46104 3.52882 3.49364 3.52445 3.52878 3.52076C3.59988 3.51329 3.69472 3.50726 3.80389 3.50246C4.02296 3.49284 4.30859 3.48785 4.59684 3.48748C4.88517 3.48711 5.17796 3.49136 5.41146 3.50038C5.52803 3.50489 5.63128 3.51063 5.7124 3.51776C5.75287 3.52131 5.78939 3.52534 5.82008 3.52999L3.32063 3.58824ZM3.32063 3.58824C3.29367 3.61522 3.25989 3.65545 3.24461 3.7084C3.22591 3.77322 3.23981 3.84065 3.28425 3.89309C3.3206 3.93598 3.36946 3.95958 3.40832 3.97399C3.45009 3.98947 3.49907 4.001 3.55264 4.01016C3.76285 4.04611 4.13015 4.05891 4.68182 4.05891C5.23867 4.05891 5.63615 4.03971 5.85098 3.99986M3.32063 3.58824L5.85098 3.99986M5.90033 5.46634C5.87888 5.43164 5.84964 5.41284 5.83449 5.40421C5.81696 5.39422 5.79919 5.38728 5.78445 5.38233C5.7548 5.37238 5.72027 5.36487 5.68528 5.35882C5.61423 5.34654 5.52116 5.33693 5.41608 5.32946C5.20479 5.31443 4.93052 5.30704 4.65458 5.30704C4.37852 5.30704 4.09774 5.31443 3.87326 5.32941C3.76131 5.33688 3.66097 5.34639 3.58128 5.35827C3.54155 5.36418 3.50451 5.37104 3.47256 5.37922C3.44447 5.3864 3.40591 5.39802 3.37311 5.41923C3.35969 5.4279 3.33435 5.44602 3.31517 5.47703C3.29148 5.51531 3.27965 5.57116 3.30474 5.62725C3.32467 5.67182 3.3589 5.69488 3.37473 5.7043C3.39332 5.71535 3.41197 5.72234 3.42626 5.72691C3.47945 5.74394 3.55917 5.75398 3.65116 5.76134C3.84325 5.7767 4.15107 5.78424 4.57337 5.78474H4.57338C4.98135 5.78519 5.29485 5.77755 5.50327 5.76198C5.60581 5.75432 5.69056 5.74424 5.74999 5.73008C5.77612 5.72385 5.81548 5.71293 5.84897 5.69032C5.86588 5.67891 5.89804 5.65347 5.91488 5.60801C5.93498 5.55372 5.92236 5.50199 5.90033 5.46634ZM5.90033 5.46634L5.77273 5.5452M5.90033 5.46634C5.90031 5.46631 5.90029 5.46629 5.90028 5.46626L5.77273 5.5452M5.77273 5.5452C5.78238 5.56079 5.75992 5.57447 5.70657 5.58614C5.70652 5.58615 5.70647 5.58616 5.70642 5.58617C5.68629 5.59057 5.66178 5.59468 5.63294 5.59849L5.30593 5.47283C5.37145 5.46998 5.42981 5.46663 5.48092 5.46281C5.58097 5.45534 5.64565 5.44654 5.68045 5.43825C5.69015 5.43594 5.69407 5.43444 5.69408 5.43445C5.69408 5.43445 5.68879 5.4365 5.68114 5.44166C5.67395 5.44652 5.64842 5.46486 5.63405 5.50248C5.71264 5.51438 5.76248 5.52862 5.77273 5.5452ZM3.50946 3.12822C3.58337 3.13481 3.67318 3.13873 3.77167 3.14055M3.50946 3.12822L3.77167 3.14055M3.77167 3.14055C3.96896 3.14418 4.20825 3.13944 4.43923 3.12882M3.77167 3.14055L4.43923 3.12882M4.43923 3.12882C4.66994 3.1182 4.8955 3.10156 5.06493 3.08093M4.43923 3.12882L5.06493 3.08093M5.06493 3.08093C5.14878 3.07071 5.22358 3.05898 5.27957 3.04535M5.06493 3.08093L5.27957 3.04535M5.27957 3.04535C5.30639 3.03882 5.33686 3.03001 5.36358 3.01723M5.27957 3.04535L5.36358 3.01723M5.36358 3.01723C5.37648 3.01107 5.39692 3.00008 5.41624 2.98184M5.36358 3.01723L5.41624 2.98184M5.41624 2.98184C5.43512 2.96402 5.46818 2.9242 5.46818 2.8635M5.41624 2.98184L5.46818 2.8635M5.46818 2.8635C5.46818 2.80955 5.44226 2.77094 5.42227 2.74972M5.46818 2.8635L5.42227 2.74972M5.42227 2.74972C5.40304 2.7293 5.382 2.71666 5.36788 2.70925M5.42227 2.74972L5.36788 2.70925M5.36788 2.70925C5.33927 2.69424 5.30672 2.68428 5.27851 2.67712M5.36788 2.70925L5.27851 2.67712M5.27851 2.67712C5.21967 2.66217 5.14164 2.65016 5.05506 2.64031M5.27851 2.67712L5.05506 2.64031M5.05506 2.64031C4.87995 2.62038 4.64781 2.60687 4.41252 2.60076M5.05506 2.64031L4.41252 2.60076M4.41252 2.60076C4.17697 2.59465 3.93444 2.59586 3.73818 2.60602M4.41252 2.60076L3.73818 2.60602M3.73818 2.60602C3.64033 2.61108 3.55139 2.6185 3.4795 2.62887M3.73818 2.60602L3.4795 2.62887M3.4795 2.62887C3.44364 2.63405 3.40956 2.6403 3.37953 2.64812M3.4795 2.62887L3.37953 2.64812M3.37953 2.64812C3.35254 2.65514 3.31647 2.66643 3.28487 2.68682L3.37953 2.64812ZM5.85098 3.99986C5.90487 3.98987 5.95583 3.97712 5.99748 3.95925M5.85098 3.99986L5.99748 3.95925M5.99748 3.95925C6.01826 3.95033 6.04317 3.93745 6.06597 3.91825M5.99748 3.95925L6.06597 3.91825M6.06597 3.91825C6.08869 3.89911 6.11845 3.86578 6.12925 3.81568M6.06597 3.91825L6.12925 3.81568M6.12925 3.81568C6.15289 3.70594 6.06988 3.63857 6.04417 3.61969M6.12925 3.81568L6.04417 3.61969M6.04417 3.61969C6.0068 3.59226 5.95875 3.57009 5.90938 3.55115L6.04417 3.61969ZM0.505636 0.273559L0.505642 0.273555C0.65515 0.192412 0.757767 0.16147 0.851666 0.160975C0.945946 0.160477 1.05101 0.19056 1.20566 0.270511C1.31479 0.326973 1.41107 0.409104 1.47884 0.496513C1.51724 0.546046 1.54318 0.592824 1.55875 0.633836C1.53827 0.637217 1.51387 0.640593 1.48522 0.643807C1.34643 0.659377 1.13704 0.668144 0.863636 0.668144C0.590236 0.668144 0.380846 0.659377 0.242052 0.643807C0.213596 0.640615 0.189336 0.637263 0.168946 0.633905C0.184233 0.593854 0.209305 0.547759 0.246076 0.498672C0.311959 0.410719 0.40422 0.328594 0.505636 0.273559ZM1.83399 0.150017L4.52545 0.150182C5.85181 0.150227 6.5999 0.154631 7.05197 0.176472C7.50449 0.198334 7.63877 0.237304 7.75114 0.293448L7.75116 0.29346C7.92216 0.378863 8.02798 0.489966 8.0978 0.693669C8.17216 0.910649 8.20519 1.23196 8.20855 1.73683C8.2111 2.12755 8.20912 2.30186 8.16829 2.45125C8.12819 2.59794 8.04894 2.72657 7.85999 3.01775L7.98582 3.0994L7.85999 3.01775C7.32102 3.84836 7.03785 4.49521 6.97289 5.09011C6.94869 5.31167 6.92692 5.41585 6.85181 5.53874C6.76935 5.67365 6.62113 5.83343 6.31605 6.14472L6.31605 6.14472C6.13612 6.32833 5.98563 6.49769 5.88843 6.62346C5.84124 6.68451 5.80069 6.7428 5.7772 6.79051C5.76811 6.80897 5.74838 6.85075 5.74962 6.89916C5.75036 6.92787 5.75917 6.97503 5.7995 7.01367C5.83937 7.05186 5.88616 7.05877 5.91382 7.05877C5.9605 7.05877 6.0011 7.03983 6.02055 7.03023C6.04613 7.01761 6.07326 7.00104 6.10032 6.98292C6.15486 6.9464 6.22055 6.89581 6.29229 6.83625C6.43636 6.71662 6.61379 6.55329 6.79082 6.37466L6.79083 6.37465L7.37744 5.78259L7.81034 5.80526L7.81037 5.80526L8.16818 5.82393V7.18148V8.53307L6.12588 8.55569L3.93524 8.58006L3.82489 8.58128L3.79322 8.687L3.68777 9.03897C3.5469 9.50897 3.08254 9.73007 2.64048 9.54533L2.64046 9.54532C2.48608 9.48083 2.41645 9.44929 2.36282 9.38087C2.30757 9.31037 2.2565 9.18095 2.22084 8.88423C2.15 8.29477 2.15 7.16378 2.15 4.86366V4.83514V0.661696V0.615596L2.12411 0.577453L1.89957 0.246666L1.89956 0.24665L1.83399 0.150017ZM10.7732 2.2301C10.7732 2.23015 10.7724 2.23059 10.771 2.23128C10.7725 2.23039 10.7733 2.23005 10.7732 2.2301ZM5.88142 6.764C5.88143 6.76395 5.88228 6.76358 5.88388 6.76305C5.88221 6.76378 5.88142 6.76405 5.88142 6.764ZM6.04384 6.92877C6.04378 6.92878 6.04409 6.92785 6.045 6.92585C6.04436 6.92775 6.0439 6.92876 6.04384 6.92877ZM3.4408 4.86488C3.49305 4.88732 3.57298 4.89989 3.65091 4.90904C3.73615 4.91905 3.84291 4.92723 3.96335 4.93376C4.20458 4.94684 4.50756 4.95366 4.81708 4.95423C5.12671 4.9548 5.44459 4.94913 5.71578 4.93704C5.98319 4.92512 6.2158 4.90659 6.34853 4.87913C6.36613 4.8755 6.38325 4.87146 6.39877 4.86684C6.41187 4.86295 6.43363 4.85588 6.45467 4.84336C6.46467 4.83741 6.48522 4.82408 6.50304 4.80027C6.52358 4.77284 6.54359 4.72583 6.52943 4.66971C6.51718 4.62117 6.48584 4.59376 6.47114 4.58271C6.45483 4.57045 6.43914 4.56344 6.42987 4.55972C6.39733 4.54668 6.35627 4.54068 6.32425 4.53679C6.28667 4.53223 6.2393 4.52835 6.18318 4.52497C5.95942 4.51151 5.56481 4.50433 5.00036 4.50296C4.49221 4.50174 4.08678 4.50848 3.82103 4.52161C3.68988 4.52809 3.58643 4.5364 3.52086 4.5473C3.50404 4.55009 3.48682 4.55352 3.47081 4.55794C3.45863 4.56131 3.43203 4.5691 3.40669 4.58643C3.39407 4.59506 3.36786 4.61531 3.35113 4.65183C3.33065 4.69654 3.3334 4.74582 3.35376 4.7861C3.37037 4.81896 3.3943 4.83757 3.40593 4.84569C3.41926 4.855 3.43197 4.86108 3.4408 4.86487L3.4408 4.86488ZM3.94352 9.6387C3.9823 9.56408 4.03267 9.47291 4.08778 9.37886C4.08778 9.37886 4.08778 9.37885 4.08778 9.37885L4.27541 9.05868H6.95836C8.25733 9.05868 8.94378 9.06131 9.30636 9.08247C9.44981 9.09083 9.53027 9.10173 9.57425 9.11196C9.56296 9.19136 9.51984 9.2783 9.44249 9.3602C9.35213 9.45589 9.22223 9.53624 9.07085 9.57829C9.06145 9.5809 9.03191 9.58608 8.97443 9.59197C8.92032 9.59752 8.8498 9.60292 8.76459 9.60811C8.59433 9.61847 8.36989 9.62769 8.10952 9.63561C7.58905 9.65144 6.92888 9.66195 6.27976 9.66614C5.63057 9.67033 4.99364 9.66818 4.51955 9.65878C4.28217 9.65407 4.08735 9.64757 3.95269 9.63927C3.9496 9.63908 3.94654 9.63889 3.94352 9.6387Z" stroke="#A0627B" stroke-width="0.3"/>
</svg>
