<svg width="20" height="20" viewBox="0 0 20 20" fill="none" xmlns="http://www.w3.org/2000/svg">
<path fill-rule="evenodd" clip-rule="evenodd" d="M9.10299 0.0236656C7.1704 0.212879 5.38422 0.924853 3.81813 2.13021C3.05548 2.71717 2.06507 3.82029 1.49272 4.72015C1.24554 5.10879 0.76437 6.09359 0.592 6.56357C0.399273 7.08911 0.193862 7.8922 0.0927815 8.51536C-0.0309271 9.27808 -0.0309271 10.7262 0.0927815 11.4889C0.267696 12.5672 0.544396 13.4388 1.01801 14.4038C1.53547 15.4581 2.07353 16.2054 2.93514 17.0665C3.7968 17.9277 4.54453 18.4654 5.59938 18.9826C6.56493 19.4559 7.43708 19.7325 8.51593 19.9073C9.27908 20.0309 10.728 20.0309 11.4912 19.9073C12.57 19.7325 13.4422 19.4559 14.4077 18.9826C15.4626 18.4654 16.2103 17.9277 17.072 17.0665C17.9336 16.2054 18.4717 15.4581 18.9891 14.4038C19.3328 13.7035 19.5057 13.2446 19.6908 12.5408C19.9374 11.6036 20 11.0899 20 10.0021C20 8.91445 19.9374 8.40069 19.6908 7.46346C19.5057 6.75971 19.3328 6.30076 18.9891 5.60048C18.4717 4.54623 17.9336 3.79893 17.072 2.93777C16.2103 2.07664 15.4626 1.5389 14.4077 1.02173C13.4431 0.548814 12.5537 0.266677 11.5108 0.1027C10.9353 0.0122408 9.65041 -0.0299369 9.10299 0.0236656ZM10.767 0.651872C12.636 0.825004 14.2387 1.44711 15.7388 2.58176C16.1376 2.88342 16.9446 3.66868 17.2728 4.07457C18.1102 5.10996 18.7696 6.40366 19.0828 7.6256C19.4929 9.22577 19.4929 10.7785 19.0828 12.3787C18.7696 13.6006 18.1102 14.8943 17.2728 15.9297C16.9446 16.3356 16.1376 17.1209 15.7388 17.4225C14.7021 18.2067 13.5378 18.7802 12.3815 19.0762C10.7804 19.4861 9.22674 19.4861 7.62566 19.0762C6.40302 18.7632 5.10858 18.1042 4.0726 17.2672C3.66647 16.9392 2.88077 16.1327 2.57893 15.7341C1.79436 14.698 1.22053 13.5344 0.92433 12.3787C0.514213 10.7785 0.514213 9.22577 0.92433 7.6256C1.23752 6.40366 1.89689 5.10996 2.73431 4.07457C3.06257 3.66868 3.8695 2.88342 4.26834 2.58176C5.30455 1.79795 6.46722 1.22518 7.62566 0.927788C8.69119 0.654258 9.76981 0.559534 10.767 0.651872ZM6.12788 5.3417C5.78674 5.45192 5.59625 5.56621 5.35999 5.80229C4.25056 6.91108 5.05455 8.82837 6.62894 8.82837C7.97079 8.82837 8.8189 7.41401 8.20184 6.20517C8.08354 5.97335 7.76068 5.64164 7.51882 5.50333C7.11191 5.27065 6.54986 5.20535 6.12788 5.3417ZM12.9038 5.33004C12.6039 5.4106 12.3191 5.58456 12.0892 5.82749C11.7529 6.18283 11.6081 6.54921 11.6065 7.04814C11.6032 8.0466 12.3852 8.82947 13.3842 8.82794C14.4658 8.8263 15.3065 7.85179 15.142 6.79018C14.9783 5.73257 13.936 5.05268 12.9038 5.33004ZM7.1105 6.00328C7.32731 6.10873 7.5537 6.32646 7.66801 6.5395C7.79192 6.77046 7.78894 7.33086 7.66253 7.56816C7.20031 8.43606 5.97015 8.39607 5.56661 7.50008C5.44286 7.22534 5.45379 6.83342 5.59308 6.54889C5.86672 5.9899 6.56599 5.73844 7.1105 6.00328ZM13.7732 5.97249C14.713 6.32392 14.7928 7.62196 13.9023 8.07371C13.3383 8.35984 12.6467 8.13537 12.3446 7.56816C12.2164 7.32746 12.215 6.76831 12.342 6.5395C12.6458 5.99256 13.2193 5.76536 13.7732 5.97249ZM3.79147 11.6606C3.85634 12.9396 4.16064 13.8982 4.81763 14.8929C5.78177 16.3527 7.28773 17.3288 9.01671 17.6147C9.51898 17.6978 10.4881 17.6978 10.9904 17.6147C12.7194 17.3288 14.2254 16.3527 15.1895 14.8929C15.8465 13.8982 16.1508 12.9396 16.2157 11.6606L16.2402 11.1759H10.0036H3.76689L3.79147 11.6606ZM15.555 12.0856C15.4024 13.4121 14.7783 14.664 13.8343 15.5375C12.7582 16.5332 11.4513 17.0488 10.0036 17.0488C7.56259 17.0488 5.43738 15.5022 4.68323 13.1768C4.58215 12.8651 4.48365 12.3733 4.43331 11.9291L4.4189 11.8019H10.0032H15.5876L15.555 12.0856Z" fill="#B79BA6"/>
</svg>
