<svg width="12" height="11" viewBox="0 0 12 11" fill="none" xmlns="http://www.w3.org/2000/svg">
<path d="M0.5625 2.49512C0.5625 2.06449 0.982233 1.71539 1.5 1.71539H10.5C11.0178 1.71539 11.4375 2.06449 11.4375 2.49512C11.4375 2.92575 11.0178 3.27484 10.5 3.27484H1.5C0.982233 3.27484 0.5625 2.92575 0.5625 2.49512Z" fill="#383F43"/>
<path d="M2.0625 4.99024C2.0625 4.55961 2.48223 4.21051 3 4.21051H9C9.51777 4.21051 9.9375 4.55961 9.9375 4.99024C9.9375 5.42087 9.51777 5.76997 9 5.76997H3C2.48223 5.76997 2.0625 5.42087 2.0625 4.99024Z" fill="#383F43"/>
<path d="M4.5 6.70564C3.98223 6.70564 3.5625 7.05473 3.5625 7.48536C3.5625 7.91599 3.98223 8.26509 4.5 8.26509H7.5C8.01777 8.26509 8.4375 7.91599 8.4375 7.48536C8.4375 7.05473 8.01777 6.70564 7.5 6.70564H4.5Z" fill="#383F43"/>
</svg>
