<svg version="1.1" xmlns="http://www.w3.org/2000/svg" xmlns:xlink="http://www.w3.org/1999/xlink" width="20" height="20" viewBox="0,0,256,256"><g fill="#a0627b" fill-rule="nonzero" stroke="none" stroke-width="1" stroke-linecap="butt" stroke-linejoin="miter" stroke-miterlimit="10" stroke-dasharray="" stroke-dashoffset="0" font-family="none" font-weight="none" font-size="none" text-anchor="none" style="mix-blend-mode: normal"><g transform="translate(0,-25.6) scale(0.26667,0.26667)"><path d="M442,854c-17.33333,0 -32.5,-6.5 -45.5,-19.5c-13,-13 -19.5,-28.16667 -19.5,-45.5c0,-17.33333 6.5,-32.5 19.5,-45.5c13,-13 28.16667,-19.5 45.5,-19.5h76c17.33333,0 32.5,6.5 45.5,19.5c13,13 19.5,28.16667 19.5,45.5c0,17.33333 -6.5,32.5 -19.5,45.5c-13,13 -28.16667,19.5 -45.5,19.5zM162,428c-17.33333,0 -32.5,-6.5 -45.5,-19.5c-13,-13 -19.5,-28.16667 -19.5,-45.5c0,-17.33333 6.5,-32.5 19.5,-45.5c13,-13 28.16667,-19.5 45.5,-19.5h636c17.33333,0 32.5,6.5 45.5,19.5c13,13 19.5,28.16667 19.5,45.5c0,17.33333 -6.5,32.5 -19.5,45.5c-13,13 -28.16667,19.5 -45.5,19.5zM282,641c-17.33333,0 -32.5,-6.5 -45.5,-19.5c-13,-13 -19.5,-28.16667 -19.5,-45.5c0,-17.33333 6.5,-32.5 19.5,-45.5c13,-13 28.16667,-19.5 45.5,-19.5h397c17.33333,0 32.5,6.5 45.5,19.5c13,13 19.5,28.16667 19.5,45.5c0,17.33333 -6.5,32.5 -19.5,45.5c-13,13 -28.16667,19.5 -45.5,19.5z"></path></g></g></svg>