<svg width="14" height="14" viewBox="0 0 14 14" fill="none" xmlns="http://www.w3.org/2000/svg">
<g clip-path="url(#clip0_2364_147966)">
<path d="M7.14685 0.622306L7.14691 0.622452L8.92772 4.83733L8.97466 4.94843L9.09483 4.95876L13.6539 5.35041C13.7947 5.36258 13.8507 5.53801 13.745 5.62945L13.7449 5.62953L10.2868 8.62558L10.1956 8.70455L10.2229 8.82203L11.2592 13.279C11.2912 13.417 11.142 13.5241 11.0223 13.4515L11.0219 13.4513L7.10385 11.0884L7.00056 11.0261L6.89727 11.0884L2.97939 13.4512C2.97935 13.4512 2.97931 13.4513 2.97927 13.4513C2.85808 13.5241 2.71014 13.4157 2.7419 13.2791L2.7419 13.2791L3.77819 8.82203L3.8055 8.70456L3.71435 8.62558L0.255492 5.62881L0.255394 5.62873C0.149351 5.53697 0.205454 5.36185 0.346514 5.3497L4.90557 4.95804L5.02573 4.94771L5.07268 4.83662L6.85349 0.622464L6.85356 0.622306C6.90842 0.492174 7.09199 0.492174 7.14685 0.622306Z" stroke="#5C4C52" stroke-width="0.4"/>
</g>
<defs>
<clipPath id="clip0_2364_147966">
<rect width="14" height="14" fill="white"/>
</clipPath>
</defs>
</svg>
