<svg width="18" height="18" viewBox="0 0 18 18" fill="none" xmlns="http://www.w3.org/2000/svg">
<path d="M2.56059 6.37498H11.2499C11.6641 6.37498 11.9999 6.03921 11.9999 5.62499C11.9999 5.21078 11.6641 4.875 11.2499 4.875H2.56059L4.28026 3.15533C4.57314 2.86244 4.57314 2.38755 4.28026 2.09467C3.98737 1.80178 3.51248 1.80178 3.21959 2.09467L0.219568 5.09466C0.202096 5.11213 0.185572 5.13052 0.169893 5.14965C0.162791 5.15829 0.156604 5.16743 0.149959 5.17633C0.141943 5.18702 0.133682 5.19746 0.126229 5.2086C0.119092 5.21925 0.112904 5.23033 0.106365 5.24126C0.100354 5.25132 0.0940254 5.26116 0.0884707 5.27153C0.0824941 5.28268 0.0774316 5.29417 0.0720879 5.30556C0.0669902 5.31636 0.0616113 5.32697 0.0570059 5.33805C0.0524355 5.34912 0.048709 5.36044 0.0447012 5.37169C0.0404473 5.38354 0.0359121 5.39521 0.0322559 5.40731C0.0288457 5.41856 0.0263496 5.42998 0.023502 5.44137C0.020373 5.45371 0.0169277 5.46591 0.0144316 5.4785C0.0118301 5.49168 0.0102832 5.50497 0.00838477 5.51822C0.00683789 5.52916 0.00472852 5.53995 0.00363867 5.55102C-0.00121289 5.60024 -0.00121289 5.64985 0.00363867 5.69907C0.00472852 5.71014 0.00680273 5.7209 0.00838477 5.73187C0.0102832 5.74512 0.0118301 5.75845 0.0144668 5.7716C0.0169629 5.78418 0.0204082 5.79635 0.0235371 5.80869C0.0263848 5.82008 0.0288809 5.8315 0.032291 5.84275C0.0359473 5.85485 0.0404824 5.86655 0.0447363 5.87837C0.0487793 5.88962 0.0524707 5.90094 0.057041 5.91201C0.0616113 5.92308 0.0670254 5.93367 0.072123 5.94446C0.0775019 5.95585 0.0825645 5.96735 0.088541 5.97853C0.0940957 5.98886 0.100389 5.99867 0.1064 6.00872C0.112939 6.01969 0.119127 6.03077 0.126264 6.04146C0.133682 6.05256 0.141943 6.06297 0.149924 6.07366C0.156604 6.08259 0.162791 6.09173 0.169928 6.10041C0.185502 6.1194 0.20192 6.13764 0.219252 6.15498C0.219393 6.15512 0.219463 6.15526 0.219604 6.15536L3.21959 9.15536C3.51248 9.44824 3.98737 9.44824 4.28026 9.15536C4.57314 8.86247 4.57314 8.38758 4.28026 8.09469L2.56059 6.37498Z" fill="#BA8EF2"/>
<path d="M17.83 12.8504C17.8371 12.8417 17.8433 12.8325 17.85 12.8235C17.858 12.8129 17.8663 12.8025 17.8736 12.7914C17.8808 12.7807 17.887 12.7696 17.8935 12.7587C17.8995 12.7486 17.9058 12.7388 17.9113 12.7285C17.9173 12.7174 17.9224 12.7058 17.9278 12.6944C17.9329 12.6836 17.9382 12.6731 17.9428 12.662C17.9474 12.6509 17.9511 12.6396 17.9551 12.6284C17.9594 12.6165 17.9639 12.6049 17.9676 12.5928C17.971 12.5815 17.9735 12.57 17.9763 12.5587C17.9795 12.5464 17.9829 12.5342 17.9854 12.5216C17.988 12.5084 17.9895 12.4951 17.9915 12.4819C17.993 12.4709 17.9951 12.4602 17.9962 12.4491C18.0011 12.3999 18.0011 12.3503 17.9962 12.301C17.9951 12.29 17.9931 12.2792 17.9915 12.2682C17.9896 12.255 17.988 12.2417 17.9854 12.2285C17.9829 12.2159 17.9795 12.2038 17.9763 12.1914C17.9735 12.18 17.971 12.1686 17.9676 12.1573C17.9639 12.1453 17.9594 12.1335 17.9551 12.1217C17.9511 12.1105 17.9474 12.0992 17.9428 12.0881C17.9383 12.0771 17.9329 12.0665 17.9278 12.0557C17.9224 12.0443 17.9173 12.0328 17.9113 12.0216C17.9058 12.0113 17.8995 12.0015 17.8935 11.9914C17.887 11.9805 17.8808 11.9694 17.8736 11.9587C17.8662 11.9476 17.858 11.9372 17.85 11.9266C17.8433 11.9176 17.8371 11.9084 17.83 11.8997C17.8145 11.8809 17.7982 11.8628 17.781 11.8456C17.7808 11.8453 17.7805 11.845 17.7803 11.8448L14.7803 8.84479C14.4874 8.5519 14.0125 8.5519 13.7196 8.84479C13.4268 9.13767 13.4268 9.61256 13.7196 9.90545L15.4393 11.6251H6.74999C6.33578 11.6251 6 11.9609 6 12.3751C6 12.7893 6.33578 13.1251 6.74999 13.1251H15.4393L13.7196 14.8448C13.4268 15.1376 13.4268 15.6125 13.7196 15.9054C14.0125 16.1983 14.4874 16.1983 14.7803 15.9054L17.7803 12.9054C17.7806 12.9052 17.7808 12.9049 17.781 12.9046C17.7982 12.8873 17.8145 12.8692 17.83 12.8504Z" fill="#BA8EF2"/>
</svg>
