<svg width="42" height="42" viewBox="0 0 42 42" fill="none" xmlns="http://www.w3.org/2000/svg">
<mask id="mask0_4984_6681" style="mask-type:alpha" maskUnits="userSpaceOnUse" x="0" y="0" width="42" height="42">
<circle cx="21" cy="21" r="21" fill="#C4C4C4"/>
</mask>
<g mask="url(#mask0_4984_6681)">
<circle cx="21" cy="21" r="21" fill="#F3EBEE"/>
<path d="M21.0953 28.1012C27.5802 28.1008 29.9134 21.6078 30.5244 16.2741C31.2768 9.70345 28.1699 4.7583 21.0953 4.7583C14.0218 4.7583 10.9132 9.7031 11.6662 16.2741C12.2777 21.6076 14.6102 28.1017 21.0953 28.1012Z" fill="#E2D4D9"/>
<path d="M38.6373 43.5624C38.5664 41.4927 38.3238 39.4136 37.9627 37.3761C37.5251 34.9079 36.9681 31.2894 34.8132 29.6809C33.5669 28.7508 31.9531 28.4457 30.5265 27.8849C29.8321 27.6121 29.21 27.3411 28.6262 27.0327C26.6558 29.1935 24.0864 30.3239 21.0942 30.324C18.1029 30.324 15.5338 29.1937 13.5636 27.0327C12.9798 27.3412 12.3577 27.6122 11.6633 27.8849C10.2367 28.4457 8.62285 28.7508 7.37675 29.6809C5.22168 31.2894 4.6648 34.9079 4.22728 37.3761C3.86603 39.4136 3.62342 41.4927 3.5526 43.5624C3.49775 45.1654 4.28929 45.3902 5.63041 45.8741C7.3098 46.4798 9.04361 46.9294 10.789 47.298C14.16 48.0098 17.6348 48.557 21.0947 48.5814C24.5546 48.5569 28.0294 48.0098 31.4004 47.298C33.1458 46.9295 34.8798 46.4799 36.559 45.8741C37.9007 45.3903 38.6921 45.1656 38.6373 43.5624Z" fill="#E2D4D9"/>
</g>
</svg>
