<svg width="14" height="16" viewBox="0 0 14 16" fill="none" xmlns="http://www.w3.org/2000/svg">
<path d="M13.7106 12.6321L13.6567 12.6968C11.8815 14.8268 9.51691 16.0004 6.99986 16.0004C4.48243 16.0004 2.1182 14.8272 0.342609 12.6968L0.289062 12.6321L0.301705 12.5492C0.644552 10.3129 1.81291 8.5165 3.59147 7.48982L3.7179 7.41694L3.81867 7.52254C4.65868 8.40383 5.78837 8.88872 6.99948 8.88872C8.2106 8.88872 9.34028 8.40346 10.1803 7.52254L10.2811 7.41694L10.4075 7.48982C12.1861 8.5165 13.3544 10.3129 13.6976 12.5492L13.7106 12.6321ZM6.99986 7.9907C9.2027 7.9907 10.995 6.19838 10.995 3.99554C10.995 1.79269 9.2027 0 6.99986 0C4.79701 0 3.00469 1.79269 3.00469 3.99517C3.00469 6.19764 4.79701 7.9907 6.99986 7.9907Z" fill="#A0627B"/>
</svg>
