<svg width="16" height="16" viewBox="0 0 16 16" fill="none" xmlns="http://www.w3.org/2000/svg">
<g clip-path="url(#clip0_1271_129268)">
<path fill-rule="evenodd" clip-rule="evenodd" d="M12.177 8.0114C9.84243 8.17691 7.99988 10.1233 7.99988 12.5C7.99988 13.8349 8.58116 15.0341 9.50442 15.8582C9.01154 15.9524 8.50882 16.0004 7.99986 16.0004C5.48243 16.0004 3.1182 14.8272 1.34261 12.6968L1.28906 12.6321L1.30171 12.5492C1.64455 10.3129 2.81291 8.5165 4.59147 7.48982L4.7179 7.41694L4.81867 7.52254C5.65868 8.40383 6.78837 8.88872 7.99948 8.88872C9.2106 8.88872 10.3403 8.40346 11.1803 7.52254L11.2811 7.41694L11.4075 7.48982C11.6784 7.64621 11.9352 7.82046 12.177 8.0114ZM11.995 3.99554C11.995 6.19838 10.2027 7.9907 7.99986 7.9907C5.79701 7.9907 4.00469 6.19764 4.00469 3.99517C4.00469 1.79269 5.79701 0 7.99986 0C10.2027 0 11.995 1.79269 11.995 3.99554Z" fill="#5C4C52"/>
<g clip-path="url(#clip1_1271_129268)">
<path d="M12.5 9C10.5701 9 9 10.5701 9 12.5C9 14.4299 10.5701 16 12.5 16C14.4299 16 16 14.4299 16 12.5C16 10.5701 14.4299 9 12.5 9ZM12.5 15.125C11.0526 15.125 9.875 13.9474 9.875 12.5C9.875 11.9476 10.0425 11.4253 10.3609 10.9797L14.0203 14.6391C13.5747 14.9575 13.0524 15.125 12.5 15.125ZM14.6391 14.0203L10.9797 10.3609C11.4253 10.0425 11.9476 9.875 12.5 9.875C13.9474 9.875 15.125 11.0526 15.125 12.5C15.125 13.0524 14.9575 13.5747 14.6391 14.0203Z" fill="#5C4C52"/>
</g>
</g>
<defs>
<clipPath id="clip0_1271_129268">
<rect width="16" height="16" fill="white"/>
</clipPath>
<clipPath id="clip1_1271_129268">
<rect width="7" height="7" fill="white" transform="translate(9 9)"/>
</clipPath>
</defs>
</svg>
