<svg width="16" height="16" viewBox="0 0 16 16" fill="none" xmlns="http://www.w3.org/2000/svg">
<g clip-path="url(#clip0_1271_129265)">
<path d="M14.7106 12.6321L14.6567 12.6968C12.8815 14.8268 10.5169 16.0004 7.99986 16.0004C5.48243 16.0004 3.1182 14.8272 1.34261 12.6968L1.28906 12.6321L1.30171 12.5492C1.64455 10.3129 2.81291 8.5165 4.59147 7.48982L4.7179 7.41694L4.81867 7.52254C5.65868 8.40383 6.78837 8.88872 7.99948 8.88872C9.2106 8.88872 10.3403 8.40346 11.1803 7.52254L11.2811 7.41694L11.4075 7.48982C13.1861 8.5165 14.3544 10.3129 14.6976 12.5492L14.7106 12.6321ZM7.99986 7.9907C10.2027 7.9907 11.995 6.19838 11.995 3.99554C11.995 1.79269 10.2027 0 7.99986 0C5.79701 0 4.00469 1.79269 4.00469 3.99517C4.00469 6.19764 5.79701 7.9907 7.99986 7.9907Z" fill="#5C4C52"/>
</g>
<defs>
<clipPath id="clip0_1271_129265">
<rect width="16" height="16" fill="white"/>
</clipPath>
</defs>
</svg>
