<svg width="12" height="12" viewBox="0 0 12 12" fill="none" xmlns="http://www.w3.org/2000/svg">
<g clip-path="url(#clip0_705_50439)">
<path d="M11.8855 10.0405L6.7316 1.1138C6.57891 0.849305 6.30541 0.691406 6 0.691406C5.69459 0.691406 5.42109 0.849305 5.2684 1.1138L0.114539 10.0405C-0.0381797 10.305 -0.0381797 10.6208 0.114539 10.8853C0.267234 11.1498 0.540727 11.3077 0.846141 11.3077H11.1539C11.4593 11.3077 11.7328 11.1498 11.8855 10.8853C12.0382 10.6208 12.0382 10.305 11.8855 10.0405ZM11.2758 10.5333C11.2606 10.5596 11.2246 10.6037 11.1539 10.6037H0.846141C0.775406 10.6037 0.739359 10.5596 0.724219 10.5333C0.709055 10.5071 0.688852 10.4538 0.724219 10.3925L5.87805 1.46578C5.91342 1.40454 5.96962 1.39538 5.99998 1.39538C6.03035 1.39538 6.08655 1.40452 6.1219 1.46578L11.2758 10.3925C11.3112 10.4538 11.291 10.5071 11.2758 10.5333Z" fill="#F24C4C"/>
<path d="M6.35206 3.89258H5.64807V7.64719H6.35206V3.89258Z" fill="#F24C4C"/>
<path d="M5.99998 9.29023C6.25918 9.29023 6.46931 9.08011 6.46931 8.8209C6.46931 8.56169 6.25918 8.35156 5.99998 8.35156C5.74077 8.35156 5.53064 8.56169 5.53064 8.8209C5.53064 9.08011 5.74077 9.29023 5.99998 9.29023Z" fill="#F24C4C"/>
</g>
<defs>
<clipPath id="clip0_705_50439">
<rect width="12" height="12" fill="white"/>
</clipPath>
</defs>
</svg>
