<svg width="20" height="20" viewBox="0 0 19 20" fill="none" xmlns="http://www.w3.org/2000/svg">
<path d="M9.48933 0.104401C4.31446 0.104401 0.10437 4.31449 0.10437 9.48936C0.10437 14.6642 4.31446 18.8743 9.48933 18.8743C14.6642 18.8743 18.8743 14.6642 18.8743 9.48936C18.8743 4.31449 14.6642 0.104401 9.48933 0.104401ZM9.69789 6.11953C11.0489 6.09784 12.3586 5.86718 13.5493 5.45258C13.846 6.60839 14.0193 7.90664 14.0354 9.28081H9.69789V6.11953ZM9.69789 5.70243V0.531938C11.2994 0.675215 12.6869 2.4594 13.4389 5.04965C12.2856 5.45466 11.0128 5.68074 9.69789 5.70243ZM9.28078 5.70243C7.96563 5.68074 6.69303 5.45466 5.53951 5.04944C6.29156 2.4594 7.67908 0.675215 9.28078 0.531938V5.70243ZM9.28078 6.11953V9.28081H4.94326C4.95931 7.90664 5.13262 6.60839 5.4294 5.45258C6.62004 5.86718 7.92976 6.09784 9.28078 6.11953ZM4.52615 9.28081H0.526693C0.573827 7.23322 1.30919 5.35351 2.51172 3.86464C3.24374 4.45569 4.1009 4.94329 5.0444 5.31159C4.72719 6.51183 4.54283 7.85763 4.52615 9.28081ZM4.52615 9.69792C4.54262 11.1211 4.72719 12.4669 5.0444 13.6673C4.10111 14.0356 3.24374 14.5232 2.51193 15.1143C1.30919 13.6252 0.573827 11.7455 0.526693 9.69792H4.52615ZM4.94326 9.69792H9.28078V12.859C7.92976 12.8807 6.62004 13.1115 5.4294 13.5261C5.13262 12.3703 4.95931 11.0721 4.94326 9.69792ZM9.28078 13.2761V18.4468C7.67908 18.3035 6.29156 16.5193 5.53951 13.9291C6.69303 13.5241 7.96584 13.298 9.28078 13.2761ZM9.69789 13.2761C11.0128 13.2978 12.2856 13.5239 13.4389 13.9289C12.6869 16.5193 11.2996 18.3035 9.69789 18.4468V13.2761ZM9.69789 12.859V9.69792H14.0354C14.0193 11.0721 13.846 12.3703 13.5493 13.5261C12.3586 13.1115 11.0489 12.8807 9.69789 12.859ZM14.4523 9.69792H18.452C18.4048 11.7455 17.6695 13.6252 16.4667 15.1143C15.7347 14.5232 14.8775 14.0354 13.934 13.6673C14.2513 12.4667 14.4358 11.1211 14.4523 9.69792ZM14.4523 9.28081C14.4358 7.85763 14.2513 6.51203 13.934 5.31159C14.8775 4.94329 15.7347 4.45569 16.4667 3.86464C17.6695 5.35372 18.4046 7.23343 18.4518 9.28081H14.4523ZM16.1971 3.54639C15.5097 4.1001 14.7055 4.55829 13.8208 4.90783C13.2475 2.97912 12.3246 1.4696 11.2151 0.689814C13.1803 1.0746 14.917 2.10319 16.1971 3.54639ZM7.76354 0.689814C6.65403 1.4696 5.73118 2.97912 5.15786 4.90762C4.27317 4.55809 3.46898 4.09989 2.78159 3.54618C4.06149 2.10319 5.79812 1.0746 7.76354 0.689814ZM2.78138 15.4323C3.46877 14.8786 4.27275 14.4204 5.15765 14.0709C5.73097 15.9994 6.65382 17.5089 7.76333 18.2887C5.79812 17.9041 4.06149 16.8755 2.78138 15.4323ZM11.2151 18.2889C12.3246 17.5091 13.2475 15.9996 13.8208 14.0709C14.7057 14.4204 15.5097 14.8786 16.1971 15.4323C14.917 16.8755 13.1805 17.9041 11.2151 18.2889Z" fill="#383F43"/>
</svg>
