<svg width="16" height="16" viewBox="0 0 16 16" fill="none" xmlns="http://www.w3.org/2000/svg">
<g clip-path="url(#clip0_7108_9832)">
<path d="M8.47247 0H8.46871C4.31718 0 0.941176 3.37694 0.941176 7.52941C0.941176 9.17647 1.472 10.7031 2.37459 11.9426L0 16L4.33035 13.8146C5.52094 14.6033 6.94118 15.0588 8.47247 15.0588C12.624 15.0588 16 11.6809 16 7.52941C16 3.37788 12.624 0 8.47247 0ZM12.8536 10.6325C12.672 11.1454 11.9511 11.5708 11.376 11.6951C10.9826 11.7788 10.4687 11.8456 8.73882 11.1285C6.52612 10.2118 5.10118 7.96329 4.99012 7.81741C4.88376 7.67153 4.096 6.62682 4.096 5.54635C4.096 4.46588 4.64471 3.93976 4.86588 3.71388C5.04753 3.52847 5.34776 3.44376 5.63576 3.44376C5.72894 3.44376 5.81271 3.44847 5.888 3.45224C6.10918 3.46165 6.22024 3.47482 6.36612 3.824C6.54776 4.26165 6.99012 5.34212 7.04282 5.45318C7.09647 5.56424 7.15012 5.71482 7.07482 5.86071C7.00424 6.01129 6.94212 6.07812 6.83106 6.20612C6.72 6.33412 6.61459 6.432 6.50353 6.56941C6.40188 6.68894 6.28706 6.81694 6.41506 7.03812C6.54306 7.25459 6.98541 7.97647 7.63671 8.55624C8.47718 9.30447 9.15859 9.54353 9.40235 9.64518C9.584 9.72047 9.80047 9.70259 9.93318 9.56141C10.1016 9.37977 10.3096 9.07859 10.5214 8.78212C10.672 8.56941 10.8621 8.54306 11.0616 8.61835C11.2649 8.68894 12.3407 9.22071 12.5619 9.33082C12.7831 9.44188 12.9289 9.49459 12.9826 9.58776C13.0353 9.68094 13.0353 10.1186 12.8536 10.6325Z" fill="#83939F"/>
</g>
<defs>
<clipPath id="clip0_7108_9832">
<rect width="16" height="16" fill="white"/>
</clipPath>
</defs>
</svg>
