<svg width="15" height="15" viewBox="0 0 15 15" fill="none" xmlns="http://www.w3.org/2000/svg">
<path fill-rule="evenodd" clip-rule="evenodd" d="M6.9156 0.0089304C6.21409 0.0732051 5.40825 0.258419 4.80581 0.493897C2.26129 1.48836 0.48611 3.70923 0.0657264 6.42399C-0.0156319 6.94949 -0.0161873 8.06534 0.0646808 8.56204C0.193645 9.35407 0.464741 10.1945 0.805727 10.8595L0.962203 11.1647L0.470786 12.9207C0.120782 14.1715 -0.0143576 14.7018 0.00119522 14.7638C0.0288374 14.8738 0.126075 14.9719 0.234259 14.9991C0.289968 15.0131 0.930444 14.869 2.14428 14.5694L3.9705 14.1186L4.29204 14.2698C4.98133 14.5939 5.67641 14.809 6.44183 14.9352C6.87852 15.0072 8.01446 15.0171 8.46762 14.9529C10.119 14.7188 11.6341 13.9772 12.7748 12.8447C13.7491 11.8775 14.4405 10.6804 14.7724 9.38575C14.9539 8.67801 15 8.29618 15 7.50059C15 6.70499 14.9539 6.32317 14.7724 5.61543C14.3128 3.82269 13.1573 2.21994 11.588 1.19827C11.2 0.945682 10.4013 0.553632 9.97062 0.404376C9.58236 0.26985 9.04611 0.13908 8.59694 0.0694492C8.28033 0.0203614 7.21107 -0.018112 6.9156 0.0089304ZM8.16192 0.675519C10.9524 0.951822 13.3202 2.90802 14.0865 5.57006C14.2864 6.26484 14.346 6.70764 14.346 7.50059C14.346 8.0886 14.3337 8.27182 14.2708 8.62736C13.991 10.2077 13.2607 11.5336 12.0803 12.6045C11.1342 13.4628 9.95481 14.0305 8.63099 14.2647C8.01936 14.3729 6.98869 14.373 6.37841 14.265C5.65988 14.1378 5.09056 13.9517 4.45496 13.6362C4.24277 13.5309 4.0482 13.4447 4.02265 13.4447C3.99706 13.4447 3.26036 13.6211 2.38555 13.8368C1.51073 14.0524 0.792494 14.2251 0.789488 14.2205C0.786449 14.216 0.972495 13.5435 1.20288 12.7262C1.4333 11.9089 1.62196 11.1999 1.62212 11.1507C1.62228 11.1015 1.52635 10.8699 1.40892 10.6362C0.922961 9.66868 0.69359 8.79725 0.652388 7.76187C0.550314 5.1979 1.89416 2.79492 4.13831 1.5286C5.35731 0.840745 6.78135 0.538805 8.16192 0.675519ZM4.46505 3.63588C4.38418 3.66413 4.25381 3.73324 4.17533 3.78944C3.97082 3.93596 3.6581 4.33885 3.51293 4.64285C3.31748 5.05217 3.27248 5.26322 3.27611 5.75328C3.2797 6.24224 3.35538 6.55708 3.58612 7.04335C3.88943 7.6826 4.56928 8.58029 5.30543 9.31364C6.24954 10.2541 7.07201 10.7562 8.38564 11.1939C8.97351 11.3898 9.24457 11.434 9.70122 11.4083C10.1258 11.3845 10.4405 11.2881 10.8175 11.0663C11.4528 10.6926 11.7274 10.2141 11.7328 9.47142C11.7349 9.18989 11.7293 9.16428 11.637 9.0344C11.5473 8.90807 11.4699 8.86381 10.7223 8.51115C10.2731 8.29925 9.83398 8.10277 9.74648 8.07452C9.38239 7.95698 9.23065 8.03556 8.80782 8.56066C8.63484 8.77547 8.47213 8.9646 8.44622 8.98093C8.3828 9.02091 7.80264 8.7463 7.42398 8.49704C6.93861 8.17756 6.24765 7.45444 5.9839 6.98998L5.92578 6.88766L6.12653 6.65453C6.23693 6.52631 6.37348 6.32986 6.43 6.21797C6.60004 5.88134 6.5888 5.81341 6.2152 4.92046C6.03857 4.49833 5.8602 4.08547 5.8188 4.00304C5.72578 3.81776 5.55195 3.66125 5.38898 3.61602C5.20012 3.5636 4.63738 3.57569 4.46505 3.63588ZM5.54947 5.01844C5.72754 5.44057 5.88016 5.80097 5.88863 5.81936C5.91068 5.8673 5.7445 6.11336 5.5362 6.34116C5.13758 6.77714 5.14957 6.95759 5.62152 7.62591C6.20798 8.45641 6.93968 9.06056 7.87093 9.48321C8.36558 9.70771 8.47931 9.72398 8.70202 9.60186C8.86435 9.51286 9.18605 9.17248 9.41954 8.84268C9.47104 8.76992 9.53197 8.71008 9.55494 8.70969C9.60637 8.70884 10.1979 8.97747 10.7179 9.23777L11.1057 9.43196L11.0848 9.58916C11.0479 9.86752 10.967 10.0807 10.8486 10.2117C10.6957 10.3809 10.4306 10.5533 10.1595 10.6599C9.96046 10.7381 9.89475 10.7471 9.51319 10.748L9.08842 10.749L8.58903 10.5776C7.66933 10.262 7.20375 10.0243 6.56249 9.54311C5.58704 8.81107 4.49126 7.49876 4.12282 6.62135C3.99363 6.31366 3.90959 5.95228 3.90959 5.70429C3.90959 5.43465 4.01144 5.02454 4.12789 4.82529C4.22928 4.6518 4.54916 4.30498 4.64476 4.26487C4.6807 4.24982 4.8261 4.24051 4.96787 4.2442L5.22567 4.25093L5.54947 5.01844Z" fill="#A0627B"/>
</svg>
