<svg width="18" height="18" viewBox="0 0 18 18" fill="none" xmlns="http://www.w3.org/2000/svg">
<path fill-rule="evenodd" clip-rule="evenodd" d="M1.22034 8.38979V15.8135H0.610169C0.0678305 15.8135 0 15.8361 0 16.0169C0 16.2181 0.0678301 16.2203 6.1319 16.2203H12.2638L12.661 16.6271L13.0582 17.0339H15.1525H17.2468L17.6234 16.6482C17.8306 16.4361 18 16.1639 18 16.0431C18 15.9224 17.7007 13.682 17.335 11.0644C16.6388 6.08234 16.6275 5.84742 17.0826 5.84742C17.2693 5.84742 17.2881 5.78213 17.2881 5.13556V4.42369H16.4746H15.661V2.69488V0.966064H8.44068H1.22034V8.38979ZM15.2542 2.89827V4.42369H14.9492H14.6441V3.10166V1.77962H11.1864H7.72881V8.38979V15H9.9661H12.2034V15.4067V15.8135H6.91525H1.62712V8.59318V1.37284H8.44068H15.2542V2.89827ZM2.23729 8.38979V15H4.67797H7.11864V8.38979V1.77962H4.67797H2.23729V8.38979ZM6.71186 5.23725V8.2881H6.20339C5.76275 8.2881 5.69491 8.31525 5.69491 8.49149C5.69491 8.66773 5.76275 8.69488 6.20339 8.69488H6.71186V11.644V14.5932H4.67797H2.64407V8.38979V2.1864H4.67797H6.71186V5.23725ZM14.2373 3.30505V4.42369H13.322H12.4068V5.13556V5.84742H12.8122H13.2177L13.0006 6.29427C12.6052 7.10823 12.9647 7.30949 13.7288 6.70186L14.1864 6.338L14.2144 7.92322C14.2478 9.80884 14.2407 9.82878 13.1694 10.8716C12.5146 11.509 12.4149 11.6561 12.3157 12.1321C12.2539 12.4285 12.2034 13.1035 12.2034 13.6321V14.5932H10.1695H8.13559V11.644V8.69488H8.69491C9.18641 8.69488 9.25424 8.67027 9.25424 8.49149C9.25424 8.31271 9.18641 8.2881 8.69491 8.2881H8.13559V5.23725V2.1864H11.1864H14.2373V3.30505ZM5.45573 3.39098C5.208 3.64969 5.19549 3.69444 5.33868 3.81332C5.47454 3.9261 5.5443 3.90271 5.79844 3.65925C6.02766 3.43959 6.07159 3.34054 5.98566 3.23691C5.82773 3.04664 5.76936 3.06362 5.45573 3.39098ZM3.88098 4.96634C3.03925 5.81162 2.95495 5.92908 3.10241 6.05142C3.24753 6.17183 3.38105 6.07512 4.19949 5.25678C5.02952 4.42674 5.11454 4.30817 4.97807 4.17169C4.84159 4.03532 4.7218 4.12206 3.88098 4.96634ZM5.24319 5.23135C4.45047 6.02773 4.35508 6.16105 4.47468 6.30515C4.5961 6.45149 4.71539 6.36586 5.556 5.52871C6.28292 4.80484 6.47542 4.55722 6.39051 4.45491C6.3298 4.38179 6.25047 4.322 6.21427 4.322C6.17797 4.322 5.74098 4.73122 5.24319 5.23135ZM13.6271 5.13556C13.6271 5.42366 13.6045 5.44064 13.2203 5.44064C12.8361 5.44064 12.8136 5.42366 12.8136 5.13556C12.8136 4.84745 12.8361 4.83047 13.2203 4.83047C13.6045 4.83047 13.6271 4.84745 13.6271 5.13556ZM16.8814 5.14634C16.8814 5.35949 16.8012 5.52525 16.6349 5.65603C16.4994 5.76271 16.3584 5.98664 16.3217 6.15373L16.255 6.45759H15.4496C14.7268 6.45759 14.6441 6.43776 14.6441 6.26498C14.6441 6.15901 14.5068 5.92532 14.339 5.74573C14.1455 5.53857 14.0339 5.31149 14.0339 5.12478V4.83047H15.4576H16.8814V5.14634ZM13.9322 5.93335C13.9322 6.04837 13.537 6.40145 13.4763 6.34064C13.409 6.27332 13.7199 5.84742 13.8363 5.84742C13.8891 5.84742 13.9322 5.88606 13.9322 5.93335ZM16.3729 7.05505C16.3729 7.1599 16.4015 7.38871 16.4364 7.56352L16.5 7.88132H15.572H14.6441V7.37284V6.86437H15.5085C16.2858 6.86437 16.3729 6.88359 16.3729 7.05505ZM16.5761 8.41522C16.5759 8.48518 16.8096 10.228 17.0952 12.2884L17.6146 16.0344L17.3306 16.3307L17.0467 16.6271H15.1257H13.2047L12.8981 16.3205L12.5915 16.0139L12.6262 14.0531C12.6662 11.8018 12.6479 11.857 13.6576 10.9357C14.4033 10.2555 14.6389 9.77376 14.6418 8.92369L14.6441 8.2881H15.6102C16.3154 8.2881 16.5762 8.32247 16.5761 8.41522ZM12.9153 16.0169C12.9153 16.214 12.9831 16.2203 15.1017 16.2203C17.2203 16.2203 17.2881 16.214 17.2881 16.0169C17.2881 15.8198 17.2203 15.8135 15.1017 15.8135C12.9831 15.8135 12.9153 15.8198 12.9153 16.0169Z" fill="#A0627B"/>
</svg>
