<svg width="23" height="17" viewBox="0 0 23 17" fill="none" xmlns="http://www.w3.org/2000/svg">
<g clip-path="url(#clip0_6434_212582)">
<path d="M17.61 4.62078L17.02 5.62078C16.62 6.30078 16.1 6.82078 15.46 7.17078C14.93 7.46078 14.38 7.62078 13.8 7.67078V8.70078C14.37 8.66078 14.95 8.52078 15.54 8.27078C16.09 8.03078 16.58 7.70078 17 7.27078C17.27 6.99078 17.79 7.10078 17.87 7.53078L18.18 9.14078C18.21 9.31078 18.16 9.47078 18.04 9.59078L16.56 11.0708M17.6 4.61078C17.76 4.33078 17.98 4.15078 18.29 4.05078C18.6 3.95078 18.88 3.96078 19.15 4.08078L22.56 5.60078V9.12078H21.6V6.62078C21.6 6.42078 21.48 6.24078 21.3 6.16078L20.65 5.87078C20.28 5.71078 19.88 6.02078 19.96 6.42078L21.72 16.0808H20.73L19.66 10.8308C19.58 10.4408 19.1 10.2908 18.82 10.5708L17.64 11.7308C17.54 11.8208 17.49 11.9508 17.49 12.0908V16.0908H16.46C16.48 14.5008 16.38 13.3808 16.41 11.5408C16.42 11.4108 16.4 11.2308 16.57 11.0708M16.52 0.690781C16.26 0.950781 16.14 1.27078 16.14 1.64078C16.14 2.02078 16.27 2.33078 16.52 2.59078C16.77 2.85078 17.06 2.98078 17.4 2.98078C17.74 2.98078 18.03 2.85078 18.28 2.59078C18.54 2.33078 18.66 2.01078 18.66 1.64078C18.66 1.27078 18.53 0.950781 18.28 0.690781C18.03 0.420781 17.74 0.300781 17.4 0.300781C17.06 0.300781 16.77 0.430781 16.52 0.690781ZM16.52 0.690781L16.3 0.480781" stroke="#A0627B" stroke-width="0.6"/>
<path d="M1.82005 11.5995C0.790049 10.0495 0.300049 8.63953 0.300049 7.35953C0.300049 5.39953 0.910049 3.86953 2.11005 2.73953C3.32005 1.58953 4.71005 1.01953 6.30005 1.01953C7.89005 1.01953 9.28005 1.58953 10.49 2.73953C11.69 3.87953 12.3 5.40953 12.3 7.35953C12.3 8.62953 11.81 10.0395 10.78 11.5995C9.79005 13.1095 8.30005 14.7495 6.30005 16.5195C4.30005 14.7495 2.81005 13.1095 1.82005 11.5995Z" stroke="#A0627B" stroke-width="0.6"/>
<path d="M8.94995 10.3219H7.64995V7.92188V7.62187H7.34995H5.24995H4.94995V7.92188V10.3219H3.64995C3.53995 10.3219 3.44995 10.2319 3.44995 10.1219V6.29187L6.29995 4.67188L9.14995 6.30188V10.1319C9.14995 10.2319 9.05995 10.3219 8.94995 10.3219Z" stroke="#A0627B" stroke-width="0.6"/>
</g>
<defs>
<clipPath id="clip0_6434_212582">
<rect width="22.86" height="16.92" fill="white"/>
</clipPath>
</defs>
</svg>
