<svg width="212" height="213" viewBox="0 0 212 213" fill="none" xmlns="http://www.w3.org/2000/svg">
<circle cx="105.919" cy="106.501" r="105.919" fill="#BBB59B"/>
<path d="M106.307 163.534V48.7939C103.421 48.2311 92.804 50.1229 87.8561 51.1391C78.1102 63.5688 64.0433 64.8391 58.2281 63.9206C56.4303 64.1082 55.3894 65.7967 55.0938 66.6176V114.284C61.7172 152.277 91.9958 162.947 106.307 163.534Z" fill="#AF3B3B"/>
<path d="M106.307 163.534V48.7939C109.193 48.2311 119.81 50.1229 124.758 51.1391C134.504 63.5688 148.571 64.8391 154.386 63.9206C156.184 64.1082 157.225 65.7967 157.521 66.6176V114.284C150.897 152.277 120.619 162.947 106.307 163.534Z" fill="#FFF4DF"/>
</svg>
