<svg width="212" height="213" viewBox="0 0 212 213" fill="none" xmlns="http://www.w3.org/2000/svg">
<circle cx="105.919" cy="106.497" r="105.919" fill="#BBB59B"/>
<path d="M51.9883 59.7112C51.9883 57.0328 54.1661 54.8615 56.8525 54.8615H155.759C158.445 54.8615 160.623 57.0328 160.623 59.7112V159.455C160.623 162.133 158.445 164.304 155.759 164.304H56.8525C54.1661 164.304 51.9883 162.133 51.9883 159.455V59.7112Z" fill="#FFF4DF"/>
<path d="M76.4716 52.4366C76.4716 50.3831 78.1412 48.7184 80.2008 48.7184C82.2604 48.7184 83.9301 50.3831 83.9301 52.4366V59.7112C83.9301 61.7647 82.2604 63.4294 80.2008 63.4294C78.1412 63.4294 76.4716 61.7647 76.4716 59.7112V52.4366Z" fill="#181818"/>
<path d="M102.576 52.4366C102.576 50.3831 104.246 48.7184 106.306 48.7184C108.365 48.7184 110.035 50.3831 110.035 52.4366V59.7112C110.035 61.7647 108.365 63.4294 106.306 63.4294C104.246 63.4294 102.576 61.7647 102.576 59.7112V52.4366Z" fill="#181818"/>
<path d="M128.681 52.4366C128.681 50.3831 130.351 48.7184 132.41 48.7184C134.47 48.7184 136.139 50.3831 136.139 52.4366V59.7112C136.139 61.7647 134.47 63.4294 132.41 63.4294C130.351 63.4294 128.681 61.7647 128.681 59.7112V52.4366Z" fill="#181818"/>
<path d="M61.5546 74.5838H83.9301V88.3248H61.5546V74.5838Z" fill="#AF3B3B"/>
<path d="M106.306 74.5838H128.681V88.3248H106.306V74.5838Z" fill="#AF3B3B"/>
<path d="M128.681 74.5838H151.056V88.3248H128.681V74.5838Z" fill="#D9D4BF"/>
<path d="M61.5546 89.618H83.9301V103.359H61.5546V89.618Z" fill="#AF3B3B"/>
<path d="M106.306 89.618H128.681V103.359H106.306V89.618Z" fill="#AF3B3B"/>
<path d="M61.5546 104.652H83.9301V118.393H61.5546V104.652Z" fill="#AF3B3B"/>
<path d="M106.306 104.652H128.681V118.393H106.306V104.652Z" fill="#AF3B3B"/>
<path d="M128.681 104.652H151.056V118.393H128.681V104.652Z" fill="#D9D4BF"/>
<path d="M61.5546 119.687H83.9301V133.427H61.5546V119.687Z" fill="#AF3B3B"/>
<path d="M83.9301 119.687H106.306V133.427H83.9301V119.687Z" fill="#D9D4BF"/>
<path d="M106.306 119.687H128.681V133.427H106.306V119.687Z" fill="#AF3B3B"/>
<path d="M61.5546 134.721H83.9301V148.462H61.5546V134.721Z" fill="#AF3B3B"/>
<path d="M75.6609 52.4366C75.6609 49.9367 77.6935 47.9102 80.2008 47.9102C82.7082 47.9102 84.7408 49.9367 84.7408 52.4366V59.5496C84.7408 62.0495 82.7082 64.076 80.2008 64.076C77.6935 64.076 75.6609 62.0495 75.6609 59.5496V52.4366Z" fill="#181818"/>
<path d="M101.766 52.4366C101.766 49.9367 103.798 47.9102 106.306 47.9102C108.813 47.9102 110.845 49.9367 110.845 52.4366V59.5496C110.845 62.0495 108.813 64.076 106.306 64.076C103.798 64.076 101.766 62.0495 101.766 59.5496V52.4366Z" fill="#181818"/>
<path d="M127.87 52.4366C127.87 49.9367 129.903 47.9102 132.41 47.9102C134.918 47.9102 136.95 49.9367 136.95 52.4366V59.5496C136.95 62.0495 134.918 64.076 132.41 64.076C129.903 64.076 127.87 62.0495 127.87 59.5496V52.4366Z" fill="#181818"/>
<path fill-rule="evenodd" clip-rule="evenodd" d="M83.9301 74.5838H106.306V75.0688L83.9301 75.0688V74.5838ZM83.9301 87.8398H106.306V88.3248H83.9301V87.8398ZM83.9301 89.618H106.306V90.103H83.9301V89.618ZM128.681 89.618H150.894V103.359H128.681V102.874H150.408V90.103H128.681V89.618ZM83.9301 102.874H106.306V103.359H83.9301V102.874ZM83.9301 104.652H106.306V105.137H83.9301V104.652ZM83.9301 117.908H106.306V118.393H83.9301V117.908ZM128.681 119.687H150.894V133.427H128.681V132.943H150.408V120.172H128.681V119.687ZM83.9301 134.721H150.894V135.206H83.9301V134.721ZM83.9301 147.977H150.894V148.462H83.9301V147.977Z" fill="#D9D4BF"/>
</svg>
