<svg width="212" height="213" viewBox="0 0 212 213" fill="none" xmlns="http://www.w3.org/2000/svg">
<circle cx="105.919" cy="106.497" r="105.919" fill="#BBB59B"/>
<path d="M163.726 106.543C163.514 138.226 137.46 163.739 105.534 163.528C73.6076 163.317 47.8983 137.462 48.1107 105.779C48.323 74.0962 74.3766 48.583 106.303 48.7939C138.229 49.0049 163.939 74.8601 163.726 106.543Z" fill="#FFF4DF"/>
<path d="M106.441 106.47V48.6875C151.759 50.4506 164.12 88.036 163.703 106.47H106.441Z" fill="#AF3B3B"/>
<path d="M104.883 56.4011C104.883 55.5389 105.586 54.84 106.455 54.84C107.323 54.84 108.027 55.5389 108.027 56.4011V63.1964C108.027 64.0586 107.323 64.7575 106.455 64.7575C105.586 64.7575 104.883 64.0586 104.883 63.1964V56.4011Z" fill="#181818"/>
<path d="M157.044 105.07C157.913 105.07 158.617 105.769 158.617 106.631C158.617 107.493 157.913 108.192 157.044 108.192H150.2C149.332 108.192 148.628 107.493 148.628 106.631C148.628 105.769 149.332 105.07 150.2 105.07H157.044Z" fill="#181818"/>
<path d="M104.883 150.158C104.883 149.296 105.586 148.597 106.455 148.597C107.323 148.597 108.027 149.296 108.027 150.158V156.953C108.027 157.815 107.323 158.514 106.455 158.514C105.586 158.514 104.883 157.815 104.883 156.953V150.158Z" fill="#181818"/>
<path d="M62.6166 105.07C63.4849 105.07 64.1889 105.769 64.1889 106.631C64.1889 107.493 63.4849 108.192 62.6166 108.192H55.7727C54.9043 108.192 54.2004 107.493 54.2004 106.631C54.2004 105.769 54.9043 105.07 55.7727 105.07H62.6166Z" fill="#181818"/>
<path d="M63.2874 134.178C62.8663 134.465 62.7591 135.036 63.0481 135.454C63.3372 135.873 63.9129 135.979 64.334 135.692L71.0446 131.12C71.4658 130.833 71.5729 130.261 71.2839 129.843C70.9949 129.425 70.4192 129.318 69.998 129.605L63.2874 134.178Z" fill="#181818"/>
<path d="M141.146 81.1282C140.725 81.4151 140.618 81.9867 140.907 82.4049C141.196 82.8231 141.771 82.9294 142.192 82.6425L148.903 78.0701C149.324 77.7832 149.431 77.2116 149.142 76.7934C148.853 76.3752 148.278 76.2689 147.856 76.5558L141.146 81.1282Z" fill="#181818"/>
<path d="M149.636 134.178C150.057 134.465 150.164 135.036 149.875 135.454C149.586 135.873 149.01 135.979 148.589 135.692L141.879 131.12C141.458 130.833 141.35 130.261 141.639 129.843C141.928 129.425 142.504 129.318 142.925 129.605L149.636 134.178Z" fill="#181818"/>
<path d="M71.7775 81.1282C72.1986 81.4151 72.3057 81.9867 72.0167 82.4049C71.7277 82.8231 71.152 82.9294 70.7309 82.6425L64.0202 78.0701C63.5991 77.7832 63.4919 77.2116 63.781 76.7934C64.07 76.3752 64.6457 76.2689 65.0668 76.5558L71.7775 81.1282Z" fill="#181818"/>
<path d="M80.5936 150.648C80.3497 151.093 80.5159 151.651 80.9646 151.893C81.4134 152.135 81.975 151.97 82.2189 151.525L86.105 144.425C86.3489 143.979 86.1828 143.421 85.734 143.179C85.2852 142.937 84.7236 143.102 84.4797 143.548L80.5936 150.648Z" fill="#181818"/>
<path d="M125.68 68.2692C125.436 68.7148 125.603 69.2724 126.051 69.5145C126.5 69.7567 127.062 69.5918 127.306 69.1462L131.192 62.0459C131.436 61.6003 131.269 61.0428 130.821 60.8006C130.372 60.5585 129.81 60.7234 129.566 61.169L125.68 68.2692Z" fill="#181818"/>
<path d="M132.33 150.648C132.574 151.093 132.407 151.651 131.959 151.893C131.51 152.135 130.948 151.97 130.704 151.525L126.818 144.425C126.574 143.979 126.741 143.421 127.189 143.179C127.638 142.937 128.2 143.102 128.444 143.548L132.33 150.648Z" fill="#181818"/>
<path d="M87.2429 68.2692C87.4868 68.7148 87.3207 69.2724 86.8719 69.5145C86.4231 69.7567 85.8616 69.5918 85.6177 69.1462L81.7316 62.0459C81.4877 61.6003 81.6538 61.0428 82.1026 60.8006C82.5514 60.5585 83.1129 60.7234 83.3568 61.169L87.2429 68.2692Z" fill="#181818"/>
<path d="M105.44 106.364C105.685 105.649 106.468 105.268 107.188 105.512C107.907 105.756 108.291 106.533 108.046 107.247L91.9332 154.108C91.6875 154.823 90.9049 155.204 90.1852 154.96C89.4656 154.716 89.0813 153.939 89.327 153.225L105.44 106.364Z" fill="#D9D4BF"/>
<path d="M129.194 154.282C129.278 154.461 129.201 154.675 129.02 154.758C128.84 154.842 128.625 154.765 128.541 154.586L104.11 102.852C104.026 102.673 104.104 102.459 104.284 102.376C104.464 102.292 104.679 102.369 104.763 102.548L129.194 154.282Z" fill="#AF3B3B"/>
<path d="M80.4851 84.2955C79.6222 83.467 79.5992 82.1009 80.4336 81.2441C81.268 80.3874 82.644 80.3645 83.5068 81.193L107.916 104.63C108.779 105.459 108.802 106.825 107.968 107.682C107.134 108.539 105.758 108.561 104.895 107.733L80.4851 84.2955Z" fill="#D9D4BF"/>
</svg>
