<svg width="56" height="56" viewBox="0 0 56 56" fill="none" xmlns="http://www.w3.org/2000/svg">
<circle cx="28" cy="28" r="27.5" fill="white" stroke="#DBDBDB"/>
<path d="M21.3189 30.5035L20.4835 33.6222L17.4301 33.6868C16.5176 31.9943 16 30.0578 16 28C16 26.0101 16.4839 24.1336 17.3418 22.4813H17.3424L20.0608 22.9797L21.2516 25.6818C21.0024 26.4084 20.8665 27.1884 20.8665 28C20.8666 28.8809 21.0262 29.7249 21.3189 30.5035Z" fill="#FBBB00"/>
<path d="M39.7903 25.7583C39.9281 26.4842 40 27.2339 40 28.0001C40 28.8592 39.9097 29.6972 39.7376 30.5056C39.1534 33.2563 37.627 35.6583 35.5125 37.3581L35.5119 37.3574L32.088 37.1827L31.6034 34.1576C33.0064 33.3348 34.1029 32.0471 34.6805 30.5056H28.2638V25.7583H34.7741H39.7903Z" fill="#518EF8"/>
<path d="M35.5118 37.3574L35.5125 37.358C33.456 39.011 30.8437 40 27.9999 40C23.4301 40 19.4569 37.4457 17.4301 33.6868L21.3189 30.5035C22.3322 33.2081 24.9413 35.1334 27.9999 35.1334C29.3146 35.1334 30.5463 34.778 31.6032 34.1576L35.5118 37.3574Z" fill="#28B446"/>
<path d="M35.6596 18.7626L31.7721 21.9453C30.6783 21.2615 29.3853 20.8666 28 20.8666C24.8721 20.8666 22.2143 22.8802 21.2517 25.6818L17.3425 22.4813H17.3418C19.339 18.6308 23.3622 16 28 16C30.9117 16 33.5814 17.0372 35.6596 18.7626Z" fill="#F14336"/>
</svg>
