<svg width="34" height="34" viewBox="0 0 34 34" fill="none" xmlns="http://www.w3.org/2000/svg">
<g clip-path="url(#clip0_1_1684)">
<path d="M25.4987 18.4154H18.4154V25.4987C18.4154 25.8744 18.2661 26.2348 18.0004 26.5004C17.7348 26.7661 17.3744 26.9154 16.9987 26.9154C16.623 26.9154 16.2626 26.7661 15.997 26.5004C15.7313 26.2348 15.582 25.8744 15.582 25.4987V18.4154H8.4987C8.12297 18.4154 7.76264 18.2661 7.49696 18.0004C7.23129 17.7348 7.08203 17.3744 7.08203 16.9987C7.08203 16.623 7.23129 16.2626 7.49696 15.997C7.76264 15.7313 8.12297 15.582 8.4987 15.582H15.582V8.4987C15.582 8.12297 15.7313 7.76264 15.997 7.49696C16.2626 7.23129 16.623 7.08203 16.9987 7.08203C17.3744 7.08203 17.7348 7.23129 18.0004 7.49696C18.2661 7.76264 18.4154 8.12297 18.4154 8.4987V15.582H25.4987C25.8744 15.582 26.2348 15.7313 26.5004 15.997C26.7661 16.2626 26.9154 16.623 26.9154 16.9987C26.9154 17.3744 26.7661 17.7348 26.5004 18.0004C26.2348 18.2661 25.8744 18.4154 25.4987 18.4154Z" fill="white"/>
</g>
<defs>
<clipPath id="clip0_1_1684">
<rect width="34" height="34" fill="white"/>
</clipPath>
</defs>
</svg>
