<svg width="28" height="30" viewBox="0 0 28 30" fill="none" xmlns="http://www.w3.org/2000/svg">
<path d="M22.6689 5.27393H5.58089C4.16528 5.27393 3.0177 6.47316 3.0177 7.9525V24.0239C3.0177 25.5033 4.16528 26.7025 5.58089 26.7025H22.6689C24.0845 26.7025 25.232 25.5033 25.232 24.0239V7.9525C25.232 6.47316 24.0845 5.27393 22.6689 5.27393Z" stroke="black" stroke-width="1.50733" stroke-linejoin="round"/>
<path d="M7.28969 3.48828V5.274M20.9601 3.48828V5.274M25.2321 9.73828H3.0177" stroke="black" stroke-width="1.50733" stroke-linecap="round" stroke-linejoin="round"/>
<rect x="5.4256" y="12.498" width="2.48552" height="2.5974" rx="0.502442" fill="black"/>
<rect x="10.3966" y="12.498" width="2.48552" height="2.5974" rx="0.502442" fill="black"/>
<rect x="10.3966" y="16.394" width="2.48552" height="2.5974" rx="0.502442" fill="black"/>
<rect x="15.3677" y="16.394" width="2.48552" height="2.5974" rx="0.502442" fill="black"/>
<rect x="10.3966" y="20.29" width="2.48552" height="2.5974" rx="0.502442" fill="black"/>
<rect x="15.3677" y="20.29" width="2.48552" height="2.5974" rx="0.502442" fill="black"/>
<rect x="20.3387" y="16.394" width="2.48552" height="2.5974" rx="0.502442" fill="black"/>
<rect x="20.3387" y="20.29" width="2.48552" height="2.5974" rx="0.502442" fill="black"/>
</svg>
